<?xml version="1.0" standalone="no"?>
<!DOCTYPE svg PUBLIC "-//W3C//DTD SVG 1.1//EN" "http://www.w3.org/Graphics/SVG/1.1/DTD/svg11.dtd" >
<svg xmlns="http://www.w3.org/2000/svg" xmlns:xlink="http://www.w3.org/1999/xlink" version="1.1">
<metadata>
Created by FontForge 20170731 at Tue Feb  2 19:50:28 2021
 By Aleksey,,,
Copyright (c) 2020 by Matthieu Salvaggio. All rights reserved.
</metadata>
<defs>
<font id="ApocLC-DarkItalic" horiz-adv-x="1159" >
  <font-face 
    font-family="Apoc LC Dark"
    font-weight="950"
    font-style="italic"
    font-stretch="normal"
    units-per-em="2048"
    panose-1="0 0 10 0 0 0 0 0 0 0"
    ascent="1638"
    descent="-410"
    x-height="1075"
    cap-height="1556"
    bbox="-1638 -500 2701 2126"
    underline-thickness="102"
    underline-position="-307"
    slope="-11"
    unicode-range="U+0020-FB02"
  />
<missing-glyph horiz-adv-x="1302" 
d="M1112 0h-1130l8 41l168 72l258 1331l-140 72l9 40h1130l-8 -40l-168 -72l-258 -1331l139 -72zM592 1454l-234 -1202l705 1202h-471zM1026 1245l-672 -1143h451z" />
    <glyph glyph-name="fi" unicode="fi" horiz-adv-x="1247" 
d="M455 0h-514l6 31l145 63l170 879h-131l21 102h131l18 92q45 226 175 366t327 140q70 0 121.5 -15.5t117 -51.5t86.5 -45q10 -5 36.5 -15t39.5 -17t30.5 -20t25.5 -31t8 -42q0 -75 -56 -130t-131 -55q-35 0 -59.5 11t-38 31t-19.5 39.5t-10 45.5q-5 31 -8.5 48t-13 42.5
t-23 39t-37.5 24t-57 10.5q-57 0 -102.5 -28.5t-75.5 -78.5t-49 -104t-31 -117l-27 -139h656l-191 -981l121 -63l-6 -31h-514l6 31l146 63l170 879h-408l-170 -879l121 -63z" />
    <glyph glyph-name="fl" unicode="fl" horiz-adv-x="1368" 
d="M455 0h-514l6 31l145 63l170 879h-131l21 102h131l18 92q46 229 173 367.5t312 138.5q57 0 103 -15t72.5 -33t71 -33t97.5 -15q85 0 246 61h41l-301 -1544l121 -63l-6 -31h-514l6 31l145 63l203 1049q13 81 10 141.5t-24.5 105t-49 74t-64.5 47t-70 24.5t-66 7
q-47 0 -85 -17.5t-63 -45.5t-45.5 -72.5t-32.5 -88.5t-24 -104l-27 -139h261l-21 -102h-260l-170 -879l121 -63z" />
    <glyph glyph-name="fh" unicode="fh" horiz-adv-x="1990" 
d="M455 0h-514l6 31l145 63l170 879h-131l21 102h131l18 92q46 229 173 367.5t312 138.5q57 0 103 -15t72.5 -33t71 -33t97.5 -15q85 0 246 61h41l-141 -716q152 186 354 186q60 0 110.5 -17t89.5 -52t54 -96.5t0 -141.5l-137 -707l121 -63l-6 -31h-494l6 31l125 63l117 604
q33 166 16.5 236t-92.5 70q-129 0 -285 -197l-139 -713l121 -63l-6 -31h-514l6 31l145 63l203 1049q13 81 10 141.5t-24.5 105t-49 74t-64.5 47t-70 24.5t-66 7q-47 0 -85 -17.5t-63 -45.5t-45.5 -72.5t-32.5 -88.5t-24 -104l-27 -139h261l-21 -102h-260l-170 -879l121 -63z
" />
    <glyph glyph-name="fb" unicode="fb" horiz-adv-x="1964" 
d="M1358 -23q-183 0 -285 152l-180 -129h-43l221 1143q13 81 10 141.5t-24.5 105t-49 74t-64.5 47t-70 24.5t-66 7q-47 0 -85 -17.5t-63 -45.5t-45.5 -72.5t-32.5 -88.5t-24 -104l-27 -139h261l-21 -102h-260l-170 -879l121 -63l-6 -31h-514l6 31l145 63l170 879h-131
l21 102h131l18 92q46 229 173 367.5t312 138.5q57 0 103 -15t72.5 -33t71 -33t97.5 -15q85 0 246 61h41l-104 -530q275 0 432.5 -128.5t157.5 -352.5q0 -128 -44.5 -248t-118 -208t-174 -141t-208.5 -53zM1341 82q75 0 143.5 78.5t109 207t40.5 269.5q0 178 -90 278.5
t-250 100.5l-161 -842q34 -41 95 -66.5t113 -25.5z" />
    <glyph glyph-name="fk" unicode="fk" horiz-adv-x="1939" 
d="M455 0h-514l6 31l145 63l170 879h-131l21 102h131l18 92q46 229 173 367.5t312 138.5q57 0 103 -15t72.5 -33t71 -33t97.5 -15q85 0 246 61h41l-239 -1230l577 585l-139 51l6 31h399l-6 -31l-200 -67l-283 -291l209 -612l127 -43l-6 -31h-482l6 31l84 32l-137 418
l-176 -180l-41 -207l121 -63l-6 -31h-514l6 31l145 63l203 1049q13 81 10 141.5t-24.5 105t-49 74t-64.5 47t-70 24.5t-66 7q-47 0 -85 -17.5t-63 -45.5t-45.5 -72.5t-32.5 -88.5t-24 -104l-27 -139h261l-21 -102h-260l-170 -879l121 -63z" />
    <glyph glyph-name="ffi" unicode="ffi" horiz-adv-x="1927" 
d="M455 0h-514l6 31l145 63l170 879h-131l21 102h131l18 92q45 226 172.5 366t302.5 140q68 0 125.5 -23.5t90 -52t72 -53.5t75.5 -28q138 157 344 157q70 0 121.5 -15.5t117 -51.5t86.5 -45q10 -5 36.5 -15t39.5 -17t30.5 -20t25.5 -31t8 -42q0 -75 -56 -130t-131 -55
q-35 0 -59.5 11t-38 31t-19.5 39.5t-10 45.5q-5 31 -8.5 48t-13 42.5t-23 39t-37.5 24t-57 10.5q-57 0 -102.5 -28.5t-75.5 -78.5t-49 -104t-31 -117l-27 -139h656l-191 -981l121 -63l-6 -31h-514l6 31l145 63l170 879h-407l-170 -879l121 -63l-6 -31h-514l6 31l145 63
l170 879h-432l-170 -879l121 -63zM557 1214l-27 -139h433l34 180q13 79 2 134t-44.5 89t-72.5 49t-83 15q-54 0 -95.5 -25t-69 -73t-45.5 -102t-32 -128z" />
    <glyph glyph-name="ffl" unicode="ffl" horiz-adv-x="2048" 
d="M455 0h-514l6 31l145 63l170 879h-131l21 102h131l18 92q45 226 172.5 366t302.5 140q55 0 102.5 -15t80 -37.5t60.5 -45t58.5 -39.5t59.5 -20q135 157 329 157q57 0 103 -15t72.5 -33t71 -33t97.5 -15q85 0 246 61h41l-301 -1544l121 -63l-6 -31h-514l6 31l145 63
l203 1049q13 81 10 141.5t-24.5 105t-49 74t-64.5 47t-70 24.5t-66 7q-48 0 -86 -17.5t-63 -45.5t-45 -72.5t-32 -88.5t-24 -104l-27 -139h260l-20 -102h-260l-170 -879l121 -63l-6 -31h-514l6 31l145 63l170 879h-432l-170 -879l121 -63zM557 1214l-27 -139h433l34 180
q13 79 2 134t-44.5 89t-72.5 49t-83 15q-54 0 -95.5 -25t-69 -73t-45.5 -102t-32 -128z" />
    <glyph glyph-name="ff" unicode="ff" horiz-adv-x="1374" 
d="M455 0h-514l6 31l145 63l170 879h-131l21 102h131l18 92q45 226 172.5 366t302.5 140q67 0 124.5 -23.5t90 -52t72 -53.5t74.5 -28q135 157 327 157q48 0 88.5 -11t66 -25.5t49 -39.5t34.5 -41t27 -43l-191 -315h-63q65 141 65 225q0 54 -21 86.5t-65 32.5
q-43 0 -79.5 -27.5t-62.5 -75.5t-44.5 -104t-30.5 -121l-27 -139h260l-20 -102h-260l-170 -879l121 -63l-6 -31h-514l6 31l145 63l170 879h-432l-170 -879l121 -63zM557 1214l-27 -139h433l34 180q28 122 -29 204.5t-169 82.5q-101 0 -156.5 -84t-85.5 -244z" />
    <glyph glyph-name="ffh" unicode="ffh" horiz-adv-x="2670" 
d="M455 0h-514l6 31l145 63l170 879h-131l21 102h131l18 92q45 226 172.5 366t302.5 140q55 0 102.5 -15t80 -37.5t60.5 -45t58.5 -39.5t59.5 -20q135 157 329 157q57 0 103 -15t72.5 -33t71 -33t97.5 -15q85 0 246 61h41l-141 -716q152 186 354 186q60 0 110.5 -17
t89.5 -52t54 -96.5t0 -141.5l-137 -707l121 -63l-6 -31h-494l6 31l125 63l117 604q34 155 18.5 230.5t-94.5 75.5q-129 0 -285 -197l-139 -713l121 -63l-6 -31h-514l6 31l145 63l203 1049q13 81 10 141.5t-24.5 105t-49 74t-64.5 47t-70 24.5t-66 7q-48 0 -86 -17.5
t-63 -45.5t-45 -72.5t-32 -88.5t-24 -104l-27 -139h260l-20 -102h-260l-170 -879l121 -63l-6 -31h-514l6 31l145 63l170 879h-432l-170 -879l121 -63zM557 1214l-27 -139h433l34 180q13 79 2 134t-44.5 89t-72.5 49t-83 15q-54 0 -95.5 -25t-69 -73t-45.5 -102t-32 -128z
" />
    <glyph glyph-name="ffk" unicode="ffk" horiz-adv-x="2619" 
d="M455 0h-514l6 31l145 63l170 879h-131l21 102h131l18 92q45 226 172.5 366t302.5 140q55 0 102.5 -15t80 -37.5t60.5 -45t58.5 -39.5t59.5 -20q135 157 329 157q57 0 103 -15t72.5 -33t71 -33t97.5 -15q85 0 246 61h41l-239 -1230l577 585l-139 51l6 31h399l-6 -31
l-201 -67l-282 -291l209 -612l127 -43l-6 -31h-482l6 31l84 32l-137 418l-176 -180l-41 -207l121 -63l-6 -31h-514l6 31l145 63l203 1049q13 81 10 141.5t-24.5 105t-49 74t-64.5 47t-70 24.5t-66 7q-48 0 -86 -17.5t-63 -45.5t-45 -72.5t-32 -88.5t-24 -104l-27 -139h260
l-20 -102h-260l-170 -879l121 -63l-6 -31h-514l6 31l145 63l170 879h-432l-170 -879l121 -63zM557 1214l-27 -139h433l34 180q13 79 2 134t-44.5 89t-72.5 49t-83 15q-54 0 -95.5 -25t-69 -73t-45.5 -102t-32 -128z" />
    <glyph glyph-name="st" unicode="st" horiz-adv-x="1673" 
d="M358 -23q-131 0 -226.5 47t-127.5 140l123 233h70q-31 -103 -31 -159q0 -170 217 -170q124 0 194 53t70 135q0 54 -49 81t-182 66q-277 83 -277 297q0 147 94 258t244 140q46 242 227 390t431 148q207 0 313.5 -104t71.5 -275l-37 -182h229l-18 -102h-230l-141 -727
q-15 -77 9.5 -125.5t74.5 -48.5q69 0 137 84h66q-59 -79 -152 -129t-184 -50q-113 0 -165 82.5t-26 216.5l136 697h-156l14 71q55 9 102 23.5t93.5 41t79.5 62.5t53 89.5t20 119.5q0 101 -74 153t-216 52q-238 0 -408.5 -133.5t-212.5 -347.5q40 4 68 4q103 0 186 -39
t125 -106q-53 -123 -115 -184.5t-127 -61.5q-80 0 -135 92.5t-47 206.5q-72 -17 -115 -63t-43 -107q0 -28 14 -51.5t33 -40t56 -34t65.5 -27.5t79.5 -27q46 -15 66 -22.5t57 -22.5t54 -26t41 -30t34.5 -38.5t18.5 -47t8 -59.5q0 -195 -134.5 -319t-345.5 -124zM664 752
q37 0 57 19t20 54q0 67 -60 133t-142 66q-23 0 -35 -2q-6 -105 37 -187.5t123 -82.5z" />
    <glyph glyph-name=".notdef" horiz-adv-x="1302" 
d="M1112 0h-1130l8 41l168 72l258 1331l-140 72l9 40h1130l-8 -40l-168 -72l-258 -1331l139 -72zM592 1454l-234 -1202l705 1202h-471zM1026 1245l-672 -1143h451z" />
    <glyph glyph-name=".null" horiz-adv-x="0" 
 />
    <glyph glyph-name="nonmarkingreturn" horiz-adv-x="682" 
 />
    <glyph glyph-name="space" unicode=" " horiz-adv-x="446" 
 />
    <glyph glyph-name="exclam" unicode="!" horiz-adv-x="495" 
d="M248 385h-58q21 150 89.5 608t76.5 504q16 83 40.5 112t66.5 29q32 0 46.5 -14t14.5 -51q0 -50 -111.5 -516t-164.5 -672zM139 -23q-50 0 -81 29.5t-31 75.5q0 66 49 116t114 50q51 0 82 -31t31 -78q0 -66 -49 -114t-115 -48z" />
    <glyph glyph-name="quotedbl" unicode="&#x22;" horiz-adv-x="536" 
d="M266 1055h-37q8 297 31 420q10 56 29 76t59 20t50 -19.5t-1 -76.5q-22 -120 -131 -420zM502 1055h-37q8 297 31 420q10 56 29 76t59 20t50 -19.5t-1 -76.5q-22 -120 -131 -420z" />
    <glyph glyph-name="numbersign" unicode="#" horiz-adv-x="1198" 
d="M1130 1556h123l-215 -477h201l-20 -106h-230l-192 -426h194l-20 -107h-223l-199 -440h-123l199 440h-246l-199 -440h-123l199 440h-213l20 107h242l193 426h-207l20 106h236l215 477h123l-215 -477h245zM428 547h246l192 426h-245z" />
    <glyph glyph-name="dollar" unicode="$" horiz-adv-x="1128" 
d="M782 1298l-73 -380q68 -23 117 -45.5t101.5 -59.5t80.5 -89t28 -118q0 -168 -134.5 -291.5t-338.5 -148.5l-45 -227h-129l43 221q-140 8 -241 60t-134 138l150 299h55q-11 -59 -17 -100.5t-8.5 -87t3.5 -76t20 -60t38.5 -47.5t62 -29.5t88.5 -14.5l81 420
q-278 105 -278 327q0 159 117 268.5t303 128.5l37 191h129l-37 -188q181 -18 295 -142l-138 -227h-55q47 246 -121 278zM483 1083q0 -47 25.5 -73.5t79.5 -48.5l65 331q-76 -19 -123 -75.5t-47 -133.5zM651 623l-71 -373q100 20 154 80.5t54 152.5q0 56 -34.5 86t-102.5 54z
" />
    <glyph glyph-name="percent" unicode="%" horiz-adv-x="1935" 
d="M459 815q-72 0 -127.5 29t-87.5 77.5t-48 105t-16 118.5q0 82 33.5 169t90.5 161.5t144 122t185 47.5q72 0 127.5 -30t88.5 -79.5t49.5 -108.5t16.5 -122q0 -65 -21 -133.5t-61.5 -132t-95 -114t-127 -80.5t-151.5 -30zM489 883q38 0 74.5 26t69 80t52.5 151.5t20 225.5
q0 99 -26 156t-79 57q-30 0 -59.5 -16t-58.5 -54t-50.5 -93t-35 -139t-13.5 -187q0 -96 26 -151.5t80 -55.5zM362 0h-122l1384 1556h127zM1405 -12q-72 0 -127.5 28.5t-87.5 77t-48 105t-16 118.5q0 82 33.5 169t90.5 161.5t144 122t185 47.5q58 0 106 -20t80 -53
t54.5 -77.5t32.5 -92t10 -97.5q0 -81 -34 -167t-92 -158t-145.5 -118t-185.5 -46zM1436 55q38 0 74.5 26.5t69 80.5t52 151.5t19.5 225.5q0 99 -26 156t-79 57q-38 0 -74.5 -27.5t-69.5 -83t-53 -154t-20 -225.5q0 -96 26.5 -151.5t80.5 -55.5z" />
    <glyph glyph-name="ampersand" unicode="&#x26;" horiz-adv-x="1325" 
d="M1249 -53h-41q-145 60 -309 184q-100 -73 -221 -114.5t-244 -41.5q-185 0 -300.5 89t-115.5 229q0 52 16.5 102t40 88t63 77t70 63.5t79 53.5t71.5 41.5t64 33.5q-35 113 -35 227q0 263 146.5 428.5t379.5 165.5q146 0 227 -63.5t81 -166.5q0 -56 -24.5 -111.5
t-54.5 -97.5t-90.5 -90t-97.5 -74.5t-112.5 -67t-98.5 -51.5t-91 -42q-14 -7 -21 -10q55 -309 278 -568q72 57 121.5 126.5t77.5 155t17.5 188.5t-62.5 212h41q56 -100 70 -205.5t-10.5 -200t-77 -178.5t-128.5 -151q128 -134 291 -231zM623 850q171 96 268.5 228t97.5 288
q0 127 -100 127q-71 0 -135 -72t-102 -194t-38 -260q0 -43 9 -117zM498 72q75 0 165.5 28t172.5 80q-293 243 -392 508q-73 -70 -119 -181.5t-46 -215.5t55.5 -161.5t163.5 -57.5z" />
    <glyph glyph-name="quotesingle" unicode="'" horiz-adv-x="301" 
d="M266 1055h-37q8 297 31 420q10 56 29 76t59 20t50 -19.5t-1 -76.5q-22 -120 -131 -420z" />
    <glyph glyph-name="parenleft" unicode="(" horiz-adv-x="589" 
d="M420 -123h-66q-26 26 -57 69t-66.5 112.5t-64 148.5t-47.5 182.5t-19 208.5q0 143 49 295t121 272.5t159 229t156.5 175t119.5 101.5h65q-48 -45 -105.5 -120.5t-124 -193t-120 -248.5t-89.5 -297t-36 -329q0 -207 38.5 -370.5t86.5 -235.5z" />
    <glyph glyph-name="parenright" unicode=")" horiz-adv-x="591" 
d="M-23 -123h-65q52 48 108.5 118t123 182t117.5 236t85.5 289t34.5 334q0 203 -37 385.5t-82 249.5h66q32 -31 73 -103t81.5 -170t68 -226.5t27.5 -249.5q0 -152 -49 -304t-118 -265t-157.5 -216t-155 -162t-121.5 -98z" />
    <glyph glyph-name="asterisk" unicode="*" horiz-adv-x="661" 
d="M442 1141q-48 0 -48 34q1 35 69 166q6 12 16 31q-125 -112 -161 -130q-40 -22 -59 13l-5 11q-20 49 26 71.5t197 51.5q-143 31 -179 54t3 73q20 26 37.5 32t42 -15t43.5 -45.5t61 -84.5q-20 133 -11 184t65 51q49 0 48 -34q0 -35 -67 -166q-7 -13 -20 -39q65 60 98 88.5
t63.5 47t45.5 13t24 -31.5q8 -18 5.5 -32.5t-11 -24.5t-28.5 -19.5t-46 -16.5t-64.5 -16t-83.5 -18h-1q145 -30 181.5 -51.5t-1.5 -71.5q-21 -28 -38 -35t-41 12.5t-44 45.5t-63 87q21 -134 11.5 -184.5t-65.5 -50.5z" />
    <glyph glyph-name="plus" unicode="+" horiz-adv-x="899" 
d="M532 635h297l-24 -127h-297l-57 -297h-127l57 297h-299l24 127h300l59 299h127z" />
    <glyph glyph-name="comma" unicode="," horiz-adv-x="395" 
d="M-86 -336h-27q174 180 174 303q0 63 -59 154q12 57 53 92t90 35q47 0 75 -27t28 -71q0 -85 -93 -220t-241 -266z" />
    <glyph glyph-name="hyphen" unicode="-" horiz-adv-x="733" 
d="M618 506h-518l27 139h518z" />
    <glyph glyph-name="period" unicode="." horiz-adv-x="421" 
d="M115 -23q-51 0 -82 31.5t-31 79.5q0 65 48.5 112.5t117.5 47.5q50 0 80.5 -32.5t30.5 -82.5q0 -64 -48 -110t-116 -46z" />
    <glyph glyph-name="slash" unicode="/" horiz-adv-x="1110" 
d="M12 -244h-123l1266 1882h127z" />
    <glyph glyph-name="zero" unicode="0" horiz-adv-x="1374" 
d="M555 -23q-89 0 -163 34.5t-124 93t-85 137.5t-50.5 166t-15.5 180q0 121 32 244.5t87 231t131 202t161.5 162t182 106.5t188.5 39q112 0 200.5 -58t141.5 -152.5t80 -206t27 -228.5q0 -118 -32.5 -238.5t-89 -224t-134 -194.5t-164.5 -155.5t-183.5 -101.5t-189.5 -37z
M614 63q130 0 237 122.5t166.5 324.5t59.5 434q0 249 -66.5 396t-164.5 147q-94 0 -181.5 -75.5t-150.5 -199t-101 -288t-38 -336.5q0 -241 69 -383t170 -142z" />
    <glyph glyph-name="one" unicode="1" horiz-adv-x="874" 
d="M694 0h-604l6 31l170 82l236 1214l-381 -293h-6l6 31l411 491h465l-6 -30l-166 -66l-262 -1347l137 -82z" />
    <glyph glyph-name="two" unicode="2" horiz-adv-x="1173" 
d="M946 0h-993l8 41q244 119 449.5 326.5t324.5 449.5t119 461q0 99 -38 154t-114 55q-116 0 -221 -117t-147 -330l-49 -249h-43l-35 413q38 71 84.5 130t114 116t160.5 90t200 33q163 0 260.5 -78.5t97.5 -241.5q0 -345 -368 -731q-100 -104 -210.5 -197.5t-273.5 -211.5
h553l213 204h41z" />
    <glyph glyph-name="three" unicode="3" horiz-adv-x="1196" 
d="M424 -25q-189 0 -304 75t-124 194l180 303h43l-69 -258q-14 -73 23 -129t102 -82.5t143 -26.5q81 0 157 38.5t131.5 102t89 150.5t33.5 180q0 109 -57.5 178.5t-167.5 69.5q-70 0 -164 -33l13 62q197 90 313.5 228t116.5 278q0 78 -41 130t-125 52q-117 0 -212.5 -102
t-127.5 -265q-25 -128 -29 -153h-49l-39 323q102 134 236.5 208.5t289.5 74.5q158 0 266.5 -72.5t108.5 -185.5q0 -123 -132.5 -249t-366.5 -228q125 21 226 -6.5t160.5 -102.5t59.5 -186q0 -155 -91.5 -286t-249 -206.5t-343.5 -75.5z" />
    <glyph glyph-name="four" unicode="4" horiz-adv-x="1214" 
d="M1004 0h-623l6 31l191 82l53 276h-641l12 62l881 1105h424l-7 -30l-165 -64l-187 -960l180 -72l-8 -41h-194l-54 -276l138 -82zM815 1339l-663 -868h495z" />
    <glyph glyph-name="five" unicode="5" horiz-adv-x="1429" 
d="M635 -25q-229 0 -403.5 148t-223.5 387h51q54 -198 193 -321t315 -123q219 0 371 172.5t152 427.5q0 139 -58.5 223t-161.5 84q-117 0 -230.5 -94.5t-184.5 -249.5h-281l320 835l-136 62l7 30h999l8 -317h-41l-131 221h-442l-234 -596q-5 -16 0 -16q7 0 17 12
q141 195 440 195q76 0 146.5 -30.5t124 -83.5t86 -132t32.5 -170q0 -118 -43.5 -225t-117 -185.5t-168 -136.5t-199 -87.5t-207.5 -29.5z" />
    <glyph glyph-name="six" unicode="6" horiz-adv-x="1359" 
d="M594 -23q-224 0 -350.5 154t-126.5 418q0 149 34 287.5t93 249.5t139.5 203.5t173.5 154t195 95.5t204 34q73 0 136.5 -18t103.5 -46t63.5 -50.5t34.5 -41.5l-65 -332h-62q36 183 -37.5 287.5t-216.5 104.5q-96 0 -179 -49t-144 -135t-104 -196t-66 -239
q-18 -103 -21 -145q68 149 196.5 245.5t297.5 96.5q172 0 282.5 -110t110.5 -300q0 -143 -57 -269t-152 -212.5t-221 -136.5t-262 -50zM618 74q105 0 195 77.5t142.5 209t52.5 284.5q0 150 -58.5 239t-154.5 89q-80 0 -155.5 -55t-127 -140t-82.5 -186.5t-31 -194.5
q0 -139 57.5 -231t161.5 -92z" />
    <glyph glyph-name="seven" unicode="7" horiz-adv-x="1064" 
d="M319 0h-260l387 735h-231l21 103h266l327 622h-397l-217 -221h-37l129 317h948l-6 -30l-145 -56l-342 -628l166 -45l-13 -62h-208z" />
    <glyph glyph-name="eight" unicode="8" horiz-adv-x="1273" 
d="M516 -23q-214 0 -337.5 96t-123.5 261q0 177 126.5 320t310.5 182q-104 25 -167 100.5t-63 185.5q0 192 164 321.5t408 129.5q190 0 300.5 -89.5t110.5 -230.5q0 -135 -97.5 -243t-270.5 -172q134 -17 215.5 -110.5t81.5 -229.5q0 -151 -86 -270.5t-236 -185t-336 -65.5z
M696 877q119 0 197 104.5t78 259.5q0 111 -48.5 178.5t-131.5 67.5q-117 0 -194 -107t-77 -264q0 -109 47 -174t129 -65zM555 63q152 0 249 124t97 309q0 132 -61.5 211t-167.5 79q-150 0 -253.5 -124.5t-103.5 -309.5q0 -130 65 -209.5t175 -79.5z" />
    <glyph glyph-name="nine" unicode="9" horiz-adv-x="1349" 
d="M477 -23q-126 0 -237 44.5t-144 111.5l64 332h61q-33 -175 53 -283t248 -108q94 0 175 41.5t139.5 112.5t103.5 169t72 208t41 233q-70 -149 -198.5 -245.5t-297.5 -96.5q-171 0 -281 103t-110 284q0 138 56 265.5t149 220.5t221 148.5t266 55.5q224 0 349.5 -141
t125.5 -390q0 -208 -70.5 -404.5t-186.5 -341t-274 -232t-325 -87.5zM655 578q95 0 187.5 88t150.5 228.5t58 283.5q0 133 -56.5 216t-160.5 83q-100 0 -191.5 -84.5t-146 -223t-54.5 -290.5q0 -139 58.5 -220t154.5 -81z" />
    <glyph glyph-name="colon" unicode=":" horiz-adv-x="501" 
d="M295 758q-51 0 -82 29.5t-31 74.5q0 66 49.5 116t114.5 50q51 0 82 -30.5t31 -77.5q0 -66 -49 -114t-115 -48zM143 -23q-50 0 -81 29.5t-31 75.5q0 66 49.5 116t114.5 50q51 0 81.5 -31t30.5 -78q0 -66 -49 -114t-115 -48z" />
    <glyph glyph-name="semicolon" unicode=";" horiz-adv-x="497" 
d="M295 758q-51 0 -82 29.5t-31 74.5q0 66 49.5 116t114.5 50q51 0 82 -30.5t31 -77.5q0 -66 -49 -114t-115 -48zM-47 -336h-27q174 180 174 303q0 63 -59 154q12 57 53 92t90 35q47 0 75 -27t28 -71q0 -85 -93 -220t-241 -266z" />
    <glyph glyph-name="less" unicode="&#x3c;" horiz-adv-x="1026" 
d="M852 233l-29 -147l-753 459l12 61l932 457l-29 -148l-702 -340z" />
    <glyph glyph-name="equal" unicode="=" horiz-adv-x="1007" 
d="M877 696h-723l24 127h723zM842 328h-723l24 127h723z" />
    <glyph glyph-name="greater" unicode="&#x3e;" horiz-adv-x="1028" 
d="M961 545l-934 -459l28 147l705 342l-572 340l29 148l756 -457z" />
    <glyph glyph-name="question" unicode="?" horiz-adv-x="958" 
d="M365 348h-62q0 63 12 127q12 58 27.5 100.5t49 91t62 82.5t95.5 109q45 49 73.5 82t72 93.5t68.5 112.5t44.5 122t19.5 139q0 92 -41.5 134t-107.5 42q-70 0 -137.5 -46.5t-118.5 -124.5t-80 -190t-25 -233h-51l-35 414q62 114 188 190t298 76q66 0 122 -12.5t108 -41.5
t82 -85.5t30 -136.5q0 -76 -22 -151t-58.5 -135.5t-67 -101t-63.5 -75.5q-48 -51 -116 -105.5t-119.5 -95.5t-103.5 -93t-89 -124t-55 -164zM272 -23q-50 0 -81 29.5t-31 75.5q0 66 49.5 116t114.5 50q51 0 81.5 -31t30.5 -78q0 -66 -49 -114t-115 -48z" />
    <glyph glyph-name="at" unicode="@" horiz-adv-x="1619" 
d="M627 -164q-161 0 -287.5 66.5t-200 195.5t-73.5 301q0 187 72.5 358.5t194 295.5t290 198t352.5 74q276 0 432 -150t156 -411q0 -185 -64 -350t-170 -264t-225 -99q-75 0 -132.5 35.5t-74.5 95.5q-47 -46 -118.5 -74t-141.5 -28q-121 0 -190.5 80t-69.5 217
q0 135 53.5 257t144.5 209.5t218 139t268 51.5h158l-134 -678q-19 -89 -2.5 -145.5t66.5 -56.5q61 0 123.5 88t102.5 225t40 270q0 222 -122 346.5t-339 124.5q-148 0 -283.5 -63t-234.5 -168.5t-158 -251.5t-59 -305q0 -233 141.5 -371.5t358.5 -138.5q148 0 303 70l-8 -52
q-204 -92 -387 -92zM711 195q44 0 99 15.5t81 39.5l139 713q-124 0 -233.5 -79.5t-174.5 -212t-65 -282.5q0 -91 39.5 -142.5t114.5 -51.5z" />
    <glyph glyph-name="A" unicode="A" horiz-adv-x="1607" 
d="M354 0h-501l6 31l186 43l748 1218l-68 281h324l358 -1499l162 -43l-6 -31h-707l6 31l217 43l-100 450h-563l-277 -450l221 -43zM823 1194l-348 -569h479z" />
    <glyph glyph-name="B" unicode="B" horiz-adv-x="1433" 
d="M621 0h-658l6 31l170 82l262 1347l-141 66l6 30h664q228 0 361.5 -87.5t133.5 -235.5q0 -145 -120 -268t-314 -179q167 -29 264 -116t97 -207q0 -131 -94.5 -237t-262 -166t-374.5 -60zM698 1464l-123 -637h132q177 0 303.5 115.5t126.5 276.5q0 115 -107 180t-291 65
h-41zM555 727l-119 -614h197q189 0 309.5 103.5t120.5 264.5q0 115 -101 180.5t-276 65.5h-131z" />
    <glyph glyph-name="C" unicode="C" horiz-adv-x="1636" 
d="M780 -23q-316 0 -498 162.5t-182 438.5q0 206 83 390.5t224 317t336.5 210t413.5 77.5q166 0 294 -48.5t171 -127.5l-88 -455h-61q47 250 -49 402.5t-300 152.5q-185 0 -340.5 -119.5t-245 -326.5t-89.5 -453q0 -252 109.5 -398.5t303.5 -146.5q206 0 412 155t336 408h51
q-140 -288 -381 -463.5t-500 -175.5z" />
    <glyph glyph-name="D" unicode="D" horiz-adv-x="1699" 
d="M569 0h-606l6 31l170 82l262 1347l-141 66l6 30h645q360 0 568.5 -166t208.5 -448q0 -196 -86 -371t-234.5 -300t-356.5 -198t-442 -73zM698 1462l-262 -1349h137q217 0 396.5 110.5t283 303t103.5 425.5q0 237 -149.5 373.5t-411.5 136.5h-97z" />
    <glyph glyph-name="E" unicode="E" horiz-adv-x="1257" 
d="M1038 0h-1075l6 31l170 82l262 1347l-141 66l6 30h1055l10 -317h-41l-131 221h-461l-116 -592h297l106 174h62l-89 -448h-61l-37 174h-297l-127 -655h482l212 204h41z" />
    <glyph glyph-name="F" unicode="F" horiz-adv-x="1210" 
d="M588 0h-625l6 31l170 82l262 1347l-141 66l6 30h1055l10 -317h-41l-131 221h-461l-116 -592h297l106 174h62l-89 -448h-61l-37 174h-297l-125 -645l156 -92z" />
    <glyph glyph-name="G" unicode="G" horiz-adv-x="1675" 
d="M772 -23q-139 0 -261.5 44t-213 123.5t-143 197.5t-52.5 258q0 152 54.5 299.5t153 267.5t227 212t285.5 143t319 51q108 0 202 -22.5t150 -54t88 -57.5t39 -42l-88 -455h-41q47 269 -51.5 412t-329.5 143q-195 0 -348 -119.5t-237.5 -335t-84.5 -489.5
q0 -233 96.5 -366.5t280.5 -133.5q120 0 229 57t174.5 151t65.5 198t-86 167t-260 76l8 41h651l-143 -743h-43l2 434q-91 -225 -256 -341t-387 -116z" />
    <glyph glyph-name="H" unicode="H" horiz-adv-x="1671" 
d="M567 0h-604l6 31l170 82l262 1347l-141 66l6 30h604l-6 -30l-166 -66l-114 -590h635l114 590l-141 66l6 30h604l-6 -30l-166 -66l-262 -1347l137 -82l-6 -31h-604l6 31l170 82l127 655h-635l-127 -655l137 -82z" />
    <glyph glyph-name="I" unicode="I" horiz-adv-x="739" 
d="M567 0h-604l6 31l170 82l262 1347l-141 66l6 30h604l-6 -30l-166 -66l-262 -1347l137 -82z" />
    <glyph glyph-name="J" unicode="J" horiz-adv-x="1034" 
d="M305 -23q-137 0 -223 45t-156 144l291 416h37q-83 -168 -103 -223t-20 -128q0 -88 39 -131t106 -43q40 0 72 15.5t64.5 56t60.5 120.5t51 200l197 1011l-141 66l6 30h604l-6 -30l-166 -66l-205 -1046q-14 -74 -37 -134.5t-63 -118.5t-94 -97t-134 -63t-180 -24z" />
    <glyph glyph-name="K" unicode="K" horiz-adv-x="1439" 
d="M567 0h-604l6 31l170 82l262 1347l-141 66l6 30h604l-6 -30l-166 -66l-131 -669l678 694l-143 41l6 30h399l-6 -30l-178 -45l-461 -480l404 -923l137 -47l-6 -31h-660l6 31l164 43l-305 657l-57 -61l-109 -557l137 -82z" />
    <glyph glyph-name="L" unicode="L" horiz-adv-x="1179" 
d="M997 0h-1034l6 31l170 82l262 1347l-141 66l6 30h604l-6 -30l-166 -66l-262 -1347h441l213 204h40z" />
    <glyph glyph-name="M" unicode="M" horiz-adv-x="1918" 
d="M362 0h-399l6 31l170 82l262 1347l-141 66l6 30h453l219 -1179l684 1179h428l-6 -30l-166 -66l-262 -1347l137 -82l-6 -31h-604l6 31l170 82l225 1159l-729 -1272h-123l-233 1272l-226 -1159l136 -82z" />
    <glyph glyph-name="N" unicode="N" horiz-adv-x="1447" 
d="M362 0h-399l6 31l170 82l262 1347l-141 66l6 30h269l618 -1001l176 905l-141 66l6 30h399l-6 -30l-166 -66l-284 -1460h-72l-651 1042l-181 -929l136 -82z" />
    <glyph glyph-name="O" unicode="O" horiz-adv-x="1626" 
d="M678 -23q-252 0 -414 170.5t-162 442.5q0 188 77.5 369t203.5 315t295.5 216.5t345.5 82.5q258 0 426 -173.5t168 -443.5q0 -123 -36.5 -246.5t-100.5 -230.5t-153.5 -200.5t-192.5 -159.5t-221.5 -104t-235.5 -38zM774 53q135 0 249 133.5t180.5 362.5t66.5 498
q0 222 -79 336t-228 114q-101 0 -197.5 -78.5t-167 -207.5t-113.5 -303.5t-43 -358.5q0 -238 91.5 -367t240.5 -129z" />
    <glyph glyph-name="P" unicode="P" horiz-adv-x="1323" 
d="M567 0h-604l6 31l170 82l262 1347l-141 66l6 30h695q87 0 168 -21t147.5 -60.5t106.5 -103.5t40 -144q0 -134 -95 -249t-258 -183t-353 -68h-162l-119 -614l137 -82zM696 1454l-121 -625h132q192 0 311 110.5t119 289.5q0 225 -310 225h-131z" />
    <glyph glyph-name="Q" unicode="Q" horiz-adv-x="1636" 
d="M1057 -301q-67 0 -128 23.5t-109 56.5t-98 66.5t-118 57t-147 23.5q-234 0 -381 -196h-41q56 87 168 172.5t243 124.5q-158 68 -247.5 225t-89.5 371q0 134 38.5 261.5t105.5 230t157 189.5t192 145.5t212 91t216 32.5q264 0 429 -181t165 -466q0 -169 -65.5 -328
t-174 -278t-246 -203.5t-282.5 -118.5q51 -21 130.5 -64t137 -66.5t105.5 -23.5q111 0 201 133h30q-169 -278 -403 -278zM780 53q74 0 145 36.5t135 113.5t112 185t76 261.5t28 333.5q0 151 -19.5 252.5t-60.5 158.5t-95 80t-132 23q-74 0 -148 -38.5t-140.5 -115.5
t-118.5 -182.5t-82.5 -251t-30.5 -309.5q0 -147 24.5 -255t70 -170.5t104 -92t132.5 -29.5z" />
    <glyph glyph-name="R" unicode="R" horiz-adv-x="1466" 
d="M567 0h-604l6 31l170 82l262 1347l-141 66l6 30h695q87 0 168 -20.5t147.5 -60t106.5 -105t40 -147.5q0 -152 -126.5 -280t-335.5 -183l274 -647l188 -82l-6 -31h-645l6 31l158 59l-268 637h-113l-119 -614l137 -82zM696 1454l-121 -625h132q189 0 309.5 110.5
t120.5 272.5q0 50 -13.5 89.5t-32.5 64.5t-50 43t-55.5 26.5t-60 13t-53.5 5t-45 0.5h-131z" />
    <glyph glyph-name="S" unicode="S" horiz-adv-x="1296" 
d="M537 -23q-323 0 -527 240l232 399h61q-67 -223 -67 -307q0 -126 82 -188t219 -62q213 0 328.5 77t115.5 218q0 81 -81 129q-56 34 -234 88h-1h-1l-1 1h-1h-1l-1 1h-1h-1l-1 1h-1h-1l-1 1h-1h-1h-1l-1 1h-2l-32 10l-26 8q-350 108 -350 403q0 163 78.5 295t216.5 206.5
t309 74.5q156 0 285.5 -57t177.5 -109l-193 -383h-61q41 160 41 227q0 125 -74 188.5t-207 63.5q-154 0 -257 -78t-103 -198q0 -35 12 -64.5t38 -53t53.5 -42t71.5 -36t79 -29t88 -27.5l20 -6q50 -15 83 -26t78 -29.5t74 -37t61 -47t50.5 -60.5t30.5 -76t12 -95
q0 -270 -188 -445.5t-479 -175.5z" />
    <glyph glyph-name="T" unicode="T" horiz-adv-x="1339" 
d="M866 0h-604l6 31l170 82l262 1347h-307l-196 -221h-52l134 317h1177l10 -317h-51l-110 221h-308l-262 -1347l137 -82z" />
    <glyph glyph-name="U" unicode="U" horiz-adv-x="1519" 
d="M666 -23q-139 0 -236.5 33t-150 87t-74.5 135.5t-19 165.5t23 190l170 872l-141 66l6 30h604l-6 -30l-166 -66l-141 -729q-18 -93 -29.5 -163t-18 -143t-3.5 -125t15.5 -99.5t37 -76.5t64.5 -46t95 -17q157 0 262.5 49.5t176 165.5t108.5 312l170 872l-141 66l6 30h399
l-6 -30l-166 -66l-170 -872q-22 -115 -56 -205.5t-87.5 -168.5t-125.5 -129t-173 -79.5t-227 -28.5z" />
    <glyph glyph-name="V" unicode="V" horiz-adv-x="1531" 
d="M922 -16h-324l-328 1458l-131 84l6 30h605l-7 -30l-153 -60l233 -1104l697 1108l-152 56l6 30h400l-7 -30l-170 -82l-743 -1180z" />
    <glyph glyph-name="W" unicode="W" horiz-adv-x="2045" 
d="M565 0h-69l-211 1432l-152 94l6 30h625l-6 -30l-140 -66l140 -930l491 1026h195l153 -1026l451 930l-184 66l6 30h399l-6 -30l-137 -68l-721 -1458h-70l-178 1208z" />
    <glyph glyph-name="X" unicode="X" horiz-adv-x="1411" 
d="M340 0h-410l7 31l159 55l522 629l-327 745l-139 66l6 30h624l-6 -30l-153 -47l225 -516l422 507l-152 56l6 30h400l-6 -30l-175 -72l-466 -557l354 -811l135 -55l-6 -31h-625l6 31l154 55l-246 557l-456 -557l153 -55z" />
    <glyph glyph-name="Y" unicode="Y" horiz-adv-x="1368" 
d="M891 0h-604l6 31l170 82l90 462l-252 885l-158 66l7 30h624l-6 -30l-152 -47l211 -817l516 806l-172 58l7 30h419l-6 -30l-174 -72l-565 -866l-92 -475l137 -82z" />
    <glyph glyph-name="Z" unicode="Z" horiz-adv-x="1122" 
d="M920 0h-963l4 72l909 1388h-403l-219 -231h-41l135 327h860l-2 -55l-899 -1388h498l213 204h41z" />
    <glyph glyph-name="bracketleft" unicode="[" horiz-adv-x="581" 
d="M422 -123h-371l348 1794h371l-10 -51l-234 -92l-293 -1508l199 -92z" />
    <glyph glyph-name="backslash" unicode="\" horiz-adv-x="1812" 
d="M369 1638l1265 -1882h-123l-1269 1882h127z" />
    <glyph glyph-name="bracketright" unicode="]" horiz-adv-x="579" 
d="M272 -123h-370l10 51l235 92l293 1508l-200 92l10 51h371z" />
    <glyph glyph-name="asciicircum" unicode="^" horiz-adv-x="724" 
d="M178 891h-41q214 373 279 465t116 92q19 0 32 -7.5t26.5 -30t26 -58.5t29 -98t36 -143t46.5 -198l1.5 -7.5t1.5 -6.5l2 -8h-41q-47 77 -71.5 119t-59 116.5t-61.5 155.5q-29 -43 -60.5 -85.5t-53 -70t-57 -68t-49 -56t-54 -59t-48.5 -52.5z" />
    <glyph glyph-name="underscore" unicode="_" horiz-adv-x="1001" 
d="M795 -246h-887l26 140h887z" />
    <glyph glyph-name="grave" unicode="`" horiz-adv-x="499" 
d="M739 1178h-26q-126 110 -200.5 196.5t-74.5 126.5q0 62 66 62q54 0 119 -106t116 -279z" />
    <glyph glyph-name="a" unicode="a" horiz-adv-x="1058" 
d="M940 752l-115 -588l123 -41l-10 -62l-350 -61h-41l41 213q-14 -30 -44.5 -67.5t-75.5 -77.5t-107.5 -66.5t-127.5 -26.5q-97 0 -155 57t-58 152q0 180 179 323.5t485 207.5l12 61q8 39 10.5 69t-3 62.5t-21.5 53.5t-49 35t-82 14q-114 0 -183 -58.5t-69 -156.5
q0 -30 10 -68h-71l-62 213q55 60 185.5 114t279.5 54q169 0 252 -85t47 -271zM369 98q43 0 85.5 30t75 75.5t53 83t33.5 69.5l54 287q-4 -1 -14 -4q-32 -9 -53 -15.5t-63.5 -24.5t-72 -37.5t-67 -53.5t-60.5 -73t-39 -96t-16 -122q0 -119 84 -119z" />
    <glyph glyph-name="b" unicode="b" horiz-adv-x="1142" 
d="M537 -23q-184 0 -285 152l-180 -129h-43l290 1501l-116 66l6 30l346 41h41l-104 -530q275 0 432 -128.5t157 -352.5q0 -171 -74.5 -321.5t-200 -239.5t-269.5 -89zM520 82q73 0 144 79.5t115 207t44 260.5q0 181 -94 284t-256 103l-164 -840q37 -43 93 -68.5t118 -25.5z
" />
    <glyph glyph-name="c" unicode="c" horiz-adv-x="1064" 
d="M487 -23q-193 0 -312.5 122t-119.5 321q0 188 89 346.5t242 250t335 91.5q244 0 338 -160l-209 -350h-51q84 150 84 260q0 78 -44.5 122t-123.5 44q-108 0 -202.5 -87t-151 -234.5t-56.5 -315.5q0 -152 63.5 -239t178.5 -87q110 0 228.5 82t201.5 217h51
q-92 -178 -229.5 -280.5t-311.5 -102.5z" />
    <glyph glyph-name="d" unicode="d" horiz-adv-x="1140" 
d="M903 0h-248q-275 0 -433.5 125.5t-158.5 345.5q0 163 74.5 310.5t198 237t260.5 89.5q150 0 254 -107l96 500l-119 66l7 30l346 41h41zM668 72l163 841q-36 42 -90.5 66.5t-115.5 24.5q-75 0 -147 -79.5t-116.5 -208t-44.5 -263.5q0 -179 93.5 -279t257.5 -102z" />
    <glyph glyph-name="e" unicode="e" horiz-adv-x="1107" 
d="M467 -23q-190 0 -302 112.5t-112 307.5q0 145 50 276.5t135 226.5t202 151.5t246 56.5q94 0 170 -26.5t128 -80.5t70.5 -135t-1.5 -190l-17 -80h-696l-6 -31q-45 -230 24 -367t222 -137q115 0 230 80.5t200 218.5h51q-90 -170 -250 -276.5t-344 -106.5zM356 674h437
q30 156 -7.5 249t-134.5 93q-98 0 -182 -95.5t-113 -246.5z" />
    <glyph glyph-name="f" unicode="f" horiz-adv-x="694" 
d="M455 0h-514l6 31l145 63l170 879h-131l21 102h131l18 92q46 229 172.5 367.5t310.5 138.5q48 0 88 -11t65.5 -25.5t49.5 -39.5t35.5 -41.5t26.5 -42.5l-191 -315h-63q42 87 58.5 163.5t-2 128.5t-77.5 52q-42 0 -78.5 -27.5t-62.5 -75.5t-45 -104t-31 -121l-27 -139h261
l-21 -102h-260l-170 -879l121 -63z" />
    <glyph glyph-name="g" unicode="g" horiz-adv-x="1165" 
d="M225 -424l-209 252l50 37q64 -54 94.5 -77t78 -42.5t97.5 -19.5q42 0 86 11t93 37t87.5 80t52.5 128l2 12q-84 -19 -153 -19q-199 0 -321 129.5t-122 333.5q0 165 77.5 321.5t202.5 252.5t257 96q146 0 246 -152l22 119h41l332 -41l-4 -30l-148 -66l-161 -836
q-26 -132 -91.5 -233.5t-159.5 -165t-208 -95.5t-242 -32zM532 41q66 0 140 25l149 778q-88 160 -192 160q-77 0 -149.5 -93.5t-116.5 -245t-44 -313.5q0 -92 19.5 -159t68.5 -109.5t125 -42.5z" />
    <glyph glyph-name="h" unicode="h" horiz-adv-x="1198" 
d="M418 0h-494l6 31l146 63l272 1407l-119 66l7 30l348 41h41l-142 -716q152 186 355 186q60 0 110.5 -16.5t90.5 -53.5t53 -95t0 -142l-138 -707l121 -63l-6 -31h-494l7 31l125 63l116 604q34 169 17 237.5t-99 68.5q-66 0 -141.5 -58.5t-136.5 -138.5l-139 -713l100 -63z
" />
    <glyph glyph-name="i" unicode="i" horiz-adv-x="587" 
d="M422 1251q-58 0 -92.5 34t-34.5 89q0 78 56.5 136.5t131.5 58.5q58 0 91.5 -34t33.5 -89q0 -79 -55.5 -137t-130.5 -58zM451 0h-514l6 31l145 63l164 844l-121 66l6 30l348 41h41l-190 -981l121 -63z" />
    <glyph glyph-name="j" unicode="j" horiz-adv-x="540" 
d="M412 1251q-58 0 -92.5 32.5t-34.5 88.5q0 82 55 139.5t133 57.5q58 0 92.5 -32.5t34.5 -88.5q0 -82 -55 -139.5t-133 -57.5zM-174 -424l-150 254l48 37q56 -68 110 -107t86 -39q36 0 70 47t49 123l203 1047l-121 66l6 30l348 41h41l-154 -788q-43 -223 -133 -396
q-81 -150 -185 -232.5t-218 -82.5z" />
    <glyph glyph-name="k" unicode="k" horiz-adv-x="1146" 
d="M438 0h-514l6 31l146 63l272 1407l-119 66l7 30l348 41h41l-240 -1230l578 585l-140 51l6 31h400l-6 -31l-201 -67l-283 -291l209 -612l127 -43l-6 -31h-481l6 31l84 32l-137 418l-176 -180l-41 -207l120 -63z" />
    <glyph glyph-name="l" unicode="l" horiz-adv-x="575" 
d="M438 0h-514l6 31l146 63l272 1407l-119 66l7 30l348 41h41l-301 -1544l120 -63z" />
    <glyph glyph-name="m" unicode="m" horiz-adv-x="1802" 
d="M430 0h-493l6 31l145 63l164 844l-121 66l6 30l348 41h41l-30 -153q60 76 152 131t192 55t171 -58.5t70 -175.5q190 234 381 234q53 0 99.5 -16.5t84.5 -53.5t50.5 -95t-0.5 -142l-137 -707l120 -63l-6 -31h-493l6 31l125 63l116 604q33 158 22 232t-79 74t-147 -61
t-154 -165l-133 -684l121 -63l-6 -31h-494l6 31l125 63l117 604q33 158 22 232t-79 74t-143 -56t-130 -133l-139 -721l100 -63z" />
    <glyph glyph-name="n" unicode="n" horiz-adv-x="1210" 
d="M430 0h-493l6 31l145 63l164 844l-121 66l6 30l348 41h41l-30 -153q152 186 354 186q60 0 110.5 -17t89.5 -52t54 -96.5t0 -141.5l-137 -707l120 -63l-6 -31h-493l6 31l125 63l117 604q33 155 15 230.5t-99 75.5q-140 0 -277 -189l-139 -721l100 -63z" />
    <glyph glyph-name="o" unicode="o" horiz-adv-x="1214" 
d="M500 -23q-95 0 -171.5 27t-126.5 72t-83.5 106t-47.5 125t-14 133q0 125 49.5 245t135 214t212.5 151.5t271 57.5q121 0 210 -37t138 -100t71.5 -134.5t22.5 -152.5q0 -95 -30 -194.5t-89 -190.5t-138.5 -163.5t-186 -115.5t-223.5 -43zM545 61q82 0 165 97t136 248
t53 299q0 142 -53.5 230.5t-155.5 88.5q-96 0 -183 -82.5t-138.5 -219t-51.5 -288.5q0 -160 60 -266.5t168 -106.5z" />
    <glyph glyph-name="p" unicode="p" horiz-adv-x="1175" 
d="M358 -410h-514l6 31l146 64l244 1253l-121 66l6 30q437 74 547 74q202 0 323 -120.5t121 -342.5q0 -173 -73 -330t-197 -252.5t-264 -95.5q-150 0 -263 107l-75 -389l121 -64zM530 72q81 0 156 77t120.5 205.5t45.5 268.5q0 171 -66.5 283t-173.5 112q-33 0 -112 -14
l-164 -842q32 -38 89 -64t105 -26z" />
    <glyph glyph-name="q" unicode="q" horiz-adv-x="1169" 
d="M961 -410h-515l7 31l145 64l59 309q-84 -19 -151 -19q-133 0 -234.5 70.5t-153.5 183.5t-52 248q0 123 48 241t123.5 202.5t172 136t190.5 51.5q86 0 137 -39.5t107 -122.5l24 129h41l332 -41l-6 -30l-145 -66l-244 -1253l121 -64zM535 41q66 0 137 25l151 778
q-88 160 -194 160q-77 0 -149.5 -81t-118.5 -219t-46 -292q0 -76 11 -139t35 -117t68.5 -84.5t105.5 -30.5z" />
    <glyph glyph-name="r" unicode="r" horiz-adv-x="851" 
d="M451 0h-514l6 31l145 61l164 846l-121 66l6 30l369 41h20l-43 -223h2q22 35 39 60.5t49.5 65.5t62.5 65.5t71 45t81 19.5q27 0 50 -8.5t36.5 -20t25 -28.5t16.5 -29.5t10 -27.5t6 -17l-189 -354h-41q1 5 12 42.5t19 66.5t15.5 66t7.5 58q0 68 -58 68q-106 0 -241 -207
l-121 -623l121 -63z" />
    <glyph glyph-name="s" unicode="s" horiz-adv-x="937" 
d="M358 -23q-131 0 -226.5 47t-127.5 140l123 233h70q-31 -103 -31 -159q0 -170 217 -170q122 0 194 52.5t72 133.5q0 52 -55.5 85t-177.5 64q-33 9 -63.5 20.5t-71.5 36t-70.5 55t-50.5 80t-21 107.5q0 173 126 289.5t313 116.5q107 0 190 -39t125 -106l-115 -246h-51
q29 150 -24.5 228.5t-163.5 78.5q-97 0 -162.5 -51t-65.5 -127q0 -28 14 -51.5t33 -40t56 -34t65.5 -27.5t79.5 -27q46 -15 66 -22.5t57 -22.5t54 -26t41 -30t34.5 -38.5t18.5 -47t8 -59.5q0 -195 -134.5 -319t-345.5 -124z" />
    <glyph glyph-name="t" unicode="t" horiz-adv-x="700" 
d="M301 -23q-115 0 -165.5 81.5t-24.5 217.5l135 697h-156l12 61l205 41l191 348h82l-68 -348h229l-20 -102h-229l-142 -727q-15 -77 10.5 -125.5t75.5 -48.5q32 0 69 23t66 61h66q-60 -80 -153.5 -129.5t-182.5 -49.5z" />
    <glyph glyph-name="u" unicode="u" 
d="M338 -33q-130 0 -197 74t-37 233l129 664l-120 66l6 30l348 41h41l-148 -760q-14 -75 -15.5 -124.5t9.5 -74.5t28 -34.5t44 -9.5q78 0 137 49.5t137 179.5l123 637l-121 66l7 30l348 41h41l-183 -938l121 -65l-6 -31l-348 -41h-41l33 174q-127 -207 -336 -207z" />
    <glyph glyph-name="v" unicode="v" horiz-adv-x="1161" 
d="M543 0h-123l-203 985l-143 59l6 31h543l-7 -31l-145 -51l145 -723l408 736l-137 38l6 31h399l-6 -31l-184 -45z" />
    <glyph glyph-name="w" unicode="w" horiz-adv-x="1716" 
d="M510 0h-164l-125 983l-147 61l6 31h543l-7 -31l-124 -45l100 -680l342 756h227l105 -756l309 687l-139 38l6 31h399l-6 -31l-184 -43l-467 -1001h-164l-109 860z" />
    <glyph glyph-name="x" unicode="x" horiz-adv-x="1107" 
d="M283 0h-379l6 31l158 49l370 412l-225 499l-129 53l6 31h543l-6 -31l-129 -45l135 -297l270 297l-151 45l6 31h379l-7 -31l-153 -49l-318 -352l254 -557l134 -55l-7 -31h-542l6 31l123 43l-160 356l-328 -354l150 -45z" />
    <glyph glyph-name="y" unicode="y" horiz-adv-x="1150" 
d="M45 -424l-207 254l47 37q48 -40 75.5 -60t68 -39.5t75.5 -19.5q58 0 126.5 42.5t119.5 106.5t62 123l-197 979l-141 45l6 31h543l-7 -31l-147 -45l147 -729l410 736l-139 38l6 31h399l-6 -31l-184 -45l-475 -858q-51 -92 -119.5 -186.5t-147.5 -181.5t-163 -142t-152 -55
z" />
    <glyph glyph-name="z" unicode="z" horiz-adv-x="940" 
d="M725 0h-768l-2 41l676 952h-242l-201 -245h-61l135 327h686l2 -41l-676 -952h324l199 235h61z" />
    <glyph glyph-name="braceleft" unicode="{" horiz-adv-x="552" 
d="M393 -123h-57q-162 0 -223.5 70t-32.5 217l72 360q15 56 4 110t-52 54h-6l35 172h6q34 0 63.5 40t45.5 124l69 360q27 142 116 214.5t253 72.5h57l-10 -51h-45q-50 0 -90.5 -28t-67.5 -75.5t-44.5 -97t-28.5 -106.5l-58 -289q-21 -110 -55.5 -166t-99.5 -74l-2 -20
q60 -16 72.5 -83t-11.5 -157l-57 -288q-15 -83 -14.5 -151t33 -112.5t93.5 -44.5h45z" />
    <glyph glyph-name="bar" unicode="|" horiz-adv-x="751" 
d="M494 -410h-605l13 62l168 72l342 1761l-136 92l13 61h604l-12 -61l-172 -92l-342 -1761l139 -72z" />
    <glyph glyph-name="braceright" unicode="}" horiz-adv-x="552" 
d="M-41 -123h-57l10 51h45q50 0 90.5 28t67.5 75.5t44.5 97.5t28.5 107l58 288q23 114 57 169.5t98 70.5l2 20q-57 18 -70.5 76.5t9.5 163.5l57 289q11 57 13 107t-6.5 97t-38.5 75t-80 28h-45l10 51h57q164 0 223.5 -72t30.5 -215l-69 -360q-14 -89 -0.5 -126.5t47.5 -37.5
h6l-35 -172h-6q-34 0 -63.5 -40t-45.5 -124l-69 -360q-27 -142 -116 -214.5t-253 -72.5z" />
    <glyph glyph-name="asciitilde" unicode="~" horiz-adv-x="974" 
d="M156 451h-62q26 127 100.5 212t174.5 85q48 0 92 -23t72 -50t68.5 -50t84.5 -23q24 0 46 6.5t44.5 21t40 43t27.5 68.5h61q-71 -297 -278 -297q-55 0 -101 23t-73 50t-62.5 50t-71.5 23q-46 0 -95.5 -33t-67.5 -106z" />
    <glyph glyph-name="exclamdown" unicode="&#xa1;" horiz-adv-x="495" 
d="M408 1368q-51 0 -81 31t-30 78q0 66 49 113.5t115 47.5q50 0 80 -29t30 -75q0 -66 -49 -116t-114 -50zM139 -23q-31 0 -46 14t-15 52q0 49 112.5 518.5t163.5 669.5h58q-18 -132 -88 -602t-76 -504q-17 -89 -40.5 -118.5t-68.5 -29.5z" />
    <glyph glyph-name="cent" unicode="&#xa2;" horiz-adv-x="1171" 
d="M641 338q114 0 233.5 82t202.5 217h51q-78 -155 -207.5 -257.5t-269.5 -121.5l-49 -258h-133l49 258q-176 22 -275.5 137t-99.5 293q0 252 163 427.5t419 209.5l63 313h134l-62 -307q105 -6 188.5 -49.5t120.5 -110.5l-208 -350h-52q80 148 80 252q0 83 -50.5 128.5
t-147.5 45.5q-123 0 -217 -83.5t-140.5 -211t-46.5 -272.5q0 -160 66.5 -251t187.5 -91z" />
    <glyph glyph-name="sterling" unicode="&#xa3;" horiz-adv-x="1175" 
d="M373 111l456 2l213 204h41l-133 -317h-993l12 61q231 39 348 180.5t117 354.5q0 30 -4 92h-289l25 127h244q-33 231 -33 324q0 126 41 221.5t133 154t227 58.5q65 0 121 -14.5t90 -33.5t61.5 -43.5t37.5 -39t16 -25.5l-70 -352h-61q78 412 -174 412q-43 0 -75 -14
t-59 -48.5t-41 -98.5t-14 -157q0 -123 43 -344h338l-24 -127h-291q2 -23 2 -67q0 -171 -79 -304.5t-224 -195.5z" />
    <glyph glyph-name="currency" unicode="&#xa4;" horiz-adv-x="1189" 
d="M1104 846q0 -115 -46.5 -213.5t-129.5 -167.5l112 -172l-112 -86l-121 186q-106 -47 -232 -47q-142 0 -237 64l-209 -203l-80 86l205 199q-53 80 -53 192q0 115 48.5 212.5t135.5 164.5l-143 221l114 84l150 -233q112 45 239 45q94 0 175 -33l231 221l82 -84l-213 -205
q84 -90 84 -231zM618 430q94 0 165 124.5t71 295.5q0 112 -38.5 178t-106.5 66q-110 0 -188.5 -115.5t-78.5 -286.5q0 -120 47 -191t129 -71z" />
    <glyph glyph-name="yen" unicode="&#xa5;" horiz-adv-x="1341" 
d="M1087 1526l7 30h399l-6 -30l-176 -72l-453 -733h256l-24 -127h-281l-23 -119h281l-25 -127h-280l-45 -235l139 -72l-8 -41h-557l8 41l168 72l45 235h-295l25 127h295l22 119h-295l25 127h266l-186 739l-140 66l7 30h536l-6 -30l-148 -47l177 -758l452 747z" />
    <glyph glyph-name="brokenbar" unicode="&#xa6;" horiz-adv-x="782" 
d="M739 778h-604l12 62l166 71l113 574l-135 92l12 61h604l-12 -61l-172 -92l-113 -574l142 -71zM508 -410h-604l12 62l168 72l111 573l-136 92l13 62h604l-12 -62l-172 -92l-111 -573l139 -72z" />
    <glyph glyph-name="section" unicode="&#xa7;" horiz-adv-x="985" 
d="M375 -23q-132 0 -227.5 47t-127.5 140l123 233h70q-31 -103 -31 -159q0 -170 217 -170q122 0 194.5 52.5t72.5 133.5q0 52 -55.5 85t-178.5 64q-32 8 -63 20t-71.5 36.5t-70 55t-50.5 80t-21 107.5q0 86 39.5 171t105.5 139q-53 65 -53 157q0 173 125 289.5t311 116.5
q106 0 189 -38t126 -107l-112 -246h-51q29 150 -26.5 228.5t-164.5 78.5q-97 0 -162 -51t-65 -127q0 -24 8 -44t27.5 -37t36.5 -28.5t53 -26t57 -22t66 -22.5q61 -20 96 -33.5t75 -35t60 -44t33.5 -56.5t13.5 -77q0 -95 -44 -190.5t-116 -153.5q68 -59 68 -144
q0 -182 -136 -302t-341 -120zM696 596q26 23 43 59t17 68q0 40 -27.5 70.5t-74 50t-95 34.5t-103 34.5t-85.5 39.5q-43 -43 -43 -106q0 -70 63 -116t180 -85q90 -29 125 -49z" />
    <glyph glyph-name="dieresis" unicode="&#xa8;" horiz-adv-x="860" 
d="M367 1178q-52 0 -82.5 29t-30.5 77q0 66 50 116t116 50q52 0 82 -30.5t30 -78.5q0 -65 -48.5 -114t-116.5 -49zM758 1178q-52 0 -82.5 29t-30.5 77q0 66 50 116t116 50q52 0 82.5 -30.5t30.5 -78.5q0 -65 -49 -114t-117 -49z" />
    <glyph glyph-name="copyright" unicode="&#xa9;" horiz-adv-x="1867" 
d="M819 -61q-150 0 -279 51t-218.5 140.5t-140 213.5t-50.5 266q0 189 85 372t223 319t324.5 219.5t379.5 83.5q199 0 356 -88t242.5 -240.5t85.5 -341.5q0 -127 -38.5 -253t-106.5 -234.5t-163.5 -203t-206 -161.5t-238 -105t-255.5 -38zM844 70q159 0 310 70.5t263 186.5
t180 272.5t68 320.5q0 240 -150.5 396.5t-398.5 156.5q-159 0 -310.5 -70.5t-263 -186t-179.5 -271.5t-68 -320q0 -242 150 -398.5t399 -156.5zM901 295q-182 0 -285.5 97.5t-103.5 262.5q0 122 46.5 232t125.5 189.5t189.5 126t232.5 46.5q102 0 187 -43.5t122 -115.5
l-188 -351h-51q100 183 69 294.5t-180 111.5q-147 0 -248.5 -133.5t-101.5 -325.5q0 -130 59.5 -208.5t165.5 -78.5q110 0 231 79.5t207 199.5h41q-86 -172 -228.5 -277.5t-289.5 -105.5z" />
    <glyph glyph-name="ordfeminine" unicode="&#xaa;" horiz-adv-x="854" 
d="M322 713q-79 0 -128 46t-49 118q0 141 157.5 254.5t404.5 148.5l8 43q32 170 -148 170q-102 0 -151 -70.5t-49 -191.5h-62l-41 209q57 62 146.5 98.5t183.5 36.5q145 0 214 -74.5t40 -218.5l-88 -453l102 -12l-6 -37l-211 -49h-45l39 195q-59 -100 -144.5 -156.5
t-172.5 -56.5zM410 821q57 0 126 53.5t117 131.5l41 202q-153 -9 -254.5 -97.5t-101.5 -209.5q0 -38 19 -59t53 -21z" />
    <glyph glyph-name="guillemotleft" unicode="&#xab;" horiz-adv-x="954" 
d="M457 145h-62l-332 361l11 53l471 359h61q-40 -44 -167 -178.5t-187 -207.5q32 -75 109.5 -213t95.5 -174zM791 145h-62l-332 361l11 53l471 359h61q-40 -44 -167 -178.5t-187 -207.5q32 -75 109.5 -213t95.5 -174z" />
    <glyph glyph-name="logicalnot" unicode="&#xac;" horiz-adv-x="980" 
d="M791 233h-127l61 310h-616l24 127h744z" />
    <glyph glyph-name="uni00AD" unicode="&#xad;" horiz-adv-x="733" 
d="M618 506h-518l27 139h518z" />
    <glyph glyph-name="registered" unicode="&#xae;" horiz-adv-x="1267" 
d="M629 506q-192 0 -314 121.5t-122 304.5q0 120 54 235.5t141.5 201.5t205.5 139t240 53q190 0 312 -121.5t122 -304.5q0 -119 -54 -234.5t-141.5 -202t-205 -139.5t-238.5 -53zM645 596q133 0 256.5 74t199 195t75.5 251q0 152 -102 253t-259 101q-100 0 -197.5 -44
t-170 -115t-117.5 -167t-45 -194q0 -152 101 -253t259 -101zM655 743h-211l7 27l65 31l92 477l-51 45l6 29h293q66 0 103.5 -32.5t37.5 -86.5q0 -83 -56.5 -140t-139.5 -57l84 -231l61 -35l-6 -27h-209l6 27l41 18l-90 248h-20l-45 -235l39 -31zM717 1284l-35 -174h92
q55 0 87 31t32 84q0 59 -84 59h-92z" />
    <glyph glyph-name="macron" unicode="&#xaf;" horiz-adv-x="845" 
d="M860 1253h-579l22 119h580z" />
    <glyph glyph-name="degree" unicode="&#xb0;" horiz-adv-x="503" 
d="M365 1124q-69 0 -114.5 47.5t-45.5 116.5q0 87 71.5 153t161.5 66q67 0 112.5 -46.5t45.5 -114.5q0 -86 -72.5 -154t-158.5 -68zM381 1212q47 0 86 36.5t39 84.5q0 37 -23.5 61.5t-60.5 24.5q-51 0 -89 -35t-38 -84q0 -37 24 -62.5t62 -25.5z" />
    <glyph glyph-name="plusminus" unicode="&#xb1;" horiz-adv-x="913" 
d="M592 934l-60 -299h297l-24 -127h-297l-57 -297h-127l57 297h-299l24 127h300l59 299h127zM725 0h-723l25 127h723z" />
    <glyph glyph-name="uni00B2" unicode="&#xb2;" horiz-adv-x="724" 
d="M688 827h-584l9 41q197 80 342 257.5t145 338.5q0 55 -24.5 86t-69.5 31q-66 0 -125 -59.5t-78 -159.5l-24 -123h-37l-4 215q47 79 131.5 135t191.5 56q36 0 69.5 -7.5t69 -25.5t57 -56t21.5 -92q0 -52 -14.5 -102t-35.5 -90t-58 -82.5t-67.5 -71t-79 -65t-77.5 -56
t-79 -52t-68 -44.5h334l117 125h32z" />
    <glyph glyph-name="uni00B3" unicode="&#xb3;" horiz-adv-x="702" 
d="M362 815q-98 0 -163 35.5t-74 93.5l76 168h32q-20 -97 -20 -117q0 -56 45.5 -93.5t120.5 -37.5q89 0 154 76t65 176q0 48 -24 76.5t-66 28.5q-37 0 -150 -37l9 41q119 47 184 118.5t65 155.5q0 42 -26.5 67t-71.5 25q-65 0 -120.5 -51.5t-69.5 -122.5q-12 -61 -17 -88
h-22l-33 170q55 66 133.5 106t149.5 40q109 0 173 -38t64 -102q0 -72 -83 -140t-195 -112q112 19 185 -18t73 -121q0 -127 -114 -213t-280 -86z" />
    <glyph glyph-name="acute" unicode="&#xb4;" horiz-adv-x="518" 
d="M219 1178h-26q122 178 226.5 281.5t166.5 103.5q22 0 39.5 -13t17.5 -32q0 -42 -117.5 -135t-306.5 -205z" />
    <glyph glyph-name="uni00B5" unicode="&#xb5;" horiz-adv-x="1236" 
d="M406 -389h-515l7 31l145 63l240 1233l-121 66l6 30l348 41h41l-147 -760q-13 -65 -15 -112t3 -72t18.5 -39t26.5 -17t32 -3q77 0 137 50t138 179l122 637l-120 66l6 30l348 41h41l-182 -938l120 -65l-6 -31l-348 -41h-41l35 174q-68 -109 -151.5 -158t-186.5 -49
q-31 0 -45 2l-51 -264l121 -63z" />
    <glyph glyph-name="paragraph" unicode="&#xb6;" horiz-adv-x="1654" 
d="M1462 0h-1073l6 31l170 82l119 614h-80q-194 0 -316 93t-122 255q0 212 168 346.5t432 134.5h999l-6 -30l-166 -66l-262 -1347l137 -82zM1124 1460l-262 -1347h172l262 1347h-172z" />
    <glyph glyph-name="periodcentered" unicode="&#xb7;" horiz-adv-x="456" 
d="M207 428q-51 0 -82 31.5t-31 79.5q0 65 48.5 112t117.5 47q50 0 80.5 -32t30.5 -82q0 -64 -48 -110t-116 -46z" />
    <glyph glyph-name="cedilla" unicode="&#xb8;" horiz-adv-x="460" 
d="M8 -418q-56 0 -110 35l6 31q46 -21 92 -21q131 0 131 103q0 39 -33 65.5t-98 26.5l8 39l127 166h55l-110 -144q71 0 111 -33t40 -81q0 -65 -61.5 -126t-157.5 -61z" />
    <glyph glyph-name="uni00B9" unicode="&#xb9;" horiz-adv-x="512" 
d="M522 827h-383l4 21l117 41l125 649l-188 -164l8 41l192 221h262l-6 -30l-92 -19l-135 -698l100 -41z" />
    <glyph glyph-name="ordmasculine" unicode="&#xba;" horiz-adv-x="942" 
d="M508 713q-81 0 -148.5 34t-109 89t-64 119.5t-22.5 129.5q0 61 24.5 129t71 131.5t108 115t143.5 83t169 31.5q65 0 120.5 -22t94 -59t65.5 -84.5t39.5 -98.5t12.5 -101q0 -74 -39 -160t-104.5 -161.5t-161.5 -125.5t-199 -50zM545 805q81 0 144 69t92.5 165t29.5 194
q0 67 -15 121t-53.5 91.5t-95.5 37.5q-77 0 -135.5 -39.5t-90 -102.5t-46.5 -129.5t-15 -132.5q0 -70 17 -129.5t60.5 -102t107.5 -42.5z" />
    <glyph glyph-name="guillemotright" unicode="&#xbb;" horiz-adv-x="954" 
d="M74 145h-62q46 52 171 183.5t186 203.5q-32 74 -108.5 208t-98.5 178h61l332 -359l-10 -53zM408 145h-62q45 51 170 183t186 204q-33 74 -108.5 209t-97.5 177h61l332 -359l-10 -53z" />
    <glyph glyph-name="onequarter" unicode="&#xbc;" horiz-adv-x="1691" 
d="M543 827h-383l4 21l117 41l125 649l-189 -164l8 41l193 221h262l-6 -30l-92 -19l-136 -698l101 -41zM240 0h-123l1384 1556h127zM1522 0h-383l4 20l117 41l26 142h-360l6 30l463 576h264l-6 -31l-92 -18l-93 -469l101 -58l-6 -30h-111l-27 -142l101 -41zM1380 690
l-338 -426h256z" />
    <glyph glyph-name="onehalf" unicode="&#xbd;" horiz-adv-x="1714" 
d="M549 827h-383l4 21l117 41l125 649l-189 -164l8 41l193 221h262l-6 -30l-92 -19l-135 -698l100 -41zM246 0h-123l1384 1556h127zM1503 0h-583l8 41q197 80 342 257.5t145 338.5q0 55 -24.5 86t-69.5 31q-66 0 -125 -59.5t-78 -159.5l-24 -123h-37l-4 215q47 78 131.5 134
t191.5 56q28 0 54.5 -4t57 -16t53 -31t37.5 -52.5t15 -76.5q0 -52 -14.5 -102t-35.5 -90t-58 -82.5t-67.5 -71t-79 -65t-77.5 -56t-79 -52t-68 -44.5h334l117 125h32z" />
    <glyph glyph-name="threequarters" unicode="&#xbe;" horiz-adv-x="1835" 
d="M371 815q-98 0 -163.5 35.5t-74.5 93.5l76 168h33q-21 -101 -21 -117q0 -56 45.5 -93.5t120.5 -37.5q89 0 154 76t65 176q0 48 -24 76.5t-66 28.5q-36 0 -149 -37l8 41q120 47 185 119t65 155q0 42 -27 67t-72 25q-65 0 -120.5 -51.5t-69.5 -122.5q-12 -61 -17 -88h-22
l-33 170q55 66 133.5 106t149.5 40q109 0 173 -38t64 -102q0 -72 -83 -140t-195 -112q112 19 185 -18t73 -121q0 -127 -113.5 -213t-279.5 -86zM383 0h-123l1385 1556h127zM1665 0h-383l4 20l117 41l27 142h-361l6 30l463 576h264l-6 -31l-92 -18l-92 -469l100 -58l-6 -30
h-111l-26 -142l100 -41zM1524 690l-338 -426h256z" />
    <glyph glyph-name="questiondown" unicode="&#xbf;" horiz-adv-x="956" 
d="M797 1669q51 0 81.5 -29t30.5 -75q0 -66 -49.5 -116t-114.5 -50q-51 0 -81.5 30.5t-30.5 77.5q0 66 49 114t115 48zM705 1298h61q0 -63 -12 -127q-12 -58 -27.5 -100.5t-49 -91t-62 -82.5t-95.5 -109q-46 -50 -74 -82.5t-71.5 -93t-68.5 -112t-44.5 -121.5t-19.5 -139
q0 -92 41.5 -134.5t107.5 -42.5q70 0 137.5 46.5t118.5 124.5t80 190t25 233h51l35 -413q-63 -115 -188.5 -191t-297.5 -76q-52 0 -97.5 7t-91.5 26.5t-79 49.5t-53.5 80t-20.5 114q0 76 22 151t58.5 135.5t67 101t63.5 75.5q48 51 116 105.5t120 95t104 93t89 124t55 163.5
z" />
    <glyph glyph-name="Agrave" unicode="&#xc0;" horiz-adv-x="1607" 
d="M979 1659h-27q-126 110 -200 196.5t-74 126.5q0 62 65 62q54 0 119.5 -106.5t116.5 -278.5zM354 0h-501l6 31l186 43l748 1218l-68 281h324l358 -1499l162 -43l-6 -31h-707l6 31l217 43l-100 450h-563l-277 -450l221 -43zM823 1194l-348 -569h479z" />
    <glyph glyph-name="Aacute" unicode="&#xc1;" horiz-adv-x="1607" 
d="M907 1659h-26q122 178 226.5 281.5t166.5 103.5q22 0 39.5 -13t17.5 -32q0 -42 -117.5 -135t-306.5 -205zM354 0h-501l6 31l186 43l748 1218l-68 281h324l358 -1499l162 -43l-6 -31h-707l6 31l217 43l-100 450h-563l-277 -450l221 -43zM823 1194l-348 -569h479z" />
    <glyph glyph-name="Acircumflex" unicode="&#xc2;" horiz-adv-x="1607" 
d="M729 1618h-37q178 257 212 300q60 74 101 83q9 2 19 2q47 0 74 -57.5t90 -267.5q12 -39 18 -60h-37l-172 240q-45 -40 -134 -120t-134 -120zM354 0h-501l6 31l186 43l748 1218l-68 281h324l358 -1499l162 -43l-6 -31h-707l6 31l217 43l-100 450h-563l-277 -450l221 -43z
M823 1194l-348 -569h479z" />
    <glyph glyph-name="Atilde" unicode="&#xc3;" horiz-adv-x="1607" 
d="M723 1690h-47q30 101 87.5 158t139.5 57q34 0 65 -16t50.5 -34.5t46.5 -34.5t53 -16q41 0 71 21.5t58 79.5h47q-30 -101 -88 -158t-141 -57q-35 0 -66 15.5t-50.5 34.5t-46 34.5t-52.5 15.5q-42 0 -71.5 -21t-55.5 -79zM354 0h-501l6 31l186 43l748 1218l-68 281h324
l358 -1499l162 -43l-6 -31h-707l6 31l217 43l-100 450h-563l-277 -450l221 -43zM823 1194l-348 -569h479z" />
    <glyph glyph-name="Adieresis" unicode="&#xc4;" horiz-adv-x="1607" 
d="M754 1659q-52 0 -82.5 29t-30.5 77q0 66 50 116t116 50q52 0 82.5 -30t30.5 -78q0 -65 -49 -114.5t-117 -49.5zM1145 1659q-52 0 -82.5 29t-30.5 77q0 66 50 116t116 50q52 0 82.5 -30t30.5 -78q0 -65 -49 -114.5t-117 -49.5zM354 0h-501l6 31l186 43l748 1218l-68 281
h324l358 -1499l162 -43l-6 -31h-707l6 31l217 43l-100 450h-563l-277 -450l221 -43zM823 1194l-348 -569h479z" />
    <glyph glyph-name="Aring" unicode="&#xc5;" horiz-adv-x="1607" 
d="M950 1665q-68 0 -111.5 47.5t-43.5 114.5q0 85 71 151t158 66q67 0 111.5 -46.5t44.5 -113.5q0 -85 -72 -152t-158 -67zM967 1745q48 0 89.5 38.5t41.5 88.5q0 40 -25 66t-63 26q-53 0 -94.5 -37.5t-41.5 -87.5q0 -39 26.5 -66.5t66.5 -27.5zM354 0h-501l6 31l186 43
l748 1218l-68 281h324l358 -1499l162 -43l-6 -31h-707l6 31l217 43l-100 450h-563l-277 -450l221 -43zM823 1194l-348 -569h479z" />
    <glyph glyph-name="AE" unicode="&#xc6;" horiz-adv-x="1859" 
d="M276 0h-430l7 31l182 82l1040 1443h848l10 -317h-41l-131 221h-399l-117 -592h236l106 174h62l-88 -448h-62l-37 174h-235l-127 -655h420l213 204h41l-134 -317h-1013l6 31l170 82l94 491h-410l-368 -518l164 -55zM1053 1397l-492 -690h357z" />
    <glyph glyph-name="Ccedilla" unicode="&#xc7;" horiz-adv-x="1636" 
d="M780 -23h-2l-71 -94q71 0 111 -33t40 -81q0 -65 -61.5 -126t-157.5 -61q-57 0 -111 35l7 31q47 -21 92 -21q131 0 131 103q0 39 -33 65.5t-98 26.5l8 39l90 119q-292 13 -458.5 174.5t-166.5 423.5q0 206 83 390.5t224 317t336.5 210t413.5 77.5q166 0 294 -48.5
t171 -127.5l-88 -455h-61q47 250 -49 402.5t-300 152.5q-185 0 -340.5 -119.5t-245 -326.5t-89.5 -453q0 -252 109.5 -398.5t303.5 -146.5q206 0 412 155t336 408h51q-140 -288 -381 -463.5t-500 -175.5z" />
    <glyph glyph-name="Egrave" unicode="&#xc8;" horiz-adv-x="1257" 
d="M889 1659h-27q-126 110 -200 196.5t-74 126.5q0 62 65 62q54 0 119.5 -106.5t116.5 -278.5zM1038 0h-1075l6 31l170 82l262 1347l-141 66l6 30h1055l10 -317h-41l-131 221h-461l-116 -592h297l106 174h62l-89 -448h-61l-37 174h-297l-127 -655h482l212 204h41z" />
    <glyph glyph-name="Eacute" unicode="&#xc9;" horiz-adv-x="1257" 
d="M817 1659h-26q122 178 226.5 281.5t166.5 103.5q22 0 39.5 -13t17.5 -32q0 -42 -117.5 -135t-306.5 -205zM1038 0h-1075l6 31l170 82l262 1347l-141 66l6 30h1055l10 -317h-41l-131 221h-461l-116 -592h297l106 174h62l-89 -448h-61l-37 174h-297l-127 -655h482l212 204
h41z" />
    <glyph glyph-name="Ecircumflex" unicode="&#xca;" horiz-adv-x="1257" 
d="M639 1618h-37q178 257 212 300q60 74 101 83q9 2 19 2q47 0 74 -57.5t90 -267.5q12 -39 18 -60h-37l-172 240q-45 -40 -134 -120t-134 -120zM1038 0h-1075l6 31l170 82l262 1347l-141 66l6 30h1055l10 -317h-41l-131 221h-461l-116 -592h297l106 174h62l-89 -448h-61
l-37 174h-297l-127 -655h482l212 204h41z" />
    <glyph glyph-name="Edieresis" unicode="&#xcb;" horiz-adv-x="1257" 
d="M664 1659q-52 0 -82.5 29t-30.5 77q0 66 50 116t116 50q52 0 82 -30t30 -78q0 -65 -48.5 -114.5t-116.5 -49.5zM1055 1659q-52 0 -82.5 29t-30.5 77q0 66 50 116t116 50q52 0 82.5 -30t30.5 -78q0 -65 -49 -114.5t-117 -49.5zM1038 0h-1075l6 31l170 82l262 1347l-141 66
l6 30h1055l10 -317h-41l-131 221h-461l-116 -592h297l106 174h62l-89 -448h-61l-37 174h-297l-127 -655h482l212 204h41z" />
    <glyph glyph-name="Igrave" unicode="&#xcc;" horiz-adv-x="739" 
d="M618 1659h-26q-126 110 -200.5 196.5t-74.5 126.5q0 62 66 62q54 0 119 -106t116 -279zM567 0h-604l6 31l170 82l262 1347l-141 66l6 30h604l-6 -30l-166 -66l-262 -1347l137 -82z" />
    <glyph glyph-name="Iacute" unicode="&#xcd;" horiz-adv-x="739" 
d="M547 1659h-27q122 178 226.5 281.5t166.5 103.5q22 0 40 -13t18 -32q0 -42 -117.5 -135t-306.5 -205zM567 0h-604l6 31l170 82l262 1347l-141 66l6 30h604l-6 -30l-166 -66l-262 -1347l137 -82z" />
    <glyph glyph-name="Icircumflex" unicode="&#xce;" horiz-adv-x="739" 
d="M369 1618h-37q178 257 212 300q60 74 101 83q9 2 19 2q47 0 74 -57.5t90 -267.5q12 -39 18 -60h-37l-172 240q-45 -40 -134 -120t-134 -120zM567 0h-604l6 31l170 82l262 1347l-141 66l6 30h604l-6 -30l-166 -66l-262 -1347l137 -82z" />
    <glyph glyph-name="Idieresis" unicode="&#xcf;" horiz-adv-x="739" 
d="M393 1659q-52 0 -82 29t-30 77q0 66 49.5 116t115.5 50q52 0 82.5 -30t30.5 -78q0 -65 -49 -114.5t-117 -49.5zM784 1659q-52 0 -82 29t-30 77q0 66 50 116t116 50q52 0 82 -30t30 -78q0 -65 -49 -114.5t-117 -49.5zM567 0h-604l6 31l170 82l262 1347l-141 66l6 30h604
l-6 -30l-166 -66l-262 -1347l137 -82z" />
    <glyph glyph-name="Eth" unicode="&#xd0;" horiz-adv-x="1701" 
d="M268 1556h645q360 0 568.5 -166t208.5 -448q0 -196 -86 -371t-234.5 -300t-356.5 -198t-442 -73h-606l6 31l170 82l119 614h-149l20 102h150l122 631l-141 66zM438 113h137q217 0 396.5 110.5t283 303t103.5 425.5q0 237 -149.5 373.5t-411.5 136.5h-97l-122 -633h194
l-20 -102h-195z" />
    <glyph glyph-name="Ntilde" unicode="&#xd1;" horiz-adv-x="1447" 
d="M682 1690h-47q30 101 87.5 158t139.5 57q34 0 65 -16t50.5 -34.5t46.5 -34.5t53 -16q41 0 71 21.5t58 79.5h47q-30 -101 -88 -158t-141 -57q-35 0 -66 15.5t-50.5 34.5t-46 34.5t-52.5 15.5q-42 0 -71.5 -21t-55.5 -79zM362 0h-399l6 31l170 82l262 1347l-141 66l6 30
h269l618 -1001l176 905l-141 66l6 30h399l-6 -30l-166 -66l-284 -1460h-72l-651 1042l-181 -929l136 -82z" />
    <glyph glyph-name="Ograve" unicode="&#xd2;" horiz-adv-x="1626" 
d="M1063 1659h-27q-126 110 -200 196.5t-74 126.5q0 62 65 62q54 0 119.5 -106.5t116.5 -278.5zM678 -23q-252 0 -414 170.5t-162 442.5q0 188 77.5 369t203.5 315t295.5 216.5t345.5 82.5q258 0 426 -173.5t168 -443.5q0 -123 -36.5 -246.5t-100.5 -230.5t-153.5 -200.5
t-192.5 -159.5t-221.5 -104t-235.5 -38zM774 53q135 0 249 133.5t180.5 362.5t66.5 498q0 222 -79 336t-228 114q-101 0 -197.5 -78.5t-167 -207.5t-113.5 -303.5t-43 -358.5q0 -238 91.5 -367t240.5 -129z" />
    <glyph glyph-name="Oacute" unicode="&#xd3;" horiz-adv-x="1626" 
d="M991 1659h-26q122 178 226.5 281.5t166.5 103.5q22 0 39.5 -13t17.5 -32q0 -42 -117.5 -135t-306.5 -205zM678 -23q-252 0 -414 170.5t-162 442.5q0 188 77.5 369t203.5 315t295.5 216.5t345.5 82.5q258 0 426 -173.5t168 -443.5q0 -123 -36.5 -246.5t-100.5 -230.5
t-153.5 -200.5t-192.5 -159.5t-221.5 -104t-235.5 -38zM774 53q135 0 249 133.5t180.5 362.5t66.5 498q0 222 -79 336t-228 114q-101 0 -197.5 -78.5t-167 -207.5t-113.5 -303.5t-43 -358.5q0 -238 91.5 -367t240.5 -129z" />
    <glyph glyph-name="Ocircumflex" unicode="&#xd4;" horiz-adv-x="1626" 
d="M813 1618h-37q178 257 212 300q60 74 101 83q9 2 19 2q47 0 74 -57.5t90 -267.5q12 -39 18 -60h-37l-172 240q-45 -40 -134 -120t-134 -120zM678 -23q-252 0 -414 170.5t-162 442.5q0 188 77.5 369t203.5 315t295.5 216.5t345.5 82.5q258 0 426 -173.5t168 -443.5
q0 -123 -36.5 -246.5t-100.5 -230.5t-153.5 -200.5t-192.5 -159.5t-221.5 -104t-235.5 -38zM774 53q135 0 249 133.5t180.5 362.5t66.5 498q0 222 -79 336t-228 114q-101 0 -197.5 -78.5t-167 -207.5t-113.5 -303.5t-43 -358.5q0 -238 91.5 -367t240.5 -129z" />
    <glyph glyph-name="Otilde" unicode="&#xd5;" horiz-adv-x="1626" 
d="M807 1690h-47q30 101 87.5 158t139.5 57q34 0 65 -16t50.5 -34.5t46.5 -34.5t53 -16q41 0 71 21.5t58 79.5h47q-30 -101 -88 -158t-141 -57q-35 0 -66 15.5t-50.5 34.5t-46 34.5t-52.5 15.5q-42 0 -71.5 -21t-55.5 -79zM678 -23q-252 0 -414 170.5t-162 442.5
q0 188 77.5 369t203.5 315t295.5 216.5t345.5 82.5q258 0 426 -173.5t168 -443.5q0 -123 -36.5 -246.5t-100.5 -230.5t-153.5 -200.5t-192.5 -159.5t-221.5 -104t-235.5 -38zM774 53q135 0 249 133.5t180.5 362.5t66.5 498q0 222 -79 336t-228 114q-101 0 -197.5 -78.5
t-167 -207.5t-113.5 -303.5t-43 -358.5q0 -238 91.5 -367t240.5 -129z" />
    <glyph glyph-name="Odieresis" unicode="&#xd6;" horiz-adv-x="1626" 
d="M838 1659q-52 0 -82.5 29t-30.5 77q0 66 50 116t116 50q52 0 82.5 -30t30.5 -78q0 -65 -49 -114.5t-117 -49.5zM1229 1659q-52 0 -82.5 29t-30.5 77q0 66 50 116t116 50q52 0 82.5 -30t30.5 -78q0 -65 -49 -114.5t-117 -49.5zM678 -23q-252 0 -414 170.5t-162 442.5
q0 188 77.5 369t203.5 315t295.5 216.5t345.5 82.5q258 0 426 -173.5t168 -443.5q0 -123 -36.5 -246.5t-100.5 -230.5t-153.5 -200.5t-192.5 -159.5t-221.5 -104t-235.5 -38zM774 53q135 0 249 133.5t180.5 362.5t66.5 498q0 222 -79 336t-228 114q-101 0 -197.5 -78.5
t-167 -207.5t-113.5 -303.5t-43 -358.5q0 -238 91.5 -367t240.5 -129z" />
    <glyph glyph-name="multiply" unicode="&#xd7;" horiz-adv-x="806" 
d="M399 504l-256 -213l-71 90l254 213l-172 211l108 90l172 -211l250 209l72 -90l-250 -209l168 -211l-107 -90z" />
    <glyph glyph-name="Oslash" unicode="&#xd8;" horiz-adv-x="1626" 
d="M1587 1552l-133 -157q164 -175 164 -439q0 -123 -36.5 -246.5t-100.5 -230.5t-153.5 -200.5t-192.5 -159.5t-221.5 -104t-235.5 -38q-185 0 -330 99l-96 -117h-156l162 195q-156 169 -156 436q0 188 77.5 369t203.5 315t295.5 216.5t345.5 82.5q188 0 340 -100l66 79h157
zM442 549q0 -84 13 -160l774 922q-73 186 -266 186q-101 0 -197.5 -78.5t-167 -207.5t-113.5 -303.5t-43 -358.5zM774 53q135 0 249 133.5t180.5 362.5t66.5 498q0 63 -6 118l-768 -915q42 -96 114 -146.5t164 -50.5z" />
    <glyph glyph-name="Ugrave" unicode="&#xd9;" horiz-adv-x="1519" 
d="M1071 1659h-27q-126 110 -200 196.5t-74 126.5q0 62 66 62q54 0 119 -106t116 -279zM666 -23q-139 0 -236.5 33t-150 87t-74.5 135.5t-19 165.5t23 190l170 872l-141 66l6 30h604l-6 -30l-166 -66l-141 -729q-18 -93 -29.5 -163t-18 -143t-3.5 -125t15.5 -99.5t37 -76.5
t64.5 -46t95 -17q157 0 262.5 49.5t176 165.5t108.5 312l170 872l-141 66l6 30h399l-6 -30l-166 -66l-170 -872q-22 -115 -56 -205.5t-87.5 -168.5t-125.5 -129t-173 -79.5t-227 -28.5z" />
    <glyph glyph-name="Uacute" unicode="&#xda;" horiz-adv-x="1519" 
d="M999 1659h-26q122 178 226.5 281.5t166.5 103.5q22 0 39.5 -13t17.5 -32q0 -42 -117.5 -135t-306.5 -205zM666 -23q-139 0 -236.5 33t-150 87t-74.5 135.5t-19 165.5t23 190l170 872l-141 66l6 30h604l-6 -30l-166 -66l-141 -729q-18 -93 -29.5 -163t-18 -143t-3.5 -125
t15.5 -99.5t37 -76.5t64.5 -46t95 -17q157 0 262.5 49.5t176 165.5t108.5 312l170 872l-141 66l6 30h399l-6 -30l-166 -66l-170 -872q-22 -115 -56 -205.5t-87.5 -168.5t-125.5 -129t-173 -79.5t-227 -28.5z" />
    <glyph glyph-name="Ucircumflex" unicode="&#xdb;" horiz-adv-x="1519" 
d="M821 1618h-37q178 257 212 300q60 74 101 83q9 2 19 2q47 0 74 -57.5t90 -267.5q12 -39 18 -60h-36l-172 240q-45 -40 -134.5 -120t-134.5 -120zM666 -23q-139 0 -236.5 33t-150 87t-74.5 135.5t-19 165.5t23 190l170 872l-141 66l6 30h604l-6 -30l-166 -66l-141 -729
q-18 -93 -29.5 -163t-18 -143t-3.5 -125t15.5 -99.5t37 -76.5t64.5 -46t95 -17q157 0 262.5 49.5t176 165.5t108.5 312l170 872l-141 66l6 30h399l-6 -30l-166 -66l-170 -872q-22 -115 -56 -205.5t-87.5 -168.5t-125.5 -129t-173 -79.5t-227 -28.5z" />
    <glyph glyph-name="Udieresis" unicode="&#xdc;" horiz-adv-x="1519" 
d="M846 1659q-52 0 -82.5 29t-30.5 77q0 66 50 116t116 50q52 0 82.5 -30t30.5 -78q0 -65 -49 -114.5t-117 -49.5zM1237 1659q-52 0 -82.5 29t-30.5 77q0 66 50 116t116 50q52 0 82.5 -30t30.5 -78q0 -65 -49 -114.5t-117 -49.5zM666 -23q-139 0 -236.5 33t-150 87
t-74.5 135.5t-19 165.5t23 190l170 872l-141 66l6 30h604l-6 -30l-166 -66l-141 -729q-18 -93 -29.5 -163t-18 -143t-3.5 -125t15.5 -99.5t37 -76.5t64.5 -46t95 -17q157 0 262.5 49.5t176 165.5t108.5 312l170 872l-141 66l6 30h399l-6 -30l-166 -66l-170 -872
q-22 -115 -56 -205.5t-87.5 -168.5t-125.5 -129t-173 -79.5t-227 -28.5z" />
    <glyph glyph-name="Yacute" unicode="&#xdd;" horiz-adv-x="1368" 
d="M913 1659h-26q122 178 226.5 281.5t166.5 103.5q22 0 39.5 -13t17.5 -32q0 -42 -117.5 -135t-306.5 -205zM891 0h-604l6 31l170 82l90 462l-252 885l-158 66l7 30h624l-6 -30l-152 -47l211 -817l516 806l-172 58l7 30h419l-6 -30l-174 -72l-565 -866l-92 -475l137 -82z
" />
    <glyph glyph-name="Thorn" unicode="&#xde;" horiz-adv-x="1349" 
d="M567 0h-604l6 31l170 82l262 1347l-141 66l6 30h604l-6 -30l-166 -66l-41 -211h220q215 0 350 -82t135 -239q0 -138 -87 -255t-236 -185t-324 -68h-219l-60 -307l137 -82zM637 1147l-121 -625h107q219 0 335.5 108t116.5 310q0 43 -12 76.5t-28.5 55t-45.5 36.5t-52 22.5
t-60 11.5t-57.5 4.5t-55.5 0.5h-127z" />
    <glyph glyph-name="germandbls" unicode="&#xdf;" horiz-adv-x="1327" 
d="M803 -23q-112 0 -196.5 47.5t-117.5 139.5l123 233h70q-33 -100 -33 -168q0 -161 176 -161q121 0 184.5 57t63.5 135q0 64 -55.5 97.5t-175.5 66.5q-221 58 -221 268q0 74 19.5 136t51.5 104.5t70 79.5t76 70.5t70 68t51.5 81.5t19.5 103q0 94 -63 150.5t-138 56.5
q-171 0 -237 -328l-236 -1214h-381l6 31l146 63l209 1073q45 230 172 368t321 138q132 0 209.5 -71t77.5 -203q0 -69 -14.5 -125.5t-38 -94t-52 -69.5t-57 -58t-52 -52t-38 -59.5t-14.5 -72.5q0 -32 14 -59.5t32 -45.5t52.5 -36.5t58 -28t64.5 -24.5q40 -15 62.5 -24.5
t55.5 -26t51.5 -34.5t37.5 -43.5t27 -59t8 -74.5q0 -110 -40.5 -196.5t-107.5 -137t-146.5 -76t-164.5 -25.5z" />
    <glyph glyph-name="agrave" unicode="&#xe0;" horiz-adv-x="1058" 
d="M672 1178h-27q-126 110 -200 196.5t-74 126.5q0 62 65 62q54 0 119.5 -106.5t116.5 -278.5zM940 752l-115 -588l123 -41l-10 -62l-350 -61h-41l41 213q-14 -30 -44.5 -67.5t-75.5 -77.5t-107.5 -66.5t-127.5 -26.5q-97 0 -155 57t-58 152q0 180 179 323.5t485 207.5
l12 61q8 39 10.5 69t-3 62.5t-21.5 53.5t-49 35t-82 14q-114 0 -183 -58.5t-69 -156.5q0 -30 10 -68h-71l-62 213q55 60 185.5 114t279.5 54q169 0 252 -85t47 -271zM369 98q43 0 85.5 30t75 75.5t53 83t33.5 69.5l54 287q-4 -1 -14 -4q-32 -9 -53 -15.5t-63.5 -24.5
t-72 -37.5t-67 -53.5t-60.5 -73t-39 -96t-16 -122q0 -119 84 -119z" />
    <glyph glyph-name="aacute" unicode="&#xe1;" horiz-adv-x="1058" 
d="M967 1563q22 0 39.5 -13t17.5 -32q0 -42 -117.5 -135t-306.5 -205h-27q122 178 227 281.5t167 103.5zM641 1108q169 0 252 -85t47 -271l-115 -588l123 -41l-10 -62l-350 -61h-41l41 213q-14 -30 -44.5 -67.5t-75.5 -77.5t-107.5 -66.5t-127.5 -26.5q-97 0 -155 57
t-58 152q0 180 179 323.5t485 207.5l12 61q8 39 10.5 69t-3 62.5t-21.5 53.5t-49 35t-82 14q-114 0 -183 -58.5t-69 -156.5q0 -30 10 -68h-71l-62 213q55 60 185.5 114t279.5 54zM369 98q43 0 85.5 30t75 75.5t53 83t33.5 69.5l54 287q-4 -1 -14 -4q-32 -9 -53 -15.5
t-63.5 -24.5t-72 -37.5t-67 -53.5t-60.5 -73t-39 -96t-16 -122q0 -119 84 -119z" />
    <glyph glyph-name="acircumflex" unicode="&#xe2;" horiz-adv-x="1058" 
d="M690 1376l-268 -239h-37q178 257 212 300q60 74 101 83q9 2 19 2q47 0 74 -57.5t90 -267.5q12 -39 18 -60h-37zM940 752l-115 -588l123 -41l-10 -62l-350 -61h-41l41 213q-14 -30 -44.5 -67.5t-75.5 -77.5t-107.5 -66.5t-127.5 -26.5q-97 0 -155 57t-58 152
q0 180 179 323.5t485 207.5l12 61q8 39 10.5 69t-3 62.5t-21.5 53.5t-49 35t-82 14q-114 0 -183 -58.5t-69 -156.5q0 -30 10 -68h-71l-62 213q55 60 185.5 114t279.5 54q169 0 252 -85t47 -271zM369 98q43 0 85.5 30t75 75.5t53 83t33.5 69.5l54 287q-4 -1 -14 -4
q-32 -9 -53 -15.5t-63.5 -24.5t-72 -37.5t-67 -53.5t-60.5 -73t-39 -96t-16 -122q0 -119 84 -119z" />
    <glyph glyph-name="atilde" unicode="&#xe3;" horiz-adv-x="1058" 
d="M543 1309q-41 0 -71 -21.5t-56 -79.5h-47q30 101 87.5 158t139.5 57q34 0 65 -15.5t50.5 -34.5t46.5 -34.5t53 -15.5q42 0 71.5 21t57.5 79h47q-30 -101 -88 -158t-141 -57q-35 0 -66 16t-50.5 34.5t-46 34.5t-52.5 16zM641 1108q169 0 252 -85t47 -271l-115 -588
l123 -41l-10 -62l-350 -61h-41l41 213q-14 -30 -44.5 -67.5t-75.5 -77.5t-107.5 -66.5t-127.5 -26.5q-97 0 -155 57t-58 152q0 180 179 323.5t485 207.5l12 61q8 39 10.5 69t-3 62.5t-21.5 53.5t-49 35t-82 14q-114 0 -183 -58.5t-69 -156.5q0 -30 10 -68h-71l-62 213
q55 60 185.5 114t279.5 54zM369 98q43 0 85.5 30t75 75.5t53 83t33.5 69.5l54 287q-4 -1 -14 -4q-32 -9 -53 -15.5t-63.5 -24.5t-72 -37.5t-67 -53.5t-60.5 -73t-39 -96t-16 -122q0 -119 84 -119z" />
    <glyph glyph-name="adieresis" unicode="&#xe4;" horiz-adv-x="1058" 
d="M455 1178q-52 0 -82.5 29t-30.5 77q0 66 50 116t116 50q52 0 82.5 -30.5t30.5 -78.5q0 -65 -49 -114t-117 -49zM899 1450q52 0 82.5 -30.5t30.5 -78.5q0 -65 -49 -114t-117 -49q-52 0 -82.5 29t-30.5 77q0 66 50 116t116 50zM641 1108q169 0 252 -85t47 -271l-115 -588
l123 -41l-10 -62l-350 -61h-41l41 213q-14 -30 -44.5 -67.5t-75.5 -77.5t-107.5 -66.5t-127.5 -26.5q-97 0 -155 57t-58 152q0 180 179 323.5t485 207.5l12 61q8 39 10.5 69t-3 62.5t-21.5 53.5t-49 35t-82 14q-114 0 -183 -58.5t-69 -156.5q0 -30 10 -68h-71l-62 213
q55 60 185.5 114t279.5 54zM369 98q43 0 85.5 30t75 75.5t53 83t33.5 69.5l54 287q-4 -1 -14 -4q-32 -9 -53 -15.5t-63.5 -24.5t-72 -37.5t-67 -53.5t-60.5 -73t-39 -96t-16 -122q0 -119 84 -119z" />
    <glyph glyph-name="aring" unicode="&#xe5;" horiz-adv-x="1058" 
d="M643 1184q-68 0 -112 47.5t-44 114.5q0 85 71.5 151t158.5 66q67 0 111 -46.5t44 -113.5q0 -85 -71.5 -152t-157.5 -67zM702 1483q-53 0 -94 -37.5t-41 -87.5q0 -39 26 -66.5t66 -27.5q49 0 90.5 38.5t41.5 88.5q0 40 -25.5 66t-63.5 26zM940 752l-115 -588l123 -41
l-10 -62l-350 -61h-41l41 213q-14 -30 -44.5 -67.5t-75.5 -77.5t-107.5 -66.5t-127.5 -26.5q-97 0 -155 57t-58 152q0 180 179 323.5t485 207.5l12 61q8 39 10.5 69t-3 62.5t-21.5 53.5t-49 35t-82 14q-114 0 -183 -58.5t-69 -156.5q0 -30 10 -68h-71l-62 213
q55 60 185.5 114t279.5 54q169 0 252 -85t47 -271zM369 98q43 0 85.5 30t75 75.5t53 83t33.5 69.5l54 287q-4 -1 -14 -4q-32 -9 -53 -15.5t-63.5 -24.5t-72 -37.5t-67 -53.5t-60.5 -73t-39 -96t-16 -122q0 -119 84 -119z" />
    <glyph glyph-name="ae" unicode="&#xe6;" horiz-adv-x="1691" 
d="M242 -23q-104 0 -163 55.5t-59 149.5q0 182 177 324t489 209l12 61q12 67 9.5 119t-41.5 83.5t-115 31.5q-114 0 -183 -58.5t-69 -156.5q0 -30 10 -68h-71l-62 213q50 55 182.5 111.5t266.5 56.5q99 0 162 -34t104 -103q162 137 379 137q198 0 303 -111.5t63 -320.5
l-16 -80h-696l-6 -31q-27 -149 -9.5 -261t84 -177.5t170.5 -65.5q116 0 230 80.5t200 218.5h52q-90 -170 -250 -276.5t-344 -106.5q-151 0 -254 73.5t-140 203.5q-45 -78 -100.5 -135t-111.5 -86.5t-106 -42.5t-97 -13zM940 674h436q30 156 -7 249t-134 93q-98 0 -182 -95.5
t-113 -246.5zM373 98q35 0 70.5 20.5t61 49.5t49.5 66.5t37.5 64.5t22.5 51l58 293q-36 -11 -60.5 -19.5t-68.5 -28t-75 -40.5t-68 -55t-60 -72.5t-39 -93t-16 -117.5q0 -119 88 -119z" />
    <glyph glyph-name="ccedilla" unicode="&#xe7;" horiz-adv-x="1064" 
d="M547 61q110 0 228.5 82t201.5 217h51q-92 -178 -229.5 -280.5t-311.5 -102.5h-6l-71 -94q71 0 111 -33t40 -81q0 -65 -61.5 -126t-157.5 -61q-57 0 -111 35l7 31q47 -21 92 -21q131 0 131 103q0 39 -33 65.5t-98 26.5l8 39l92 121q-170 19 -272.5 137t-102.5 301
q0 188 89 346.5t242 250t335 91.5q244 0 338 -160l-209 -350h-51q84 150 84 260q0 78 -44.5 122t-123.5 44q-108 0 -202.5 -87t-151 -234.5t-56.5 -315.5q0 -152 63.5 -239t178.5 -87z" />
    <glyph glyph-name="egrave" unicode="&#xe8;" horiz-adv-x="1107" 
d="M725 1178h-27q-126 110 -200 196.5t-74 126.5q0 62 65 62q54 0 119.5 -106.5t116.5 -278.5zM467 -23q-190 0 -302 112.5t-112 307.5q0 145 50 276.5t135 226.5t202 151.5t246 56.5q94 0 170 -26.5t128 -80.5t70.5 -135t-1.5 -190l-17 -80h-696l-6 -31q-45 -230 24 -367
t222 -137q115 0 230 80.5t200 218.5h51q-90 -170 -250 -276.5t-344 -106.5zM356 674h437q30 156 -7.5 249t-134.5 93q-98 0 -182 -95.5t-113 -246.5z" />
    <glyph glyph-name="eacute" unicode="&#xe9;" horiz-adv-x="1107" 
d="M653 1178h-26q122 178 226.5 281.5t166.5 103.5q22 0 39.5 -13t17.5 -32q0 -42 -117.5 -135t-306.5 -205zM467 -23q-190 0 -302 112.5t-112 307.5q0 145 50 276.5t135 226.5t202 151.5t246 56.5q94 0 170 -26.5t128 -80.5t70.5 -135t-1.5 -190l-17 -80h-696l-6 -31
q-45 -230 24 -367t222 -137q115 0 230 80.5t200 218.5h51q-90 -170 -250 -276.5t-344 -106.5zM356 674h437q30 156 -7.5 249t-134.5 93q-98 0 -182 -95.5t-113 -246.5z" />
    <glyph glyph-name="ecircumflex" unicode="&#xea;" horiz-adv-x="1107" 
d="M475 1137h-37q178 257 212 300q60 74 101 83q9 2 19 2q47 0 74 -57.5t90 -267.5q12 -39 18 -60h-37l-172 239q-45 -40 -134 -119.5t-134 -119.5zM467 -23q-190 0 -302 112.5t-112 307.5q0 145 50 276.5t135 226.5t202 151.5t246 56.5q94 0 170 -26.5t128 -80.5t70.5 -135
t-1.5 -190l-17 -80h-696l-6 -31q-45 -230 24 -367t222 -137q115 0 230 80.5t200 218.5h51q-90 -170 -250 -276.5t-344 -106.5zM356 674h437q30 156 -7.5 249t-134.5 93q-98 0 -182 -95.5t-113 -246.5z" />
    <glyph glyph-name="edieresis" unicode="&#xeb;" horiz-adv-x="1107" 
d="M508 1178q-52 0 -82.5 29t-30.5 77q0 66 50 116t116 50q52 0 82.5 -30.5t30.5 -78.5q0 -65 -49 -114t-117 -49zM899 1178q-52 0 -82.5 29t-30.5 77q0 66 50 116t116 50q52 0 82.5 -30.5t30.5 -78.5q0 -65 -49 -114t-117 -49zM467 -23q-190 0 -302 112.5t-112 307.5
q0 145 50 276.5t135 226.5t202 151.5t246 56.5q94 0 170 -26.5t128 -80.5t70.5 -135t-1.5 -190l-17 -80h-696l-6 -31q-45 -230 24 -367t222 -137q115 0 230 80.5t200 218.5h51q-90 -170 -250 -276.5t-344 -106.5zM356 674h437q30 156 -7.5 249t-134.5 93q-98 0 -182 -95.5
t-113 -246.5z" />
    <glyph glyph-name="igrave" unicode="&#xec;" horiz-adv-x="587" 
d="M430 1178h-27q-126 110 -200 196.5t-74 126.5q0 62 66 62q54 0 119 -106t116 -279zM451 0h-514l6 31l145 63l164 844l-121 66l6 30l348 41h41l-190 -981l121 -63z" />
    <glyph glyph-name="iacute" unicode="&#xed;" horiz-adv-x="587" 
d="M358 1178h-26q122 178 226.5 281.5t166.5 103.5q22 0 39.5 -13t17.5 -32q0 -42 -117.5 -135t-306.5 -205zM451 0h-514l6 31l145 63l164 844l-121 66l6 30l348 41h41l-190 -981l121 -63z" />
    <glyph glyph-name="icircumflex" unicode="&#xee;" horiz-adv-x="587" 
d="M180 1137h-37q178 257 212 300q60 74 101 83q9 2 19 2q47 0 74 -57.5t90 -267.5q12 -39 18 -60h-36l-172 239q-45 -40 -134.5 -119.5t-134.5 -119.5zM451 0h-514l6 31l145 63l164 844l-121 66l6 30l348 41h41l-190 -981l121 -63z" />
    <glyph glyph-name="idieresis" unicode="&#xef;" horiz-adv-x="587" 
d="M213 1178q-52 0 -82.5 29t-30.5 77q0 66 50 116t116 50q52 0 82.5 -30.5t30.5 -78.5q0 -65 -49 -114t-117 -49zM604 1178q-52 0 -82 29t-30 77q0 66 49.5 116t115.5 50q52 0 82.5 -30.5t30.5 -78.5q0 -65 -49 -114t-117 -49zM451 0h-514l6 31l145 63l164 844l-121 66
l6 30l348 41h41l-190 -981l121 -63z" />
    <glyph glyph-name="eth" unicode="&#xf0;" horiz-adv-x="1243" 
d="M1151 1430l-131 -52q178 -276 178 -567q0 -240 -93 -431.5t-252.5 -297t-354.5 -105.5q-202 0 -319.5 129.5t-117.5 337.5q0 146 51 271.5t137 210.5t199.5 133.5t237.5 48.5q187 0 244 -96h10q-86 160 -160 274l-200 -78l-29 129l154 60q-91 126 -218 241h322
q69 -72 131 -149l180 70zM524 61q100 0 188.5 85.5t141.5 228.5t53 303q0 158 -60 252t-163 94q-160 0 -262.5 -166.5t-102.5 -429.5q0 -163 54 -265t151 -102z" />
    <glyph glyph-name="ntilde" unicode="&#xf1;" horiz-adv-x="1210" 
d="M551 1208h-47q30 101 87.5 158t139.5 57q34 0 65 -15.5t50.5 -34.5t46.5 -34.5t53 -15.5q42 0 71.5 21t57.5 79h47q-30 -101 -88 -158t-141 -57q-35 0 -66 16t-50.5 34.5t-46 34.5t-52.5 16q-41 0 -71 -21.5t-56 -79.5zM430 0h-493l6 31l145 63l164 844l-121 66l6 30
l348 41h41l-30 -153q152 186 354 186q60 0 110.5 -17t89.5 -52t54 -96.5t0 -141.5l-137 -707l120 -63l-6 -31h-493l6 31l125 63l117 604q33 155 15 230.5t-99 75.5q-140 0 -277 -189l-139 -721l100 -63z" />
    <glyph glyph-name="ograve" unicode="&#xf2;" horiz-adv-x="1214" 
d="M762 1178h-27q-126 110 -200 196.5t-74 126.5q0 62 65 62q54 0 119.5 -106.5t116.5 -278.5zM500 -23q-95 0 -171.5 27t-126.5 72t-83.5 106t-47.5 125t-14 133q0 125 49.5 245t135 214t212.5 151.5t271 57.5q121 0 210 -37t138 -100t71.5 -134.5t22.5 -152.5
q0 -95 -30 -194.5t-89 -190.5t-138.5 -163.5t-186 -115.5t-223.5 -43zM545 61q82 0 165 97t136 248t53 299q0 142 -53.5 230.5t-155.5 88.5q-96 0 -183 -82.5t-138.5 -219t-51.5 -288.5q0 -160 60 -266.5t168 -106.5z" />
    <glyph glyph-name="oacute" unicode="&#xf3;" horiz-adv-x="1214" 
d="M690 1178h-26q122 178 226.5 281.5t166.5 103.5q22 0 39.5 -13t17.5 -32q0 -42 -117.5 -135t-306.5 -205zM500 -23q-95 0 -171.5 27t-126.5 72t-83.5 106t-47.5 125t-14 133q0 125 49.5 245t135 214t212.5 151.5t271 57.5q121 0 210 -37t138 -100t71.5 -134.5
t22.5 -152.5q0 -95 -30 -194.5t-89 -190.5t-138.5 -163.5t-186 -115.5t-223.5 -43zM545 61q82 0 165 97t136 248t53 299q0 142 -53.5 230.5t-155.5 88.5q-96 0 -183 -82.5t-138.5 -219t-51.5 -288.5q0 -160 60 -266.5t168 -106.5z" />
    <glyph glyph-name="ocircumflex" unicode="&#xf4;" horiz-adv-x="1214" 
d="M512 1137h-37q178 257 212 300q60 74 101 83q9 2 19 2q47 0 74 -57.5t90 -267.5q12 -39 18 -60h-37l-172 239q-45 -40 -134 -119.5t-134 -119.5zM500 -23q-95 0 -171.5 27t-126.5 72t-83.5 106t-47.5 125t-14 133q0 125 49.5 245t135 214t212.5 151.5t271 57.5
q121 0 210 -37t138 -100t71.5 -134.5t22.5 -152.5q0 -95 -30 -194.5t-89 -190.5t-138.5 -163.5t-186 -115.5t-223.5 -43zM545 61q82 0 165 97t136 248t53 299q0 142 -53.5 230.5t-155.5 88.5q-96 0 -183 -82.5t-138.5 -219t-51.5 -288.5q0 -160 60 -266.5t168 -106.5z" />
    <glyph glyph-name="otilde" unicode="&#xf5;" horiz-adv-x="1214" 
d="M506 1208h-47q30 101 87.5 158t139.5 57q34 0 65 -15.5t50.5 -34.5t46.5 -34.5t53 -15.5q42 0 71.5 21t57.5 79h47q-30 -101 -88 -158t-141 -57q-35 0 -66 16t-50.5 34.5t-46 34.5t-52.5 16q-41 0 -71 -21.5t-56 -79.5zM500 -23q-95 0 -171.5 27t-126.5 72t-83.5 106
t-47.5 125t-14 133q0 125 49.5 245t135 214t212.5 151.5t271 57.5q121 0 210 -37t138 -100t71.5 -134.5t22.5 -152.5q0 -95 -30 -194.5t-89 -190.5t-138.5 -163.5t-186 -115.5t-223.5 -43zM545 61q82 0 165 97t136 248t53 299q0 142 -53.5 230.5t-155.5 88.5
q-96 0 -183 -82.5t-138.5 -219t-51.5 -288.5q0 -160 60 -266.5t168 -106.5z" />
    <glyph glyph-name="odieresis" unicode="&#xf6;" horiz-adv-x="1214" 
d="M545 1178q-52 0 -82.5 29t-30.5 77q0 66 50 116t116 50q52 0 82.5 -30.5t30.5 -78.5q0 -65 -49 -114t-117 -49zM936 1178q-52 0 -82.5 29t-30.5 77q0 66 50 116t116 50q52 0 82.5 -30.5t30.5 -78.5q0 -65 -49 -114t-117 -49zM500 -23q-95 0 -171.5 27t-126.5 72
t-83.5 106t-47.5 125t-14 133q0 125 49.5 245t135 214t212.5 151.5t271 57.5q121 0 210 -37t138 -100t71.5 -134.5t22.5 -152.5q0 -95 -30 -194.5t-89 -190.5t-138.5 -163.5t-186 -115.5t-223.5 -43zM545 61q82 0 165 97t136 248t53 299q0 142 -53.5 230.5t-155.5 88.5
q-96 0 -183 -82.5t-138.5 -219t-51.5 -288.5q0 -160 60 -266.5t168 -106.5z" />
    <glyph glyph-name="divide" unicode="&#xf7;" horiz-adv-x="901" 
d="M496 762q-51 0 -82 29.5t-31 74.5q0 66 49.5 116t114.5 50q51 0 81.5 -30.5t30.5 -77.5q0 -66 -48.5 -114t-114.5 -48zM815 553h-723l25 127h723zM385 197q-51 0 -82 29.5t-31 74.5q0 66 50 116t116 50q51 0 81 -31t30 -78q0 -66 -49 -113.5t-115 -47.5z" />
    <glyph glyph-name="oslash" unicode="&#xf8;" horiz-adv-x="1216" 
d="M1034 1098h158l-115 -133q90 -106 90 -281q0 -95 -30 -194.5t-89 -190.5t-138.5 -163.5t-186 -115.5t-223.5 -43q-132 0 -232 54l-80 -92h-155l141 163q-117 128 -117 338q0 125 49.5 245t135 214t212.5 151.5t271 57.5q154 0 262 -64zM317 434q0 -70 17 -147l530 614
q-57 123 -174 123q-96 0 -183 -82.5t-138.5 -219t-51.5 -288.5zM899 705q0 35 -2 53l-516 -596q65 -101 164 -101q82 0 165 97t136 248t53 299z" />
    <glyph glyph-name="ugrave" unicode="&#xf9;" 
d="M709 1178h-27q-126 110 -200 196.5t-74 126.5q0 62 65 62q54 0 119.5 -106.5t116.5 -278.5zM338 -33q-130 0 -197 74t-37 233l129 664l-120 66l6 30l348 41h41l-148 -760q-14 -75 -15.5 -124.5t9.5 -74.5t28 -34.5t44 -9.5q78 0 137 49.5t137 179.5l123 637l-121 66l7 30
l348 41h41l-183 -938l121 -65l-6 -31l-348 -41h-41l33 174q-127 -207 -336 -207z" />
    <glyph glyph-name="uacute" unicode="&#xfa;" 
d="M637 1178h-27q122 178 227 281.5t167 103.5q22 0 39.5 -13t17.5 -32q0 -42 -117.5 -135t-306.5 -205zM338 -33q-130 0 -197 74t-37 233l129 664l-120 66l6 30l348 41h41l-148 -760q-14 -75 -15.5 -124.5t9.5 -74.5t28 -34.5t44 -9.5q78 0 137 49.5t137 179.5l123 637
l-121 66l7 30l348 41h41l-183 -938l121 -65l-6 -31l-348 -41h-41l33 174q-127 -207 -336 -207z" />
    <glyph glyph-name="ucircumflex" unicode="&#xfb;" 
d="M459 1137h-37q178 257 212 300q60 74 101 83q9 2 19 2q47 0 74 -57.5t90 -267.5q12 -39 18 -60h-37l-172 239q-45 -40 -134 -119.5t-134 -119.5zM338 -33q-130 0 -197 74t-37 233l129 664l-120 66l6 30l348 41h41l-148 -760q-14 -75 -15.5 -124.5t9.5 -74.5t28 -34.5
t44 -9.5q78 0 137 49.5t137 179.5l123 637l-121 66l7 30l348 41h41l-183 -938l121 -65l-6 -31l-348 -41h-41l33 174q-127 -207 -336 -207z" />
    <glyph glyph-name="udieresis" unicode="&#xfc;" 
d="M492 1178q-52 0 -82.5 29t-30.5 77q0 66 50 116t116 50q52 0 82 -30.5t30 -78.5q0 -65 -48.5 -114t-116.5 -49zM883 1178q-52 0 -82.5 29t-30.5 77q0 66 50 116t116 50q52 0 82.5 -30.5t30.5 -78.5q0 -65 -49 -114t-117 -49zM338 -33q-130 0 -197 74t-37 233l129 664
l-120 66l6 30l348 41h41l-148 -760q-14 -75 -15.5 -124.5t9.5 -74.5t28 -34.5t44 -9.5q78 0 137 49.5t137 179.5l123 637l-121 66l7 30l348 41h41l-183 -938l121 -65l-6 -31l-348 -41h-41l33 174q-127 -207 -336 -207z" />
    <glyph glyph-name="yacute" unicode="&#xfd;" horiz-adv-x="1150" 
d="M702 1178h-26q122 178 226.5 281.5t166.5 103.5q22 0 39.5 -13t17.5 -32q0 -42 -117.5 -135t-306.5 -205zM45 -424l-207 254l47 37q48 -40 75.5 -60t68 -39.5t75.5 -19.5q58 0 126.5 42.5t119.5 106.5t62 123l-197 979l-141 45l6 31h543l-7 -31l-147 -45l147 -729
l410 736l-139 38l6 31h399l-6 -31l-184 -45l-475 -858q-51 -92 -119.5 -186.5t-147.5 -181.5t-163 -142t-152 -55z" />
    <glyph glyph-name="thorn" unicode="&#xfe;" horiz-adv-x="1142" 
d="M330 -410h-514l6 31l145 64l352 1816l-116 66l4 30l346 41h41l-102 -530q275 0 432 -129t157 -352q0 -171 -74.5 -321.5t-200 -239.5t-269.5 -89q-150 0 -246 103l-76 -395l121 -64zM520 82q77 0 147.5 77t113 204t42.5 266q0 181 -94 284t-256 103l-164 -842
q35 -41 97.5 -66.5t113.5 -25.5z" />
    <glyph glyph-name="ydieresis" unicode="&#xff;" horiz-adv-x="1150" 
d="M557 1178q-52 0 -82.5 29t-30.5 77q0 66 50 116t116 50q52 0 82.5 -30.5t30.5 -78.5q0 -65 -49 -114t-117 -49zM948 1178q-52 0 -82 29t-30 77q0 66 49.5 116t115.5 50q52 0 82.5 -30.5t30.5 -78.5q0 -65 -49 -114t-117 -49zM45 -424l-207 254l47 37q48 -40 75.5 -60
t68 -39.5t75.5 -19.5q58 0 126.5 42.5t119.5 106.5t62 123l-197 979l-141 45l6 31h543l-7 -31l-147 -45l147 -729l410 736l-139 38l6 31h399l-6 -31l-184 -45l-475 -858q-51 -92 -119.5 -186.5t-147.5 -181.5t-163 -142t-152 -55z" />
    <glyph glyph-name="Amacron" unicode="&#x100;" horiz-adv-x="1607" 
d="M1262 1735h-580l23 118h579zM354 0h-501l6 31l186 43l748 1218l-68 281h324l358 -1499l162 -43l-6 -31h-707l6 31l217 43l-100 450h-563l-277 -450l221 -43zM823 1194l-348 -569h479z" />
    <glyph glyph-name="amacron" unicode="&#x101;" horiz-adv-x="1058" 
d="M375 1253l22 119h580l-23 -119h-579zM641 1108q169 0 252 -85t47 -271l-115 -588l123 -41l-10 -62l-350 -61h-41l41 213q-14 -30 -44.5 -67.5t-75.5 -77.5t-107.5 -66.5t-127.5 -26.5q-97 0 -155 57t-58 152q0 180 179 323.5t485 207.5l12 61q8 39 10.5 69t-3 62.5
t-21.5 53.5t-49 35t-82 14q-114 0 -183 -58.5t-69 -156.5q0 -30 10 -68h-71l-62 213q55 60 185.5 114t279.5 54zM369 98q43 0 85.5 30t75 75.5t53 83t33.5 69.5l54 287q-4 -1 -14 -4q-32 -9 -53 -15.5t-63.5 -24.5t-72 -37.5t-67 -53.5t-60.5 -73t-39 -96t-16 -122
q0 -119 84 -119z" />
    <glyph glyph-name="Abreve" unicode="&#x102;" horiz-adv-x="1607" 
d="M950 1659q-52 0 -95 22.5t-75 70t-40.5 120t8.5 172.5h30q-16 -110 37 -184t160 -74t188 74t107 184h30q-36 -186 -137.5 -285.5t-212.5 -99.5zM354 0h-501l6 31l186 43l748 1218l-68 281h324l358 -1499l162 -43l-6 -31h-707l6 31l217 43l-100 450h-563l-277 -450
l221 -43zM823 1194l-348 -569h479z" />
    <glyph glyph-name="abreve" unicode="&#x103;" horiz-adv-x="1058" 
d="M643 1178q-52 0 -95 23t-75.5 70t-41 119.5t8.5 172.5h31q-16 -110 37 -184t160 -74t188 74t107 184h30q-36 -186 -137.5 -285.5t-212.5 -99.5zM641 1108q169 0 252 -85t47 -271l-115 -588l123 -41l-10 -62l-350 -61h-41l41 213q-14 -30 -44.5 -67.5t-75.5 -77.5
t-107.5 -66.5t-127.5 -26.5q-97 0 -155 57t-58 152q0 180 179 323.5t485 207.5l12 61q8 39 10.5 69t-3 62.5t-21.5 53.5t-49 35t-82 14q-114 0 -183 -58.5t-69 -156.5q0 -30 10 -68h-71l-62 213q55 60 185.5 114t279.5 54zM369 98q43 0 85.5 30t75 75.5t53 83t33.5 69.5
l54 287q-4 -1 -14 -4q-32 -9 -53 -15.5t-63.5 -24.5t-72 -37.5t-67 -53.5t-60.5 -73t-39 -96t-16 -122q0 -119 84 -119z" />
    <glyph glyph-name="Aogonek" unicode="&#x104;" horiz-adv-x="1607" 
d="M1563 0h-224q-178 -144 -178 -262q0 -40 20 -59t48 -19q51 0 102 57h51q-104 -131 -225 -131q-58 0 -95.5 31.5t-37.5 85.5q0 37 20 76.5t45.5 69t65.5 63t63.5 50.5t55.5 38h-418l6 31l217 43l-100 450h-563l-277 -450l221 -43l-6 -31h-501l6 31l186 43l748 1218
l-68 281h324l358 -1499l162 -43zM823 1194l-348 -569h479z" />
    <glyph glyph-name="aogonek" unicode="&#x105;" horiz-adv-x="1058" 
d="M940 752l-115 -588l123 -41l-10 -62l-332 -57q-35 -29 -56 -49t-55.5 -58t-52.5 -78.5t-18 -80.5t20 -59t48 -19q51 0 102 57h51q-104 -131 -225 -131q-58 0 -95.5 31.5t-37.5 85.5q0 46 27.5 93t74 88.5t80 66t72.5 50.5q6 3 8 5l39 207q-14 -30 -44.5 -67.5
t-75.5 -77.5t-107.5 -66.5t-127.5 -26.5q-97 0 -155 57t-58 152q0 180 179 323.5t485 207.5l12 61q8 39 10.5 69t-3 62.5t-21.5 53.5t-49 35t-82 14q-114 0 -183 -58.5t-69 -156.5q0 -30 10 -68h-71l-62 213q55 60 185.5 114t279.5 54q169 0 252 -85t47 -271zM369 98
q43 0 85.5 30t75 75.5t53 83t33.5 69.5l54 287q-4 -1 -14 -4q-32 -9 -53 -15.5t-63.5 -24.5t-72 -37.5t-67 -53.5t-60.5 -73t-39 -96t-16 -122q0 -119 84 -119z" />
    <glyph glyph-name="Cacute" unicode="&#x106;" horiz-adv-x="1636" 
d="M1034 1659h-26q122 178 226.5 281.5t166.5 103.5q22 0 39.5 -13t17.5 -32q0 -42 -117.5 -135t-306.5 -205zM780 -23q-316 0 -498 162.5t-182 438.5q0 206 83 390.5t224 317t336.5 210t413.5 77.5q166 0 294 -48.5t171 -127.5l-88 -455h-61q47 250 -49 402.5t-300 152.5
q-185 0 -340.5 -119.5t-245 -326.5t-89.5 -453q0 -252 109.5 -398.5t303.5 -146.5q206 0 412 155t336 408h51q-140 -288 -381 -463.5t-500 -175.5z" />
    <glyph glyph-name="cacute" unicode="&#x107;" horiz-adv-x="1064" 
d="M643 1178h-27q122 178 227 281.5t167 103.5q22 0 39.5 -13t17.5 -32q0 -42 -117.5 -135t-306.5 -205zM487 -23q-193 0 -312.5 122t-119.5 321q0 188 89 346.5t242 250t335 91.5q244 0 338 -160l-209 -350h-51q84 150 84 260q0 78 -44.5 122t-123.5 44q-108 0 -202.5 -87
t-151 -234.5t-56.5 -315.5q0 -152 63.5 -239t178.5 -87q110 0 228.5 82t201.5 217h51q-92 -178 -229.5 -280.5t-311.5 -102.5z" />
    <glyph glyph-name="Cdotaccent" unicode="&#x10a;" horiz-adv-x="1636" 
d="M1085 1655q-57 0 -90.5 33.5t-33.5 87.5q0 72 54 124t130 52q55 0 88 -35t33 -90q0 -72 -53.5 -122t-127.5 -50zM780 -23q-316 0 -498 162.5t-182 438.5q0 206 83 390.5t224 317t336.5 210t413.5 77.5q166 0 294 -48.5t171 -127.5l-88 -455h-61q47 250 -49 402.5
t-300 152.5q-185 0 -340.5 -119.5t-245 -326.5t-89.5 -453q0 -252 109.5 -398.5t303.5 -146.5q206 0 412 155t336 408h51q-140 -288 -381 -463.5t-500 -175.5z" />
    <glyph glyph-name="cdotaccent" unicode="&#x10b;" horiz-adv-x="1064" 
d="M694 1174q-58 0 -91.5 33.5t-33.5 86.5q0 72 54.5 124t130.5 52q55 0 87.5 -34.5t32.5 -89.5q0 -72 -53 -122t-127 -50zM487 -23q-193 0 -312.5 122t-119.5 321q0 188 89 346.5t242 250t335 91.5q244 0 338 -160l-209 -350h-51q84 150 84 260q0 78 -44.5 122t-123.5 44
q-108 0 -202.5 -87t-151 -234.5t-56.5 -315.5q0 -152 63.5 -239t178.5 -87q110 0 228.5 82t201.5 217h51q-92 -178 -229.5 -280.5t-311.5 -102.5z" />
    <glyph glyph-name="Ccaron" unicode="&#x10c;" horiz-adv-x="1636" 
d="M1077 1659q-47 0 -74 57.5t-90 267.5q-12 39 -18 60h37l172 -240q45 40 134 120t134 120h37q-178 -257 -212 -300q-60 -74 -101 -83q-9 -2 -19 -2zM780 -23q-316 0 -498 162.5t-182 438.5q0 206 83 390.5t224 317t336.5 210t413.5 77.5q166 0 294 -48.5t171 -127.5
l-88 -455h-61q47 250 -49 402.5t-300 152.5q-185 0 -340.5 -119.5t-245 -326.5t-89.5 -453q0 -252 109.5 -398.5t303.5 -146.5q206 0 412 155t336 408h51q-140 -288 -381 -463.5t-500 -175.5z" />
    <glyph glyph-name="ccaron" unicode="&#x10d;" horiz-adv-x="1064" 
d="M686 1178q-47 0 -74 57.5t-90 267.5q-12 39 -18 60h37l172 -240q45 40 134 120t134 120h37q-178 -257 -212 -300q-60 -74 -101 -83q-9 -2 -19 -2zM487 -23q-193 0 -312.5 122t-119.5 321q0 188 89 346.5t242 250t335 91.5q244 0 338 -160l-209 -350h-51q84 150 84 260
q0 78 -44.5 122t-123.5 44q-108 0 -202.5 -87t-151 -234.5t-56.5 -315.5q0 -152 63.5 -239t178.5 -87q110 0 228.5 82t201.5 217h51q-92 -178 -229.5 -280.5t-311.5 -102.5z" />
    <glyph glyph-name="Dcaron" unicode="&#x10e;" horiz-adv-x="1699" 
d="M954 1659q-47 0 -74 57.5t-90 267.5q-12 39 -18 60h37l172 -240q45 40 134 120t134 120h37q-178 -257 -212 -300q-60 -74 -101 -83q-9 -2 -19 -2zM569 0h-606l6 31l170 82l262 1347l-141 66l6 30h645q360 0 568.5 -166t208.5 -448q0 -196 -86 -371t-234.5 -300
t-356.5 -198t-442 -73zM698 1462l-262 -1349h137q217 0 396.5 110.5t283 303t103.5 425.5q0 237 -149.5 373.5t-411.5 136.5h-97z" />
    <glyph glyph-name="dcaron" unicode="&#x10f;" horiz-adv-x="1210" 
d="M903 0h-248q-275 0 -433.5 125.5t-158.5 345.5q0 163 74.5 310.5t198 237t260.5 89.5q150 0 254 -107l96 500l-119 66l7 30l346 41h41zM1253 1065h-41q61 52 99.5 119t38.5 127q0 41 -13 80.5t-34 62.5q10 54 47 85.5t88 31.5q39 0 62.5 -23.5t23.5 -68.5
q0 -77 -75.5 -200t-195.5 -214zM668 72l163 841q-36 42 -90.5 66.5t-115.5 24.5q-75 0 -147 -79.5t-116.5 -208t-44.5 -263.5q0 -179 93.5 -279t257.5 -102z" />
    <glyph glyph-name="Dcroat" unicode="&#x110;" horiz-adv-x="1701" 
d="M268 1556h645q360 0 568.5 -166t208.5 -448q0 -196 -86 -371t-234.5 -300t-356.5 -198t-442 -73h-606l6 31l170 82l119 614h-149l20 102h150l122 631l-141 66zM438 113h137q217 0 396.5 110.5t283 303t103.5 425.5q0 237 -149.5 373.5t-411.5 136.5h-97l-122 -633h194
l-20 -102h-195z" />
    <glyph glyph-name="dcroat" unicode="&#x111;" horiz-adv-x="1140" 
d="M1171 1384h138l-21 -102h-137l-248 -1282h-248q-275 0 -433.5 125.5t-158.5 345.5q0 163 74.5 310.5t198 237t260.5 89.5q150 0 254 -107l53 281h-256l21 102h256l22 117l-119 66l7 30l346 41h41zM668 72l163 841q-36 42 -90.5 66.5t-115.5 24.5q-75 0 -147 -79.5
t-116.5 -208t-44.5 -263.5q0 -179 93.5 -279t257.5 -102z" />
    <glyph glyph-name="Emacron" unicode="&#x112;" horiz-adv-x="1257" 
d="M1171 1735h-579l22 118h580zM1038 0h-1075l6 31l170 82l262 1347l-141 66l6 30h1055l10 -317h-41l-131 221h-461l-116 -592h297l106 174h62l-89 -448h-61l-37 174h-297l-127 -655h482l212 204h41z" />
    <glyph glyph-name="emacron" unicode="&#x113;" horiz-adv-x="1107" 
d="M1008 1253h-580l23 119h579zM467 -23q-190 0 -302 112.5t-112 307.5q0 145 50 276.5t135 226.5t202 151.5t246 56.5q94 0 170 -26.5t128 -80.5t70.5 -135t-1.5 -190l-17 -80h-696l-6 -31q-45 -230 24 -367t222 -137q115 0 230 80.5t200 218.5h51q-90 -170 -250 -276.5
t-344 -106.5zM356 674h437q30 156 -7.5 249t-134.5 93q-98 0 -182 -95.5t-113 -246.5z" />
    <glyph glyph-name="Edotaccent" unicode="&#x116;" horiz-adv-x="1257" 
d="M868 1655q-58 0 -91.5 33.5t-33.5 87.5q0 72 54.5 124t130.5 52q55 0 88 -35t33 -90q0 -72 -53.5 -122t-127.5 -50zM1038 0h-1075l6 31l170 82l262 1347l-141 66l6 30h1055l10 -317h-41l-131 221h-461l-116 -592h297l106 174h62l-89 -448h-61l-37 174h-297l-127 -655h482
l212 204h41z" />
    <glyph glyph-name="edotaccent" unicode="&#x117;" horiz-adv-x="1107" 
d="M705 1174q-58 0 -91.5 33.5t-33.5 86.5q0 72 54 124t130 52q55 0 88 -34.5t33 -89.5q0 -72 -53 -122t-127 -50zM467 -23q-190 0 -302 112.5t-112 307.5q0 145 50 276.5t135 226.5t202 151.5t246 56.5q94 0 170 -26.5t128 -80.5t70.5 -135t-1.5 -190l-17 -80h-696l-6 -31
q-45 -230 24 -367t222 -137q115 0 230 80.5t200 218.5h51q-90 -170 -250 -276.5t-344 -106.5zM356 674h437q30 156 -7.5 249t-134.5 93q-98 0 -182 -95.5t-113 -246.5z" />
    <glyph glyph-name="Eogonek" unicode="&#x118;" horiz-adv-x="1257" 
d="M1290 1239l-131 221h-461l-116 -592h297l106 174h62l-89 -448h-61l-37 174h-297l-127 -655h482l212 204h41l-133 -317h-61q-178 -144 -178 -262q0 -40 19.5 -59t47.5 -19q52 0 103 57h51q-104 -131 -225 -131q-58 0 -95.5 31.5t-37.5 85.5q0 132 249 297h-948l6 31
l170 82l262 1347l-141 66l6 30h1055l10 -317h-41z" />
    <glyph glyph-name="eogonek" unicode="&#x119;" horiz-adv-x="1107" 
d="M580 61q115 0 230 80.5t200 218.5h51q-68 -130 -180.5 -225t-247.5 -133q-180 -146 -180 -264q0 -40 19.5 -59t47.5 -19q52 0 103 57h51q-104 -131 -225 -131q-59 0 -96.5 31.5t-37.5 85.5q0 123 224 279q-57 -5 -72 -5q-190 0 -302 112.5t-112 307.5q0 145 50 276.5
t135 226.5t202 151.5t246 56.5q94 0 170 -26.5t128 -80.5t70.5 -135t-1.5 -190l-17 -80h-696l-6 -31q-45 -230 24 -367t222 -137zM651 1016q-98 0 -182 -95.5t-113 -246.5h437q30 156 -7.5 249t-134.5 93z" />
    <glyph glyph-name="Ecaron" unicode="&#x11a;" horiz-adv-x="1257" 
d="M860 1659q-47 0 -74 57.5t-90 267.5q-12 39 -18 60h37l172 -240q45 40 134 120t134 120h37q-178 -257 -212 -300q-60 -74 -101 -83q-9 -2 -19 -2zM1038 0h-1075l6 31l170 82l262 1347l-141 66l6 30h1055l10 -317h-41l-131 221h-461l-116 -592h297l106 174h62l-89 -448
h-61l-37 174h-297l-127 -655h482l212 204h41z" />
    <glyph glyph-name="ecaron" unicode="&#x11b;" horiz-adv-x="1107" 
d="M696 1178q-47 0 -74 57.5t-90 267.5q-12 39 -18 60h37l172 -240q45 40 134 120t134 120h37q-178 -257 -212 -300q-60 -74 -101 -83q-9 -2 -19 -2zM467 -23q-190 0 -302 112.5t-112 307.5q0 145 50 276.5t135 226.5t202 151.5t246 56.5q94 0 170 -26.5t128 -80.5
t70.5 -135t-1.5 -190l-17 -80h-696l-6 -31q-45 -230 24 -367t222 -137q115 0 230 80.5t200 218.5h51q-90 -170 -250 -276.5t-344 -106.5zM356 674h437q30 156 -7.5 249t-134.5 93q-98 0 -182 -95.5t-113 -246.5z" />
    <glyph glyph-name="Gbreve" unicode="&#x11e;" horiz-adv-x="1675" 
d="M1051 1659q-52 0 -95 22.5t-75.5 70t-41 120t8.5 172.5h31q-16 -110 36.5 -184t159.5 -74t188 74t107 184h31q-36 -186 -137.5 -285.5t-212.5 -99.5zM772 -23q-139 0 -261.5 44t-213 123.5t-143 197.5t-52.5 258q0 152 54.5 299.5t153 267.5t227 212t285.5 143t319 51
q108 0 202 -22.5t150 -54t88 -57.5t39 -42l-88 -455h-41q47 269 -51.5 412t-329.5 143q-195 0 -348 -119.5t-237.5 -335t-84.5 -489.5q0 -233 96.5 -366.5t280.5 -133.5q120 0 229 57t174.5 151t65.5 198t-86 167t-260 76l8 41h651l-143 -743h-43l2 434q-91 -225 -256 -341
t-387 -116z" />
    <glyph glyph-name="gbreve" unicode="&#x11f;" horiz-adv-x="1165" 
d="M686 1178q-52 0 -95 23t-75.5 70t-41 119.5t8.5 172.5h31q-16 -110 37 -184t160 -74t188 74t107 184h30q-36 -186 -137.5 -285.5t-212.5 -99.5zM225 -424l-209 252l50 37q64 -54 94.5 -77t78 -42.5t97.5 -19.5q42 0 86 11t93 37t87.5 80t52.5 128l2 12q-84 -19 -153 -19
q-199 0 -321 129.5t-122 333.5q0 165 77.5 321.5t202.5 252.5t257 96q146 0 246 -152l22 119h41l332 -41l-4 -30l-148 -66l-161 -836q-26 -132 -91.5 -233.5t-159.5 -165t-208 -95.5t-242 -32zM532 41q66 0 140 25l149 778q-88 160 -192 160q-77 0 -149.5 -93.5t-116.5 -245
t-44 -313.5q0 -92 19.5 -159t68.5 -109.5t125 -42.5z" />
    <glyph glyph-name="Gdotaccent" unicode="&#x120;" horiz-adv-x="1675" 
d="M1059 1655q-57 0 -91 33.5t-34 87.5q0 72 54 124t130 52q55 0 88 -35t33 -90q0 -72 -53 -122t-127 -50zM772 -23q-139 0 -261.5 44t-213 123.5t-143 197.5t-52.5 258q0 152 54.5 299.5t153 267.5t227 212t285.5 143t319 51q108 0 202 -22.5t150 -54t88 -57.5t39 -42
l-88 -455h-41q47 269 -51.5 412t-329.5 143q-195 0 -348 -119.5t-237.5 -335t-84.5 -489.5q0 -233 96.5 -366.5t280.5 -133.5q120 0 229 57t174.5 151t65.5 198t-86 167t-260 76l8 41h651l-143 -743h-43l2 434q-91 -225 -256 -341t-387 -116z" />
    <glyph glyph-name="gdotaccent" unicode="&#x121;" horiz-adv-x="1165" 
d="M694 1174q-58 0 -91.5 33.5t-33.5 86.5q0 72 54.5 124t130.5 52q55 0 87.5 -34.5t32.5 -89.5q0 -72 -53 -122t-127 -50zM225 -424l-209 252l50 37q64 -54 94.5 -77t78 -42.5t97.5 -19.5q42 0 86 11t93 37t87.5 80t52.5 128l2 12q-84 -19 -153 -19q-199 0 -321 129.5
t-122 333.5q0 165 77.5 321.5t202.5 252.5t257 96q146 0 246 -152l22 119h41l332 -41l-4 -30l-148 -66l-161 -836q-26 -132 -91.5 -233.5t-159.5 -165t-208 -95.5t-242 -32zM532 41q66 0 140 25l149 778q-88 160 -192 160q-77 0 -149.5 -93.5t-116.5 -245t-44 -313.5
q0 -92 19.5 -159t68.5 -109.5t125 -42.5z" />
    <glyph glyph-name="uni0122" unicode="&#x122;" horiz-adv-x="1675" 
d="M772 -23q-139 0 -261.5 44t-213 123.5t-143 197.5t-52.5 258q0 152 54.5 299.5t153 267.5t227 212t285.5 143t319 51q108 0 202 -22.5t150 -54t88 -57.5t39 -42l-88 -455h-41q47 269 -51.5 412t-329.5 143q-195 0 -348 -119.5t-237.5 -335t-84.5 -489.5
q0 -233 96.5 -366.5t280.5 -133.5q120 0 229 57t174.5 151t65.5 198t-86 167t-260 76l8 41h651l-143 -743h-43l2 434q-91 -225 -256 -341t-387 -116zM745 -102q47 0 75 -25.5t28 -67.5q0 -64 -60 -150.5t-151 -154.5h-33q45 45 78 101.5t33 89.5q0 19 -13 35t-27.5 26.5
t-24.5 30t-5 43.5q6 33 33.5 52.5t66.5 19.5z" />
    <glyph glyph-name="uni0123" unicode="&#x123;" horiz-adv-x="1165" 
d="M709 1200q-47 0 -75 26.5t-28 69.5q0 67 59 150t152 151h33q-49 -46 -80 -100t-31 -88q0 -19 12.5 -36t27 -27.5t24.5 -30t6 -43.5q-7 -34 -34 -53t-66 -19zM225 -424l-209 252l50 37q64 -54 94.5 -77t78 -42.5t97.5 -19.5q42 0 86 11t93 37t87.5 80t52.5 128l2 12
q-84 -19 -153 -19q-199 0 -321 129.5t-122 333.5q0 165 77.5 321.5t202.5 252.5t257 96q146 0 246 -152l22 119h41l332 -41l-4 -30l-148 -66l-161 -836q-26 -132 -91.5 -233.5t-159.5 -165t-208 -95.5t-242 -32zM532 41q66 0 140 25l149 778q-88 160 -192 160
q-77 0 -149.5 -93.5t-116.5 -245t-44 -313.5q0 -92 19.5 -159t68.5 -109.5t125 -42.5z" />
    <glyph glyph-name="Hbar" unicode="&#x126;" horiz-adv-x="1673" 
d="M1802 1556l-6 -30l-166 -66l-43 -217h135l-22 -119h-135l-197 -1011l137 -82l-6 -31h-604l6 31l170 82l127 655h-635l-127 -655l137 -82l-6 -31h-604l6 31l170 82l197 1011h-137l22 119h137l43 217l-141 66l6 30h604l-6 -30l-166 -66l-43 -217h635l43 217l-141 66l6 30
h604zM584 870h635l49 254h-635z" />
    <glyph glyph-name="hbar" unicode="&#x127;" horiz-adv-x="1198" 
d="M838 1108q60 0 110.5 -16.5t90.5 -53.5t53 -95t0 -142l-138 -707l121 -63l-6 -31h-494l7 31l125 63l116 604q34 169 17 237.5t-99 68.5q-66 0 -141.5 -58.5t-136.5 -138.5l-139 -713l100 -63l-6 -31h-494l6 31l146 63l229 1188h-135l20 102h136l22 117l-119 66l7 30
l348 41h41l-50 -254h256l-20 -102h-256l-72 -360q152 186 355 186z" />
    <glyph glyph-name="Imacron" unicode="&#x12a;" horiz-adv-x="739" 
d="M901 1735h-579l22 118h580zM567 0h-604l6 31l170 82l262 1347l-141 66l6 30h604l-6 -30l-166 -66l-262 -1347l137 -82z" />
    <glyph glyph-name="imacron" unicode="&#x12b;" horiz-adv-x="587" 
d="M713 1253h-580l23 119h579zM451 0h-514l6 31l145 63l164 844l-121 66l6 30l348 41h41l-190 -981l121 -63z" />
    <glyph glyph-name="Iogonek" unicode="&#x12e;" horiz-adv-x="739" 
d="M260 1526l6 30h604l-6 -30l-166 -66l-262 -1347l137 -82l-6 -31h-221q-178 -144 -178 -262q0 -40 20 -59t48 -19q51 0 102 57h51q-104 -131 -225 -131q-58 0 -95.5 31.5t-37.5 85.5q0 37 20 76.5t45.5 69t65.5 63t63.5 50.5t55.5 38h-318l6 31l170 82l262 1347z" />
    <glyph glyph-name="iogonek" unicode="&#x12f;" horiz-adv-x="587" 
d="M483 1569q58 0 91.5 -34t33.5 -89q0 -79 -55.5 -137t-130.5 -58q-58 0 -92.5 34t-34.5 89q0 78 56.5 136.5t131.5 58.5zM137 1034l348 41h41l-190 -981l121 -63l-6 -31h-197q-178 -144 -178 -262q0 -40 19.5 -59t47.5 -19q52 0 103 57h51q-104 -131 -225 -131
q-58 0 -95.5 31.5t-37.5 85.5q0 132 249 297h-251l6 31l145 63l164 844l-121 66z" />
    <glyph glyph-name="Idotaccent" unicode="&#x130;" horiz-adv-x="739" 
d="M598 1655q-58 0 -91.5 33.5t-33.5 87.5q0 72 54 124t130 52q55 0 88 -35t33 -90q0 -72 -53 -122t-127 -50zM567 0h-604l6 31l170 82l262 1347l-141 66l6 30h604l-6 -30l-166 -66l-262 -1347l137 -82z" />
    <glyph glyph-name="dotlessi" unicode="&#x131;" horiz-adv-x="587" 
d="M451 0h-514l6 31l145 63l164 844l-121 66l6 30l348 41h41l-190 -981l121 -63z" />
    <glyph glyph-name="uni0136" unicode="&#x136;" horiz-adv-x="1439" 
d="M567 0h-604l6 31l170 82l262 1347l-141 66l6 30h604l-6 -30l-166 -66l-131 -669l678 694l-143 41l6 30h399l-6 -30l-178 -45l-461 -480l404 -923l137 -47l-6 -31h-660l6 31l164 43l-305 657l-57 -61l-109 -557l137 -82zM616 -102q47 0 75 -25.5t28 -67.5
q0 -64 -60 -150.5t-151 -154.5h-33q45 45 78 101.5t33 89.5q0 19 -13 35t-27.5 26.5t-24.5 30t-5 43.5q6 33 33.5 52.5t66.5 19.5z" />
    <glyph glyph-name="uni0137" unicode="&#x137;" horiz-adv-x="1146" 
d="M438 0h-514l6 31l146 63l272 1407l-119 66l7 30l348 41h41l-240 -1230l578 585l-140 51l6 31h400l-6 -31l-201 -67l-283 -291l209 -612l127 -43l-6 -31h-481l6 31l84 32l-137 418l-176 -180l-41 -207l120 -63zM463 -102q47 0 74.5 -25.5t27.5 -67.5q0 -64 -60 -150.5
t-151 -154.5h-32q45 45 77.5 101.5t32.5 89.5q0 19 -13 35t-27.5 26.5t-24.5 30t-5 43.5q6 33 34 52.5t67 19.5z" />
    <glyph glyph-name="Lacute" unicode="&#x139;" horiz-adv-x="1179" 
d="M592 1659h-27q122 178 226.5 281.5t166.5 103.5q22 0 40 -13t18 -32q0 -42 -117.5 -135t-306.5 -205zM997 0h-1034l6 31l170 82l262 1347l-141 66l6 30h604l-6 -30l-166 -66l-262 -1347h441l213 204h40z" />
    <glyph glyph-name="lacute" unicode="&#x13a;" horiz-adv-x="575" 
d="M479 1741h-26q122 178 226.5 281.5t166.5 103.5q22 0 39.5 -13t17.5 -32q0 -42 -117.5 -135t-306.5 -205zM438 0h-514l6 31l146 63l272 1407l-119 66l7 30l348 41h41l-301 -1544l120 -63z" />
    <glyph glyph-name="uni013B" unicode="&#x13b;" horiz-adv-x="1179" 
d="M997 0h-1034l6 31l170 82l262 1347l-141 66l6 30h604l-6 -30l-166 -66l-262 -1347h441l213 204h40zM492 -102q47 0 74.5 -25.5t27.5 -67.5q0 -64 -60 -150.5t-151 -154.5h-33q45 45 78 101.5t33 89.5q0 19 -13 35t-27.5 26.5t-24.5 30t-5 43.5q6 33 34 52.5t67 19.5z" />
    <glyph glyph-name="uni013C" unicode="&#x13c;" horiz-adv-x="575" 
d="M438 0h-514l6 31l146 63l272 1407l-119 66l7 30l348 41h41l-301 -1544l120 -63zM137 -102q47 0 75 -25.5t28 -67.5q0 -64 -60 -150.5t-151 -154.5h-33q45 45 77.5 101.5t32.5 89.5q0 19 -12.5 35t-27 26.5t-24.5 30t-5 43.5q6 33 33.5 52.5t66.5 19.5z" />
    <glyph glyph-name="Lcaron" unicode="&#x13d;" horiz-adv-x="1204" 
d="M1047 1153h-41q61 52 99 119t38 127q0 41 -13 80.5t-34 62.5q10 54 47 85.5t88 31.5q39 0 62.5 -23.5t23.5 -68.5q0 -77 -75 -200t-195 -214zM997 0h-1034l6 31l170 82l262 1347l-141 66l6 30h604l-6 -30l-166 -66l-262 -1347h441l213 204h40z" />
    <glyph glyph-name="lcaron" unicode="&#x13e;" horiz-adv-x="624" 
d="M438 0h-514l6 31l146 63l272 1407l-119 66l7 30l348 41h41l-301 -1544l120 -63zM670 1065h-41q61 52 99 119t38 127q0 41 -13 80.5t-34 62.5q10 54 47 85.5t88 31.5q39 0 62.5 -23.5t23.5 -68.5q0 -77 -75 -200t-195 -214z" />
    <glyph glyph-name="Lslash" unicode="&#x141;" horiz-adv-x="1191" 
d="M889 113l213 204h41l-133 -317h-1035l7 31l170 82l94 479l-158 -76l31 160l157 76l138 708l-142 66l7 30h604l-6 -30l-166 -66l-107 -549l279 136l-31 -162l-279 -135l-124 -637h440z" />
    <glyph glyph-name="lslash" unicode="&#x142;" horiz-adv-x="649" 
d="M688 1030l-31 -162l-145 -67l-137 -707l121 -63l-7 -31h-514l7 31l145 63l113 580l-166 -76l30 160l166 78l129 665l-118 66l6 30l348 41h41l-131 -675z" />
    <glyph glyph-name="Nacute" unicode="&#x143;" horiz-adv-x="1447" 
d="M866 1659h-26q122 178 226.5 281.5t166.5 103.5q22 0 39.5 -13t17.5 -32q0 -42 -117.5 -135t-306.5 -205zM362 0h-399l6 31l170 82l262 1347l-141 66l6 30h269l618 -1001l176 905l-141 66l6 30h399l-6 -30l-166 -66l-284 -1460h-72l-651 1042l-181 -929l136 -82z" />
    <glyph glyph-name="nacute" unicode="&#x144;" horiz-adv-x="1210" 
d="M735 1178h-26q122 178 226.5 281.5t166.5 103.5q22 0 39.5 -13t17.5 -32q0 -42 -117.5 -135t-306.5 -205zM430 0h-493l6 31l145 63l164 844l-121 66l6 30l348 41h41l-30 -153q152 186 354 186q60 0 110.5 -17t89.5 -52t54 -96.5t0 -141.5l-137 -707l120 -63l-6 -31h-493
l6 31l125 63l117 604q33 155 15 230.5t-99 75.5q-140 0 -277 -189l-139 -721l100 -63z" />
    <glyph glyph-name="uni0145" unicode="&#x145;" horiz-adv-x="1447" 
d="M362 0h-399l6 31l170 82l262 1347l-141 66l6 30h269l618 -1001l176 905l-141 66l6 30h399l-6 -30l-166 -66l-284 -1460h-72l-651 1042l-181 -929l136 -82zM643 -102q47 0 74.5 -25.5t27.5 -67.5q0 -64 -59.5 -150.5t-150.5 -154.5h-33q45 45 77.5 101.5t32.5 89.5
q0 19 -12.5 35t-27 26.5t-24.5 30t-5 43.5q6 33 33.5 52.5t66.5 19.5z" />
    <glyph glyph-name="uni0146" unicode="&#x146;" horiz-adv-x="1210" 
d="M430 0h-493l6 31l145 63l164 844l-121 66l6 30l348 41h41l-30 -153q152 186 354 186q60 0 110.5 -17t89.5 -52t54 -96.5t0 -141.5l-137 -707l120 -63l-6 -31h-493l6 31l125 63l117 604q33 155 15 230.5t-99 75.5q-140 0 -277 -189l-139 -721l100 -63zM463 -102
q47 0 74.5 -25.5t27.5 -67.5q0 -64 -60 -150.5t-151 -154.5h-32q45 45 77.5 101.5t32.5 89.5q0 19 -13 35t-27.5 26.5t-24.5 30t-5 43.5q6 33 34 52.5t67 19.5z" />
    <glyph glyph-name="Ncaron" unicode="&#x147;" horiz-adv-x="1447" 
d="M909 1659q-47 0 -74 57.5t-90 267.5q-12 39 -18 60h37l172 -240q45 40 134 120t134 120h37q-178 -257 -212 -300q-60 -74 -101 -83q-9 -2 -19 -2zM362 0h-399l6 31l170 82l262 1347l-141 66l6 30h269l618 -1001l176 905l-141 66l6 30h399l-6 -30l-166 -66l-284 -1460h-72
l-651 1042l-181 -929l136 -82z" />
    <glyph glyph-name="ncaron" unicode="&#x148;" horiz-adv-x="1210" 
d="M778 1178q-47 0 -74 57.5t-90 267.5q-12 39 -18 60h37l172 -240q45 40 134 120t134 120h37q-178 -257 -212 -300q-60 -74 -101 -83q-9 -2 -19 -2zM430 0h-493l6 31l145 63l164 844l-121 66l6 30l348 41h41l-30 -153q152 186 354 186q60 0 110.5 -17t89.5 -52t54 -96.5
t0 -141.5l-137 -707l120 -63l-6 -31h-493l6 31l125 63l117 604q33 155 15 230.5t-99 75.5q-140 0 -277 -189l-139 -721l100 -63z" />
    <glyph glyph-name="Eng" unicode="&#x14a;" horiz-adv-x="1447" 
d="M631 -424q-137 0 -223 44.5t-156 143.5l291 416h37q-43 -87 -64 -133.5t-40 -111.5t-19 -119q0 -81 39 -120.5t106 -39.5q89 0 146.5 89t99.5 302l45 227l-479 768l-181 -929l136 -82l-7 -31h-399l6 31l170 82l262 1347l-141 66l6 30h269l618 -1001l176 905l-141 66l6 30
h399l-6 -30l-166 -66l-284 -1460q-18 -91 -51.5 -163t-91 -133t-150 -94.5t-213.5 -33.5z" />
    <glyph glyph-name="eng" unicode="&#x14b;" horiz-adv-x="1169" 
d="M467 -424l-150 254l48 37q54 -67 109.5 -106.5t86.5 -39.5q36 0 70 47t49 123l156 807q32 170 12.5 238t-96.5 68q-140 0 -277 -189l-139 -721l100 -63l-6 -31h-493l6 31l145 63l164 844l-121 66l6 30l348 41h41l-30 -153q152 186 354 186q60 0 110.5 -17t89.5 -52
t54 -96.5t0 -141.5l-100 -514q-44 -224 -134 -396q-80 -149 -185 -232t-218 -83z" />
    <glyph glyph-name="Omacron" unicode="&#x14c;" horiz-adv-x="1626" 
d="M1346 1735h-580l22 118h580zM678 -23q-252 0 -414 170.5t-162 442.5q0 188 77.5 369t203.5 315t295.5 216.5t345.5 82.5q258 0 426 -173.5t168 -443.5q0 -123 -36.5 -246.5t-100.5 -230.5t-153.5 -200.5t-192.5 -159.5t-221.5 -104t-235.5 -38zM774 53q135 0 249 133.5
t180.5 362.5t66.5 498q0 222 -79 336t-228 114q-101 0 -197.5 -78.5t-167 -207.5t-113.5 -303.5t-43 -358.5q0 -238 91.5 -367t240.5 -129z" />
    <glyph glyph-name="omacron" unicode="&#x14d;" horiz-adv-x="1214" 
d="M1044 1253h-579l22 119h580zM500 -23q-95 0 -171.5 27t-126.5 72t-83.5 106t-47.5 125t-14 133q0 125 49.5 245t135 214t212.5 151.5t271 57.5q121 0 210 -37t138 -100t71.5 -134.5t22.5 -152.5q0 -95 -30 -194.5t-89 -190.5t-138.5 -163.5t-186 -115.5t-223.5 -43z
M545 61q82 0 165 97t136 248t53 299q0 142 -53.5 230.5t-155.5 88.5q-96 0 -183 -82.5t-138.5 -219t-51.5 -288.5q0 -160 60 -266.5t168 -106.5z" />
    <glyph glyph-name="Ohungarumlaut" unicode="&#x150;" horiz-adv-x="1626" 
d="M856 1659h-27q122 178 227 281.5t167 103.5q22 0 39.5 -13t17.5 -32q0 -42 -117.5 -135t-306.5 -205zM1126 1659h-26q123 179 227.5 282t165.5 103q23 0 40 -12.5t17 -32.5q0 -42 -117.5 -135t-306.5 -205zM678 -23q-252 0 -414 170.5t-162 442.5q0 188 77.5 369
t203.5 315t295.5 216.5t345.5 82.5q258 0 426 -173.5t168 -443.5q0 -123 -36.5 -246.5t-100.5 -230.5t-153.5 -200.5t-192.5 -159.5t-221.5 -104t-235.5 -38zM774 53q135 0 249 133.5t180.5 362.5t66.5 498q0 222 -79 336t-228 114q-101 0 -197.5 -78.5t-167 -207.5
t-113.5 -303.5t-43 -358.5q0 -238 91.5 -367t240.5 -129z" />
    <glyph glyph-name="ohungarumlaut" unicode="&#x151;" horiz-adv-x="1214" 
d="M555 1178h-27q122 178 227 281.5t167 103.5q22 0 39.5 -13t17.5 -32q0 -42 -117.5 -135t-306.5 -205zM825 1178h-26q123 179 227.5 282t165.5 103q23 0 40 -12.5t17 -32.5q0 -42 -117.5 -135t-306.5 -205zM500 -23q-95 0 -171.5 27t-126.5 72t-83.5 106t-47.5 125
t-14 133q0 125 49.5 245t135 214t212.5 151.5t271 57.5q121 0 210 -37t138 -100t71.5 -134.5t22.5 -152.5q0 -95 -30 -194.5t-89 -190.5t-138.5 -163.5t-186 -115.5t-223.5 -43zM545 61q82 0 165 97t136 248t53 299q0 142 -53.5 230.5t-155.5 88.5q-96 0 -183 -82.5
t-138.5 -219t-51.5 -288.5q0 -160 60 -266.5t168 -106.5z" />
    <glyph glyph-name="OE" unicode="&#x152;" horiz-adv-x="2121" 
d="M678 -23q-253 0 -414.5 170.5t-161.5 442.5q0 188 77.5 369t203.5 315t295.5 216.5t345.5 82.5q169 0 309 -80l13 63h839l8 -317h-41l-131 221h-399l-115 -592h236l106 174h62l-88 -448h-62l-37 174h-235l-127 -655h420l213 204h41l-133 -317h-861l15 76
q-190 -99 -379 -99zM774 53q198 0 322 219l170 873q-17 170 -99 261t-204 91q-103 0 -200 -77.5t-167.5 -206t-113 -305t-42.5 -365.5q0 -236 91.5 -363t242.5 -127z" />
    <glyph glyph-name="oe" unicode="&#x153;" horiz-adv-x="1929" 
d="M500 -23q-95 0 -171.5 27t-126.5 72t-83.5 106t-47.5 125t-14 133q0 125 49.5 245t135 214t212.5 151.5t271 57.5q257 0 371 -166q174 166 411 166q199 0 304 -111.5t63 -320.5l-16 -80h-697l-6 -31q-45 -228 23.5 -366t220.5 -138q116 0 230.5 80.5t201.5 218.5h51
q-90 -170 -252 -276.5t-344 -106.5q-118 0 -208.5 47.5t-143.5 133.5q-181 -181 -434 -181zM545 61q84 0 167 95.5t135 247t52 305.5q0 143 -54.5 229t-154.5 86q-95 0 -181 -81t-138 -215.5t-52 -281.5q0 -162 63.5 -273.5t162.5 -111.5zM1176 674h436q31 155 -6 248.5
t-133 93.5q-99 0 -183 -95t-114 -247z" />
    <glyph glyph-name="Racute" unicode="&#x154;" horiz-adv-x="1466" 
d="M827 1659h-26q122 178 226.5 281.5t166.5 103.5q22 0 39.5 -13t17.5 -32q0 -42 -117.5 -135t-306.5 -205zM567 0h-604l6 31l170 82l262 1347l-141 66l6 30h695q87 0 168 -20.5t147.5 -60t106.5 -105t40 -147.5q0 -152 -126.5 -280t-335.5 -183l274 -647l188 -82l-6 -31
h-645l6 31l158 59l-268 637h-113l-119 -614l137 -82zM696 1454l-121 -625h132q189 0 309.5 110.5t120.5 272.5q0 50 -13.5 89.5t-32.5 64.5t-50 43t-55.5 26.5t-60 13t-53.5 5t-45 0.5h-131z" />
    <glyph glyph-name="racute" unicode="&#x155;" horiz-adv-x="851" 
d="M520 1178h-26q122 178 226.5 281.5t166.5 103.5q22 0 39.5 -13t17.5 -32q0 -42 -117.5 -135t-306.5 -205zM451 0h-514l6 31l145 61l164 846l-121 66l6 30l369 41h20l-43 -223h2q22 35 39 60.5t49.5 65.5t62.5 65.5t71 45t81 19.5q27 0 50 -8.5t36.5 -20t25 -28.5
t16.5 -29.5t10 -27.5t6 -17l-189 -354h-41q1 5 12 42.5t19 66.5t15.5 66t7.5 58q0 68 -58 68q-106 0 -241 -207l-121 -623l121 -63z" />
    <glyph glyph-name="uni0156" unicode="&#x156;" horiz-adv-x="1466" 
d="M567 0h-604l6 31l170 82l262 1347l-141 66l6 30h695q87 0 168 -20.5t147.5 -60t106.5 -105t40 -147.5q0 -152 -126.5 -280t-335.5 -183l274 -647l188 -82l-6 -31h-645l6 31l158 59l-268 637h-113l-119 -614l137 -82zM696 1454l-121 -625h132q189 0 309.5 110.5
t120.5 272.5q0 50 -13.5 89.5t-32.5 64.5t-50 43t-55.5 26.5t-60 13t-53.5 5t-45 0.5h-131zM645 -102q47 0 75 -25.5t28 -67.5q0 -64 -60 -150.5t-151 -154.5h-33q45 45 77.5 101.5t32.5 89.5q0 19 -12.5 35t-27 26.5t-24.5 30t-5 43.5q6 33 33.5 52.5t66.5 19.5z" />
    <glyph glyph-name="uni0157" unicode="&#x157;" horiz-adv-x="851" 
d="M451 0h-514l6 31l145 61l164 846l-121 66l6 30l369 41h20l-43 -223h2q22 35 39 60.5t49.5 65.5t62.5 65.5t71 45t81 19.5q27 0 50 -8.5t36.5 -20t25 -28.5t16.5 -29.5t10 -27.5t6 -17l-189 -354h-41q1 5 12 42.5t19 66.5t15.5 66t7.5 58q0 68 -58 68q-106 0 -241 -207
l-121 -623l121 -63zM162 -102q47 0 74.5 -25.5t27.5 -67.5q0 -64 -60 -150.5t-151 -154.5h-33q45 45 78 101.5t33 89.5q0 19 -13 35t-27.5 26.5t-24.5 30t-5 43.5q6 33 34 52.5t67 19.5z" />
    <glyph glyph-name="Rcaron" unicode="&#x158;" horiz-adv-x="1466" 
d="M870 1659q-47 0 -74 57.5t-90 267.5q-12 39 -18 60h37l172 -240q45 40 134 120t134 120h37q-178 -257 -212 -300q-60 -74 -101 -83q-9 -2 -19 -2zM567 0h-604l6 31l170 82l262 1347l-141 66l6 30h695q87 0 168 -20.5t147.5 -60t106.5 -105t40 -147.5q0 -152 -126.5 -280
t-335.5 -183l274 -647l188 -82l-6 -31h-645l6 31l158 59l-268 637h-113l-119 -614l137 -82zM696 1454l-121 -625h132q189 0 309.5 110.5t120.5 272.5q0 50 -13.5 89.5t-32.5 64.5t-50 43t-55.5 26.5t-60 13t-53.5 5t-45 0.5h-131z" />
    <glyph glyph-name="rcaron" unicode="&#x159;" horiz-adv-x="851" 
d="M563 1178q-47 0 -74 57.5t-90 267.5q-12 39 -18 60h37l172 -240q45 40 134 120t134 120h37q-178 -257 -212 -300q-60 -74 -101 -83q-9 -2 -19 -2zM451 0h-514l6 31l145 61l164 846l-121 66l6 30l369 41h20l-43 -223h2q22 35 39 60.5t49.5 65.5t62.5 65.5t71 45t81 19.5
q27 0 50 -8.5t36.5 -20t25 -28.5t16.5 -29.5t10 -27.5t6 -17l-189 -354h-41q1 5 12 42.5t19 66.5t15.5 66t7.5 58q0 68 -58 68q-106 0 -241 -207l-121 -623l121 -63z" />
    <glyph glyph-name="Sacute" unicode="&#x15a;" horiz-adv-x="1296" 
d="M815 1659h-27q122 178 227 281.5t167 103.5q22 0 39.5 -13t17.5 -32q0 -42 -117.5 -135t-306.5 -205zM537 -23q-323 0 -527 240l232 399h61q-67 -223 -67 -307q0 -126 82 -188t219 -62q213 0 328.5 77t115.5 218q0 81 -81 129q-56 34 -234 88h-1h-1l-1 1h-1h-1l-1 1h-1
h-1l-1 1h-1h-1l-1 1h-1h-1h-1l-1 1h-2l-32 10l-26 8q-350 108 -350 403q0 163 78.5 295t216.5 206.5t309 74.5q156 0 285.5 -57t177.5 -109l-193 -383h-61q41 160 41 227q0 125 -74 188.5t-207 63.5q-154 0 -257 -78t-103 -198q0 -35 12 -64.5t38 -53t53.5 -42t71.5 -36
t79 -29t88 -27.5l20 -6q50 -15 83 -26t78 -29.5t74 -37t61 -47t50.5 -60.5t30.5 -76t12 -95q0 -270 -188 -445.5t-479 -175.5z" />
    <glyph glyph-name="sacute" unicode="&#x15b;" horiz-adv-x="937" 
d="M553 1178h-27q122 178 227 281.5t167 103.5q22 0 39.5 -13t17.5 -32q0 -42 -117.5 -135t-306.5 -205zM358 -23q-131 0 -226.5 47t-127.5 140l123 233h70q-31 -103 -31 -159q0 -170 217 -170q122 0 194 52.5t72 133.5q0 52 -55.5 85t-177.5 64q-33 9 -63.5 20.5t-71.5 36
t-70.5 55t-50.5 80t-21 107.5q0 173 126 289.5t313 116.5q107 0 190 -39t125 -106l-115 -246h-51q29 150 -24.5 228.5t-163.5 78.5q-97 0 -162.5 -51t-65.5 -127q0 -28 14 -51.5t33 -40t56 -34t65.5 -27.5t79.5 -27q46 -15 66 -22.5t57 -22.5t54 -26t41 -30t34.5 -38.5
t18.5 -47t8 -59.5q0 -195 -134.5 -319t-345.5 -124z" />
    <glyph glyph-name="Scedilla" unicode="&#x15e;" horiz-adv-x="1296" 
d="M795 975l20 -6q50 -15 83 -26t78 -29.5t74 -37t61 -47t50.5 -60.5t30.5 -76t12 -95q0 -174 -81.5 -314t-228.5 -221t-333 -86l-74 -94q71 0 111.5 -33t40.5 -81q0 -65 -61.5 -126t-157.5 -61q-57 0 -111 35l6 31q47 -21 93 -21q131 0 131 103q0 39 -33 65.5t-98 26.5
l8 39l90 116q-301 11 -496 240l232 399h61q-67 -223 -67 -307q0 -126 82 -188t219 -62q213 0 328.5 77t115.5 218q0 81 -81 129q-56 34 -234 88h-1h-1l-1 1h-1h-1l-1 1h-1h-1l-1 1h-1h-1l-1 1h-1h-1h-1l-1 1h-2l-32 10l-26 8q-350 108 -350 403q0 163 78.5 295t216.5 206.5
t309 74.5q156 0 285.5 -57t177.5 -109l-193 -383h-61q41 160 41 227q0 125 -74 188.5t-207 63.5q-154 0 -257 -78t-103 -198q0 -35 12 -64.5t38 -53t53.5 -42t71.5 -36t79 -29t88 -27.5z" />
    <glyph glyph-name="scedilla" unicode="&#x15f;" horiz-adv-x="937" 
d="M559 666q46 -15 66 -22.5t57 -22.5t54 -26t41 -30t34.5 -38.5t18.5 -47t8 -59.5q0 -187 -124 -309.5t-321 -133.5l-74 -94q71 0 111.5 -33t40.5 -81q0 -65 -61.5 -126t-157.5 -61q-57 0 -111 35l6 31q46 -21 93 -21q131 0 131 103q0 39 -33 65.5t-98 26.5l8 39l90 116
q-124 3 -213.5 50.5t-120.5 136.5l123 233h70q-31 -103 -31 -159q0 -170 217 -170q122 0 194 52.5t72 133.5q0 52 -55.5 85t-177.5 64q-33 9 -63.5 20.5t-71.5 36t-70.5 55t-50.5 80t-21 107.5q0 173 126 289.5t313 116.5q107 0 190 -39t125 -106l-115 -246h-51
q29 150 -24.5 228.5t-163.5 78.5q-97 0 -162.5 -51t-65.5 -127q0 -28 14 -51.5t33 -40t56 -34t65.5 -27.5t79.5 -27z" />
    <glyph glyph-name="Scaron" unicode="&#x160;" horiz-adv-x="1296" 
d="M858 1659q-47 0 -74 57.5t-90 267.5q-12 39 -18 60h37l172 -240q45 40 134 120t134 120h37q-178 -257 -212 -300q-60 -74 -101 -83q-9 -2 -19 -2zM537 -23q-323 0 -527 240l232 399h61q-67 -223 -67 -307q0 -126 82 -188t219 -62q213 0 328.5 77t115.5 218q0 81 -81 129
q-56 34 -234 88h-1h-1l-1 1h-1h-1l-1 1h-1h-1l-1 1h-1h-1l-1 1h-1h-1h-1l-1 1h-2l-32 10l-26 8q-350 108 -350 403q0 163 78.5 295t216.5 206.5t309 74.5q156 0 285.5 -57t177.5 -109l-193 -383h-61q41 160 41 227q0 125 -74 188.5t-207 63.5q-154 0 -257 -78t-103 -198
q0 -35 12 -64.5t38 -53t53.5 -42t71.5 -36t79 -29t88 -27.5l20 -6q50 -15 83 -26t78 -29.5t74 -37t61 -47t50.5 -60.5t30.5 -76t12 -95q0 -270 -188 -445.5t-479 -175.5z" />
    <glyph glyph-name="scaron" unicode="&#x161;" horiz-adv-x="937" 
d="M596 1178q-47 0 -74 57.5t-90 267.5q-12 39 -18 60h37l172 -240q45 40 134 120t134 120h37q-178 -257 -212 -300q-60 -74 -101 -83q-9 -2 -19 -2zM358 -23q-131 0 -226.5 47t-127.5 140l123 233h70q-31 -103 -31 -159q0 -170 217 -170q122 0 194 52.5t72 133.5
q0 52 -55.5 85t-177.5 64q-33 9 -63.5 20.5t-71.5 36t-70.5 55t-50.5 80t-21 107.5q0 173 126 289.5t313 116.5q107 0 190 -39t125 -106l-115 -246h-51q29 150 -24.5 228.5t-163.5 78.5q-97 0 -162.5 -51t-65.5 -127q0 -28 14 -51.5t33 -40t56 -34t65.5 -27.5t79.5 -27
q46 -15 66 -22.5t57 -22.5t54 -26t41 -30t34.5 -38.5t18.5 -47t8 -59.5q0 -195 -134.5 -319t-345.5 -124z" />
    <glyph glyph-name="uni0162" unicode="&#x162;" horiz-adv-x="1339" 
d="M279 1556h1177l10 -317h-51l-110 221h-308l-262 -1347l137 -82l-6 -31h-258l-90 -117q71 0 111.5 -33t40.5 -81q0 -65 -61.5 -126t-157.5 -61q-57 0 -111 35l6 31q46 -21 92 -21q131 0 131 103q0 39 -33 65.5t-98 26.5l8 39l107 139h-291l6 31l170 82l262 1347h-307
l-196 -221h-52z" />
    <glyph glyph-name="uni0163" unicode="&#x163;" horiz-adv-x="700" 
d="M721 973h-229l-142 -727q-15 -77 10.5 -125.5t75.5 -48.5q32 0 69 23t66 61h66q-60 -80 -153.5 -129.5t-182.5 -49.5h-18l-74 -94q71 0 111 -33t40 -81q0 -65 -61.5 -126t-157.5 -61q-56 0 -110 35l6 31q46 -21 92 -21q131 0 131 103q0 39 -33 65.5t-98 26.5l8 39l96 125
q-79 23 -111.5 99.5t-10.5 190.5l135 697h-156l12 61l205 41l191 348h82l-68 -348h229z" />
    <glyph glyph-name="Tcaron" unicode="&#x164;" horiz-adv-x="1339" 
d="M889 1659q-47 0 -74 57.5t-90 267.5q-12 39 -18 60h36l172 -240q45 40 134.5 120t134.5 120h37q-178 -257 -212 -300q-60 -74 -101 -83q-9 -2 -19 -2zM866 0h-604l6 31l170 82l262 1347h-307l-196 -221h-52l134 317h1177l10 -317h-51l-110 221h-308l-262 -1347l137 -82z
" />
    <glyph glyph-name="tcaron" unicode="&#x165;" horiz-adv-x="710" 
d="M807 1065h-41q61 52 99 119t38 127q0 41 -13 80.5t-34 62.5q10 54 47 85.5t88 31.5q39 0 62.5 -23.5t23.5 -68.5q0 -77 -75 -200t-195 -214zM301 -23q-115 0 -165.5 81.5t-24.5 217.5l135 697h-156l12 61l205 41l191 348h82l-68 -348h229l-20 -102h-229l-142 -727
q-15 -77 10.5 -125.5t75.5 -48.5q32 0 69 23t66 61h66q-60 -80 -153.5 -129.5t-182.5 -49.5z" />
    <glyph glyph-name="Tbar" unicode="&#x166;" horiz-adv-x="1341" 
d="M279 1556h1177l10 -317h-51l-110 221h-308l-123 -631h173l-21 -102h-172l-119 -614l137 -82l-6 -31h-604l6 31l170 82l119 614h-172l21 102h172l122 631h-307l-196 -221h-52z" />
    <glyph glyph-name="tbar" unicode="&#x167;" horiz-adv-x="714" 
d="M745 1075l-20 -102h-229l-74 -383h272l-20 -103h-273l-47 -241q-15 -77 10.5 -125.5t75.5 -48.5q32 0 69 23t66 61h66q-60 -80 -153.5 -129.5t-182.5 -49.5q-115 0 -165.5 81.5t-24.5 217.5l41 211h-123l20 103h123l74 383h-156l12 61l205 41l191 348h82l-68 -348h229z
" />
    <glyph glyph-name="Umacron" unicode="&#x16a;" horiz-adv-x="1519" 
d="M1354 1735h-580l23 118h579zM666 -23q-139 0 -236.5 33t-150 87t-74.5 135.5t-19 165.5t23 190l170 872l-141 66l6 30h604l-6 -30l-166 -66l-141 -729q-18 -93 -29.5 -163t-18 -143t-3.5 -125t15.5 -99.5t37 -76.5t64.5 -46t95 -17q157 0 262.5 49.5t176 165.5t108.5 312
l170 872l-141 66l6 30h399l-6 -30l-166 -66l-170 -872q-22 -115 -56 -205.5t-87.5 -168.5t-125.5 -129t-173 -79.5t-227 -28.5z" />
    <glyph glyph-name="umacron" unicode="&#x16b;" 
d="M991 1253h-579l22 119h580zM338 -33q-130 0 -197 74t-37 233l129 664l-120 66l6 30l348 41h41l-148 -760q-14 -75 -15.5 -124.5t9.5 -74.5t28 -34.5t44 -9.5q78 0 137 49.5t137 179.5l123 637l-121 66l7 30l348 41h41l-183 -938l121 -65l-6 -31l-348 -41h-41l33 174
q-127 -207 -336 -207z" />
    <glyph glyph-name="Uring" unicode="&#x16e;" horiz-adv-x="1519" 
d="M1042 1665q-68 0 -111.5 47.5t-43.5 114.5q0 85 71 151t158 66q67 0 111.5 -46.5t44.5 -113.5q0 -85 -72 -152t-158 -67zM1059 1745q48 0 89.5 38.5t41.5 88.5q0 40 -25 66t-63 26q-53 0 -94 -37.5t-41 -87.5q0 -39 26 -66.5t66 -27.5zM666 -23q-139 0 -236.5 33t-150 87
t-74.5 135.5t-19 165.5t23 190l170 872l-141 66l6 30h604l-6 -30l-166 -66l-141 -729q-18 -93 -29.5 -163t-18 -143t-3.5 -125t15.5 -99.5t37 -76.5t64.5 -46t95 -17q157 0 262.5 49.5t176 165.5t108.5 312l170 872l-141 66l6 30h399l-6 -30l-166 -66l-170 -872
q-22 -115 -56 -205.5t-87.5 -168.5t-125.5 -129t-173 -79.5t-227 -28.5z" />
    <glyph glyph-name="uring" unicode="&#x16f;" 
d="M680 1184q-68 0 -112 47.5t-44 114.5q0 85 71.5 151t158.5 66q67 0 111 -46.5t44 -113.5q0 -85 -71.5 -152t-157.5 -67zM696 1264q48 0 89.5 38.5t41.5 88.5q0 40 -25 66t-63 26q-53 0 -94 -37.5t-41 -87.5q0 -39 26 -66.5t66 -27.5zM338 -33q-130 0 -197 74t-37 233
l129 664l-120 66l6 30l348 41h41l-148 -760q-14 -75 -15.5 -124.5t9.5 -74.5t28 -34.5t44 -9.5q78 0 137 49.5t137 179.5l123 637l-121 66l7 30l348 41h41l-183 -938l121 -65l-6 -31l-348 -41h-41l33 174q-127 -207 -336 -207z" />
    <glyph glyph-name="Uhungarumlaut" unicode="&#x170;" horiz-adv-x="1519" 
d="M864 1659h-26q122 178 226.5 281.5t166.5 103.5q22 0 39.5 -13t17.5 -32q0 -42 -117.5 -135t-306.5 -205zM1135 1659h-27q123 179 227.5 282t165.5 103q23 0 40.5 -13t17.5 -32q0 -42 -117.5 -135t-306.5 -205zM666 -23q-139 0 -236.5 33t-150 87t-74.5 135.5t-19 165.5
t23 190l170 872l-141 66l6 30h604l-6 -30l-166 -66l-141 -729q-18 -93 -29.5 -163t-18 -143t-3.5 -125t15.5 -99.5t37 -76.5t64.5 -46t95 -17q157 0 262.5 49.5t176 165.5t108.5 312l170 872l-141 66l6 30h399l-6 -30l-166 -66l-170 -872q-22 -115 -56 -205.5t-87.5 -168.5
t-125.5 -129t-173 -79.5t-227 -28.5z" />
    <glyph glyph-name="uhungarumlaut" unicode="&#x171;" 
d="M502 1178h-27q122 178 226.5 281.5t166.5 103.5q22 0 40 -13t18 -32q0 -42 -117.5 -135t-306.5 -205zM772 1178h-27q122 178 227.5 281.5t166.5 103.5q23 0 40 -12.5t17 -32.5q0 -42 -117.5 -135t-306.5 -205zM338 -33q-130 0 -197 74t-37 233l129 664l-120 66l6 30
l348 41h41l-148 -760q-14 -75 -15.5 -124.5t9.5 -74.5t28 -34.5t44 -9.5q78 0 137 49.5t137 179.5l123 637l-121 66l7 30l348 41h41l-183 -938l121 -65l-6 -31l-348 -41h-41l33 174q-127 -207 -336 -207z" />
    <glyph glyph-name="Uogonek" unicode="&#x172;" horiz-adv-x="1519" 
d="M1272 1526l6 30h399l-6 -30l-166 -66l-170 -872q-26 -131 -66.5 -230.5t-105 -180.5t-160 -129.5t-221.5 -63.5q-159 -128 -159 -246q0 -40 19.5 -59t47.5 -19q52 0 103 57h51q-104 -131 -226 -131q-58 0 -95.5 31.5t-37.5 85.5q0 125 220 274h-39q-139 0 -236.5 33
t-150 87t-74.5 135.5t-19 165.5t23 190l170 872l-141 66l6 30h604l-6 -30l-166 -66l-141 -729q-18 -93 -29.5 -163t-18 -143t-3.5 -125t15.5 -99.5t37 -76.5t64.5 -46t95 -17q157 0 262.5 49.5t176 165.5t108.5 312l170 872z" />
    <glyph glyph-name="uogonek" unicode="&#x173;" 
d="M1057 1075h41l-183 -938l121 -65l-6 -31l-340 -41q-180 -140 -180 -262q0 -40 20 -59t48 -19q51 0 102 57h51q-104 -131 -225 -131q-58 0 -95.5 31.5t-37.5 85.5q0 29 11.5 59.5t33.5 58.5t43.5 51.5t53 48.5t50 39t47 33l31.5 21l31 160q-127 -207 -336 -207
q-130 0 -197 74t-37 233l129 664l-120 66l6 30l348 41h41l-148 -760q-14 -75 -15.5 -124.5t9.5 -74.5t28 -34.5t44 -9.5q78 0 137 49.5t137 179.5l123 637l-121 66l7 30z" />
    <glyph glyph-name="Wcircumflex" unicode="&#x174;" horiz-adv-x="2045" 
d="M1147 1618h-37q178 257 212 300q60 74 101 83q9 2 19 2q47 0 74 -57.5t90 -267.5q12 -39 18 -60h-37l-172 240q-45 -40 -134 -120t-134 -120zM565 0h-69l-211 1432l-152 94l6 30h625l-6 -30l-140 -66l140 -930l491 1026h195l153 -1026l451 930l-184 66l6 30h399l-6 -30
l-137 -68l-721 -1458h-70l-178 1208z" />
    <glyph glyph-name="wcircumflex" unicode="&#x175;" horiz-adv-x="1716" 
d="M842 1137h-37q178 257 212 300q60 74 101 83q9 2 19 2q47 0 74 -57.5t90 -267.5q12 -39 18 -60h-37l-172 239q-45 -40 -134 -119.5t-134 -119.5zM510 0h-164l-125 983l-147 61l6 31h543l-7 -31l-124 -45l100 -680l342 756h227l105 -756l309 687l-139 38l6 31h399l-6 -31
l-184 -43l-467 -1001h-164l-109 860z" />
    <glyph glyph-name="Ycircumflex" unicode="&#x176;" horiz-adv-x="1368" 
d="M735 1618h-37q178 257 212 300q60 74 101 83q9 2 19 2q47 0 74 -57.5t90 -267.5q12 -39 18 -60h-36l-172 240q-45 -40 -134.5 -120t-134.5 -120zM891 0h-604l6 31l170 82l90 462l-252 885l-158 66l7 30h624l-6 -30l-152 -47l211 -817l516 806l-172 58l7 30h419l-6 -30
l-174 -72l-565 -866l-92 -475l137 -82z" />
    <glyph glyph-name="ycircumflex" unicode="&#x177;" horiz-adv-x="1150" 
d="M524 1137h-37q178 257 212 300q60 74 101 83q9 2 19 2q47 0 74 -57.5t90 -267.5q12 -39 18 -60h-36l-172 239q-45 -40 -134.5 -119.5t-134.5 -119.5zM45 -424l-207 254l47 37q48 -40 75.5 -60t68 -39.5t75.5 -19.5q58 0 126.5 42.5t119.5 106.5t62 123l-197 979l-141 45
l6 31h543l-7 -31l-147 -45l147 -729l410 736l-139 38l6 31h399l-6 -31l-184 -45l-475 -858q-51 -92 -119.5 -186.5t-147.5 -181.5t-163 -142t-152 -55z" />
    <glyph glyph-name="Ydieresis" unicode="&#x178;" horiz-adv-x="1368" 
d="M760 1659q-52 0 -82.5 29t-30.5 77q0 66 50 116t116 50q52 0 82.5 -30t30.5 -78q0 -65 -49 -114.5t-117 -49.5zM1151 1659q-52 0 -82.5 29t-30.5 77q0 66 50 116t116 50q52 0 82.5 -30t30.5 -78q0 -65 -49 -114.5t-117 -49.5zM891 0h-604l6 31l170 82l90 462l-252 885
l-158 66l7 30h624l-6 -30l-152 -47l211 -817l516 806l-172 58l7 30h419l-6 -30l-174 -72l-565 -866l-92 -475l137 -82z" />
    <glyph glyph-name="Zacute" unicode="&#x179;" horiz-adv-x="1122" 
d="M729 1659h-27q122 178 227 281.5t167 103.5q22 0 39.5 -13t17.5 -32q0 -42 -117.5 -135t-306.5 -205zM920 0h-963l4 72l909 1388h-403l-219 -231h-41l135 327h860l-2 -55l-899 -1388h498l213 204h41z" />
    <glyph glyph-name="zacute" unicode="&#x17a;" horiz-adv-x="940" 
d="M559 1178h-27q122 178 227 281.5t167 103.5q22 0 39.5 -13t17.5 -32q0 -42 -117.5 -135t-306.5 -205zM725 0h-768l-2 41l676 952h-242l-201 -245h-61l135 327h686l2 -41l-676 -952h324l199 235h61z" />
    <glyph glyph-name="Zdotaccent" unicode="&#x17b;" horiz-adv-x="1122" 
d="M780 1655q-58 0 -91.5 33.5t-33.5 87.5q0 72 54.5 124t130.5 52q55 0 88 -35t33 -90q0 -72 -53.5 -122t-127.5 -50zM920 0h-963l4 72l909 1388h-403l-219 -231h-41l135 327h860l-2 -55l-899 -1388h498l213 204h41z" />
    <glyph glyph-name="zdotaccent" unicode="&#x17c;" horiz-adv-x="940" 
d="M610 1174q-58 0 -91.5 33.5t-33.5 86.5q0 72 54.5 124t130.5 52q55 0 88 -34.5t33 -89.5q0 -72 -53.5 -122t-127.5 -50zM725 0h-768l-2 41l676 952h-242l-201 -245h-61l135 327h686l2 -41l-676 -952h324l199 235h61z" />
    <glyph glyph-name="Zcaron" unicode="&#x17d;" horiz-adv-x="1122" 
d="M772 1659q-47 0 -74 57.5t-90 267.5q-12 39 -18 60h37l172 -240q45 40 134 120t134 120h37q-178 -257 -212 -300q-60 -74 -101 -83q-9 -2 -19 -2zM920 0h-963l4 72l909 1388h-403l-219 -231h-41l135 327h860l-2 -55l-899 -1388h498l213 204h41z" />
    <glyph glyph-name="zcaron" unicode="&#x17e;" horiz-adv-x="940" 
d="M602 1178q-47 0 -74 57.5t-90 267.5q-12 39 -18 60h37l172 -240q45 40 134 120t134 120h37q-178 -257 -212 -300q-60 -74 -101 -83q-9 -2 -19 -2zM725 0h-768l-2 41l676 952h-242l-201 -245h-61l135 327h686l2 -41l-676 -952h324l199 235h61z" />
    <glyph glyph-name="uni018F" unicode="&#x18f;" horiz-adv-x="1558" 
d="M895 1573q290 0 471.5 -175t181.5 -452q0 -119 -34 -240t-93.5 -227t-145 -199t-185 -159.5t-216 -105t-235.5 -38.5q-247 0 -401 156t-154 410q0 147 45 266h1055q16 131 16 238q0 223 -80.5 336.5t-236.5 113.5q-193 0 -345.5 -153t-201.5 -402h-62l88 455
q79 79 222.5 127.5t310.5 48.5zM713 53q72 0 136 36.5t113.5 98t90 146t68.5 177.5t46 196h-727q-18 -117 -18 -215q0 -212 78.5 -325.5t212.5 -113.5z" />
    <glyph glyph-name="florin" unicode="&#x192;" horiz-adv-x="987" 
d="M121 -25q-64 0 -104 25t-48 66l80 274h57q-30 -138 -21.5 -215.5t69.5 -77.5q23 0 41.5 5.5t36 23.5t31 40.5t29 67.5t28.5 92t31 128t34.5 160.5t40.5 203.5h-199l25 127h199l22 121q51 271 165 414t263 143q56 0 95.5 -14t60 -38.5t29.5 -46.5t14 -51l-80 -276h-57
q35 163 22 256.5t-88 93.5q-16 0 -29 -5.5t-26 -21.5t-23.5 -36.5t-23 -57.5t-23 -78.5t-25 -106t-27.5 -132t-32 -164.5h205l-25 -127h-204l-25 -123q-64 -321 -197 -495.5t-321 -174.5z" />
    <glyph glyph-name="uni0218" unicode="&#x218;" horiz-adv-x="1296" 
d="M537 -23q-323 0 -527 240l232 399h61q-67 -223 -67 -307q0 -126 82 -188t219 -62q213 0 328.5 77t115.5 218q0 81 -81 129q-56 34 -234 88h-1h-1l-1 1h-1h-1l-1 1h-1h-1l-1 1h-1h-1l-1 1h-1h-1h-1l-1 1h-2l-32 10l-26 8q-350 108 -350 403q0 163 78.5 295t216.5 206.5
t309 74.5q156 0 285.5 -57t177.5 -109l-193 -383h-61q41 160 41 227q0 125 -74 188.5t-207 63.5q-154 0 -257 -78t-103 -198q0 -35 12 -64.5t38 -53t53.5 -42t71.5 -36t79 -29t88 -27.5l20 -6q50 -15 83 -26t78 -29.5t74 -37t61 -47t50.5 -60.5t30.5 -76t12 -95
q0 -270 -188 -445.5t-479 -175.5zM489 -102q47 0 75 -25.5t28 -67.5q0 -64 -60 -150.5t-151 -154.5h-33q45 45 78 101.5t33 89.5q0 19 -13 35t-27.5 26.5t-24.5 30t-5 43.5q6 33 33.5 52.5t66.5 19.5z" />
    <glyph glyph-name="uni0219" unicode="&#x219;" horiz-adv-x="937" 
d="M358 -23q-131 0 -226.5 47t-127.5 140l123 233h70q-31 -103 -31 -159q0 -170 217 -170q122 0 194 52.5t72 133.5q0 52 -55.5 85t-177.5 64q-33 9 -63.5 20.5t-71.5 36t-70.5 55t-50.5 80t-21 107.5q0 173 126 289.5t313 116.5q107 0 190 -39t125 -106l-115 -246h-51
q29 150 -24.5 228.5t-163.5 78.5q-97 0 -162.5 -51t-65.5 -127q0 -28 14 -51.5t33 -40t56 -34t65.5 -27.5t79.5 -27q46 -15 66 -22.5t57 -22.5t54 -26t41 -30t34.5 -38.5t18.5 -47t8 -59.5q0 -195 -134.5 -319t-345.5 -124zM322 -102q47 0 74.5 -25.5t27.5 -67.5
q0 -64 -60 -150.5t-151 -154.5h-33q45 45 78 101.5t33 89.5q0 19 -13 35t-27.5 26.5t-24.5 30t-5 43.5q6 33 34 52.5t67 19.5z" />
    <glyph glyph-name="uni021A" unicode="&#x21a;" horiz-adv-x="1339" 
d="M866 0h-604l6 31l170 82l262 1347h-307l-196 -221h-52l134 317h1177l10 -317h-51l-110 221h-308l-262 -1347l137 -82zM520 -102q47 0 75 -25.5t28 -67.5q0 -64 -60 -150.5t-151 -154.5h-33q45 45 77.5 101.5t32.5 89.5q0 19 -12.5 35t-27 26.5t-24.5 30t-5 43.5
q6 33 33.5 52.5t66.5 19.5z" />
    <glyph glyph-name="uni021B" unicode="&#x21b;" horiz-adv-x="700" 
d="M301 -23q-115 0 -165.5 81.5t-24.5 217.5l135 697h-156l12 61l205 41l191 348h82l-68 -348h229l-20 -102h-229l-142 -727q-15 -77 10.5 -125.5t75.5 -48.5q32 0 69 23t66 61h66q-60 -80 -153.5 -129.5t-182.5 -49.5zM211 -102q47 0 74.5 -25.5t27.5 -67.5
q0 -64 -60 -150.5t-151 -154.5h-32q45 45 77.5 101.5t32.5 89.5q0 19 -12.5 35t-27 26.5t-24.5 30t-5 43.5q6 33 33.5 52.5t66.5 19.5z" />
    <glyph glyph-name="uni0259" unicode="&#x259;" horiz-adv-x="1118" 
d="M641 1055q190 0 302 -112.5t112 -307.5q0 -145 -50 -276.5t-135 -226.5t-202 -151.5t-246 -56.5q-94 0 -170 26.5t-128 80.5t-70.5 135t1.5 190l17 80h696l6 31q45 230 -24 367t-222 137q-115 0 -230 -80.5t-200 -218.5h-51q90 170 250 276.5t344 106.5zM752 358h-437
q-30 -156 7.5 -249t134.5 -93q98 0 182 95.5t113 246.5z" />
    <glyph glyph-name="uni02BC" unicode="&#x2bc;" horiz-adv-x="370" 
d="M221 1065h-41q61 52 99 119t38 127q0 41 -13 80.5t-34 62.5q10 54 47.5 85.5t88.5 31.5q39 0 62.5 -23.5t23.5 -68.5q0 -77 -75.5 -200t-195.5 -214z" />
    <glyph glyph-name="circumflex" unicode="&#x2c6;" horiz-adv-x="657" 
d="M369 1137h-37q178 257 212 300q60 74 101 83q9 2 19 2q47 0 74 -57.5t90 -267.5q12 -39 18 -60h-37l-172 239q-45 -40 -134 -119.5t-134 -119.5z" />
    <glyph glyph-name="caron" unicode="&#x2c7;" horiz-adv-x="657" 
d="M453 1178q-48 0 -75.5 59t-92.5 276q-10 33 -15 50h37l172 -240q45 40 134.5 120t134.5 120h36q-179 -258 -211 -298q-59 -75 -100 -85q-9 -2 -20 -2z" />
    <glyph glyph-name="breve" unicode="&#x2d8;" horiz-adv-x="747" 
d="M670 1178q-52 0 -95 23t-75.5 70t-41 119.5t8.5 172.5h31q-16 -110 36.5 -184t159.5 -74t188 74t107 184h31q-36 -186 -137.5 -285.5t-212.5 -99.5z" />
    <glyph glyph-name="dotaccent" unicode="&#x2d9;" horiz-adv-x="495" 
d="M379 1174q-58 0 -91.5 33.5t-33.5 86.5q0 72 54 124t130 52q55 0 88 -34.5t33 -89.5q0 -72 -53 -122t-127 -50z" />
    <glyph glyph-name="ring" unicode="&#x2da;" horiz-adv-x="561" 
d="M406 1184q-68 0 -112 47.5t-44 114.5q0 85 71 151t158 66q67 0 111.5 -46.5t44.5 -113.5q0 -85 -71.5 -152t-157.5 -67zM422 1264q48 0 89.5 38.5t41.5 88.5q0 40 -25 66t-63 26q-53 0 -94 -37.5t-41 -87.5q0 -39 26 -66.5t66 -27.5z" />
    <glyph glyph-name="ogonek" unicode="&#x2db;" horiz-adv-x="501" 
d="M-104 -424q-59 0 -96.5 31.5t-37.5 85.5q0 43 25 88.5t65 83t76.5 65.5t73.5 52.5t41 27.5h61l-18 -14q-17 -14 -23 -19t-25 -21.5t-28 -26t-26.5 -27.5t-27 -31t-22 -32.5t-19 -36t-11 -36t-4.5 -38.5q0 -40 19.5 -59t47.5 -19q52 0 103 57h51q-104 -131 -225 -131z" />
    <glyph glyph-name="tilde" unicode="&#x2dc;" horiz-adv-x="774" 
d="M434 1208h-47q30 101 87.5 158t139.5 57q34 0 65 -15.5t50.5 -34.5t46.5 -34.5t53 -15.5q42 0 71.5 21t57.5 79h48q-30 -101 -88.5 -158t-141.5 -57q-35 0 -66 16t-50.5 34.5t-46 34.5t-52.5 16q-41 0 -71 -21.5t-56 -79.5z" />
    <glyph glyph-name="hungarumlaut" unicode="&#x2dd;" horiz-adv-x="788" 
d="M350 1178h-26q122 178 226.5 281.5t166.5 103.5q22 0 39.5 -13t17.5 -32q0 -42 -117.5 -135t-306.5 -205zM621 1178h-27q123 179 227.5 282t165.5 103q23 0 40 -12.5t17 -32.5q0 -42 -117.5 -135t-305.5 -205z" />
    <glyph glyph-name="gravecomb" unicode="&#x300;" horiz-adv-x="0" 
d="M57 1178h-26q-126 110 -200.5 196.5t-74.5 126.5q0 62 66 62q54 0 119 -106t116 -279z" />
    <glyph glyph-name="acutecomb" unicode="&#x301;" horiz-adv-x="0" 
d="M-299 1178h-27q122 178 227 281.5t167 103.5q22 0 39.5 -13t17.5 -32q0 -42 -117.5 -135t-306.5 -205z" />
    <glyph glyph-name="uni0302" unicode="&#x302;" horiz-adv-x="0" 
d="M-424 1137h-37q178 257 212 300q60 74 101 83q9 2 19 2q47 0 74 -57.5t90 -267.5q12 -39 18 -60h-37l-172 239q-45 -40 -134 -119.5t-134 -119.5z" />
    <glyph glyph-name="tildecomb" unicode="&#x303;" horiz-adv-x="0" 
d="M-489 1208h-48q30 101 88 158t140 57q34 0 65 -15.5t50.5 -34.5t46.5 -34.5t53 -15.5q42 0 71.5 21t57.5 79h47q-30 -101 -88 -158t-141 -57q-35 0 -66 16t-50.5 34.5t-46 34.5t-52.5 16q-41 0 -71 -21.5t-56 -79.5z" />
    <glyph glyph-name="uni0304" unicode="&#x304;" horiz-adv-x="0" 
d="M14 1253h-579l22 119h580z" />
    <glyph glyph-name="uni0306" unicode="&#x306;" horiz-adv-x="0" 
d="M-250 1178q-52 0 -95 23t-75.5 70t-41 119.5t8.5 172.5h31q-16 -110 37 -184t160 -74t188 74t107 184h30q-36 -186 -137.5 -285.5t-212.5 -99.5z" />
    <glyph glyph-name="uni0307" unicode="&#x307;" horiz-adv-x="0" 
d="M-117 1174q-58 0 -91.5 33.5t-33.5 86.5q0 72 54.5 124t130.5 52q55 0 87.5 -34.5t32.5 -89.5q0 -72 -53 -122t-127 -50z" />
    <glyph glyph-name="uni0308" unicode="&#x308;" horiz-adv-x="0" 
d="M-494 1178q-52 0 -82 29t-30 77q0 66 50 116t116 50q52 0 82 -30.5t30 -78.5q0 -65 -49 -114t-117 -49zM-102 1178q-52 0 -82.5 29t-30.5 77q0 66 50 116t116 50q52 0 82 -30.5t30 -78.5q0 -65 -48.5 -114t-116.5 -49z" />
    <glyph glyph-name="uni030A" unicode="&#x30a;" horiz-adv-x="0" 
d="M-156 1184q-68 0 -111.5 47.5t-43.5 114.5q0 85 71 151t158 66q67 0 111.5 -46.5t44.5 -113.5q0 -85 -72 -152t-158 -67zM-139 1264q48 0 89.5 38.5t41.5 88.5q0 40 -25 66t-63 26q-53 0 -94 -37.5t-41 -87.5q0 -39 26 -66.5t66 -27.5z" />
    <glyph glyph-name="uni030B" unicode="&#x30b;" horiz-adv-x="0" 
d="M-702 1178h-27q122 178 226.5 281.5t166.5 103.5q22 0 39.5 -13t17.5 -32q0 -42 -117.5 -135t-305.5 -205zM-432 1178h-27q123 179 227.5 282t165.5 103q23 0 40.5 -12.5t17.5 -32.5q0 -42 -117.5 -135t-306.5 -205z" />
    <glyph glyph-name="uni030C" unicode="&#x30c;" horiz-adv-x="0" 
d="M-205 1178q-47 0 -74 57.5t-90 267.5q-12 39 -18 60h37l172 -240q45 40 134 120t134 120h37q-178 -257 -212 -300q-60 -74 -101 -83q-9 -2 -19 -2z" />
    <glyph glyph-name="uni0312" unicode="&#x312;" horiz-adv-x="0" 
d="M-59 1200q-47 0 -75 26.5t-28 69.5q0 67 59 150t152 151h33q-49 -46 -80 -100t-31 -88q0 -19 12.5 -36t27 -27.5t24.5 -30t6 -43.5q-7 -34 -34 -53t-66 -19z" />
    <glyph glyph-name="uni0326" unicode="&#x326;" horiz-adv-x="0" 
d="M-190 -102q47 0 74.5 -25.5t27.5 -67.5q0 -64 -60 -150.5t-151 -154.5h-33q45 45 78 101.5t33 89.5q0 19 -13 35t-27.5 26.5t-24.5 30t-5 43.5q6 33 34 52.5t67 19.5z" />
    <glyph glyph-name="uni0327" unicode="&#x327;" horiz-adv-x="0" 
d="M-453 -418q-56 0 -110 35l6 31q47 -21 92 -21q131 0 131 103q0 39 -33 65.5t-98 26.5l8 39l127 166h56l-111 -144q71 0 111.5 -33t40.5 -81q0 -65 -62 -126t-158 -61z" />
    <glyph glyph-name="uni0328" unicode="&#x328;" horiz-adv-x="0" 
d="M-449 -424q-58 0 -95.5 31.5t-37.5 85.5q0 43 25 88.5t65 83t76.5 65.5t73.5 52.5t41 27.5h61l-18 -14q-17 -14 -23 -19t-25 -21.5t-28 -26t-26.5 -27.5t-27 -31t-22 -32.5t-19 -36t-11 -36t-4.5 -38.5q0 -40 19.5 -59t47.5 -19q52 0 103 57h51q-104 -131 -226 -131z" />
    <glyph glyph-name="uni0335" unicode="&#x335;" horiz-adv-x="0" 
d="M-137 524h-641l20 103h641z" />
    <glyph glyph-name="uni0336" unicode="&#x336;" horiz-adv-x="0" 
d="M-137 516h-1501l22 119h1501z" />
    <glyph glyph-name="uni0337" unicode="&#x337;" horiz-adv-x="0" 
d="M-47 739l-584 -270l31 160l584 272z" />
    <glyph glyph-name="uni0338" unicode="&#x338;" horiz-adv-x="0" 
d="M-1278 -143h-156l1334 1593h157z" />
    <glyph glyph-name="uni0394" unicode="&#x394;" horiz-adv-x="1150" 
d="M1075 0h-1188l764 1317h144zM672 1038l-516 -884h716z" />
    <glyph glyph-name="uni03A9" unicode="&#x3a9;" horiz-adv-x="1488" 
d="M553 0h-498l11 51l317 53q-129 78 -200.5 221t-71.5 289q0 138 59.5 268.5t161.5 231.5t251 162t316 61q170 0 295 -71.5t186.5 -190.5t61.5 -268q0 -199 -140 -395t-366 -308l297 -53l-10 -51h-498l23 119q83 20 168.5 81t156 148.5t115.5 205t45 239.5q0 172 -98.5 274
t-268.5 102q-237 0 -395 -164.5t-158 -422.5q0 -176 76 -305.5t186 -157.5z" />
    <glyph glyph-name="uni03BC" unicode="&#x3bc;" horiz-adv-x="1165" 
d="M365 -389h-515l7 31l145 63l240 1233l-121 66l6 30l348 41h41l-147 -760q-13 -65 -15 -112t3 -72t18.5 -39t26.5 -17t32 -3q77 0 137 50t138 179l122 637l-120 66l6 30l348 41h41l-182 -938l120 -65l-6 -31l-348 -41h-41l35 174q-68 -109 -151.5 -158t-186.5 -49
q-31 0 -45 2l-51 -264l121 -63z" />
    <glyph glyph-name="pi" unicode="&#x3c0;" horiz-adv-x="1216" 
d="M438 0h-514l6 31l146 63l190 981h889l-190 -981l120 -63l-6 -31h-514l6 31l146 63l153 787h-393l-153 -787l120 -63z" />
    <glyph glyph-name="uni0400" unicode="&#x400;" horiz-adv-x="1257" 
d="M889 1659h-27q-126 110 -200 196.5t-74 126.5q0 62 65 62q54 0 119.5 -106.5t116.5 -278.5zM1038 0h-1075l6 31l170 82l262 1347l-141 66l6 30h1055l10 -317h-41l-131 221h-461l-116 -592h297l106 174h62l-89 -448h-61l-37 174h-297l-127 -655h482l212 204h41z" />
    <glyph glyph-name="uni0401" unicode="&#x401;" horiz-adv-x="1257" 
d="M664 1659q-52 0 -82.5 29t-30.5 77q0 66 50 116t116 50q52 0 82 -30t30 -78q0 -65 -48.5 -114.5t-116.5 -49.5zM1055 1659q-52 0 -82.5 29t-30.5 77q0 66 50 116t116 50q52 0 82.5 -30t30.5 -78q0 -65 -49 -114.5t-117 -49.5zM1038 0h-1075l6 31l170 82l262 1347l-141 66
l6 30h1055l10 -317h-41l-131 221h-461l-116 -592h297l106 174h62l-89 -448h-61l-37 174h-297l-127 -655h482l212 204h41z" />
    <glyph glyph-name="uni0402" unicode="&#x402;" horiz-adv-x="1697" 
d="M1223 901q241 0 331.5 -123.5t44.5 -386.5l-8 -45q-38 -215 -190.5 -336t-376.5 -139l4 20q56 18 98.5 56t73 98.5t51.5 129.5t41 167l11 51q82 406 -170 406q-67 0 -140.5 -17.5t-111.5 -33t-66 -29.5l-119 -606l138 -82l-7 -31h-604l6 31l170 82l263 1347h-267
l-196 -221h-52l134 317h1177l10 -317h-51l-110 221h-349l-129 -661q32 18 71 35.5t135 42t188 24.5z" />
    <glyph glyph-name="uni0403" unicode="&#x403;" horiz-adv-x="1181" 
d="M829 1659h-26q122 178 226.5 281.5t166.5 103.5q22 0 39.5 -13t17.5 -32q0 -42 -117.5 -135t-306.5 -205zM438 123l156 -92l-6 -31h-625l6 31l170 82l262 1347l-141 66l6 30h1034l11 -317h-41l-131 221h-441z" />
    <glyph glyph-name="uni0404" unicode="&#x404;" horiz-adv-x="1644" 
d="M1610 616h51q-140 -288 -381 -463.5t-500 -175.5q-316 0 -498 162.5t-182 438.5q0 206 83 390.5t224 317t336.5 210t413.5 77.5q166 0 294 -48.5t171 -127.5l-88 -455h-61q14 74 14 152q0 187 -96 295t-267 108q-232 0 -412 -184t-239 -473h662l-21 -103h-657
q-8 -60 -8 -139q0 -252 109.5 -398.5t303.5 -146.5q206 0 412 155t336 408z" />
    <glyph glyph-name="uni0405" unicode="&#x405;" horiz-adv-x="1296" 
d="M537 -23q-323 0 -527 240l232 399h61q-67 -223 -67 -307q0 -126 82 -188t219 -62q213 0 328.5 77t115.5 218q0 81 -81 129q-56 34 -234 88h-1h-1l-1 1h-1h-1l-1 1h-1h-1l-1 1h-1h-1l-1 1h-1h-1h-1l-1 1h-2l-32 10l-26 8q-350 108 -350 403q0 163 78.5 295t216.5 206.5
t309 74.5q156 0 285.5 -57t177.5 -109l-193 -383h-61q41 160 41 227q0 125 -74 188.5t-207 63.5q-154 0 -257 -78t-103 -198q0 -35 12 -64.5t38 -53t53.5 -42t71.5 -36t79 -29t88 -27.5l20 -6q50 -15 83 -26t78 -29.5t74 -37t61 -47t50.5 -60.5t30.5 -76t12 -95
q0 -270 -188 -445.5t-479 -175.5z" />
    <glyph glyph-name="uni0406" unicode="&#x406;" horiz-adv-x="739" 
d="M567 0h-604l6 31l170 82l262 1347l-141 66l6 30h604l-6 -30l-166 -66l-262 -1347l137 -82z" />
    <glyph glyph-name="uni0407" unicode="&#x407;" horiz-adv-x="739" 
d="M393 1659q-52 0 -82 29t-30 77q0 66 49.5 116t115.5 50q52 0 82.5 -30t30.5 -78q0 -65 -49 -114.5t-117 -49.5zM784 1659q-52 0 -82 29t-30 77q0 66 50 116t116 50q52 0 82 -30t30 -78q0 -65 -49 -114.5t-117 -49.5zM567 0h-604l6 31l170 82l262 1347l-141 66l6 30h604
l-6 -30l-166 -66l-262 -1347l137 -82z" />
    <glyph glyph-name="uni0408" unicode="&#x408;" horiz-adv-x="1034" 
d="M305 -23q-137 0 -223 45t-156 144l291 416h37q-83 -168 -103 -223t-20 -128q0 -88 39 -131t106 -43q40 0 72 15.5t64.5 56t60.5 120.5t51 200l197 1011l-141 66l6 30h604l-6 -30l-166 -66l-205 -1046q-14 -74 -37 -134.5t-63 -118.5t-94 -97t-134 -63t-180 -24z" />
    <glyph glyph-name="uni0409" unicode="&#x409;" horiz-adv-x="2117" 
d="M1339 930h93q182 0 325 -44.5t231.5 -140t88.5 -231.5q0 -146 -94.5 -264t-262 -184t-374.5 -66h-637l6 31l170 82l260 1341h-424q-57 -227 -95 -374t-83 -308t-78 -258.5t-72.5 -198t-74 -154.5t-76 -100t-85 -63.5t-94.5 -17.5q-94 0 -116 51l71 415h41
q-29 -169 -15 -228.5t73 -59.5q31 0 58.5 15.5t55.5 53.5t53.5 88t56 134t59 175t66 227.5t73 275t84.5 333.5l-136 76l5 20h1124l-6 -30l-170 -82zM1182 113h176q192 0 311 116t119 303q0 144 -100 220.5t-277 76.5h-90z" />
    <glyph glyph-name="uni040A" unicode="&#x40a;" horiz-adv-x="2252" 
d="M1473 911h94q135 0 250.5 -25t204.5 -72.5t139.5 -124.5t50.5 -175q0 -146 -94.5 -264t-262 -184t-374.5 -66h-637l6 31l170 82l135 696h-584l-135 -696l137 -82l-6 -31h-604l6 31l170 82l262 1347l-141 66l6 30h604l-6 -30l-166 -66l-106 -549h584l102 533l-137 82l6 30
h604l-6 -30l-170 -82zM1317 113h176q192 0 311 116t119 303q0 135 -100 207t-277 72h-94z" />
    <glyph glyph-name="uni040B" unicode="&#x40b;" horiz-adv-x="1742" 
d="M1587 496l-80 -400l142 -65l-7 -31h-450l100 506q29 146 -8.5 214t-140.5 68q-163 0 -330 -77l-117 -598l138 -82l-7 -31h-604l6 31l170 82l263 1347h-267l-196 -221h-52l134 317h1177l10 -317h-51l-110 221h-349l-131 -669q194 100 392 100q234 0 321 -96t47 -299z" />
    <glyph glyph-name="uni040C" unicode="&#x40c;" horiz-adv-x="1415" 
d="M938 1659h-27q122 178 227 281.5t167 103.5q22 0 39.5 -13t17.5 -32q0 -42 -117.5 -135t-306.5 -205zM567 0h-604l6 31l170 82l262 1347l-141 66l6 30h604l-6 -30l-166 -66l-118 -608l618 633l-143 41l6 30h399l-6 -30l-178 -45l-461 -480l430 -923l137 -47l-6 -31h-665
l6 31l164 43l-326 657l-119 -618l137 -82z" />
    <glyph glyph-name="uni040D" unicode="&#x40d;" horiz-adv-x="1691" 
d="M1079 1659h-26q-126 110 -200.5 196.5t-74.5 126.5q0 62 66 62q54 0 119 -106t116 -279zM1212 1526l7 30h604l-6 -30l-166 -66l-262 -1347l137 -82l-6 -31h-605l7 31l170 82l202 1036l-823 -856l-35 -180l137 -82l-6 -31h-604l6 31l170 82l262 1347l-141 66l6 30h604
l-6 -30l-166 -66l-200 -1034l821 854l35 180z" />
    <glyph glyph-name="uni040E" unicode="&#x40e;" horiz-adv-x="1345" 
d="M995 1659q-110 0 -174.5 51.5t-82.5 135t-1 196.5h168q-13 -92 -16 -165.5t26 -119t93 -45.5q46 0 81 25t59 73.5t39.5 102.5t29.5 129h167q-33 -174 -130 -278.5t-259 -104.5zM1169 1526l7 30h419l-6 -30l-174 -72l-721 -1102q-93 -143 -159 -219t-138.5 -114.5
t-163.5 -38.5q-137 0 -182 92l213 372h41q-62 -108 -80 -159q-21 -56 6 -91.5t82 -35.5q100 0 174 50t146 161l-314 1091l-157 66l6 30h625l-7 -30l-151 -47l205 -789l501 778z" />
    <glyph glyph-name="uni040F" unicode="&#x40f;" horiz-adv-x="1650" 
d="M1171 1526l7 30h604l-6 -30l-170 -82l-263 -1348l142 -65l-6 -31h-658l-147 -297h-21l-32 297h-658l6 31l166 65l262 1348l-137 82l6 30h604l-6 -30l-170 -82l-260 -1342h615l260 1342z" />
    <glyph glyph-name="uni0410" unicode="&#x410;" horiz-adv-x="1607" 
d="M354 0h-501l6 31l186 43l748 1218l-68 281h324l358 -1499l162 -43l-6 -31h-707l6 31l217 43l-100 450h-563l-277 -450l221 -43zM823 1194l-348 -569h479z" />
    <glyph glyph-name="uni0411" unicode="&#x411;" horiz-adv-x="1382" 
d="M1155 1460h-457l-102 -530h90q182 0 325 -44.5t231.5 -140t88.5 -231.5q0 -146 -94.5 -264t-262 -184t-374.5 -66h-637l6 31l170 82l262 1347l-141 66l6 30h1051l10 -317h-41zM666 829h-91l-139 -716h176q192 0 311 116t119 303q0 144 -99.5 220.5t-276.5 76.5z" />
    <glyph glyph-name="uni0412" unicode="&#x412;" horiz-adv-x="1433" 
d="M621 0h-658l6 31l170 82l262 1347l-141 66l6 30h664q228 0 361.5 -87.5t133.5 -235.5q0 -145 -120 -268t-314 -179q167 -29 264 -116t97 -207q0 -131 -94.5 -237t-262 -166t-374.5 -60zM698 1464l-123 -637h132q177 0 303.5 115.5t126.5 276.5q0 115 -107 180t-291 65
h-41zM555 727l-119 -614h197q189 0 309.5 103.5t120.5 264.5q0 115 -101 180.5t-276 65.5h-131z" />
    <glyph glyph-name="uni0413" unicode="&#x413;" horiz-adv-x="1181" 
d="M438 123l156 -92l-6 -31h-625l6 31l170 82l262 1347l-141 66l6 30h1034l11 -317h-41l-131 221h-441z" />
    <glyph glyph-name="uni0414" unicode="&#x414;" horiz-adv-x="1533" 
d="M1624 1556l-6 -30l-166 -66l-262 -1358h194l-47 -399h-41l-75 297h-1168l-190 -297h-41l108 399h160q107 152 203 431.5t256 926.5l-135 76l4 20h1206zM211 102h682l260 1352h-508q-149 -598 -243.5 -901.5t-190.5 -450.5z" />
    <glyph glyph-name="uni0415" unicode="&#x415;" horiz-adv-x="1257" 
d="M1038 0h-1075l6 31l170 82l262 1347l-141 66l6 30h1055l10 -317h-41l-131 221h-461l-116 -592h297l106 174h62l-89 -448h-61l-37 174h-297l-127 -655h482l212 204h41z" />
    <glyph glyph-name="uni0416" unicode="&#x416;" horiz-adv-x="2017" 
d="M2079 1556l-6 -30l-168 -45l-486 -518l439 -885l122 -47l-6 -31h-624l6 31l164 43l-322 667l-123 -628l117 -82l-6 -31h-553l6 31l149 82l123 628l-583 -667l147 -43l-6 -31h-625l6 31l140 47l776 891l-281 512l-163 45l6 30h417l-6 -30l-159 -41l352 -639l119 614
l-142 66l6 30h594l-6 -30l-166 -66l-118 -614l598 639l-144 41l6 30h400z" />
    <glyph glyph-name="uni0417" unicode="&#x417;" horiz-adv-x="1339" 
d="M780 1497q-176 0 -304.5 -152.5t-143.5 -402.5h-62l25 455q83 79 221 127.5t287 48.5q233 0 370.5 -92.5t137.5 -247.5q0 -165 -127 -286.5t-326 -162.5q182 -22 288.5 -114t106.5 -224t-73 -238t-212.5 -168.5t-322.5 -62.5q-140 0 -250.5 46.5t-184.5 132.5t-118 201.5
t-59 258.5h41q68 -542 532 -542q173 0 266 100.5t93 271.5q0 139 -88 210t-248 71h-131l20 100h131q155 0 267 115.5t112 276.5q0 133 -65 205.5t-183 72.5z" />
    <glyph glyph-name="uni0418" unicode="&#x418;" horiz-adv-x="1691" 
d="M1212 1526l7 30h604l-6 -30l-166 -66l-262 -1347l137 -82l-6 -31h-605l7 31l170 82l202 1036l-823 -856l-35 -180l137 -82l-6 -31h-604l6 31l170 82l262 1347l-141 66l6 30h604l-6 -30l-166 -66l-200 -1034l821 854l35 180z" />
    <glyph glyph-name="uni0419" unicode="&#x419;" horiz-adv-x="1691" 
d="M1051 1659q-110 0 -174.5 51.5t-82.5 135t-1 196.5h168q-13 -92 -16.5 -165.5t25.5 -119t93 -45.5q46 0 81 25t59 73.5t39.5 102.5t29.5 129h168q-33 -174 -130 -278.5t-259 -104.5zM1212 1526l7 30h604l-6 -30l-166 -66l-262 -1347l137 -82l-6 -31h-605l7 31l170 82
l202 1036l-823 -856l-35 -180l137 -82l-6 -31h-604l6 31l170 82l262 1347l-141 66l6 30h604l-6 -30l-166 -66l-200 -1034l821 854l35 180z" />
    <glyph glyph-name="uni041A" unicode="&#x41a;" horiz-adv-x="1415" 
d="M567 0h-604l6 31l170 82l262 1347l-141 66l6 30h604l-6 -30l-166 -66l-118 -608l618 633l-143 41l6 30h399l-6 -30l-178 -45l-461 -480l430 -923l137 -47l-6 -31h-665l6 31l164 43l-326 657l-119 -618l137 -82z" />
    <glyph glyph-name="uni041B" unicode="&#x41b;" horiz-adv-x="1548" 
d="M1679 1556l-6 -30l-166 -66l-262 -1347l137 -82l-6 -31h-604l6 31l170 82l260 1341h-487q-57 -227 -95 -374t-83 -308t-78 -258.5t-72.5 -198t-74 -154.5t-76 -100t-85 -63.5t-94.5 -17.5q-94 0 -116 51l71 415h41q-29 -167 -15.5 -227.5t75.5 -60.5q31 0 58.5 15.5
t55.5 53.5t53.5 88t56 134t59 175t66 227.5t73 275t84.5 333.5l-136 76l5 20h1185z" />
    <glyph glyph-name="uni041C" unicode="&#x41c;" horiz-adv-x="1918" 
d="M362 0h-399l6 31l170 82l262 1347l-141 66l6 30h453l219 -1179l684 1179h428l-6 -30l-166 -66l-262 -1347l137 -82l-6 -31h-604l6 31l170 82l225 1159l-729 -1272h-123l-233 1272l-226 -1159l136 -82z" />
    <glyph glyph-name="uni041D" unicode="&#x41d;" horiz-adv-x="1671" 
d="M567 0h-604l6 31l170 82l262 1347l-141 66l6 30h604l-6 -30l-166 -66l-114 -590h635l114 590l-141 66l6 30h604l-6 -30l-166 -66l-262 -1347l137 -82l-6 -31h-604l6 31l170 82l127 655h-635l-127 -655l137 -82z" />
    <glyph glyph-name="uni041E" unicode="&#x41e;" horiz-adv-x="1626" 
d="M678 -23q-252 0 -414 170.5t-162 442.5q0 188 77.5 369t203.5 315t295.5 216.5t345.5 82.5q258 0 426 -173.5t168 -443.5q0 -123 -36.5 -246.5t-100.5 -230.5t-153.5 -200.5t-192.5 -159.5t-221.5 -104t-235.5 -38zM774 53q135 0 249 133.5t180.5 362.5t66.5 498
q0 222 -79 336t-228 114q-101 0 -197.5 -78.5t-167 -207.5t-113.5 -303.5t-43 -358.5q0 -238 91.5 -367t240.5 -129z" />
    <glyph glyph-name="uni041F" unicode="&#x41f;" horiz-adv-x="1650" 
d="M1782 1556l-6 -30l-166 -66l-262 -1347l137 -82l-6 -31h-605l7 31l170 82l260 1341h-615l-260 -1341l137 -82l-6 -31h-604l6 31l170 82l262 1347l-141 66l6 30h1516z" />
    <glyph glyph-name="uni0420" unicode="&#x420;" horiz-adv-x="1323" 
d="M567 0h-604l6 31l170 82l262 1347l-141 66l6 30h695q87 0 168 -21t147.5 -60.5t106.5 -103.5t40 -144q0 -134 -95 -249t-258 -183t-353 -68h-162l-119 -614l137 -82zM696 1454l-121 -625h132q192 0 311 110.5t119 289.5q0 225 -310 225h-131z" />
    <glyph glyph-name="uni0421" unicode="&#x421;" horiz-adv-x="1636" 
d="M780 -23q-316 0 -498 162.5t-182 438.5q0 206 83 390.5t224 317t336.5 210t413.5 77.5q166 0 294 -48.5t171 -127.5l-88 -455h-61q47 250 -49 402.5t-300 152.5q-185 0 -340.5 -119.5t-245 -326.5t-89.5 -453q0 -252 109.5 -398.5t303.5 -146.5q206 0 412 155t336 408h51
q-140 -288 -381 -463.5t-500 -175.5z" />
    <glyph glyph-name="uni0422" unicode="&#x422;" horiz-adv-x="1339" 
d="M866 0h-604l6 31l170 82l262 1347h-307l-196 -221h-52l134 317h1177l10 -317h-51l-110 221h-308l-262 -1347l137 -82z" />
    <glyph glyph-name="uni0423" unicode="&#x423;" horiz-adv-x="1345" 
d="M1169 1526l7 30h419l-6 -30l-174 -72l-721 -1102q-93 -143 -159 -219t-138.5 -114.5t-163.5 -38.5q-137 0 -182 92l213 372h41q-62 -108 -80 -159q-21 -56 6 -91.5t82 -35.5q100 0 174 50t146 161l-314 1091l-157 66l6 30h625l-7 -30l-151 -47l205 -789l501 778z" />
    <glyph glyph-name="uni0424" unicode="&#x424;" horiz-adv-x="1826" 
d="M1823 879q0 -89 -34 -178t-103.5 -170t-166 -145.5t-230.5 -107t-288 -51.5l-26 -135l137 -82l-6 -30h-604l6 30l170 82l27 135q-603 33 -603 482q0 90 34 179t104 170.5t166.5 145.5t231 106t288.5 50l22 121l-141 65l6 31h604l-6 -31l-166 -65l-22 -121
q600 -33 600 -481zM473 707q0 -172 60.5 -281.5t181.5 -142.5l198 1024q-105 -13 -191 -71.5t-139 -143t-81.5 -184t-28.5 -201.5zM1452 881q0 172 -60.5 281.5t-181.5 142.5l-198 -1024q105 14 191 72.5t139 143t81.5 183.5t28.5 201z" />
    <glyph glyph-name="uni0425" unicode="&#x425;" horiz-adv-x="1411" 
d="M340 0h-410l7 31l159 55l522 629l-327 745l-139 66l6 30h624l-6 -30l-153 -47l225 -516l422 507l-152 56l6 30h400l-6 -30l-175 -72l-466 -557l354 -811l135 -55l-6 -31h-625l6 31l154 55l-246 557l-456 -557l153 -55z" />
    <glyph glyph-name="uni0426" unicode="&#x426;" horiz-adv-x="1689" 
d="M1171 1526l7 30h604l-6 -30l-170 -82l-260 -1342h194l-47 -399h-41l-76 297h-1413l6 31l166 65l262 1348l-137 82l6 30h604l-6 -30l-170 -82l-260 -1342h615l260 1342z" />
    <glyph glyph-name="uni0427" unicode="&#x427;" horiz-adv-x="1538" 
d="M1059 1526l6 30h604l-6 -30l-166 -66l-262 -1347l137 -82l-6 -31h-604l6 31l170 82l119 616q-10 -6 -27.5 -14.5t-62.5 -25.5t-94 -30t-120.5 -23.5t-142.5 -10.5q-234 0 -321 96t-47 299l88 440l-142 66l7 30h604l-6 -30l-166 -66l-90 -450q-29 -143 17.5 -208
t182.5 -65q167 0 338 82l125 641z" />
    <glyph glyph-name="uni0428" unicode="&#x428;" horiz-adv-x="2398" 
d="M1919 1526l6 30h604l-6 -30l-170 -82l-262 -1348l141 -65l-6 -31h-2263l6 31l166 65l262 1348l-137 82l6 30h604l-6 -30l-170 -82l-260 -1342h533l260 1342l-137 82l6 30h604l-6 -30l-170 -82l-260 -1342h532l260 1342z" />
    <glyph glyph-name="uni0429" unicode="&#x429;" horiz-adv-x="2437" 
d="M1919 1526l6 30h604l-6 -30l-170 -82l-260 -1342h195l-47 -399h-41l-76 297h-2161l6 31l166 65l262 1348l-137 82l6 30h604l-6 -30l-170 -82l-260 -1342h533l260 1342l-137 82l6 30h604l-6 -30l-170 -82l-260 -1342h532l260 1342z" />
    <glyph glyph-name="uni042A" unicode="&#x42a;" horiz-adv-x="1583" 
d="M805 930h92q182 0 325 -44.5t231.5 -140t88.5 -231.5q0 -146 -94.5 -264t-262 -184t-374.5 -66h-637l6 31l170 82l262 1347h-215l-196 -221h-51l133 317h798l-6 -30l-170 -82zM647 113h176q192 0 311 116t119 303q0 144 -99.5 220.5t-276.5 76.5h-91z" />
    <glyph glyph-name="uni042B" unicode="&#x42b;" horiz-adv-x="2009" 
d="M-37 0h637q207 0 374.5 66t262 184t94.5 264q0 136 -88.5 231.5t-231.5 140t-325 44.5h-92l100 514l170 82l6 30h-604l-6 -30l137 -82l-258 -1331l-170 -82zM1837 0h-604l6 31l170 82l262 1347l-141 66l6 30h604l-6 -30l-166 -66l-262 -1347l137 -82zM575 829h91
q177 0 276.5 -76.5t99.5 -220.5q0 -187 -119 -303t-311 -116h-176z" />
    <glyph glyph-name="uni042C" unicode="&#x42c;" horiz-adv-x="1372" 
d="M-37 0h637q207 0 374.5 66t262 184t94.5 264q0 136 -88.5 231.5t-231.5 140t-325 44.5h-92l100 514l170 82l6 30h-604l-6 -30l137 -82l-258 -1331l-170 -82zM575 829h91q177 0 276.5 -76.5t99.5 -220.5q0 -187 -119 -303t-311 -116h-176z" />
    <glyph glyph-name="uni042D" unicode="&#x42d;" horiz-adv-x="1579" 
d="M795 1573q370 0 565.5 -176.5t195.5 -485.5q0 -119 -28 -234t-80.5 -219t-132.5 -192t-179 -152.5t-226 -100.5t-267 -36q-268 0 -428 172.5t-190 466.5h51q34 -265 173.5 -414t389.5 -149q122 0 222 53t168 147t110.5 216t58.5 268h-674l21 103h661q2 25 2 71
q0 127 -24 232t-73 185t-129.5 124.5t-186.5 44.5q-196 0 -331.5 -151.5t-150.5 -403.5h-61l24 455q84 80 225 128t294 48z" />
    <glyph glyph-name="uni042E" unicode="&#x42e;" horiz-adv-x="2242" 
d="M1659 1573q249 0 411 -173.5t162 -443.5q0 -184 -78.5 -364t-204.5 -314.5t-295 -217.5t-341 -83q-243 0 -399 170.5t-156 442.5q0 87 16 178h-211l-127 -655l137 -82l-6 -31h-604l6 31l170 82l262 1347l-141 66l6 30h604l-6 -30l-166 -66l-114 -590h217
q60 195 189.5 355t306 254t362.5 94zM1409 53q129 0 238.5 133.5t173 362.5t63.5 498q0 222 -74 336t-213 114q-98 0 -190 -78.5t-159.5 -207.5t-108.5 -303.5t-41 -358.5q0 -238 85.5 -367t225.5 -129z" />
    <glyph glyph-name="uni042F" unicode="&#x42f;" horiz-adv-x="1478" 
d="M915 1556h695l-6 -30l-166 -66l-262 -1347l137 -82l-6 -31h-605l7 31l170 82l118 614h-139l-477 -637l123 -59l-6 -31h-639l6 31l190 82l494 657q-256 72 -256 305q0 218 171.5 349.5t450.5 131.5zM887 829h131l121 625h-131q-197 0 -313.5 -97t-116.5 -282
q0 -121 81 -183.5t228 -62.5z" />
    <glyph glyph-name="uni0430" unicode="&#x430;" horiz-adv-x="1058" 
d="M940 752l-115 -588l123 -41l-10 -62l-350 -61h-41l41 213q-14 -30 -44.5 -67.5t-75.5 -77.5t-107.5 -66.5t-127.5 -26.5q-97 0 -155 57t-58 152q0 180 179 323.5t485 207.5l12 61q8 39 10.5 69t-3 62.5t-21.5 53.5t-49 35t-82 14q-114 0 -183 -58.5t-69 -156.5
q0 -30 10 -68h-71l-62 213q55 60 185.5 114t279.5 54q169 0 252 -85t47 -271zM369 98q43 0 85.5 30t75 75.5t53 83t33.5 69.5l54 287q-4 -1 -14 -4q-32 -9 -53 -15.5t-63.5 -24.5t-72 -37.5t-67 -53.5t-60.5 -73t-39 -96t-16 -122q0 -119 84 -119z" />
    <glyph glyph-name="uni0431" unicode="&#x431;" horiz-adv-x="1200" 
d="M547 1243q-74 -60 -137 -260q148 94 307 94q94 0 169.5 -25.5t123 -67.5t79.5 -99t45 -117t13 -125q0 -89 -29 -183t-86.5 -180t-134 -154t-179.5 -108.5t-216 -40.5q-92 0 -166.5 27t-123 72t-81 106t-46 125t-13.5 133q0 152 40.5 297.5t127 281.5t211.5 246.5t304 193
t394 120.5q101 18 129 70h41q-45 -159 -123.5 -231.5t-237.5 -92.5q-60 -8 -134.5 -12t-112.5 -6.5t-82.5 -17.5t-81.5 -46zM670 993q-155 0 -283 -102q-55 -223 -55 -457q0 -104 24 -187t73.5 -134.5t117.5 -51.5q82 0 159.5 92t125 237t47.5 294q0 138 -52.5 223.5
t-156.5 85.5z" />
    <glyph glyph-name="uni0432" unicode="&#x432;" horiz-adv-x="1071" 
d="M659 569q308 -25 308 -245q0 -85 -65 -165t-178 -131t-241 -51q-198 0 -313 125.5t-115 311.5q0 134 47 260t129 222t202 154t257 58q152 0 238 -58t86 -163q0 -116 -100.5 -203.5t-254.5 -114.5zM645 1024q-105 0 -192.5 -120.5t-120.5 -305.5h172q81 0 142.5 48.5
t89.5 114.5t28 132q0 61 -29 96t-90 35zM496 61q96 0 153.5 71t57.5 181q0 209 -213 209h-172q-7 -61 -7 -108q0 -157 46.5 -255t134.5 -98z" />
    <glyph glyph-name="uni0433" unicode="&#x433;" horiz-adv-x="972" 
d="M426 -23q124 0 236.5 44.5t185.5 115.5l-68 299h-51q8 -39 8 -82q0 -135 -79.5 -214t-223.5 -79q-180 0 -180 160q0 48 23 87t62 66.5t89.5 51t106.5 45.5t112 45t106.5 54t89.5 69t62 93t23 122q0 123 -99.5 188.5t-265.5 65.5q-117 0 -221 -44t-178 -116l63 -278h52
q-9 44 -9 82q0 122 75 197t204 75q79 0 122.5 -37t43.5 -110q0 -45 -24 -83t-64.5 -65.5t-93 -52t-110.5 -47.5t-115.5 -48t-110 -57t-93 -70t-64.5 -92.5t-24 -119.5q0 -131 103.5 -198t306.5 -67z" />
    <glyph glyph-name="uni0434" unicode="&#x434;" horiz-adv-x="1230" 
d="M680 1659q87 0 160 -22t125.5 -59.5t93.5 -92.5t67 -117t42.5 -136.5t23 -147t6.5 -152.5q0 -224 -54 -406t-148.5 -301t-222 -183.5t-275.5 -64.5q-202 0 -319.5 129.5t-117.5 337.5q0 146 51 271.5t137 210.5t199.5 133.5t237.5 48.5q171 0 250 -137h10
q-6 150 -33.5 259t-72.5 169.5t-99 88.5t-120 28q-105 0 -169.5 -55.5t-82.5 -145.5h-52q25 159 119 251.5t244 92.5zM524 61q100 0 188.5 85.5t141.5 228.5t53 303q0 158 -60 252t-163 94q-160 0 -262.5 -166.5t-102.5 -429.5q0 -163 54 -265t151 -102z" />
    <glyph glyph-name="uni0435" unicode="&#x435;" horiz-adv-x="1107" 
d="M467 -23q-190 0 -302 112.5t-112 307.5q0 145 50 276.5t135 226.5t202 151.5t246 56.5q94 0 170 -26.5t128 -80.5t70.5 -135t-1.5 -190l-17 -80h-696l-6 -31q-45 -230 24 -367t222 -137q115 0 230 80.5t200 218.5h51q-90 -170 -250 -276.5t-344 -106.5zM356 674h437
q30 156 -7.5 249t-134.5 93q-98 0 -182 -95.5t-113 -246.5z" />
    <glyph glyph-name="uni0436" unicode="&#x436;" horiz-adv-x="1851" 
d="M1524 96q43 0 90.5 71t83.5 193h55q-25 -92 -53 -158t-67 -119t-92 -79.5t-120 -26.5q-113 0 -168 82t-55 230q0 97 25 213h-181l-106 -502h-248l109 502h-189q-30 -103 -76.5 -195.5t-107 -167t-137.5 -118.5t-158 -44q-64 0 -101 39.5t-40 104.5l180 366h51
q-110 -257 -110 -370q0 -56 38 -56q49 0 111 141.5t105 329.5t43 318q0 139 -76 139q-43 0 -90.5 -71t-83.5 -193h-56q25 92 53 158t67 119t92 79.5t120 26.5q113 0 168 -81.5t55 -229.5q0 -107 -26 -217h184l78 358l-121 66l6 30l348 41h41l-106 -495h184
q41 141 108.5 257.5t166 193.5t206.5 77q64 0 101.5 -39t40.5 -104l-180 -367h-52q111 259 111 371q0 55 -41 55q-49 0 -110.5 -141.5t-103.5 -329t-42 -317.5q0 -140 76 -140z" />
    <glyph glyph-name="uni0437" unicode="&#x437;" horiz-adv-x="960" 
d="M356 61q111 0 172.5 66.5t61.5 165.5q0 223 -213 223h-68l21 76h57q139 0 219 80.5t80 193.5q0 68 -41 113t-117 45q-126 0 -199 -83t-73 -220q0 -43 8 -82h-51l-70 309q160 160 430 160q159 0 248.5 -60.5t89.5 -175.5q0 -124 -102 -207t-266 -102q307 -25 307 -260
q0 -89 -65.5 -164.5t-176.5 -118.5t-241 -43q-153 0 -254.5 42t-145.5 118l199 330h51q-74 -133 -74 -234q0 -82 54.5 -127t158.5 -45z" />
    <glyph glyph-name="uni0438" unicode="&#x438;" 
d="M338 -33q-130 0 -197 74t-37 233l129 664l-120 66l6 30l348 41h41l-148 -760q-14 -75 -15.5 -124.5t9.5 -74.5t28 -34.5t44 -9.5q78 0 137 49.5t137 179.5l123 637l-121 66l7 30l348 41h41l-183 -938l121 -65l-6 -31l-348 -41h-41l33 174q-127 -207 -336 -207z" />
    <glyph glyph-name="uni0439" unicode="&#x439;" 
d="M662 1229q39 0 70.5 18t54 47t41 74.5t31 90t24.5 104.5h168q-36 -174 -134.5 -279.5t-254.5 -105.5q-86 0 -145 29.5t-86.5 81.5t-35.5 122.5t8 151.5h168q-11 -59 -16 -104.5t-3.5 -90.5t13 -74t35.5 -47t62 -18zM338 -33q-130 0 -197 74t-37 233l129 664l-120 66l6 30
l348 41h41l-148 -760q-14 -75 -15.5 -124.5t9.5 -74.5t28 -34.5t44 -9.5q78 0 137 49.5t137 179.5l123 637l-121 66l7 30l348 41h41l-183 -938l121 -65l-6 -31l-348 -41h-41l33 174q-127 -207 -336 -207z" />
    <glyph glyph-name="uni043A" unicode="&#x43a;" horiz-adv-x="1144" 
d="M1180 1075l-6 -31l-201 -67l-355 -326l355 -577l114 -43l-6 -31h-481l6 31l94 32l-280 459l-84 -428l86 -63l-6 -31h-479l6 31l145 63l164 844l-121 66l6 30l348 41h41l-98 -506l457 424l-152 51l6 31h441z" />
    <glyph glyph-name="uni043B" unicode="&#x43b;" horiz-adv-x="1044" 
d="M991 1075l-190 -981l121 -63l-7 -31h-493l6 31l125 63l176 903h-235q-39 -158 -70.5 -275t-65 -228.5t-63.5 -188t-63 -142t-66.5 -103.5t-70.5 -59t-79 -21q-34 0 -52.5 16t-22.5 35l67 348h51q-26 -120 -21.5 -171.5t48.5 -51.5q129 0 311 825l-131 63l6 31h719z" />
    <glyph glyph-name="uni043C" unicode="&#x43c;" horiz-adv-x="1464" 
d="M1411 1075l-190 -981l120 -63l-6 -31h-493l6 31l125 63l147 760l-481 -854h-145l-50 848q-40 -157 -72 -270t-66.5 -216t-66 -170t-67.5 -117t-74 -72.5t-82 -22.5q-34 0 -52.5 16t-22.5 35l67 348h51q-27 -120 -22.5 -171.5t49.5 -51.5q129 0 311 825l-131 63l6 31h400
l37 -774l438 774h264z" />
    <glyph glyph-name="uni043D" unicode="&#x43d;" horiz-adv-x="1204" 
d="M1100 1075h41l-191 -981l121 -63l-6 -31h-494l7 31l124 63l80 408h-366l-80 -408l100 -63l-6 -31h-493l6 31l145 63l164 844l-121 66l6 30l348 41h41l-96 -495h367l69 358l-121 66l7 30z" />
    <glyph glyph-name="uni043E" unicode="&#x43e;" horiz-adv-x="1214" 
d="M500 -23q-95 0 -171.5 27t-126.5 72t-83.5 106t-47.5 125t-14 133q0 125 49.5 245t135 214t212.5 151.5t271 57.5q121 0 210 -37t138 -100t71.5 -134.5t22.5 -152.5q0 -95 -30 -194.5t-89 -190.5t-138.5 -163.5t-186 -115.5t-223.5 -43zM545 61q82 0 165 97t136 248
t53 299q0 142 -53.5 230.5t-155.5 88.5q-96 0 -183 -82.5t-138.5 -219t-51.5 -288.5q0 -160 60 -266.5t168 -106.5z" />
    <glyph glyph-name="uni043F" unicode="&#x43f;" horiz-adv-x="1210" 
d="M430 0h-493l6 31l145 63l164 844l-121 66l6 30l348 41h41l-30 -153q152 186 354 186q60 0 110.5 -17t89.5 -52t54 -96.5t0 -141.5l-137 -707l120 -63l-6 -31h-493l6 31l125 63l117 604q33 155 15 230.5t-99 75.5q-140 0 -277 -189l-139 -721l100 -63z" />
    <glyph glyph-name="uni0440" unicode="&#x440;" horiz-adv-x="1175" 
d="M358 -410h-514l6 31l146 64l244 1253l-121 66l6 30q437 74 547 74q202 0 323 -120.5t121 -342.5q0 -173 -73 -330t-197 -252.5t-264 -95.5q-150 0 -263 107l-75 -389l121 -64zM530 72q81 0 156 77t120.5 205.5t45.5 268.5q0 171 -66.5 283t-173.5 112q-33 0 -112 -14
l-164 -842q32 -38 89 -64t105 -26z" />
    <glyph glyph-name="uni0441" unicode="&#x441;" horiz-adv-x="1064" 
d="M487 -23q-193 0 -312.5 122t-119.5 321q0 188 89 346.5t242 250t335 91.5q244 0 338 -160l-209 -350h-51q84 150 84 260q0 78 -44.5 122t-123.5 44q-108 0 -202.5 -87t-151 -234.5t-56.5 -315.5q0 -152 63.5 -239t178.5 -87q110 0 228.5 82t201.5 217h51
q-92 -178 -229.5 -280.5t-311.5 -102.5z" />
    <glyph glyph-name="uni0442" unicode="&#x442;" horiz-adv-x="1802" 
d="M430 0h-493l6 31l145 63l164 844l-121 66l6 30l348 41h41l-30 -153q60 76 152 131t192 55t171 -58.5t70 -175.5q190 234 381 234q53 0 99.5 -16.5t84.5 -53.5t50.5 -95t-0.5 -142l-137 -707l120 -63l-6 -31h-493l6 31l125 63l116 604q33 158 22 232t-79 74t-147 -61
t-154 -165l-133 -684l121 -63l-6 -31h-494l6 31l125 63l117 604q33 158 22 232t-79 74t-143 -56t-130 -133l-139 -721l100 -63z" />
    <glyph glyph-name="uni0443" unicode="&#x443;" horiz-adv-x="1150" 
d="M45 -424l-207 254l47 37q48 -40 75.5 -60t68 -39.5t75.5 -19.5q58 0 126.5 42.5t119.5 106.5t62 123l-197 979l-141 45l6 31h543l-7 -31l-147 -45l147 -729l410 736l-139 38l6 31h399l-6 -31l-184 -45l-475 -858q-51 -92 -119.5 -186.5t-147.5 -181.5t-163 -142t-152 -55
z" />
    <glyph glyph-name="uni0444" unicode="&#x444;" horiz-adv-x="1495" 
d="M1440 629q0 -86 -26.5 -171t-82 -164t-134 -142.5t-190.5 -108t-243 -59.5l-57 -299l120 -64l-6 -31h-514l6 31l146 64l57 299q-146 12 -252 81t-156.5 170t-50.5 222q0 108 43 213.5t124.5 196t213.5 154t295 81.5l78 399l-121 66l6 30l348 41h41l-104 -536
q146 -13 252 -82.5t156.5 -170.5t50.5 -220zM535 72l182 944q-95 -16 -173.5 -71.5t-127 -134.5t-75 -171t-26.5 -186q0 -139 57.5 -245t162.5 -136zM965 1014l-183 -944q95 16 173 71.5t126.5 134.5t74.5 171t26 186q0 139 -57 245t-160 136z" />
    <glyph glyph-name="uni0445" unicode="&#x445;" horiz-adv-x="1107" 
d="M283 0h-379l6 31l158 49l370 412l-225 499l-129 53l6 31h543l-6 -31l-129 -45l135 -297l270 297l-151 45l6 31h379l-7 -31l-153 -49l-318 -352l254 -557l134 -55l-7 -31h-542l6 31l123 43l-160 356l-328 -354l150 -45z" />
    <glyph glyph-name="uni0446" unicode="&#x446;" horiz-adv-x="1175" 
d="M1057 1075h41l-195 -997h146l-29 -354h-41l-92 276h-246l33 174q-127 -207 -336 -207q-130 0 -197 74t-37 233l129 664l-120 66l6 30l348 41h41l-148 -760q-14 -75 -15.5 -124.5t9.5 -74.5t28 -34.5t44 -9.5q78 0 137 49.5t137 179.5l123 637l-121 66l7 30z" />
    <glyph glyph-name="uni0447" unicode="&#x447;" horiz-adv-x="1134" 
d="M1030 1075h41l-190 -981l120 -63l-6 -31h-534l6 31l166 63l76 393q-156 -63 -293 -63q-250 0 -250 203q0 45 8 86l43 225l-121 66l6 30l349 41h41l-72 -375q-8 -54 -8 -67q0 -61 32.5 -89t100.5 -28q48 0 84 9.5t94 33.5l74 379l-121 66l6 30z" />
    <glyph glyph-name="uni0448" unicode="&#x448;" horiz-adv-x="1718" 
d="M1616 1075h41l-182 -938l120 -65l-6 -31l-348 -41h-41l33 174q-66 -108 -144.5 -157.5t-175.5 -49.5q-105 0 -170 49t-71 154q-129 -203 -334 -203q-130 0 -197 74t-37 233l129 664l-120 66l6 30l348 41h41l-148 -760q-14 -75 -15.5 -124.5t9.5 -74.5t28 -34.5t44 -9.5
q72 0 127.5 42.5t124.5 151.5l2 8l129 664l-121 66l6 30l348 41h41l-147 -760q-14 -75 -16 -124t9 -74.5t28 -35t44 -9.5q72 0 126.5 49t132.5 180l122 637l-120 66l6 30z" />
    <glyph glyph-name="uni0449" unicode="&#x449;" horiz-adv-x="1734" 
d="M1616 1075h41l-195 -997h146l-29 -354h-41l-92 276h-246l33 174q-66 -108 -144.5 -157.5t-175.5 -49.5q-105 0 -170 49t-71 154q-129 -203 -334 -203q-130 0 -197 74t-37 233l129 664l-120 66l6 30l348 41h41l-148 -760q-14 -75 -15.5 -124.5t9.5 -74.5t28 -34.5t44 -9.5
q72 0 127.5 42.5t124.5 151.5l2 8l129 664l-121 66l6 30l348 41h41l-147 -760q-14 -75 -16 -124t9 -74.5t28 -35t44 -9.5q72 0 126.5 49t132.5 180l122 637l-120 66l6 30z" />
    <glyph glyph-name="uni044A" unicode="&#x44a;" horiz-adv-x="1046" 
d="M578 664q397 0 397 -283q0 -77 -35 -150t-96.5 -130t-153.5 -91.5t-198 -34.5q-195 0 -288 72t-93 201q0 77 28.5 155t100.5 193q80 127 280 401h-225l-170 -229h-41l104 307h613l6 -41q-165 -226 -262 -370h33zM498 53q67 0 120 48.5t80 123t27 156.5q0 89 -45 147
t-133 58q-35 0 -51 -2l-39 -64q-105 -187 -105 -309q0 -77 38 -117.5t108 -40.5z" />
    <glyph glyph-name="uni044B" unicode="&#x44b;" horiz-adv-x="1525" 
d="M569 657q398 0 398 -282q0 -72 -35 -144t-96.5 -130.5t-154 -95t-198.5 -36.5q-381 0 -381 273q0 34 11 98l116 598l-120 66l6 30l348 41h41l-84 -434q94 16 149 16zM1423 1075h41l-182 -938l121 -65l-6 -31l-348 -41h-41l182 938l-121 66l6 30zM489 47q72 0 125.5 51.5
t78 124.5t24.5 152q0 90 -44 147.5t-134 57.5q-59 0 -136 -15l-45 -233q-14 -69 -14 -127q0 -79 35 -118.5t110 -39.5z" />
    <glyph glyph-name="uni044C" unicode="&#x44c;" horiz-adv-x="1030" 
d="M569 657q398 0 398 -282q0 -72 -35 -144t-96.5 -130.5t-154 -95t-198.5 -36.5q-381 0 -381 273q0 34 11 98l116 598l-120 66l6 30l348 41h41l-84 -434q94 16 149 16zM489 47q72 0 125.5 51.5t78 124.5t24.5 152q0 90 -44 147.5t-134 57.5q-59 0 -136 -15l-45 -233
q-14 -69 -14 -127q0 -79 35 -118.5t110 -39.5z" />
    <glyph glyph-name="uni044D" unicode="&#x44d;" horiz-adv-x="1042" 
d="M547 1108q100 0 178 -25t127 -65.5t81 -97t45 -114.5t13 -122q0 -97 -24.5 -194.5t-77.5 -190.5t-127.5 -164t-184 -114.5t-237.5 -43.5q-139 0 -237 42.5t-142 117.5l199 330h51q-74 -133 -74 -234q0 -82 52.5 -127t146.5 -45q80 0 145.5 36.5t110.5 101t74 144
t43 173.5h-394l21 76h383q4 74 4 113q0 142 -53.5 230.5t-155.5 88.5q-121 0 -192.5 -83.5t-71.5 -219.5q0 -43 8 -82h-51l-70 309q75 75 180 117.5t230 42.5z" />
    <glyph glyph-name="uni044E" unicode="&#x44e;" horiz-adv-x="1703" 
d="M1225 1108q95 0 170.5 -25t123.5 -65.5t80 -96.5t45 -114.5t13 -122.5q0 -95 -29.5 -194.5t-88 -190.5t-136.5 -163.5t-183.5 -115.5t-220.5 -43q-92 0 -167 27t-123.5 72t-81 106t-46.5 125t-14 133q0 42 2 62h-153l-80 -408l100 -63l-6 -31h-493l6 31l145 63l164 844
l-121 66l6 30l348 41h41l-96 -495h152q24 106 80.5 201t138 168t192 116t232.5 43zM1044 61q80 0 161 97t132.5 248t51.5 299q0 142 -51 230.5t-148 88.5q-93 0 -177.5 -82.5t-135 -219.5t-50.5 -288q0 -160 57 -266.5t160 -106.5z" />
    <glyph glyph-name="uni044F" unicode="&#x44f;" horiz-adv-x="1091" 
d="M791 1075h247l-190 -981l121 -63l-6 -31h-494l6 31l125 63l96 494q-122 -184 -217.5 -306t-169.5 -187t-130 -90t-113 -25q-41 0 -61.5 16t-24.5 35l59 309h51q-19 -100 -5 -142t69 -42q37 0 68 9.5t73 38t96.5 86t126.5 148.5q-95 -61 -196 -61q-96 0 -154.5 52
t-58.5 155q0 137 93.5 250.5t250 177t338.5 63.5zM438 489q126 0 287 246l53 277q-102 0 -200 -59.5t-161 -161t-63 -213.5q0 -89 84 -89z" />
    <glyph glyph-name="uni0450" unicode="&#x450;" horiz-adv-x="1107" 
d="M725 1178h-27q-126 110 -200 196.5t-74 126.5q0 62 65 62q54 0 119.5 -106.5t116.5 -278.5zM467 -23q-190 0 -302 112.5t-112 307.5q0 145 50 276.5t135 226.5t202 151.5t246 56.5q94 0 170 -26.5t128 -80.5t70.5 -135t-1.5 -190l-17 -80h-696l-6 -31q-45 -230 24 -367
t222 -137q115 0 230 80.5t200 218.5h51q-90 -170 -250 -276.5t-344 -106.5zM356 674h437q30 156 -7.5 249t-134.5 93q-98 0 -182 -95.5t-113 -246.5z" />
    <glyph glyph-name="uni0451" unicode="&#x451;" horiz-adv-x="1107" 
d="M508 1178q-52 0 -82.5 29t-30.5 77q0 66 50 116t116 50q52 0 82.5 -30.5t30.5 -78.5q0 -65 -49 -114t-117 -49zM899 1178q-52 0 -82.5 29t-30.5 77q0 66 50 116t116 50q52 0 82.5 -30.5t30.5 -78.5q0 -65 -49 -114t-117 -49zM467 -23q-190 0 -302 112.5t-112 307.5
q0 145 50 276.5t135 226.5t202 151.5t246 56.5q94 0 170 -26.5t128 -80.5t70.5 -135t-1.5 -190l-17 -80h-696l-6 -31q-45 -230 24 -367t222 -137q115 0 230 80.5t200 218.5h51q-90 -170 -250 -276.5t-344 -106.5zM356 674h437q30 156 -7.5 249t-134.5 93q-98 0 -182 -95.5
t-113 -246.5z" />
    <glyph glyph-name="uni0452" unicode="&#x452;" horiz-adv-x="1155" 
d="M838 1108q62 0 111 -17.5t89 -59.5t50 -111.5t-7 -174.5l-92 -458q-47 -232 -133 -396q-81 -150 -185 -232.5t-218 -82.5l-150 254l47 37q56 -68 110.5 -107t86.5 -39q36 0 70 47t49 123l157 807q34 169 17 237.5t-99 68.5q-66 0 -141.5 -58.5t-136.5 -138.5l-139 -713
l100 -63l-6 -31h-494l6 31l146 63l229 1188h-135l20 102h136l22 117l-119 66l7 30l348 41h41l-50 -254h256l-20 -102h-256l-72 -360q152 186 355 186z" />
    <glyph glyph-name="uni0453" unicode="&#x453;" horiz-adv-x="972" 
d="M535 1178h-27q122 178 226.5 281.5t166.5 103.5q22 0 39.5 -13t17.5 -32q0 -42 -117.5 -135t-305.5 -205zM426 -23q124 0 236.5 44.5t185.5 115.5l-68 299h-51q8 -39 8 -82q0 -135 -79.5 -214t-223.5 -79q-180 0 -180 160q0 48 23 87t62 66.5t89.5 51t106.5 45.5t112 45
t106.5 54t89.5 69t62 93t23 122q0 123 -99.5 188.5t-265.5 65.5q-117 0 -221 -44t-178 -116l63 -278h52q-9 44 -9 82q0 122 75 197t204 75q79 0 122.5 -37t43.5 -110q0 -45 -24 -83t-64.5 -65.5t-93 -52t-110.5 -47.5t-115.5 -48t-110 -57t-93 -70t-64.5 -92.5t-24 -119.5
q0 -131 103.5 -198t306.5 -67z" />
    <glyph glyph-name="uni0454" unicode="&#x454;" horiz-adv-x="1062" 
d="M547 61q110 0 228.5 82t201.5 217h51q-92 -178 -229.5 -280.5t-311.5 -102.5q-193 0 -312.5 122t-119.5 321q0 188 89 346.5t242 250t335 91.5q244 0 338 -160l-209 -350h-51q84 150 84 260q0 78 -44.5 122t-123.5 44q-129 0 -236.5 -122t-150.5 -310h370l-22 -76h-363
q-8 -82 -8 -129q0 -152 63.5 -239t178.5 -87z" />
    <glyph glyph-name="uni0455" unicode="&#x455;" horiz-adv-x="937" 
d="M358 -23q-131 0 -226.5 47t-127.5 140l123 233h70q-31 -103 -31 -159q0 -170 217 -170q122 0 194 52.5t72 133.5q0 52 -55.5 85t-177.5 64q-33 9 -63.5 20.5t-71.5 36t-70.5 55t-50.5 80t-21 107.5q0 173 126 289.5t313 116.5q107 0 190 -39t125 -106l-115 -246h-51
q29 150 -24.5 228.5t-163.5 78.5q-97 0 -162.5 -51t-65.5 -127q0 -28 14 -51.5t33 -40t56 -34t65.5 -27.5t79.5 -27q46 -15 66 -22.5t57 -22.5t54 -26t41 -30t34.5 -38.5t18.5 -47t8 -59.5q0 -195 -134.5 -319t-345.5 -124z" />
    <glyph glyph-name="uni0456" unicode="&#x456;" horiz-adv-x="587" 
d="M422 1251q-58 0 -92.5 34t-34.5 89q0 78 56.5 136.5t131.5 58.5q58 0 91.5 -34t33.5 -89q0 -79 -55.5 -137t-130.5 -58zM451 0h-514l6 31l145 63l164 844l-121 66l6 30l348 41h41l-190 -981l121 -63z" />
    <glyph glyph-name="uni0457" unicode="&#x457;" horiz-adv-x="587" 
d="M279 1251q-44 0 -71.5 34.5t-27.5 88.5q0 78 47 136.5t109 58.5q45 0 71.5 -34t26.5 -89q0 -79 -46.5 -137t-108.5 -58zM573 1251q-45 0 -71.5 34t-26.5 89q0 78 47.5 136.5t110.5 58.5q44 0 70 -34t26 -89q0 -79 -46.5 -137t-109.5 -58zM451 0h-514l6 31l145 63l164 844
l-121 66l6 30l348 41h41l-190 -981l121 -63z" />
    <glyph glyph-name="uni0458" unicode="&#x458;" horiz-adv-x="540" 
d="M412 1251q-58 0 -92.5 32.5t-34.5 88.5q0 82 55 139.5t133 57.5q58 0 92.5 -32.5t34.5 -88.5q0 -82 -55 -139.5t-133 -57.5zM-174 -424l-150 254l48 37q56 -68 110 -107t86 -39q36 0 70 47t49 123l203 1047l-121 66l6 30l348 41h41l-154 -788q-43 -223 -133 -396
q-81 -150 -185 -232.5t-218 -82.5z" />
    <glyph glyph-name="uni0459" unicode="&#x459;" horiz-adv-x="1499" 
d="M1038 657q398 0 398 -282q0 -72 -35 -144t-96.5 -130.5t-154 -95t-198.5 -36.5q-381 0 -381 273q0 34 11 98l129 657h-217q-39 -158 -70.5 -275t-65 -228.5t-63.5 -188t-63 -142t-66.5 -103.5t-70.5 -59t-79 -21q-34 0 -52.5 16t-22.5 35l67 348h51
q-26 -120 -21.5 -171.5t48.5 -51.5q129 0 311 825l-131 63l6 31h701l-84 -434q94 16 149 16zM958 47q72 0 125.5 51.5t78 124.5t24.5 152q0 90 -44 147.5t-134 57.5q-59 0 -136 -15l-45 -233q-14 -69 -14 -127q0 -79 35 -118.5t110 -39.5z" />
    <glyph glyph-name="uni045A" unicode="&#x45a;" horiz-adv-x="1619" 
d="M1008 606h151q397 0 397 -270q0 -65 -34.5 -130t-95 -118t-152 -86t-195.5 -33q-381 0 -381 273q0 34 11 98l36 188h-325l-84 -434l100 -63l-6 -31h-493l6 31l145 63l164 844l-121 66l6 30l348 41h41l-90 -469h324l65 332l-120 66l6 30l348 41h41zM1085 47q70 0 122 46
t76 110t24 133q0 84 -44.5 138t-134.5 54h-135l-39 -196q-14 -69 -14 -127q0 -79 35 -118.5t110 -39.5z" />
    <glyph glyph-name="uni045B" unicode="&#x45b;" horiz-adv-x="1198" 
d="M838 1108q60 0 110.5 -16.5t90.5 -53.5t53 -95t0 -142l-138 -707l121 -63l-6 -31h-494l7 31l125 63l116 604q34 169 17 237.5t-99 68.5q-66 0 -141.5 -58.5t-136.5 -138.5l-139 -713l100 -63l-6 -31h-494l6 31l146 63l229 1188h-135l20 102h136l22 117l-119 66l7 30
l348 41h41l-50 -254h256l-20 -102h-256l-72 -360q152 186 355 186z" />
    <glyph glyph-name="uni045C" unicode="&#x45c;" horiz-adv-x="1144" 
d="M1053 1518q0 -42 -117.5 -135t-306.5 -205h-27q122 178 226.5 281.5t166.5 103.5q22 0 40 -13t18 -32zM1180 1075l-6 -31l-201 -67l-355 -326l355 -577l114 -43l-6 -31h-481l6 31l94 32l-280 459l-84 -428l86 -63l-6 -31h-479l6 31l145 63l164 844l-121 66l6 30l348 41
h41l-98 -506l457 424l-152 51l6 31h441z" />
    <glyph glyph-name="uni045D" unicode="&#x45d;" 
d="M709 1178h-27q-126 110 -200 196.5t-74 126.5q0 62 65 62q54 0 119.5 -106.5t116.5 -278.5zM338 -33q-130 0 -197 74t-37 233l129 664l-120 66l6 30l348 41h41l-148 -760q-14 -75 -15.5 -124.5t9.5 -74.5t28 -34.5t44 -9.5q78 0 137 49.5t137 179.5l123 637l-121 66l7 30
l348 41h41l-183 -938l121 -65l-6 -31l-348 -41h-41l33 174q-127 -207 -336 -207z" />
    <glyph glyph-name="uni045E" unicode="&#x45e;" horiz-adv-x="1150" 
d="M743 1231q48 0 85 25.5t62.5 75.5t42 103.5t32.5 129.5h168q-36 -173 -134.5 -279t-255.5 -106q-86 0 -145 29.5t-86.5 81.5t-35 122.5t8.5 151.5h168q-11 -59 -16 -104.5t-3.5 -90.5t12.5 -74t35 -47t62 -18zM45 -424l-207 254l47 37q48 -40 75.5 -60t68 -39.5
t75.5 -19.5q58 0 126.5 42.5t119.5 106.5t62 123l-197 979l-141 45l6 31h543l-7 -31l-147 -45l147 -729l410 736l-139 38l6 31h399l-6 -31l-184 -45l-475 -858q-51 -92 -119.5 -186.5t-147.5 -181.5t-163 -142t-152 -55z" />
    <glyph glyph-name="uni045F" unicode="&#x45f;" 
d="M1057 1075h41l-183 -938l121 -65l-6 -31l-348 -41h-41l33 174q-35 -40 -68 -74q-48 -56 -83 -133.5t-53 -143.5t-35.5 -125t-44 -93.5t-66.5 -34.5q-38 0 -60 22t-22 62q0 41 16.5 82t49.5 82.5t69 79.5t86 87q16 15 24 23q-71 -41 -155 -41q-125 0 -191.5 74.5
t-36.5 232.5l129 664l-120 66l6 30l348 41h41l-148 -760q-14 -75 -15.5 -124.5t9.5 -74.5t28 -34.5t44 -9.5q78 0 137 49.5t137 179.5l123 637l-121 66l7 30z" />
    <glyph glyph-name="uni0490" unicode="&#x490;" horiz-adv-x="1130" 
d="M1374 1853l-112 -399h-566l-260 -1341l137 -82l-6 -31h-604l6 31l170 82l262 1347l-141 66l6 30h836l231 297h41z" />
    <glyph glyph-name="uni0491" unicode="&#x491;" horiz-adv-x="827" 
d="M975 1305l-105 -308h-358l-176 -903l141 -63l-6 -31h-534l6 31l145 63l172 887l-121 63l6 31h598l191 230h41z" />
    <glyph glyph-name="uni0492" unicode="&#x492;" horiz-adv-x="1185" 
d="M268 1556h1035l10 -317h-41l-131 221h-441l-122 -631h258l-21 -102h-258l-117 -604l156 -92l-6 -31h-625l6 31l170 82l119 614h-147l20 102h148l122 631l-141 66z" />
    <glyph glyph-name="uni0493" unicode="&#x493;" horiz-adv-x="972" 
d="M928 854q0 -154 -125 -250h117l-21 -102h-287q-20 -8 -58 -23t-59 -23.5t-53.5 -23t-51.5 -25.5t-44 -27t-39 -32t-27.5 -36t-19.5 -42.5t-6 -48.5q0 -160 180 -160q144 0 223.5 79t79.5 214q0 43 -8 82h51l68 -299q-73 -71 -185.5 -115.5t-236.5 -44.5q-203 0 -306.5 67
t-103.5 198q0 158 148 260h-111l21 102h288q15 6 44 18q46 18 69 27.5t62 28t59 31t47 33t40 39.5t22.5 44t9.5 52q0 73 -43.5 110t-122.5 37q-129 0 -204 -75t-75 -197q0 -38 9 -82h-52l-63 278q74 72 178 116t221 44q166 0 265.5 -65.5t99.5 -188.5z" />
    <glyph glyph-name="uni0496" unicode="&#x496;" horiz-adv-x="1974" 
d="M2036 1526l-168 -45l-512 -547l411 -832h156l-47 -399h-41l-76 297h-446l6 31l164 43l-322 667l-123 -628l117 -82l-6 -31h-553l6 31l150 82l122 628l-583 -667l147 -43l-6 -31h-584l7 31l139 47l749 864l-294 539l-164 45l6 30h418l-7 -30l-159 -41l352 -639l119 614
l-142 66l7 30h594l-7 -30l-166 -66l-118 -614l598 639l-144 41l6 30h400z" />
    <glyph glyph-name="uni0497" unicode="&#x497;" horiz-adv-x="1882" 
d="M1702 360h51q-25 -88 -25 -151.5t12.5 -128.5t12.5 -111q0 -53 -10.5 -97.5t-34 -83t-68 -60t-106.5 -21.5q-17 0 -31.5 1.5t-31.5 5t-23.5 5.5t-26.5 8t-22 7v51q89 0 129 32t59 120q9 43 37 147q-79 -107 -203 -107q-113 0 -168 82t-55 230q0 97 25 213h-181l-106 -502
h-248l109 502h-189q-30 -103 -76.5 -195.5t-107 -167t-137.5 -118.5t-158 -44q-64 0 -101 39.5t-40 104.5l180 366h51q-110 -257 -110 -370q0 -56 38 -56q49 0 111 141.5t105 329.5t43 318q0 139 -76 139q-43 0 -90.5 -71t-83.5 -193h-56q25 92 53 158t67 119t92 79.5
t120 26.5q113 0 168 -81.5t55 -229.5q0 -107 -26 -217h184l78 358l-121 66l6 30l348 41h41l-106 -495h184q41 141 108.5 257.5t166 193.5t206.5 77q64 0 101.5 -39t40.5 -104l-180 -367h-52q111 259 111 371q0 55 -41 55q-49 0 -110.5 -141.5t-103.5 -329t-42 -317.5
q0 -140 76 -140q45 0 93.5 71t84.5 193z" />
    <glyph glyph-name="uni049A" unicode="&#x49a;" horiz-adv-x="1396" 
d="M1300 -297h-40l-76 297h-473l6 31l164 43l-326 657l-119 -618l137 -82l-6 -31h-604l6 31l170 82l262 1347l-141 66l6 30h604l-6 -30l-166 -66l-118 -608l618 633l-143 41l6 30h399l-6 -30l-178 -45l-461 -480l420 -899h113z" />
    <glyph glyph-name="uni049B" unicode="&#x49b;" horiz-adv-x="1161" 
d="M1174 1044l-201 -67l-355 -326l353 -573h125l-29 -354h-41l-92 276h-334l6 31l94 32l-280 459l-84 -428l86 -63l-6 -31h-479l6 31l145 63l164 844l-121 66l6 30l348 41h41l-98 -506l457 424l-152 51l6 31h441z" />
    <glyph glyph-name="uni04A2" unicode="&#x4a2;" horiz-adv-x="1712" 
d="M1192 1526l6 30h604l-6 -30l-166 -66l-262 -1358h195l-47 -399h-41l-76 297h-504l6 31l170 82l127 655h-635l-127 -655l137 -82l-6 -31h-604l6 31l170 82l262 1347l-141 66l6 30h604l-6 -30l-166 -66l-114 -590h635l114 590z" />
    <glyph glyph-name="uni04A3" unicode="&#x4a3;" horiz-adv-x="1214" 
d="M1100 1075h41l-195 -997h146l-29 -354h-41l-92 276h-359l7 31l124 63l80 408h-366l-80 -408l100 -63l-6 -31h-493l6 31l145 63l164 844l-121 66l6 30l348 41h41l-96 -495h367l69 358l-121 66l7 30z" />
    <glyph glyph-name="uni04AE" unicode="&#x4ae;" horiz-adv-x="1368" 
d="M891 0h-604l6 31l170 82l90 462l-252 885l-158 66l7 30h624l-6 -30l-152 -47l211 -817l516 806l-172 58l7 30h419l-6 -30l-174 -72l-565 -866l-92 -475l137 -82z" />
    <glyph glyph-name="uni04AF" unicode="&#x4af;" horiz-adv-x="1085" 
d="M807 1044l6 31h399l-6 -31l-166 -45l-475 -999l-61 -315l121 -64l-7 -31h-514l7 31l145 64l61 315l-118 985l-123 59l6 31h543l-7 -31l-165 -51l88 -887l424 900z" />
    <glyph glyph-name="uni04B0" unicode="&#x4b0;" horiz-adv-x="1374" 
d="M1174 1526l6 30h419l-6 -30l-174 -72l-565 -866h227l-20 -103h-227l-72 -372l137 -82l-6 -31h-604l6 31l170 82l72 372h-226l21 103h219l-248 872l-158 66l7 30h624l-6 -30l-152 -47l211 -817l517 806z" />
    <glyph glyph-name="uni04B1" unicode="&#x4b1;" horiz-adv-x="1085" 
d="M807 1044l6 31h399l-6 -31l-166 -45l-475 -999h148l-11 -51h-147l-51 -264l121 -64l-7 -31h-514l7 31l145 64l51 264h-178l10 51h178l-118 985l-123 59l6 31h543l-7 -31l-165 -51l88 -887l424 900z" />
    <glyph glyph-name="uni04B2" unicode="&#x4b2;" horiz-adv-x="1421" 
d="M1505 1526l-174 -72l-475 -567l354 -785h156l-47 -399h-41l-76 297h-459l7 31l153 55l-254 571l-469 -571l154 -55l-6 -31h-410l6 31l160 55l534 643l-319 731l-139 66l6 30h584l-7 -30l-153 -47l237 -527l430 518l-151 56l6 30h399z" />
    <glyph glyph-name="uni04B3" unicode="&#x4b3;" horiz-adv-x="1124" 
d="M1130 1044l-153 -49l-318 -352l261 -565h135l-29 -354h-41l-92 276h-395l6 31l123 43l-160 356l-328 -354l150 -45l-6 -31h-379l6 31l158 49l370 412l-225 499l-129 53l6 31h543l-6 -31l-129 -45l135 -297l270 297l-151 45l6 31h379z" />
    <glyph glyph-name="uni04B6" unicode="&#x4b6;" horiz-adv-x="1576" 
d="M1059 1526l6 30h604l-6 -30l-166 -66l-264 -1358h194l-47 -399h-41l-75 297h-502l6 31l170 82l119 616q-10 -6 -27.5 -14.5t-62.5 -25.5t-94 -30t-120.5 -23.5t-142.5 -10.5q-234 0 -321 96t-47 299l88 440l-142 66l7 30h604l-6 -30l-166 -66l-90 -450
q-29 -143 17.5 -208t182.5 -65q167 0 338 82l125 641z" />
    <glyph glyph-name="uni04B7" unicode="&#x4b7;" horiz-adv-x="1144" 
d="M1030 1075h41l-194 -997h145l-29 -354h-41l-92 276h-399l6 31l166 63l76 393q-156 -63 -293 -63q-250 0 -250 203q0 45 8 86l43 225l-121 66l6 30l349 41h41l-72 -375q-8 -54 -8 -67q0 -61 32.5 -89t100.5 -28q48 0 84 9.5t94 33.5l74 379l-121 66l6 30z" />
    <glyph glyph-name="uni04BA" unicode="&#x4ba;" horiz-adv-x="1540" 
d="M1391 537l-88 -441l141 -65l-6 -31h-604l6 31l166 65l90 451q29 143 -18 207.5t-183 64.5q-167 0 -338 -82l-125 -641l141 -65l-6 -31h-604l6 31l166 65l262 1348l-137 82l6 30h604l-6 -30l-170 -82l-119 -617q10 6 27.5 14.5t62.5 25.5t94 30.5t120.5 24t142.5 10.5
q234 0 321.5 -96t47.5 -299z" />
    <glyph glyph-name="uni04BB" unicode="&#x4bb;" horiz-adv-x="1198" 
d="M418 0h-494l6 31l146 63l272 1407l-119 66l7 30l348 41h41l-142 -716q152 186 355 186q60 0 110.5 -16.5t90.5 -53.5t53 -95t0 -142l-138 -707l121 -63l-6 -31h-494l7 31l125 63l116 604q34 169 17 237.5t-99 68.5q-66 0 -141.5 -58.5t-136.5 -138.5l-139 -713l100 -63z
" />
    <glyph glyph-name="uni04C0" unicode="&#x4c0;" horiz-adv-x="739" 
d="M567 0h-604l6 31l170 82l262 1347l-141 66l6 30h604l-6 -30l-166 -66l-262 -1347l137 -82z" />
    <glyph glyph-name="uni04CF" unicode="&#x4cf;" horiz-adv-x="575" 
d="M438 0h-514l6 31l146 63l272 1407l-119 66l7 30l348 41h41l-301 -1544l120 -63z" />
    <glyph glyph-name="uni04D8" unicode="&#x4d8;" horiz-adv-x="1558" 
d="M895 1573q290 0 471.5 -175t181.5 -452q0 -119 -34 -240t-93.5 -227t-145 -199t-185 -159.5t-216 -105t-235.5 -38.5q-247 0 -401 156t-154 410q0 147 45 266h1055q16 131 16 238q0 223 -80.5 336.5t-236.5 113.5q-193 0 -345.5 -153t-201.5 -402h-62l88 455
q79 79 222.5 127.5t310.5 48.5zM713 53q72 0 136 36.5t113.5 98t90 146t68.5 177.5t46 196h-727q-18 -117 -18 -215q0 -212 78.5 -325.5t212.5 -113.5z" />
    <glyph glyph-name="uni04D9" unicode="&#x4d9;" horiz-adv-x="1132" 
d="M655 1055q190 0 302 -112.5t112 -307.5q0 -145 -50 -276.5t-135 -226.5t-202 -151.5t-246 -56.5q-94 0 -169.5 26.5t-128 80.5t-70.5 135t2 190l16 80h696l6 31q45 230 -23.5 367t-221.5 137q-115 0 -230 -80.5t-200 -218.5h-52q90 170 250 276.5t344 106.5zM766 358
h-436q-30 -156 7 -249t134 -93q98 0 182 95.5t113 246.5z" />
    <glyph glyph-name="uni04E2" unicode="&#x4e2;" horiz-adv-x="1691" 
d="M807 1905h579l-22 -119h-580zM1212 1526l7 30h604l-6 -30l-166 -66l-262 -1347l137 -82l-6 -31h-605l7 31l170 82l202 1036l-823 -856l-35 -180l137 -82l-6 -31h-604l6 31l170 82l262 1347l-141 66l6 30h604l-6 -30l-166 -66l-200 -1034l821 854l35 180z" />
    <glyph glyph-name="uni04E3" unicode="&#x4e3;" 
d="M973 1253h-580l23 119h579zM338 -33q-130 0 -197 74t-37 233l129 664l-120 66l6 30l348 41h41l-148 -760q-14 -75 -15.5 -124.5t9.5 -74.5t28 -34.5t44 -9.5q78 0 137 49.5t137 179.5l123 637l-121 66l7 30l348 41h41l-183 -938l121 -65l-6 -31l-348 -41h-41l33 174
q-127 -207 -336 -207z" />
    <glyph glyph-name="uni04E8" unicode="&#x4e8;" horiz-adv-x="1626" 
d="M1024 1573q258 0 426 -173.5t168 -443.5q0 -123 -36.5 -246.5t-100.5 -230.5t-153.5 -200.5t-192.5 -159.5t-221.5 -104t-235.5 -38q-252 0 -414 170.5t-162 442.5q0 188 77.5 369t203.5 315t295.5 216.5t345.5 82.5zM963 1497q-105 0 -203.5 -82.5t-171.5 -224.5
t-111 -320h785q8 76 8 177q0 222 -79 336t-228 114zM774 53q111 0 209.5 92.5t167.5 255t98 367.5h-790q-17 -122 -17 -219q0 -238 91.5 -367t240.5 -129z" />
    <glyph glyph-name="uni04E9" unicode="&#x4e9;" horiz-adv-x="1214" 
d="M725 1108q121 0 210 -37t138 -100t71.5 -134.5t22.5 -152.5q0 -95 -30 -194.5t-89 -190.5t-138.5 -163.5t-186 -115.5t-223.5 -43q-95 0 -171.5 27t-126.5 72t-83.5 106t-47.5 125t-14 133q0 125 49.5 245t135 214t212.5 151.5t271 57.5zM690 1024q-123 0 -224.5 -128
t-135.5 -316h559q10 68 10 125q0 142 -53.5 230.5t-155.5 88.5zM545 61q96 0 190.5 130.5t138.5 310.5h-555q-2 -23 -2 -68q0 -160 60 -266.5t168 -106.5z" />
    <glyph glyph-name="uni04EE" unicode="&#x4ee;" horiz-adv-x="1345" 
d="M743 1905h580l-23 -119h-579zM1169 1526l7 30h419l-6 -30l-174 -72l-721 -1102q-93 -143 -159 -219t-138.5 -114.5t-163.5 -38.5q-137 0 -182 92l213 372h41q-62 -108 -80 -159q-21 -56 6 -91.5t82 -35.5q100 0 174 50t146 161l-314 1091l-157 66l6 30h625l-7 -30
l-151 -47l205 -789l501 778z" />
    <glyph glyph-name="uni04EF" unicode="&#x4ef;" horiz-adv-x="1150" 
d="M1038 1253h-579l22 119h580zM45 -424l-207 254l47 37q48 -40 75.5 -60t68 -39.5t75.5 -19.5q58 0 126.5 42.5t119.5 106.5t62 123l-197 979l-141 45l6 31h543l-7 -31l-147 -45l147 -729l410 736l-139 38l6 31h399l-6 -31l-184 -45l-475 -858q-51 -92 -119.5 -186.5
t-147.5 -181.5t-163 -142t-152 -55z" />
    <glyph glyph-name="Wgrave" unicode="&#x1e80;" horiz-adv-x="2045" 
d="M1397 1659h-27q-126 110 -200 196.5t-74 126.5q0 62 65 62q54 0 119.5 -106.5t116.5 -278.5zM565 0h-69l-211 1432l-152 94l6 30h625l-6 -30l-140 -66l140 -930l491 1026h195l153 -1026l451 930l-184 66l6 30h399l-6 -30l-137 -68l-721 -1458h-70l-178 1208z" />
    <glyph glyph-name="wgrave" unicode="&#x1e81;" horiz-adv-x="1716" 
d="M1092 1178h-27q-126 110 -200 196.5t-74 126.5q0 62 65 62q54 0 119.5 -106.5t116.5 -278.5zM510 0h-164l-125 983l-147 61l6 31h543l-7 -31l-124 -45l100 -680l342 756h227l105 -756l309 687l-139 38l6 31h399l-6 -31l-184 -43l-467 -1001h-164l-109 860z" />
    <glyph glyph-name="Wacute" unicode="&#x1e82;" horiz-adv-x="2045" 
d="M1325 1659h-27q122 178 227 281.5t167 103.5q22 0 39.5 -13t17.5 -32q0 -42 -117.5 -135t-306.5 -205zM565 0h-69l-211 1432l-152 94l6 30h625l-6 -30l-140 -66l140 -930l491 1026h195l153 -1026l451 930l-184 66l6 30h399l-6 -30l-137 -68l-721 -1458h-70l-178 1208z
" />
    <glyph glyph-name="wacute" unicode="&#x1e83;" horiz-adv-x="1716" 
d="M1020 1178h-27q122 178 226.5 281.5t166.5 103.5q22 0 40 -13t18 -32q0 -42 -117.5 -135t-306.5 -205zM510 0h-164l-125 983l-147 61l6 31h543l-7 -31l-124 -45l100 -680l342 756h227l105 -756l309 687l-139 38l6 31h399l-6 -31l-184 -43l-467 -1001h-164l-109 860z" />
    <glyph glyph-name="Wdieresis" unicode="&#x1e84;" horiz-adv-x="2045" 
d="M1171 1659q-52 0 -82 29t-30 77q0 66 50 116t116 50q52 0 82 -30t30 -78q0 -65 -49 -114.5t-117 -49.5zM1563 1659q-52 0 -82.5 29t-30.5 77q0 66 50 116t116 50q52 0 82.5 -30t30.5 -78q0 -65 -49 -114.5t-117 -49.5zM565 0h-69l-211 1432l-152 94l6 30h625l-6 -30
l-140 -66l140 -930l491 1026h195l153 -1026l451 930l-184 66l6 30h399l-6 -30l-137 -68l-721 -1458h-70l-178 1208z" />
    <glyph glyph-name="wdieresis" unicode="&#x1e85;" horiz-adv-x="1716" 
d="M874 1178q-52 0 -82 29t-30 77q0 66 50 116t116 50q52 0 82 -30.5t30 -78.5q0 -65 -49 -114t-117 -49zM1266 1178q-52 0 -82.5 29t-30.5 77q0 66 50 116t116 50q52 0 82.5 -30.5t30.5 -78.5q0 -65 -49 -114t-117 -49zM510 0h-164l-125 983l-147 61l6 31h543l-7 -31
l-124 -45l100 -680l342 756h227l105 -756l309 687l-139 38l6 31h399l-6 -31l-184 -43l-467 -1001h-164l-109 860z" />
    <glyph glyph-name="uni1E9E" unicode="&#x1e9e;" horiz-adv-x="1466" 
d="M928 -23q-234 0 -303 187l123 233h69q-35 -109 -35 -184q0 -44 14 -74t40 -45t53 -20.5t61 -5.5q123 0 202 58t79 146q0 49 -30 79t-107 61q-7 3 -39.5 16t-44 18.5t-40 21t-41.5 27.5t-33.5 34.5t-29.5 45.5t-16.5 56t-7.5 71q0 64 19 118t48.5 91.5t66 70.5t73 61.5
t66 58t48.5 67t19 80.5q0 90 -72.5 142.5t-179.5 52.5q-55 0 -102.5 -15.5t-79.5 -39t-58.5 -57t-42 -63t-27.5 -64t-16.5 -53t-7.5 -36.5l-217 -1116h-430l6 31l145 63l189 975q3 19 9 43.5t26 76.5t47 99.5t75.5 101.5t108 93.5t148 65.5t192.5 26q180 0 274.5 -74.5
t94.5 -210.5q0 -70 -25.5 -124.5t-61.5 -89t-72 -65.5t-61.5 -69t-25.5 -84q0 -27 9.5 -49t22.5 -36.5t37.5 -29.5t43.5 -23t53 -22.5t53 -23.5q47 -21 76 -40t55.5 -47t38.5 -67t12 -92q0 -124 -62.5 -227t-175.5 -163.5t-253 -60.5z" />
    <glyph glyph-name="Ygrave" unicode="&#x1ef2;" horiz-adv-x="1368" 
d="M985 1659h-27q-126 110 -200 196.5t-74 126.5q0 62 66 62q54 0 119 -106t116 -279zM891 0h-604l6 31l170 82l90 462l-252 885l-158 66l7 30h624l-6 -30l-152 -47l211 -817l516 806l-172 58l7 30h419l-6 -30l-174 -72l-565 -866l-92 -475l137 -82z" />
    <glyph glyph-name="ygrave" unicode="&#x1ef3;" horiz-adv-x="1150" 
d="M774 1178h-26q-126 110 -200.5 196.5t-74.5 126.5q0 62 66 62q54 0 119 -106t116 -279zM45 -424l-207 254l47 37q48 -40 75.5 -60t68 -39.5t75.5 -19.5q58 0 126.5 42.5t119.5 106.5t62 123l-197 979l-141 45l6 31h543l-7 -31l-147 -45l147 -729l410 736l-139 38l6 31
h399l-6 -31l-184 -45l-475 -858q-51 -92 -119.5 -186.5t-147.5 -181.5t-163 -142t-152 -55z" />
    <glyph glyph-name="uni2009" unicode="&#x2009;" horiz-adv-x="446" 
 />
    <glyph glyph-name="endash" unicode="&#x2013;" horiz-adv-x="937" 
d="M823 506h-723l27 139h723z" />
    <glyph glyph-name="emdash" unicode="&#x2014;" horiz-adv-x="1347" 
d="M1233 506h-1133l27 139h1133z" />
    <glyph glyph-name="quoteleft" unicode="&#x2018;" horiz-adv-x="360" 
d="M272 1065q-39 0 -62.5 22t-23.5 64q0 84 82 211.5t189 208.5h41q-58 -49 -98 -118.5t-40 -135.5q0 -84 48 -135q-9 -53 -47 -85t-89 -32z" />
    <glyph glyph-name="quoteright" unicode="&#x2019;" horiz-adv-x="370" 
d="M221 1065h-41q61 52 99 119t38 127q0 41 -13 80.5t-34 62.5q10 54 47.5 85.5t88.5 31.5q39 0 62.5 -23.5t23.5 -68.5q0 -77 -75.5 -200t-195.5 -214z" />
    <glyph glyph-name="quotesinglbase" unicode="&#x201a;" horiz-adv-x="395" 
d="M-86 -336h-27q174 180 174 303q0 63 -59 154q12 57 53 92t90 35q47 0 75 -27t28 -71q0 -85 -93 -220t-241 -266z" />
    <glyph glyph-name="quotedblleft" unicode="&#x201c;" horiz-adv-x="663" 
d="M272 1065q-39 0 -62.5 22t-23.5 64q0 84 82 211.5t189 208.5h41q-58 -49 -98 -118.5t-40 -135.5q0 -84 48 -135q-9 -53 -47 -85t-89 -32zM575 1065q-39 0 -62.5 22t-23.5 64q0 84 82 211.5t189 208.5h41q-58 -49 -97.5 -118.5t-39.5 -135.5q0 -85 47 -135q-9 -53 -47 -85
t-89 -32z" />
    <glyph glyph-name="quotedblright" unicode="&#x201d;" horiz-adv-x="661" 
d="M221 1065h-41q61 52 99 119t38 127q0 41 -13 80.5t-34 62.5q10 54 47.5 85.5t88.5 31.5q39 0 62.5 -23.5t23.5 -68.5q0 -77 -75.5 -200t-195.5 -214zM512 1065h-41q61 52 99 119t38 127q0 41 -13 80.5t-34 62.5q10 54 47 85.5t88 31.5q39 0 62.5 -23.5t23.5 -68.5
q0 -77 -75 -200t-195 -214z" />
    <glyph glyph-name="quotedblbase" unicode="&#x201e;" horiz-adv-x="659" 
d="M-53 -309h-41q61 52 99 119t38 127q0 41 -13 80.5t-34 62.5q10 54 47 85.5t88 31.5q39 0 62.5 -24t23.5 -69q0 -77 -75 -199.5t-195 -213.5zM238 -309h-41q61 52 99 119t38 127q0 41 -13 80.5t-34 62.5q10 54 47 85.5t88 31.5q39 0 62.5 -24t23.5 -69q0 -77 -75 -199.5
t-195 -213.5z" />
    <glyph glyph-name="dagger" unicode="&#x2020;" horiz-adv-x="1150" 
d="M1061 1192l102 154h62l-119 -605h-62l-40 154h-209l-148 -762l139 -72l-12 -61h-604l12 61l168 72l148 762h-191l-123 -154h-61l119 605h61l62 -154h190l57 293l-135 92l12 61h605l-13 -61l-172 -92l-57 -293h209z" />
    <glyph glyph-name="daggerdbl" unicode="&#x2021;" horiz-adv-x="1130" 
d="M934 881h-604l12 61l209 72l27 139h-170l-129 -195h-62l117 605h61l54 -195h169l25 117l-178 92l12 61h604l-12 -61l-211 -92l-24 -117h188l111 195h61l-117 -605h-61l-35 195h-188l-27 -139l180 -72zM764 0h-604l10 61l209 72l27 139h-170l-130 -194h-61l117 604h61
l56 -195h170l22 117l-176 92l12 62h604l-12 -62l-213 -92l-22 -117h188l109 195h61l-117 -604h-61l-35 194h-188l-27 -139l180 -72z" />
    <glyph glyph-name="bullet" unicode="&#x2022;" horiz-adv-x="731" 
d="M334 375q-80 0 -127 48.5t-47 123.5q0 101 75 174.5t181 73.5q77 0 124.5 -51.5t47.5 -127.5q0 -100 -75 -170.5t-179 -70.5z" />
    <glyph glyph-name="ellipsis" unicode="&#x2026;" horiz-adv-x="1220" 
d="M115 -23q-51 0 -82 31.5t-31 79.5q0 65 48.5 112.5t117.5 47.5q50 0 80.5 -32.5t30.5 -82.5q0 -64 -48 -110t-116 -46zM514 -23q-51 0 -82 31.5t-31 79.5q0 65 48.5 112.5t117.5 47.5q50 0 80.5 -32.5t30.5 -82.5q0 -64 -48 -110t-116 -46zM913 -23q-51 0 -81.5 31.5
t-30.5 79.5q0 65 48.5 112.5t117.5 47.5q50 0 80 -32.5t30 -82.5q0 -64 -48 -110t-116 -46z" />
    <glyph glyph-name="perthousand" unicode="&#x2030;" horiz-adv-x="2736" 
d="M459 815q-72 0 -127.5 29t-87.5 77.5t-48 105t-16 118.5q0 82 33.5 169t90.5 161.5t144 122t185 47.5q72 0 127.5 -30t88.5 -79.5t49.5 -108.5t16.5 -122q0 -65 -21 -133.5t-61.5 -132t-95 -114t-127 -80.5t-151.5 -30zM489 883q38 0 74.5 26t69 80t52.5 151.5t20 225.5
q0 99 -26 156t-79 57q-30 0 -59.5 -16t-58.5 -54t-50.5 -93t-35 -139t-13.5 -187q0 -96 26 -151.5t80 -55.5zM362 0h-122l1384 1556h127zM1405 -12q-72 0 -127.5 28.5t-87.5 77t-48 105t-16 118.5q0 82 33.5 169t90.5 161.5t144 122t185 47.5q58 0 106 -20t80 -53
t54.5 -77.5t32.5 -92t10 -97.5q0 -81 -34 -167t-92 -158t-145.5 -118t-185.5 -46zM2206 -12q-72 0 -127.5 28.5t-87.5 77t-48 105t-16 118.5q0 82 33.5 169t90.5 161.5t144 122t185 47.5q72 0 127.5 -30t88.5 -79.5t49.5 -108.5t16.5 -122q0 -65 -21 -133.5t-61.5 -131.5
t-95 -113.5t-127 -80.5t-151.5 -30zM1436 55q38 0 74.5 26.5t69 80.5t52 151.5t19.5 225.5q0 99 -26 156t-79 57q-38 0 -74.5 -27.5t-69.5 -83t-53 -154t-20 -225.5q0 -96 26.5 -151.5t80.5 -55.5zM2236 55q38 0 74.5 26.5t69 80.5t52 151.5t19.5 225.5q0 213 -104 213
q-38 0 -74.5 -27.5t-69.5 -83t-53 -154t-20 -225.5q0 -96 26 -151.5t80 -55.5z" />
    <glyph glyph-name="guilsinglleft" unicode="&#x2039;" horiz-adv-x="620" 
d="M457 145h-62l-332 361l11 53l471 359h61q-40 -44 -167 -178.5t-187 -207.5q32 -75 109.5 -213t95.5 -174z" />
    <glyph glyph-name="guilsinglright" unicode="&#x203a;" horiz-adv-x="620" 
d="M74 145h-62q46 52 171 183.5t186 203.5q-32 74 -108.5 208t-98.5 178h61l332 -359l-10 -53z" />
    <glyph glyph-name="fraction" unicode="&#x2044;" horiz-adv-x="409" 
d="M-381 0h-123l1385 1556h127z" />
    <glyph glyph-name="Euro" unicode="&#x20ac;" horiz-adv-x="1302" 
d="M1024 1573q117 0 199.5 -48t124.5 -128l-62 -307h-61q32 165 -22 281t-181 116q-100 0 -190 -73.5t-154.5 -195.5t-104.5 -280h316l-25 -127h-317q-14 -81 -19 -145h308l-25 -127h-289v-19q0 -210 58.5 -333.5t169.5 -123.5q119 0 219 111t135 287h61l-59 -307
q-73 -79 -172.5 -128t-214.5 -49q-194 0 -313 153.5t-130 408.5h-188l25 127h163q2 59 17 145h-152l25 127h156q82 285 275.5 460t426.5 175z" />
    <glyph glyph-name="uni20B4" unicode="&#x20b4;" horiz-adv-x="1398" 
d="M1233 1008h145l-24 -127h-1194l24 127h656q92 45 149.5 134t57.5 191q0 170 -189 170q-140 0 -227 -84t-117 -237q-9 -49 -12 -107h-62l-39 332q35 26 78.5 51.5t106.5 53t142.5 44.5t160.5 17q247 0 363 -77.5t116 -215.5q0 -67 -35 -139.5t-100 -132.5zM256 635h-143
l24 127h1194l-24 -127h-627q-119 -61 -181.5 -156.5t-62.5 -212.5q0 -91 56 -149t165 -58q169 0 284 109t151 293q11 48 14 104h61l68 -348q-149 -120 -293.5 -180t-310.5 -60q-127 0 -221.5 28t-149 77.5t-80.5 110t-26 133.5q0 164 102 309z" />
    <glyph glyph-name="uni20B8" unicode="&#x20b8;" horiz-adv-x="1349" 
d="M299 1430l25 126h1095l-24 -126h-1096zM870 0h-604l6 31l170 82l209 1075h-266l-197 -221h-51l133 317h1096l10 -317h-51l-111 221h-266l-209 -1075l138 -82z" />
    <glyph glyph-name="uni20BD" unicode="&#x20bd;" horiz-adv-x="1402" 
d="M791 727h-162l-29 -145h533l-25 -127h-533l-65 -342l137 -82l-6 -31h-604l6 31l170 82l66 342h-187l25 127h188l27 145h-187l25 127h186l119 606l-141 66l6 30h661q92 0 173 -21t144.5 -60.5t100.5 -103.5t37 -144q0 -143 -90 -258.5t-241.5 -178.5t-333.5 -63zM901 1454
h-131l-121 -625h131q177 0 283 105t106 295q0 225 -268 225z" />
    <glyph glyph-name="uni2116" unicode="&#x2116;" horiz-adv-x="2336" 
d="M2054 1577q82 0 145 -27.5t99.5 -74t55 -102.5t18.5 -118q0 -71 -22.5 -144t-66 -137.5t-102 -115.5t-137 -80.5t-164.5 -29.5q-82 0 -145 27.5t-99.5 73.5t-54.5 102t-18 118q0 90 35.5 180t98 163t156.5 119t201 46zM381 0h-399l6 31l170 82l262 1347l-141 66l6 30h268
l618 -1001l177 905l-142 66l6 30h400l-6 -30l-166 -66l-285 -1460h-72l-651 1042l-180 -929l135 -82zM1909 813q65 0 116.5 49.5t80.5 126.5t44 160t15 162q0 200 -140 200q-52 0 -96 -33t-73 -85t-49 -119t-29 -132.5t-9 -127.5q0 -201 140 -201zM2195 477h-714l24 127h715
z" />
    <glyph glyph-name="trademark" unicode="&#x2122;" horiz-adv-x="1400" 
d="M512 948h-238l5 25l77 31l99 503h-131l-58 -73h-35l52 122h454l4 -122h-34l-29 73h-133l-99 -503l70 -31zM920 948h-236l2 15l80 41l96 491l-43 43l4 18h201l76 -442l241 442h140l-4 -18l-58 -43l-96 -491l61 -41l-2 -15h-237l2 15l86 41l80 411l-258 -467h-39l-80 467
l-80 -411l66 -41z" />
    <glyph glyph-name="oneeighth" unicode="&#x215b;" horiz-adv-x="1730" 
d="M543 827h-383l4 21l117 41l125 649l-189 -164l8 41l193 221h262l-6 -30l-92 -19l-136 -698l101 -41zM240 0h-123l1384 1556h127zM1235 -12q-129 0 -204 51t-75 139q0 86 66 159t170 97q-58 15 -91.5 56.5t-33.5 97.5q0 100 94.5 164.5t239.5 64.5q114 0 182 -46.5
t68 -119.5q0 -65 -56 -123.5t-145 -91.5h-43q96 -15 151.5 -66.5t55.5 -125.5q0 -110 -107.5 -183t-271.5 -73zM1329 461q59 0 101.5 52.5t42.5 129.5q0 54 -26.5 87.5t-70.5 33.5q-62 0 -101.5 -52t-39.5 -128q0 -55 25 -89t69 -34zM1255 43q79 0 132 59t53 152
q0 67 -34 108t-93 41q-77 0 -132 -62t-55 -153q0 -66 34.5 -105.5t94.5 -39.5z" />
    <glyph glyph-name="threeeighths" unicode="&#x215c;" horiz-adv-x="1873" 
d="M371 815q-98 0 -163.5 35.5t-74.5 93.5l76 168h33q-21 -101 -21 -117q0 -56 45.5 -93.5t120.5 -37.5q89 0 154 76t65 176q0 48 -24 76.5t-66 28.5q-36 0 -149 -37l8 41q120 47 185 119t65 155q0 42 -27 67t-72 25q-65 0 -120.5 -51.5t-69.5 -122.5q-12 -61 -17 -88h-22
l-33 170q55 66 133.5 106t149.5 40q109 0 173 -38t64 -102q0 -72 -83 -140t-195 -112q112 19 185 -18t73 -121q0 -127 -113.5 -213t-279.5 -86zM383 0h-123l1385 1556h127zM1378 -12q-129 0 -203.5 51t-74.5 139q0 86 65.5 159t169.5 97q-58 15 -91.5 56.5t-33.5 97.5
q0 100 94.5 164.5t239.5 64.5q114 0 182 -46.5t68 -119.5q0 -65 -56 -123.5t-145 -91.5h-43q96 -15 151.5 -66.5t55.5 -125.5q0 -110 -107.5 -183t-271.5 -73zM1473 461q59 0 101 52.5t42 129.5q0 54 -26 87.5t-70 33.5q-62 0 -102 -52t-40 -128q0 -55 25.5 -89t69.5 -34z
M1399 43q79 0 131.5 59t52.5 152q0 67 -34 108t-93 41q-77 0 -131.5 -62t-54.5 -153q0 -66 34.5 -105.5t94.5 -39.5z" />
    <glyph glyph-name="fiveeighths" unicode="&#x215d;" horiz-adv-x="2039" 
d="M477 817q-253 0 -325 275h38q31 -103 96.5 -160.5t155.5 -57.5q120 0 197.5 87t77.5 208q0 63 -27.5 103.5t-85.5 40.5q-59 0 -115.5 -44.5t-91.5 -113.5h-135l166 426l-78 25l6 30h529l8 -170h-23l-86 119h-219l-135 -328q101 119 240 119q99 0 163 -60t64 -159
t-62 -178t-157 -120.5t-201 -41.5zM532 0h-122l1384 1556h127zM1528 -12q-129 0 -204 51t-75 139q0 86 66 159t170 97q-58 15 -91.5 56.5t-33.5 97.5q0 100 94.5 164.5t239.5 64.5q114 0 182 -46.5t68 -119.5q0 -65 -56 -123.5t-145 -91.5h-43q96 -15 151.5 -66.5
t55.5 -125.5q0 -110 -107.5 -183t-271.5 -73zM1622 461q59 0 101 52.5t42 129.5q0 54 -26 87.5t-70 33.5q-62 0 -101.5 -52t-39.5 -128q0 -55 25 -89t69 -34zM1548 43q79 0 132 59t53 152q0 67 -34 108t-93 41q-77 0 -132 -62t-55 -153q0 -66 34.5 -105.5t94.5 -39.5z" />
    <glyph glyph-name="seveneighths" unicode="&#x215e;" horiz-adv-x="1695" 
d="M332 827h-162l215 394h-152l11 51h164l190 313h-223l-109 -119h-24l73 170h535l-6 -30l-78 -17l-195 -325h103l-8 -43h-117zM205 0h-123l1384 1556h127zM1200 -12q-129 0 -203.5 51t-74.5 139q0 86 65.5 159t169.5 97q-58 15 -91.5 56.5t-33.5 97.5q0 100 94.5 164.5
t239.5 64.5q114 0 182 -46.5t68 -119.5q0 -65 -56 -123.5t-145 -91.5h-43q96 -15 151.5 -66.5t55.5 -125.5q0 -110 -107.5 -183t-271.5 -73zM1294 461q59 0 101.5 52.5t42.5 129.5q0 54 -26.5 87.5t-70.5 33.5q-62 0 -101.5 -52t-39.5 -128q0 -55 25 -89t69 -34zM1221 43
q79 0 131.5 59t52.5 152q0 67 -34 108t-93 41q-77 0 -131.5 -62t-54.5 -153q0 -66 34.5 -105.5t94.5 -39.5z" />
    <glyph glyph-name="arrowleft" unicode="&#x2190;" horiz-adv-x="2500" 
d="M565 309l-51 2l-403 369l6 33l547 368l51 2l-336 -329h2070l-20 -111h-2071z" />
    <glyph glyph-name="arrowup" unicode="&#x2191;" horiz-adv-x="856" 
d="M299 -410h-111l349 1794l-383 -272l10 51l461 475h32l279 -475l-10 -51l-279 272z" />
    <glyph glyph-name="arrowright" unicode="&#x2192;" horiz-adv-x="2498" 
d="M1898 311l-53 -2l338 334h-2070l20 111h2071l-207 329l51 -2l403 -368l-8 -33z" />
    <glyph glyph-name="arrowdown" unicode="&#x2193;" horiz-adv-x="856" 
d="M258 -410h-33l-276 476l10 51l277 -273l348 1794h110l-348 -1794l385 273l-10 -51z" />
    <glyph glyph-name="arrowboth" unicode="&#x2194;" horiz-adv-x="2410" 
d="M561 309h-51l-404 371l7 33l546 368h52l-336 -329h1745l-209 329h51l403 -368l-6 -33l-547 -371h-51l336 332h-1745z" />
    <glyph glyph-name="arrowupdn" unicode="&#x2195;" horiz-adv-x="888" 
d="M276 -410h-32l-277 476l10 51l277 -273l299 1540l-383 -272l10 51l461 475h33l278 -475l-10 -51l-278 272l-299 -1540l385 273l-11 -51z" />
    <glyph glyph-name="uni2196" unicode="&#x2196;" horiz-adv-x="1409" 
d="M1196 -354l-106 -56l-689 1792l-229 -401l-16 45l198 596l31 16l514 -227l16 -43l-407 70z" />
    <glyph glyph-name="uni2197" unicode="&#x2197;" horiz-adv-x="1411" 
d="M1339 1382l-1384 -1792l-86 56l1384 1792l-436 -70l37 43l600 227l27 -16l-35 -596l-33 -45z" />
    <glyph glyph-name="uni2198" unicode="&#x2198;" horiz-adv-x="1406" 
d="M1085 -393l-30 -17l-514 228l-17 43l408 -70l-688 1792l106 55l688 -1792l230 402l16 -45z" />
    <glyph glyph-name="uni2199" unicode="&#x2199;" horiz-adv-x="1406" 
d="M586 -182l-602 -228l-25 17l35 596l33 45l73 -402l1385 1792l86 -55l-1387 -1792l437 70z" />
    <glyph glyph-name="partialdiff" unicode="&#x2202;" horiz-adv-x="1181" 
d="M418 -23q-180 0 -295 101.5t-115 273.5q0 119 52.5 236t137 204.5t197 142t226.5 54.5q113 0 213.5 -52t130.5 -134l10 -2q45 237 -48.5 432.5t-287.5 282.5l16 57q229 -87 360.5 -266.5t131.5 -427.5q0 -177 -59.5 -343.5t-158 -288.5t-233 -196t-278.5 -74zM449 109
q109 0 211.5 82.5t176.5 219.5t107 300q-116 155 -289 155q-184 0 -313 -137t-129 -334q0 -126 64.5 -206t171.5 -80z" />
    <glyph glyph-name="emptyset" unicode="&#x2205;" horiz-adv-x="1650" 
d="M1577 1274l-104 -98q112 -133 112 -342q0 -238 -117.5 -434.5t-323 -309.5t-454.5 -113q-229 0 -373 101l-127 -121l-69 78l117 110q-125 134 -125 349q0 119 31.5 232.5t88.5 209t138 176.5t178 137t211.5 87.5t234.5 31.5q249 0 400 -117l102 97zM383 512
q0 -107 29 -199l839 799q-46 82 -123 126t-178 44q-114 0 -218.5 -61.5t-181 -165.5t-122 -246t-45.5 -297zM758 63q154 0 282.5 100.5t202.5 274.5t74 383q0 95 -23 185l-833 -793q101 -150 297 -150z" />
    <glyph glyph-name="product" unicode="&#x220f;" horiz-adv-x="1394" 
d="M377 -205h-451l6 31l170 82l301 1552l-141 66l6 30h1254l-6 -30l-166 -66l-301 -1552l137 -82l-6 -31h-451l324 1665h-353z" />
    <glyph glyph-name="summation" unicode="&#x2211;" horiz-adv-x="1263" 
d="M975 -205h-1073l12 62l152 55l546 743l-204 805l-121 35l12 61h977l8 -317h-41l-172 221h-362l200 -805l-567 -747h510l213 205h41z" />
    <glyph glyph-name="minus" unicode="&#x2212;" horiz-adv-x="905" 
d="M809 512h-723l25 127h723z" />
    <glyph glyph-name="radical" unicode="&#x221a;" horiz-adv-x="1484" 
d="M481 -205h-123l-223 793l-145 59l6 31h543l-7 -31l-143 -51l143 -576l723 1536h486l-6 -30l-435 -45z" />
    <glyph glyph-name="infinity" unicode="&#x221e;" horiz-adv-x="1640" 
d="M375 248q-124 0 -199.5 73t-75.5 193q0 109 55 198.5t144 138t190 48.5q108 0 199.5 -58.5t159.5 -160.5q229 219 440 219q118 0 191 -73.5t73 -192.5q0 -165 -117 -275t-282 -110q-114 0 -196.5 57.5t-151.5 161.5q-107 -103 -211.5 -161t-218.5 -58zM414 383
q79 0 175.5 52.5t158.5 137.5q-32 82 -111 138.5t-158 56.5q-89 0 -157 -64t-68 -159q0 -72 45.5 -117t114.5 -45zM1165 383q93 0 164.5 65t71.5 162q0 71 -43.5 114.5t-110.5 43.5q-79 0 -178 -55.5t-166 -139.5q30 -85 106 -137.5t156 -52.5z" />
    <glyph glyph-name="integral" unicode="&#x222b;" horiz-adv-x="956" 
d="M18 -270q-68 0 -107.5 24.5t-47.5 65.5l80 274h57q-15 -79 -20.5 -129t-1.5 -89.5t22.5 -57t52.5 -17.5q107 0 183 202q54 145 124 518q4 26 14 80q22 119 34 179q20 100 37.5 177t43.5 163.5t54 149.5t67.5 123.5t84.5 98t104.5 60.5t128.5 23q45 0 79.5 -10t54 -24
t33 -36t18.5 -39.5t9 -40.5l-80 -276h-57q35 158 23 254t-84 96q-87 0 -140.5 -141t-121.5 -496q-75 -387 -113 -528q-92 -341 -230 -481q-122 -123 -301 -123z" />
    <glyph glyph-name="approxequal" unicode="&#x2248;" horiz-adv-x="997" 
d="M176 604h-61q26 127 100 212t174 85q40 0 75.5 -15t62 -36t53 -42.5t59 -36.5t68.5 -15q123 0 157 139h62q-33 -138 -102 -217.5t-177 -79.5q-45 0 -83 15t-64.5 36t-50.5 42.5t-51.5 36.5t-57.5 15q-46 0 -96 -33t-68 -106zM145 246h-61q26 127 100 212t174 85
q40 0 75.5 -15t62 -36.5l53 -43t59 -36.5t68.5 -15q52 0 96 32t62 108h61q-33 -138 -102 -217.5t-177 -79.5q-45 0 -83 15t-64.5 36t-50.5 42.5t-51.5 36.5t-57.5 15q-46 0 -96 -33t-68 -106z" />
    <glyph glyph-name="notequal" unicode="&#x2260;" horiz-adv-x="919" 
d="M877 823l-25 -127h-260l-139 -241h352l-25 -127h-399l-154 -267h-123l152 267h-199l25 127h248l137 241h-338l25 127h387l151 267h125l-153 -267h213z" />
    <glyph glyph-name="lessequal" unicode="&#x2264;" horiz-adv-x="1050" 
d="M119 606l932 457l-29 -148l-703 -340l570 -342l-21 -106l-24 -127h-850l24 127h775l-687 418z" />
    <glyph glyph-name="greaterequal" unicode="&#x2265;" horiz-adv-x="1038" 
d="M203 1063l755 -457l-12 -61l-850 -418h774l-24 -127h-850l16 86l29 147l704 342l-571 340z" />
    <glyph glyph-name="lozenge" unicode="&#x25ca;" horiz-adv-x="1054" 
d="M477 -29h-123l-250 643l500 643h123l254 -643zM307 614l195 -460l356 460l-178 461z" />
    <glyph glyph-name="B.ss01" horiz-adv-x="1431" 
d="M989 786q65 -12 125.5 -36.5t115 -63t87.5 -97t33 -128.5q0 -128 -88 -234t-241.5 -166.5t-338.5 -60.5h-719l6 31l170 82l262 1347l-141 66l6 30h645q145 0 258.5 -34.5t183.5 -108.5t70 -178q0 -150 -119.5 -275t-314.5 -174zM760 1454h-64l-90 -459l430 320h31
q-91 -82 -145 -132.5t-114.5 -112.5t-89 -104t-28.5 -69q0 -61 125 -61q80 0 143.5 35t102.5 93.5t59.5 130.5t20.5 152q0 46 -13.5 80.5t-41.5 56.5t-60 36.5t-79 21.5t-89 9.5t-98 2.5zM434 104h154q102 0 185.5 21.5t151 68t105 127t37.5 189.5q0 54 -17.5 92.5
t-54.5 62.5t-73 37.5t-95 28.5q-63 17 -93.5 26t-76.5 29.5t-82 47.5z" />
    </font>
</defs>
</svg>
