<?xml version="1.0" standalone="no"?>
<!DOCTYPE svg PUBLIC "-//W3C//DTD SVG 1.1//EN" "http://www.w3.org/Graphics/SVG/1.1/DTD/svg11.dtd" >
<svg xmlns="http://www.w3.org/2000/svg" xmlns:xlink="http://www.w3.org/1999/xlink" version="1.1">
<metadata>
Created by FontForge 20170731 at Tue Feb  2 19:50:33 2021
 By Aleksey,,,
Copyright (c) 2020 by Matthieu Salvaggio. All rights reserved.
</metadata>
<defs>
<font id="ApocLC-Light" horiz-adv-x="1034" >
  <font-face 
    font-family="Apoc LC Light"
    font-weight="300"
    font-stretch="normal"
    units-per-em="2048"
    panose-1="0 0 4 0 0 0 0 0 0 0"
    ascent="1638"
    descent="-410"
    x-height="1036"
    cap-height="1556"
    bbox="-1432 -500 2482 2126"
    underline-thickness="102"
    underline-position="-307"
    unicode-range="U+0020-FB02"
  />
<missing-glyph horiz-adv-x="1173" 
d="M1120 0h-1069v25l154 59v1382l-154 66v24h1069v-24l-153 -66v-1382l153 -59v-25zM317 1485v-1342l533 1342h-533zM854 1354l-512 -1282h512v1282z" />
    <glyph glyph-name="fi" unicode="fi" horiz-adv-x="1067" 
d="M436 0h-387v23l133 55v895h-127v63h127v221q0 90 15.5 162.5t47.5 130.5t88.5 89.5t133.5 31.5q47 0 81.5 -12.5t58.5 -32.5t47.5 -41.5t62.5 -43.5t88 -34q62 -17 92.5 -40.5t30.5 -69.5q0 -44 -26.5 -71.5t-72.5 -27.5q-40 0 -68.5 25t-58.5 72q-6 9 -23.5 38
t-25.5 41.5t-25.5 37t-31 36t-33 25.5t-40.5 20t-44 6q-95 0 -135.5 -83t-40.5 -234v-246h594v-973l133 -40v-23h-389v23l133 40v910h-471v-895l133 -55v-23z" />
    <glyph glyph-name="fl" unicode="fl" horiz-adv-x="1130" 
d="M436 0h-387v23l133 40v910h-127v63h127v228q0 185 67.5 296t205.5 111q65 0 125 -19.5t112.5 -39t100.5 -19.5q69 0 141 45h27v-1575l133 -40v-23h-389v23l133 40v1237q0 78 -39 139t-98.5 94t-118.5 49.5t-111 16.5q-168 0 -168 -317v-246h268v-63h-268v-910l133 -40
v-23z" />
    <glyph glyph-name="fh" unicode="fh" horiz-adv-x="1759" 
d="M436 0h-387v23l133 40v910h-127v63h127v228q0 407 273 407q71 0 180.5 -39t171.5 -39q68 0 143 45h25v-823q15 38 40 76t66.5 80.5t105 69t138.5 26.5q122 0 194 -74t72 -233v-697l133 -40v-23h-385v23l129 40v625q0 160 -54.5 232.5t-147.5 72.5q-107 0 -183.5 -81.5
t-109.5 -194.5v-654l135 -40v-23h-406v23l148 40v1237q0 63 -29 115.5t-72.5 85.5t-96.5 56t-99 32.5t-82 9.5q-41 0 -71.5 -15.5t-49 -41.5t-29 -67.5t-14.5 -86.5t-4 -106v-246h268v-63h-268v-910l133 -40v-23z" />
    <glyph glyph-name="fb" unicode="fb" horiz-adv-x="1648" 
d="M1176 -23q-71 0 -130 26t-93.5 58.5t-73.5 83.5l-72 -145h-35v1300q0 78 -31 139t-78.5 94t-97 49.5t-94.5 16.5q-41 0 -71.5 -15.5t-49 -41.5t-29 -67.5t-14.5 -86.5t-4 -106v-246h268v-63h-268v-910l133 -40v-23h-387v23l133 40v910h-127v63h127v228q0 407 273 407
q59 0 105.5 -19.5t86.5 -39t82 -19.5q69 0 141 45h27v-571q146 0 264 -35.5t194 -93.5t127.5 -136t73 -159.5t21.5 -167.5q0 -92 -26.5 -179.5t-75.5 -159t-127 -115.5t-172 -44zM1155 51q126 0 209.5 113t83.5 291q0 86 -20.5 167t-64.5 154t-107.5 127.5t-156 86.5
t-202.5 32v-840q47 -56 116 -93.5t142 -37.5z" />
    <glyph glyph-name="fk" unicode="fk" horiz-adv-x="1675" 
d="M436 0h-387v23l133 40v910h-127v63h127v228q0 185 67.5 296t205.5 111q65 0 125 -19.5t112.5 -39t100.5 -19.5q69 0 141 45h27v-1245l456 578l-178 43v22h399v-22l-168 -51l-262 -338l363 -568l123 -34v-23h-420v23l147 32l-297 461l-163 -211v-242l133 -40v-23h-389v23
l133 40v1237q0 78 -39 139t-98.5 94t-118.5 49.5t-111 16.5q-168 0 -168 -317v-246h268v-63h-268v-910l133 -40v-23z" />
    <glyph glyph-name="ffi" unicode="ffi" horiz-adv-x="1667" 
d="M436 0h-387v23l133 55v895h-127v63h127v228q0 122 27.5 211t89.5 142.5t156 53.5q72 0 134.5 -28.5t128.5 -73.5t107 -62q71 164 242 164q47 0 81.5 -12.5t58.5 -32.5t47.5 -41.5t62.5 -43.5t88 -34q62 -17 92.5 -40.5t30.5 -69.5q0 -44 -26.5 -71.5t-71.5 -27.5
q-40 0 -67 23.5t-58 69.5q-6 10 -23 38.5t-26 42t-26.5 37.5t-31.5 36.5t-33.5 27t-41.5 20.5t-46 6q-174 0 -174 -317v-246h594v-973l133 -40v-23h-389v23l133 40v910h-471v-895l133 -55v-23h-389v23l133 55v895h-477v-895l133 -55v-23zM303 1282v-246h477v260
q0 78 -45.5 148.5t-118 112.5t-149.5 42q-164 0 -164 -317z" />
    <glyph glyph-name="ffl" unicode="ffl" horiz-adv-x="1728" 
d="M436 0h-387v23l133 40v910h-127v63h127v221q0 189 68 301.5t205 112.5q55 0 108.5 -19t89.5 -43t84.5 -55.5t85.5 -46.5q66 164 232 164q65 0 125 -19.5t112 -39t99 -19.5q68 0 143 45h25v-1575l133 -40v-23h-387v23l133 40v1237q0 78 -39 139t-98.5 94t-118.5 49.5
t-111 16.5q-168 0 -168 -317v-246h268v-63h-268v-910l133 -40v-23h-389v23l133 40v910h-477v-910l133 -40v-23zM303 1282v-246h477v248q0 131 -97.5 223t-215.5 92q-164 0 -164 -317z" />
    <glyph glyph-name="ff" unicode="ff" horiz-adv-x="1179" 
d="M436 0h-387v23l133 40v910h-127v63h127v228q0 186 68 296.5t205 110.5q55 0 108 -18.5t89 -42.5t85 -54.5t86 -46.5q62 162 230 162q164 0 282 -158l-123 -315h-38q47 122 47 221q0 88 -42.5 134t-121.5 46q-156 0 -156 -339v-224h268v-63h-268v-910l133 -40v-23h-389v23
l133 40v910h-475v-910l133 -40v-23zM303 1282v-246h475v226q0 149 -91.5 243t-219.5 94q-164 0 -164 -317z" />
    <glyph glyph-name="ffh" unicode="ffh" horiz-adv-x="2359" 
d="M436 0h-387v23l133 40v910h-127v63h127v228q0 122 28 211t90.5 142.5t156.5 53.5q55 0 107.5 -18.5t88.5 -42.5t84 -54t84 -45q64 160 234 160q71 0 180.5 -39t171.5 -39q68 0 143 45h25v-823q15 38 40 76t66.5 80.5t105 69t138.5 26.5q122 0 193 -74t71 -233v-697
l133 -40v-23h-383v23l129 40v625q0 160 -54.5 232.5t-147.5 72.5q-107 0 -183.5 -81.5t-109.5 -194.5v-654l135 -40v-23h-405v23l147 40v1237q0 63 -29 115.5t-72.5 85.5t-96.5 56t-99 32.5t-82 9.5q-41 0 -71.5 -15.5t-49 -41.5t-29 -67.5t-14.5 -86.5t-4 -106v-246h268
v-63h-268v-910l133 -40v-23h-389v23l133 40v910h-477v-910l133 -40v-23zM303 1282v-246h477v260q0 118 -97 210.5t-214 92.5q-166 0 -166 -317z" />
    <glyph glyph-name="ffk" unicode="ffk" horiz-adv-x="2275" 
d="M436 0h-387v23l133 40v910h-127v63h127v228q0 122 28 211t90.5 142.5t156.5 53.5q71 0 133 -28t127.5 -72.5t105.5 -61.5q66 162 232 162q65 0 125 -19.5t112 -39t99 -19.5q68 0 143 45h25v-1247l454 574l-172 49v22h400v-22l-170 -53l-261 -336l361 -568l125 -34v-23
h-420v23l145 32l-295 461l-167 -211v-242l133 -40v-23h-387v23l133 40v1237q0 78 -39 139t-98.5 94t-118.5 49.5t-111 16.5q-168 0 -168 -317v-246h268v-63h-268v-910l133 -40v-23h-389v23l133 40v910h-477v-910l133 -40v-23zM303 1282v-246h477v260q0 118 -97 210.5
t-214 92.5q-166 0 -166 -317z" />
    <glyph glyph-name="st" unicode="st" horiz-adv-x="1517" 
d="M434 -23q-125 0 -216.5 51t-139.5 119l94 267h39q-23 -80 -23 -140q0 -109 63 -170t185 -61q132 0 209.5 61.5t77.5 151.5q0 36 -16 65t-39.5 49t-72 41t-90 34.5t-116.5 35.5q-270 86 -270 303q0 103 53 173.5t143 95.5q-4 153 62 276t182.5 191.5t259.5 68.5
q160 0 260.5 -86.5t100.5 -261.5v-205h260v-63h-260v-697q0 -122 32.5 -178.5t100.5 -56.5q109 0 164 145h39q-34 -102 -103 -155.5t-156 -53.5q-200 0 -200 299v697h-156v33q116 15 170.5 71.5t54.5 167.5q0 152 -85 222.5t-226 70.5q-139 0 -247 -64t-164 -173t-52 -242
q36 8 84 8q107 0 188 -42.5t130 -102.5q-34 -130 -77.5 -188t-105.5 -58q-83 0 -154 92t-95 219q-57 -17 -95.5 -59.5t-38.5 -108.5q0 -72 59.5 -116t201.5 -87l39 -12q47 -14 70 -21.5t62 -23t58.5 -29t45 -36t37.5 -48t21 -61t9 -78.5q0 -160 -100 -245t-257 -85zM575 707
q34 0 58 24t24 70q0 79 -69.5 139.5t-163.5 60.5q-41 0 -66 -8q17 -112 83 -199t134 -87z" />
    <glyph glyph-name=".notdef" horiz-adv-x="1173" 
d="M1120 0h-1069v25l154 59v1382l-154 66v24h1069v-24l-153 -66v-1382l153 -59v-25zM317 1485v-1342l533 1342h-533zM854 1354l-512 -1282h512v1282z" />
    <glyph glyph-name=".null" horiz-adv-x="0" 
 />
    <glyph glyph-name="nonmarkingreturn" horiz-adv-x="682" 
 />
    <glyph glyph-name="space" unicode=" " horiz-adv-x="442" 
 />
    <glyph glyph-name="exclam" unicode="!" horiz-adv-x="475" 
d="M256 324h-37q-7 134 -26 624.5t-19 544.5q0 85 16 115t48 30t47.5 -30t15.5 -115q0 -54 -19 -544.5t-26 -624.5zM238 -23q-47 0 -77 30t-30 75t30 75.5t77 30.5q45 0 74.5 -30.5t29.5 -75.5t-29.5 -75t-74.5 -30z" />
    <glyph glyph-name="quotedbl" unicode="&#x22;" horiz-adv-x="481" 
d="M156 1055h-21q-43 319 -43 420q0 55 12 75.5t41 20.5q30 0 42 -20t12 -76q0 -101 -43 -420zM346 1055h-22q-43 319 -43 420q0 55 12.5 75.5t42.5 20.5q28 0 39.5 -20t11.5 -76q0 -94 -41 -420z" />
    <glyph glyph-name="numbersign" unicode="#" horiz-adv-x="1153" 
d="M1094 1079v-75h-222l-124 -488h202v-76h-223l-113 -440h-75l112 440h-307l-113 -440h-77l112 440h-213v76h234l125 488h-215v75h235l123 477h78l-123 -477h307l123 477h76l-123 -477h201zM365 516h307l125 488h-308z" />
    <glyph glyph-name="dollar" unicode="$" horiz-adv-x="1040" 
d="M938 543q0 -159 -105 -262.5t-272 -118.5v-223h-67v221q-138 4 -248 65t-150 133l76 299h39q-41 -207 26 -316.5t257 -115.5v508q-90 24 -136 49q-196 82 -196 287q0 144 92.5 228.5t239.5 93.5v186h67v-188q103 -5 179.5 -44t144.5 -98l-94 -227h-41q49 143 -2.5 217
t-186.5 82v-440q66 -19 111 -35q62 -22 105 -45t82 -58t59 -84.5t20 -113.5zM473 905l21 -6v418q-104 -8 -173 -62t-69 -149q0 -72 49.5 -119.5t171.5 -81.5zM561 717v-490q123 11 200 79t77 179q0 93 -60.5 143.5t-181.5 80.5q-6 1 -17.5 4t-17.5 4z" />
    <glyph glyph-name="percent" unicode="%" horiz-adv-x="1810" 
d="M365 815q-77 0 -137.5 35t-97 93.5t-55 128t-18.5 145.5q0 109 36.5 204.5t112.5 159.5t177 64q77 0 139.5 -37.5t100 -98.5t57.5 -132.5t20 -145.5q0 -105 -38 -198.5t-116 -155.5t-181 -62zM387 858q86 0 144.5 90.5t58.5 249.5q0 171 -65 288.5t-163 117.5
q-85 0 -144.5 -98t-59.5 -261q0 -165 65 -276t164 -111zM383 0h-76l1082 1556h79zM1417 -12q-76 0 -136.5 35t-96.5 93t-55 128t-19 145q0 109 36.5 204.5t112.5 159.5t177 64q77 0 139.5 -37.5t100 -98.5t57.5 -132.5t20 -145.5q0 -78 -22.5 -151.5t-64 -132.5t-106.5 -95
t-143 -36zM1440 31q87 0 146 90.5t59 249.5q0 171 -65.5 288t-162.5 117q-87 0 -147 -97.5t-60 -260.5q0 -164 66 -275.5t164 -111.5z" />
    <glyph glyph-name="ampersand" unicode="&#x26;" horiz-adv-x="1273" 
d="M1315 -53h-33q-161 94 -334 221q-91 -89 -208.5 -141t-237.5 -52q-183 0 -306.5 109t-123.5 281q0 134 78 231t225 190q-92 182 -92 351q0 196 105.5 316t270.5 120q136 0 225 -81t89 -202q0 -47 -14 -91t-36 -78.5t-57 -69t-68.5 -59.5t-80 -54t-82 -48t-84 -45
t-76.5 -42q137 -270 459 -557q55 61 87.5 132.5t41.5 155.5t-19.5 182t-95.5 197h33q95 -127 120.5 -260t-8 -243.5t-112.5 -204.5q135 -117 334 -258zM461 838q55 33 84.5 51t79 51t77.5 57t63 59.5t53.5 67t32 71.5t13.5 81q0 109 -62.5 171t-152.5 62q-80 0 -141.5 -56
t-91 -140t-29.5 -180q0 -141 74 -295zM524 49q93 0 192.5 42t178.5 116q-354 281 -502 543q-203 -156 -203 -367q0 -152 96.5 -243t237.5 -91z" />
    <glyph glyph-name="quotesingle" unicode="'" horiz-adv-x="290" 
d="M156 1055h-21q-43 319 -43 420q0 55 12 75.5t41 20.5q30 0 42 -20t12 -76q0 -101 -43 -420z" />
    <glyph glyph-name="parenleft" unicode="(" horiz-adv-x="518" 
d="M465 -123h-43q-32 33 -69.5 83.5t-87 138t-88.5 184t-66 228t-27 263.5q0 142 39.5 296t97.5 273t110.5 203.5t90.5 124.5h43q-86 -100 -167 -358t-81 -539q0 -167 24.5 -320.5t63.5 -264.5t79.5 -188t80.5 -124z" />
    <glyph glyph-name="parenright" unicode=")" horiz-adv-x="518" 
d="M94 -123h-41q40 47 80.5 124t79.5 188t63.5 264.5t24.5 320.5q0 281 -81 539t-167 358h41q39 -39 92 -124t110 -204t96.5 -273t39.5 -296q0 -133 -27 -263.5t-65.5 -227.5t-88 -184.5t-87.5 -138t-70 -83.5z" />
    <glyph glyph-name="asterisk" unicode="*" horiz-adv-x="616" 
d="M307 1141q-20 0 -28.5 15.5t-6.5 47t8.5 68t17.5 91.5q2 8 3 13q-97 -97 -121 -116q-56 -43 -80 -9q-19 32 10.5 52t146.5 69q26 11 40 17q-144 61 -180 84t-17 55q22 31 63.5 1.5t119.5 -109.5q2 -3 3.5 -4t3.5 -3.5t3.5 -4l3.5 -3.5l4 -4q-15 71 -20.5 103t-8.5 69.5
t6 51t29 13.5q21 0 30.5 -15.5t6 -54t-9.5 -70.5t-21 -97q99 97 116 111q62 48 87 16q19 -31 -14 -53t-151 -72q-7 -3 -11 -4.5t-10.5 -4.5t-12.5 -5q156 -66 180 -81q36 -23 23 -50q-2 -3 -4 -7q-18 -11 -30 -15t-40 17t-48.5 41t-56.5 57q-17 18 -26 27q14 -68 20 -101
t8.5 -70.5t-6.5 -51.5t-30 -14z" />
    <glyph glyph-name="plus" unicode="+" horiz-adv-x="894" 
d="M489 612h320v-82h-320v-319h-79v319h-324v82h324v322h79v-322z" />
    <glyph glyph-name="comma" unicode="," horiz-adv-x="352" 
d="M72 -305h-21q101 132 101 225q0 43 -19.5 78.5t-60.5 83.5q0 46 29.5 76t70.5 30q47 0 75.5 -29.5t28.5 -78.5q0 -74 -54 -178t-150 -207z" />
    <glyph glyph-name="hyphen" unicode="-" horiz-adv-x="677" 
d="M598 528h-518v95h518v-95z" />
    <glyph glyph-name="period" unicode="." horiz-adv-x="376" 
d="M188 -23q-47 0 -76.5 30t-29.5 75t29.5 75.5t76.5 30.5t77 -30.5t30 -75.5t-30 -75t-77 -30z" />
    <glyph glyph-name="slash" unicode="/" horiz-adv-x="1048" 
d="M111 -244h-76l899 1882h80z" />
    <glyph glyph-name="zero" unicode="0" horiz-adv-x="1296" 
d="M623 -23q-101 0 -187.5 43.5t-147.5 117.5t-104 172t-63.5 208.5t-20.5 226.5q0 159 39.5 307.5t109.5 264.5t176.5 186t231.5 70q102 0 190.5 -47t151.5 -126.5t108 -182.5t67 -215.5t22 -225.5q0 -153 -41.5 -297t-114 -255.5t-181.5 -179t-236 -67.5zM666 47
q75 0 143.5 43t123 123.5t86.5 210.5t32 291q0 218 -61 401t-159.5 285t-209.5 102q-60 0 -117 -29.5t-106.5 -89t-86.5 -142t-58.5 -195.5t-21.5 -242q0 -162 36.5 -305t96.5 -241t139 -155t163 -57z" />
    <glyph glyph-name="one" unicode="1" horiz-adv-x="731" 
d="M645 0h-448v23l153 45v1288l-323 -322h-7v15l347 507h278v-22l-153 -64v-1402l153 -45v-23z" />
    <glyph glyph-name="two" unicode="2" horiz-adv-x="1144" 
d="M1010 0h-947v25q32 9 85 40t123 85.5t143 124t144 161.5t126 191.5t89 220.5t34 242q0 190 -80.5 301.5t-212.5 111.5q-142 0 -230.5 -128t-88.5 -312q0 -133 22 -272h-35l-98 413q25 72 60 132t89 116.5t133.5 88.5t176.5 32q59 0 113 -11.5t110.5 -42.5t97 -80
t66.5 -130.5t26 -186.5q0 -164 -52.5 -310t-162.5 -294q-135 -179 -442 -444h614l144 243h24z" />
    <glyph glyph-name="three" unicode="3" horiz-adv-x="1157" 
d="M522 -23q-160 0 -290.5 68.5t-163.5 181.5l90 320h32q-23 -134 -26 -228q0 -77 35.5 -135t92.5 -88t116.5 -44.5t119.5 -14.5q95 0 170.5 34t122.5 93t72 134t25 161q0 152 -75 244t-222 92q-44 0 -87.5 -13t-134.5 -53v39q209 103 312.5 216.5t103.5 248.5
q0 113 -75.5 191.5t-209.5 78.5q-126 0 -213.5 -76.5t-87.5 -214.5q0 -96 35 -245h-35l-116 323q157 283 446 283q60 0 118 -11.5t110.5 -37t92.5 -61.5t63.5 -88.5t23.5 -114.5q0 -129 -98 -240t-267 -189q68 10 134 5.5t126.5 -33.5t106.5 -72.5t73 -111.5t27 -150
q0 -139 -73 -252t-198 -176.5t-276 -63.5z" />
    <glyph glyph-name="four" unicode="4" horiz-adv-x="1112" 
d="M1004 0h-455v23l158 45v321h-687v45l680 1122h304v-22l-154 -53v-1014l194 -53v-25h-194v-321l154 -45v-23zM707 1436l-586 -981h586v981z" />
    <glyph glyph-name="five" unicode="5" horiz-adv-x="1339" 
d="M662 -20q-118 0 -220 41.5t-179 116.5t-134.5 167t-101.5 205h34q49 -106 97 -181t113 -141t149.5 -99.5t187.5 -33.5q217 0 354.5 140t137.5 362q0 190 -100.5 311t-262.5 121q-134 0 -241 -90t-156 -270h-150l150 839l-145 66v22h874l72 -325h-25l-143 256h-486
l-122 -653q-3 -17 4 -17q5 0 12 12q58 106 168 166t242 60q91 0 176 -36t150 -99.5t104 -158t39 -204.5q0 -166 -83 -299.5t-219 -205.5t-296 -72z" />
    <glyph glyph-name="six" unicode="6" horiz-adv-x="1286" 
d="M653 -23q-251 0 -401 203t-150 549q0 191 48.5 350.5t132 267t196 167t240.5 59.5q72 0 137.5 -18.5t109.5 -47t69.5 -50.5t39.5 -40v-332h-45q0 197 -96 302.5t-258 105.5q-116 0 -202 -54t-136 -150.5t-74 -216.5t-24 -265q0 -77 6 -156q39 186 165 295t296 109
q98 0 187 -38t155.5 -104.5t105.5 -163t39 -206.5q0 -111 -40 -214.5t-110 -181t-172 -124t-219 -46.5zM676 57q160 0 262 131t102 340q0 208 -103 334.5t-267 126.5q-91 0 -166.5 -42t-123 -110.5t-73.5 -150.5t-26 -166q0 -88 29.5 -172t80.5 -148.5t125.5 -103.5
t159.5 -39z" />
    <glyph glyph-name="seven" unicode="7" horiz-adv-x="987" 
d="M350 0h-127l246 752h-258v69h283l231 666h-516l-143 -256h-25l72 325h870v-22l-133 -59l-229 -650l182 -45v-28h-207z" />
    <glyph glyph-name="eight" unicode="8" horiz-adv-x="1191" 
d="M582 -23q-209 0 -347.5 117t-138.5 303q0 150 94.5 278.5t233.5 160.5q-124 28 -198 124.5t-74 215.5q0 172 124.5 284.5t317.5 112.5q188 0 309 -108.5t121 -274.5q0 -113 -73 -206.5t-206 -145.5q159 -21 257 -141t98 -273q0 -197 -149.5 -322t-368.5 -125zM594 868
q129 0 206 83t77 210q0 146 -89.5 244t-224.5 98q-124 0 -201 -85t-77 -224q0 -142 85.5 -234t223.5 -92zM612 47q146 0 243 96t97 263q0 176 -100.5 282.5t-269.5 106.5q-166 0 -259.5 -101.5t-93.5 -259.5q0 -169 110.5 -278t272.5 -109z" />
    <glyph glyph-name="nine" unicode="9" horiz-adv-x="1277" 
d="M555 -23q-127 0 -246 55t-147 103v332h45q0 -196 104.5 -309t270.5 -113q103 0 183 47t130.5 125.5t82.5 190t44.5 231.5t11.5 258q-36 -170 -157.5 -284.5t-296.5 -114.5q-203 0 -341.5 149t-138.5 373q0 150 65 276t187 201.5t275 75.5q119 0 219 -47t173.5 -136
t115 -228t41.5 -314q0 -250 -81 -449.5t-223 -310.5t-317 -111zM612 563q90 0 163 40.5t119 108t70.5 152.5t24.5 178q0 203 -109 327t-272 124q-164 0 -265 -126t-101 -335q0 -207 100.5 -338t269.5 -131z" />
    <glyph glyph-name="colon" unicode=":" horiz-adv-x="456" 
d="M229 758q-47 0 -76.5 29.5t-29.5 74.5t30 76t76 31q45 0 75 -31t30 -76q0 -44 -30 -74t-75 -30zM229 -23q-47 0 -76.5 30t-29.5 75t29.5 75.5t76.5 30.5q45 0 75 -30.5t30 -75.5t-30 -75t-75 -30z" />
    <glyph glyph-name="semicolon" unicode=";" horiz-adv-x="481" 
d="M246 758q-47 0 -77 29.5t-30 74.5t30 76t77 31q45 0 74.5 -31t29.5 -76t-29.5 -74.5t-74.5 -29.5zM141 -305h-22q100 131 100 225q0 43 -18.5 77.5t-59.5 84.5q0 46 29.5 76t71.5 30q46 0 75 -29.5t29 -78.5q0 -74 -54.5 -177.5t-150.5 -207.5z" />
    <glyph glyph-name="less" unicode="&#x3c;" horiz-adv-x="999" 
d="M895 176v-90l-829 475v29l829 473v-90l-702 -398z" />
    <glyph glyph-name="equal" unicode="=" horiz-adv-x="985" 
d="M854 719h-723v82h723v-82zM854 350h-723v82h723v-82z" />
    <glyph glyph-name="greater" unicode="&#x3e;" horiz-adv-x="999" 
d="M934 561l-830 -475v90l703 399l-703 398v90l830 -473v-29z" />
    <glyph glyph-name="question" unicode="?" horiz-adv-x="899" 
d="M395 317h-30q-13 96 -13 156q0 111 31 179.5t129 205.5q45 64 68.5 101.5t54 96.5t44 118t13.5 124q0 79 -21.5 139t-58.5 94t-80.5 51t-93.5 17q-76 0 -132 -33.5t-87 -91.5t-44.5 -136t-8 -166t26.5 -183h-37l-99 414q40 113 145 189.5t255 76.5q51 0 99 -9t100 -35
t90 -66.5t63 -110t25 -158.5q0 -96 -30 -179.5t-99 -178.5q-40 -54 -95 -114.5t-87.5 -98t-65 -93t-47.5 -130.5t-15 -179zM387 -23q-47 0 -76.5 30t-29.5 75t29.5 75.5t76.5 30.5q45 0 75 -30.5t30 -75.5t-30 -75t-75 -30z" />
    <glyph glyph-name="at" unicode="@" horiz-adv-x="1617" 
d="M770 -160q-138 0 -262 50t-218.5 141t-150 229.5t-55.5 304.5q0 219 94 392t264 270.5t387 97.5q318 0 506.5 -202t188.5 -541q0 -228 -84.5 -371t-225.5 -143q-83 0 -133 49t-69 127q-131 -164 -297 -164q-141 0 -230.5 112t-89.5 297q0 253 169 399t460 146h80v-694
q0 -93 32 -148t91 -55q90 0 150.5 123t60.5 311q0 305 -166 491.5t-445 186.5q-189 0 -338 -88.5t-232 -246t-83 -355.5q0 -156 53 -284.5t142.5 -211.5t205.5 -128.5t244 -45.5q155 0 309 74v-35q-175 -88 -358 -88zM756 156q72 0 138.5 34t111.5 89v714
q-229 0 -368.5 -135.5t-139.5 -359.5q0 -159 70.5 -250.5t187.5 -91.5z" />
    <glyph glyph-name="A" unicode="A" horiz-adv-x="1554" 
d="M381 0h-424v23l158 51l590 1429l-29 70h125l653 -1499l152 -51v-23h-476v23l158 51l-250 585h-610l-235 -585l188 -51v-23zM725 1393l-268 -664h551z" />
    <glyph glyph-name="B" unicode="B" horiz-adv-x="1345" 
d="M702 0h-624v23l153 59v1388l-153 64v22h586q247 0 390.5 -106.5t143.5 -282.5q0 -135 -88 -236.5t-236 -144.5q183 -31 291.5 -135t108.5 -250q0 -179 -157.5 -290t-414.5 -111zM373 1487v-672h276q188 0 295 87.5t107 268.5q0 155 -110 235.5t-327 80.5h-241zM373 743
v-669h319q196 0 312 90.5t116 251.5q0 152 -115.5 239.5t-308.5 87.5h-323z" />
    <glyph glyph-name="C" unicode="C" horiz-adv-x="1574" 
d="M831 -23q-153 0 -289 54.5t-237.5 153t-161 247t-59.5 326.5q0 235 105 421.5t291 290t419 103.5q97 0 186.5 -20.5t149 -50.5t98 -57.5t51.5 -47.5v-455h-36q0 143 -37.5 252t-104 174t-150 97t-182.5 32q-51 0 -105 -8.5t-117.5 -30t-121 -54.5t-111.5 -87
t-93.5 -121.5t-63.5 -163.5t-24 -209q2 -159 42 -290t104.5 -218.5t149.5 -148t175 -87t184 -26.5q223 0 392.5 148t254.5 415h35q-39 -140 -108.5 -256.5t-163.5 -202t-215 -133t-257 -47.5z" />
    <glyph glyph-name="D" unicode="D" horiz-adv-x="1611" 
d="M745 0h-667v23l153 61v1386l-153 64v22h676q233 0 409 -98.5t269.5 -276.5t93.5 -411q0 -354 -211.5 -562t-569.5 -208zM373 1487v-1413h323q309 0 487.5 183.5t178.5 506.5q0 211 -81.5 374.5t-236 256t-358.5 92.5h-313z" />
    <glyph glyph-name="E" unicode="E" horiz-adv-x="1138" 
d="M1014 0h-936v23l153 61v1386l-153 64v22h915l72 -317h-27l-143 248h-522v-619h358l57 174h31v-419h-31l-57 174h-358v-723h542l144 243h26z" />
    <glyph glyph-name="F" unicode="F" horiz-adv-x="1085" 
d="M547 0h-469v23l153 61v1386l-153 64v22h915l72 -317h-27l-143 248h-522v-619h358l57 174h31v-419h-31l-57 174h-358v-711l174 -63v-23z" />
    <glyph glyph-name="G" unicode="G" horiz-adv-x="1599" 
d="M844 -23q-164 0 -304.5 58.5t-240.5 161.5t-156.5 250.5t-56.5 320.5q0 236 108 421t292.5 284.5t412.5 99.5q104 0 198 -23t152.5 -55t93 -57.5t43.5 -40.5v-455h-32q-2 268 -123.5 411.5t-364.5 143.5q-83 0 -162.5 -16t-166.5 -61t-151 -116t-106 -191.5t-42 -276.5
q0 -169 47 -313.5t131.5 -248t207.5 -162.5t269 -59q119 0 215.5 35.5t153 92t86.5 121.5t30 130q0 37 -11.5 68.5t-28.5 55.5t-48 44t-58.5 34t-73 26t-77.5 19t-85.5 14t-84.5 10t-86 8v32h652v-743h-43l-21 299q-80 -155 -226 -238.5t-343 -83.5z" />
    <glyph glyph-name="H" unicode="H" horiz-adv-x="1536" 
d="M526 0h-448v23l153 61v1386l-153 64v22h448v-22l-153 -64v-616h790v616l-153 64v22h448v-22l-153 -64v-1386l153 -61v-23h-448v23l153 61v700h-790v-700l153 -61v-23z" />
    <glyph glyph-name="I" unicode="I" horiz-adv-x="604" 
d="M526 0h-448v23l153 61v1386l-153 64v22h448v-22l-153 -64v-1386l153 -61v-23z" />
    <glyph glyph-name="J" unicode="J" horiz-adv-x="903" 
d="M358 -23q-88 0 -158 28t-111 66t-81 95l176 416h33q-10 -32 -28 -86t-26.5 -81.5t-16 -66.5t-7.5 -72q0 -104 56.5 -163.5t156.5 -59.5q38 0 66 8.5t54.5 33.5t42.5 68t26 115t10 171v1021l-154 64v22h451v-22l-154 -64v-1056q0 -77 -7.5 -137.5t-29.5 -118.5t-58.5 -96
t-97.5 -61.5t-143 -23.5z" />
    <glyph glyph-name="K" unicode="K" horiz-adv-x="1232" 
d="M526 0h-448v23l153 61v1386l-153 64v22h448v-22l-153 -64v-704l540 721l-149 47v22h399v-22l-188 -49l-420 -567l569 -844l144 -51v-23h-463v23l149 51l-497 714l-84 -114v-590l153 -61v-23z" />
    <glyph glyph-name="L" unicode="L" horiz-adv-x="1089" 
d="M1004 0h-926v23l153 61v1386l-153 64v22h448v-22l-153 -64v-1396h532l144 243h26z" />
    <glyph glyph-name="M" unicode="M" horiz-adv-x="1796" 
d="M477 0h-399v23l153 61v1386l-153 64v22h297l543 -1376l528 1376h272v-22l-153 -64v-1386l153 -61v-23h-448v23l153 61v1221l-510 -1305h-75l-512 1282v-1198l151 -61v-23z" />
    <glyph glyph-name="N" unicode="N" horiz-adv-x="1402" 
d="M477 0h-399v23l153 61v1386l-153 64v22h252l762 -1218v1132l-154 64v22h399v-22l-153 -64v-1470h-56l-802 1290v-1206l151 -61v-23z" />
    <glyph glyph-name="O" unicode="O" horiz-adv-x="1644" 
d="M795 -23q-143 0 -273.5 60t-227 164t-153.5 253t-57 318q0 176 62 328t165.5 254.5t238.5 160.5t281 58q145 0 278 -58.5t233 -159.5t159.5 -247t59.5 -311q0 -172 -64.5 -326.5t-171 -261.5t-245.5 -169.5t-285 -62.5zM848 53q77 0 151 21.5t146 73t126.5 127t88 193
t33.5 261.5q0 186 -50 335t-134.5 242t-191 142t-224.5 49q-73 0 -146 -19t-148 -66.5t-132 -119t-93 -187.5t-36 -261q0 -150 37 -280.5t98.5 -222.5t141 -158t165 -98t168.5 -32z" />
    <glyph glyph-name="P" unicode="P" horiz-adv-x="1232" 
d="M526 0h-448v23l153 61v1386l-153 64v22h616q97 0 185.5 -23.5t160.5 -70t115 -123t43 -174.5q0 -129 -76.5 -227t-194 -146.5t-253.5 -48.5h-301v-659l153 -61v-23zM373 1485v-670h286q182 0 287 91.5t105 258.5q0 85 -28.5 148t-82 100t-123.5 54.5t-158 17.5h-286z" />
    <glyph glyph-name="Q" unicode="Q" horiz-adv-x="1644" 
d="M1208 -258q-68 0 -131.5 23.5t-113.5 57.5t-98.5 67.5t-105 57t-114.5 23.5q-97 0 -181 -59t-128 -139h-33q33 78 102.5 145.5t157.5 101.5q-212 78 -345.5 281t-133.5 471q0 176 62 328t165.5 254.5t238.5 160.5t281 58q145 0 278 -58.5t233 -159.5t159.5 -247
t59.5 -311q0 -156 -52.5 -297t-142 -245t-207.5 -174t-248 -93q25 -14 81 -48t89.5 -51.5t88 -34t108.5 -16.5q169 0 262 135h31q-58 -107 -153 -169t-210 -62zM848 53q77 0 151 21.5t146 73t126.5 127t88 193t33.5 261.5q0 186 -50 335t-134.5 242t-191 142t-224.5 49
q-73 0 -146 -19t-148 -66.5t-132 -119t-93 -187.5t-36 -261q0 -150 37 -280.5t98.5 -222.5t141 -158t165 -98t168.5 -32z" />
    <glyph glyph-name="R" unicode="R" horiz-adv-x="1302" 
d="M526 0h-448v23l153 61v1386l-153 64v22h616q97 0 185.5 -23.5t160.5 -70t115 -123t43 -174.5q0 -179 -133.5 -293t-359.5 -124l411 -664l189 -61v-23h-496v23l147 55l-407 661h-176v-655l153 -61v-23zM373 1485v-674h286q182 0 287 93.5t105 260.5q0 85 -28.5 148
t-82 100t-123.5 54.5t-158 17.5h-286z" />
    <glyph glyph-name="S" unicode="S" horiz-adv-x="1193" 
d="M584 -23q-173 0 -303.5 69.5t-206.5 170.5l114 399h48q-33 -158 -33 -229q0 -81 26 -144.5t66.5 -101t95 -61.5t104.5 -32.5t103 -8.5q86 0 161.5 20.5t134.5 61.5t93.5 107.5t34.5 152.5q0 53 -13.5 95.5t-40 74t-60 55.5t-80 44t-93.5 36t-106 34q-7 2 -11 3l-92 29
q-368 107 -368 407q0 81 27 154t79.5 132t140 93.5t199.5 34.5q142 0 255 -49.5t188 -116.5l-132 -324h-45q41 129 41 174q1 67 -26.5 117t-74.5 78t-100.5 41.5t-111.5 13.5q-93 0 -172.5 -29t-133.5 -93t-54 -152q0 -56 23 -102.5t56 -77t84 -56.5t91.5 -40t95.5 -29
l71 -19q43 -12 63 -18.5t64.5 -22t69 -27.5t64 -34.5t62.5 -45t51 -55t43 -68.5t25.5 -83t10.5 -100q0 -217 -147 -347.5t-381 -130.5z" />
    <glyph glyph-name="T" unicode="T" horiz-adv-x="1351" 
d="M901 0h-450v23l153 61v1403h-424l-137 -248h-29l72 317h1178l71 -317h-26l-140 248h-421v-1403l153 -61v-23z" />
    <glyph glyph-name="U" unicode="U" horiz-adv-x="1454" 
d="M731 -23q-120 0 -212 30t-151.5 82t-96.5 130.5t-52.5 168t-15.5 200.5v882l-154 64v22h449v-22l-154 -64v-847q0 -292 101 -427t300 -135q141 0 230 49t136.5 166t47.5 312v882l-153 64v22h399v-22l-154 -64v-882q0 -115 -16 -207t-54 -169t-97 -128t-148 -79t-205 -28z
" />
    <glyph glyph-name="V" unicode="V" horiz-adv-x="1478" 
d="M831 -4h-124l-607 1481l-147 57v22h450v-22l-141 -51l520 -1307l514 1307l-174 51v22h400v-22l-152 -57l-567 -1411z" />
    <glyph glyph-name="W" unicode="W" horiz-adv-x="2152" 
d="M647 0h-63l-478 1464l-157 70v22h454v-22l-133 -64l389 -1216l406 1302h98l445 -1302l368 1216l-180 64v22h399v-22l-151 -64l-451 -1470h-63l-459 1356z" />
    <glyph glyph-name="X" unicode="X" horiz-adv-x="1296" 
d="M414 0h-402v23l144 53l426 686l-449 708l-145 64v22h454v-22l-145 -59l377 -590l358 590l-184 59v22h399v-22l-151 -64l-387 -639l479 -755l139 -53v-23h-459v23l150 53l-402 633l-393 -633l191 -53v-23z" />
    <glyph glyph-name="Y" unicode="Y" horiz-adv-x="1292" 
d="M879 0h-449v23l154 61v491l-482 906l-143 53v22h455v-22l-148 -49l436 -823l414 821l-190 51v22h403v-22l-147 -55l-457 -891v-504l154 -61v-23z" />
    <glyph glyph-name="Z" unicode="Z" horiz-adv-x="1067" 
d="M958 0h-901l-10 33l762 1454h-573l-144 -258h-24l71 327h830l10 -28l-756 -1454h637l144 243h26z" />
    <glyph glyph-name="bracketleft" unicode="[" horiz-adv-x="559" 
d="M543 -123h-355v1794h355v-29l-248 -92v-1552l248 -92v-29z" />
    <glyph glyph-name="backslash" unicode="\" horiz-adv-x="1048" 
d="M115 1638l899 -1882h-76l-903 1882h80z" />
    <glyph glyph-name="bracketright" unicode="]" horiz-adv-x="559" 
d="M373 -123h-357v29l248 92v1552l-248 92v29h357v-1794z" />
    <glyph glyph-name="asciicircum" unicode="^" horiz-adv-x="712" 
d="M100 891h-30q42 119 71.5 198t56.5 145.5t46 104t38 64t35 36t35 9.5q38 0 74 -45.5t87.5 -166.5t127.5 -345h-31q-155 265 -258 459q-101 -194 -252 -459z" />
    <glyph glyph-name="underscore" unicode="_" horiz-adv-x="950" 
d="M920 -215h-887v92h887v-92z" />
    <glyph glyph-name="grave" unicode="`" horiz-adv-x="468" 
d="M451 1139h-27q-124 109 -214.5 207.5t-90.5 140.5q0 37 43 37q44 0 118 -92.5t171 -292.5z" />
    <glyph glyph-name="a" unicode="a" horiz-adv-x="983" 
d="M819 752v-650l131 -10v-31l-229 -61h-25v244q-8 -25 -23.5 -55t-45 -69.5t-65.5 -70.5t-89.5 -52.5t-112.5 -21.5q-116 0 -189 75t-73 196q0 51 15.5 97t39 80.5t63 66t74 53t86.5 41.5t87 31.5t88.5 23.5t77.5 16.5t67 12.5v61q0 142 -62 210.5t-167 68.5t-177.5 -67
t-72.5 -173q0 -60 23 -119h-41l-86 250q21 29 51 55t76.5 53t113 43.5t144.5 16.5q161 0 241 -76t80 -239zM406 51q53 0 102 26t85 68t61 83t42 83v316q-10 -2 -41.5 -9.5t-53 -12.5t-58.5 -15.5t-63.5 -21t-61.5 -27.5t-59.5 -35t-50.5 -43.5t-42 -54t-26.5 -65
t-10.5 -77.5q0 -86 45 -150.5t132 -64.5z" />
    <glyph glyph-name="b" unicode="b" horiz-adv-x="1019" 
d="M545 -23q-174 0 -297 164l-72 -141h-33v1542l-131 17v22l230 57h24v-571q146 0 264 -36t194.5 -94.5t128 -137t73.5 -159t22 -165.5q0 -93 -27.5 -181.5t-77 -159.5t-127.5 -114t-171 -43zM524 51q125 0 211 113t86 291q0 86 -20.5 167t-65.5 154t-109 127.5t-156.5 86.5
t-203.5 32v-840q47 -56 116 -93.5t142 -37.5z" />
    <glyph glyph-name="c" unicode="c" horiz-adv-x="1007" 
d="M541 -23q-140 0 -248 74t-163.5 196.5t-55.5 270.5q0 149 57 273t169 200t259 76q123 0 214 -49.5t136 -110.5l-125 -350h-36q38 104 38 199q0 115 -61.5 179t-175.5 64q-153 0 -254.5 -113t-101.5 -323q0 -223 110.5 -370.5t265.5 -147.5q135 0 228.5 77.5t160.5 237.5
h35q-54 -171 -167 -277t-285 -106z" />
    <glyph glyph-name="d" unicode="d" horiz-adv-x="1017" 
d="M874 0h-122q-145 0 -262.5 33.5t-194 88t-128 129t-73.5 152.5t-22 162q0 126 46 239t139 188t214 75q166 0 281 -147v622l-131 17v22l229 57h24v-1638zM752 41v807q-47 61 -113.5 103t-142.5 42q-126 0 -211.5 -115.5t-85.5 -293.5q0 -108 33.5 -201.5t99.5 -169
t173.5 -121t246.5 -51.5z" />
    <glyph glyph-name="e" unicode="e" horiz-adv-x="1026" 
d="M541 -23q-109 0 -199 45.5t-147.5 121.5t-89 172.5t-31.5 201.5q0 149 60.5 275t168.5 200t240 74q172 0 280.5 -120t108.5 -322v-43h-742v-17q0 -221 114 -370.5t286 -149.5q121 0 216.5 80.5t160.5 234.5h34q-54 -172 -171.5 -277.5t-288.5 -105.5zM199 647h604
q0 159 -72.5 254.5t-198.5 95.5q-133 0 -224 -99t-109 -251z" />
    <glyph glyph-name="f" unicode="f" horiz-adv-x="581" 
d="M436 0h-387v23l133 40v910h-127v63h127v203q0 432 275 432q53 0 100.5 -15.5t83 -44t56 -49.5t42.5 -49l-123 -315h-38q67 194 36 297.5t-139 103.5q-95 0 -133.5 -85.5t-38.5 -253.5v-224h268v-63h-268v-910l133 -40v-23z" />
    <glyph glyph-name="g" unicode="g" horiz-adv-x="1046" 
d="M371 -424l-232 250l31 22q60 -51 92.5 -77t78 -57t84 -43.5t77.5 -12.5q258 0 258 319v21q-108 -23 -178 -23q-105 0 -191 34.5t-142.5 91t-95.5 132t-56 155.5t-17 163q0 139 45 255t135.5 188.5t210.5 72.5q95 0 161 -43t128 -119v131h24l232 -55v-25l-131 -14v-829
q0 -114 -11.5 -197t-38.5 -143.5t-65 -98t-99 -60t-130.5 -30.5t-169.5 -8zM623 20q59 0 137 19v795q-120 159 -260 159q-126 0 -208.5 -115t-82.5 -315q0 -81 14.5 -158t47 -147.5t80 -122.5t117.5 -83.5t155 -31.5z" />
    <glyph glyph-name="h" unicode="h" horiz-adv-x="1079" 
d="M420 0h-383v23l133 40v1479l-133 17v22l229 57h27v-823q12 30 29 59t48 65.5t68 63.5t91.5 45.5t115.5 18.5q121 0 192.5 -74t71.5 -233v-697l133 -40v-23h-383v23l127 40v625q0 166 -48.5 235.5t-153.5 69.5q-93 0 -177 -86.5t-114 -193.5v-650l127 -40v-23z" />
    <glyph glyph-name="i" unicode="i" horiz-adv-x="473" 
d="M227 1298q-44 0 -73 29.5t-29 73.5t29 74t73 30t72.5 -29.5t28.5 -74.5q0 -44 -28.5 -73.5t-72.5 -29.5zM436 0h-389v23l133 40v879l-133 14v25l229 55h27v-973l133 -40v-23z" />
    <glyph glyph-name="j" unicode="j" horiz-adv-x="434" 
d="M217 1298q-44 0 -72 29t-28 74q0 46 28 75t72 29q46 0 74 -29t28 -75q0 -45 -28.5 -74t-73.5 -29zM16 -424l-178 213l31 25q148 -156 217 -156q41 0 62.5 54t21.5 143v1087l-133 14v25l229 55h27v-1073q0 -184 -49 -264q-33 -62 -95.5 -92.5t-132.5 -30.5z" />
    <glyph glyph-name="k" unicode="k" horiz-adv-x="1009" 
d="M426 0h-389v23l133 40v1479l-133 17v22l229 57h27v-1249l461 582l-179 43v22h400v-22l-168 -51l-262 -338l360 -568l125 -34v-23h-420v23l146 32l-295 461l-168 -213v-240l133 -40v-23z" />
    <glyph glyph-name="l" unicode="l" horiz-adv-x="462" 
d="M426 0h-389v23l133 40v1479l-133 17v22l229 57h27v-1575l133 -40v-23z" />
    <glyph glyph-name="m" unicode="m" horiz-adv-x="1634" 
d="M430 0h-383v23l133 40v881l-133 12v25l229 55h27v-221q14 35 39.5 73.5t66 81t100.5 70t128 27.5q99 0 162 -60t80 -182q21 44 48 82t67 76.5t96 61t120 22.5q112 0 184 -75t72 -232v-697l133 -40v-23h-382v23l126 40v625q0 305 -180 305q-90 0 -163 -69.5t-119 -180.5
v-680l133 -40v-23h-383v23l127 40v625q0 305 -166 305q-95 0 -176.5 -83.5t-112.5 -194.5v-652l127 -40v-23z" />
    <glyph glyph-name="n" unicode="n" horiz-adv-x="1089" 
d="M430 0h-383v23l133 40v879l-133 14v25l229 55h27v-223q12 30 29 60t48 66.5t68 63.5t91.5 45.5t115.5 18.5q122 0 193.5 -74t71.5 -233v-697l133 -40v-23h-383v23l125 40v625q0 305 -201 305q-108 0 -184 -82t-107 -196v-652l127 -40v-23z" />
    <glyph glyph-name="o" unicode="o" horiz-adv-x="1105" 
d="M557 -23q-95 0 -176.5 34t-137 89.5t-95 127.5t-58 147t-18.5 149q0 72 18 146t57.5 145.5t95.5 127.5t139 90t181 34q99 0 180.5 -34t134.5 -88.5t89 -125.5t51.5 -142t15.5 -140q0 -60 -12 -122t-36 -125.5t-63.5 -119t-90.5 -99t-122 -69t-153 -25.5zM584 45
q136 0 228.5 134.5t92.5 328.5q0 128 -41 238t-125 181.5t-196 71.5q-154 0 -253.5 -127t-99.5 -313q0 -130 48 -247t139.5 -192t206.5 -75z" />
    <glyph glyph-name="p" unicode="p" horiz-adv-x="1046" 
d="M426 -410h-389v23l133 41v1288l-133 14v29q136 37 185.5 49.5t113.5 22.5t127 10q107 0 195 -34t145.5 -89.5t96.5 -130.5t56 -154.5t17 -162.5q0 -139 -45.5 -256t-138 -191t-214.5 -74q-93 0 -157 39t-125 109v-469l133 -41v-23zM547 49q127 0 213 127.5t86 323.5
q0 104 -27 195.5t-78 162t-132 111.5t-183 41q-50 0 -133 -17v-815q46 -54 115.5 -91.5t138.5 -37.5z" />
    <glyph glyph-name="q" unicode="q" horiz-adv-x="1044" 
d="M1014 -410h-389v23l133 41v344q-94 -21 -172 -21q-108 0 -196 35t-144.5 92t-95.5 132.5t-55.5 153t-16.5 157.5q0 138 47 255t139.5 191t212.5 74q96 0 157.5 -42t123.5 -122v133h24l232 -55v-25l-133 -14v-1288l133 -41v-23zM616 29q69 0 142 20v785q-50 67 -116.5 113
t-141.5 46q-125 0 -211 -128.5t-86 -327.5q0 -101 24.5 -189.5t72.5 -161t129.5 -115t186.5 -42.5z" />
    <glyph glyph-name="r" unicode="r" horiz-adv-x="770" 
d="M436 0h-389v23l133 40v879l-133 14v25l236 55h20v-276h2q15 54 36 102t53 97t78.5 78.5t100.5 29.5q36 0 67 -13t54.5 -36.5t36 -40t27.5 -39.5l-119 -320h-33q39 129 39 209q0 71 -26 112.5t-74 41.5q-59 0 -111.5 -68t-83.5 -158t-47 -188v-504l133 -40v-23z" />
    <glyph glyph-name="s" unicode="s" horiz-adv-x="868" 
d="M434 -23q-125 0 -216.5 51t-139.5 119l94 267h37q-21 -74 -21 -140q0 -109 63 -170t185 -61q132 0 209.5 61.5t77.5 151.5q0 36 -16 64.5t-40 49t-71.5 41t-90 34.5t-116.5 36q-270 82 -270 305q0 134 88 207.5t227 73.5q108 0 189.5 -42.5t130.5 -102.5l-74 -228h-35
q33 140 -30.5 223.5t-192.5 83.5q-95 0 -164.5 -48t-69.5 -134q0 -73 60.5 -117t200.5 -86l39 -12q47 -14 70 -21.5t62 -23t58.5 -29t45 -36t37.5 -48t21 -61t9 -78.5q0 -160 -100 -245t-257 -85z" />
    <glyph glyph-name="t" unicode="t" horiz-adv-x="632" 
d="M371 -23q-199 0 -199 299v697h-156v31l166 32l68 348h43v-348h262v-63h-262v-697q0 -122 34 -178.5t101 -56.5q107 0 162 145h41q-34 -103 -103 -156t-157 -53z" />
    <glyph glyph-name="u" unicode="u" 
d="M416 -25q-250 0 -250 332v635l-133 14v25l229 55h27v-698q0 -158 45.5 -223.5t128.5 -65.5q182 0 278 248v645l-133 14v25l230 55h26v-940l133 -16v-23l-231 -57h-25v205q-19 -44 -46.5 -82.5t-66.5 -73t-93.5 -54.5t-118.5 -20z" />
    <glyph glyph-name="v" unicode="v" horiz-adv-x="1091" 
d="M588 0h-78l-371 963l-149 51v22h434v-22l-156 -49l316 -824l286 828l-159 45v22h399v-22l-174 -47z" />
    <glyph glyph-name="w" unicode="w" horiz-adv-x="1576" 
d="M526 0h-86l-299 963l-153 51v22h434v-22l-148 -47l244 -803l246 872h110l256 -872l230 805l-162 45v22h399v-22l-176 -47l-280 -967h-88l-269 907z" />
    <glyph glyph-name="x" unicode="x" horiz-adv-x="1017" 
d="M403 0h-395v23l131 36l307 451l-303 455l-133 49v22h434v-22l-147 -47l235 -351l228 351l-191 47v22h394v-22l-140 -47l-258 -402l342 -504l127 -38v-23h-436v23l156 34l-273 402l-280 -400l202 -36v-23z" />
    <glyph glyph-name="y" unicode="y" horiz-adv-x="1091" 
d="M195 -424l-193 215l29 23q148 -136 233 -136q51 0 102.5 54t86.5 125.5t55 146.5l-369 963l-149 47v22h434v-22l-156 -47l316 -826l288 828l-161 45v22h399v-22l-172 -47l-315 -873q-37 -104 -66.5 -173.5t-69 -140t-80 -111.5t-94.5 -67t-118 -26z" />
    <glyph glyph-name="z" unicode="z" horiz-adv-x="862" 
d="M743 0h-675l-11 25l549 946h-346l-147 -262h-31l72 327h610l10 -24l-545 -946h410l145 251h31z" />
    <glyph glyph-name="braceleft" unicode="{" horiz-adv-x="538" 
d="M520 -123h-57q-153 0 -224 72.5t-71 214.5v391q0 82 -29 123t-65 41h-6v110h6q36 0 65 41t29 123v391q0 142 71 214.5t224 72.5h57v-29h-45q-49 0 -86 -18.5t-59 -48.5t-35.5 -74t-18 -88.5t-4.5 -99.5v-289q0 -210 -108 -240v-20q108 -24 108 -240v-288
q0 -70 8.5 -123.5t29 -103t62.5 -76.5t103 -27h45v-29z" />
    <glyph glyph-name="bar" unicode="|" horiz-adv-x="600" 
d="M524 -410h-448v31l153 72v1823l-153 92v30h448v-30l-153 -92v-1823l153 -72v-31z" />
    <glyph glyph-name="braceright" unicode="}" horiz-adv-x="538" 
d="M76 -123h-58v29h45q61 0 103 27t62.5 76.5t29 103t8.5 123.5v288q0 215 109 240v20q-109 31 -109 240v289q0 55 -4.5 99.5t-18 88.5t-35.5 74t-59 48.5t-86 18.5h-45v29h58q153 0 224 -72.5t71 -214.5v-391q0 -82 29 -123t65 -41h6v-110h-6q-36 0 -65 -41t-29 -123v-391
q0 -142 -71 -214.5t-224 -72.5z" />
    <glyph glyph-name="asciitilde" unicode="~" horiz-adv-x="925" 
d="M150 489h-37q2 97 51.5 154t140.5 57q48 0 95.5 -19t79 -41t76.5 -41t89 -19q53 0 92.5 27t42.5 95h39q-5 -99 -54 -154.5t-142 -55.5q-52 0 -101 19t-80 41t-72.5 41t-80.5 19q-31 0 -59 -9.5t-52.5 -38.5t-27.5 -75z" />
    <glyph glyph-name="exclamdown" unicode="&#xa1;" horiz-adv-x="473" 
d="M236 1427q-45 0 -75 31t-30 76q0 44 29.5 74t75.5 30q47 0 76.5 -29.5t29.5 -74.5t-30 -76t-76 -31zM238 -23q-34 0 -50 30.5t-16 115.5q0 52 19.5 541.5t27.5 627.5h35q8 -138 27.5 -627.5t19.5 -541.5q0 -85 -15.5 -115.5t-47.5 -30.5z" />
    <glyph glyph-name="cent" unicode="&#xa2;" horiz-adv-x="1124" 
d="M1026 637h37q-32 -104 -85.5 -184t-140 -134.5t-194.5 -62.5v-256h-102v258q-136 14 -236.5 90t-150.5 191t-50 252q0 213 118 359t319 175v313h102v-307q129 -3 219.5 -51.5t136.5 -108.5l-127 -350h-34q36 104 36 193q0 117 -67.5 183.5t-200.5 66.5q-80 0 -149 -26.5
t-122.5 -77t-84.5 -132.5t-31 -186q0 -238 116.5 -379t297.5 -141q138 0 231.5 77.5t161.5 237.5z" />
    <glyph glyph-name="sterling" unicode="&#xa3;" horiz-adv-x="1093" 
d="M872 74l144 243h26l-71 -317h-918v39q205 33 306.5 146t101.5 284q0 117 -43 242h-314v80h283q-2 4 -35 85.5t-42.5 108.5t-31 92.5t-29 115t-7.5 97.5q0 132 69 207.5t203 75.5q67 0 129.5 -20.5t105.5 -51t65.5 -50.5t33.5 -34v-352h-47q0 113 -25 200.5t-66.5 138.5
t-91 77t-102.5 26q-80 0 -123 -55t-43 -158q0 -21 2.5 -43.5t4.5 -41t9.5 -46.5t11 -44t15.5 -49.5t16.5 -48t20.5 -54.5t21 -53.5t24 -61t25 -61.5h354v-80h-324q41 -107 41 -228q0 -132 -55.5 -237.5t-159.5 -161.5v-10h516z" />
    <glyph glyph-name="currency" unicode="&#xa4;" horiz-adv-x="1150" 
d="M983 772q0 -184 -100 -301l164 -195l-52 -43l-161 191q-100 -78 -240 -78q-163 0 -270 96l-177 -209l-51 43l183 216q-82 108 -82 266q0 184 106 299l-207 246l51 43l207 -244q102 76 248 76q117 0 205 -54l186 222l54 -43l-185 -220q121 -115 121 -311zM621 414
q108 0 173.5 90t65.5 239q0 166 -76 266.5t-202 100.5q-123 0 -198 -87t-75 -230q0 -170 86 -274.5t226 -104.5z" />
    <glyph glyph-name="yen" unicode="&#xa5;" horiz-adv-x="1220" 
d="M780 1534v22h400v-22l-154 -55l-319 -758h278v-80h-301v-135h301v-80h-301v-358l154 -43v-25h-439v25l154 43v358h-317v80h317v135h-317v80h286l-338 760l-143 53v22h418v-22l-144 -49l344 -764l316 762z" />
    <glyph glyph-name="brokenbar" unicode="&#xa6;" horiz-adv-x="628" 
d="M539 778h-451v31l154 72v635l-154 92v30h451v-30l-154 -92v-635l154 -72v-31zM539 -410h-451v31l154 72v635l-154 92v31h451v-31l-154 -92v-635l154 -72v-31z" />
    <glyph glyph-name="section" unicode="&#xa7;" horiz-adv-x="907" 
d="M440 -23q-125 0 -216.5 51t-139.5 119l92 267h41q-22 -77 -22 -140q0 -110 62 -170.5t185 -60.5q132 0 208.5 61.5t76.5 151.5q0 36 -16 64.5t-40 49t-71 41t-89.5 34.5t-115.5 36q-266 85 -266 297q0 93 50 157t132 99q-78 41 -122 108t-44 154q0 129 86 203t218 74
q104 0 183.5 -44t127.5 -102l-74 -227h-35q32 137 -29.5 222t-183.5 85q-90 0 -159.5 -48.5t-69.5 -133.5q0 -74 62 -120t184 -83q17 -5 51 -15.5t51 -16t47 -16.5t46 -19.5t40 -22.5t37 -28t28.5 -34.5t23 -43t13 -51.5t5.5 -62q0 -189 -142 -268q76 -43 109 -100.5
t33 -137.5q0 -160 -100 -245t-257 -85zM571 573q73 23 114.5 74t41.5 115q0 29 -9 53.5t-28.5 43.5t-40 33t-54 28t-59.5 23.5t-67.5 23.5t-67.5 24q-87 -5 -146.5 -52.5t-59.5 -121.5q0 -73 61.5 -119t198.5 -88q9 -2 116 -37z" />
    <glyph glyph-name="dieresis" unicode="&#xa8;" horiz-adv-x="694" 
d="M197 1276q-41 0 -67 26t-26 66t26 67t67 27q42 0 68 -27t26 -67t-26 -66t-68 -26zM494 1276q-41 0 -67 26t-26 66t26 67t67 27q42 0 68 -27t26 -67t-26 -66t-68 -26z" />
    <glyph glyph-name="copyright" unicode="&#xa9;" horiz-adv-x="1812" 
d="M907 -33q-164 0 -313 64t-256 171.5t-170.5 256.5t-63.5 313t63 312.5t170.5 256t256.5 171t313 63.5q218 0 403 -107.5t292.5 -292.5t107.5 -403t-107.5 -403.5t-292.5 -293.5t-403 -108zM907 43q197 0 362.5 97.5t261 265t95.5 366.5q0 198 -95.5 365t-261 264.5
t-362.5 97.5q-198 0 -364 -97.5t-261.5 -264.5t-95.5 -365q0 -149 56.5 -283.5t152.5 -232.5t230 -155.5t282 -57.5zM913 295q-104 0 -189.5 41t-139 108t-82.5 150t-29 170q0 91 31 177t88 155t145.5 111t194.5 42q118 0 207.5 -49t132.5 -110l-121 -351h-35q69 199 12 318
t-217 119q-144 0 -238.5 -101.5t-94.5 -269.5q0 -182 102.5 -309t251.5 -127q135 0 229 76.5t162 232.5h33q-50 -169 -165 -276t-278 -107z" />
    <glyph glyph-name="ordfeminine" unicode="&#xaa;" horiz-adv-x="827" 
d="M303 713q-97 0 -157 59t-60 154q0 134 118.5 212t368.5 122v47q0 117 -53 169t-131 52q-58 0 -102 -27t-64.5 -69.5t-26 -95.5t14.5 -105h-39l-72 209q40 55 114.5 95t186.5 40q133 0 199 -62t66 -192v-516l106 -4v-21l-170 -49h-29v178q-33 -78 -103 -137t-167 -59z
M332 780q76 0 140.5 63t100.5 146v217q-376 -51 -376 -268q0 -70 35.5 -114t99.5 -44z" />
    <glyph glyph-name="guillemotleft" unicode="&#xab;" horiz-adv-x="933" 
d="M508 145h-39l-393 377v21l393 375h39q-153 -187 -328 -386q161 -184 328 -387zM842 145h-39l-393 377v21l393 375h39q-153 -187 -328 -386q161 -184 328 -387z" />
    <glyph glyph-name="logicalnot" unicode="&#xac;" horiz-adv-x="993" 
d="M856 217h-80v326h-647v80h727v-406z" />
    <glyph glyph-name="uni00AD" unicode="&#xad;" horiz-adv-x="677" 
d="M598 528h-518v95h518v-95z" />
    <glyph glyph-name="registered" unicode="&#xae;" horiz-adv-x="1218" 
d="M610 524q-212 0 -361 149t-149 361q0 138 68 255t185.5 185t256.5 68q138 0 255 -68t185 -185t68 -255q0 -139 -68 -256.5t-185 -185.5t-255 -68zM610 584q186 0 317.5 131.5t131.5 318.5q0 186 -131.5 317.5t-317.5 131.5q-187 0 -318.5 -131.5t-131.5 -317.5
q0 -123 60 -226.5t163.5 -163.5t226.5 -60zM567 743h-172v19l60 22v516l-60 39v13h262q81 0 127.5 -43.5t46.5 -106.5q0 -68 -42.5 -114t-118.5 -46l116 -254l74 -26v-19h-184v19l45 18l-121 262h-82v-258l49 -22v-19zM518 1309v-222h129q67 0 93 30t26 85q0 46 -33.5 76.5
t-101.5 30.5h-113z" />
    <glyph glyph-name="macron" unicode="&#xaf;" horiz-adv-x="808" 
d="M686 1237h-549v88h549v-88z" />
    <glyph glyph-name="degree" unicode="&#xb0;" horiz-adv-x="520" 
d="M260 1124q-79 0 -135.5 57.5t-56.5 135.5t56.5 134t135.5 56q77 0 134 -56t57 -134t-57 -135.5t-134 -57.5zM260 1190q51 0 89 37.5t38 89.5t-37.5 88.5t-89.5 36.5q-54 0 -90.5 -36t-36.5 -89t36.5 -90t90.5 -37z" />
    <glyph glyph-name="plusminus" unicode="&#xb1;" horiz-adv-x="929" 
d="M504 211h-80v319h-322v82h322v322h80v-322h321v-82h-321v-319zM106 -8v82h723v-82h-723z" />
    <glyph glyph-name="uni00B2" unicode="&#xb2;" horiz-adv-x="700" 
d="M604 827h-551v25q68 17 143.5 74t137 132.5t101.5 167.5t40 173q0 89 -44.5 147t-117.5 58q-80 0 -130 -66t-50 -160q0 -74 14 -139h-36l-45 215q77 191 268 191q41 0 79 -10t76.5 -34t62 -73.5t23.5 -120.5q0 -51 -13 -101t-30 -89t-50 -83t-56 -71t-66.5 -66t-63 -54.5
t-62.5 -49.5q-20 -16 -29 -23h330l90 131h24z" />
    <glyph glyph-name="uni00B3" unicode="&#xb3;" horiz-adv-x="696" 
d="M317 815q-91 0 -166.5 35.5t-95.5 93.5l39 168h37q-12 -56 -12 -108q0 -54 34 -91t79 -51t94 -14q100 0 156.5 62t56.5 161q0 76 -39.5 118t-114.5 42q-25 0 -69.5 -12.5t-73.5 -30.5v45q122 47 180.5 104.5t58.5 130.5q0 60 -41.5 98t-115.5 38q-71 0 -120.5 -38.5
t-49.5 -105.5q0 -44 20 -131h-35l-61 170q37 56 104 101t152 45q99 0 170 -43t71 -123q0 -64 -54 -122t-154 -100q104 15 185 -33.5t81 -150.5q0 -110 -91 -184t-225 -74z" />
    <glyph glyph-name="acute" unicode="&#xb4;" horiz-adv-x="468" 
d="M72 1139h-27q98 202 170.5 293.5t118.5 91.5q20 0 30.5 -9.5t10.5 -25.5q0 -45 -88.5 -142.5t-214.5 -207.5z" />
    <glyph glyph-name="uni00B5" unicode="&#xb5;" horiz-adv-x="1103" 
d="M465 -389h-389v22l133 41v1268l-135 14v25l231 55h25v-698q0 -158 45.5 -223.5t128.5 -65.5q182 0 278 248v645l-133 14v25l232 55h24v-940l133 -16v-23l-229 -57h-27v205q-103 -230 -305 -230q-92 0 -145 68v-369l133 -41v-22z" />
    <glyph glyph-name="paragraph" unicode="&#xb6;" horiz-adv-x="1437" 
d="M1346 0h-867v23l154 45v682h-80q-79 0 -151 15.5t-135.5 49t-110.5 81.5t-74 117t-27 152q0 93 41.5 168.5t111 123.5t158.5 73.5t187 25.5h793v-22l-154 -64v-1402l154 -45v-23zM776 1470v-1402h273v1402h-273z" />
    <glyph glyph-name="periodcentered" unicode="&#xb7;" horiz-adv-x="425" 
d="M213 428q-47 0 -77 29.5t-30 74.5t30 76t77 31q46 0 76 -31t30 -76t-29.5 -74.5t-76.5 -29.5z" />
    <glyph glyph-name="cedilla" unicode="&#xb8;" horiz-adv-x="444" 
d="M238 -418q-58 0 -119 35v21q61 -23 104 -23q57 0 89 25.5t32 74.5q0 44 -38.5 75.5t-110.5 31.5v39l94 166h39l-82 -144q78 0 120 -38t42 -95q0 -62 -46.5 -115t-123.5 -53z" />
    <glyph glyph-name="uni00B9" unicode="&#xb9;" horiz-adv-x="456" 
d="M395 827h-276v13l94 34v680l-182 -202v28l174 256h184v-14l-88 -35v-713l94 -34v-13z" />
    <glyph glyph-name="ordmasculine" unicode="&#xba;" horiz-adv-x="905" 
d="M457 713q-74 0 -138.5 27t-109.5 71t-77.5 100.5t-48 115t-15.5 114.5q0 59 14.5 118.5t46.5 116.5t77 101t111.5 71t145.5 27q91 0 165.5 -40.5t118.5 -104.5t67.5 -135.5t23.5 -141.5q0 -71 -24 -145.5t-68.5 -141.5t-120 -110t-168.5 -43zM477 774q110 0 180 102.5
t70 251.5q0 101 -32 187t-97.5 142t-151.5 56q-128 0 -202 -97t-74 -247q0 -98 36.5 -187.5t108.5 -148.5t162 -59z" />
    <glyph glyph-name="guillemotright" unicode="&#xbb;" horiz-adv-x="933" 
d="M131 145h-37q150 186 326 387q-186 212 -326 386h37l393 -375v-21zM465 145h-37q150 186 326 387q-186 212 -326 386h37l393 -375v-21z" />
    <glyph glyph-name="onequarter" unicode="&#xbc;" horiz-adv-x="1581" 
d="M418 827h-277v13l95 34v680l-183 -202v28l174 256h185v-14l-88 -35v-713l94 -34v-13zM219 0h-76l1082 1556h80zM1501 0h-276v12l94 39v152h-391v22l381 584h186v-14l-88 -35v-500l111 -43v-14h-111v-152l94 -39v-12zM1319 743l-330 -501h330v501z" />
    <glyph glyph-name="onehalf" unicode="&#xbd;" horiz-adv-x="1642" 
d="M422 827h-277v13l95 34v680l-183 -202v28l174 256h185v-14l-88 -35v-713l94 -34v-13zM223 0h-76l1082 1556h80zM1544 0h-553v25q92 23 191 110t166 207.5t67 228.5q0 89 -45.5 147t-118.5 58q-78 0 -128 -66t-50 -159q0 -65 12 -139h-36l-45 215q33 81 98.5 135.5
t171.5 54.5q32 0 62 -5.5t63.5 -21t58.5 -40.5t41.5 -69t16.5 -101q0 -39 -7.5 -77t-17 -69t-31 -67t-36 -59t-45.5 -56.5t-45.5 -49t-51 -47t-47 -40.5t-48.5 -39t-42 -33h330l90 131h24z" />
    <glyph glyph-name="threequarters" unicode="&#xbe;" horiz-adv-x="1763" 
d="M319 815q-91 0 -166.5 35.5t-95.5 93.5l37 168h39q-12 -56 -12 -108q0 -54 34 -91t79 -51t94 -14q100 0 156.5 62t56.5 161q0 76 -39.5 118t-114.5 42q-25 0 -69.5 -12.5t-73.5 -30.5v45q122 47 180.5 104.5t58.5 130.5q0 60 -41.5 98t-115.5 38q-71 0 -120.5 -38.5
t-49.5 -105.5q0 -44 20 -131h-35l-61 170q37 56 104 101t152 45q99 0 170.5 -43t71.5 -123q0 -63 -54.5 -121t-154.5 -101q104 15 185 -33.5t81 -150.5q0 -110 -91 -184t-225 -74zM406 0h-78l1081 1556h82zM1686 0h-275v12l92 39v152h-391v22l381 584h188v-14l-88 -35v-500
l111 -43v-14h-111v-152l93 -39v-12zM1503 743l-327 -501h327v501z" />
    <glyph glyph-name="questiondown" unicode="&#xbf;" horiz-adv-x="899" 
d="M512 1669q47 0 76.5 -29.5t29.5 -74.5t-30 -76t-76 -31t-76 31t-30 76t29.5 74.5t76.5 29.5zM504 1329h31q12 -88 12 -155q0 -59 -7 -102t-30.5 -91t-47 -84t-75.5 -109q-44 -61 -69.5 -101t-54.5 -97.5t-42.5 -117t-13.5 -124.5q0 -79 21.5 -139t58.5 -94t80.5 -51
t93.5 -17q93 0 156.5 51t90 137.5t26.5 194.5t-27 227h34l101 -413q-40 -113 -146 -190t-256 -77q-51 0 -98.5 9t-99 35t-89.5 66.5t-62.5 110t-24.5 158.5q0 96 30 180t99 179q39 54 93.5 114t87.5 98t65.5 93t47.5 130t15 179z" />
    <glyph glyph-name="Agrave" unicode="&#xc0;" horiz-adv-x="1554" 
d="M795 1659h-27q-122 105 -213.5 205.5t-91.5 142.5q0 37 43 37q44 0 118 -92.5t171 -292.5zM381 0h-424v23l158 51l590 1429l-29 70h125l653 -1499l152 -51v-23h-476v23l158 51l-250 585h-610l-235 -585l188 -51v-23zM725 1393l-268 -664h551z" />
    <glyph glyph-name="Aacute" unicode="&#xc1;" horiz-adv-x="1554" 
d="M745 1659h-26q98 202 170.5 293.5t118.5 91.5q20 0 30.5 -9.5t10.5 -25.5q0 -46 -90 -144.5t-214 -205.5zM381 0h-424v23l158 51l590 1429l-29 70h125l653 -1499l152 -51v-23h-476v23l158 51l-250 585h-610l-235 -585l188 -51v-23zM725 1393l-268 -664h551z" />
    <glyph glyph-name="Acircumflex" unicode="&#xc2;" horiz-adv-x="1554" 
d="M532 1618h-28q24 43 63 116q94 173 127 221t68 48q33 0 65 -46.5t126 -219.5q13 -24 20.5 -38t20.5 -37t24 -44h-29q-17 20 -59.5 69t-64 74.5t-52 63.5t-51.5 69q-22 -31 -54 -71t-49 -60t-68 -78t-59 -67zM381 0h-424v23l158 51l590 1429l-29 70h125l653 -1499l152 -51
v-23h-476v23l158 51l-250 585h-610l-235 -585l188 -51v-23zM725 1393l-268 -664h551z" />
    <glyph glyph-name="Atilde" unicode="&#xc3;" horiz-adv-x="1554" 
d="M512 1698h-25q10 94 54.5 146t113.5 52q37 0 70.5 -16.5t55.5 -36.5t51.5 -36.5t58.5 -16.5q85 0 121 123h22q-9 -95 -54 -148t-114 -53q-37 0 -71 16.5t-55 37t-50 37t-57 16.5q-85 0 -121 -121zM381 0h-424v23l158 51l590 1429l-29 70h125l653 -1499l152 -51v-23h-476
v23l158 51l-250 585h-610l-235 -585l188 -51v-23zM725 1393l-268 -664h551z" />
    <glyph glyph-name="Adieresis" unicode="&#xc4;" horiz-adv-x="1554" 
d="M612 1718q-41 0 -66.5 26t-25.5 66t25.5 67.5t66.5 27.5q42 0 68.5 -27.5t26.5 -67.5t-26.5 -66t-68.5 -26zM909 1718q-41 0 -66.5 26t-25.5 66t25.5 67.5t66.5 27.5q42 0 68.5 -27.5t26.5 -67.5t-26.5 -66t-68.5 -26zM381 0h-424v23l158 51l590 1429l-29 70h125
l653 -1499l152 -51v-23h-476v23l158 51l-250 585h-610l-235 -585l188 -51v-23zM725 1393l-268 -664h551z" />
    <glyph glyph-name="Aring" unicode="&#xc5;" horiz-adv-x="1554" 
d="M745 1694q-70 0 -121 51.5t-51 120.5q0 70 50.5 120t121.5 50q69 0 119.5 -50t50.5 -120q0 -69 -50.5 -120.5t-119.5 -51.5zM745 1749q46 0 80.5 35.5t34.5 81.5q0 47 -34.5 80.5t-80.5 33.5q-47 0 -81.5 -33.5t-34.5 -80.5q0 -46 34.5 -81.5t81.5 -35.5zM381 0h-424v23
l158 51l590 1429l-29 70h125l653 -1499l152 -51v-23h-476v23l158 51l-250 585h-610l-235 -585l188 -51v-23zM725 1393l-268 -664h551z" />
    <glyph glyph-name="AE" unicode="&#xc6;" horiz-adv-x="1777" 
d="M356 0h-405v23l149 61l777 1472h755l72 -317h-27l-143 248h-508v-619h344l57 174h31v-419h-31l-57 174h-344v-723h528l144 243h26l-71 -317h-922v23l154 61v594h-396l-313 -602l180 -53v-23zM885 1444l-359 -694h359v694z" />
    <glyph glyph-name="Ccedilla" unicode="&#xc7;" horiz-adv-x="1574" 
d="M1540 616h35q-77 -276 -265.5 -451.5t-445.5 -187.5l-53 -94q78 0 119 -37.5t41 -95.5q0 -62 -46 -115t-122 -53q-58 0 -119 35v21q61 -23 104 -23q55 0 87 25.5t32 74.5q0 44 -38.5 75.5t-110.5 31.5v39l65 116q-151 2 -285.5 56.5t-235 153t-159.5 246.5t-59 325
q0 235 105 421.5t291 290t419 103.5q97 0 186.5 -20.5t149 -50.5t98 -57.5t51.5 -47.5v-455h-36q0 143 -37.5 252t-104 174t-150 97t-182.5 32q-51 0 -105 -8.5t-117.5 -30t-121 -54.5t-111.5 -87t-93.5 -121.5t-63.5 -163.5t-24 -209q2 -159 42 -290t104.5 -218.5
t149.5 -148t175 -87t184 -26.5q223 0 392.5 148t254.5 415z" />
    <glyph glyph-name="Egrave" unicode="&#xc8;" horiz-adv-x="1138" 
d="M670 1659h-27q-120 104 -211.5 204.5t-91.5 143.5q0 37 43 37t116.5 -93t170.5 -292zM1014 0h-936v23l153 61v1386l-153 64v22h915l72 -317h-27l-143 248h-522v-619h358l57 174h31v-419h-31l-57 174h-358v-723h542l144 243h26z" />
    <glyph glyph-name="Eacute" unicode="&#xc9;" horiz-adv-x="1138" 
d="M563 1659h-26q97 201 170.5 293t119.5 92q20 0 30.5 -9.5t10.5 -25.5q0 -46 -90.5 -145.5t-214.5 -204.5zM1014 0h-936v23l153 61v1386l-153 64v22h915l72 -317h-27l-143 248h-522v-619h358l57 174h31v-419h-31l-57 174h-358v-723h542l144 243h26z" />
    <glyph glyph-name="Ecircumflex" unicode="&#xca;" horiz-adv-x="1138" 
d="M352 1618h-28q24 43 63 116q94 173 127 221t68 48q33 0 65 -46.5t126 -219.5q13 -24 20.5 -38t20.5 -37t24 -44h-31q-19 23 -74 87.5t-89 106.5t-62 82q-28 -40 -62.5 -82t-91 -106.5t-76.5 -87.5zM1014 0h-936v23l153 61v1386l-153 64v22h915l72 -317h-27l-143 248h-522
v-619h358l57 174h31v-419h-31l-57 174h-358v-723h542l144 243h26z" />
    <glyph glyph-name="Edieresis" unicode="&#xcb;" horiz-adv-x="1138" 
d="M430 1718q-41 0 -66.5 26t-25.5 66t25.5 67.5t66.5 27.5q42 0 68 -27t26 -68q0 -40 -26 -66t-68 -26zM727 1718q-41 0 -66.5 26t-25.5 66t25.5 67.5t66.5 27.5q42 0 68 -27t26 -68q0 -40 -26 -66t-68 -26zM1014 0h-936v23l153 61v1386l-153 64v22h915l72 -317h-27
l-143 248h-522v-619h358l57 174h31v-419h-31l-57 174h-358v-723h542l144 243h26z" />
    <glyph glyph-name="Igrave" unicode="&#xcc;" horiz-adv-x="604" 
d="M336 1659h-27q-122 105 -213.5 205.5t-91.5 142.5q0 37 43 37q44 0 118 -92.5t171 -292.5zM526 0h-448v23l153 61v1386l-153 64v22h448v-22l-153 -64v-1386l153 -61v-23z" />
    <glyph glyph-name="Iacute" unicode="&#xcd;" horiz-adv-x="604" 
d="M287 1659h-27q98 202 170.5 293.5t118.5 91.5q20 0 30.5 -9.5t10.5 -25.5q0 -46 -90 -145t-213 -205zM526 0h-448v23l153 61v1386l-153 64v22h448v-22l-153 -64v-1386l153 -61v-23z" />
    <glyph glyph-name="Icircumflex" unicode="&#xce;" horiz-adv-x="604" 
d="M74 1618h-29q24 43 63 116q94 173 127 221t68 48q33 0 65 -46.5t126 -219.5q13 -24 20.5 -38t20.5 -37t24 -44h-29q-17 20 -59.5 69t-64 74.5t-52 63.5t-51.5 69q-18 -25 -37.5 -50.5t-47.5 -59t-42.5 -50.5t-53.5 -61t-48 -55zM526 0h-448v23l153 61v1386l-153 64v22
h448v-22l-153 -64v-1386l153 -61v-23z" />
    <glyph glyph-name="Idieresis" unicode="&#xcf;" horiz-adv-x="604" 
d="M154 1718q-41 0 -67 26t-26 66t26 67.5t67 27.5t66.5 -27.5t25.5 -67.5t-25.5 -66t-66.5 -26zM451 1718q-41 0 -67 26t-26 66t26 67.5t67 27.5t66.5 -27.5t25.5 -67.5t-25.5 -66t-66.5 -26zM526 0h-448v23l153 61v1386l-153 64v22h448v-22l-153 -64v-1386l153 -61v-23z
" />
    <glyph glyph-name="Eth" unicode="&#xd0;" horiz-adv-x="1613" 
d="M78 1556h676q234 0 410.5 -98.5t270 -276.5t93.5 -411q0 -354 -211.5 -562t-571.5 -208h-667v23l153 61v661h-127v64h127v661l-153 64v22zM375 74h321q310 0 488 183.5t178 506.5q0 211 -81 374t-235.5 256t-359.5 93h-311v-678h262v-64h-262v-671z" />
    <glyph glyph-name="Ntilde" unicode="&#xd1;" horiz-adv-x="1402" 
d="M442 1698h-24q9 93 53.5 145.5t112.5 52.5q37 0 71 -16.5t55 -36.5t50.5 -36.5t58.5 -16.5q85 0 121 123h25q-9 -95 -54 -148t-114 -53q-37 0 -71 16.5t-55.5 37t-50.5 37t-57 16.5q-88 0 -121 -121zM477 0h-399v23l153 61v1386l-153 64v22h252l762 -1218v1132l-154 64
v22h399v-22l-153 -64v-1470h-56l-802 1290v-1206l151 -61v-23z" />
    <glyph glyph-name="Ograve" unicode="&#xd2;" horiz-adv-x="1644" 
d="M856 1659h-27q-120 104 -211.5 204.5t-91.5 143.5q0 37 43 37t116.5 -93t170.5 -292zM795 -23q-143 0 -273.5 60t-227 164t-153.5 253t-57 318q0 176 62 328t165.5 254.5t238.5 160.5t281 58q145 0 278 -58.5t233 -159.5t159.5 -247t59.5 -311q0 -172 -64.5 -326.5
t-171 -261.5t-245.5 -169.5t-285 -62.5zM848 53q77 0 151 21.5t146 73t126.5 127t88 193t33.5 261.5q0 186 -50 335t-134.5 242t-191 142t-224.5 49q-73 0 -146 -19t-148 -66.5t-132 -119t-93 -187.5t-36 -261q0 -150 37 -280.5t98.5 -222.5t141 -158t165 -98t168.5 -32z
" />
    <glyph glyph-name="Oacute" unicode="&#xd3;" horiz-adv-x="1644" 
d="M807 1659h-27q97 200 171 292.5t118 92.5q20 0 30.5 -9.5t10.5 -25.5q0 -46 -90 -145t-213 -205zM795 -23q-143 0 -273.5 60t-227 164t-153.5 253t-57 318q0 176 62 328t165.5 254.5t238.5 160.5t281 58q145 0 278 -58.5t233 -159.5t159.5 -247t59.5 -311
q0 -172 -64.5 -326.5t-171 -261.5t-245.5 -169.5t-285 -62.5zM848 53q77 0 151 21.5t146 73t126.5 127t88 193t33.5 261.5q0 186 -50 335t-134.5 242t-191 142t-224.5 49q-73 0 -146 -19t-148 -66.5t-132 -119t-93 -187.5t-36 -261q0 -150 37 -280.5t98.5 -222.5t141 -158
t165 -98t168.5 -32z" />
    <glyph glyph-name="Ocircumflex" unicode="&#xd4;" horiz-adv-x="1644" 
d="M594 1618h-29q26 46 68 124q92 168 124.5 214.5t65.5 46.5t65 -46.5t126 -219.5q41 -75 65 -119h-28q-20 23 -60 69.5t-63.5 73.5t-53.5 64.5t-51 68.5q-18 -25 -37.5 -50.5t-47.5 -59t-42.5 -50.5t-53.5 -61t-48 -55zM795 -23q-143 0 -273.5 60t-227 164t-153.5 253
t-57 318q0 176 62 328t165.5 254.5t238.5 160.5t281 58q145 0 278 -58.5t233 -159.5t159.5 -247t59.5 -311q0 -172 -64.5 -326.5t-171 -261.5t-245.5 -169.5t-285 -62.5zM848 53q77 0 151 21.5t146 73t126.5 127t88 193t33.5 261.5q0 186 -50 335t-134.5 242t-191 142
t-224.5 49q-73 0 -146 -19t-148 -66.5t-132 -119t-93 -187.5t-36 -261q0 -150 37 -280.5t98.5 -222.5t141 -158t165 -98t168.5 -32z" />
    <glyph glyph-name="Otilde" unicode="&#xd5;" horiz-adv-x="1644" 
d="M573 1698h-22q9 94 53 146t113 52q37 0 71 -16.5t55 -36.5t50.5 -36.5t58.5 -16.5q85 0 121 123h23q-9 -95 -54 -148t-114 -53q-37 0 -71 16.5t-55.5 37t-50.5 37t-57 16.5q-85 0 -121 -121zM795 -23q-143 0 -273.5 60t-227 164t-153.5 253t-57 318q0 176 62 328
t165.5 254.5t238.5 160.5t281 58q145 0 278 -58.5t233 -159.5t159.5 -247t59.5 -311q0 -172 -64.5 -326.5t-171 -261.5t-245.5 -169.5t-285 -62.5zM848 53q77 0 151 21.5t146 73t126.5 127t88 193t33.5 261.5q0 186 -50 335t-134.5 242t-191 142t-224.5 49q-73 0 -146 -19
t-148 -66.5t-132 -119t-93 -187.5t-36 -261q0 -150 37 -280.5t98.5 -222.5t141 -158t165 -98t168.5 -32z" />
    <glyph glyph-name="Odieresis" unicode="&#xd6;" horiz-adv-x="1644" 
d="M674 1718q-41 0 -66.5 26t-25.5 66t25.5 67.5t66.5 27.5q42 0 68 -27t26 -68q0 -40 -26 -66t-68 -26zM971 1718q-41 0 -66.5 26t-25.5 66t25.5 67.5t66.5 27.5q42 0 68 -27t26 -68q0 -40 -26 -66t-68 -26zM795 -23q-143 0 -273.5 60t-227 164t-153.5 253t-57 318
q0 176 62 328t165.5 254.5t238.5 160.5t281 58q145 0 278 -58.5t233 -159.5t159.5 -247t59.5 -311q0 -172 -64.5 -326.5t-171 -261.5t-245.5 -169.5t-285 -62.5zM848 53q77 0 151 21.5t146 73t126.5 127t88 193t33.5 261.5q0 186 -50 335t-134.5 242t-191 142t-224.5 49
q-73 0 -146 -19t-148 -66.5t-132 -119t-93 -187.5t-36 -261q0 -150 37 -280.5t98.5 -222.5t141 -158t165 -98t168.5 -32z" />
    <glyph glyph-name="multiply" unicode="&#xd7;" horiz-adv-x="794" 
d="M399 557l-227 -227l-57 55l227 229l-227 228l57 57l227 -227l228 225l55 -57l-225 -226l225 -227l-55 -57z" />
    <glyph glyph-name="Oslash" unicode="&#xd8;" horiz-adv-x="1644" 
d="M1370 1556l-92 -143q132 -108 207.5 -267t75.5 -349q0 -172 -64.5 -326.5t-171 -261.5t-245.5 -169.5t-285 -62.5q-198 0 -369 113l-96 -149h-94l126 196q-129 109 -203.5 274t-74.5 361q0 176 62 328t165.5 254.5t238.5 160.5t281 58q207 0 381 -113l64 96h94zM238 844
q0 -361 200 -588l713 1106q-153 135 -358 135q-73 0 -146 -19t-148 -66.5t-132 -119t-93 -187.5t-36 -261zM848 53q77 0 151 21.5t146 73t126.5 127t88 193t33.5 261.5q0 364 -185 576l-712 -1106q166 -146 352 -146z" />
    <glyph glyph-name="Ugrave" unicode="&#xd9;" horiz-adv-x="1454" 
d="M776 1659h-26q-121 103 -213.5 204t-92.5 144q0 37 43 37t117.5 -93t171.5 -292zM731 -23q-120 0 -212 30t-151.5 82t-96.5 130.5t-52.5 168t-15.5 200.5v882l-154 64v22h449v-22l-154 -64v-847q0 -292 101 -427t300 -135q141 0 230 49t136.5 166t47.5 312v882l-153 64
v22h399v-22l-154 -64v-882q0 -115 -16 -207t-54 -169t-97 -128t-148 -79t-205 -28z" />
    <glyph glyph-name="Uacute" unicode="&#xda;" horiz-adv-x="1454" 
d="M717 1659h-27q97 201 171 293t120 92q20 0 30.5 -9.5t10.5 -25.5q0 -46 -90.5 -145.5t-214.5 -204.5zM731 -23q-120 0 -212 30t-151.5 82t-96.5 130.5t-52.5 168t-15.5 200.5v882l-154 64v22h449v-22l-154 -64v-847q0 -292 101 -427t300 -135q141 0 230 49t136.5 166
t47.5 312v882l-153 64v22h399v-22l-154 -64v-882q0 -115 -16 -207t-54 -169t-97 -128t-148 -79t-205 -28z" />
    <glyph glyph-name="Ucircumflex" unicode="&#xdb;" horiz-adv-x="1454" 
d="M514 1618h-31q26 46 68 124q92 168 124.5 214.5t65.5 46.5q35 0 69 -49.5t127 -223.5q38 -71 60 -112h-28q-20 23 -60 69.5t-63.5 73.5t-53.5 64.5t-51 68.5q-21 -31 -51.5 -69t-52 -63.5t-64 -74.5t-59.5 -69zM731 -23q-120 0 -212 30t-151.5 82t-96.5 130.5t-52.5 168
t-15.5 200.5v882l-154 64v22h449v-22l-154 -64v-847q0 -292 101 -427t300 -135q141 0 230 49t136.5 166t47.5 312v882l-153 64v22h399v-22l-154 -64v-882q0 -115 -16 -207t-54 -169t-97 -128t-148 -79t-205 -28z" />
    <glyph glyph-name="Udieresis" unicode="&#xdc;" horiz-adv-x="1454" 
d="M592 1718q-41 0 -66.5 26t-25.5 66t25.5 67.5t66.5 27.5q42 0 68 -27t26 -68q0 -40 -26 -66t-68 -26zM889 1718q-41 0 -66.5 26t-25.5 66t25.5 67.5t66.5 27.5q42 0 68 -27t26 -68q0 -40 -26 -66t-68 -26zM731 -23q-120 0 -212 30t-151.5 82t-96.5 130.5t-52.5 168
t-15.5 200.5v882l-154 64v22h449v-22l-154 -64v-847q0 -292 101 -427t300 -135q141 0 230 49t136.5 166t47.5 312v882l-153 64v22h399v-22l-154 -64v-882q0 -115 -16 -207t-54 -169t-97 -128t-148 -79t-205 -28z" />
    <glyph glyph-name="Yacute" unicode="&#xdd;" horiz-adv-x="1292" 
d="M643 1659h-27q97 201 171 293t120 92q20 0 30.5 -9.5t10.5 -25.5q0 -45 -90 -144t-215 -206zM879 0h-449v23l154 61v491l-482 906l-143 53v22h455v-22l-148 -49l436 -823l414 821l-190 51v22h403v-22l-147 -55l-457 -891v-504l154 -61v-23z" />
    <glyph glyph-name="Thorn" unicode="&#xde;" horiz-adv-x="1263" 
d="M526 0h-448v23l153 61v1386l-153 64v22h448v-22l-153 -64v-237h315q102 0 191.5 -23.5t161 -69.5t113.5 -122t42 -174q0 -97 -42 -177.5t-113 -131.5t-162 -79t-191 -28h-315v-344l153 -61v-23zM373 1178v-695h280q192 0 294 96t102 263q0 173 -103 254.5t-289 81.5h-284
z" />
    <glyph glyph-name="germandbls" unicode="&#xdf;" horiz-adv-x="1173" 
d="M807 -23q-107 0 -198.5 52.5t-135.5 117.5l92 267h41q-24 -74 -24 -140q0 -109 61 -170t166 -61q99 0 167 50t68 157q0 44 -14.5 81t-33.5 60t-53.5 45.5t-57 33t-62.5 26.5q-40 17 -60 26.5t-54.5 28t-53 33t-42.5 38t-36 47.5t-21 56.5t-9 69.5q0 60 21 109t51 84.5
t60.5 71t51.5 84.5t21 109q0 134 -89 240t-210 106q-85 0 -122.5 -67t-37.5 -203v-1329h-256v23l133 40v1246q0 179 65.5 270.5t206.5 91.5q168 0 273.5 -113.5t105.5 -273.5q0 -66 -20 -122t-49 -93t-58 -70t-49 -70.5t-20 -76.5q0 -23 7 -43.5t16.5 -36t31.5 -33t38 -28.5
t51 -28t56 -26.5t66 -29.5q58 -25 96 -48t73 -58.5t51.5 -86.5t16.5 -119q0 -90 -28.5 -158.5t-76.5 -106t-102 -55.5t-114 -18z" />
    <glyph glyph-name="agrave" unicode="&#xe0;" horiz-adv-x="983" 
d="M510 1139h-27q-123 107 -213 206.5t-90 141.5q0 37 43 37t117.5 -93t169.5 -292zM819 752v-650l131 -10v-31l-229 -61h-25v244q-8 -25 -23.5 -55t-45 -69.5t-65.5 -70.5t-89.5 -52.5t-112.5 -21.5q-116 0 -189 75t-73 196q0 51 15.5 97t39 80.5t63 66t74 53t86.5 41.5
t87 31.5t88.5 23.5t77.5 16.5t67 12.5v61q0 142 -62 210.5t-167 68.5t-177.5 -67t-72.5 -173q0 -60 23 -119h-41l-86 250q21 29 51 55t76.5 53t113 43.5t144.5 16.5q161 0 241 -76t80 -239zM406 51q53 0 102 26t85 68t61 83t42 83v316q-10 -2 -41.5 -9.5t-53 -12.5
t-58.5 -15.5t-63.5 -21t-61.5 -27.5t-59.5 -35t-50.5 -43.5t-42 -54t-26.5 -65t-10.5 -77.5q0 -86 45 -150.5t132 -64.5z" />
    <glyph glyph-name="aacute" unicode="&#xe1;" horiz-adv-x="983" 
d="M766 1489q0 -83 -305 -350h-27q97 200 171 292.5t118 92.5q20 0 31.5 -10t11.5 -25zM819 752v-650l131 -10v-31l-229 -61h-25v244q-8 -25 -23.5 -55t-45 -69.5t-65.5 -70.5t-89.5 -52.5t-112.5 -21.5q-116 0 -189 75t-73 196q0 51 15.5 97t39 80.5t63 66t74 53t86.5 41.5
t87 31.5t88.5 23.5t77.5 16.5t67 12.5v61q0 142 -62 210.5t-167 68.5t-177.5 -67t-72.5 -173q0 -60 23 -119h-41l-86 250q21 29 51 55t76.5 53t113 43.5t144.5 16.5q161 0 241 -76t80 -239zM406 51q53 0 102 26t85 68t61 83t42 83v316q-10 -2 -41.5 -9.5t-53 -12.5
t-58.5 -15.5t-63.5 -21t-61.5 -27.5t-59.5 -35t-50.5 -43.5t-42 -54t-26.5 -65t-10.5 -77.5q0 -86 45 -150.5t132 -64.5z" />
    <glyph glyph-name="acircumflex" unicode="&#xe2;" horiz-adv-x="983" 
d="M477 1374q-18 -25 -37.5 -50.5t-47.5 -59t-42.5 -50.5t-53.5 -61t-48 -55h-29q26 46 68 124q92 168 124.5 214.5t65.5 46.5q35 0 69 -49.5t127 -223.5q38 -71 60 -112h-28q-20 23 -60 69.5t-63.5 73.5t-53.5 64.5t-51 68.5zM819 752v-650l131 -10v-31l-229 -61h-25v244
q-8 -25 -23.5 -55t-45 -69.5t-65.5 -70.5t-89.5 -52.5t-112.5 -21.5q-116 0 -189 75t-73 196q0 51 15.5 97t39 80.5t63 66t74 53t86.5 41.5t87 31.5t88.5 23.5t77.5 16.5t67 12.5v61q0 142 -62 210.5t-167 68.5t-177.5 -67t-72.5 -173q0 -60 23 -119h-41l-86 250
q21 29 51 55t76.5 53t113 43.5t144.5 16.5q161 0 241 -76t80 -239zM406 51q53 0 102 26t85 68t61 83t42 83v316q-10 -2 -41.5 -9.5t-53 -12.5t-58.5 -15.5t-63.5 -21t-61.5 -27.5t-59.5 -35t-50.5 -43.5t-42 -54t-26.5 -65t-10.5 -77.5q0 -86 45 -150.5t132 -64.5z" />
    <glyph glyph-name="atilde" unicode="&#xe3;" horiz-adv-x="983" 
d="M348 1298q-85 0 -121 -120h-22q9 94 53 146t113 52q37 0 71 -16.5t55 -36.5t50.5 -36.5t58.5 -16.5q85 0 121 123h25q-11 -95 -55.5 -148t-114.5 -53q-37 0 -71 16.5t-55.5 36.5t-50.5 36.5t-57 16.5zM819 752v-650l131 -10v-31l-229 -61h-25v244q-8 -25 -23.5 -55
t-45 -69.5t-65.5 -70.5t-89.5 -52.5t-112.5 -21.5q-116 0 -189 75t-73 196q0 51 15.5 97t39 80.5t63 66t74 53t86.5 41.5t87 31.5t88.5 23.5t77.5 16.5t67 12.5v61q0 142 -62 210.5t-167 68.5t-177.5 -67t-72.5 -173q0 -60 23 -119h-41l-86 250q21 29 51 55t76.5 53
t113 43.5t144.5 16.5q161 0 241 -76t80 -239zM406 51q53 0 102 26t85 68t61 83t42 83v316q-10 -2 -41.5 -9.5t-53 -12.5t-58.5 -15.5t-63.5 -21t-61.5 -27.5t-59.5 -35t-50.5 -43.5t-42 -54t-26.5 -65t-10.5 -77.5q0 -86 45 -150.5t132 -64.5z" />
    <glyph glyph-name="adieresis" unicode="&#xe4;" horiz-adv-x="983" 
d="M328 1276q-41 0 -66.5 26t-25.5 66t25.5 67t66.5 27q42 0 68 -27t26 -67t-26 -66t-68 -26zM625 1276q-41 0 -67 26t-26 66t26 67t67 27q42 0 68 -27t26 -67t-26 -66t-68 -26zM819 752v-650l131 -10v-31l-229 -61h-25v244q-8 -25 -23.5 -55t-45 -69.5t-65.5 -70.5
t-89.5 -52.5t-112.5 -21.5q-116 0 -189 75t-73 196q0 51 15.5 97t39 80.5t63 66t74 53t86.5 41.5t87 31.5t88.5 23.5t77.5 16.5t67 12.5v61q0 142 -62 210.5t-167 68.5t-177.5 -67t-72.5 -173q0 -60 23 -119h-41l-86 250q21 29 51 55t76.5 53t113 43.5t144.5 16.5
q161 0 241 -76t80 -239zM406 51q53 0 102 26t85 68t61 83t42 83v316q-10 -2 -41.5 -9.5t-53 -12.5t-58.5 -15.5t-63.5 -21t-61.5 -27.5t-59.5 -35t-50.5 -43.5t-42 -54t-26.5 -65t-10.5 -77.5q0 -86 45 -150.5t132 -64.5z" />
    <glyph glyph-name="aring" unicode="&#xe5;" horiz-adv-x="983" 
d="M477 1174q-70 0 -121 51.5t-51 120.5q0 70 50.5 120t121.5 50q69 0 119.5 -50t50.5 -120q0 -69 -50.5 -120.5t-119.5 -51.5zM477 1460q-48 0 -82.5 -33.5t-34.5 -80.5q0 -46 35 -81.5t82 -35.5q46 0 80.5 35.5t34.5 81.5q0 47 -34.5 80.5t-80.5 33.5zM819 752v-650
l131 -10v-31l-229 -61h-25v244q-8 -25 -23.5 -55t-45 -69.5t-65.5 -70.5t-89.5 -52.5t-112.5 -21.5q-116 0 -189 75t-73 196q0 51 15.5 97t39 80.5t63 66t74 53t86.5 41.5t87 31.5t88.5 23.5t77.5 16.5t67 12.5v61q0 142 -62 210.5t-167 68.5t-177.5 -67t-72.5 -173
q0 -60 23 -119h-41l-86 250q21 29 51 55t76.5 53t113 43.5t144.5 16.5q161 0 241 -76t80 -239zM406 51q53 0 102 26t85 68t61 83t42 83v316q-10 -2 -41.5 -9.5t-53 -12.5t-58.5 -15.5t-63.5 -21t-61.5 -27.5t-59.5 -35t-50.5 -43.5t-42 -54t-26.5 -65t-10.5 -77.5
q0 -86 45 -150.5t132 -64.5z" />
    <glyph glyph-name="ae" unicode="&#xe6;" horiz-adv-x="1658" 
d="M362 -23q-119 0 -191.5 74t-72.5 195q0 88 47 160t101.5 112t154.5 75t145.5 45t135.5 27q2 1 3.5 1t3.5 0.5t3.5 1t3.5 0.5v61q0 142 -62 210.5t-167 68.5t-177.5 -67t-72.5 -173q0 -60 23 -119h-41l-86 250q46 64 142 116t239 52q134 0 206.5 -53.5t94.5 -167.5
q62 105 161 163t218 58q175 0 283 -119.5t108 -322.5v-43h-742v-17q0 -221 114 -370.5t286 -149.5q120 0 215.5 80.5t158.5 234.5h37q-54 -170 -173.5 -276.5t-286.5 -106.5q-143 0 -246.5 77t-163.5 204q-25 -47 -63 -93t-89 -90t-116.5 -71t-133.5 -27zM831 647h603
q0 159 -72 254.5t-199 95.5q-132 0 -224.5 -99.5t-107.5 -250.5zM406 51q154 0 290 228v348q-141 -34 -193 -53q-274 -99 -274 -308q0 -88 45.5 -151.5t131.5 -63.5z" />
    <glyph glyph-name="ccedilla" unicode="&#xe7;" horiz-adv-x="1007" 
d="M958 360h35q-26 -80 -64 -146t-91.5 -119.5t-127 -84.5t-159.5 -33l-53 -94q78 0 119.5 -38t41.5 -95q0 -62 -46.5 -115t-123.5 -53q-57 0 -118 35v21q61 -23 104 -23q57 0 89 25.5t32 74.5q0 43 -39 75t-111 32v39l68 116q-199 12 -319.5 166.5t-120.5 374.5
q0 149 57 273t169 200t259 76q123 0 214 -49.5t136 -110.5l-125 -350h-36q38 104 38 199q0 115 -61.5 179t-175.5 64q-153 0 -254.5 -113t-101.5 -323q0 -223 110.5 -370.5t265.5 -147.5q135 0 228.5 77.5t160.5 237.5z" />
    <glyph glyph-name="egrave" unicode="&#xe8;" horiz-adv-x="1026" 
d="M561 1139h-26q-124 108 -214 207t-90 141q0 37 43 37t117.5 -93t169.5 -292zM541 -23q-109 0 -199 45.5t-147.5 121.5t-89 172.5t-31.5 201.5q0 149 60.5 275t168.5 200t240 74q172 0 280.5 -120t108.5 -322v-43h-742v-17q0 -221 114 -370.5t286 -149.5q121 0 216.5 80.5
t160.5 234.5h34q-54 -172 -171.5 -277.5t-288.5 -105.5zM199 647h604q0 159 -72.5 254.5t-198.5 95.5q-133 0 -224 -99t-109 -251z" />
    <glyph glyph-name="eacute" unicode="&#xe9;" horiz-adv-x="1026" 
d="M512 1139h-27q97 200 171 292.5t118 92.5q20 0 31.5 -10t11.5 -25q0 -83 -305 -350zM541 -23q-109 0 -199 45.5t-147.5 121.5t-89 172.5t-31.5 201.5q0 149 60.5 275t168.5 200t240 74q172 0 280.5 -120t108.5 -322v-43h-742v-17q0 -221 114 -370.5t286 -149.5
q121 0 216.5 80.5t160.5 234.5h34q-54 -172 -171.5 -277.5t-288.5 -105.5zM199 647h604q0 159 -72.5 254.5t-198.5 95.5q-133 0 -224 -99t-109 -251z" />
    <glyph glyph-name="ecircumflex" unicode="&#xea;" horiz-adv-x="1026" 
d="M299 1098h-29q26 46 68 124q92 168 124.5 214.5t65.5 46.5q35 0 69 -49.5t127 -223.5q38 -71 60 -112h-28q-20 23 -60 69.5t-63.5 73.5t-53.5 64.5t-51 68.5q-18 -25 -37.5 -50.5t-47.5 -59t-42.5 -50.5t-53.5 -61t-48 -55zM541 -23q-109 0 -199 45.5t-147.5 121.5
t-89 172.5t-31.5 201.5q0 149 60.5 275t168.5 200t240 74q172 0 280.5 -120t108.5 -322v-43h-742v-17q0 -221 114 -370.5t286 -149.5q121 0 216.5 80.5t160.5 234.5h34q-54 -172 -171.5 -277.5t-288.5 -105.5zM199 647h604q0 159 -72.5 254.5t-198.5 95.5q-133 0 -224 -99
t-109 -251z" />
    <glyph glyph-name="edieresis" unicode="&#xeb;" horiz-adv-x="1026" 
d="M379 1276q-41 0 -66.5 26t-25.5 66t25.5 67t66.5 27q42 0 68 -27t26 -67t-26 -66t-68 -26zM676 1276q-41 0 -66.5 26t-25.5 66t25.5 67t66.5 27q42 0 68 -27t26 -67t-26 -66t-68 -26zM541 -23q-109 0 -199 45.5t-147.5 121.5t-89 172.5t-31.5 201.5q0 149 60.5 275
t168.5 200t240 74q172 0 280.5 -120t108.5 -322v-43h-742v-17q0 -221 114 -370.5t286 -149.5q121 0 216.5 80.5t160.5 234.5h34q-54 -172 -171.5 -277.5t-288.5 -105.5zM199 647h604q0 159 -72.5 254.5t-198.5 95.5q-133 0 -224 -99t-109 -251z" />
    <glyph glyph-name="igrave" unicode="&#xec;" horiz-adv-x="473" 
d="M254 1139h-27q-123 107 -213 206.5t-90 141.5q0 37 41 37q44 0 118 -92.5t171 -292.5zM436 0h-389v23l133 40v879l-133 14v25l229 55h27v-973l133 -40v-23z" />
    <glyph glyph-name="iacute" unicode="&#xed;" horiz-adv-x="473" 
d="M205 1139h-27q98 202 170.5 293.5t118.5 91.5q20 0 30.5 -9.5t10.5 -25.5q0 -45 -88.5 -142.5t-214.5 -207.5zM436 0h-389v23l133 40v879l-133 14v25l229 55h27v-973l133 -40v-23z" />
    <glyph glyph-name="icircumflex" unicode="&#xee;" horiz-adv-x="473" 
d="M-8 1098h-29q24 43 63 116q94 173 127 221t68 48q33 0 65 -46.5t126 -219.5q41 -75 65 -119h-28q-20 23 -60 69.5t-63.5 73.5t-53.5 64.5t-51 68.5q-18 -25 -37.5 -50.5t-47.5 -59t-42.5 -50.5t-53.5 -61t-48 -55zM436 0h-389v23l133 40v879l-133 14v25l229 55h27v-973
l133 -40v-23z" />
    <glyph glyph-name="idieresis" unicode="&#xef;" horiz-adv-x="473" 
d="M72 1276q-41 0 -66.5 26t-25.5 66t25.5 67t66.5 27t66.5 -27t25.5 -67t-25.5 -66t-66.5 -26zM369 1276q-41 0 -67 26t-26 66t26 67t67 27t66.5 -27t25.5 -67t-25.5 -66t-66.5 -26zM436 0h-389v23l133 40v879l-133 14v25l229 55h27v-973l133 -40v-23z" />
    <glyph glyph-name="eth" unicode="&#xf0;" horiz-adv-x="1124" 
d="M926 1436l-181 -56q289 -366 289 -780q0 -181 -53.5 -320.5t-161.5 -221t-258 -81.5q-95 0 -176 32.5t-137.5 86.5t-97 125t-59.5 148.5t-19 156.5q0 100 31.5 195.5t89.5 173t149.5 125t200.5 47.5q182 0 311 -141h10q-88 216 -246 417l-231 -69l-25 67l205 62
q-95 112 -233 235h168q103 -92 194 -196l205 61zM569 45q98 0 175.5 61.5t119 166.5t41.5 235q0 206 -100.5 348.5t-265.5 142.5q-155 0 -252 -123.5t-97 -314.5q0 -133 47.5 -251t135.5 -191.5t196 -73.5z" />
    <glyph glyph-name="ntilde" unicode="&#xf1;" horiz-adv-x="1089" 
d="M309 1178h-22q9 94 53 146t113 52q37 0 71 -16.5t55 -36.5t50.5 -36.5t58.5 -16.5q85 0 121 123h22q-9 -95 -53.5 -148t-113.5 -53q-37 0 -71 16.5t-55.5 36.5t-50.5 36.5t-57 16.5q-85 0 -121 -120zM430 0h-383v23l133 40v879l-133 14v25l229 55h27v-223q12 30 29 60
t48 66.5t68 63.5t91.5 45.5t115.5 18.5q122 0 193.5 -74t71.5 -233v-697l133 -40v-23h-383v23l125 40v625q0 305 -201 305q-108 0 -184 -82t-107 -196v-652l127 -40v-23z" />
    <glyph glyph-name="ograve" unicode="&#xf2;" horiz-adv-x="1105" 
d="M586 1139h-27q-123 107 -213 206.5t-90 141.5q0 37 41 37q44 0 118 -92.5t171 -292.5zM557 -23q-95 0 -176.5 34t-137 89.5t-95 127.5t-58 147t-18.5 149q0 72 18 146t57.5 145.5t95.5 127.5t139 90t181 34q99 0 180.5 -34t134.5 -88.5t89 -125.5t51.5 -142t15.5 -140
q0 -60 -12 -122t-36 -125.5t-63.5 -119t-90.5 -99t-122 -69t-153 -25.5zM584 45q136 0 228.5 134.5t92.5 328.5q0 128 -41 238t-125 181.5t-196 71.5q-154 0 -253.5 -127t-99.5 -313q0 -130 48 -247t139.5 -192t206.5 -75z" />
    <glyph glyph-name="oacute" unicode="&#xf3;" horiz-adv-x="1105" 
d="M537 1139h-27q98 202 170.5 293.5t118.5 91.5q20 0 30.5 -9.5t10.5 -25.5q0 -45 -88.5 -142.5t-214.5 -207.5zM557 -23q-95 0 -176.5 34t-137 89.5t-95 127.5t-58 147t-18.5 149q0 72 18 146t57.5 145.5t95.5 127.5t139 90t181 34q99 0 180.5 -34t134.5 -88.5t89 -125.5
t51.5 -142t15.5 -140q0 -60 -12 -122t-36 -125.5t-63.5 -119t-90.5 -99t-122 -69t-153 -25.5zM584 45q136 0 228.5 134.5t92.5 328.5q0 128 -41 238t-125 181.5t-196 71.5q-154 0 -253.5 -127t-99.5 -313q0 -130 48 -247t139.5 -192t206.5 -75z" />
    <glyph glyph-name="ocircumflex" unicode="&#xf4;" horiz-adv-x="1105" 
d="M324 1098h-29q24 43 63 116q94 173 127 221t68 48q33 0 65 -46.5t126 -219.5q13 -24 20.5 -38t20.5 -37t24 -44h-29q-17 20 -59.5 69t-64 74.5t-52 63.5t-51.5 69q-18 -25 -37.5 -50.5t-47.5 -59t-42.5 -50.5t-53.5 -61t-48 -55zM557 -23q-95 0 -176.5 34t-137 89.5
t-95 127.5t-58 147t-18.5 149q0 72 18 146t57.5 145.5t95.5 127.5t139 90t181 34q99 0 180.5 -34t134.5 -88.5t89 -125.5t51.5 -142t15.5 -140q0 -60 -12 -122t-36 -125.5t-63.5 -119t-90.5 -99t-122 -69t-153 -25.5zM584 45q136 0 228.5 134.5t92.5 328.5q0 128 -41 238
t-125 181.5t-196 71.5q-154 0 -253.5 -127t-99.5 -313q0 -130 48 -247t139.5 -192t206.5 -75z" />
    <glyph glyph-name="otilde" unicode="&#xf5;" horiz-adv-x="1105" 
d="M303 1178h-24q11 94 54.5 146t112.5 52q37 0 70.5 -16.5t55.5 -36.5t51.5 -36.5t58.5 -16.5q85 0 121 123h22q-9 -95 -54 -148t-114 -53q-37 0 -71 16.5t-55 36.5t-50 36.5t-57 16.5q-85 0 -121 -120zM557 -23q-95 0 -176.5 34t-137 89.5t-95 127.5t-58 147t-18.5 149
q0 72 18 146t57.5 145.5t95.5 127.5t139 90t181 34q99 0 180.5 -34t134.5 -88.5t89 -125.5t51.5 -142t15.5 -140q0 -60 -12 -122t-36 -125.5t-63.5 -119t-90.5 -99t-122 -69t-153 -25.5zM584 45q136 0 228.5 134.5t92.5 328.5q0 128 -41 238t-125 181.5t-196 71.5
q-154 0 -253.5 -127t-99.5 -313q0 -130 48 -247t139.5 -192t206.5 -75z" />
    <glyph glyph-name="odieresis" unicode="&#xf6;" horiz-adv-x="1105" 
d="M403 1276q-41 0 -66.5 26t-25.5 66t25.5 67t66.5 27t67 -27t26 -67t-26 -66t-67 -26zM700 1276q-41 0 -66.5 26t-25.5 66t25.5 67t66.5 27t67 -27t26 -67t-26 -66t-67 -26zM557 -23q-95 0 -176.5 34t-137 89.5t-95 127.5t-58 147t-18.5 149q0 72 18 146t57.5 145.5
t95.5 127.5t139 90t181 34q99 0 180.5 -34t134.5 -88.5t89 -125.5t51.5 -142t15.5 -140q0 -60 -12 -122t-36 -125.5t-63.5 -119t-90.5 -99t-122 -69t-153 -25.5zM584 45q136 0 228.5 134.5t92.5 328.5q0 128 -41 238t-125 181.5t-196 71.5q-154 0 -253.5 -127t-99.5 -313
q0 -130 48 -247t139.5 -192t206.5 -75z" />
    <glyph glyph-name="divide" unicode="&#xf7;" horiz-adv-x="925" 
d="M463 762q-45 0 -75 30t-30 74q0 45 30 76t75 31q46 0 76 -31t30 -76t-29.5 -74.5t-76.5 -29.5zM823 545h-723v82h723v-82zM463 197q-45 0 -75 29.5t-30 74.5t30 76t75 31q46 0 76 -31t30 -76t-29.5 -74.5t-76.5 -29.5z" />
    <glyph glyph-name="oslash" unicode="&#xf8;" horiz-adv-x="1105" 
d="M963 1069l-82 -127q77 -78 115 -188t38 -217q0 -60 -12 -122t-36 -125.5t-63.5 -119t-90.5 -99t-122 -69t-153 -25.5q-143 0 -256 76l-63 -98h-95l97 149q-81 80 -124.5 194.5t-43.5 225.5q0 72 18 146t57.5 145.5t95.5 127.5t139 90t181 34q145 0 254 -74l49 76h97z
M190 559q0 -206 113 -360l459 708q-92 92 -219 92q-154 0 -253.5 -127t-99.5 -313zM584 45q136 0 228.5 134.5t92.5 328.5q0 197 -90 334l-459 -705q98 -92 228 -92z" />
    <glyph glyph-name="ugrave" unicode="&#xf9;" 
d="M528 1139h-26q-124 109 -214.5 207.5t-90.5 140.5q0 37 43 37q44 0 117.5 -92t170.5 -293zM416 -25q-250 0 -250 332v635l-133 14v25l229 55h27v-698q0 -158 45.5 -223.5t128.5 -65.5q182 0 278 248v645l-133 14v25l230 55h26v-940l133 -16v-23l-231 -57h-25v205
q-19 -44 -46.5 -82.5t-66.5 -73t-93.5 -54.5t-118.5 -20z" />
    <glyph glyph-name="uacute" unicode="&#xfa;" 
d="M479 1139h-26q98 202 170.5 293.5t117.5 91.5q20 0 30.5 -9.5t10.5 -25.5q0 -45 -88.5 -142.5t-214.5 -207.5zM416 -25q-250 0 -250 332v635l-133 14v25l229 55h27v-698q0 -158 45.5 -223.5t128.5 -65.5q182 0 278 248v645l-133 14v25l230 55h26v-940l133 -16v-23
l-231 -57h-25v205q-19 -44 -46.5 -82.5t-66.5 -73t-93.5 -54.5t-118.5 -20z" />
    <glyph glyph-name="ucircumflex" unicode="&#xfb;" 
d="M266 1098h-28q24 43 63 116q94 173 127 221t68 48q33 0 65 -46.5t126 -219.5q13 -24 20.5 -38t20.5 -37t24 -44h-29q-17 20 -59.5 69t-64 74.5t-52 63.5t-51.5 69q-22 -31 -54 -71t-49 -60t-68 -78t-59 -67zM416 -25q-250 0 -250 332v635l-133 14v25l229 55h27v-698
q0 -158 45.5 -223.5t128.5 -65.5q182 0 278 248v645l-133 14v25l230 55h26v-940l133 -16v-23l-231 -57h-25v205q-19 -44 -46.5 -82.5t-66.5 -73t-93.5 -54.5t-118.5 -20z" />
    <glyph glyph-name="udieresis" unicode="&#xfc;" 
d="M346 1276q-41 0 -66.5 26t-25.5 66t25.5 67t66.5 27t66.5 -27t25.5 -67t-25.5 -66t-66.5 -26zM643 1276q-41 0 -66.5 26t-25.5 66t25.5 67t66.5 27t66.5 -27t25.5 -67t-25.5 -66t-66.5 -26zM416 -25q-250 0 -250 332v635l-133 14v25l229 55h27v-698q0 -158 45.5 -223.5
t128.5 -65.5q182 0 278 248v645l-133 14v25l230 55h26v-940l133 -16v-23l-231 -57h-25v205q-19 -44 -46.5 -82.5t-66.5 -73t-93.5 -54.5t-118.5 -20z" />
    <glyph glyph-name="yacute" unicode="&#xfd;" horiz-adv-x="1091" 
d="M535 1139h-27q97 201 171 293t120 92q20 0 30.5 -9.5t10.5 -25.5q0 -45 -89.5 -143t-215.5 -207zM195 -424l-193 215l29 23q148 -136 233 -136q51 0 102.5 54t86.5 125.5t55 146.5l-369 963l-149 47v22h434v-22l-156 -47l316 -826l288 828l-161 45v22h399v-22l-172 -47
l-315 -873q-37 -104 -66.5 -173.5t-69 -140t-80 -111.5t-94.5 -67t-118 -26z" />
    <glyph glyph-name="thorn" unicode="&#xfe;" horiz-adv-x="1019" 
d="M397 -410h-387v23l133 41v1888l-131 17v22l230 57h24v-571q146 0 264 -35.5t194.5 -94t128 -137t73.5 -159.5t22 -166q0 -93 -27 -181t-76.5 -159t-127.5 -114.5t-172 -43.5q-93 0 -156 39.5t-125 110.5v-473l133 -41v-23zM524 51q127 0 212 112.5t85 291.5
q0 86 -20.5 167t-65.5 154t-109 127.5t-156.5 86.5t-203.5 32v-840q46 -55 116 -93t142 -38z" />
    <glyph glyph-name="ydieresis" unicode="&#xff;" horiz-adv-x="1091" 
d="M401 1276q-41 0 -66.5 26t-25.5 66t25.5 67t66.5 27q42 0 68.5 -27t26.5 -67t-26.5 -66t-68.5 -26zM698 1276q-41 0 -66.5 26t-25.5 66t25.5 67t66.5 27q42 0 68.5 -27t26.5 -67t-26.5 -66t-68.5 -26zM195 -424l-193 215l29 23q148 -136 233 -136q51 0 102.5 54
t86.5 125.5t55 146.5l-369 963l-149 47v22h434v-22l-156 -47l316 -826l288 828l-161 45v22h399v-22l-172 -47l-315 -873q-37 -104 -66.5 -173.5t-69 -140t-80 -111.5t-94.5 -67t-118 -26z" />
    <glyph glyph-name="Amacron" unicode="&#x100;" horiz-adv-x="1554" 
d="M1034 1757h-549v88h549v-88zM381 0h-424v23l158 51l590 1429l-29 70h125l653 -1499l152 -51v-23h-476v23l158 51l-250 585h-610l-235 -585l188 -51v-23zM725 1393l-268 -664h551z" />
    <glyph glyph-name="amacron" unicode="&#x101;" horiz-adv-x="983" 
d="M203 1325h549v-88h-549v88zM819 752v-650l131 -10v-31l-229 -61h-25v244q-8 -25 -23.5 -55t-45 -69.5t-65.5 -70.5t-89.5 -52.5t-112.5 -21.5q-116 0 -189 75t-73 196q0 51 15.5 97t39 80.5t63 66t74 53t86.5 41.5t87 31.5t88.5 23.5t77.5 16.5t67 12.5v61
q0 142 -62 210.5t-167 68.5t-177.5 -67t-72.5 -173q0 -60 23 -119h-41l-86 250q21 29 51 55t76.5 53t113 43.5t144.5 16.5q161 0 241 -76t80 -239zM406 51q53 0 102 26t85 68t61 83t42 83v316q-10 -2 -41.5 -9.5t-53 -12.5t-58.5 -15.5t-63.5 -21t-61.5 -27.5t-59.5 -35
t-50.5 -43.5t-42 -54t-26.5 -65t-10.5 -77.5q0 -86 45 -150.5t132 -64.5z" />
    <glyph glyph-name="Abreve" unicode="&#x102;" horiz-adv-x="1554" 
d="M762 1659q-53 0 -100 21t-88 64.5t-65 120.5t-24 179h27q1 -55 15.5 -105t43 -92t78 -67t113.5 -25t113.5 25t78 67t42.5 92t14 105h28q0 -102 -24 -179t-64.5 -120.5t-88 -64.5t-99.5 -21zM381 0h-424v23l158 51l590 1429l-29 70h125l653 -1499l152 -51v-23h-476v23
l158 51l-250 585h-610l-235 -585l188 -51v-23zM725 1393l-268 -664h551z" />
    <glyph glyph-name="abreve" unicode="&#x103;" horiz-adv-x="983" 
d="M477 1139q-52 0 -99.5 21.5t-88 65t-64.5 120.5t-24 178h28q0 -55 14 -105t42.5 -92t78 -67t113.5 -25t113.5 25t78 67t43 92t15.5 105h27q0 -101 -24 -178t-65 -120.5t-88.5 -65t-99.5 -21.5zM819 752v-650l131 -10v-31l-229 -61h-25v244q-8 -25 -23.5 -55t-45 -69.5
t-65.5 -70.5t-89.5 -52.5t-112.5 -21.5q-116 0 -189 75t-73 196q0 51 15.5 97t39 80.5t63 66t74 53t86.5 41.5t87 31.5t88.5 23.5t77.5 16.5t67 12.5v61q0 142 -62 210.5t-167 68.5t-177.5 -67t-72.5 -173q0 -60 23 -119h-41l-86 250q21 29 51 55t76.5 53t113 43.5
t144.5 16.5q161 0 241 -76t80 -239zM406 51q53 0 102 26t85 68t61 83t42 83v316q-10 -2 -41.5 -9.5t-53 -12.5t-58.5 -15.5t-63.5 -21t-61.5 -27.5t-59.5 -35t-50.5 -43.5t-42 -54t-26.5 -65t-10.5 -77.5q0 -86 45 -150.5t132 -64.5z" />
    <glyph glyph-name="Aogonek" unicode="&#x104;" horiz-adv-x="1554" 
d="M1606 23v-23h-213q-44 -46 -80.5 -108t-36.5 -123q0 -55 29.5 -87t72.5 -32q53 0 107 57h26q-77 -115 -174 -115q-59 0 -99 40t-40 104q0 123 160 264h-228v23l158 51l-250 585h-610l-235 -585l188 -51v-23h-424v23l158 51l590 1429l-29 70h125l653 -1499zM725 1393
l-268 -664h551z" />
    <glyph glyph-name="aogonek" unicode="&#x105;" horiz-adv-x="983" 
d="M950 92v-31l-225 -59q-45 -47 -81 -109t-36 -124q0 -55 30 -87t73 -32q52 0 106 57h27q-77 -115 -174 -115q-59 0 -99.5 40t-40.5 104q0 125 166 270v238q-8 -25 -23.5 -55t-45 -69.5t-65.5 -70.5t-89.5 -52.5t-112.5 -21.5q-116 0 -189 75t-73 196q0 51 15.5 97t39 80.5
t63 66t74 53t86.5 41.5t87 31.5t88.5 23.5t77.5 16.5t67 12.5v61q0 142 -62 210.5t-167 68.5t-177.5 -67t-72.5 -173q0 -60 23 -119h-41l-86 250q21 29 51 55t76.5 53t113 43.5t144.5 16.5q161 0 241 -76t80 -239v-650zM406 51q53 0 102 26t85 68t61 83t42 83v316
q-10 -2 -41.5 -9.5t-53 -12.5t-58.5 -15.5t-63.5 -21t-61.5 -27.5t-59.5 -35t-50.5 -43.5t-42 -54t-26.5 -65t-10.5 -77.5q0 -86 45 -150.5t132 -64.5z" />
    <glyph glyph-name="Cacute" unicode="&#x106;" horiz-adv-x="1574" 
d="M811 1659h-27q97 200 171 292.5t118 92.5q20 0 31.5 -10t11.5 -25q0 -45 -90 -144t-215 -206zM831 -23q-153 0 -289 54.5t-237.5 153t-161 247t-59.5 326.5q0 235 105 421.5t291 290t419 103.5q97 0 186.5 -20.5t149 -50.5t98 -57.5t51.5 -47.5v-455h-36q0 143 -37.5 252
t-104 174t-150 97t-182.5 32q-51 0 -105 -8.5t-117.5 -30t-121 -54.5t-111.5 -87t-93.5 -121.5t-63.5 -163.5t-24 -209q2 -159 42 -290t104.5 -218.5t149.5 -148t175 -87t184 -26.5q223 0 392.5 148t254.5 415h35q-39 -140 -108.5 -256.5t-163.5 -202t-215 -133t-257 -47.5z
" />
    <glyph glyph-name="cacute" unicode="&#x107;" horiz-adv-x="1007" 
d="M514 1139h-27q97 200 171 292.5t118 92.5q20 0 31.5 -10t11.5 -25q0 -83 -305 -350zM541 -23q-140 0 -248 74t-163.5 196.5t-55.5 270.5q0 149 57 273t169 200t259 76q123 0 214 -49.5t136 -110.5l-125 -350h-36q38 104 38 199q0 115 -61.5 179t-175.5 64
q-153 0 -254.5 -113t-101.5 -323q0 -223 110.5 -370.5t265.5 -147.5q135 0 228.5 77.5t160.5 237.5h35q-54 -171 -167 -277t-285 -106z" />
    <glyph glyph-name="Cdotaccent" unicode="&#x10a;" horiz-adv-x="1574" 
d="M827 1712q-44 0 -72 28.5t-28 71.5t28 73t72 30t72.5 -30t28.5 -73t-28.5 -71.5t-72.5 -28.5zM831 -23q-153 0 -289 54.5t-237.5 153t-161 247t-59.5 326.5q0 235 105 421.5t291 290t419 103.5q97 0 186.5 -20.5t149 -50.5t98 -57.5t51.5 -47.5v-455h-36q0 143 -37.5 252
t-104 174t-150 97t-182.5 32q-51 0 -105 -8.5t-117.5 -30t-121 -54.5t-111.5 -87t-93.5 -121.5t-63.5 -163.5t-24 -209q2 -159 42 -290t104.5 -218.5t149.5 -148t175 -87t184 -26.5q223 0 392.5 148t254.5 415h35q-39 -140 -108.5 -256.5t-163.5 -202t-215 -133t-257 -47.5z
" />
    <glyph glyph-name="cdotaccent" unicode="&#x10b;" horiz-adv-x="1007" 
d="M530 1192q-44 0 -72 28.5t-28 71.5t28 73t72 30t72.5 -30t28.5 -73t-28.5 -71.5t-72.5 -28.5zM541 -23q-140 0 -248 74t-163.5 196.5t-55.5 270.5q0 149 57 273t169 200t259 76q123 0 214 -49.5t136 -110.5l-125 -350h-36q38 104 38 199q0 115 -61.5 179t-175.5 64
q-153 0 -254.5 -113t-101.5 -323q0 -223 110.5 -370.5t265.5 -147.5q135 0 228.5 77.5t160.5 237.5h35q-54 -171 -167 -277t-285 -106z" />
    <glyph glyph-name="Ccaron" unicode="&#x10c;" horiz-adv-x="1574" 
d="M827 1655q-33 0 -66 47.5t-124 213.5q-14 25 -21.5 39.5t-21 39t-25.5 45.5h29q172 -196 229 -277q21 30 52.5 69.5t50.5 62t66 77t59 68.5h28q-147 -272 -165 -301q-44 -72 -75 -82q-8 -2 -16 -2zM831 -23q-153 0 -289 54.5t-237.5 153t-161 247t-59.5 326.5
q0 235 105 421.5t291 290t419 103.5q97 0 186.5 -20.5t149 -50.5t98 -57.5t51.5 -47.5v-455h-36q0 143 -37.5 252t-104 174t-150 97t-182.5 32q-51 0 -105 -8.5t-117.5 -30t-121 -54.5t-111.5 -87t-93.5 -121.5t-63.5 -163.5t-24 -209q2 -159 42 -290t104.5 -218.5
t149.5 -148t175 -87t184 -26.5q223 0 392.5 148t254.5 415h35q-39 -140 -108.5 -256.5t-163.5 -202t-215 -133t-257 -47.5z" />
    <glyph glyph-name="ccaron" unicode="&#x10d;" horiz-adv-x="1007" 
d="M530 1135q-33 0 -66 47.5t-124 213.5q-14 25 -21.5 39.5t-21 39t-25.5 45.5h29q178 -203 229 -277q21 31 51.5 69t52.5 64t64.5 75t59.5 69h28q-147 -272 -165 -301q-44 -72 -75 -82q-8 -2 -16 -2zM541 -23q-140 0 -248 74t-163.5 196.5t-55.5 270.5q0 149 57 273
t169 200t259 76q123 0 214 -49.5t136 -110.5l-125 -350h-36q38 104 38 199q0 115 -61.5 179t-175.5 64q-153 0 -254.5 -113t-101.5 -323q0 -223 110.5 -370.5t265.5 -147.5q135 0 228.5 77.5t160.5 237.5h35q-54 -171 -167 -277t-285 -106z" />
    <glyph glyph-name="Dcaron" unicode="&#x10e;" horiz-adv-x="1611" 
d="M707 1655q-35 0 -68.5 48.5t-126.5 220.5q-39 73 -63 116h28q20 -23 60.5 -69.5t64 -74.5t54 -65.5t51.5 -67.5q21 30 51 68t53 65t62.5 74t58.5 70h31q-24 -44 -65 -119q-92 -171 -125 -218.5t-66 -47.5zM745 0h-667v23l153 61v1386l-153 64v22h676q233 0 409 -98.5
t269.5 -276.5t93.5 -411q0 -354 -211.5 -562t-569.5 -208zM373 1487v-1413h323q309 0 487.5 183.5t178.5 506.5q0 211 -81.5 374.5t-236 256t-358.5 92.5h-313z" />
    <glyph glyph-name="dcaron" unicode="&#x10f;" horiz-adv-x="1050" 
d="M874 0h-122q-145 0 -262.5 33.5t-194 88t-128 129t-73.5 152.5t-22 162q0 126 46 239t139 188t214 75q166 0 281 -147v622l-131 17v22l229 57h24v-1638zM1004 1065h-27q94 114 94 211q0 49 -21.5 110t-52.5 97q0 43 25.5 65.5t62.5 22.5q43 0 69 -28.5t26 -82.5
q0 -78 -47 -194t-129 -201zM752 41v807q-47 61 -113.5 103t-142.5 42q-126 0 -211.5 -115.5t-85.5 -293.5q0 -108 33.5 -201.5t99.5 -169t173.5 -121t246.5 -51.5z" />
    <glyph glyph-name="Dcroat" unicode="&#x110;" horiz-adv-x="1613" 
d="M78 1556h676q234 0 410.5 -98.5t270 -276.5t93.5 -411q0 -354 -211.5 -562t-571.5 -208h-667v23l153 61v661h-127v64h127v661l-153 64v22zM375 74h321q310 0 488 183.5t178 506.5q0 211 -81 374t-235.5 256t-359.5 93h-311v-678h262v-64h-262v-671z" />
    <glyph glyph-name="dcroat" unicode="&#x111;" horiz-adv-x="1017" 
d="M874 1364h134v-64h-134v-1300h-122q-145 0 -262.5 33.5t-194 88t-128 129t-73.5 152.5t-22 162q0 126 46 239t139 188t214 75q166 0 281 -147v380h-277v64h277v178l-131 17v22l229 57h24v-274zM752 41v807q-47 61 -113.5 103t-142.5 42q-126 0 -211.5 -115.5
t-85.5 -293.5q0 -108 33.5 -201.5t99.5 -169t173.5 -121t246.5 -51.5z" />
    <glyph glyph-name="Emacron" unicode="&#x112;" horiz-adv-x="1138" 
d="M854 1757h-549v88h549v-88zM1014 0h-936v23l153 61v1386l-153 64v22h915l72 -317h-27l-143 248h-522v-619h358l57 174h31v-419h-31l-57 174h-358v-723h542l144 243h26z" />
    <glyph glyph-name="emacron" unicode="&#x113;" horiz-adv-x="1026" 
d="M803 1237h-549v88h549v-88zM541 -23q-109 0 -199 45.5t-147.5 121.5t-89 172.5t-31.5 201.5q0 149 60.5 275t168.5 200t240 74q172 0 280.5 -120t108.5 -322v-43h-742v-17q0 -221 114 -370.5t286 -149.5q121 0 216.5 80.5t160.5 234.5h34q-54 -172 -171.5 -277.5
t-288.5 -105.5zM199 647h604q0 159 -72.5 254.5t-198.5 95.5q-133 0 -224 -99t-109 -251z" />
    <glyph glyph-name="Edotaccent" unicode="&#x116;" horiz-adv-x="1138" 
d="M582 1712q-44 0 -72.5 28.5t-28.5 71.5t28.5 73t72.5 30q42 0 70 -30t28 -73t-27.5 -71.5t-70.5 -28.5zM1014 0h-936v23l153 61v1386l-153 64v22h915l72 -317h-27l-143 248h-522v-619h358l57 174h31v-419h-31l-57 174h-358v-723h542l144 243h26z" />
    <glyph glyph-name="edotaccent" unicode="&#x117;" horiz-adv-x="1026" 
d="M528 1192q-44 0 -72 28.5t-28 71.5t28 73t72 30t72.5 -30t28.5 -73t-28.5 -71.5t-72.5 -28.5zM541 -23q-109 0 -199 45.5t-147.5 121.5t-89 172.5t-31.5 201.5q0 149 60.5 275t168.5 200t240 74q172 0 280.5 -120t108.5 -322v-43h-742v-17q0 -221 114 -370.5t286 -149.5
q121 0 216.5 80.5t160.5 234.5h34q-54 -172 -171.5 -277.5t-288.5 -105.5zM199 647h604q0 159 -72.5 254.5t-198.5 95.5q-133 0 -224 -99t-109 -251z" />
    <glyph glyph-name="Eogonek" unicode="&#x118;" horiz-adv-x="1138" 
d="M932 -350q52 0 106 57h25q-74 -115 -172 -115q-59 0 -99 40t-40 104q0 124 159 264h-833v23l153 61v1386l-153 64v22h915l72 -317h-27l-143 248h-522v-619h358l57 174h31v-419h-31l-57 174h-358v-723h542l144 243h26l-71 -317h-68q-44 -46 -80.5 -108t-36.5 -123
q0 -55 29.5 -87t73.5 -32z" />
    <glyph glyph-name="eogonek" unicode="&#x119;" horiz-adv-x="1026" 
d="M967 360h34q-43 -139 -129 -236.5t-210 -129.5q-101 -115 -101 -215q0 -55 29.5 -87t73.5 -32q53 0 104 57h27q-73 -114 -172 -114q-59 0 -99.5 39.5t-40.5 103.5q0 112 131 238q-44 -7 -73 -7q-109 0 -199 45.5t-147.5 121.5t-89 172.5t-31.5 201.5q0 149 60.5 275
t168.5 200t240 74q172 0 280.5 -120t108.5 -322v-43h-742v-17q0 -221 114 -370.5t286 -149.5q121 0 216.5 80.5t160.5 234.5zM532 997q-133 0 -224 -99t-109 -251h604q0 159 -72.5 254.5t-198.5 95.5z" />
    <glyph glyph-name="Ecaron" unicode="&#x11a;" horiz-adv-x="1138" 
d="M582 1655q-35 0 -68.5 48.5t-126.5 220.5q-39 73 -63 116h28q20 -23 60.5 -69.5t64 -74.5t54 -65.5t51.5 -67.5q21 30 51 68t53 65t62.5 74t58.5 70h31q-24 -44 -65 -119q-92 -171 -125 -218.5t-66 -47.5zM1014 0h-936v23l153 61v1386l-153 64v22h915l72 -317h-27
l-143 248h-522v-619h358l57 174h31v-419h-31l-57 174h-358v-723h542l144 243h26z" />
    <glyph glyph-name="ecaron" unicode="&#x11b;" horiz-adv-x="1026" 
d="M528 1135q-33 0 -66 47.5t-124 213.5q-14 25 -21.5 39.5t-21 39t-25.5 45.5h29q178 -203 229 -277q21 31 51.5 69t52.5 64t64.5 75t59.5 69h28q-147 -272 -165 -301q-44 -72 -75 -82q-8 -2 -16 -2zM541 -23q-109 0 -199 45.5t-147.5 121.5t-89 172.5t-31.5 201.5
q0 149 60.5 275t168.5 200t240 74q172 0 280.5 -120t108.5 -322v-43h-742v-17q0 -221 114 -370.5t286 -149.5q121 0 216.5 80.5t160.5 234.5h34q-54 -172 -171.5 -277.5t-288.5 -105.5zM199 647h604q0 159 -72.5 254.5t-198.5 95.5q-133 0 -224 -99t-109 -251z" />
    <glyph glyph-name="Gbreve" unicode="&#x11e;" horiz-adv-x="1599" 
d="M797 1659q-53 0 -100 21t-88 64.5t-65 120.5t-24 179h27q1 -55 15.5 -105t43 -92t78 -67t113.5 -25t113 25t77.5 67t42.5 92t14 105h29q0 -102 -24 -179t-64.5 -120.5t-88 -64.5t-99.5 -21zM844 -23q-164 0 -304.5 58.5t-240.5 161.5t-156.5 250.5t-56.5 320.5
q0 236 108 421t292.5 284.5t412.5 99.5q104 0 198 -23t152.5 -55t93 -57.5t43.5 -40.5v-455h-32q-2 268 -123.5 411.5t-364.5 143.5q-83 0 -162.5 -16t-166.5 -61t-151 -116t-106 -191.5t-42 -276.5q0 -169 47 -313.5t131.5 -248t207.5 -162.5t269 -59q119 0 215.5 35.5
t153 92t86.5 121.5t30 130q0 37 -11.5 68.5t-28.5 55.5t-48 44t-58.5 34t-73 26t-77.5 19t-85.5 14t-84.5 10t-86 8v32h652v-743h-43l-21 299q-80 -155 -226 -238.5t-343 -83.5z" />
    <glyph glyph-name="gbreve" unicode="&#x11f;" horiz-adv-x="1046" 
d="M504 1139q-52 0 -99.5 21.5t-88.5 65t-65 120.5t-24 178h27q1 -55 15.5 -105t43 -92t78 -67t113.5 -25t113.5 25t78 67t42.5 92t14 105h28q0 -101 -24 -178t-64.5 -120.5t-88 -65t-99.5 -21.5zM371 -424l-232 250l31 22q60 -51 92.5 -77t78 -57t84 -43.5t77.5 -12.5
q258 0 258 319v21q-108 -23 -178 -23q-105 0 -191 34.5t-142.5 91t-95.5 132t-56 155.5t-17 163q0 139 45 255t135.5 188.5t210.5 72.5q95 0 161 -43t128 -119v131h24l232 -55v-25l-131 -14v-829q0 -114 -11.5 -197t-38.5 -143.5t-65 -98t-99 -60t-130.5 -30.5t-169.5 -8z
M623 20q59 0 137 19v795q-120 159 -260 159q-126 0 -208.5 -115t-82.5 -315q0 -81 14.5 -158t47 -147.5t80 -122.5t117.5 -83.5t155 -31.5z" />
    <glyph glyph-name="Gdotaccent" unicode="&#x120;" horiz-adv-x="1599" 
d="M797 1712q-44 0 -72.5 28.5t-28.5 71.5t28.5 73t72.5 30t72 -30t28 -73t-28 -71.5t-72 -28.5zM844 -23q-164 0 -304.5 58.5t-240.5 161.5t-156.5 250.5t-56.5 320.5q0 236 108 421t292.5 284.5t412.5 99.5q104 0 198 -23t152.5 -55t93 -57.5t43.5 -40.5v-455h-32
q-2 268 -123.5 411.5t-364.5 143.5q-83 0 -162.5 -16t-166.5 -61t-151 -116t-106 -191.5t-42 -276.5q0 -169 47 -313.5t131.5 -248t207.5 -162.5t269 -59q119 0 215.5 35.5t153 92t86.5 121.5t30 130q0 37 -11.5 68.5t-28.5 55.5t-48 44t-58.5 34t-73 26t-77.5 19t-85.5 14
t-84.5 10t-86 8v32h652v-743h-43l-21 299q-80 -155 -226 -238.5t-343 -83.5z" />
    <glyph glyph-name="gdotaccent" unicode="&#x121;" horiz-adv-x="1046" 
d="M504 1192q-44 0 -72.5 28.5t-28.5 71.5t28.5 73t72.5 30t72 -30t28 -73t-28 -71.5t-72 -28.5zM371 -424l-232 250l31 22q60 -51 92.5 -77t78 -57t84 -43.5t77.5 -12.5q258 0 258 319v21q-108 -23 -178 -23q-105 0 -191 34.5t-142.5 91t-95.5 132t-56 155.5t-17 163
q0 139 45 255t135.5 188.5t210.5 72.5q95 0 161 -43t128 -119v131h24l232 -55v-25l-131 -14v-829q0 -114 -11.5 -197t-38.5 -143.5t-65 -98t-99 -60t-130.5 -30.5t-169.5 -8zM623 20q59 0 137 19v795q-120 159 -260 159q-126 0 -208.5 -115t-82.5 -315q0 -81 14.5 -158
t47 -147.5t80 -122.5t117.5 -83.5t155 -31.5z" />
    <glyph glyph-name="uni0122" unicode="&#x122;" horiz-adv-x="1599" 
d="M844 -23q-164 0 -304.5 58.5t-240.5 161.5t-156.5 250.5t-56.5 320.5q0 236 108 421t292.5 284.5t412.5 99.5q104 0 198 -23t152.5 -55t93 -57.5t43.5 -40.5v-455h-32q-2 268 -123.5 411.5t-364.5 143.5q-83 0 -162.5 -16t-166.5 -61t-151 -116t-106 -191.5t-42 -276.5
q0 -169 47 -313.5t131.5 -248t207.5 -162.5t269 -59q119 0 215.5 35.5t153 92t86.5 121.5t30 130q0 37 -11.5 68.5t-28.5 55.5t-48 44t-58.5 34t-73 26t-77.5 19t-85.5 14t-84.5 10t-86 8v32h652v-743h-43l-21 299q-80 -155 -226 -238.5t-343 -83.5zM831 -102q49 0 76 -39.5
t27 -96.5q0 -118 -137 -262h-27q90 114 90 178q0 24 -10.5 41t-26 27l-31 20t-26 26t-10.5 38q0 33 21 50.5t54 17.5z" />
    <glyph glyph-name="uni0123" unicode="&#x123;" horiz-adv-x="1046" 
d="M518 1200q-49 0 -76.5 39t-27.5 96q0 116 139 262h25q-89 -117 -89 -178q0 -29 16 -48.5t35.5 -29t35.5 -28t16 -45.5q0 -32 -21 -50t-53 -18zM371 -424l-232 250l31 22q60 -51 92.5 -77t78 -57t84 -43.5t77.5 -12.5q258 0 258 319v21q-108 -23 -178 -23
q-105 0 -191 34.5t-142.5 91t-95.5 132t-56 155.5t-17 163q0 139 45 255t135.5 188.5t210.5 72.5q95 0 161 -43t128 -119v131h24l232 -55v-25l-131 -14v-829q0 -114 -11.5 -197t-38.5 -143.5t-65 -98t-99 -60t-130.5 -30.5t-169.5 -8zM623 20q59 0 137 19v795
q-120 159 -260 159q-126 0 -208.5 -115t-82.5 -315q0 -81 14.5 -158t47 -147.5t80 -122.5t117.5 -83.5t155 -31.5z" />
    <glyph glyph-name="Hbar" unicode="&#x126;" horiz-adv-x="1536" 
d="M1458 1556v-22l-153 -64v-243h112v-86h-112v-1057l153 -61v-23h-448v23l153 61v700h-790v-700l153 -61v-23h-448v23l153 61v1057h-114v86h114v243l-153 64v22h448v-22l-153 -64v-243h790v243l-153 64v22h448zM373 854h790v287h-790v-287z" />
    <glyph glyph-name="hbar" unicode="&#x127;" horiz-adv-x="1079" 
d="M909 760v-697l133 -40v-23h-383v23l127 40v625q0 166 -48.5 235.5t-153.5 69.5q-93 0 -177 -86.5t-114 -193.5v-650l127 -40v-23h-383v23l133 40v1237h-145v64h145v178l-133 17v22l229 57h27v-274h264v-64h-264v-485q12 30 29 59t48 65.5t68 63.5t91.5 45.5t115.5 18.5
q121 0 192.5 -74t71.5 -233z" />
    <glyph glyph-name="Imacron" unicode="&#x12a;" horiz-adv-x="604" 
d="M575 1757h-548v88h548v-88zM526 0h-448v23l153 61v1386l-153 64v22h448v-22l-153 -64v-1386l153 -61v-23z" />
    <glyph glyph-name="imacron" unicode="&#x12b;" horiz-adv-x="473" 
d="M494 1237h-549v88h549v-88zM436 0h-389v23l133 40v879l-133 14v25l229 55h27v-973l133 -40v-23z" />
    <glyph glyph-name="Iogonek" unicode="&#x12e;" horiz-adv-x="604" 
d="M526 1556v-22l-153 -64v-1386l153 -61v-23h-184q-44 -46 -80.5 -108t-36.5 -123q0 -55 30 -87t73 -32q52 0 106 57h27q-77 -115 -172 -115q-60 0 -99.5 39.5t-39.5 104.5q0 125 157 264h-229v23l153 61v1386l-153 64v22h448z" />
    <glyph glyph-name="iogonek" unicode="&#x12f;" horiz-adv-x="473" 
d="M227 1298q-44 0 -73 29.5t-29 73.5t29 74t73 30t72.5 -29.5t28.5 -74.5q0 -44 -28.5 -73.5t-72.5 -29.5zM436 23v-23h-153q-44 -46 -80.5 -108t-36.5 -123q0 -55 29.5 -87t72.5 -32q53 0 107 57h26q-77 -115 -174 -115q-59 0 -99 40t-40 104q0 123 160 264h-201v23
l133 40v879l-133 14v25l229 55h27v-973z" />
    <glyph glyph-name="Idotaccent" unicode="&#x130;" horiz-adv-x="604" 
d="M303 1712q-44 0 -72 28.5t-28 71.5t28 73t72 30t72 -30t28 -73t-28 -71.5t-72 -28.5zM526 0h-448v23l153 61v1386l-153 64v22h448v-22l-153 -64v-1386l153 -61v-23z" />
    <glyph glyph-name="dotlessi" unicode="&#x131;" horiz-adv-x="473" 
d="M436 0h-389v23l133 40v879l-133 14v25l229 55h27v-973l133 -40v-23z" />
    <glyph glyph-name="uni0136" unicode="&#x136;" horiz-adv-x="1232" 
d="M526 0h-448v23l153 61v1386l-153 64v22h448v-22l-153 -64v-704l540 721l-149 47v22h399v-22l-188 -49l-420 -567l569 -844l144 -51v-23h-463v23l149 51l-497 714l-84 -114v-590l153 -61v-23zM633 -102q49 0 75.5 -39t26.5 -97q0 -118 -137 -262h-27q91 115 91 178
q0 29 -16.5 49t-36 29.5t-36 28t-16.5 45.5q0 32 22 50t54 18z" />
    <glyph glyph-name="uni0137" unicode="&#x137;" horiz-adv-x="1009" 
d="M426 0h-389v23l133 40v1479l-133 17v22l229 57h27v-1249l461 582l-179 43v22h400v-22l-168 -51l-262 -338l360 -568l125 -34v-23h-420v23l146 32l-295 461l-168 -213v-240l133 -40v-23zM518 -102q49 0 76 -39.5t27 -96.5q0 -117 -138 -262h-24q88 115 88 178
q0 29 -16.5 49t-36 29.5t-36 28t-16.5 45.5q0 32 22 50t54 18z" />
    <glyph glyph-name="Lacute" unicode="&#x139;" horiz-adv-x="1089" 
d="M307 1659h-26q97 201 170.5 293t119.5 92q20 0 30.5 -9.5t10.5 -25.5q0 -46 -90.5 -145.5t-214.5 -204.5zM1004 0h-926v23l153 61v1386l-153 64v22h448v-22l-153 -64v-1396h532l144 243h26z" />
    <glyph glyph-name="lacute" unicode="&#x13a;" horiz-adv-x="462" 
d="M215 1741h-27q97 200 171 292.5t118 92.5q20 0 31.5 -10t11.5 -25q0 -45 -90 -144t-215 -206zM426 0h-389v23l133 40v1479l-133 17v22l229 57h27v-1575l133 -40v-23z" />
    <glyph glyph-name="uni013B" unicode="&#x13b;" horiz-adv-x="1089" 
d="M1004 0h-926v23l153 61v1386l-153 64v22h448v-22l-153 -64v-1396h532l144 243h26zM569 -102q49 0 76 -39.5t27 -96.5q0 -118 -137 -262h-25q88 115 88 178q0 24 -10.5 41t-26 27l-31 20t-26 26t-10.5 38q0 32 21.5 50t53.5 18z" />
    <glyph glyph-name="uni013C" unicode="&#x13c;" horiz-adv-x="462" 
d="M426 0h-389v23l133 40v1479l-133 17v22l229 57h27v-1575l133 -40v-23zM205 -102q49 0 75.5 -39t26.5 -97q0 -118 -137 -262h-25q88 115 88 178q0 29 -16.5 49t-35.5 29.5t-35.5 28t-16.5 45.5q0 32 22 50t54 18z" />
    <glyph glyph-name="Lcaron" unicode="&#x13d;" horiz-adv-x="1099" 
d="M799 1151h-27q94 117 94 211q0 49 -21 110.5t-54 96.5q0 43 26.5 65.5t63.5 22.5q42 0 68 -28.5t26 -82.5q0 -78 -47 -194t-129 -201zM1004 0h-926v23l153 61v1386l-153 64v22h448v-22l-153 -64v-1396h532l144 243h26z" />
    <glyph glyph-name="lcaron" unicode="&#x13e;" horiz-adv-x="491" 
d="M426 0h-389v23l133 40v1479l-133 17v22l229 57h27v-1575l133 -40v-23zM436 1065h-24q92 115 92 211q0 49 -21.5 110t-52.5 97q0 43 26 65.5t64 22.5q42 0 68 -28.5t26 -82.5q0 -78 -47.5 -194t-130.5 -201z" />
    <glyph glyph-name="Lslash" unicode="&#x141;" horiz-adv-x="1107" 
d="M924 74l143 243h27l-72 -317h-928v23l154 61v578l-156 -82v98l156 84v708l-154 64v22h451v-22l-154 -64v-632l268 143v-100l-268 -144v-663h533z" />
    <glyph glyph-name="lslash" unicode="&#x142;" horiz-adv-x="524" 
d="M471 977v-100l-143 -76v-738l133 -40v-23h-389v23l133 40v674l-152 -80v99l152 80v706l-133 17v22l231 57h25v-737z" />
    <glyph glyph-name="Nacute" unicode="&#x143;" horiz-adv-x="1402" 
d="M674 1659h-27q97 201 171 293t120 92q20 0 30.5 -9.5t10.5 -25.5q0 -46 -90.5 -145.5t-214.5 -204.5zM477 0h-399v23l153 61v1386l-153 64v22h252l762 -1218v1132l-154 64v22h399v-22l-153 -64v-1470h-56l-802 1290v-1206l151 -61v-23z" />
    <glyph glyph-name="nacute" unicode="&#x144;" horiz-adv-x="1089" 
d="M543 1139h-27q97 200 171 292.5t118 92.5q20 0 30.5 -9.5t10.5 -25.5q0 -45 -88.5 -142.5t-214.5 -207.5zM430 0h-383v23l133 40v879l-133 14v25l229 55h27v-223q12 30 29 60t48 66.5t68 63.5t91.5 45.5t115.5 18.5q122 0 193.5 -74t71.5 -233v-697l133 -40v-23h-383v23
l125 40v625q0 305 -201 305q-108 0 -184 -82t-107 -196v-652l127 -40v-23z" />
    <glyph glyph-name="uni0145" unicode="&#x145;" horiz-adv-x="1402" 
d="M477 0h-399v23l153 61v1386l-153 64v22h252l762 -1218v1132l-154 64v22h399v-22l-153 -64v-1470h-56l-802 1290v-1206l151 -61v-23zM721 -102q49 0 75.5 -39t26.5 -97q0 -118 -137 -262h-27q91 115 91 178q0 29 -16.5 49t-36 29.5t-36 28t-16.5 45.5q0 33 21 50.5
t55 17.5z" />
    <glyph glyph-name="uni0146" unicode="&#x146;" horiz-adv-x="1089" 
d="M430 0h-383v23l133 40v879l-133 14v25l229 55h27v-223q12 30 29 60t48 66.5t68 63.5t91.5 45.5t115.5 18.5q122 0 193.5 -74t71.5 -233v-697l133 -40v-23h-383v23l125 40v625q0 305 -201 305q-108 0 -184 -82t-107 -196v-652l127 -40v-23zM539 -102q49 0 75.5 -39
t26.5 -97q0 -118 -139 -262h-25q90 118 90 178q0 29 -16.5 49t-35.5 29.5t-35.5 28t-16.5 45.5q0 33 21 50.5t55 17.5z" />
    <glyph glyph-name="Ncaron" unicode="&#x147;" horiz-adv-x="1402" 
d="M690 1655q-33 0 -66 47.5t-124 213.5q-14 25 -21.5 39.5t-21 39t-25.5 45.5h31q10 -12 47 -55t52.5 -61.5t43 -51.5t47.5 -58.5t37 -50.5q21 30 52.5 69.5t50.5 62t66 77t59 68.5h28q-147 -272 -165 -301q-44 -72 -75 -82q-8 -2 -16 -2zM477 0h-399v23l153 61v1386
l-153 64v22h252l762 -1218v1132l-154 64v22h399v-22l-153 -64v-1470h-56l-802 1290v-1206l151 -61v-23z" />
    <glyph glyph-name="ncaron" unicode="&#x148;" horiz-adv-x="1089" 
d="M559 1135q-33 0 -66 47.5t-124 213.5q-14 25 -21.5 39.5t-21 39t-25.5 45.5h29q178 -203 229 -277q21 31 52 70t50.5 62.5t65.5 76.5t59 68h29q-24 -44 -65 -119q-92 -171 -125 -218.5t-66 -47.5zM430 0h-383v23l133 40v879l-133 14v25l229 55h27v-223q12 30 29 60
t48 66.5t68 63.5t91.5 45.5t115.5 18.5q122 0 193.5 -74t71.5 -233v-697l133 -40v-23h-383v23l125 40v625q0 305 -201 305q-108 0 -184 -82t-107 -196v-652l127 -40v-23z" />
    <glyph glyph-name="Eng" unicode="&#x14a;" horiz-adv-x="1402" 
d="M848 -424q-87 0 -157 28t-111 65.5t-82 94.5l176 416h33q-9 -29 -27.5 -85t-26 -82.5t-15 -65.5t-7.5 -72q0 -104 56.5 -163.5t154.5 -59.5q38 0 66 8.5t54 33.5t42.5 68t26 114.5t9.5 170.5v74l-714 1169v-1206l151 -61v-23h-399v23l153 61v1386l-153 64v22h252
l762 -1218v1132l-154 64v22h399v-22l-153 -64v-1470q-1 -75 -9 -133.5t-30 -115t-58.5 -93.5t-97 -59.5t-141.5 -22.5z" />
    <glyph glyph-name="eng" unicode="&#x14b;" horiz-adv-x="1048" 
d="M643 -424l-178 213l31 25q148 -156 217 -156q82 0 82 197v833q0 166 -48.5 235.5t-152.5 69.5q-95 0 -178 -85t-113 -193v-652l127 -40v-23h-383v23l133 40v879l-133 14v25l229 55h27v-223q12 30 29 60t48 66.5t68 63.5t91.5 45.5t115.5 18.5q121 0 193 -74t72 -233v-797
q0 -186 -48 -264q-35 -62 -97 -92.5t-132 -30.5z" />
    <glyph glyph-name="Omacron" unicode="&#x14c;" horiz-adv-x="1644" 
d="M1096 1757h-547v88h547v-88zM795 -23q-143 0 -273.5 60t-227 164t-153.5 253t-57 318q0 176 62 328t165.5 254.5t238.5 160.5t281 58q145 0 278 -58.5t233 -159.5t159.5 -247t59.5 -311q0 -172 -64.5 -326.5t-171 -261.5t-245.5 -169.5t-285 -62.5zM848 53q77 0 151 21.5
t146 73t126.5 127t88 193t33.5 261.5q0 186 -50 335t-134.5 242t-191 142t-224.5 49q-73 0 -146 -19t-148 -66.5t-132 -119t-93 -187.5t-36 -261q0 -150 37 -280.5t98.5 -222.5t141 -158t165 -98t168.5 -32z" />
    <glyph glyph-name="omacron" unicode="&#x14d;" horiz-adv-x="1105" 
d="M825 1237h-549v88h549v-88zM557 -23q-95 0 -176.5 34t-137 89.5t-95 127.5t-58 147t-18.5 149q0 72 18 146t57.5 145.5t95.5 127.5t139 90t181 34q99 0 180.5 -34t134.5 -88.5t89 -125.5t51.5 -142t15.5 -140q0 -60 -12 -122t-36 -125.5t-63.5 -119t-90.5 -99t-122 -69
t-153 -25.5zM584 45q136 0 228.5 134.5t92.5 328.5q0 128 -41 238t-125 181.5t-196 71.5q-154 0 -253.5 -127t-99.5 -313q0 -130 48 -247t139.5 -192t206.5 -75z" />
    <glyph glyph-name="Ohungarumlaut" unicode="&#x150;" horiz-adv-x="1644" 
d="M655 1659h-26q97 201 171 293t120 92q20 0 30.5 -9.5t10.5 -25.5q0 -46 -91 -145.5t-215 -204.5zM926 1659h-27q97 201 171 293t120 92q20 0 30.5 -9.5t10.5 -25.5q0 -46 -90.5 -145.5t-214.5 -204.5zM795 -23q-143 0 -273.5 60t-227 164t-153.5 253t-57 318
q0 176 62 328t165.5 254.5t238.5 160.5t281 58q145 0 278 -58.5t233 -159.5t159.5 -247t59.5 -311q0 -172 -64.5 -326.5t-171 -261.5t-245.5 -169.5t-285 -62.5zM848 53q77 0 151 21.5t146 73t126.5 127t88 193t33.5 261.5q0 186 -50 335t-134.5 242t-191 142t-224.5 49
q-73 0 -146 -19t-148 -66.5t-132 -119t-93 -187.5t-36 -261q0 -150 37 -280.5t98.5 -222.5t141 -158t165 -98t168.5 -32z" />
    <glyph glyph-name="ohungarumlaut" unicode="&#x151;" horiz-adv-x="1105" 
d="M385 1139h-27q97 201 171 293t120 92q20 0 30.5 -9.5t10.5 -25.5q0 -83 -305 -350zM655 1139h-26q97 201 171 293t120 92q20 0 30.5 -9.5t10.5 -25.5q0 -83 -306 -350zM557 -23q-95 0 -176.5 34t-137 89.5t-95 127.5t-58 147t-18.5 149q0 72 18 146t57.5 145.5
t95.5 127.5t139 90t181 34q99 0 180.5 -34t134.5 -88.5t89 -125.5t51.5 -142t15.5 -140q0 -60 -12 -122t-36 -125.5t-63.5 -119t-90.5 -99t-122 -69t-153 -25.5zM584 45q136 0 228.5 134.5t92.5 328.5q0 128 -41 238t-125 181.5t-196 71.5q-154 0 -253.5 -127t-99.5 -313
q0 -130 48 -247t139.5 -192t206.5 -75z" />
    <glyph glyph-name="OE" unicode="&#x152;" horiz-adv-x="2050" 
d="M795 -23q-143 0 -273.5 60.5t-227 165t-153.5 253t-57 316.5q0 177 63 329.5t167.5 254.5t239 159.5t277.5 57.5q167 0 324 -80v63h748l71 -317h-26l-144 248h-506v-619h342l58 174h31v-419h-31l-58 174h-342v-723h527l143 243h27l-72 -317h-768v76q-170 -99 -360 -99z
M848 53q94 0 180 35.5t127 83.5v1155q-60 77 -155.5 123.5t-206.5 46.5q-73 0 -146 -19t-148 -66.5t-132 -119t-93 -187.5t-36 -261q0 -150 36 -280.5t96.5 -222.5t139.5 -158t165 -98t173 -32z" />
    <glyph glyph-name="oe" unicode="&#x153;" horiz-adv-x="1871" 
d="M557 -23q-95 0 -176.5 34t-137 89.5t-95 127.5t-58 147t-18.5 149q0 72 17.5 145.5t56.5 145.5t95 127.5t139.5 90t182.5 34.5q154 0 256.5 -80t157.5 -209q54 134 163.5 211.5t245.5 77.5q177 0 284.5 -119.5t107.5 -322.5v-39h-742v-21q0 -221 114 -370.5t286 -149.5
q120 0 215.5 80.5t160.5 234.5h35q-54 -170 -174 -276.5t-287 -106.5q-149 0 -252.5 85.5t-158.5 218.5q-57 -134 -161 -219t-257 -85zM584 45q97 0 171.5 64.5t112 169t37.5 229.5q0 132 -42 242.5t-125.5 179.5t-194.5 69q-103 0 -184.5 -60.5t-125 -160.5t-43.5 -219
q0 -131 52 -249.5t144 -191.5t198 -73zM1044 647h603q0 159 -72 254.5t-199 95.5q-131 0 -222.5 -99t-109.5 -251z" />
    <glyph glyph-name="Racute" unicode="&#x154;" horiz-adv-x="1302" 
d="M604 1659h-26q99 202 172 293.5t118 91.5q20 0 30.5 -9.5t10.5 -25.5q0 -46 -90.5 -145.5t-214.5 -204.5zM526 0h-448v23l153 61v1386l-153 64v22h616q97 0 185.5 -23.5t160.5 -70t115 -123t43 -174.5q0 -179 -133.5 -293t-359.5 -124l411 -664l189 -61v-23h-496v23
l147 55l-407 661h-176v-655l153 -61v-23zM373 1485v-674h286q182 0 287 93.5t105 260.5q0 85 -28.5 148t-82 100t-123.5 54.5t-158 17.5h-286z" />
    <glyph glyph-name="racute" unicode="&#x155;" horiz-adv-x="770" 
d="M381 1139h-27q97 201 171 293t120 92q20 0 30.5 -9.5t10.5 -25.5q0 -45 -89.5 -143t-215.5 -207zM436 0h-389v23l133 40v879l-133 14v25l236 55h20v-276h2q15 54 36 102t53 97t78.5 78.5t100.5 29.5q36 0 67 -13t54.5 -36.5t36 -40t27.5 -39.5l-119 -320h-33
q39 129 39 209q0 71 -26 112.5t-74 41.5q-59 0 -111.5 -68t-83.5 -158t-47 -188v-504l133 -40v-23z" />
    <glyph glyph-name="uni0156" unicode="&#x156;" horiz-adv-x="1302" 
d="M526 0h-448v23l153 61v1386l-153 64v22h616q97 0 185.5 -23.5t160.5 -70t115 -123t43 -174.5q0 -179 -133.5 -293t-359.5 -124l411 -664l189 -61v-23h-496v23l147 55l-407 661h-176v-655l153 -61v-23zM373 1485v-674h286q182 0 287 93.5t105 260.5q0 85 -28.5 148
t-82 100t-123.5 54.5t-158 17.5h-286zM662 -102q49 0 75.5 -39t26.5 -97q0 -118 -137 -262h-27q90 114 90 178q0 24 -10.5 41t-26 27l-31 20t-26 26t-10.5 38q0 32 22 50t54 18z" />
    <glyph glyph-name="uni0157" unicode="&#x157;" horiz-adv-x="770" 
d="M436 0h-389v23l133 40v879l-133 14v25l236 55h20v-276h2q15 54 36 102t53 97t78.5 78.5t100.5 29.5q36 0 67 -13t54.5 -36.5t36 -40t27.5 -39.5l-119 -320h-33q39 129 39 209q0 71 -26 112.5t-74 41.5q-59 0 -111.5 -68t-83.5 -158t-47 -188v-504l133 -40v-23zM219 -102
q49 0 77 -39.5t28 -96.5q0 -115 -140 -262h-24q88 115 88 178q0 29 -16 49t-35.5 29.5t-35.5 28t-16 45.5q0 32 21 50t53 18z" />
    <glyph glyph-name="Rcaron" unicode="&#x158;" horiz-adv-x="1302" 
d="M623 1655q-35 0 -68.5 48.5t-126.5 220.5q-39 73 -63 116h28q20 -23 60.5 -69.5t64 -74.5t54 -65.5t51.5 -67.5q21 30 51 68t53 65t62.5 74t58.5 70h31q-24 -44 -65 -119q-92 -171 -125 -218.5t-66 -47.5zM526 0h-448v23l153 61v1386l-153 64v22h616q97 0 185.5 -23.5
t160.5 -70t115 -123t43 -174.5q0 -179 -133.5 -293t-359.5 -124l411 -664l189 -61v-23h-496v23l147 55l-407 661h-176v-655l153 -61v-23zM373 1485v-674h286q182 0 287 93.5t105 260.5q0 85 -28.5 148t-82 100t-123.5 54.5t-158 17.5h-286z" />
    <glyph glyph-name="rcaron" unicode="&#x159;" horiz-adv-x="770" 
d="M397 1135q-33 0 -66 47.5t-124 213.5q-14 25 -21.5 39.5t-21 39t-25.5 45.5h31q13 -15 59 -68t65.5 -76.5t50.5 -62.5t52 -70q21 31 51.5 69t52.5 64t64.5 75t59.5 69h28q-147 -272 -165 -301q-44 -72 -75 -82q-8 -2 -16 -2zM436 0h-389v23l133 40v879l-133 14v25l236 55
h20v-276h2q15 54 36 102t53 97t78.5 78.5t100.5 29.5q36 0 67 -13t54.5 -36.5t36 -40t27.5 -39.5l-119 -320h-33q39 129 39 209q0 71 -26 112.5t-74 41.5q-59 0 -111.5 -68t-83.5 -158t-47 -188v-504l133 -40v-23z" />
    <glyph glyph-name="Sacute" unicode="&#x15a;" horiz-adv-x="1193" 
d="M578 1659h-27q97 201 171 293t120 92q20 0 30.5 -9.5t10.5 -25.5q0 -46 -90.5 -145.5t-214.5 -204.5zM584 -23q-173 0 -303.5 69.5t-206.5 170.5l114 399h48q-33 -158 -33 -229q0 -81 26 -144.5t66.5 -101t95 -61.5t104.5 -32.5t103 -8.5q86 0 161.5 20.5t134.5 61.5
t93.5 107.5t34.5 152.5q0 53 -13.5 95.5t-40 74t-60 55.5t-80 44t-93.5 36t-106 34q-7 2 -11 3l-92 29q-368 107 -368 407q0 81 27 154t79.5 132t140 93.5t199.5 34.5q142 0 255 -49.5t188 -116.5l-132 -324h-45q41 129 41 174q1 67 -26.5 117t-74.5 78t-100.5 41.5
t-111.5 13.5q-93 0 -172.5 -29t-133.5 -93t-54 -152q0 -56 23 -102.5t56 -77t84 -56.5t91.5 -40t95.5 -29l71 -19q43 -12 63 -18.5t64.5 -22t69 -27.5t64 -34.5t62.5 -45t51 -55t43 -68.5t25.5 -83t10.5 -100q0 -217 -147 -347.5t-381 -130.5z" />
    <glyph glyph-name="sacute" unicode="&#x15b;" horiz-adv-x="868" 
d="M420 1139h-27q98 202 170.5 293.5t118.5 91.5q20 0 30.5 -9.5t10.5 -25.5q0 -45 -88.5 -142.5t-214.5 -207.5zM434 -23q-125 0 -216.5 51t-139.5 119l94 267h37q-21 -74 -21 -140q0 -109 63 -170t185 -61q132 0 209.5 61.5t77.5 151.5q0 36 -16 64.5t-40 49t-71.5 41
t-90 34.5t-116.5 36q-270 82 -270 305q0 134 88 207.5t227 73.5q108 0 189.5 -42.5t130.5 -102.5l-74 -228h-35q33 140 -30.5 223.5t-192.5 83.5q-95 0 -164.5 -48t-69.5 -134q0 -73 60.5 -117t200.5 -86l39 -12q47 -14 70 -21.5t62 -23t58.5 -29t45 -36t37.5 -48t21 -61
t9 -78.5q0 -160 -100 -245t-257 -85z" />
    <glyph glyph-name="Scedilla" unicode="&#x15e;" horiz-adv-x="1193" 
d="M1112 455q0 -205 -132 -333t-347 -142l-55 -97q78 0 119.5 -38t41.5 -95q0 -62 -46.5 -115t-123.5 -53q-57 0 -118 35v21q61 -23 104 -23q57 0 89 25.5t32 74.5q0 43 -39 75t-111 32v39l66 116h-8q-173 0 -303.5 69.5t-206.5 170.5l114 399h48q-33 -158 -33 -229
q0 -81 26 -144.5t66.5 -101t95 -61.5t104.5 -32.5t103 -8.5q86 0 161.5 20.5t134.5 61.5t93.5 107.5t34.5 152.5q0 53 -13.5 95.5t-40 74t-60 55.5t-80 44t-93.5 36t-106 34q-7 2 -11 3l-92 29q-368 107 -368 407q0 81 27 154t79.5 132t140 93.5t199.5 34.5q142 0 255 -49.5
t188 -116.5l-132 -324h-45q41 129 41 174q1 67 -26.5 117t-74.5 78t-100.5 41.5t-111.5 13.5q-93 0 -172.5 -29t-133.5 -93t-54 -152q0 -56 23 -102.5t56 -77t84 -56.5t91.5 -40t95.5 -29l71 -19q43 -12 63 -18.5t64.5 -22t69 -27.5t64 -34.5t62.5 -45t51 -55t43 -68.5
t25.5 -83t10.5 -100z" />
    <glyph glyph-name="scedilla" unicode="&#x15f;" horiz-adv-x="868" 
d="M791 307q0 -150 -87.5 -234t-228.5 -93l-55 -97q78 0 119 -37.5t41 -95.5q0 -62 -46 -115t-122 -53q-58 0 -119 35v21q57 -23 102 -23q57 0 89 25.5t32 74.5q0 44 -38.5 75.5t-110.5 31.5v39l65 116q-124 0 -215 51t-139 119l94 267h37q-21 -74 -21 -140q0 -109 63 -170
t185 -61q132 0 209.5 61.5t77.5 151.5q0 36 -16 64.5t-40 49t-71.5 41t-90 34.5t-116.5 36q-270 82 -270 305q0 134 88 207.5t227 73.5q108 0 189.5 -42.5t130.5 -102.5l-74 -228h-35q33 140 -30.5 223.5t-192.5 83.5q-95 0 -164.5 -48t-69.5 -134q0 -73 60.5 -117
t200.5 -86l39 -12q47 -14 70 -21.5t62 -23t58.5 -29t45 -36t37.5 -48t21 -61t9 -78.5z" />
    <glyph glyph-name="Scaron" unicode="&#x160;" horiz-adv-x="1193" 
d="M594 1655q-33 0 -66 47.5t-124 213.5q-14 25 -21.5 39.5t-21 39t-25.5 45.5h31q10 -12 47 -55t52.5 -61.5t43 -51.5t47.5 -58.5t37 -50.5q17 25 37 50.5t47.5 58.5t43 51.5t52.5 61.5t47 55h29q-147 -272 -165 -301q-44 -72 -75 -82q-8 -2 -16 -2zM584 -23
q-173 0 -303.5 69.5t-206.5 170.5l114 399h48q-33 -158 -33 -229q0 -81 26 -144.5t66.5 -101t95 -61.5t104.5 -32.5t103 -8.5q86 0 161.5 20.5t134.5 61.5t93.5 107.5t34.5 152.5q0 53 -13.5 95.5t-40 74t-60 55.5t-80 44t-93.5 36t-106 34q-7 2 -11 3l-92 29
q-368 107 -368 407q0 81 27 154t79.5 132t140 93.5t199.5 34.5q142 0 255 -49.5t188 -116.5l-132 -324h-45q41 129 41 174q1 67 -26.5 117t-74.5 78t-100.5 41.5t-111.5 13.5q-93 0 -172.5 -29t-133.5 -93t-54 -152q0 -56 23 -102.5t56 -77t84 -56.5t91.5 -40t95.5 -29
l71 -19q43 -12 63 -18.5t64.5 -22t69 -27.5t64 -34.5t62.5 -45t51 -55t43 -68.5t25.5 -83t10.5 -100q0 -217 -147 -347.5t-381 -130.5z" />
    <glyph glyph-name="scaron" unicode="&#x161;" horiz-adv-x="868" 
d="M436 1135q-35 0 -68.5 48.5t-126.5 220.5q-39 73 -63 116h29q178 -203 229 -277q21 31 51.5 69t52.5 64t64.5 75t59.5 69h28q-24 -44 -65 -119q-92 -171 -125 -218.5t-66 -47.5zM434 -23q-125 0 -216.5 51t-139.5 119l94 267h37q-21 -74 -21 -140q0 -109 63 -170t185 -61
q132 0 209.5 61.5t77.5 151.5q0 36 -16 64.5t-40 49t-71.5 41t-90 34.5t-116.5 36q-270 82 -270 305q0 134 88 207.5t227 73.5q108 0 189.5 -42.5t130.5 -102.5l-74 -228h-35q33 140 -30.5 223.5t-192.5 83.5q-95 0 -164.5 -48t-69.5 -134q0 -73 60.5 -117t200.5 -86l39 -12
q47 -14 70 -21.5t62 -23t58.5 -29t45 -36t37.5 -48t21 -61t9 -78.5q0 -160 -100 -245t-257 -85z" />
    <glyph glyph-name="uni0162" unicode="&#x162;" horiz-adv-x="1351" 
d="M86 1556h1178l71 -317h-26l-140 248h-421v-1403l153 -61v-23h-180l-68 -117q78 0 119 -37.5t41 -95.5q0 -62 -46 -115t-122 -53q-58 0 -119 35v21q61 -23 105 -23q57 0 89 25.5t32 74.5q0 43 -39 75t-111 32v39l80 139h-231v23l153 61v1403h-424l-137 -248h-29z" />
    <glyph glyph-name="uni0163" unicode="&#x163;" horiz-adv-x="632" 
d="M371 -23h-11l-53 -94q78 0 119 -37.5t41 -95.5q0 -62 -46 -115t-122 -53q-58 0 -119 35v21q61 -23 105 -23q55 0 86.5 25.5t31.5 74.5q0 44 -38.5 75.5t-110.5 31.5v39l70 121q-152 36 -152 294v697h-156v31l166 32l68 348h43v-348h262v-63h-262v-697q0 -122 34 -178.5
t101 -56.5q107 0 162 145h41q-34 -103 -103 -156t-157 -53z" />
    <glyph glyph-name="Tcaron" unicode="&#x164;" horiz-adv-x="1351" 
d="M676 1655q-33 0 -66 47.5t-124 213.5q-14 25 -21.5 39.5t-21 39t-25.5 45.5h28q177 -202 230 -277q17 25 37 50.5t47.5 58.5t43 51.5t52.5 61.5t47 55h29q-147 -272 -165 -301q-44 -72 -75 -82q-8 -2 -16 -2zM901 0h-450v23l153 61v1403h-424l-137 -248h-29l72 317h1178
l71 -317h-26l-140 248h-421v-1403l153 -61v-23z" />
    <glyph glyph-name="tcaron" unicode="&#x165;" horiz-adv-x="636" 
d="M596 1065h-27q95 115 95 211q0 49 -21.5 110t-52.5 97q0 43 25.5 65.5t62.5 22.5q43 0 68.5 -28.5t25.5 -82.5q0 -78 -47 -194t-129 -201zM371 -23q-199 0 -199 299v697h-156v31l166 32l68 348h43v-348h262v-63h-262v-697q0 -122 34 -178.5t101 -56.5q107 0 162 145h41
q-34 -103 -103 -156t-157 -53z" />
    <glyph glyph-name="Tbar" unicode="&#x166;" horiz-adv-x="1351" 
d="M88 1556h1178l71 -317h-28l-140 248h-421v-678h194v-64h-194v-661l153 -61v-23h-450v23l153 61v661h-194v64h194v678h-422l-139 -248h-27z" />
    <glyph glyph-name="tbar" unicode="&#x167;" horiz-adv-x="641" 
d="M594 186h39q-34 -103 -102.5 -156t-155.5 -53q-201 0 -201 299v209h-115v64h115v424h-156v31l168 32l68 348h43v-348h260v-63h-260v-424h295v-64h-295v-209q0 -123 33 -179t102 -56q107 0 162 145z" />
    <glyph glyph-name="Umacron" unicode="&#x16a;" horiz-adv-x="1454" 
d="M1016 1757h-549v88h549v-88zM731 -23q-120 0 -212 30t-151.5 82t-96.5 130.5t-52.5 168t-15.5 200.5v882l-154 64v22h449v-22l-154 -64v-847q0 -292 101 -427t300 -135q141 0 230 49t136.5 166t47.5 312v882l-153 64v22h399v-22l-154 -64v-882q0 -115 -16 -207t-54 -169
t-97 -128t-148 -79t-205 -28z" />
    <glyph glyph-name="umacron" unicode="&#x16b;" 
d="M768 1237h-549v88h549v-88zM416 -25q-250 0 -250 332v635l-133 14v25l229 55h27v-698q0 -158 45.5 -223.5t128.5 -65.5q182 0 278 248v645l-133 14v25l230 55h26v-940l133 -16v-23l-231 -57h-25v205q-19 -44 -46.5 -82.5t-66.5 -73t-93.5 -54.5t-118.5 -20z" />
    <glyph glyph-name="Uring" unicode="&#x16e;" horiz-adv-x="1454" 
d="M741 1694q-70 0 -121 51.5t-51 120.5q0 70 50.5 120t121.5 50q69 0 119.5 -50t50.5 -120q0 -69 -50.5 -120.5t-119.5 -51.5zM741 1749q46 0 80.5 35.5t34.5 81.5q0 47 -34.5 80.5t-80.5 33.5q-47 0 -81.5 -33.5t-34.5 -80.5q0 -46 34.5 -81.5t81.5 -35.5zM731 -23
q-120 0 -212 30t-151.5 82t-96.5 130.5t-52.5 168t-15.5 200.5v882l-154 64v22h449v-22l-154 -64v-847q0 -292 101 -427t300 -135q141 0 230 49t136.5 166t47.5 312v882l-153 64v22h399v-22l-154 -64v-882q0 -115 -16 -207t-54 -169t-97 -128t-148 -79t-205 -28z" />
    <glyph glyph-name="uring" unicode="&#x16f;" 
d="M496 1174q-71 0 -121.5 51t-50.5 121q0 71 50 120.5t122 49.5q68 0 119 -50t51 -120q0 -69 -51 -120.5t-119 -51.5zM496 1229q44 0 79 35.5t35 81.5q0 47 -34.5 80.5t-79.5 33.5q-49 0 -83 -33.5t-34 -80.5t34 -82t83 -35zM416 -25q-250 0 -250 332v635l-133 14v25
l229 55h27v-698q0 -158 45.5 -223.5t128.5 -65.5q182 0 278 248v645l-133 14v25l230 55h26v-940l133 -16v-23l-231 -57h-25v205q-19 -44 -46.5 -82.5t-66.5 -73t-93.5 -54.5t-118.5 -20z" />
    <glyph glyph-name="Uhungarumlaut" unicode="&#x170;" horiz-adv-x="1454" 
d="M575 1659h-26q98 202 170.5 293.5t118.5 91.5q20 0 30.5 -9.5t10.5 -25.5q0 -46 -90 -144.5t-214 -205.5zM846 1659h-27q98 202 170.5 293.5t118.5 91.5q20 0 30.5 -9.5t10.5 -25.5q0 -46 -90 -145t-213 -205zM731 -23q-120 0 -212 30t-151.5 82t-96.5 130.5t-52.5 168
t-15.5 200.5v882l-154 64v22h449v-22l-154 -64v-847q0 -292 101 -427t300 -135q141 0 230 49t136.5 166t47.5 312v882l-153 64v22h399v-22l-154 -64v-882q0 -115 -16 -207t-54 -169t-97 -128t-148 -79t-205 -28z" />
    <glyph glyph-name="uhungarumlaut" unicode="&#x171;" 
d="M328 1139h-27q97 201 171 293t120 92q20 0 30.5 -9.5t10.5 -25.5q0 -83 -305 -350zM598 1139h-27q97 201 171 293t120 92q20 0 30.5 -9.5t10.5 -25.5q0 -83 -305 -350zM416 -25q-250 0 -250 332v635l-133 14v25l229 55h27v-698q0 -158 45.5 -223.5t128.5 -65.5
q182 0 278 248v645l-133 14v25l230 55h26v-940l133 -16v-23l-231 -57h-25v205q-19 -44 -46.5 -82.5t-66.5 -73t-93.5 -54.5t-118.5 -20z" />
    <glyph glyph-name="Uogonek" unicode="&#x172;" horiz-adv-x="1454" 
d="M1006 1534v22h399v-22l-154 -64v-882q0 -136 -23 -239.5t-74.5 -184.5t-140 -127.5t-212.5 -56.5q-99 -113 -99 -211q0 -55 30 -87t73 -32q52 0 106 57h27q-77 -115 -174 -115q-59 0 -99 40t-40 104q0 111 135 241h-29q-120 0 -212 30t-151.5 82t-96.5 130.5t-52.5 168
t-15.5 200.5v882l-154 64v22h449v-22l-154 -64v-847q0 -292 101 -427t300 -135q141 0 230 49t136.5 166t47.5 312v882z" />
    <glyph glyph-name="uogonek" unicode="&#x173;" 
d="M997 80v-23l-229 -57q-44 -46 -80.5 -108t-36.5 -123q0 -55 30 -87t73 -32q52 0 106 57h27q-77 -115 -172 -115q-60 0 -100 39.5t-40 104.5q0 125 166 270v199q-19 -44 -46.5 -82.5t-66.5 -73t-93.5 -54.5t-118.5 -20q-250 0 -250 332v635l-133 14v25l229 55h27v-698
q0 -158 45.5 -223.5t128.5 -65.5q182 0 278 248v645l-133 14v25l230 55h26v-940z" />
    <glyph glyph-name="Wcircumflex" unicode="&#x174;" horiz-adv-x="2152" 
d="M879 1618h-31q26 46 68 124q92 168 124.5 214.5t65.5 46.5q35 0 69 -49.5t127 -223.5q12 -23 19 -36t19 -35t22 -41h-29q-17 20 -59.5 69t-64 74.5t-52 63.5t-51.5 69q-21 -31 -51.5 -69t-52 -63.5t-64 -74.5t-59.5 -69zM647 0h-63l-478 1464l-157 70v22h454v-22
l-133 -64l389 -1216l406 1302h98l445 -1302l368 1216l-180 64v22h399v-22l-151 -64l-451 -1470h-63l-459 1356z" />
    <glyph glyph-name="wcircumflex" unicode="&#x175;" horiz-adv-x="1576" 
d="M584 1098h-29q24 43 63 116q94 173 127 221t68 48q33 0 65 -46.5t126 -219.5q41 -75 65 -119h-29q-17 20 -59.5 69t-64 74.5t-52 63.5t-51.5 69q-18 -25 -37.5 -50.5t-47.5 -59t-42.5 -50.5t-53.5 -61t-48 -55zM526 0h-86l-299 963l-153 51v22h434v-22l-148 -47l244 -803
l246 872h110l256 -872l230 805l-162 45v22h399v-22l-176 -47l-280 -967h-88l-269 907z" />
    <glyph glyph-name="Ycircumflex" unicode="&#x176;" horiz-adv-x="1292" 
d="M432 1618h-31q26 46 68 124q92 168 124.5 214.5t65.5 46.5q35 0 69 -49.5t127 -223.5q38 -71 60 -112h-28q-20 23 -60 69.5t-63.5 73.5t-53.5 64.5t-51 68.5q-21 -31 -51.5 -69t-52 -63.5t-64 -74.5t-59.5 -69zM879 0h-449v23l154 61v491l-482 906l-143 53v22h455v-22
l-148 -49l436 -823l414 821l-190 51v22h403v-22l-147 -55l-457 -891v-504l154 -61v-23z" />
    <glyph glyph-name="ycircumflex" unicode="&#x177;" horiz-adv-x="1091" 
d="M324 1098h-29q24 43 63 116q94 173 127 221t68 48q33 0 65 -46.5t126 -219.5q13 -24 20.5 -38t20.5 -37t24 -44h-31q-19 23 -74 87.5t-89 106.5t-62 82q-28 -40 -61.5 -81t-92.5 -108.5t-75 -86.5zM195 -424l-193 215l29 23q148 -136 233 -136q51 0 102.5 54t86.5 125.5
t55 146.5l-369 963l-149 47v22h434v-22l-156 -47l316 -826l288 828l-161 45v22h399v-22l-172 -47l-315 -873q-37 -104 -66.5 -173.5t-69 -140t-80 -111.5t-94.5 -67t-118 -26z" />
    <glyph glyph-name="Ydieresis" unicode="&#x178;" horiz-adv-x="1292" 
d="M510 1718q-41 0 -66.5 26t-25.5 66t25.5 67.5t66.5 27.5q42 0 68 -27t26 -68q0 -40 -26 -66t-68 -26zM807 1718q-41 0 -66.5 26t-25.5 66t25.5 67.5t66.5 27.5q42 0 68 -27t26 -68q0 -40 -26 -66t-68 -26zM879 0h-449v23l154 61v491l-482 906l-143 53v22h455v-22
l-148 -49l436 -823l414 821l-190 51v22h403v-22l-147 -55l-457 -891v-504l154 -61v-23z" />
    <glyph glyph-name="Zacute" unicode="&#x179;" horiz-adv-x="1067" 
d="M520 1659h-26q99 202 172 293.5t118 91.5q20 0 30.5 -9.5t10.5 -25.5q0 -46 -90.5 -145.5t-214.5 -204.5zM958 0h-901l-10 33l762 1454h-573l-144 -258h-24l71 327h830l10 -28l-756 -1454h637l144 243h26z" />
    <glyph glyph-name="zacute" unicode="&#x17a;" horiz-adv-x="862" 
d="M420 1139h-27q97 201 171 293t120 92q20 0 30.5 -9.5t10.5 -25.5q0 -45 -89.5 -143t-215.5 -207zM743 0h-675l-11 25l549 946h-346l-147 -262h-31l72 327h610l10 -24l-545 -946h410l145 251h31z" />
    <glyph glyph-name="Zdotaccent" unicode="&#x17b;" horiz-adv-x="1067" 
d="M539 1712q-44 0 -72.5 28.5t-28.5 71.5t28.5 73t72.5 30q42 0 71 -30t29 -73t-28.5 -71.5t-71.5 -28.5zM958 0h-901l-10 33l762 1454h-573l-144 -258h-24l71 327h830l10 -28l-756 -1454h637l144 243h26z" />
    <glyph glyph-name="zdotaccent" unicode="&#x17c;" horiz-adv-x="862" 
d="M436 1192q-43 0 -70.5 28.5t-27.5 71.5t28 73t70 30q44 0 72.5 -30t28.5 -73t-28.5 -71.5t-72.5 -28.5zM743 0h-675l-11 25l549 946h-346l-147 -262h-31l72 327h610l10 -24l-545 -946h410l145 251h31z" />
    <glyph glyph-name="Zcaron" unicode="&#x17d;" horiz-adv-x="1067" 
d="M539 1655q-35 0 -68.5 48.5t-126.5 220.5q-39 73 -63 116h28q20 -23 60.5 -69.5t64 -74.5t54 -65.5t51.5 -67.5q21 30 51 68t53 65t62.5 74t58.5 70h31q-24 -44 -65 -119q-92 -171 -125 -218.5t-66 -47.5zM958 0h-901l-10 33l762 1454h-573l-144 -258h-24l71 327h830
l10 -28l-756 -1454h637l144 243h26z" />
    <glyph glyph-name="zcaron" unicode="&#x17e;" horiz-adv-x="862" 
d="M436 1135q-33 0 -66 47.5t-124 213.5q-14 25 -21.5 39.5t-21 39t-25.5 45.5h31q13 -15 59 -68t65.5 -76.5t50.5 -62.5t52 -70q21 31 51.5 69t52.5 64t64.5 75t59.5 69h28q-147 -272 -165 -301q-44 -72 -75 -82q-8 -2 -16 -2zM743 0h-675l-11 25l549 946h-346l-147 -262
h-31l72 327h610l10 -24l-545 -946h410l145 251h31z" />
    <glyph glyph-name="uni018F" unicode="&#x18f;" horiz-adv-x="1591" 
d="M735 1573q226 0 402.5 -99.5t273 -276t96.5 -400.5q0 -184 -60 -340t-162 -260t-236.5 -162t-284.5 -58q-139 0 -265.5 55.5t-219.5 151.5t-148 233.5t-55 293.5q0 41 6 82h1255q-15 348 -186.5 532t-450.5 184q-95 0 -177 -33t-148.5 -98.5t-105 -177.5t-38.5 -258h-38
v455q15 20 57 47t108.5 57.5t167 51t209.5 20.5zM811 53q80 0 151.5 18.5t141.5 66t120.5 121t82 192.5t32.5 272h-1110q6 -155 62 -285.5t140 -212.5t183 -127t197 -45z" />
    <glyph glyph-name="florin" unicode="&#x192;" horiz-adv-x="976" 
d="M221 -25q-62 0 -106.5 25t-59.5 66l27 274h41q-27 -324 108 -324q32 0 57.5 13.5t44.5 42t33.5 64.5t24 91.5t15.5 111t9 134t4 151t1 171.5h-244v79h244v95q0 317 65.5 460.5t216.5 143.5q97 0 149 -44.5t71 -105.5l-27 -276h-43q22 381 -154 381q-50 0 -81.5 -32.5
t-50.5 -113t-25.5 -199.5t-5.5 -309h282v-79h-282v-103q0 -105 -5.5 -190.5t-18 -169.5t-36 -146.5t-57.5 -111.5t-83.5 -74t-113.5 -25z" />
    <glyph glyph-name="uni0218" unicode="&#x218;" horiz-adv-x="1193" 
d="M584 -23q-173 0 -303.5 69.5t-206.5 170.5l114 399h48q-33 -158 -33 -229q0 -81 26 -144.5t66.5 -101t95 -61.5t104.5 -32.5t103 -8.5q86 0 161.5 20.5t134.5 61.5t93.5 107.5t34.5 152.5q0 53 -13.5 95.5t-40 74t-60 55.5t-80 44t-93.5 36t-106 34q-7 2 -11 3l-92 29
q-368 107 -368 407q0 81 27 154t79.5 132t140 93.5t199.5 34.5q142 0 255 -49.5t188 -116.5l-132 -324h-45q41 129 41 174q1 67 -26.5 117t-74.5 78t-100.5 41.5t-111.5 13.5q-93 0 -172.5 -29t-133.5 -93t-54 -152q0 -56 23 -102.5t56 -77t84 -56.5t91.5 -40t95.5 -29
l71 -19q43 -12 63 -18.5t64.5 -22t69 -27.5t64 -34.5t62.5 -45t51 -55t43 -68.5t25.5 -83t10.5 -100q0 -217 -147 -347.5t-381 -130.5zM567 -102q49 0 77 -39.5t28 -96.5q0 -115 -140 -262h-24q88 115 88 178q0 29 -16 49t-35 29.5t-35 28t-16 45.5q0 33 20.5 50.5
t52.5 17.5z" />
    <glyph glyph-name="uni0219" unicode="&#x219;" horiz-adv-x="868" 
d="M434 -23q-125 0 -216.5 51t-139.5 119l94 267h37q-21 -74 -21 -140q0 -109 63 -170t185 -61q132 0 209.5 61.5t77.5 151.5q0 36 -16 64.5t-40 49t-71.5 41t-90 34.5t-116.5 36q-270 82 -270 305q0 134 88 207.5t227 73.5q108 0 189.5 -42.5t130.5 -102.5l-74 -228h-35
q33 140 -30.5 223.5t-192.5 83.5q-95 0 -164.5 -48t-69.5 -134q0 -73 60.5 -117t200.5 -86l39 -12q47 -14 70 -21.5t62 -23t58.5 -29t45 -36t37.5 -48t21 -61t9 -78.5q0 -160 -100 -245t-257 -85zM410 -102q49 0 75.5 -39t26.5 -97q0 -118 -137 -262h-27q90 114 90 178
q0 24 -10.5 41t-26 27l-31 20t-26 26t-10.5 38q0 33 21 50.5t55 17.5z" />
    <glyph glyph-name="uni021A" unicode="&#x21a;" horiz-adv-x="1351" 
d="M901 0h-450v23l153 61v1403h-424l-137 -248h-29l72 317h1178l71 -317h-26l-140 248h-421v-1403l153 -61v-23zM643 -102q49 0 75.5 -39t26.5 -97q0 -118 -137 -262h-24q88 115 88 178q0 29 -16 49t-35.5 29.5t-35.5 28t-16 45.5q0 32 21 50t53 18z" />
    <glyph glyph-name="uni021B" unicode="&#x21b;" horiz-adv-x="632" 
d="M371 -23q-199 0 -199 299v697h-156v31l166 32l68 348h43v-348h262v-63h-262v-697q0 -122 34 -178.5t101 -56.5q107 0 162 145h41q-34 -103 -103 -156t-157 -53zM297 -102q49 0 75.5 -39t26.5 -97q0 -118 -137 -262h-24q88 115 88 178q0 29 -16.5 49t-36 29.5t-36 28
t-16.5 45.5q0 32 22 50t54 18z" />
    <glyph glyph-name="uni0259" unicode="&#x259;" horiz-adv-x="1032" 
d="M494 1055q109 0 199 -45.5t147.5 -121.5t89 -172.5t31.5 -201.5q0 -149 -60.5 -275t-168.5 -200t-240 -74q-172 0 -281 120.5t-109 322.5v43h740v16q0 221 -114 370.5t-286 149.5q-120 0 -214.5 -80.5t-159.5 -234.5h-35q54 172 172 277.5t289 105.5zM836 385h-605
q0 -159 72.5 -254.5t198.5 -95.5q132 0 224 99t110 251z" />
    <glyph glyph-name="uni02BC" unicode="&#x2bc;" horiz-adv-x="350" 
d="M109 1065h-25q94 118 94 211q0 48 -22 109.5t-54 97.5q0 43 26.5 65.5t64.5 22.5q42 0 68 -28.5t26 -82.5q0 -78 -47.5 -194t-130.5 -201z" />
    <glyph glyph-name="circumflex" unicode="&#x2c6;" horiz-adv-x="651" 
d="M98 1098h-30q26 46 68 124q92 168 124.5 214.5t65.5 46.5q35 0 69 -49.5t127 -223.5q38 -71 60 -112h-29q-17 20 -59.5 69t-64 74.5t-52 63.5t-51.5 69q-27 -40 -60 -81t-92.5 -108.5t-75.5 -86.5z" />
    <glyph glyph-name="caron" unicode="&#x2c7;" horiz-adv-x="651" 
d="M371 1135q-35 0 -68.5 48.5t-126.5 220.5q-39 73 -63 116h28q10 -12 48 -55t53.5 -61t43.5 -51t48 -59t37 -51q21 31 52 70t50.5 62.5t65.5 76.5t59 68h29q-24 -44 -65 -119q-92 -171 -125 -218.5t-66 -47.5z" />
    <glyph glyph-name="breve" unicode="&#x2d8;" horiz-adv-x="747" 
d="M375 1139q-52 0 -99.5 21.5t-88.5 65t-65 120.5t-24 178h27q1 -55 15.5 -105t43 -92t78 -67t113.5 -25t113.5 25t78 67t42.5 92t14 105h28q0 -101 -24 -178t-64.5 -120.5t-88 -65t-99.5 -21.5z" />
    <glyph glyph-name="dotaccent" unicode="&#x2d9;" horiz-adv-x="438" 
d="M123 1192q-44 0 -72 28.5t-28 71.5t28 73t72 30q42 0 71 -30t29 -73t-28.5 -71.5t-71.5 -28.5z" />
    <glyph glyph-name="ring" unicode="&#x2da;" horiz-adv-x="528" 
d="M274 1174q-71 0 -121.5 51t-50.5 121q0 71 50 120.5t122 49.5q68 0 119 -50t51 -120q0 -69 -51 -120.5t-119 -51.5zM274 1229q44 0 79.5 35.5t35.5 81.5t-35 80t-80 34q-49 0 -82.5 -33t-33.5 -81q0 -47 33.5 -82t82.5 -35z" />
    <glyph glyph-name="ogonek" unicode="&#x2db;" horiz-adv-x="456" 
d="M309 -424q-60 0 -99.5 39t-39.5 104q0 25 7 51t17.5 48t26.5 45.5t30 40.5t32.5 36t29 29t24.5 22t15 13h31q-23 -21 -51 -53.5t-57 -90.5t-29 -108q0 -55 29.5 -87t72.5 -32q52 0 107 58h26q-77 -115 -172 -115z" />
    <glyph glyph-name="tilde" unicode="&#x2dc;" horiz-adv-x="739" 
d="M195 1178h-25q9 93 53.5 145.5t112.5 52.5q37 0 71 -16.5t55 -36.5t50.5 -36.5t58.5 -16.5q85 0 121 123h25q-9 -95 -54 -148t-114 -53q-37 0 -71 16.5t-55.5 36.5t-50.5 36.5t-57 16.5q-87 0 -120 -120z" />
    <glyph glyph-name="hungarumlaut" unicode="&#x2dd;" horiz-adv-x="739" 
d="M133 1139h-27q97 201 171 293t120 92q20 0 30.5 -9.5t10.5 -25.5q0 -83 -305 -350zM403 1139h-26q97 201 171 293t120 92q20 0 30.5 -9.5t10.5 -25.5q0 -83 -306 -350z" />
    <glyph glyph-name="gravecomb" unicode="&#x300;" horiz-adv-x="0" 
d="M-70 1139h-26q-123 107 -213 206.5t-90 141.5q0 37 41 37q44 0 117.5 -92t170.5 -293z" />
    <glyph glyph-name="acutecomb" unicode="&#x301;" horiz-adv-x="0" 
d="M-373 1139h-26q97 201 170.5 293t117.5 92q20 0 30.5 -9.5t10.5 -25.5q0 -45 -88.5 -142.5t-214.5 -207.5z" />
    <glyph glyph-name="uni0302" unicode="&#x302;" horiz-adv-x="0" 
d="M-553 1098h-31q26 46 68 124q92 168 124.5 214.5t65.5 46.5q35 0 69 -49.5t127 -223.5q38 -71 60 -112h-28q-20 23 -60 69.5t-63.5 73.5t-53.5 64.5t-51 68.5q-21 -31 -50.5 -68.5t-52.5 -64.5t-63.5 -73.5t-60.5 -69.5z" />
    <glyph glyph-name="tildecomb" unicode="&#x303;" horiz-adv-x="0" 
d="M-621 1178h-24q10 94 54.5 146t113.5 52q37 0 70.5 -16.5t55 -36.5t51 -36.5t58.5 -16.5q85 0 121 123h23q-9 -95 -54 -148t-114 -53q-37 0 -71 16.5t-55.5 36.5t-50.5 36.5t-57 16.5q-85 0 -121 -120z" />
    <glyph glyph-name="uni0304" unicode="&#x304;" horiz-adv-x="0" 
d="M-131 1237h-549v88h549v-88z" />
    <glyph glyph-name="uni0306" unicode="&#x306;" horiz-adv-x="0" 
d="M-373 1139q-52 0 -99.5 21.5t-88 65t-64.5 120.5t-24 178h26q1 -55 15.5 -105t43 -92t78 -67t113.5 -25t113.5 25t78 67t42.5 92t14 105h29q0 -101 -24 -178t-65 -120.5t-88.5 -65t-99.5 -21.5z" />
    <glyph glyph-name="uni0307" unicode="&#x307;" horiz-adv-x="0" 
d="M-221 1192q-43 0 -70.5 28.5t-27.5 71.5t28 73t70 30q44 0 72 -30t28 -73t-28 -71.5t-72 -28.5z" />
    <glyph glyph-name="uni0308" unicode="&#x308;" horiz-adv-x="0" 
d="M-498 1276q-41 0 -66.5 26t-25.5 66t25.5 67t66.5 27q42 0 68.5 -27t26.5 -67t-26.5 -66t-68.5 -26zM-201 1276q-41 0 -66.5 26t-25.5 66t25.5 67t66.5 27q42 0 68.5 -27t26.5 -67t-26.5 -66t-68.5 -26z" />
    <glyph glyph-name="uni030A" unicode="&#x30a;" horiz-adv-x="0" 
d="M-262 1174q-71 0 -121.5 51t-50.5 121q0 71 50 120.5t122 49.5q68 0 119 -50t51 -120q0 -69 -51 -120.5t-119 -51.5zM-262 1229q44 0 79.5 35.5t35.5 81.5t-35 80t-80 34q-49 0 -83 -33.5t-34 -80.5t34 -82t83 -35z" />
    <glyph glyph-name="uni030B" unicode="&#x30b;" horiz-adv-x="0" 
d="M-594 1139h-27q97 201 171 293t120 92q20 0 30.5 -9.5t10.5 -25.5q0 -45 -89.5 -143t-215.5 -207zM-324 1139h-26q97 201 171 293t120 92q20 0 30.5 -9.5t10.5 -25.5q0 -45 -89.5 -143t-216.5 -207z" />
    <glyph glyph-name="uni030C" unicode="&#x30c;" horiz-adv-x="0" 
d="M-326 1135q-33 0 -66 47.5t-124 213.5q-14 25 -21.5 39.5t-21 39t-25.5 45.5h31q18 -21 60 -69t64 -74.5t52 -64.5t51 -69q21 31 51.5 69t52.5 64t64.5 75t59.5 69h28q-147 -272 -165 -301q-44 -72 -75 -82q-8 -2 -16 -2z" />
    <glyph glyph-name="uni0312" unicode="&#x312;" horiz-adv-x="0" 
d="M-180 1200q-49 0 -76 39t-27 96q0 117 140 262h24q-90 -118 -90 -178q0 -29 16.5 -48.5t36 -29t36 -28t16.5 -45.5q0 -33 -21 -50.5t-55 -17.5z" />
    <glyph glyph-name="uni0326" unicode="&#x326;" horiz-adv-x="0" 
d="M-272 -102q49 0 75.5 -39t26.5 -97q0 -118 -137 -262h-25q88 115 88 178q0 24 -10.5 41t-26 27l-31 20t-26 26t-10.5 38q0 32 22 50t54 18z" />
    <glyph glyph-name="uni0327" unicode="&#x327;" horiz-adv-x="0" 
d="M-256 -418q-58 0 -119 35v21q61 -23 105 -23q55 0 87.5 26t32.5 74q0 44 -38.5 75.5t-110.5 31.5v39l94 166h39l-82 -144q78 0 119 -37.5t41 -95.5q0 -62 -46 -115t-122 -53z" />
    <glyph glyph-name="uni0328" unicode="&#x328;" horiz-adv-x="0" 
d="M-229 -424q-59 0 -99.5 39.5t-40.5 103.5q0 32 12.5 67t29.5 62.5t41.5 56t41.5 45.5t36.5 34.5t21.5 19.5h32q-23 -21 -51 -53.5t-57 -90.5t-29 -108q0 -55 29.5 -87t73.5 -32q52 0 104 58h27q-74 -115 -172 -115z" />
    <glyph glyph-name="uni0335" unicode="&#x335;" horiz-adv-x="0" 
d="M-129 543h-533v63h533v-63z" />
    <glyph glyph-name="uni0336" unicode="&#x336;" horiz-adv-x="0" 
d="M-131 532h-1301v86h1301v-86z" />
    <glyph glyph-name="uni0337" unicode="&#x337;" horiz-adv-x="0" 
d="M-82 739l-420 -217v96l420 222v-101z" />
    <glyph glyph-name="uni0338" unicode="&#x338;" horiz-adv-x="0" 
d="M-979 -162h-94l1040 1616h94z" />
    <glyph glyph-name="uni0394" unicode="&#x394;" horiz-adv-x="1079" 
d="M1096 0h-1096l492 1317h81zM535 1169l-406 -1077h840z" />
    <glyph glyph-name="uni03A9" unicode="&#x3a9;" horiz-adv-x="1474" 
d="M492 0h-338v29l323 75q-170 81 -273.5 245t-103.5 347q0 139 50 259t135.5 203.5t203 131t248.5 47.5t248.5 -47.5t203 -131t135.5 -203.5t50 -259q0 -183 -103.5 -347t-273.5 -245l324 -75v-29h-338l-82 119q158 50 259.5 209.5t101.5 367.5q0 247 -149.5 406.5
t-375.5 159.5t-375 -159.5t-149 -406.5q0 -208 101.5 -367.5t258.5 -209.5z" />
    <glyph glyph-name="uni03BC" unicode="&#x3bc;" horiz-adv-x="1038" 
d="M426 -389h-387v22l133 41v1268l-135 14v25l229 55h27v-698q0 -158 45.5 -223.5t128.5 -65.5q182 0 278 248v645l-133 14v25l230 55h26v-940l133 -16v-23l-231 -57h-25v205q-103 -230 -307 -230q-92 0 -145 68v-369l133 -41v-22z" />
    <glyph glyph-name="pi" unicode="&#x3c0;" horiz-adv-x="1038" 
d="M426 0h-389v23l133 40v973h698v-973l133 -40v-23h-389v23l133 40v871h-452v-871l133 -40v-23z" />
    <glyph glyph-name="uni0400" unicode="&#x400;" horiz-adv-x="1138" 
d="M670 1659h-27q-120 104 -211.5 204.5t-91.5 143.5q0 37 43 37t116.5 -93t170.5 -292zM1014 0h-936v23l153 61v1386l-153 64v22h915l72 -317h-27l-143 248h-522v-619h358l57 174h31v-419h-31l-57 174h-358v-723h542l144 243h26z" />
    <glyph glyph-name="uni0401" unicode="&#x401;" horiz-adv-x="1138" 
d="M430 1718q-41 0 -66.5 26t-25.5 66t25.5 67.5t66.5 27.5q42 0 68 -27t26 -68q0 -40 -26 -66t-68 -26zM727 1718q-41 0 -66.5 26t-25.5 66t25.5 67.5t66.5 27.5q42 0 68 -27t26 -68q0 -40 -26 -66t-68 -26zM1014 0h-936v23l153 61v1386l-153 64v22h915l72 -317h-27
l-143 248h-522v-619h358l57 174h31v-419h-31l-57 174h-358v-723h542l144 243h26z" />
    <glyph glyph-name="uni0402" unicode="&#x402;" horiz-adv-x="1650" 
d="M1139 909q432 0 432 -479v-18q0 -258 -118.5 -392t-336.5 -149v20q158 34 234.5 161.5t76.5 359.5v18q0 195 -82.5 298t-240.5 103q-202 0 -389 -104v-643l153 -61v-23h-448v23l153 61v1403h-393l-137 -248h-29l72 317h1178l71 -317h-26l-140 248h-454v-705
q206 127 424 127z" />
    <glyph glyph-name="uni0403" unicode="&#x403;" horiz-adv-x="1058" 
d="M571 1671h-26q97 201 171 293t120 92q20 0 30.5 -9.5t10.5 -25.5q0 -45 -89.5 -143t-216.5 -207zM547 0h-469v23l153 61v1386l-153 64v22h895l71 -317h-26l-144 248h-501v-1401l174 -63v-23z" />
    <glyph glyph-name="uni0404" unicode="&#x404;" horiz-adv-x="1583" 
d="M1540 616h35q-39 -140 -108.5 -256.5t-163.5 -202t-215 -133t-257 -47.5q-153 0 -289 54.5t-237.5 153t-161 247t-59.5 326.5q0 235 105 421.5t291 290t419 103.5q97 0 186.5 -20.5t149 -50.5t98 -57.5t51.5 -47.5v-455h-36q0 143 -37.5 252t-104 174t-150 97t-182.5 32
q-72 0 -149 -16.5t-165 -62t-156 -115t-115.5 -187.5t-50.5 -268h770v-72h-768q8 -150 50 -273t106 -205t147.5 -138.5t171 -81.5t178.5 -25q223 0 392.5 148t254.5 415z" />
    <glyph glyph-name="uni0405" unicode="&#x405;" horiz-adv-x="1193" 
d="M584 -23q-173 0 -303.5 69.5t-206.5 170.5l114 399h48q-33 -158 -33 -229q0 -81 26 -144.5t66.5 -101t95 -61.5t104.5 -32.5t103 -8.5q86 0 161.5 20.5t134.5 61.5t93.5 107.5t34.5 152.5q0 53 -13.5 95.5t-40 74t-60 55.5t-80 44t-93.5 36t-106 34q-7 2 -11 3l-92 29
q-368 107 -368 407q0 81 27 154t79.5 132t140 93.5t199.5 34.5q142 0 255 -49.5t188 -116.5l-132 -324h-45q41 129 41 174q1 67 -26.5 117t-74.5 78t-100.5 41.5t-111.5 13.5q-93 0 -172.5 -29t-133.5 -93t-54 -152q0 -56 23 -102.5t56 -77t84 -56.5t91.5 -40t95.5 -29
l71 -19q43 -12 63 -18.5t64.5 -22t69 -27.5t64 -34.5t62.5 -45t51 -55t43 -68.5t25.5 -83t10.5 -100q0 -217 -147 -347.5t-381 -130.5z" />
    <glyph glyph-name="uni0406" unicode="&#x406;" horiz-adv-x="604" 
d="M526 0h-448v23l153 61v1386l-153 64v22h448v-22l-153 -64v-1386l153 -61v-23z" />
    <glyph glyph-name="uni0407" unicode="&#x407;" horiz-adv-x="604" 
d="M154 1718q-41 0 -67 26t-26 66t26 67.5t67 27.5t66.5 -27.5t25.5 -67.5t-25.5 -66t-66.5 -26zM451 1718q-41 0 -67 26t-26 66t26 67.5t67 27.5t66.5 -27.5t25.5 -67.5t-25.5 -66t-66.5 -26zM526 0h-448v23l153 61v1386l-153 64v22h448v-22l-153 -64v-1386l153 -61v-23z
" />
    <glyph glyph-name="uni0408" unicode="&#x408;" horiz-adv-x="903" 
d="M358 -23q-88 0 -158 28t-111 66t-81 95l176 416h33q-10 -32 -28 -86t-26.5 -81.5t-16 -66.5t-7.5 -72q0 -104 56.5 -163.5t156.5 -59.5q38 0 66 8.5t54.5 33.5t42.5 68t26 115t10 171v1021l-154 64v22h451v-22l-154 -64v-1056q0 -77 -7.5 -137.5t-29.5 -118.5t-58.5 -96
t-97.5 -61.5t-143 -23.5z" />
    <glyph glyph-name="uni0409" unicode="&#x409;" horiz-adv-x="2045" 
d="M1171 889h326q97 0 185.5 -26.5t160.5 -77.5t115 -136t43 -192q0 -108 -44 -196t-118 -144t-167 -86.5t-195 -30.5h-600v23l153 57v1405h-489q-12 -174 -22 -300.5t-22.5 -262t-24.5 -230.5t-27 -193.5t-31 -164t-36 -129t-43 -101.5t-51.5 -68.5t-61.5 -43t-72 -12.5
q-96 0 -127 51v274h32q0 -111 20.5 -160t80.5 -49q43 0 77.5 31.5t63 104.5t51 177t43.5 265t38 351t36 452l-154 57v22h1014v-22l-154 -61v-584zM1171 55h291q182 0 286.5 106t104.5 296q0 188 -105.5 281t-285.5 93h-291v-776z" />
    <glyph glyph-name="uni040A" unicode="&#x40a;" horiz-adv-x="2082" 
d="M1208 889h326q97 0 185.5 -26.5t160.5 -77.5t115 -136t43 -192q0 -108 -44 -196t-118 -144t-167.5 -86.5t-195.5 -30.5h-602v23l154 57v737h-692v-733l153 -61v-23h-448v23l153 61v1386l-153 64v22h448v-22l-153 -64v-581h692v584l-154 61v22h451v-22l-154 -61v-584z
M1208 55h291q181 0 286 106.5t105 295.5q0 181 -105.5 270.5t-285.5 89.5h-291v-762z" />
    <glyph glyph-name="uni040B" unicode="&#x40b;" horiz-adv-x="1708" 
d="M1540 535v-455l154 -57v-23h-297v535q0 156 -63.5 226t-203.5 70q-193 0 -415 -104v-643l153 -61v-23h-448v23l153 61v1403h-393l-137 -248h-29l72 317h1178l71 -317h-26l-140 248h-454v-707q218 129 452 129q204 0 288.5 -88t84.5 -286z" />
    <glyph glyph-name="uni040C" unicode="&#x40c;" horiz-adv-x="1214" 
d="M582 1671h-27q97 200 171 292.5t118 92.5q20 0 31.5 -10t11.5 -25q0 -83 -305 -350zM526 0h-448v23l153 61v1386l-153 64v22h448v-22l-153 -64v-634l514 651l-135 47v22h399v-22l-201 -49l-491 -631l594 -780l194 -51v-23h-465v23l99 51l-508 653v-643l153 -61v-23z" />
    <glyph glyph-name="uni040D" unicode="&#x40d;" horiz-adv-x="1540" 
d="M840 1671h-27q-123 107 -213 206.5t-90 141.5q0 37 41 37q44 0 118 -92.5t171 -292.5zM1464 1556v-22l-153 -64v-1386l153 -61v-23h-450v23l153 61v1133l-794 -1000v-133l153 -61v-23h-448v23l153 61v1386l-153 64v22h448v-22l-153 -64v-1153l794 998v155l-153 64v22h450
z" />
    <glyph glyph-name="uni040E" unicode="&#x40e;" horiz-adv-x="1304" 
d="M692 1659q-168 0 -250.5 96.5t-85.5 257.5h123q1 -57 6 -100t19 -85.5t37 -69.5t61 -43.5t90 -16.5t91 16.5t62 43.5t37 69.5t19 85.5t6 100h121q-2 -78 -21.5 -140.5t-58.5 -111.5t-104 -75.5t-152 -26.5zM942 1534v22h410v-22l-152 -55l-477 -1108
q-50 -116 -85.5 -182.5t-79 -118t-92 -71t-116.5 -19.5q-135 0 -200 92l120 319h31q-37 -109 -37 -184q0 -61 32 -95t85 -34q80 0 139 56.5t123 197.5l-520 1149l-148 53v22h455v-22l-143 -47l432 -981l414 977z" />
    <glyph glyph-name="uni040F" unicode="&#x40f;" horiz-adv-x="1515" 
d="M1438 1556v-22l-154 -61v-1387l154 -63v-23h-611l-59 -297h-20l-60 297h-610v23l153 63v1387l-153 61v22h448v-22l-153 -61v-1401h770v1401l-154 61v22h449z" />
    <glyph glyph-name="uni0410" unicode="&#x410;" horiz-adv-x="1554" 
d="M381 0h-424v23l158 51l590 1429l-29 70h125l653 -1499l152 -51v-23h-476v23l158 51l-250 585h-610l-235 -585l188 -51v-23zM725 1393l-268 -664h551z" />
    <glyph glyph-name="uni0411" unicode="&#x411;" horiz-adv-x="1257" 
d="M924 1487h-553v-619h327q77 0 149 -15.5t136.5 -49.5t112.5 -82.5t76 -119t28 -155.5q0 -105 -44 -191.5t-117.5 -141t-166.5 -84t-194 -29.5h-600v23l153 57v1386l-153 68v22h944l72 -317h-27zM371 811v-756h291q182 0 286.5 103.5t104.5 287.5t-105 274.5t-286 90.5
h-291z" />
    <glyph glyph-name="uni0412" unicode="&#x412;" horiz-adv-x="1345" 
d="M702 0h-624v23l153 59v1388l-153 64v22h586q247 0 390.5 -106.5t143.5 -282.5q0 -135 -88 -236.5t-236 -144.5q183 -31 291.5 -135t108.5 -250q0 -179 -157.5 -290t-414.5 -111zM373 1487v-672h276q188 0 295 87.5t107 268.5q0 155 -110 235.5t-327 80.5h-241zM373 743
v-669h319q196 0 312 90.5t116 251.5q0 152 -115.5 239.5t-308.5 87.5h-323z" />
    <glyph glyph-name="uni0413" unicode="&#x413;" horiz-adv-x="1058" 
d="M547 0h-469v23l153 61v1386l-153 64v22h895l71 -317h-26l-144 248h-501v-1401l174 -63v-23z" />
    <glyph glyph-name="uni0414" unicode="&#x414;" horiz-adv-x="1468" 
d="M1182 72h186l62 -338h-27l-164 266h-1063l-164 -266h-24l61 338h127q115 251 166.5 543t91.5 862l-153 57v22h1054v-22l-153 -57v-1405zM268 72h772v1413h-528q-41 -566 -92 -860.5t-152 -552.5z" />
    <glyph glyph-name="uni0415" unicode="&#x415;" horiz-adv-x="1138" 
d="M1014 0h-936v23l153 61v1386l-153 64v22h915l72 -317h-27l-143 248h-522v-619h358l57 174h31v-419h-31l-57 174h-358v-723h542l144 243h26z" />
    <glyph glyph-name="uni0416" unicode="&#x416;" horiz-adv-x="1818" 
d="M1075 854l586 -780l190 -51v-23h-460v23l96 51l-508 676v-666l149 -61v-23h-436v23l148 61v664l-506 -674l96 -51v-23h-463v23l197 51l581 772l-489 639l-193 49v22h402v-22l-133 -47l508 -670v653l-154 64v22h447v-22l-154 -64v-655l510 672l-135 47v22h399v-22
l-197 -49z" />
    <glyph glyph-name="uni0417" unicode="&#x417;" horiz-adv-x="1310" 
d="M641 1509q-70 0 -132.5 -19t-117.5 -60.5t-95.5 -102.5t-63.5 -151t-23 -201h-39v455q49 49 180 96t316 47q238 0 366.5 -105t128.5 -284q0 -142 -92 -236.5t-233 -134.5q181 -31 291 -132.5t110 -264.5q0 -90 -34.5 -168.5t-101 -139.5t-175 -96t-246.5 -35
q-536 0 -672 588h37q66 -260 232.5 -394t398.5 -134q93 0 166 24t117.5 62.5t73 91t39.5 104t11 107.5q0 173 -110.5 260.5t-300.5 87.5h-178v55h131q110 0 196 37.5t139.5 119.5t53.5 200q0 157 -93 240t-280 83z" />
    <glyph glyph-name="uni0418" unicode="&#x418;" horiz-adv-x="1540" 
d="M1464 1556v-22l-153 -64v-1386l153 -61v-23h-450v23l153 61v1133l-794 -1000v-133l153 -61v-23h-448v23l153 61v1386l-153 64v22h448v-22l-153 -64v-1153l794 998v155l-153 64v22h450z" />
    <glyph glyph-name="uni0419" unicode="&#x419;" horiz-adv-x="1540" 
d="M774 1659q-168 0 -250.5 96.5t-85.5 257.5h123q1 -57 6 -100t19 -85.5t37 -69.5t61 -43.5t90 -16.5t91 16.5t62 43.5t37 69.5t19 85.5t6 100h121q-2 -78 -21.5 -140.5t-58.5 -111.5t-104 -75.5t-152 -26.5zM1464 1556v-22l-153 -64v-1386l153 -61v-23h-450v23l153 61
v1133l-794 -1000v-133l153 -61v-23h-448v23l153 61v1386l-153 64v22h448v-22l-153 -64v-1153l794 998v155l-153 64v22h450z" />
    <glyph glyph-name="uni041A" unicode="&#x41a;" horiz-adv-x="1214" 
d="M526 0h-448v23l153 61v1386l-153 64v22h448v-22l-153 -64v-634l514 651l-135 47v22h399v-22l-201 -49l-491 -631l594 -780l194 -51v-23h-465v23l99 51l-508 653v-643l153 -61v-23z" />
    <glyph glyph-name="uni041B" unicode="&#x41b;" horiz-adv-x="1415" 
d="M1337 1556v-22l-153 -57v-1393l153 -61v-23h-448v23l153 61v1401h-501q-12 -174 -22 -300.5t-22.5 -262t-24.5 -230.5t-27 -193.5t-31 -164t-36 -129t-43 -101.5t-51.5 -68.5t-61.5 -43t-72 -12.5q-96 0 -127 51v274h32q0 -110 21 -159.5t80 -49.5q43 0 77.5 31.5
t63.5 104.5t51.5 177t43.5 264.5t38 351.5t35 452l-154 57v22h1026z" />
    <glyph glyph-name="uni041C" unicode="&#x41c;" horiz-adv-x="1796" 
d="M477 0h-399v23l153 61v1386l-153 64v22h297l543 -1376l528 1376h272v-22l-153 -64v-1386l153 -61v-23h-448v23l153 61v1221l-510 -1305h-75l-512 1282v-1198l151 -61v-23z" />
    <glyph glyph-name="uni041D" unicode="&#x41d;" horiz-adv-x="1536" 
d="M526 0h-448v23l153 61v1386l-153 64v22h448v-22l-153 -64v-616h790v616l-153 64v22h448v-22l-153 -64v-1386l153 -61v-23h-448v23l153 61v700h-790v-700l153 -61v-23z" />
    <glyph glyph-name="uni041E" unicode="&#x41e;" horiz-adv-x="1644" 
d="M795 -23q-143 0 -273.5 60t-227 164t-153.5 253t-57 318q0 176 62 328t165.5 254.5t238.5 160.5t281 58q145 0 278 -58.5t233 -159.5t159.5 -247t59.5 -311q0 -172 -64.5 -326.5t-171 -261.5t-245.5 -169.5t-285 -62.5zM848 53q77 0 151 21.5t146 73t126.5 127t88 193
t33.5 261.5q0 186 -50 335t-134.5 242t-191 142t-224.5 49q-73 0 -146 -19t-148 -66.5t-132 -119t-93 -187.5t-36 -261q0 -150 37 -280.5t98.5 -222.5t141 -158t165 -98t168.5 -32z" />
    <glyph glyph-name="uni041F" unicode="&#x41f;" horiz-adv-x="1515" 
d="M1438 1556v-22l-154 -64v-1386l154 -61v-23h-449v23l154 61v1401h-770v-1401l153 -61v-23h-448v23l153 61v1386l-153 64v22h1360z" />
    <glyph glyph-name="uni0420" unicode="&#x420;" horiz-adv-x="1232" 
d="M526 0h-448v23l153 61v1386l-153 64v22h616q97 0 185.5 -23.5t160.5 -70t115 -123t43 -174.5q0 -129 -76.5 -227t-194 -146.5t-253.5 -48.5h-301v-659l153 -61v-23zM373 1485v-670h286q182 0 287 91.5t105 258.5q0 85 -28.5 148t-82 100t-123.5 54.5t-158 17.5h-286z" />
    <glyph glyph-name="uni0421" unicode="&#x421;" horiz-adv-x="1574" 
d="M831 -23q-153 0 -289 54.5t-237.5 153t-161 247t-59.5 326.5q0 235 105 421.5t291 290t419 103.5q97 0 186.5 -20.5t149 -50.5t98 -57.5t51.5 -47.5v-455h-36q0 143 -37.5 252t-104 174t-150 97t-182.5 32q-51 0 -105 -8.5t-117.5 -30t-121 -54.5t-111.5 -87
t-93.5 -121.5t-63.5 -163.5t-24 -209q2 -159 42 -290t104.5 -218.5t149.5 -148t175 -87t184 -26.5q223 0 392.5 148t254.5 415h35q-39 -140 -108.5 -256.5t-163.5 -202t-215 -133t-257 -47.5z" />
    <glyph glyph-name="uni0422" unicode="&#x422;" horiz-adv-x="1351" 
d="M901 0h-450v23l153 61v1403h-424l-137 -248h-29l72 317h1178l71 -317h-26l-140 248h-421v-1403l153 -61v-23z" />
    <glyph glyph-name="uni0423" unicode="&#x423;" horiz-adv-x="1304" 
d="M942 1534v22h410v-22l-152 -55l-477 -1108q-50 -116 -85.5 -182.5t-79 -118t-92 -71t-116.5 -19.5q-135 0 -200 92l120 319h31q-37 -109 -37 -184q0 -61 32 -95t85 -34q80 0 139 56.5t123 197.5l-520 1149l-148 53v22h455v-22l-143 -47l432 -981l414 977z" />
    <glyph glyph-name="uni0424" unicode="&#x424;" horiz-adv-x="1724" 
d="M1649 815q0 -138 -51.5 -246.5t-146.5 -181t-225 -114t-292 -50.5v-160l153 -61v-22h-450v22l154 61v160q-157 3 -285.5 38t-225.5 101t-150.5 171t-53.5 241q0 273 191.5 423.5t523.5 168.5v125l-154 63v23h450v-23l-153 -63v-125q157 -3 285.5 -37.5t225.5 -100.5
t150.5 -171.5t53.5 -241.5zM236 842q0 -110 32 -200t85 -149t126.5 -101.5t149.5 -64t162 -30.5v999q-95 -2 -172.5 -15t-150.5 -45t-122.5 -82t-79.5 -129t-30 -183zM1489 748q0 110 -32 199.5t-84.5 148.5t-126 102t-150 65t-162.5 31v-999q95 2 172.5 15t150.5 45
t122.5 82t79.5 129t30 182z" />
    <glyph glyph-name="uni0425" unicode="&#x425;" horiz-adv-x="1296" 
d="M414 0h-402v23l144 53l426 686l-449 708l-145 64v22h454v-22l-145 -59l377 -590l358 590l-184 59v22h399v-22l-151 -64l-387 -639l479 -755l139 -53v-23h-459v23l150 53l-402 633l-393 -633l191 -53v-23z" />
    <glyph glyph-name="uni0426" unicode="&#x426;" horiz-adv-x="1570" 
d="M1284 72h186l62 -338h-27l-164 266h-1263v23l153 63v1387l-153 61v22h448v-22l-153 -61v-1401h770v1401l-154 61v22h449v-22l-154 -61v-1401z" />
    <glyph glyph-name="uni0427" unicode="&#x427;" horiz-adv-x="1392" 
d="M1317 1556v-22l-154 -64v-1386l154 -61v-23h-455v23l158 61v668q-37 -19 -86.5 -38t-148 -40t-195.5 -21q-223 0 -323.5 89t-100.5 286v442l-154 64v22h449v-22l-154 -64v-442q0 -158 74 -228.5t237 -70.5q198 0 402 78v663l-154 64v22h451z" />
    <glyph glyph-name="uni0428" unicode="&#x428;" horiz-adv-x="2228" 
d="M2152 1556v-22l-153 -61v-1387l153 -63v-23h-2074v23l153 63v1387l-153 61v22h448v-22l-153 -61v-1401h669v1401l-153 61v22h450v-22l-153 -61v-1401h669v1401l-153 61v22h450z" />
    <glyph glyph-name="uni0429" unicode="&#x429;" horiz-adv-x="2283" 
d="M1999 72h184l62 -338h-25l-164 266h-1978v23l153 63v1387l-153 61v22h448v-22l-153 -61v-1401h669v1401l-153 61v22h450v-22l-153 -61v-1401h669v1401l-153 61v22h450v-22l-153 -61v-1401z" />
    <glyph glyph-name="uni042A" unicode="&#x42a;" horiz-adv-x="1468" 
d="M594 889h326q77 0 149 -16t137 -51t113 -84.5t76 -122t28 -158.5q0 -108 -44 -196t-118 -144t-167 -86.5t-195 -30.5h-600v23l154 57v1407h-269l-137 -248h-29l72 317h658v-22l-154 -61v-584zM594 55h291q182 0 286.5 106t104.5 296q0 188 -105.5 281t-285.5 93h-291
v-776z" />
    <glyph glyph-name="uni042B" unicode="&#x42b;" horiz-adv-x="1771" 
d="M78 0h600q102 0 195 30.5t167 86.5t118 144t44 196q0 107 -43 192t-115 136t-160.5 77.5t-185.5 26.5h-325v584l153 61v22h-448v-22l153 -61v-1393l-153 -57v-23zM1696 0h-451v23l154 61v1386l-154 64v22h451v-22l-154 -64v-1386l154 -61v-23zM373 831h291
q180 0 285.5 -93t105.5 -281q0 -190 -104.5 -296t-286.5 -106h-291v776z" />
    <glyph glyph-name="uni042C" unicode="&#x42c;" horiz-adv-x="1247" 
d="M78 0h600q102 0 195 30.5t167 86.5t118 144t44 196q0 107 -43 192t-115 136t-160.5 77.5t-185.5 26.5h-325v584l153 61v22h-448v-22l153 -61v-1393l-153 -57v-23zM373 831h291q180 0 285.5 -93t105.5 -281q0 -190 -104.5 -296t-286.5 -106h-291v776z" />
    <glyph glyph-name="uni042D" unicode="&#x42d;" horiz-adv-x="1554" 
d="M700 1573q125 0 239.5 -33t211 -99t168 -158.5t111.5 -218.5t40 -273q0 -227 -100 -412.5t-281.5 -293.5t-408.5 -108q-268 0 -435 152t-233 436h35q66 -247 234.5 -379.5t390.5 -132.5q140 0 256 45.5t200.5 132.5t131.5 222t47 307v16h-789v72h785
q-23 312 -194.5 486.5t-422.5 174.5q-101 0 -186 -32.5t-153.5 -99t-107 -178t-38.5 -257.5h-39v455q15 20 54.5 47t104.5 57.5t165.5 51t213.5 20.5z" />
    <glyph glyph-name="uni042E" unicode="&#x42e;" horiz-adv-x="2209" 
d="M1417 1573q146 0 277 -58.5t226 -160t150.5 -246.5t55.5 -311q0 -173 -61 -327t-163 -261t-238.5 -169.5t-283.5 -62.5q-145 0 -272.5 60t-219.5 164.5t-145 252.5t-53 318v12h-317v-700l153 -61v-23h-448v23l153 61v1386l-153 64v22h448v-22l-153 -64v-616h321
q17 213 119.5 378.5t260.5 253t343 87.5zM1434 53q78 0 150.5 21.5t141.5 73t120 127t81.5 192.5t30.5 262q0 187 -46 335.5t-126 241.5t-184 142t-224 49q-75 0 -146.5 -19t-143.5 -66.5t-125.5 -119.5t-87 -187.5t-33.5 -260.5q0 -150 34.5 -280.5t92.5 -222.5t134.5 -158
t160.5 -98t170 -32z" />
    <glyph glyph-name="uni042F" unicode="&#x42f;" horiz-adv-x="1323" 
d="M1247 1556v-22l-153 -57v-1379l153 -75v-23h-450v23l153 75v652h-223l-420 -672l154 -55v-23h-481v23l176 61l424 672q-126 12 -226.5 59.5t-163.5 135t-63 202.5q0 80 27 147t74 113.5t111 79t137.5 48t154.5 15.5h616zM666 807h284v694h-284q-181 0 -286.5 -86
t-105.5 -260q0 -163 105 -255.5t287 -92.5z" />
    <glyph glyph-name="uni0430" unicode="&#x430;" horiz-adv-x="983" 
d="M819 752v-650l131 -10v-31l-229 -61h-25v244q-8 -25 -23.5 -55t-45 -69.5t-65.5 -70.5t-89.5 -52.5t-112.5 -21.5q-116 0 -189 75t-73 196q0 51 15.5 97t39 80.5t63 66t74 53t86.5 41.5t87 31.5t88.5 23.5t77.5 16.5t67 12.5v61q0 142 -62 210.5t-167 68.5t-177.5 -67
t-72.5 -173q0 -60 23 -119h-41l-86 250q21 29 51 55t76.5 53t113 43.5t144.5 16.5q161 0 241 -76t80 -239zM406 51q53 0 102 26t85 68t61 83t42 83v316q-10 -2 -41.5 -9.5t-53 -12.5t-58.5 -15.5t-63.5 -21t-61.5 -27.5t-59.5 -35t-50.5 -43.5t-42 -54t-26.5 -65
t-10.5 -77.5q0 -86 45 -150.5t132 -64.5z" />
    <glyph glyph-name="uni0431" unicode="&#x431;" horiz-adv-x="1126" 
d="M582 1057q95 0 174.5 -30.5t133.5 -82t91.5 -121.5t54.5 -148t17 -163q0 -99 -31.5 -193.5t-88.5 -171t-145 -123.5t-192 -47q-165 0 -280.5 81.5t-170.5 222.5t-55 331q0 134 28 257t90 237t154 204.5t226 158.5t299 100q53 10 79 26.5t35 42.5h25q-6 -90 -48 -140.5
t-136 -70.5q-223 -42 -321 -79.5t-159 -112.5q-86 -107 -122 -348q61 81 149 125.5t193 44.5zM600 45q96 0 172 67t115 173.5t39 230.5q0 132 -43.5 239t-128.5 171.5t-197 64.5q-104 0 -189.5 -50.5t-136.5 -137.5q-8 -76 -8 -185q0 -90 12.5 -171t41.5 -155.5t71.5 -128.5
t107 -86t144.5 -32z" />
    <glyph glyph-name="uni0432" unicode="&#x432;" horiz-adv-x="983" 
d="M659 545q126 -14 189 -85t63 -173q0 -133 -101.5 -210t-285.5 -77h-477v23l133 40v910l-133 41v22h451q185 0 267.5 -71t82.5 -183q0 -80 -49 -143.5t-140 -93.5zM731 776q0 203 -254 203h-174v-414h215q102 0 157.5 59t55.5 152zM303 57h203q137 0 207.5 61t70.5 171
q0 102 -62.5 160.5t-182.5 58.5h-236v-451z" />
    <glyph glyph-name="uni0433" unicode="&#x433;" horiz-adv-x="829" 
d="M748 1036l57 -307h-27l-125 250h-350v-916l137 -40v-23h-393v23l133 40v910l-133 41v22h701z" />
    <glyph glyph-name="uni0434" unicode="&#x434;" horiz-adv-x="1062" 
d="M862 57h133l58 -317h-27l-129 260h-758l-129 -260h-26l57 317h100q66 126 100.5 346.5t53.5 569.5l-143 41v22h843v-22l-133 -41v-916zM219 57h520v922h-377q-26 -374 -56 -585.5t-87 -336.5z" />
    <glyph glyph-name="uni0435" unicode="&#x435;" horiz-adv-x="1026" 
d="M541 -23q-109 0 -199 45.5t-147.5 121.5t-89 172.5t-31.5 201.5q0 149 60.5 275t168.5 200t240 74q172 0 280.5 -120t108.5 -322v-43h-742v-17q0 -221 114 -370.5t286 -149.5q121 0 216.5 80.5t160.5 234.5h34q-54 -172 -171.5 -277.5t-288.5 -105.5zM199 647h604
q0 159 -72.5 254.5t-198.5 95.5q-133 0 -224 -99t-109 -251z" />
    <glyph glyph-name="uni0436" unicode="&#x436;" horiz-adv-x="1531" 
d="M274 961l396 -431l-406 -475l150 -32v-23h-420v23l123 34l436 512l-371 404l-145 41v22h403v-22zM961 1014l-134 -41v-910l127 -40v-23h-374v23l125 40v910l-134 41v22h390v-22zM981 582l446 -525l111 -34v-23h-420v23l152 32l-406 475l393 431l-163 53v22h399v-22
l-156 -41z" />
    <glyph glyph-name="uni0437" unicode="&#x437;" horiz-adv-x="890" 
d="M424 29q130 0 199 69.5t69 190.5q0 104 -68 161.5t-210 57.5h-74v57h74q118 0 178.5 59.5t60.5 166.5q0 108 -62.5 166.5t-166.5 58.5q-110 0 -178 -57.5t-68 -147.5q0 -63 39 -139h-37l-104 243q52 64 141.5 108t212.5 44q153 0 246.5 -73t93.5 -201q0 -90 -54.5 -155.5
t-158.5 -92.5q126 -20 194 -86.5t68 -171.5q0 -143 -104.5 -226.5t-288.5 -83.5q-142 0 -237.5 48.5t-149.5 115.5l119 281h35q-43 -108 -43 -172q0 -97 68 -159t206 -62z" />
    <glyph glyph-name="uni0438" unicode="&#x438;" horiz-adv-x="1112" 
d="M1065 1036v-22l-133 -41v-910l133 -40v-23h-381v23l125 40v734l-506 -656v-78l127 -40v-23h-383v23l133 40v910l-133 41v22h383v-22l-127 -41v-744l506 658v86l-125 41v22h381z" />
    <glyph glyph-name="uni0439" unicode="&#x439;" horiz-adv-x="1112" 
d="M555 1182q-150 0 -222 93.5t-75 256.5h107q0 -56 4 -98t16 -83t33 -67t55.5 -41.5t81.5 -15.5t81.5 15.5t55.5 41.5t33 67t16 83t4 98h107q-3 -163 -75 -256.5t-222 -93.5zM1065 1036v-22l-133 -41v-910l133 -40v-23h-381v23l125 40v734l-506 -656v-78l127 -40v-23h-383
v23l133 40v910l-133 41v22h383v-22l-127 -41v-744l506 658v86l-125 41v22h381z" />
    <glyph glyph-name="uni043A" unicode="&#x43a;" horiz-adv-x="1013" 
d="M436 1014l-133 -41v-910l125 -40v-23h-381v23l133 40v910l-133 41v22h389v-22zM440 582l478 -525l110 -34v-23h-418v23l150 32l-436 475l424 431l-164 53v22h399v-22l-154 -41z" />
    <glyph glyph-name="uni043B" unicode="&#x43b;" horiz-adv-x="1040" 
d="M993 1036v-22l-133 -41v-910l133 -40v-23h-383v23l127 40v916h-336q-13 -185 -25 -311.5t-28.5 -248t-36 -196.5t-46.5 -133.5t-62 -84t-80 -25.5q-36 0 -58 16t-30 35v258h37q0 -103 11.5 -148t45.5 -45q89 0 135.5 201t71.5 676l-143 41v22h800z" />
    <glyph glyph-name="uni043C" unicode="&#x43c;" horiz-adv-x="1347" 
d="M1309 1036v-22l-148 -41v-910l148 -40v-23h-400v23l129 40v781l-360 -844h-62l-358 838v-760l141 -55v-23h-360v23l149 55v895l-149 41v22h262l379 -880l379 880h250z" />
    <glyph glyph-name="uni043D" unicode="&#x43d;" horiz-adv-x="1089" 
d="M1042 1036v-22l-133 -41v-910l133 -40v-23h-383v23l127 40v435h-483v-435l127 -40v-23h-383v23l133 40v910l-133 41v22h383v-22l-127 -41v-416h483v416l-127 41v22h383z" />
    <glyph glyph-name="uni043E" unicode="&#x43e;" horiz-adv-x="1105" 
d="M557 -23q-95 0 -176.5 34t-137 89.5t-95 127.5t-58 147t-18.5 149q0 72 18 146t57.5 145.5t95.5 127.5t139 90t181 34q99 0 180.5 -34t134.5 -88.5t89 -125.5t51.5 -142t15.5 -140q0 -60 -12 -122t-36 -125.5t-63.5 -119t-90.5 -99t-122 -69t-153 -25.5zM584 45
q136 0 228.5 134.5t92.5 328.5q0 128 -41 238t-125 181.5t-196 71.5q-154 0 -253.5 -127t-99.5 -313q0 -130 48 -247t139.5 -192t206.5 -75z" />
    <glyph glyph-name="uni043F" unicode="&#x43f;" horiz-adv-x="1079" 
d="M1032 1036v-22l-133 -41v-910l133 -40v-23h-383v23l127 40v916h-473v-916l127 -40v-23h-383v23l133 40v910l-133 41v22h985z" />
    <glyph glyph-name="uni0440" unicode="&#x440;" horiz-adv-x="1046" 
d="M426 -410h-389v23l133 41v1288l-133 14v29q136 37 185.5 49.5t113.5 22.5t127 10q107 0 195 -34t145.5 -89.5t96.5 -130.5t56 -154.5t17 -162.5q0 -139 -45.5 -256t-138 -191t-214.5 -74q-93 0 -157 39t-125 109v-469l133 -41v-23zM547 49q127 0 213 127.5t86 323.5
q0 104 -27 195.5t-78 162t-132 111.5t-183 41q-50 0 -133 -17v-815q46 -54 115.5 -91.5t138.5 -37.5z" />
    <glyph glyph-name="uni0441" unicode="&#x441;" horiz-adv-x="1007" 
d="M541 -23q-140 0 -248 74t-163.5 196.5t-55.5 270.5q0 149 57 273t169 200t259 76q123 0 214 -49.5t136 -110.5l-125 -350h-36q38 104 38 199q0 115 -61.5 179t-175.5 64q-153 0 -254.5 -113t-101.5 -323q0 -223 110.5 -370.5t265.5 -147.5q135 0 228.5 77.5t160.5 237.5
h35q-54 -171 -167 -277t-285 -106z" />
    <glyph glyph-name="uni0442" unicode="&#x442;" horiz-adv-x="989" 
d="M905 1036l58 -307h-27l-125 250h-258v-916l133 -40v-23h-389v23l133 40v916h-252l-125 -250h-26l57 307h821z" />
    <glyph glyph-name="uni0443" unicode="&#x443;" horiz-adv-x="1091" 
d="M195 -424l-193 215l29 23q148 -136 233 -136q51 0 102.5 54t86.5 125.5t55 146.5l-369 963l-149 47v22h434v-22l-156 -47l316 -826l288 828l-161 45v22h399v-22l-172 -47l-315 -873q-37 -104 -66.5 -173.5t-69 -140t-80 -111.5t-94.5 -67t-118 -26z" />
    <glyph glyph-name="uni0444" unicode="&#x444;" horiz-adv-x="1333" 
d="M1262 535q0 -96 -31.5 -188t-93.5 -173t-167.5 -134.5t-240.5 -62.5v-317l133 -47v-23h-389v23l133 47v317q-252 13 -392 157.5t-140 377.5q0 76 19 150t61 145t102.5 126t150.5 91t199 43v475l-133 17v22l229 57h27v-571q252 -12 392.5 -156.5t140.5 -375.5zM190 553
q2 -212 112.5 -349t303.5 -157v950q-203 -13 -309.5 -134t-106.5 -310zM1143 492q0 211 -111 347.5t-303 155.5v-948q136 10 230.5 71t139 156.5t44.5 217.5z" />
    <glyph glyph-name="uni0445" unicode="&#x445;" horiz-adv-x="1017" 
d="M403 0h-395v23l131 36l307 451l-303 455l-133 49v22h434v-22l-147 -47l235 -351l228 351l-191 47v22h394v-22l-140 -47l-258 -402l342 -504l127 -38v-23h-436v23l156 34l-273 402l-280 -400l202 -36v-23z" />
    <glyph glyph-name="uni0446" unicode="&#x446;" horiz-adv-x="1099" 
d="M899 57h135l56 -317h-25l-131 260h-887v23l133 40v910l-133 41v22h383v-22l-127 -41v-916h473v916l-127 41v22h383v-22l-133 -41v-916z" />
    <glyph glyph-name="uni0447" unicode="&#x447;" horiz-adv-x="1024" 
d="M977 1036v-22l-133 -41v-910l133 -40v-23h-393v23l137 40v431q-143 -66 -293 -66q-85 0 -141 16.5t-86.5 52.5t-42 83t-11.5 118v275l-133 41v22h383v-22l-127 -41v-279q0 -108 44.5 -157.5t142.5 -49.5q137 0 264 58v428l-127 41v22h383z" />
    <glyph glyph-name="uni0448" unicode="&#x448;" horiz-adv-x="1662" 
d="M1616 1036v-22l-133 -41v-910l133 -40v-23h-1569v23l133 40v910l-133 41v22h383v-22l-127 -41v-916h467v916l-129 41v22h379v-22l-127 -41v-916h467v916l-127 41v22h383z" />
    <glyph glyph-name="uni0449" unicode="&#x449;" horiz-adv-x="1683" 
d="M1483 57h133l57 -317h-24l-131 260h-1471v23l133 40v910l-133 41v22h383v-22l-127 -41v-916h467v916l-129 41v22h379v-22l-127 -41v-916h467v916l-127 41v22h383v-22l-133 -41v-916z" />
    <glyph glyph-name="uni044A" unicode="&#x44a;" horiz-adv-x="1091" 
d="M496 616h194q96 0 176 -31.5t133.5 -102t53.5 -169.5q0 -76 -30.5 -137t-82 -98.5t-116 -57.5t-134.5 -20h-450v23l133 40v916h-193l-125 -250h-26l57 307h539v-22l-129 -41v-357zM496 57h174q118 0 186 67.5t68 186.5q0 120 -67.5 184t-186.5 64h-174v-502z" />
    <glyph glyph-name="uni044B" unicode="&#x44b;" horiz-adv-x="1298" 
d="M303 616h195q96 0 176 -31.5t133 -102t53 -169.5q0 -100 -53 -173t-133.5 -106.5t-175.5 -33.5h-451v23l133 40v910l-133 41v22h383v-22l-127 -41v-357zM1251 1036v-22l-133 -41v-910l133 -40v-23h-383v23l127 40v910l-127 41v22h383zM303 57h174q118 0 186 67.5
t68 186.5q0 120 -67.5 184t-186.5 64h-174v-502z" />
    <glyph glyph-name="uni044C" unicode="&#x44c;" horiz-adv-x="899" 
d="M303 616h195q96 0 176 -31.5t133 -102t53 -169.5q0 -100 -53 -173t-133.5 -106.5t-175.5 -33.5h-451v23l133 40v910l-133 41v22h383v-22l-127 -41v-357zM303 57h174q118 0 186 67.5t68 186.5q0 120 -67.5 184t-186.5 64h-174v-502z" />
    <glyph glyph-name="uni044D" unicode="&#x44d;" horiz-adv-x="989" 
d="M426 1067q124 0 220.5 -44.5t154.5 -120t87.5 -168.5t29.5 -197q0 -109 -33.5 -209t-95 -178.5t-158 -125.5t-213.5 -47q-136 0 -229.5 49t-145.5 115l119 281h35q-45 -119 -45 -170q0 -98 66 -160.5t198 -62.5q168 0 267.5 133t102.5 338h-467v57h467
q-11 209 -107.5 334t-256.5 125q-116 0 -186 -57.5t-70 -147.5q0 -56 39 -139h-37l-105 243q52 63 144.5 107.5t218.5 44.5z" />
    <glyph glyph-name="uni044E" unicode="&#x44e;" horiz-adv-x="1523" 
d="M989 1067q97 0 177.5 -34t132 -88.5t87.5 -125.5t51 -142t15 -140q0 -51 -8.5 -104t-26.5 -108t-44.5 -105.5t-65 -95t-85 -77t-108.5 -51.5t-131 -19q-90 0 -167.5 31.5t-131.5 84t-94 120.5t-60 140t-24 145h-203v-435l127 -40v-23h-383v23l133 40v910l-133 41v22h383
v-22l-127 -41v-416h203q5 90 37.5 177t89.5 163t149.5 123t206.5 47zM1010 45q87 0 158.5 61.5t112 167.5t40.5 234t-39.5 238t-121.5 181.5t-191 71.5q-150 0 -247 -127t-97 -313q0 -130 47 -247t137 -192t201 -75z" />
    <glyph glyph-name="uni044F" unicode="&#x44f;" horiz-adv-x="1005" 
d="M958 1036v-22l-133 -41v-910l133 -40v-23h-383v23l127 40v398h-184l-260 -406l135 -32v-23h-397v23l141 51l262 401q-113 22 -182.5 89t-69.5 179q0 138 103.5 215.5t247.5 77.5h460zM518 518h184v461h-184q-113 0 -178.5 -62t-65.5 -172q0 -109 65 -168t179 -59z" />
    <glyph glyph-name="uni0450" unicode="&#x450;" horiz-adv-x="1026" 
d="M561 1139h-26q-124 108 -214 207t-90 141q0 37 43 37t117.5 -93t169.5 -292zM541 -23q-109 0 -199 45.5t-147.5 121.5t-89 172.5t-31.5 201.5q0 149 60.5 275t168.5 200t240 74q172 0 280.5 -120t108.5 -322v-43h-742v-17q0 -221 114 -370.5t286 -149.5q121 0 216.5 80.5
t160.5 234.5h34q-54 -172 -171.5 -277.5t-288.5 -105.5zM199 647h604q0 159 -72.5 254.5t-198.5 95.5q-133 0 -224 -99t-109 -251z" />
    <glyph glyph-name="uni0451" unicode="&#x451;" horiz-adv-x="1026" 
d="M379 1276q-41 0 -66.5 26t-25.5 66t25.5 67t66.5 27q42 0 68 -27t26 -67t-26 -66t-68 -26zM676 1276q-41 0 -66.5 26t-25.5 66t25.5 67t66.5 27q42 0 68 -27t26 -67t-26 -66t-68 -26zM541 -23q-109 0 -199 45.5t-147.5 121.5t-89 172.5t-31.5 201.5q0 149 60.5 275
t168.5 200t240 74q172 0 280.5 -120t108.5 -322v-43h-742v-17q0 -221 114 -370.5t286 -149.5q121 0 216.5 80.5t160.5 234.5h34q-54 -172 -171.5 -277.5t-288.5 -105.5zM199 647h604q0 159 -72.5 254.5t-198.5 95.5q-133 0 -224 -99t-109 -251z" />
    <glyph glyph-name="uni0452" unicode="&#x452;" horiz-adv-x="1038" 
d="M645 1067q121 0 192.5 -74t71.5 -233v-797q0 -187 -47 -264q-35 -62 -97 -92.5t-132 -30.5l-178 213l30 25q148 -156 217 -156q42 0 63 53.5t21 143.5v833q0 166 -48.5 235.5t-153.5 69.5q-93 0 -177 -86.5t-114 -193.5v-650l127 -40v-23h-383v23l133 40v1237h-145v64
h145v178l-133 17v22l229 57h27v-274h264v-64h-264v-485q12 30 29 59t48 65.5t68 63.5t91.5 45.5t115.5 18.5z" />
    <glyph glyph-name="uni0453" unicode="&#x453;" horiz-adv-x="829" 
d="M715 1489q0 -45 -89.5 -143t-215.5 -207h-27q99 202 172.5 293.5t118.5 91.5q20 0 30.5 -9.5t10.5 -25.5zM748 1036l57 -307h-27l-125 250h-350v-916l137 -40v-23h-393v23l133 40v910l-133 41v22h701z" />
    <glyph glyph-name="uni0454" unicode="&#x454;" horiz-adv-x="1007" 
d="M958 360h35q-54 -171 -167 -277t-285 -106q-140 0 -248 74t-163.5 196.5t-55.5 270.5q0 149 57 273t169 200t259 76q123 0 214 -49.5t136 -110.5l-125 -350h-36q38 104 38 199q0 115 -61.5 179t-175.5 64q-153 0 -254.5 -113t-101.5 -323v-16h434v-58h-430
q19 -196 125 -320t247 -124q135 0 228.5 77.5t160.5 237.5z" />
    <glyph glyph-name="uni0455" unicode="&#x455;" horiz-adv-x="868" 
d="M434 -23q-125 0 -216.5 51t-139.5 119l94 267h37q-21 -74 -21 -140q0 -109 63 -170t185 -61q132 0 209.5 61.5t77.5 151.5q0 36 -16 64.5t-40 49t-71.5 41t-90 34.5t-116.5 36q-270 82 -270 305q0 134 88 207.5t227 73.5q108 0 189.5 -42.5t130.5 -102.5l-74 -228h-35
q33 140 -30.5 223.5t-192.5 83.5q-95 0 -164.5 -48t-69.5 -134q0 -73 60.5 -117t200.5 -86l39 -12q47 -14 70 -21.5t62 -23t58.5 -29t45 -36t37.5 -48t21 -61t9 -78.5q0 -160 -100 -245t-257 -85z" />
    <glyph glyph-name="uni0456" unicode="&#x456;" horiz-adv-x="473" 
d="M227 1298q-44 0 -73 29.5t-29 73.5t29 74t73 30t72.5 -29.5t28.5 -74.5q0 -44 -28.5 -73.5t-72.5 -29.5zM436 0h-389v23l133 40v879l-133 14v25l229 55h27v-973l133 -40v-23z" />
    <glyph glyph-name="uni0457" unicode="&#x457;" horiz-adv-x="473" 
d="M96 1298q-42 0 -69 29t-27 74t27 74.5t69 29.5t69.5 -29.5t27.5 -74.5t-27.5 -74t-69.5 -29zM354 1298q-42 0 -69 29t-27 74t27 74.5t69 29.5t68.5 -29.5t26.5 -74.5t-26.5 -74t-68.5 -29zM436 0h-389v23l133 40v879l-133 14v25l229 55h27v-973l133 -40v-23z" />
    <glyph glyph-name="uni0458" unicode="&#x458;" horiz-adv-x="434" 
d="M217 1298q-44 0 -72 29t-28 74q0 46 28 75t72 29q46 0 74 -29t28 -75q0 -45 -28.5 -74t-73.5 -29zM16 -424l-178 213l31 25q148 -156 217 -156q41 0 62.5 54t21.5 143v1087l-133 14v25l229 55h27v-1073q0 -184 -49 -264q-33 -62 -95.5 -92.5t-132.5 -30.5z" />
    <glyph glyph-name="uni0459" unicode="&#x459;" horiz-adv-x="1431" 
d="M838 616h194q56 0 108 -11.5t98.5 -36t80.5 -59.5t54 -85.5t20 -110.5q0 -76 -30.5 -137t-81.5 -98.5t-115 -57.5t-134 -20h-450v23l133 40v916h-314q-13 -185 -25 -311.5t-28.5 -248t-36 -196.5t-46.5 -133.5t-62 -84t-80 -25.5q-36 0 -58 16t-30 35v258h37
q0 -103 11.5 -148t45.5 -45q89 0 135.5 201t71.5 676l-143 41v22h772v-22l-127 -41v-357zM838 57h172q118 0 187 67.5t69 186.5q0 120 -68.5 184t-187.5 64h-172v-502z" />
    <glyph glyph-name="uni045A" unicode="&#x45a;" horiz-adv-x="1486" 
d="M895 586h195q71 0 134.5 -17.5t114.5 -51.5t81 -90.5t30 -127.5q0 -141 -106 -220t-254 -79h-447v23l129 40v463h-469v-463l127 -40v-23h-383v23l133 40v910l-133 41v22h383v-22l-127 -41v-387h469v387l-129 41v22h379v-22l-127 -41v-387zM895 57h174q117 0 185.5 63.5
t68.5 176.5q0 110 -68 169.5t-186 59.5h-174v-469z" />
    <glyph glyph-name="uni045B" unicode="&#x45b;" horiz-adv-x="1079" 
d="M909 760v-697l133 -40v-23h-383v23l127 40v625q0 166 -48.5 235.5t-153.5 69.5q-93 0 -177 -86.5t-114 -193.5v-650l127 -40v-23h-383v23l133 40v1237h-145v64h145v178l-133 17v22l229 57h27v-274h264v-64h-264v-485q12 30 29 59t48 65.5t68 63.5t91.5 45.5t115.5 18.5
q121 0 192.5 -74t71.5 -233z" />
    <glyph glyph-name="uni045C" unicode="&#x45c;" horiz-adv-x="1013" 
d="M799 1489q0 -45 -88.5 -142.5t-214.5 -207.5h-27q97 200 171 292.5t118 92.5q20 0 30.5 -9.5t10.5 -25.5zM436 1014l-133 -41v-910l125 -40v-23h-381v23l133 40v910l-133 41v22h389v-22zM440 582l478 -525l110 -34v-23h-418v23l150 32l-436 475l424 431l-164 53v22h399
v-22l-154 -41z" />
    <glyph glyph-name="uni045D" unicode="&#x45d;" horiz-adv-x="1112" 
d="M616 1139h-26q-123 107 -213 206.5t-90 141.5q0 37 43 37t116 -92.5t170 -292.5zM1065 1036v-22l-133 -41v-910l133 -40v-23h-381v23l125 40v734l-506 -656v-78l127 -40v-23h-383v23l133 40v910l-133 41v22h383v-22l-127 -41v-744l506 658v86l-125 41v22h381z" />
    <glyph glyph-name="uni045E" unicode="&#x45e;" horiz-adv-x="1091" 
d="M565 1227q59 0 98 22.5t58.5 66.5t27 94.5t7.5 121.5h106q-3 -162 -75.5 -256t-221.5 -94q-150 0 -223 93.5t-76 256.5h107q0 -71 7.5 -121t27 -94.5t59 -67t98.5 -22.5zM195 -424l-193 215l29 23q148 -136 233 -136q51 0 102.5 54t86.5 125.5t55 146.5l-369 963l-149 47
v22h434v-22l-156 -47l316 -826l288 828l-161 45v22h399v-22l-172 -47l-315 -873q-37 -104 -66.5 -173.5t-69 -140t-80 -111.5t-94.5 -67t-118 -26z" />
    <glyph glyph-name="uni045F" unicode="&#x45f;" horiz-adv-x="1079" 
d="M1032 1036v-22l-133 -41v-910l133 -40v-23h-424l-55 -293h-25l-55 293h-426v23l133 40v910l-133 41v22h383v-22l-127 -41v-916h473v916l-127 41v22h383z" />
    <glyph glyph-name="uni0490" unicode="&#x490;" 
d="M1016 1823l-62 -338h-581v-1399l159 -63v-23h-454v23l153 61v1393l-153 57v22h780l133 267h25z" />
    <glyph glyph-name="uni0491" unicode="&#x491;" horiz-adv-x="800" 
d="M788 1286l-57 -307h-428v-916l137 -40v-23h-393v23l133 40v910l-133 41v22h592l125 250h24z" />
    <glyph glyph-name="uni0492" unicode="&#x492;" horiz-adv-x="1060" 
d="M78 1556h895l71 -317h-24l-143 248h-502v-678h284v-64h-284v-659l174 -63v-23h-471v23l153 61v661h-147v64h147v661l-153 64v22z" />
    <glyph glyph-name="uni0493" unicode="&#x493;" horiz-adv-x="831" 
d="M750 1036l57 -307h-27l-125 250h-350v-426h299v-59h-299v-431l137 -40v-23h-393v23l133 40v431h-131v59h131v420l-133 41v22h701z" />
    <glyph glyph-name="uni0496" unicode="&#x496;" horiz-adv-x="1769" 
d="M1630 72h135l62 -338h-27l-164 266h-262v23l96 51l-505 674v-664l147 -61v-23h-436v23l147 61v664l-506 -674l97 -51v-23h-445v23l197 51l573 760l-499 651l-193 49v22h404v-22l-136 -47l508 -670v653l-153 64v22h448v-22l-153 -64v-653l508 670l-134 47v22h400v-22
l-197 -49l-493 -643z" />
    <glyph glyph-name="uni0497" unicode="&#x497;" horiz-adv-x="1552" 
d="M274 961l396 -431l-406 -475l150 -32v-23h-420v23l123 34l436 512l-371 404l-145 41v22h403v-22zM961 1014l-134 -41v-910l127 -40v-23h-374v23l125 40v910l-134 41v22h390v-22zM1430 57h120l56 -317h-25l-131 260h-332v23l152 32l-406 475l393 431l-163 53v22h399v-22
l-156 -41l-356 -391z" />
    <glyph glyph-name="uni049A" unicode="&#x49a;" horiz-adv-x="1204" 
d="M1272 -266h-27l-164 266h-299v23l99 51l-508 653v-643l153 -61v-23h-448v23l153 61v1386l-153 64v22h448v-22l-153 -64v-634l514 651l-135 47v22h399v-22l-201 -49l-491 -631l598 -782h153z" />
    <glyph glyph-name="uni049B" unicode="&#x49b;" horiz-adv-x="1028" 
d="M436 1014l-133 -41v-910l125 -40v-23h-381v23l133 40v910l-133 41v22h389v-22zM920 57h112l58 -317h-27l-129 260h-324v23l150 32l-436 475l424 431l-164 53v22h399v-22l-154 -41l-389 -391z" />
    <glyph glyph-name="uni04A2" unicode="&#x4a2;" horiz-adv-x="1591" 
d="M1305 72h186l61 -338h-26l-164 266h-352v23l153 61v700h-790v-700l153 -61v-23h-448v23l153 61v1386l-153 64v22h448v-22l-153 -64v-616h790v616l-153 64v22h448v-22l-153 -64v-1398z" />
    <glyph glyph-name="uni04A3" unicode="&#x4a3;" horiz-adv-x="1110" 
d="M909 57h135l56 -317h-25l-131 260h-285v23l127 40v435h-483v-435l127 -40v-23h-383v23l133 40v910l-133 41v22h383v-22l-127 -41v-416h483v416l-127 41v22h383v-22l-133 -41v-916z" />
    <glyph glyph-name="uni04AE" unicode="&#x4ae;" horiz-adv-x="1292" 
d="M879 0h-449v23l154 61v491l-482 906l-143 53v22h455v-22l-148 -49l436 -823l414 821l-190 51v22h403v-22l-147 -55l-457 -891v-504l154 -61v-23z" />
    <glyph glyph-name="uni04AF" unicode="&#x4af;" horiz-adv-x="1071" 
d="M686 1014v22h399v-22l-167 -47l-322 -967v-346l133 -41v-23h-389v23l133 41v346l-342 963l-145 51v22h434v-22l-160 -49l309 -885l283 889z" />
    <glyph glyph-name="uni04B0" unicode="&#x4b0;" horiz-adv-x="1294" 
d="M926 1534v22h403v-22l-147 -55l-455 -891h231v-64h-231v-440l154 -61v-23h-451v23l154 61v440h-234v64h228l-476 893l-143 53v22h455v-22l-148 -49l436 -823l414 821z" />
    <glyph glyph-name="uni04B1" unicode="&#x4b1;" horiz-adv-x="1071" 
d="M686 1014v22h399v-22l-167 -47l-322 -967h231v-57h-231v-289l133 -41v-23h-389v23l133 41v289h-229v57h229l-342 963l-145 51v22h434v-22l-160 -49l309 -885l283 889z" />
    <glyph glyph-name="uni04B2" unicode="&#x4b2;" horiz-adv-x="1310" 
d="M1184 72h143l62 -338h-25l-164 266h-330v23l150 53l-404 635l-395 -635l189 -53v-23h-402v23l144 53l430 690l-447 704l-145 64v22h444v-22l-145 -59l379 -594l360 594l-184 59v22h399v-22l-149 -64l-392 -643z" />
    <glyph glyph-name="uni04B3" unicode="&#x4b3;" horiz-adv-x="1032" 
d="M909 57h125l58 -317h-27l-129 260h-338v23l156 34l-273 402l-280 -400l202 -36v-23h-395v23l131 36l307 451l-303 455l-133 49v22h434v-22l-147 -47l235 -351l228 351l-191 47v22h394v-22l-140 -47l-258 -402z" />
    <glyph glyph-name="uni04B6" unicode="&#x4b6;" horiz-adv-x="1447" 
d="M1163 72h185l61 -338h-25l-163 266h-359v23l158 61v668q-37 -19 -86.5 -38t-148 -40t-195.5 -21q-223 0 -323.5 89t-100.5 286v442l-154 64v22h449v-22l-154 -64v-442q0 -158 74 -228.5t237 -70.5q198 0 402 78v663l-154 64v22h451v-22l-154 -64v-1398z" />
    <glyph glyph-name="uni04B7" unicode="&#x4b7;" horiz-adv-x="1044" 
d="M844 57h133l57 -317h-26l-129 260h-295v23l137 40v431q-143 -66 -293 -66q-85 0 -141 16.5t-86.5 52.5t-42 83t-11.5 118v275l-133 41v22h383v-22l-127 -41v-279q0 -108 44.5 -157.5t142.5 -49.5q137 0 264 58v428l-127 41v22h383v-22l-133 -41v-916z" />
    <glyph glyph-name="uni04BA" unicode="&#x4ba;" horiz-adv-x="1392" 
d="M1229 528v-442l153 -63v-23h-450v23l153 63v442q0 158 -74 228.5t-237 70.5q-200 0 -401 -77v-664l153 -63v-23h-448v23l153 63v1387l-153 61v22h454v-22l-159 -61v-668q36 19 86 37.5t148.5 39.5t195.5 21q223 0 324.5 -89.5t101.5 -285.5z" />
    <glyph glyph-name="uni04BB" unicode="&#x4bb;" horiz-adv-x="1079" 
d="M420 0h-383v23l133 40v1479l-133 17v22l229 57h27v-823q12 30 29 59t48 65.5t68 63.5t91.5 45.5t115.5 18.5q121 0 192.5 -74t71.5 -233v-697l133 -40v-23h-383v23l127 40v625q0 166 -48.5 235.5t-153.5 69.5q-93 0 -177 -86.5t-114 -193.5v-650l127 -40v-23z" />
    <glyph glyph-name="uni04C0" unicode="&#x4c0;" horiz-adv-x="604" 
d="M526 0h-448v23l153 61v1386l-153 64v22h448v-22l-153 -64v-1386l153 -61v-23z" />
    <glyph glyph-name="uni04CF" unicode="&#x4cf;" horiz-adv-x="462" 
d="M426 0h-389v23l133 40v1479l-133 17v22l229 57h27v-1575l133 -40v-23z" />
    <glyph glyph-name="uni04D8" unicode="&#x4d8;" horiz-adv-x="1591" 
d="M735 1573q226 0 402.5 -99.5t273 -276t96.5 -400.5q0 -184 -60 -340t-162 -260t-236.5 -162t-284.5 -58q-139 0 -265.5 55.5t-219.5 151.5t-148 233.5t-55 293.5q0 41 6 82h1255q-15 348 -186.5 532t-450.5 184q-95 0 -177 -33t-148.5 -98.5t-105 -177.5t-38.5 -258h-38
v455q15 20 57 47t108.5 57.5t167 51t209.5 20.5zM811 53q80 0 151.5 18.5t141.5 66t120.5 121t82 192.5t32.5 272h-1110q6 -155 62 -285.5t140 -212.5t183 -127t197 -45z" />
    <glyph glyph-name="uni04D9" unicode="&#x4d9;" horiz-adv-x="1036" 
d="M498 1055q109 0 199 -45.5t147 -121.5t88 -172.5t31 -201.5q0 -149 -60 -274.5t-167.5 -200t-239.5 -74.5q-172 0 -282 120.5t-110 322.5v43h742v16q0 221 -114 370.5t-286 149.5q-120 0 -215.5 -80.5t-158.5 -234.5h-37q54 172 172 277.5t291 105.5zM838 385h-602
q0 -159 71.5 -254.5t198.5 -95.5q132 0 224.5 99.5t107.5 250.5z" />
    <glyph glyph-name="uni04E2" unicode="&#x4e2;" horiz-adv-x="1540" 
d="M496 1858h548v-89h-548v89zM1464 1556v-22l-153 -64v-1386l153 -61v-23h-450v23l153 61v1133l-794 -1000v-133l153 -61v-23h-448v23l153 61v1386l-153 64v22h448v-22l-153 -64v-1153l794 998v155l-153 64v22h450z" />
    <glyph glyph-name="uni04E3" unicode="&#x4e3;" horiz-adv-x="1112" 
d="M283 1325h548v-88h-548v88zM1065 1036v-22l-133 -41v-910l133 -40v-23h-381v23l125 40v734l-506 -656v-78l127 -40v-23h-383v23l133 40v910l-133 41v22h383v-22l-127 -41v-744l506 658v86l-125 41v22h381z" />
    <glyph glyph-name="uni04E8" unicode="&#x4e8;" horiz-adv-x="1644" 
d="M831 1573q145 0 278 -58.5t233 -159.5t159.5 -247t59.5 -311q0 -172 -64.5 -326.5t-171 -261.5t-245.5 -169.5t-285 -62.5q-143 0 -273.5 60t-227 164t-153.5 253t-57 318q0 176 62 328t165.5 254.5t238.5 160.5t281 58zM793 1497q-73 0 -145 -18.5t-147 -65.5
t-131.5 -117.5t-93.5 -184.5t-38 -257h1148q-16 156 -71 280.5t-136 202.5t-179.5 119t-206.5 41zM848 53q77 0 151 21.5t146 73t126.5 127t88 193t33.5 261.5q0 37 -2 55h-1151q7 -139 47.5 -259.5t101.5 -205.5t138 -146t159 -90.5t162 -29.5z" />
    <glyph glyph-name="uni04E9" unicode="&#x4e9;" horiz-adv-x="1105" 
d="M563 1067q99 0 180.5 -34t134.5 -88.5t89 -125.5t51.5 -142t15.5 -140q0 -60 -12 -122t-36 -125.5t-63.5 -119t-90.5 -99t-122 -69t-153 -25.5q-95 0 -176.5 34t-137 89.5t-95 127.5t-58 147t-18.5 149q0 72 18 146t57.5 145.5t95.5 127.5t139 90t181 34zM543 999
q-154 0 -253.5 -127t-99.5 -313v-6h713q-5 89 -31.5 168.5t-71 142t-111 99t-146.5 36.5zM584 45q133 0 224.5 128t96.5 316h-710q13 -119 62.5 -218.5t135.5 -162.5t191 -63z" />
    <glyph glyph-name="uni04EE" unicode="&#x4ee;" horiz-adv-x="1304" 
d="M449 1858h548v-89h-548v89zM942 1534v22h410v-22l-152 -55l-477 -1108q-50 -116 -85.5 -182.5t-79 -118t-92 -71t-116.5 -19.5q-135 0 -200 92l120 319h31q-37 -109 -37 -184q0 -61 32 -95t85 -34q80 0 139 56.5t123 197.5l-520 1149l-148 53v22h455v-22l-143 -47
l432 -981l414 977z" />
    <glyph glyph-name="uni04EF" unicode="&#x4ef;" horiz-adv-x="1091" 
d="M838 1237h-547v88h547v-88zM195 -424l-193 215l29 23q148 -136 233 -136q51 0 102.5 54t86.5 125.5t55 146.5l-369 963l-149 47v22h434v-22l-156 -47l316 -826l288 828l-161 45v22h399v-22l-172 -47l-315 -873q-37 -104 -66.5 -173.5t-69 -140t-80 -111.5t-94.5 -67
t-118 -26z" />
    <glyph glyph-name="Wgrave" unicode="&#x1e80;" horiz-adv-x="2152" 
d="M1141 1659h-27q-121 102 -213 203.5t-92 144.5q0 37 43 37t117.5 -93t171.5 -292zM647 0h-63l-478 1464l-157 70v22h454v-22l-133 -64l389 -1216l406 1302h98l445 -1302l368 1216l-180 64v22h399v-22l-151 -64l-451 -1470h-63l-459 1356z" />
    <glyph glyph-name="wgrave" unicode="&#x1e81;" horiz-adv-x="1576" 
d="M846 1139h-27q-123 107 -213 206.5t-90 141.5q0 37 41 37q44 0 118 -92.5t171 -292.5zM526 0h-86l-299 963l-153 51v22h434v-22l-148 -47l244 -803l246 872h110l256 -872l230 805l-162 45v22h399v-22l-176 -47l-280 -967h-88l-269 907z" />
    <glyph glyph-name="Wacute" unicode="&#x1e82;" horiz-adv-x="2152" 
d="M1090 1659h-27q97 201 171 293t120 92q20 0 30.5 -9.5t10.5 -25.5q0 -46 -90.5 -145.5t-214.5 -204.5zM647 0h-63l-478 1464l-157 70v22h454v-22l-133 -64l389 -1216l406 1302h98l445 -1302l368 1216l-180 64v22h399v-22l-151 -64l-451 -1470h-63l-459 1356z" />
    <glyph glyph-name="wacute" unicode="&#x1e83;" horiz-adv-x="1576" 
d="M797 1139h-27q98 202 170.5 293.5t118.5 91.5q20 0 30.5 -9.5t10.5 -25.5q0 -45 -88.5 -142.5t-214.5 -207.5zM526 0h-86l-299 963l-153 51v22h434v-22l-148 -47l244 -803l246 872h110l256 -872l230 805l-162 45v22h399v-22l-176 -47l-280 -967h-88l-269 907z" />
    <glyph glyph-name="Wdieresis" unicode="&#x1e84;" horiz-adv-x="2152" 
d="M958 1718q-41 0 -66.5 26t-25.5 66t25.5 67.5t66.5 27.5q42 0 68.5 -27.5t26.5 -67.5t-26.5 -66t-68.5 -26zM1255 1718q-41 0 -66.5 26t-25.5 66t25.5 67.5t66.5 27.5q42 0 68.5 -27.5t26.5 -67.5t-26.5 -66t-68.5 -26zM647 0h-63l-478 1464l-157 70v22h454v-22l-133 -64
l389 -1216l406 1302h98l445 -1302l368 1216l-180 64v22h399v-22l-151 -64l-451 -1470h-63l-459 1356z" />
    <glyph glyph-name="wdieresis" unicode="&#x1e85;" horiz-adv-x="1576" 
d="M664 1276q-41 0 -67 26t-26 66t26 67t67 27t66.5 -27t25.5 -67t-25.5 -66t-66.5 -26zM961 1276q-41 0 -67 26t-26 66t26 67t67 27t66.5 -27t25.5 -67t-25.5 -66t-66.5 -26zM526 0h-86l-299 963l-153 51v22h434v-22l-148 -47l244 -803l246 872h110l256 -872l230 805
l-162 45v22h399v-22l-176 -47l-280 -967h-88l-269 907z" />
    <glyph glyph-name="uni1E9E" unicode="&#x1e9e;" horiz-adv-x="1306" 
d="M948 -23q-109 0 -199.5 52t-134.5 118l95 267h41q-25 -77 -25 -140q0 -110 59 -170.5t166 -60.5q47 0 88.5 11t77 34.5t56 65.5t20.5 98q0 51 -16.5 91.5t-48.5 68.5t-61.5 45t-70.5 35q-124 55 -169 88q-99 72 -99 186q0 56 22.5 99.5t54.5 73t63.5 60t54 76.5t22.5 105
q0 60 -22 117t-63.5 103.5t-107 74.5t-145.5 28q-130 0 -196 -81t-66 -222v-1200h-276v23l133 40v1119q0 33 1 54.5t8 66.5t20.5 76.5t42 71.5t67.5 64.5t101.5 42t140.5 17.5q107 0 191.5 -29.5t136 -81.5t78 -118t26.5 -142q0 -58 -15.5 -105t-39 -75.5t-51 -55t-51 -45.5
t-39 -45.5t-15.5 -56.5q0 -20 6 -38t21 -33.5t28.5 -26.5t41 -25t45 -22.5t53.5 -24t55 -24.5q117 -53 170 -119.5t53 -188.5q0 -92 -29.5 -161.5t-79 -107t-104.5 -55.5t-115 -18z" />
    <glyph glyph-name="Ygrave" unicode="&#x1ef2;" horiz-adv-x="1292" 
d="M694 1659h-26q-121 103 -213.5 204t-92.5 144q0 37 44 37q43 0 117 -93t171 -292zM879 0h-449v23l154 61v491l-482 906l-143 53v22h455v-22l-148 -49l436 -823l414 821l-190 51v22h403v-22l-147 -55l-457 -891v-504l154 -61v-23z" />
    <glyph glyph-name="ygrave" unicode="&#x1ef3;" horiz-adv-x="1091" 
d="M586 1139h-27q-123 106 -214 206t-91 142q0 37 43 37q44 0 118 -92.5t171 -292.5zM195 -424l-193 215l29 23q148 -136 233 -136q51 0 102.5 54t86.5 125.5t55 146.5l-369 963l-149 47v22h434v-22l-156 -47l316 -826l288 828l-161 45v22h399v-22l-172 -47l-315 -873
q-37 -104 -66.5 -173.5t-69 -140t-80 -111.5t-94.5 -67t-118 -26z" />
    <glyph glyph-name="uni2009" unicode="&#x2009;" horiz-adv-x="442" 
 />
    <glyph glyph-name="endash" unicode="&#x2013;" horiz-adv-x="882" 
d="M803 528h-723v95h723v-95z" />
    <glyph glyph-name="emdash" unicode="&#x2014;" horiz-adv-x="1292" 
d="M1212 528h-1132v95h1132v-95z" />
    <glyph glyph-name="quoteleft" unicode="&#x2018;" horiz-adv-x="342" 
d="M168 1065q-42 0 -68 28.5t-26 82.5q0 78 47 194t129 201h26q-94 -114 -94 -211q0 -49 21.5 -110t54.5 -97q0 -43 -26.5 -65.5t-63.5 -22.5z" />
    <glyph glyph-name="quoteright" unicode="&#x2019;" horiz-adv-x="350" 
d="M109 1065h-25q94 118 94 211q0 48 -22 109.5t-54 97.5q0 43 26.5 65.5t64.5 22.5q42 0 68 -28.5t26 -82.5q0 -78 -47.5 -194t-130.5 -201z" />
    <glyph glyph-name="quotesinglbase" unicode="&#x201a;" horiz-adv-x="352" 
d="M72 -305h-21q101 132 101 225q0 43 -19.5 78.5t-60.5 83.5q0 46 29.5 76t70.5 30q47 0 75.5 -29.5t28.5 -78.5q0 -74 -54 -178t-150 -207z" />
    <glyph glyph-name="quotedblleft" unicode="&#x201c;" horiz-adv-x="587" 
d="M168 1065q-42 0 -68 28.5t-26 82.5q0 78 47 194t129 201h26q-94 -114 -94 -211q0 -49 21.5 -110t54.5 -97q0 -43 -26.5 -65.5t-63.5 -22.5zM412 1065q-42 0 -68.5 29t-26.5 82q0 78 47.5 194t131.5 201h24q-92 -115 -92 -211q0 -49 21.5 -110t52.5 -97q0 -43 -26 -65.5
t-64 -22.5z" />
    <glyph glyph-name="quotedblright" unicode="&#x201d;" horiz-adv-x="610" 
d="M109 1065h-25q94 118 94 211q0 48 -22 109.5t-54 97.5q0 43 26.5 65.5t64.5 22.5q42 0 68 -28.5t26 -82.5q0 -78 -47.5 -194t-130.5 -201zM369 1065h-25q92 115 92 211q0 49 -21.5 110t-52.5 97q0 43 26.5 65.5t64.5 22.5q42 0 68 -28.5t26 -82.5q0 -78 -47.5 -194
t-130.5 -201z" />
    <glyph glyph-name="quotedblbase" unicode="&#x201e;" horiz-adv-x="608" 
d="M78 -330h-27q94 114 94 211q0 49 -21 110t-52 97q0 43 25.5 65.5t62.5 22.5q43 0 68.5 -28t25.5 -82q0 -78 -47 -194.5t-129 -201.5zM352 -330h-24q94 118 94 211q0 48 -22 109.5t-54 97.5q0 43 26 65.5t64 22.5q42 0 68 -28.5t26 -81.5q0 -78 -47.5 -194.5
t-130.5 -201.5z" />
    <glyph glyph-name="dagger" unicode="&#x2020;" horiz-adv-x="1001" 
d="M813 1163l88 170h31v-456h-31l-88 167h-242v-942l154 -71v-31h-449v31l154 71v942h-237l-93 -167h-30v456h30l93 -170h237v353l-154 92v30h449v-30l-154 -92v-353h242z" />
    <glyph glyph-name="daggerdbl" unicode="&#x2021;" horiz-adv-x="974" 
d="M713 958h-451v31l164 55v205h-178l-76 -180h-31v459h31l76 -180h178v184l-164 76v30h451v-30l-164 -76v-184h182l72 180h31v-459h-31l-72 180h-182v-205l164 -55v-31zM713 0h-451v31l164 55v205h-178l-76 -178h-31v456h31l76 -178h178v182l-164 76v31h451v-31l-164 -76
v-182h182l72 178h31v-456h-31l-72 178h-182v-205l164 -55v-31z" />
    <glyph glyph-name="bullet" unicode="&#x2022;" horiz-adv-x="653" 
d="M328 375q-73 0 -119.5 46t-46.5 116t46.5 117.5t119.5 47.5q71 0 117.5 -47.5t46.5 -117.5q0 -69 -46 -115.5t-118 -46.5z" />
    <glyph glyph-name="ellipsis" unicode="&#x2026;" horiz-adv-x="1036" 
d="M188 -23q-47 0 -76.5 30t-29.5 75t29.5 75.5t76.5 30.5t77 -30.5t30 -75.5t-30 -75t-77 -30zM518 -23q-47 0 -76.5 30t-29.5 75t29.5 75.5t76.5 30.5t77 -30.5t30 -75.5t-30 -75t-77 -30zM848 -23q-47 0 -77 30t-30 75t30 75.5t77 30.5t76.5 -30.5t29.5 -75.5t-29.5 -75
t-76.5 -30z" />
    <glyph glyph-name="perthousand" unicode="&#x2030;" horiz-adv-x="2537" 
d="M365 815q-77 0 -137.5 35t-97 93.5t-55 128t-18.5 145.5q0 109 36.5 204.5t112.5 159.5t177 64q77 0 139.5 -37.5t100 -98.5t57.5 -132.5t20 -145.5q0 -105 -38 -198.5t-116 -155.5t-181 -62zM387 858q86 0 144.5 90.5t58.5 249.5q0 171 -65 288.5t-163 117.5
q-85 0 -144.5 -98t-59.5 -261q0 -165 65 -276t164 -111zM383 0h-76l1082 1556h79zM1417 -12q-76 0 -136.5 35t-96.5 93t-55 128t-19 145q0 109 36.5 204.5t112.5 159.5t177 64q77 0 139.5 -37.5t100 -98.5t57.5 -132.5t20 -145.5q0 -78 -22.5 -151.5t-64 -132.5t-106.5 -95
t-143 -36zM2148 -12q-77 0 -137.5 35t-97 93t-55.5 128t-19 145q0 109 36.5 204.5t113 159.5t178.5 64q62 0 114.5 -25t88.5 -66t62 -95t38 -112t12 -116q0 -105 -38 -198.5t-116 -155t-180 -61.5zM1440 31q87 0 146 90.5t59 249.5q0 171 -65.5 288t-162.5 117
q-87 0 -147 -97.5t-60 -260.5q0 -164 66 -275.5t164 -111.5zM2171 31q86 0 144.5 90.5t58.5 249.5q0 171 -65 288t-163 117q-85 0 -144.5 -97.5t-59.5 -260.5q0 -165 65 -276t164 -111z" />
    <glyph glyph-name="guilsinglleft" unicode="&#x2039;" horiz-adv-x="600" 
d="M508 145h-39l-393 377v21l393 375h39q-153 -187 -328 -386q161 -184 328 -387z" />
    <glyph glyph-name="guilsinglright" unicode="&#x203a;" horiz-adv-x="600" 
d="M131 145h-37q150 186 326 387q-186 212 -326 386h37l393 -375v-21z" />
    <glyph glyph-name="fraction" unicode="&#x2044;" horiz-adv-x="378" 
d="M-315 0h-76l1081 1556h80z" />
    <glyph glyph-name="Euro" unicode="&#x20ac;" horiz-adv-x="1304" 
d="M821 1509q-164 0 -270.5 -151.5t-124.5 -460.5h377v-80h-379v-26q0 -41 4 -115h375v-80h-369q28 -273 134 -414t259 -141q132 0 215.5 106t83.5 314h45v-307q-122 -177 -342 -177q-118 0 -213 52.5t-156.5 143t-99.5 196t-55 227.5h-225v80h215q-4 78 -4 112v29h-211v80
h215q8 103 30.5 196.5t65.5 182.5t101.5 154t144.5 104t190 39q223 0 344 -176v-307h-45q0 209 -83.5 314t-221.5 105z" />
    <glyph glyph-name="uni20B4" unicode="&#x20b4;" horiz-adv-x="1265" 
d="M1012 963h157v-80h-1081v80h746q43 43 65.5 113.5t22.5 146.5q0 131 -78.5 207.5t-214.5 76.5q-79 0 -145.5 -21.5t-114 -75t-47.5 -132.5q0 -57 51 -167q4 -9 6 -13h-47l-142 309q184 166 439 166q207 0 325.5 -98t118.5 -271q0 -147 -61 -241zM236 668h-148v80h1081
v-80h-739q-135 -96 -135 -277q0 -165 100 -258.5t252 -93.5q52 0 102.5 10.5t102 36.5t90 65t62.5 102t24 142q0 22 -4 47.5t-7 39t-13.5 50.5t-12.5 46h47l117 -361q-35 -47 -80.5 -86.5t-107.5 -76t-145.5 -57t-178.5 -20.5q-227 0 -358 114.5t-131 324.5q0 147 82 252z
" />
    <glyph glyph-name="uni20B8" unicode="&#x20b8;" horiz-adv-x="1404" 
d="M123 1477v79h1157v-79h-1157zM928 0h-451v23l154 61v1182h-398l-153 -248h-29l72 317h1157l72 -317h-27l-154 248h-397v-1182l154 -61v-23z" />
    <glyph glyph-name="uni20BD" unicode="&#x20bd;" horiz-adv-x="1259" 
d="M672 731h-236v-139h594v-82h-594v-426l154 -61v-23h-449v23l154 61v426h-201v82h201v139h-201v82h201v657l-154 64v22h549q97 0 184.5 -23.5t159 -70t114 -123t42.5 -174.5q0 -100 -43.5 -183.5t-116.5 -137.5t-165.5 -83.5t-192.5 -29.5zM655 1485h-219v-682h219
q181 0 284 94.5t103 267.5q0 167 -103 243.5t-284 76.5z" />
    <glyph glyph-name="uni2116" unicode="&#x2116;" horiz-adv-x="2207" 
d="M1747 743q-71 0 -130.5 27t-99 69.5t-67.5 97.5t-40.5 109.5t-12.5 106.5q0 73 24 146t68 135t116 100.5t160 38.5t159 -39t113.5 -100t64.5 -130.5t22 -136.5q0 -54 -15 -111.5t-47 -113.5t-75.5 -100.5t-106 -71.5t-133.5 -27zM485 0h-399v23l154 61v1386l-154 64v22
h252l764 -1218v1132l-154 64v22h400v-22l-154 -64v-1470h-57l-803 1290v-1206l151 -61v-23zM1769 786q97 0 162.5 101.5t65.5 249.5q0 104 -30 193t-88.5 145.5t-133.5 56.5q-98 0 -165 -98t-67 -250q0 -99 30.5 -189t90 -149.5t135.5 -59.5zM2097 487h-674v70h674v-70z" />
    <glyph glyph-name="trademark" unicode="&#x2122;" horiz-adv-x="1382" 
d="M401 948h-176v17l58 30v523h-148l-59 -84h-19l27 122h455l28 -122h-18l-60 84h-149v-523l61 -30v-17zM809 948h-174v15l57 32v516l-51 27v18h125l203 -505l196 505h101v-18l-49 -27v-516l55 -32v-15h-176v15l63 32v451l-190 -498h-29l-190 477v-430l59 -32v-15z" />
    <glyph glyph-name="oneeighth" unicode="&#x215b;" horiz-adv-x="1695" 
d="M420 827h-275v13l93 34v680l-181 -202v28l172 256h185v-14l-88 -35v-713l94 -34v-13zM221 0h-76l1082 1556h80zM1333 -12q-128 0 -206 60t-78 159q0 84 51 146t137 81q-71 14 -114.5 63t-43.5 115q0 92 71.5 148.5t188.5 56.5q114 0 184 -54t70 -142q0 -57 -43.5 -108
t-115.5 -77h-13q97 -14 156 -72.5t59 -144.5q0 -103 -83.5 -167t-219.5 -64zM1339 453q69 0 111.5 41.5t42.5 109.5q0 79 -47.5 127.5t-124.5 48.5q-69 0 -110.5 -43.5t-41.5 -115.5q0 -75 47 -121.5t123 -46.5zM1350 27q85 0 135.5 50.5t50.5 133.5q0 89 -56 145t-147 56
q-87 0 -140.5 -51.5t-53.5 -135.5q0 -89 58 -143.5t153 -54.5z" />
    <glyph glyph-name="threeeighths" unicode="&#x215c;" horiz-adv-x="1875" 
d="M319 815q-91 0 -166.5 35.5t-95.5 93.5l37 168h39q-12 -56 -12 -108q0 -54 34 -91t79 -51t94 -14q100 0 156.5 62t56.5 161q0 76 -39.5 118t-114.5 42q-25 0 -69.5 -12.5t-73.5 -30.5v45q122 47 180.5 104.5t58.5 130.5q0 60 -41.5 98t-115.5 38q-71 0 -120.5 -38.5
t-49.5 -105.5q0 -44 20 -131h-35l-61 170q37 56 104 101t152 45q99 0 170.5 -43t71.5 -123q0 -63 -54.5 -121t-154.5 -101q104 15 185 -33.5t81 -150.5q0 -110 -91 -184t-225 -74zM406 0h-78l1081 1556h82zM1516 -12q-128 0 -206.5 60t-78.5 159q0 84 51 146t137 81
q-70 13 -113.5 62.5t-43.5 115.5q0 92 72 148.5t190 56.5q114 0 183 -54t69 -142q0 -57 -44 -108t-116 -77h-12q97 -14 156 -72.5t59 -144.5q0 -103 -83.5 -167t-219.5 -64zM1522 453q69 0 112 42t43 109q0 79 -48 127.5t-126 48.5q-69 0 -110 -43.5t-41 -115.5
q0 -75 47 -121.5t123 -46.5zM1532 27q85 0 136.5 50.5t51.5 133.5q0 90 -56 145.5t-148 55.5q-88 0 -141.5 -52t-53.5 -135q0 -89 58 -143.5t153 -54.5z" />
    <glyph glyph-name="fiveeighths" unicode="&#x215d;" horiz-adv-x="2004" 
d="M403 817q-241 0 -356 275h35q30 -56 57 -94.5t62.5 -72.5t80 -50.5t97.5 -16.5q118 0 193 73t75 187q0 94 -54.5 155.5t-146.5 61.5q-72 0 -129.5 -44.5t-83.5 -135.5h-88l82 426l-82 41v14h498l41 -170h-22l-95 136h-250l-71 -345q36 54 98.5 86.5t134.5 32.5
q112 0 192.5 -73t80.5 -187q0 -127 -102.5 -213t-246.5 -86zM520 0h-78l1082 1556h82zM1630 -12q-128 0 -206 60t-78 159q0 84 51 146t137 81q-71 14 -114.5 63t-43.5 115q0 92 72 148.5t190 56.5q114 0 183 -54t69 -142q0 -57 -43.5 -108t-115.5 -77h-13q97 -14 156 -72.5
t59 -144.5q0 -103 -83.5 -167t-219.5 -64zM1636 453q69 0 112.5 42t43.5 109q0 79 -48 127.5t-126 48.5q-69 0 -110.5 -43.5t-41.5 -115.5q0 -75 47 -121.5t123 -46.5zM1647 27q85 0 136.5 50.5t51.5 133.5q0 90 -56.5 145.5t-148.5 55.5q-87 0 -140.5 -51.5t-53.5 -135.5
q0 -89 58 -143.5t153 -54.5z" />
    <glyph glyph-name="seveneighths" unicode="&#x215e;" horiz-adv-x="1742" 
d="M240 827h-84l139 394h-152v34h164l135 347h-280l-82 -136h-25l41 170h504v-14l-78 -41l-125 -319l101 -15v-26h-117zM268 0h-78l1082 1556h82zM1378 -12q-128 0 -206 60t-78 159q0 84 51 146t137 81q-71 14 -114.5 63t-43.5 115q0 92 72 148.5t190 56.5q113 0 182.5 -54
t69.5 -142q0 -57 -43.5 -108t-115.5 -77h-13q97 -14 156 -72.5t59 -144.5q0 -103 -83.5 -167t-219.5 -64zM1384 453q69 0 111.5 41.5t42.5 109.5q0 79 -47.5 127.5t-124.5 48.5q-69 0 -110.5 -43.5t-41.5 -115.5q0 -75 47 -121.5t123 -46.5zM1395 27q85 0 135.5 50.5
t50.5 133.5q0 89 -56 145t-147 56q-87 0 -140.5 -51.5t-53.5 -135.5q0 -89 58 -143.5t153 -54.5z" />
    <glyph glyph-name="arrowleft" unicode="&#x2190;" horiz-adv-x="2441" 
d="M612 309h-37l-489 379v17l489 376h37l-313 -344h2048v-80h-2048z" />
    <glyph glyph-name="arrowup" unicode="&#x2191;" horiz-adv-x="858" 
d="M467 -410h-80v1835l-344 -313v35l377 491h16l379 -491v-35l-348 313v-1835z" />
    <glyph glyph-name="arrowright" unicode="&#x2192;" horiz-adv-x="2441" 
d="M1866 309h-35l311 348h-2048v80h2048l-311 344h35l491 -376v-17z" />
    <glyph glyph-name="arrowdown" unicode="&#x2193;" horiz-adv-x="856" 
d="M434 -410h-16l-377 492v35l346 -314v1835h78v-1835l348 314v-35z" />
    <glyph glyph-name="arrowboth" unicode="&#x2194;" horiz-adv-x="2406" 
d="M608 309h-37l-489 379v17l489 376h37l-313 -346h1816l-311 346h35l492 -376v-17l-492 -379h-35l311 348h-1816z" />
    <glyph glyph-name="arrowupdn" unicode="&#x2195;" horiz-adv-x="882" 
d="M449 -410h-17l-377 492v35l346 -314v1622l-346 -313v35l377 491h17l378 -491v-35l-348 313v-1622l348 314v-35z" />
    <glyph glyph-name="uni2196" unicode="&#x2196;" horiz-adv-x="1388" 
d="M1350 -371l-70 -39l-1059 1840l-143 -445l-19 31l84 614l15 8l571 -237l16 -29l-454 96z" />
    <glyph glyph-name="uni2197" unicode="&#x2197;" horiz-adv-x="1388" 
d="M1167 1430l-1058 -1840l-70 39l1059 1839l-455 -96l16 29l572 237l14 -8l84 -614l-18 -31z" />
    <glyph glyph-name="uni2198" unicode="&#x2198;" horiz-adv-x="1388" 
d="M1245 -401l-14 -9l-572 238l-16 29l455 -97l-1059 1839l70 39l1058 -1839l144 445l18 -31z" />
    <glyph glyph-name="uni2199" unicode="&#x2199;" horiz-adv-x="1388" 
d="M729 -172l-571 -238l-15 9l-84 614l19 31l143 -445l1059 1839l70 -39l-1059 -1839l454 97z" />
    <glyph glyph-name="partialdiff" unicode="&#x2202;" horiz-adv-x="1110" 
d="M481 -23q-128 0 -228.5 63.5t-154 170t-53.5 235.5q0 97 32 190.5t89.5 169t146.5 121.5t193 46q125 0 232 -60.5t171 -140.5l11 -2q0 137 -44 265t-117.5 224.5t-166.5 167t-195 105.5l6 41q84 -29 162 -71t163.5 -115.5t147 -164.5t102 -224.5t40.5 -288.5
q0 -211 -68.5 -378.5t-191 -260.5t-277.5 -93zM483 61q86 0 162 41.5t135 119t93.5 199.5t35.5 273q-76 86 -178 144.5t-211 58.5q-157 0 -263.5 -119t-106.5 -311q0 -177 91 -291.5t242 -114.5z" />
    <glyph glyph-name="emptyset" unicode="&#x2205;" horiz-adv-x="1560" 
d="M1372 1288l-106 -125q89 -95 137.5 -221.5t48.5 -267.5q0 -150 -54.5 -280.5t-147.5 -221.5t-221.5 -143t-272.5 -52q-230 0 -398 127l-114 -133l-56 47l115 134q-194 188 -194 493q0 207 90.5 373t246 258t345.5 92q243 0 421 -154l103 119zM250 702q0 -269 141 -448
l744 868q-77 85 -174.5 130.5t-198.5 45.5q-72 0 -143 -21t-138 -68t-118 -115t-82 -169.5t-31 -222.5zM807 47q72 0 141.5 18.5t136.5 61.5t117 106t80.5 161t30.5 218q0 268 -131 453l-742 -864q75 -75 171 -114.5t196 -39.5z" />
    <glyph glyph-name="product" unicode="&#x220f;" horiz-adv-x="1257" 
d="M375 -205h-295v23l153 57v1612l-153 47v22h1098v-22l-154 -47v-1612l154 -57v-23h-295v1692h-508v-1692z" />
    <glyph glyph-name="summation" unicode="&#x2211;" horiz-adv-x="1126" 
d="M977 -205h-934v31l117 43l442 786l-383 815l-121 56v30h838l70 -317h-25l-154 248h-471l387 -832l-452 -786h571l160 244h25z" />
    <glyph glyph-name="minus" unicode="&#x2212;" horiz-adv-x="880" 
d="M803 535h-723v81h723v-81z" />
    <glyph glyph-name="radical" unicode="&#x221a;" horiz-adv-x="1366" 
d="M520 -205h-76l-305 803l-155 55v23h434v-23l-150 -53l240 -657l434 1613h475v-20l-430 -59z" />
    <glyph glyph-name="infinity" unicode="&#x221e;" horiz-adv-x="1576" 
d="M408 264q-127 0 -216.5 85.5t-89.5 223.5q0 137 86.5 223.5t212.5 86.5q104 0 206 -62.5t181 -171.5q81 109 183.5 171.5t206.5 62.5q126 0 212.5 -86.5t86.5 -223.5q0 -138 -90 -223.5t-216 -85.5q-105 0 -203.5 62t-179.5 172q-173 -234 -380 -234zM418 344
q93 0 178 63t139 166q-62 106 -149 170t-178 64q-90 0 -150.5 -62t-60.5 -165q0 -106 63 -171t158 -65zM1161 344q93 0 157 64.5t64 169.5q0 104 -62 166.5t-153 62.5q-86 0 -172.5 -62t-152.5 -172q58 -105 143 -167t176 -62z" />
    <glyph glyph-name="integral" unicode="&#x222b;" horiz-adv-x="868" 
d="M193 -272q-122 0 -181 137l33 305h35q-1 -114 3.5 -185.5t16.5 -119.5t32.5 -67t53.5 -19q32 0 57.5 18.5t44 57.5t32 84.5t23 116.5t15.5 134.5t10.5 157.5t7 167.5t6.5 182t7 183.5q4 105 9.5 182t15 153t23 128.5t34 98.5t48 73t64 42t83.5 15t82 -14t55.5 -40.5
t30.5 -46t20 -49.5l-33 -307h-37q0 228 -25 316t-91 88q-54 0 -86.5 -56.5t-51 -181.5t-28.5 -350q-4 -81 -9 -242q-4 -126 -6.5 -189.5t-9 -173.5t-15.5 -167.5t-24 -139.5t-36.5 -124.5t-50.5 -87t-69 -62.5t-89 -18z" />
    <glyph glyph-name="approxequal" unicode="&#x2248;" horiz-adv-x="962" 
d="M168 623h-39q2 97 52.5 154t140.5 57q49 0 96.5 -19t79 -41.5t76 -41.5t88.5 -19q53 0 93.5 27.5t43.5 95.5h37q-5 -99 -54.5 -155t-142.5 -56q-52 0 -100.5 18.5t-79.5 41.5t-72.5 41.5t-81.5 18.5q-50 0 -91.5 -28t-45.5 -94zM168 305h-39q2 97 52.5 154t140.5 57
q49 0 96.5 -19t79 -41.5t76 -41.5t88.5 -19q53 0 93.5 27.5t43.5 95.5h37q-5 -99 -54.5 -155t-142.5 -56q-52 0 -100.5 19t-79.5 41.5t-72.5 41.5t-81.5 19q-50 0 -91.5 -28.5t-45.5 -94.5z" />
    <glyph glyph-name="notequal" unicode="&#x2260;" horiz-adv-x="909" 
d="M815 801v-82h-252l-108 -287h360v-82h-391l-111 -289h-75l108 289h-254v82h287l106 287h-393v82h426l109 289h78l-111 -289h221z" />
    <glyph glyph-name="lessequal" unicode="&#x2264;" horiz-adv-x="1013" 
d="M924 176v-90l-830 475v29l830 473v-90l-703 -398zM920 0h-832v80h832v-80z" />
    <glyph glyph-name="greaterequal" unicode="&#x2265;" horiz-adv-x="1013" 
d="M918 561l-828 -475v90l701 399l-701 398v90l828 -473v-29zM924 0h-832v80h832v-80z" />
    <glyph glyph-name="lozenge" unicode="&#x25ca;" horiz-adv-x="1011" 
d="M543 -29h-76l-375 643l375 643h76l379 -643zM221 614l309 -538l316 538l-316 539z" />
    <glyph glyph-name="B.ss01" horiz-adv-x="1345" 
d="M764 0h-686v23l153 59v1388l-153 64v22h581q246 0 392.5 -106t146.5 -291q0 -142 -87.5 -251t-223.5 -148q79 -14 146 -41.5t122.5 -70.5t87 -108t31.5 -145q0 -81 -32 -151t-93.5 -125t-160.5 -87t-224 -32zM373 1485v-1413h356q193 0 292 93.5t99 240.5
q0 156 -103.5 237.5t-279.5 87.5q-95 7 -170 41t-180 139l461 404h31q-14 -15 -57.5 -59t-62 -64t-54 -60t-52.5 -65.5t-37.5 -59.5t-29 -64t-8.5 -58q0 -57 38.5 -80t108.5 -23q86 0 151 32t102 87t55 120.5t18 141.5q0 177 -107 249.5t-328 72.5h-243z" />
    <glyph glyph-name="C.ss01" horiz-adv-x="1581" 
d="M825 -23q-149 0 -284 55t-236.5 154t-161 246.5t-59.5 321.5q0 176 62 328.5t169.5 260t259.5 169t326 61.5q182 0 312 -59t180 -130l-404 -966h-35q26 67 84.5 209.5t90 224t60 185t28.5 173.5q0 135 -88 211t-255 76q-89 0 -175.5 -21.5t-171 -73t-148 -127.5
t-102.5 -193.5t-39 -262.5q0 -148 38 -275t102 -215.5t148.5 -152t177.5 -93.5t189 -30q217 0 390 149t257 414h35q-85 -295 -281.5 -467t-468.5 -172z" />
    <glyph glyph-name="Cacute.ss01" horiz-adv-x="1581" 
d="M811 1659h-27q97 200 171 292.5t118 92.5q20 0 31.5 -10t11.5 -25q0 -45 -90 -144t-215 -206zM825 -23q-149 0 -284 55t-236.5 154t-161 246.5t-59.5 321.5q0 176 62 328.5t169.5 260t259.5 169t326 61.5q182 0 312 -59t180 -130l-404 -966h-35q26 67 84.5 209.5t90 224
t60 185t28.5 173.5q0 135 -88 211t-255 76q-89 0 -175.5 -21.5t-171 -73t-148 -127.5t-102.5 -193.5t-39 -262.5q0 -148 38 -275t102 -215.5t148.5 -152t177.5 -93.5t189 -30q217 0 390 149t257 414h35q-85 -295 -281.5 -467t-468.5 -172z" />
    <glyph glyph-name="Ccaron.ss01" horiz-adv-x="1581" 
d="M827 1655q-33 0 -66 47.5t-124 213.5q-14 25 -21.5 39.5t-21 39t-25.5 45.5h29q172 -196 229 -277q21 30 52.5 69.5t50.5 62t66 77t59 68.5h28q-147 -272 -165 -301q-44 -72 -75 -82q-8 -2 -16 -2zM825 -23q-149 0 -284 55t-236.5 154t-161 246.5t-59.5 321.5
q0 176 62 328.5t169.5 260t259.5 169t326 61.5q182 0 312 -59t180 -130l-404 -966h-35q26 67 84.5 209.5t90 224t60 185t28.5 173.5q0 135 -88 211t-255 76q-89 0 -175.5 -21.5t-171 -73t-148 -127.5t-102.5 -193.5t-39 -262.5q0 -148 38 -275t102 -215.5t148.5 -152
t177.5 -93.5t189 -30q217 0 390 149t257 414h35q-85 -295 -281.5 -467t-468.5 -172z" />
    <glyph glyph-name="Ccedilla.ss01" horiz-adv-x="1581" 
d="M1540 616h35q-81 -283 -266.5 -454.5t-442.5 -184.5l-55 -94q78 0 119 -37.5t41 -95.5q0 -62 -46 -115t-122 -53q-58 0 -119 35v21q61 -23 104 -23q55 0 87 25.5t32 74.5q0 44 -38.5 75.5t-110.5 31.5v39l65 116q-149 0 -283 55t-235.5 154t-161 246.5t-59.5 321.5
q0 176 62 328.5t169.5 260t259.5 169t326 61.5q182 0 312 -59t180 -130l-404 -966h-35q26 67 84.5 209.5t90 224t60 185t28.5 173.5q0 135 -88 211t-255 76q-89 0 -175.5 -21.5t-171 -73t-148 -127.5t-102.5 -193.5t-39 -262.5q0 -148 38 -275t102 -215.5t148.5 -152
t177.5 -93.5t189 -30q217 0 390 149t257 414z" />
    <glyph glyph-name="D.ss01" horiz-adv-x="1613" 
d="M926 -23q-93 0 -169.5 19.5t-130.5 55t-85 65t-64 69.5l379 967h35q-25 -72 -79.5 -215t-82 -221t-52 -182t-24.5 -181q0 -143 65.5 -236t184.5 -93q123 0 228 95.5t168 263.5t63 370q0 353 -178 555t-484 202h-327v-1511h-295v23l153 61v1386l-153 64v22h715
q337 0 535 -214t198 -570q0 -219 -76 -400.5t-214.5 -288t-309.5 -106.5z" />
    <glyph glyph-name="Dcaron.ss01" horiz-adv-x="1611" 
d="M707 1655q-35 0 -68.5 48.5t-126.5 220.5q-39 73 -63 116h28q20 -23 60.5 -69.5t64 -74.5t54 -65.5t51.5 -67.5q21 30 51 68t53 65t62.5 74t58.5 70h31q-24 -44 -65 -119q-92 -171 -125 -218.5t-66 -47.5zM926 -23q-93 0 -169.5 19.5t-130.5 55t-85 65t-64 69.5l379 967
h35q-25 -72 -79.5 -215t-82 -221t-52 -182t-24.5 -181q0 -143 65.5 -236t184.5 -93q123 0 228 95.5t168 263.5t63 370q0 353 -178 555t-484 202h-327v-1511h-295v23l153 61v1386l-153 64v22h715q337 0 535 -214t198 -570q0 -219 -76 -400.5t-214.5 -288t-309.5 -106.5z" />
    <glyph glyph-name="Dcroat.ss01" horiz-adv-x="1613" 
d="M78 1556h717q337 0 535 -214t198 -570q0 -219 -76 -400.5t-214.5 -288t-309.5 -106.5q-93 0 -169.5 19.5t-130.5 55t-85 65t-64 69.5l379 967h35q-21 -58 -80 -212.5t-83.5 -226t-49.5 -177.5t-25 -183q0 -143 65.5 -236t184.5 -93q122 0 227 95.5t167.5 264t62.5 369.5
q0 353 -178 555t-482 202h-327v-702h264v-64h-264v-745h-297v23l153 61v661h-125v64h125v661l-153 64v22z" />
    <glyph glyph-name="G.ss01" horiz-adv-x="1564" 
d="M844 -23q-150 0 -288.5 58t-243 159.5t-166.5 251t-62 322.5q0 174 62.5 324.5t170.5 255.5t258 165t320 60q106 0 201 -23t153.5 -55.5t91.5 -57.5t43 -40v-455h-32q-1 273 -129 414t-365 141q-88 0 -170.5 -18.5t-166.5 -66t-145.5 -119.5t-100.5 -190t-39 -267
q0 -228 87 -407.5t237 -277.5t335 -98q94 0 177 27t140 70t98.5 97.5t61 110t19.5 105.5q0 33 -10 60.5t-24.5 48.5t-41.5 38.5t-50.5 29.5t-63.5 22t-68 16t-76 11.5t-76 8t-80 7t-76 6.5v32h652v-186q0 -117 -37.5 -214.5t-100 -164t-144.5 -113t-171 -67.5t-180 -21z" />
    <glyph glyph-name="Gbreve.ss01" horiz-adv-x="1564" 
d="M797 1659q-53 0 -100 21t-88 64.5t-65 120.5t-24 179h27q1 -55 15.5 -105t43 -92t78 -67t113.5 -25t113 25t77.5 67t42.5 92t14 105h29q0 -102 -24 -179t-64.5 -120.5t-88 -64.5t-99.5 -21zM844 -23q-150 0 -288.5 58t-243 159.5t-166.5 251t-62 322.5q0 174 62.5 324.5
t170.5 255.5t258 165t320 60q106 0 201 -23t153.5 -55.5t91.5 -57.5t43 -40v-455h-32q-1 273 -129 414t-365 141q-88 0 -170.5 -18.5t-166.5 -66t-145.5 -119.5t-100.5 -190t-39 -267q0 -228 87 -407.5t237 -277.5t335 -98q94 0 177 27t140 70t98.5 97.5t61 110t19.5 105.5
q0 33 -10 60.5t-24.5 48.5t-41.5 38.5t-50.5 29.5t-63.5 22t-68 16t-76 11.5t-76 8t-80 7t-76 6.5v32h652v-186q0 -117 -37.5 -214.5t-100 -164t-144.5 -113t-171 -67.5t-180 -21z" />
    <glyph glyph-name="uni0122.ss01" horiz-adv-x="1564" 
d="M844 -23q-150 0 -288.5 58t-243 159.5t-166.5 251t-62 322.5q0 174 62.5 324.5t170.5 255.5t258 165t320 60q106 0 201 -23t153.5 -55.5t91.5 -57.5t43 -40v-455h-32q-1 273 -129 414t-365 141q-88 0 -170.5 -18.5t-166.5 -66t-145.5 -119.5t-100.5 -190t-39 -267
q0 -228 87 -407.5t237 -277.5t335 -98q94 0 177 27t140 70t98.5 97.5t61 110t19.5 105.5q0 33 -10 60.5t-24.5 48.5t-41.5 38.5t-50.5 29.5t-63.5 22t-68 16t-76 11.5t-76 8t-80 7t-76 6.5v32h652v-186q0 -117 -37.5 -214.5t-100 -164t-144.5 -113t-171 -67.5t-180 -21z
M768 -102q49 0 75.5 -39t26.5 -97q0 -118 -137 -262h-24q88 115 88 178q0 29 -16.5 49t-36 29.5t-36 28t-16.5 45.5q0 32 22 50t54 18z" />
    <glyph glyph-name="Gdotaccent.ss01" horiz-adv-x="1599" 
d="M799 1712q-44 0 -72.5 28.5t-28.5 71.5t28.5 73t72.5 30q42 0 71 -30t29 -73t-28.5 -71.5t-71.5 -28.5zM844 -23q-150 0 -287.5 58t-242 159.5t-166.5 251t-62 322.5q0 174 62.5 324.5t170.5 255.5t258 165t320 60q106 0 201 -23t153.5 -56t91 -57.5t43.5 -39.5v-455h-32
q-1 273 -129.5 414t-366.5 141q-87 0 -169.5 -18.5t-166 -66t-145 -119.5t-100.5 -190t-39 -267q0 -228 87 -407.5t237 -277.5t335 -98q94 0 177 27t140 70t98.5 97.5t61 110t19.5 105.5q0 33 -10 60.5t-24.5 48.5t-41.5 38.5t-51 29.5t-64 22t-68.5 16t-76.5 11.5t-76 8
t-80 7t-76 6.5v32h652v-186q0 -117 -37 -214.5t-99.5 -164t-144.5 -113t-171 -67.5t-181 -21z" />
    <glyph glyph-name="J.ss01" horiz-adv-x="913" 
d="M367 -23q-126 0 -205.5 49.5t-147.5 139.5l371 967h33q-33 -96 -87 -250t-75.5 -218t-49 -155t-37 -147.5t-9.5 -108.5q0 -100 51 -150.5t139 -50.5q41 0 71 8.5t58 33t45 68t27 115t10 171.5v1021l-153 64v22h448v-22l-154 -64v-1056q0 -77 -7.5 -136.5t-29 -118.5
t-57.5 -97t-97 -61.5t-144 -23.5z" />
    <glyph glyph-name="K.ss01" horiz-adv-x="1214" 
d="M526 0h-448v23l153 61v1386l-153 64v22h448v-22l-153 -64v-634l514 651l-135 47v22h399v-22l-201 -49l-491 -631l594 -780l194 -51v-23h-465v23l99 51l-508 653v-643l153 -61v-23z" />
    <glyph glyph-name="uni0136.ss01" horiz-adv-x="1214" 
d="M526 0h-448v23l153 61v1386l-153 64v22h448v-22l-153 -64v-634l514 651l-135 47v22h399v-22l-201 -49l-491 -631l594 -780l194 -51v-23h-465v23l99 51l-508 653v-643l153 -61v-23zM621 -102q47 0 74.5 -39.5t27.5 -96.5q0 -118 -139 -262h-25q90 118 90 178
q0 29 -16.5 49t-35.5 29.5t-35.5 28t-16.5 45.5q0 33 21 50.5t55 17.5z" />
    </font>
</defs>
</svg>
