<?xml version="1.0" standalone="no"?>
<!DOCTYPE svg PUBLIC "-//W3C//DTD SVG 1.1//EN" "http://www.w3.org/Graphics/SVG/1.1/DTD/svg11.dtd" >
<svg xmlns="http://www.w3.org/2000/svg" xmlns:xlink="http://www.w3.org/1999/xlink" version="1.1">
<metadata>
Created by FontForge 20170731 at Tue Feb  2 19:50:35 2021
 By Aleksey,,,
Copyright (c) 2020 by Matthieu Salvaggio. All rights reserved.
</metadata>
<defs>
<font id="ApocLC-HairlineItalic" horiz-adv-x="0" >
  <font-face 
    font-family="Apoc LC Hairline"
    font-weight="50"
    font-style="italic"
    font-stretch="normal"
    units-per-em="2048"
    panose-1="0 0 1 0 0 0 0 0 0 0"
    ascent="1638"
    descent="-410"
    x-height="1024"
    cap-height="1556"
    bbox="-1372 -500 2431 2126"
    underline-thickness="102"
    underline-position="-307"
    slope="-11"
    unicode-range="U+0020-FB02"
  />
<missing-glyph horiz-adv-x="1130" 
d="M989 0h-1048l4 20l157 33l279 1428l-141 55l4 20h1048l-4 -20l-166 -55l-278 -1428l149 -33zM477 1495l-270 -1386l823 1386h-553zM1014 1389l-791 -1328h533z" />
    <glyph glyph-name="fi" unicode="fi" horiz-adv-x="1011" 
d="M297 0h-348l4 20l143 54l174 899h-125l11 51h125l51 264q74 383 323 383q48 0 77.5 -14.5t45.5 -37t33 -46.5t52 -48t89 -36q48 -11 70 -28.5t22 -47.5q0 -42 -28 -71t-68 -29q-32 0 -55 22.5t-47 65.5q-7 14 -21 44t-23.5 49.5t-27 45t-34 41t-41 26.5t-52.5 11
q-89 0 -144 -78.5t-85 -234.5l-56 -281h574l-188 -971l126 -33l-4 -20h-348l4 20l140 33l178 920h-492l-174 -899l123 -54z" />
    <glyph glyph-name="fl" unicode="fl" horiz-adv-x="1052" 
d="M295 0h-348l4 20l139 33l178 920h-125l11 51h125l53 270q17 84 43 150.5t63 118.5t89.5 80t115.5 28q62 0 119 -18t105 -36t89 -18q63 0 121 39h21l-310 -1585l127 -33l-4 -20h-348l4 20l140 33l251 1299q11 54 -7 99.5t-53.5 75.5t-82 51t-91.5 30.5t-85 9.5
q-160 0 -223 -313l-56 -281h271l-10 -51h-271l-178 -920l127 -33z" />
    <glyph glyph-name="fh" unicode="fh" horiz-adv-x="1679" 
d="M295 0h-348l4 20l139 33l178 920h-125l11 51h125l53 270q17 85 38 146t56 117t89.5 85t127.5 29q66 0 171.5 -36t162.5 -36q63 0 121 39h20l-168 -858q15 29 37.5 60.5t61 71.5t83 70.5t106 51.5t126.5 21q249 0 190 -307l-135 -695l127 -33l-4 -20h-348l4 20l139 33
l123 633q30 158 -18 231.5t-146 73.5q-117 0 -216 -91.5t-150 -213.5l-123 -633l129 -33l-4 -20h-371l4 20l160 33l252 1299q13 66 -22 120t-95 84t-118.5 46t-102.5 16q-43 0 -76.5 -17.5t-55.5 -44t-40.5 -70.5t-29 -84t-21.5 -97l-56 -281h271l-10 -51h-271l-178 -920
l127 -33z" />
    <glyph glyph-name="fb" unicode="fb" horiz-adv-x="1542" 
d="M973 -23q-54 0 -96.5 14.5t-73 42.5t-49.5 54t-39 64l-74 -152h-31l262 1352q13 67 -6 120.5t-58 83.5t-83 46t-86 16q-43 0 -76.5 -17.5t-55.5 -44t-40.5 -70.5t-29 -84t-21.5 -97l-56 -281h271l-10 -51h-271l-178 -920l127 -33l-4 -20h-348l4 20l139 33l178 920h-125
l11 51h125l53 270q17 85 38 146t56 117t89.5 85t127.5 29q55 0 94 -18t69.5 -36t65.5 -18q63 0 121 39h21l-115 -583q130 0 231.5 -27.5t165 -72t104.5 -106.5t57 -125.5t16 -133.5q0 -154 -71 -296.5t-187.5 -229.5t-241.5 -87zM971 41q80 0 156.5 43t132.5 114t90 168
t34 199q0 72 -16.5 137t-54 124.5t-93.5 103t-140 69t-187 25.5l-164 -840q39 -61 100 -102t142 -41z" />
    <glyph glyph-name="fk" unicode="fk" horiz-adv-x="1579" 
d="M295 0h-348l4 20l139 33l178 920h-125l11 51h125l53 270q17 84 43 150.5t63 118.5t89.5 80t115.5 28q62 0 119 -18t105 -36t89 -18q63 0 121 39h21l-244 -1249l565 574l-178 41l4 20h400l-5 -20l-170 -46l-344 -354l267 -551l114 -33l-4 -20h-399l4 20l174 33l-229 475
l-215 -221l-50 -254l127 -33l-4 -20h-348l4 20l140 33l251 1299q11 54 -7 99.5t-53.5 75.5t-82 51t-91.5 30.5t-85 9.5q-160 0 -223 -313l-56 -281h271l-10 -51h-271l-178 -920l127 -33z" />
    <glyph glyph-name="ffi" unicode="ffi" horiz-adv-x="1585" 
d="M297 0h-348l4 20l143 54l174 899h-125l11 51h125l53 270q75 377 313 377q52 0 100 -17.5t78.5 -39.5t75.5 -56.5t76 -52.5q88 166 252 166q48 0 77.5 -14.5t45.5 -37t33 -46.5t52 -48t89 -36q48 -11 70 -28.5t22 -47.5q0 -42 -28 -71t-68 -29q-55 0 -99 80
q-8 16 -27.5 57t-32.5 63.5t-34.5 50.5t-48 41t-59.5 13q-50 0 -89 -23.5t-65.5 -69.5t-44 -97.5t-31.5 -122.5l-55 -281h573l-188 -971l127 -33l-4 -20h-348l4 20l139 33l178 920h-491l-174 -899l122 -54l-4 -20h-348l4 20l144 54l174 899h-492l-174 -899l123 -54z
M418 1305l-56 -281h492l55 287q10 52 -7.5 107.5t-53.5 99t-92.5 72t-118.5 28.5q-157 0 -219 -313z" />
    <glyph glyph-name="ffl" unicode="ffl" horiz-adv-x="1626" 
d="M295 0h-348l4 20l139 33l178 920h-125l11 51h125l51 262q34 178 112.5 281.5t202.5 103.5q65 0 118 -25.5t115 -73.5t97 -67q86 166 242 166q62 0 119 -18t105 -36t89 -18q63 0 121 39h20l-309 -1585l127 -33l-4 -20h-348l4 20l139 33l252 1299q11 54 -7 99.5t-53.5 75.5
t-82.5 51t-92 30.5t-85 9.5q-160 0 -223 -313l-55 -281h270l-10 -51h-270l-179 -920l127 -33l-4 -20h-348l4 20l140 33l178 920h-492l-178 -920l127 -33zM416 1305l-56 -281h492l53 270q24 126 -61.5 225t-208.5 99q-157 0 -219 -313z" />
    <glyph glyph-name="ff" unicode="ff" horiz-adv-x="1110" 
d="M295 0h-348l4 20l139 33l178 920h-125l11 51h125l53 270q75 377 313 377q51 0 98.5 -17.5t78 -40t75 -55.5t76.5 -51q87 164 241 164q162 0 248 -158l-182 -315h-31q105 185 105 291q0 129 -150 129q-83 0 -137.5 -86t-87.5 -258l-49 -250h270l-10 -51h-270l-181 -920
l129 -33l-4 -20h-348l4 20l139 33l179 920h-488l-176 -920l125 -33zM416 1305l-56 -281h488l47 240q33 146 -45 250t-215 104q-157 0 -219 -313z" />
    <glyph glyph-name="ffh" unicode="ffh" horiz-adv-x="2252" 
d="M295 0h-348l4 20l139 33l178 920h-125l11 51h125l53 270q75 377 315 377q51 0 97.5 -17.5t77 -39t74.5 -54.5t75 -51q84 162 246 162q66 0 171 -36t162 -36q63 0 121 39h21l-168 -858q20 38 52 79t83 88t124.5 77.5t153.5 30.5q250 0 191 -307l-135 -695l127 -33l-4 -20
h-349l5 20l139 33l123 633q30 158 -18 231.5t-146 73.5q-117 0 -216.5 -91.5t-150.5 -213.5l-123 -633l129 -33l-4 -20h-370l4 20l159 33l252 1299q13 66 -22 120t-95 84t-118.5 46t-102.5 16q-43 0 -76.5 -17.5t-55.5 -44t-40.5 -70.5t-29 -84t-21.5 -97l-55 -281h270
l-10 -51h-270l-179 -920l127 -33l-4 -20h-348l4 20l140 33l178 920h-492l-178 -920l127 -33zM416 1305l-56 -281h492l55 287q14 70 -18.5 141.5t-101.5 118.5t-150 47q-159 0 -221 -313z" />
    <glyph glyph-name="ffk" unicode="ffk" horiz-adv-x="2154" 
d="M295 0h-348l4 20l139 33l178 920h-125l11 51h125l53 270q75 377 315 377q51 0 98.5 -17.5t78 -40t75 -55.5t76.5 -51q87 164 242 164q62 0 119 -18t105 -36t89 -18q63 0 121 39h20l-244 -1251l562 569l-172 48l4 20h399l-4 -20l-172 -48l-342 -352l266 -551l115 -33
l-4 -20h-400l4 20l175 33l-230 475l-217 -223l-49 -252l127 -33l-4 -20h-348l4 20l139 33l252 1299q11 54 -7 99.5t-53.5 75.5t-82.5 51t-92 30.5t-85 9.5q-160 0 -223 -313l-55 -281h270l-10 -51h-270l-179 -920l127 -33l-4 -20h-348l4 20l140 33l178 920h-492l-178 -920
l127 -33zM416 1305l-56 -281h492l55 287q13 70 -19 141.5t-100.5 118.5t-150.5 47q-159 0 -221 -313z" />
    <glyph glyph-name="st" unicode="st" horiz-adv-x="1460" 
d="M315 -23q-209 0 -313 166l152 275h30q-23 -42 -44 -101.5t-21 -111.5q0 -78 51 -124t158 -46q141 0 245.5 78t104.5 182q0 31 -15.5 57.5t-38.5 45.5t-67 39.5t-83 34.5t-105 36q-100 34 -151.5 87t-51.5 136q0 103 64 189.5t165 117.5q24 150 113.5 274t217 193.5
t263.5 69.5q67 0 119.5 -17.5t93.5 -58t52.5 -105t-3.5 -159.5l-41 -211h271l-11 -51h-270l-133 -686q-27 -133 -7 -194.5t93 -61.5q118 0 211 166h31q-52 -110 -127 -165t-160 -55q-93 0 -124.5 70t-0.5 229l135 697h-155l4 20q122 14 189 92.5t67 221.5q0 77 -35.5 126.5
t-89.5 69t-127 19.5q-202 0 -354.5 -139t-180.5 -339q53 11 90 11q186 0 283 -146q-61 -132 -114 -188.5t-113 -56.5q-83 0 -137 92t-56 223q-80 -27 -126 -85t-46 -126q0 -55 49 -93t166 -75q14 -5 54 -17t55 -17t48 -18t47 -22.5t35.5 -27t31 -35.5t17 -43t7.5 -55
q0 -164 -118.5 -276t-293.5 -112zM592 692q44 0 77 42t33 100q0 70 -54.5 115.5t-139.5 45.5q-39 0 -78 -10q-4 -115 47.5 -204t114.5 -89z" />
    <glyph glyph-name=".notdef" horiz-adv-x="1130" 
d="M989 0h-1048l4 20l157 33l279 1428l-141 55l4 20h1048l-4 -20l-166 -55l-278 -1428l149 -33zM477 1495l-270 -1386l823 1386h-553zM1014 1389l-791 -1328h533z" />
    <glyph glyph-name=".null" 
 />
    <glyph glyph-name="nonmarkingreturn" horiz-adv-x="682" 
 />
    <glyph glyph-name="space" unicode=" " horiz-adv-x="446" 
 />
    <glyph glyph-name="exclam" unicode="!" horiz-adv-x="464" 
d="M205 303h-29q18 128 97.5 635t88.5 557q16 82 38 112.5t51 30.5q41 0 41 -61q0 -24 -29 -160.5t-71 -319t-83 -357t-72.5 -305.5t-31.5 -132zM127 -23q-36 0 -58 20.5t-22 53.5q0 47 35.5 83t81.5 36q36 0 58 -22t22 -56q0 -46 -35 -80.5t-82 -34.5z" />
    <glyph glyph-name="quotedbl" unicode="&#x22;" horiz-adv-x="456" 
d="M252 1055h-16q25 340 40 420q10 55 26 75.5t42 20.5t32.5 -19.5t-3.5 -76.5q-17 -90 -121 -420zM426 1055h-16q25 331 41 420q10 55 25.5 75.5t41.5 20.5t32.5 -19.5t-3.5 -76.5q-17 -90 -121 -420z" />
    <glyph glyph-name="numbersign" unicode="#" horiz-adv-x="1150" 
d="M1153 1556h61l-215 -477h201l-14 -65h-217l-230 -508h205l-12 -66h-223l-199 -440h-61l198 440h-328l-198 -440h-62l199 440h-213l12 66h232l229 508h-219l14 65h236l215 477h61l-215 -477h328zM350 506h328l229 508h-327z" />
    <glyph glyph-name="dollar" unicode="$" horiz-adv-x="1015" 
d="M754 815q86 -35 128 -81.5t42 -123.5q0 -173 -133.5 -303.5t-321.5 -144.5l-43 -223h-47l43 221q-136 3 -231.5 66.5t-122.5 131.5l129 299h34q-95 -205 -43.5 -318.5t246.5 -117.5l105 537q-136 39 -179 67q-96 62 -96 179q0 161 113.5 270t284.5 117l36 186h47
l-36 -186q55 -3 102 -17t84 -37.5t60 -43t49 -46.5l-138 -227h-35q48 75 62 132t-6.5 93.5t-68 56t-122.5 21.5l-90 -457q87 -27 148 -51zM524 891q23 -8 39 -10l86 442q-140 -8 -232.5 -81.5t-92.5 -178.5q0 -57 45.5 -99t154.5 -73zM584 745l-103 -524q155 11 263 105
t108 221q0 71 -51.5 114.5t-155.5 69.5q-10 2 -30.5 7t-30.5 7z" />
    <glyph glyph-name="percent" unicode="%" horiz-adv-x="1767" 
d="M414 815q-59 0 -104.5 25.5t-72 69t-40 96t-13.5 112.5q0 126 52 246.5t148.5 200.5t211.5 80q80 0 135 -49t77.5 -118.5t22.5 -152.5q0 -124 -53.5 -241t-151 -193t-212.5 -76zM444 850q53 0 106.5 30t99.5 84t75 141t29 191q0 136 -53.5 226t-133.5 90
q-51 0 -105.5 -33t-101 -90.5t-76.5 -146t-30 -189.5q0 -132 53.5 -217.5t136.5 -85.5zM258 0h-61l1384 1556h66zM1278 -12q-59 0 -104.5 25.5t-72 69t-39.5 96t-13 112.5q0 94 31 188t84 169t131 122t165 47q80 0 135 -48.5t78 -118t23 -152.5q0 -124 -54 -241t-151.5 -193
t-212.5 -76zM1309 23q53 0 106.5 30t99 84t74.5 141t29 191q0 136 -53 225.5t-133 89.5q-51 0 -105.5 -33t-101.5 -90t-77 -145.5t-30 -189.5q0 -132 54 -217.5t137 -85.5z" />
    <glyph glyph-name="ampersand" unicode="&#x26;" horiz-adv-x="1243" 
d="M1186 -53h-31q-152 114 -285 233q-108 -95 -238.5 -150t-250.5 -55q-151 0 -247.5 85.5t-96.5 226.5q0 58 15.5 113t38.5 97.5t59.5 85t68 71.5t75.5 60.5t70 47.5t62 37q-35 110 -35 217q0 147 62 275.5t167 205t226 76.5q112 0 181 -64.5t69 -165.5q0 -54 -18 -104
t-46.5 -89.5t-71.5 -78t-86 -67t-98 -59t-98.5 -51.5t-96 -46.5t-83.5 -42.5q92 -255 372 -555q65 63 110 135t69.5 156t15.5 180t-55 192h30q69 -125 67.5 -257t-55 -241t-147.5 -202q140 -140 281 -266zM487 834q202 106 253 137q208 125 262 251q22 51 22 105
q0 86 -57 136t-142 50q-93 0 -179 -68t-138.5 -179.5t-52.5 -231.5q0 -91 32 -200zM410 41q100 0 213 46t211 128q-303 293 -400 555q-153 -95 -236 -215t-83 -246q0 -124 84.5 -196t210.5 -72z" />
    <glyph glyph-name="quotesingle" unicode="'" horiz-adv-x="282" 
d="M252 1055h-16q25 340 40 420q10 55 26 75.5t42 20.5t32.5 -19.5t-3.5 -76.5q-17 -90 -121 -420z" />
    <glyph glyph-name="parenleft" unicode="(" horiz-adv-x="487" 
d="M311 -123h-35q-33 49 -67 122.5t-67 214.5t-33 290q0 130 28 264t71 243.5t98.5 214t107.5 180t101 138t75.5 91t34.5 36.5h34q-116 -108 -222.5 -329t-171 -481.5t-64.5 -477.5q0 -176 32.5 -307.5t77.5 -198.5z" />
    <glyph glyph-name="parenright" unicode=")" horiz-adv-x="485" 
d="M-37 -123h-35q183 172 318 546.5t135 713.5q0 179 -31 325t-74 209h35q52 -73 108 -263.5t56 -399.5q0 -186 -66.5 -398t-184 -406t-261.5 -327z" />
    <glyph glyph-name="asterisk" unicode="*" horiz-adv-x="608" 
d="M422 1141q-36 0 -13 83q4 15 52 154q-119 -99 -136 -111q-70 -49 -87 -20q-10 26 20.5 46t144.5 71q36 16 56 25q-136 76 -158 95q-27 24 -8 48q9 9 19 11t21.5 -4.5t22.5 -14.5t26.5 -24.5t26.5 -29.5t29 -34.5t29 -34.5q4 154 12 188q10 49 39 49q38 0 10 -95
q-7 -23 -49 -142q15 12 35.5 29t34 28t31 25t29.5 23t25.5 18t23 13t18.5 6t15.5 -1t10.5 -10q10 -25 -23.5 -46.5t-162.5 -79.5q-24 -11 -37 -17q18 -10 50 -27q104 -57 120 -74q15 -20 -2 -41q-9 -9 -19 -11t-22 4t-23 14.5t-26 24.5t-26.5 29.5t-28.5 34.5t-29 35
q-4 -154 -12 -187q-11 -49 -39 -50z" />
    <glyph glyph-name="plus" unicode="+" horiz-adv-x="892" 
d="M500 604h325l-12 -65h-328l-63 -328h-66l64 328h-330l12 65h332l64 330h65z" />
    <glyph glyph-name="comma" unicode="," horiz-adv-x="329" 
d="M-78 -295h-20q139 145 139 244q0 22 -8 45.5t-15.5 36.5t-23.5 39q7 43 40.5 71.5t71.5 28.5t60 -21t22 -57q0 -66 -74 -173.5t-192 -213.5z" />
    <glyph glyph-name="hyphen" unicode="-" horiz-adv-x="649" 
d="M588 537h-518l14 77h518z" />
    <glyph glyph-name="period" unicode="." horiz-adv-x="354" 
d="M86 -23q-37 0 -58.5 21.5t-21.5 56.5q0 46 34 80.5t83 34.5q36 0 58 -23t22 -57q0 -47 -34 -80t-83 -33z" />
    <glyph glyph-name="slash" unicode="/" horiz-adv-x="1048" 
d="M-45 -244h-61l1265 1882h66z" />
    <glyph glyph-name="zero" unicode="0" horiz-adv-x="1277" 
d="M510 -23q-85 0 -152 32t-109.5 85t-70.5 127.5t-39.5 154t-11.5 169.5q0 122 27 248t74 239t115 212.5t147.5 172t173.5 114.5t190 42q86 0 154.5 -35t112.5 -92.5t73 -136.5t41 -162.5t12 -175.5q0 -144 -38.5 -290.5t-108.5 -271.5t-160.5 -222.5t-202.5 -153.5
t-227 -56zM565 43q95 0 194 62t182 172t136 280.5t53 366.5q0 264 -89.5 423.5t-235.5 159.5q-74 0 -154 -42t-155 -123t-135 -188.5t-96 -250.5t-36 -297q0 -256 93 -409.5t243 -153.5z" />
    <glyph glyph-name="one" unicode="1" horiz-adv-x="679" 
d="M494 0h-400l4 20l160 33l254 1311l-387 -330h-6l2 10l457 512h219l-4 -20l-166 -61l-277 -1422l148 -33z" />
    <glyph glyph-name="two" unicode="2" horiz-adv-x="1134" 
d="M899 0h-932l4 20q33 6 100.5 41.5t158.5 98.5t190 144.5t195 186.5t172.5 216.5t123.5 243t47 257.5q0 140 -67 219.5t-182 79.5q-126 0 -227.5 -91t-158.5 -251t-57 -358v-16h-30l-15 413q40 73 86.5 133t110.5 116t147.5 88t177.5 32q46 0 89 -7.5t89 -29t79.5 -56
t55 -92.5t21.5 -133q0 -137 -53 -281.5t-125 -252t-162 -203.5q-180 -191 -542 -457h634l183 256h20z" />
    <glyph glyph-name="three" unicode="3" horiz-adv-x="1140" 
d="M414 -23q-151 0 -271.5 67t-130.5 179l144 324h30q-35 -80 -56 -157.5t-21 -121.5q0 -66 32 -114.5t83.5 -73.5t105 -36t108.5 -11q137 0 252.5 71t182.5 193.5t67 267.5q0 111 -61 174.5t-185 63.5q-44 0 -89 -14t-167 -62l6 31q89 40 161 79t144.5 90.5t121.5 104.5
t79.5 118.5t30.5 135.5q0 98 -67 159.5t-193 61.5q-180 0 -277.5 -101t-97.5 -312q0 -82 4 -127h-31l-59 323q30 39 55.5 69t74 73t98 71t120 49t146.5 21q66 0 125.5 -15t109.5 -44.5t79.5 -80t29.5 -116.5q0 -140 -114 -270t-322 -218q97 18 184 -4.5t146 -92.5t59 -175
q0 -110 -53.5 -217t-140 -186.5t-204 -128t-239.5 -48.5z" />
    <glyph glyph-name="four" unicode="4" horiz-adv-x="1075" 
d="M868 0h-399l4 20l160 33l65 336h-702l8 41l905 1126h262l-4 -20l-163 -49l-201 -1030l186 -47l-4 -21h-194l-66 -336l147 -33zM907 1466l-813 -1015h617z" />
    <glyph glyph-name="five" unicode="5" horiz-adv-x="1306" 
d="M524 -18q-97 0 -175 29t-130.5 76.5t-92.5 118t-63.5 143t-39.5 161.5h30q15 -55 26.5 -93.5t29 -85t35.5 -79t43 -67t55 -57t67.5 -41t84.5 -27.5t102 -9q171 0 314 77t226.5 214t83.5 305q0 155 -83 250.5t-230 95.5q-67 0 -131.5 -20t-127.5 -61.5t-120.5 -113.5
t-101.5 -169h-107l309 841l-133 66l4 20h836l8 -327h-20l-82 266h-500l-254 -672q-5 -16 0 -16q6 0 16 12q78 109 203 172.5t252 63.5q165 0 274 -113t109 -295q0 -137 -61.5 -262t-161 -212.5t-230 -139t-264.5 -51.5z" />
    <glyph glyph-name="six" unicode="6" horiz-adv-x="1261" 
d="M532 -23q-196 0 -304.5 134.5t-108.5 373.5q0 168 42 332t117.5 298.5t173.5 238.5t217.5 161.5t241.5 57.5q72 0 134 -18.5t100.5 -47t60 -50.5t31.5 -40l-66 -332h-41q39 200 -36.5 306t-243.5 106q-98 0 -183.5 -37t-149.5 -101.5t-116 -155t-87 -192.5t-58 -220
q-23 -133 -25 -160q52 133 141 230t194.5 145.5t217.5 48.5q175 0 288.5 -114t113.5 -292q0 -126 -55.5 -249.5t-145.5 -216t-210.5 -149.5t-242.5 -57zM575 53q130 0 245 82.5t183 220.5t68 295q0 158 -85.5 250t-235.5 92q-98 0 -194 -47.5t-167.5 -124t-115.5 -179.5
t-44 -208q0 -102 40.5 -188t120.5 -139.5t185 -53.5z" />
    <glyph glyph-name="seven" unicode="7" horiz-adv-x="964" 
d="M221 0h-84l393 756h-266l12 61h287l371 678h-553l-184 -266h-21l135 327h846l-4 -20l-145 -61l-361 -656l178 -43l-4 -20h-207z" />
    <glyph glyph-name="eight" unicode="8" horiz-adv-x="1165" 
d="M463 -23q-174 0 -284.5 98t-110.5 255q0 163 125.5 316t289.5 190q-101 24 -155 104t-54 180q0 122 69.5 226.5t187.5 165.5t255 61q157 0 253 -90t96 -232q0 -134 -93 -244.5t-256 -168.5q130 -18 202.5 -118.5t72.5 -230.5q0 -145 -87 -264.5t-223.5 -183.5t-287.5 -64
zM649 866q163 0 268 103t105 252q0 123 -77.5 204.5t-203.5 81.5q-155 0 -262.5 -105.5t-107.5 -266.5q0 -120 74.5 -194.5t203.5 -74.5zM508 43q84 0 162.5 28.5t142 82t101.5 138.5t38 189q0 144 -86.5 230t-242.5 86q-104 0 -191.5 -35t-145 -94.5t-89 -136t-31.5 -160.5
q0 -145 96.5 -236.5t245.5 -91.5z" />
    <glyph glyph-name="nine" unicode="9" horiz-adv-x="1249" 
d="M438 -23q-68 0 -135 18.5t-112.5 45t-75.5 52.5t-35 42l63 332h41q-39 -201 43.5 -316.5t247.5 -115.5q106 0 198 49t160.5 129.5t125 196.5t95 238.5t68.5 266.5q-69 -176 -218.5 -296.5t-325.5 -120.5q-175 0 -282.5 116t-107.5 297q0 127 52.5 249t138 212.5
t202 145.5t238.5 55q191 0 304.5 -124.5t113.5 -361.5q0 -165 -43.5 -330.5t-121 -303.5t-177 -246t-219 -169t-238.5 -61zM606 559q134 0 252.5 82t189 219.5t70.5 294.5q0 160 -93.5 251t-242.5 91q-135 0 -249 -79t-180 -215.5t-66 -297.5q0 -158 83 -252t236 -94z" />
    <glyph glyph-name="colon" unicode=":" horiz-adv-x="438" 
d="M266 758q-36 0 -58 20t-22 53q0 47 35.5 83t81.5 36q36 0 58 -22t22 -56q0 -46 -35 -80t-82 -34zM115 -23q-36 0 -58 20.5t-22 53.5q0 47 35.5 83t81.5 36q36 0 57.5 -22t21.5 -56q0 -46 -34.5 -80.5t-81.5 -34.5z" />
    <glyph glyph-name="semicolon" unicode=";" horiz-adv-x="483" 
d="M246 758q-37 0 -58.5 21.5t-21.5 56.5q0 46 34 80t83 34q36 0 57.5 -22.5t21.5 -57.5q0 -47 -33.5 -79.5t-82.5 -32.5zM27 -295h-21q139 145 139 244q0 22 -8 45.5t-15.5 36.5t-23.5 39q7 43 41 71.5t72 28.5t60 -21t22 -57q0 -66 -74 -173.5t-192 -213.5z" />
    <glyph glyph-name="less" unicode="&#x3c;" horiz-adv-x="987" 
d="M817 145l-14 -59l-729 479l4 21l915 477l-14 -72l-815 -420z" />
    <glyph glyph-name="equal" unicode="=" horiz-adv-x="1024" 
d="M895 727h-723l12 66h723zM860 358h-723l13 66h722z" />
    <glyph glyph-name="greater" unicode="&#x3e;" horiz-adv-x="985" 
d="M932 565l-916 -479l15 72l803 417l-641 416l14 72l729 -477z" />
    <glyph glyph-name="question" unicode="?" horiz-adv-x="882" 
d="M352 307h-20q8 107 20 166q22 111 66 179.5t170 205.5q45 50 72.5 82.5t70.5 91.5t68 108.5t44 114.5t19 127q0 111 -64.5 166.5t-160.5 55.5q-81 0 -145.5 -35t-106 -94t-68.5 -139t-37 -166.5t-8 -180.5h-30l-15 414q62 113 182 189.5t261 76.5q41 0 80.5 -7t81 -26
t72 -49t50 -80t19.5 -114q0 -236 -209 -461q-45 -50 -100.5 -103t-88.5 -83t-70.5 -75t-62 -89.5t-48.5 -114t-42 -160.5zM285 -23q-36 0 -58 20.5t-22 53.5q0 47 35.5 83t81.5 36q36 0 57.5 -22t21.5 -56q0 -46 -34.5 -80.5t-81.5 -34.5z" />
    <glyph glyph-name="at" unicode="@" horiz-adv-x="1613" 
d="M641 -158q-119 0 -221.5 37.5t-178.5 107t-119.5 175t-43.5 233.5q0 149 46.5 290.5t131.5 256t197.5 201.5t251 134.5t284.5 47.5q265 0 414 -147t149 -404q0 -180 -58.5 -343t-156 -261t-204.5 -98q-160 0 -156 192q-178 -184 -352 -184q-113 0 -180.5 78t-67.5 213
q0 192 97.5 343.5t272 235.5t396.5 84h55l-135 -698q-19 -93 4.5 -148t83.5 -55q79 0 156 90t125.5 234.5t48.5 292.5q0 233 -134 372.5t-374 139.5q-163 0 -315.5 -70t-264.5 -186.5t-179 -276t-67 -330.5q0 -122 42 -221t115.5 -163t171.5 -98t212 -34q161 0 332 76
l-6 -31q-188 -86 -373 -86zM674 143q159 0 305 146l139 715q-184 0 -335.5 -81t-238.5 -221.5t-87 -310.5q0 -117 58 -182.5t159 -65.5z" />
    <glyph glyph-name="A" unicode="A" horiz-adv-x="1527" 
d="M256 0h-399l4 20l162 54l907 1499h61l363 -1499l135 -54l-4 -20h-400l5 20l151 54l-145 628h-627l-375 -628l166 -54zM918 1458l-412 -694h575z" />
    <glyph glyph-name="B" unicode="B" horiz-adv-x="1312" 
d="M596 0h-616l4 20l163 52l273 1403l-141 61l4 20h561q216 0 335 -84.5t119 -230.5q0 -155 -109.5 -281.5t-283.5 -173.5q150 -26 235 -110t85 -207q0 -131 -82 -238.5t-226.5 -169t-320.5 -61.5zM516 1495l-133 -684h324q225 0 358 119.5t133 320.5q0 244 -375 244h-307z
M371 750l-133 -689h360q227 0 373.5 118.5t146.5 301.5q0 126 -96.5 197.5t-265.5 71.5h-385z" />
    <glyph glyph-name="C" unicode="C" horiz-adv-x="1552" 
d="M709 -23q-125 0 -233 40.5t-188.5 115t-126.5 188.5t-46 254q0 197 79 381.5t209.5 319.5t309.5 216t370 81q103 0 192.5 -23t141.5 -55.5t81.5 -58t35.5 -39.5l-90 -455h-31q19 104 18.5 185t-22.5 143t-56.5 105t-84.5 70t-105 39.5t-119 12.5q-47 0 -99 -6
t-123.5 -24.5t-138.5 -48.5t-139 -82.5t-129.5 -120.5t-105 -169t-71.5 -223q-22 -145 -15 -258t45.5 -198.5t92.5 -145t125.5 -97t144 -54.5t149.5 -17q229 0 425.5 145.5t336.5 417.5h31q-136 -286 -364.5 -462.5t-499.5 -176.5z" />
    <glyph glyph-name="D" unicode="D" horiz-adv-x="1583" 
d="M668 0h-688l4 20l163 54l273 1401l-141 61l4 20h686q282 0 438 -157.5t156 -429.5q0 -205 -68.5 -385t-186.5 -308t-284.5 -202t-355.5 -74zM516 1495l-278 -1434h383q177 0 331 66.5t263.5 182t172 279t62.5 351.5q0 252 -145 403.5t-406 151.5h-383z" />
    <glyph glyph-name="E" unicode="E" horiz-adv-x="1097" 
d="M870 0h-890l4 20l163 54l273 1401l-141 61l4 20h870l10 -317h-20l-84 256h-543l-123 -627h379l86 174h21l-80 -409h-21l-16 174h-379l-145 -746h563l182 256h21z" />
    <glyph glyph-name="F" unicode="F" horiz-adv-x="1044" 
d="M399 0h-419l4 20l163 54l273 1401l-141 61l4 20h870l10 -317h-20l-84 256h-543l-123 -627h379l86 174h21l-80 -409h-21l-16 174h-379l-143 -733l163 -54z" />
    <glyph glyph-name="G" unicode="G" horiz-adv-x="1570" 
d="M725 -23q-285 0 -446.5 164.5t-161.5 438.5q0 202 77 385.5t207.5 316.5t311.5 212t379 79q101 0 188 -22.5t138.5 -54.5t80 -58t35.5 -41l-88 -455h-31q51 266 -39.5 410.5t-339.5 144.5q-176 0 -327 -63t-258 -174.5t-167.5 -269.5t-60.5 -341q0 -268 153.5 -432
t418.5 -164q108 0 204.5 27.5t166 72t121 101t77 115.5t25.5 114q0 30 -10 56t-26 45.5t-43.5 36t-53 27.5t-64 20.5t-68.5 14.5t-74.5 10.5t-73 8t-73.5 6t-67 5.5l6 30h651l-145 -743h-43l51 256q-119 -133 -281 -206t-350 -73z" />
    <glyph glyph-name="H" unicode="H" horiz-adv-x="1490" 
d="M379 0h-399l4 20l163 54l273 1401l-141 61l4 20h399l-4 -20l-166 -61l-121 -625h840l121 625l-142 61l4 20h400l-4 -20l-166 -61l-273 -1401l144 -54l-4 -20h-400l4 20l164 54l140 714h-840l-139 -714l143 -54z" />
    <glyph glyph-name="I" unicode="I" horiz-adv-x="559" 
d="M379 0h-399l4 20l163 54l273 1401l-141 61l4 20h399l-4 -20l-166 -61l-272 -1401l143 -54z" />
    <glyph glyph-name="J" unicode="J" horiz-adv-x="856" 
d="M236 -23q-66 0 -117 16t-84.5 45t-53.5 59t-36 69l243 416h31q-16 -32 -52.5 -100t-51.5 -99.5t-30 -79.5t-15 -88q0 -78 48 -120t138 -42q38 0 68.5 8.5t63.5 33.5t59.5 67.5t51.5 115t44 171.5l198 1026l-141 61l4 20h400l-5 -20l-165 -61l-207 -1061
q-16 -79 -33.5 -138.5t-48.5 -118.5t-71 -96.5t-100.5 -60.5t-137.5 -23z" />
    <glyph glyph-name="K" unicode="K" horiz-adv-x="1153" 
d="M379 0h-399l4 20l163 54l273 1401l-141 61l4 20h399l-4 -20l-166 -61l-139 -717l680 729l-138 49l5 20h399l-4 -20l-205 -49l-553 -596l406 -817l133 -54l-4 -20h-400l4 20l158 54l-375 733l-123 -133l-116 -600l143 -54z" />
    <glyph glyph-name="L" unicode="L" horiz-adv-x="1052" 
d="M870 0h-890l4 20l163 54l273 1401l-141 61l4 20h399l-4 -20l-166 -61l-274 -1414h563l182 256h21z" />
    <glyph glyph-name="M" unicode="M" horiz-adv-x="1755" 
d="M379 0h-399l4 20l163 54l273 1401l-141 61l4 20h247l293 -1441l832 1441h223l-4 -20l-166 -61l-272 -1401l143 -54l-4 -20h-399l4 20l163 54l242 1241l-774 -1315h-61l-273 1286l-235 -1212l141 -54z" />
    <glyph glyph-name="N" unicode="N" horiz-adv-x="1384" 
d="M379 0h-399l4 20l163 54l273 1401l-141 61l4 20h247l494 -1288l236 1207l-142 61l4 20h400l-4 -20l-166 -61l-287 -1475h-51l-520 1370l-252 -1296l141 -54z" />
    <glyph glyph-name="O" unicode="O" horiz-adv-x="1644" 
d="M690 -23q-250 0 -411.5 172.5t-161.5 446.5q0 189 76.5 369t201.5 313t294.5 214t346.5 81q169 0 304.5 -76.5t213.5 -216t78 -317.5q0 -183 -81 -364t-210.5 -317t-302.5 -220.5t-348 -84.5zM750 53q157 0 299.5 69.5t245 187t163 281t60.5 343.5q0 136 -43.5 245.5
t-118 177.5t-169.5 104t-202 36q-159 0 -301 -64.5t-243.5 -176t-160.5 -267t-59 -330.5q0 -142 47 -260t124 -192t169.5 -114t188.5 -40z" />
    <glyph glyph-name="P" unicode="P" horiz-adv-x="1202" 
d="M379 0h-399l4 20l163 54l273 1401l-141 61l4 20h591q117 0 211 -32t154.5 -104t60.5 -175q0 -133 -78.5 -247t-213 -181t-291.5 -67h-346l-131 -676l143 -54zM516 1495l-133 -684h336q211 0 345 123t134 317q0 244 -346 244h-336z" />
    <glyph glyph-name="Q" unicode="Q" horiz-adv-x="1652" 
d="M1061 -244q-68 0 -126.5 23.5t-100.5 57.5t-81 68t-86 57.5t-98 23.5q-89 0 -184.5 -60.5t-153.5 -138.5h-30q48 74 120.5 136t153.5 95q-165 66 -259.5 227t-94.5 380q0 136 38.5 264t105 230.5t156.5 188.5t191.5 143.5t211.5 89.5t216 32q173 0 309 -82.5t210.5 -229
t74.5 -331.5q0 -145 -48 -283.5t-130 -248.5t-188.5 -198t-227.5 -142.5t-243 -71.5q15 -11 49 -39t55.5 -42.5t56.5 -33t75.5 -27t88.5 -8.5q192 0 318 137h30q-78 -97 -187 -157t-222 -60zM754 53q62 0 131 15t144 48.5t145.5 81t134 118t110.5 154.5t75 195.5t28 235.5
q0 128 -30 231t-80 170t-119.5 112t-145 64t-158.5 19q-162 0 -305.5 -70t-243 -186.5t-157.5 -271.5t-58 -322q0 -123 31 -224t83 -168.5t121 -114t143 -67t151 -20.5z" />
    <glyph glyph-name="R" unicode="R" horiz-adv-x="1234" 
d="M379 0h-399l4 20l163 54l273 1401l-141 61l4 20h591q117 0 211 -32t154.5 -104t60.5 -175q0 -142 -80.5 -257t-222.5 -180t-317 -65l278 -669l172 -54l-4 -20h-440l4 20l160 54l-277 669h-202l-131 -669l143 -54zM516 1495l-135 -690h336q209 0 345 125.5t136 320.5
q0 244 -346 244h-336z" />
    <glyph glyph-name="S" unicode="S" horiz-adv-x="1161" 
d="M457 -23q-91 0 -170 22.5t-132.5 59t-88.5 76.5t-52 82l181 399h41q-91 -204 -91 -313q0 -64 24 -114t60 -78.5t85 -47t92 -24.5t88 -6q141 0 259.5 59t186.5 161t68 224q0 51 -19 92.5t-46 68.5t-77.5 53t-90 40.5t-107.5 36.5l-107 35q-38 12 -67 23.5t-72 37t-71 55.5
t-49 78t-21 105q0 89 37 174t102.5 151t164 106t212.5 40q241 0 391 -166l-193 -303h-41q97 147 97 235q0 47 -26 81.5t-68 53t-86.5 27t-90.5 8.5q-182 0 -309 -99.5t-127 -240.5q0 -47 19.5 -86.5t46 -65t68.5 -47.5t72.5 -33.5t72.5 -23.5l84 -24q40 -11 64 -19t67 -25
t71 -34t62.5 -45.5t55 -60t34.5 -75.5t14 -95q0 -151 -82.5 -279.5t-225 -203.5t-310.5 -75z" />
    <glyph glyph-name="T" unicode="T" horiz-adv-x="1343" 
d="M770 0h-399l4 20l164 54l276 1421h-461l-182 -256h-20l133 317h1177l11 -317h-21l-84 256h-461l-276 -1421l143 -54z" />
    <glyph glyph-name="U" unicode="U" horiz-adv-x="1435" 
d="M618 -23q-121 0 -206 32.5t-130.5 86.5t-65 134.5t-16.5 166t23 191.5l172 887l-141 61l4 20h399l-4 -20l-166 -61l-172 -887q-54 -275 33.5 -401t300.5 -126q216 0 334.5 126.5t171.5 400.5l172 887l-141 61l4 20h399l-4 -20l-166 -61l-172 -887q-28 -144 -75 -252.5
t-121.5 -191t-183 -125t-249.5 -42.5z" />
    <glyph glyph-name="V" unicode="V" horiz-adv-x="1452" 
d="M598 0l-315 1487l-138 49l5 20h399l-4 -20l-150 -49l277 -1372l792 1372l-168 49l4 20h400l-4 -20l-162 -49l-875 -1487h-61z" />
    <glyph glyph-name="W" unicode="W" horiz-adv-x="2181" 
d="M532 0h-61l-186 1475l-144 61l4 20h400l-4 -20l-146 -61l158 -1311l711 1392h67l205 -1392l655 1311l-163 61l4 20h399l-4 -20l-172 -61l-742 -1475h-61l-203 1403z" />
    <glyph glyph-name="X" unicode="X" horiz-adv-x="1236" 
d="M295 0h-399l4 20l151 54l574 704l-308 697l-131 61l4 20h400l-4 -20l-158 -61l270 -619l494 619l-180 61l4 20h399l-4 -20l-160 -61l-528 -668l321 -733l127 -54l-4 -20h-399l4 20l162 54l-289 655l-534 -655l188 -54z" />
    <glyph glyph-name="Y" unicode="Y" horiz-adv-x="1257" 
d="M731 0h-399l4 20l164 54l98 501l-324 912l-124 49l4 20h399l-4 -20l-160 -49l299 -825l592 825l-184 49l4 20h399l-4 -20l-154 -49l-649 -899l-100 -514l143 -54z" />
    <glyph glyph-name="Z" unicode="Z" horiz-adv-x="1050" 
d="M838 0h-881l-6 20l1089 1475h-628l-185 -266h-20l135 327h819l6 -20l-1081 -1475h682l182 256h21z" />
    <glyph glyph-name="bracketleft" unicode="[" horiz-adv-x="546" 
d="M414 -123h-351l351 1794h350l-4 -20l-277 -92l-305 -1569l240 -92z" />
    <glyph glyph-name="backslash" unicode="\" horiz-adv-x="1751" 
d="M311 1638l1266 -1882h-61l-1270 1882h65z" />
    <glyph glyph-name="bracketright" unicode="]" horiz-adv-x="546" 
d="M233 -123h-350l4 21l277 92l305 1569l-240 92l4 20h351z" />
    <glyph glyph-name="asciicircum" unicode="^" horiz-adv-x="710" 
d="M174 891h-27q181 333 259 445t131 112q37 0 65.5 -46.5t56.5 -172t52 -338.5h-27q-28 80 -81 240.5t-81 240.5q-54 -74 -169.5 -233.5t-178.5 -247.5z" />
    <glyph glyph-name="underscore" unicode="_" horiz-adv-x="921" 
d="M766 -205h-887l15 78h886z" />
    <glyph glyph-name="grave" unicode="`" horiz-adv-x="567" 
d="M379 1126h-27q-356 290 -356 363q0 22 27 22q25 0 65.5 -31t116.5 -121t174 -233z" />
    <glyph glyph-name="a" unicode="a" horiz-adv-x="966" 
d="M844 752l-129 -670h131l-4 -21l-207 -61h-21l50 254q-16 -32 -47 -73.5t-81 -90.5t-122.5 -82t-149.5 -33q-99 0 -158 56.5t-59 150.5q0 58 18 110t46 91.5t72 74t86 58.5t98.5 45.5t98.5 34.5t97.5 25t84 17t68.5 11l9 1.5t8 1t8 1.5l13 62q14 82 6.5 138t-37.5 90.5
t-68 49.5t-86 15q-131 0 -225 -98t-94 -234q0 -23 4 -51h-31l-30 262q155 168 403 168q158 0 218.5 -73t29.5 -230zM299 37q108 0 208 78.5t165 179.5l63 328q-151 -28 -232 -54q-317 -104 -357 -310q-5 -28 -5 -58q0 -71 40 -117.5t118 -46.5z" />
    <glyph glyph-name="b" unicode="b" horiz-adv-x="974" 
d="M406 -23q-177 0 -261 168l-71 -145h-31l303 1556h-131l4 21l207 61h20l-114 -583q130 0 231.5 -28t164.5 -73.5t104 -108t57 -126t16 -133.5q0 -153 -71 -295t-187 -228t-241 -86zM403 41q109 0 204.5 72t152.5 193t57 259q0 90 -27.5 169.5t-83.5 146t-153 105
t-225 38.5l-166 -838q38 -61 100.5 -103t140.5 -42z" />
    <glyph glyph-name="c" unicode="c" horiz-adv-x="985" 
d="M416 -23q-116 0 -198 54t-120.5 142t-38.5 200q0 132 48 258t127.5 218.5t187.5 149t221 56.5q66 0 123.5 -17t95 -43.5t60.5 -51.5t36 -48l-188 -350h-31q84 152 84 264q0 87 -53 134.5t-156 47.5q-199 0 -334 -160.5t-135 -398.5q0 -173 88 -282t220 -109
q142 0 247 75.5t209 243.5h31q-41 -80 -92 -146.5t-116 -121t-146 -85t-170 -30.5z" />
    <glyph glyph-name="d" unicode="d" horiz-adv-x="974" 
d="M731 0h-82q-131 0 -233.5 26t-166.5 68.5t-105.5 101.5t-57.5 119.5t-16 128.5q0 113 43 225t112 196.5t161 137t185 52.5q167 0 250 -162l129 663h-133l4 21l207 61h21zM655 31l154 796q-37 69 -96 116.5t-140 47.5q-106 0 -202.5 -73t-154.5 -195t-58 -256
q0 -85 27.5 -158t84.5 -134t155.5 -99t229.5 -45z" />
    <glyph glyph-name="e" unicode="e" horiz-adv-x="991" 
d="M420 -23q-91 0 -162 33.5t-113.5 91t-64 129t-21.5 152.5q0 125 49 248.5t128 216t184.5 150t212.5 57.5q163 0 242 -124t40 -323l-6 -30h-755l-2 -13q-27 -144 3.5 -264t113 -190t200.5 -70q245 0 438 319h31q-85 -171 -218.5 -277t-299.5 -106zM176 639h658
q31 160 -27.5 256t-194.5 96q-143 0 -263.5 -100t-172.5 -252z" />
    <glyph glyph-name="f" unicode="f" horiz-adv-x="540" 
d="M295 0h-348l4 20l139 33l178 920h-125l11 51h125l47 240q40 199 114 303t205 104q51 0 95 -16.5t73.5 -43.5t47.5 -50t32 -48l-182 -315h-31q49 85 75 154.5t29.5 118.5t-11 82.5t-44.5 49t-74 15.5q-101 0 -156.5 -85.5t-88.5 -258.5l-50 -250h271l-10 -51h-271
l-178 -920l127 -33z" />
    <glyph glyph-name="g" unicode="g" horiz-adv-x="999" 
d="M170 -424l-174 250l31 18q50 -55 78.5 -84t69 -62.5t78 -48t77.5 -14.5q135 0 212 82t109 260l4 23q-116 -25 -194 -25q-87 0 -156 23.5t-112 62.5t-71.5 93.5t-40 112t-11.5 122.5q0 177 67.5 331t182 244.5t247.5 90.5q52 0 94 -13.5t73 -39t51.5 -51.5t41.5 -62
l27 135h20l183 -61l-4 -21h-131l-160 -825q-17 -87 -31.5 -148t-35 -119t-43 -95t-55.5 -70.5t-71 -52t-92 -32.5t-117 -19t-147 -5zM520 14q56 0 139 17l156 798q-87 162 -240 162q-111 0 -207.5 -78t-153 -210t-56.5 -285q0 -83 20.5 -154t62.5 -128t113.5 -89.5
t165.5 -32.5z" />
    <glyph glyph-name="h" unicode="h" horiz-adv-x="1034" 
d="M285 0h-348l4 20l139 33l293 1503h-133l4 21l207 61h20l-168 -858q16 30 38 61t61.5 71t83.5 70.5t105.5 51.5t127.5 21q249 0 190 -307l-135 -695l127 -33l-4 -20h-348l4 20l139 33l123 633q31 164 -9.5 234.5t-154.5 70.5q-102 0 -210.5 -96.5t-155.5 -212.5l-123 -629
l127 -33z" />
    <glyph glyph-name="i" unicode="i" horiz-adv-x="436" 
d="M362 1313q-32 0 -50.5 18.5t-18.5 48.5q0 42 30.5 73.5t71.5 31.5q32 0 51 -19t19 -49q0 -41 -31 -72.5t-72 -31.5zM295 0h-348l4 20l139 33l172 889h-133l4 21l207 61h20l-188 -971l127 -33z" />
    <glyph glyph-name="j" unicode="j" horiz-adv-x="395" 
d="M352 1313q-32 0 -50.5 18.5t-18.5 48.5q0 42 30.5 73.5t71.5 31.5q32 0 51 -19t19 -49q0 -41 -31 -72.5t-72 -31.5zM-168 -424l-133 201l31 18q116 -157 184 -157q42 0 73.5 56t49.5 148l215 1100h-133l4 21l205 61h20l-225 -1167q-31 -165 -88 -222q-59 -59 -203 -59z
" />
    <glyph glyph-name="k" unicode="k" horiz-adv-x="956" 
d="M285 0h-348l4 20l139 33l293 1503h-133l4 21l207 61h20l-246 -1255l572 580l-179 41l5 20h399l-4 -20l-170 -46l-344 -354l266 -551l115 -33l-4 -20h-400l4 20l174 33l-229 475l-219 -225l-49 -250l127 -33z" />
    <glyph glyph-name="l" unicode="l" horiz-adv-x="425" 
d="M285 0h-348l4 20l139 33l293 1503h-133l4 21l207 61h20l-309 -1585l127 -33z" />
    <glyph glyph-name="m" unicode="m" horiz-adv-x="1574" 
d="M295 0h-348l4 20l139 33l174 893l-135 -4l4 21l207 61h20l-47 -244q17 34 50.5 76t84 89t120 78.5t141.5 31.5q201 0 180 -246q23 40 56.5 79t81 78.5t110 64t129.5 24.5q112 0 163.5 -74t20.5 -233l-135 -695l127 -33l-4 -20h-346l4 20l137 33l123 633q30 159 -9.5 232
t-129.5 73q-97 0 -186.5 -73t-153.5 -185l-134 -680l127 -33l-4 -20h-348l4 20l140 33l122 633q31 160 -5 232.5t-120 72.5q-102 0 -208.5 -94t-155.5 -215l-123 -629l127 -33z" />
    <glyph glyph-name="n" unicode="n" horiz-adv-x="1044" 
d="M295 0h-348l4 20l139 33l172 889h-133l4 21l207 61h20l-47 -246q16 30 38.5 61.5t61.5 71.5t83.5 71t106 52t126.5 21q250 0 191 -307l-136 -695l127 -33l-4 -20h-348l4 20l137 33l123 633q30 159 -16.5 232t-144.5 73q-117 0 -217 -92t-150 -217l-123 -629l127 -33z" />
    <glyph glyph-name="o" unicode="o" horiz-adv-x="1064" 
d="M432 -23q-94 0 -168 36t-117.5 97t-65.5 134.5t-22 154.5q0 123 50 243.5t131 211t189.5 146t219.5 55.5q77 0 139 -23.5t102 -62.5t66.5 -92t38 -109.5t11.5 -118.5q0 -128 -48.5 -251.5t-127 -215.5t-184 -148.5t-214.5 -56.5zM471 41q85 0 167.5 49t143.5 129
t98.5 188t37.5 220q0 102 -32 182.5t-101.5 131t-168.5 50.5q-93 0 -181 -46t-153 -122.5t-104 -179.5t-39 -211q0 -107 37.5 -194.5t114 -142t180.5 -54.5z" />
    <glyph glyph-name="p" unicode="p" horiz-adv-x="1009" 
d="M207 -410h-348l4 21l137 33l254 1298h-133l6 27q149 48 233.5 66t159.5 18q102 0 179.5 -29.5t122 -74t71.5 -107t36 -118t9 -116.5q0 -118 -35 -230t-98.5 -202t-160.5 -144.5t-212 -54.5q-45 0 -82 10t-60 23t-46 38.5t-34 42t-30 48.5l-96 -495l127 -33zM430 41
q81 0 157 39.5t135 109.5t94.5 174t35.5 224q0 87 -19.5 159.5t-61.5 132t-115.5 93t-172.5 33.5q-68 0 -137 -17l-158 -807q95 -141 242 -141z" />
    <glyph glyph-name="q" unicode="q" horiz-adv-x="1001" 
d="M791 -410h-349l4 21l142 33l67 354q-95 -18 -170 -18q-94 0 -168 27t-119.5 69.5t-75 101.5t-41 117.5t-11.5 122.5q0 88 22 178.5t66.5 172.5t104.5 146t142 102t173 38q46 0 83 -11t59.5 -23.5t46 -40.5t33 -43t29.5 -50l25 137h20l183 -61l-4 -21h-133l-248 -1298
l123 -33zM524 27q72 0 140 16l153 786q-85 162 -237 162q-80 0 -156.5 -41.5t-135.5 -112.5t-95.5 -175.5t-36.5 -221.5q0 -88 19.5 -160t61 -130t115 -90.5t172.5 -32.5z" />
    <glyph glyph-name="r" unicode="r" horiz-adv-x="739" 
d="M295 0h-348l4 20l139 33l172 889h-133l4 21l207 61h20l-57 -295h2q25 57 57.5 110.5t75.5 104t96 81t107 30.5q110 0 166 -129l-178 -308h-31q94 174 94 275q0 49 -21 77.5t-61 28.5q-66 0 -139 -81.5t-125.5 -188t-83.5 -211.5l-90 -465l127 -33z" />
    <glyph glyph-name="s" unicode="s" horiz-adv-x="839" 
d="M315 -23q-209 0 -313 166l152 275h28q-63 -116 -63 -213q0 -78 51 -124t158 -46q141 0 245.5 78t104.5 182q0 31 -15.5 57.5t-38.5 45.5t-67 39.5t-83 34.5t-105 36q-100 34 -151.5 87t-51.5 136q0 139 102 231.5t256 92.5q188 0 285 -146l-119 -223h-31q69 138 25 223.5
t-178 85.5q-118 0 -203.5 -66.5t-85.5 -158.5q0 -56 49.5 -94.5t165.5 -75.5q14 -5 54 -17t55 -17t48 -18t47 -22.5t35.5 -27t31 -35.5t17 -43t7.5 -55q0 -164 -118.5 -276t-293.5 -112z" />
    <glyph glyph-name="t" unicode="t" horiz-adv-x="606" 
d="M256 -23q-94 0 -126 69.5t-1 229.5l135 697h-155l4 20l163 31l117 348h31l-68 -348h271l-11 -51h-270l-133 -686q-26 -141 -4.5 -198.5t94.5 -57.5q114 0 207 166h31q-52 -111 -126 -165.5t-159 -54.5z" />
    <glyph glyph-name="u" unicode="u" horiz-adv-x="993" 
d="M301 -23q-42 0 -74 9.5t-58.5 33t-38.5 62t-14 97t15 138.5l121 625h-133l4 21l207 61h20l-133 -680q-59 -303 135 -303q104 0 193 73.5t153 182.5l125 645h-133l4 21l207 61h21l-185 -942h133l-4 -21l-204 -61h-21l41 215q-26 -41 -59.5 -78t-81.5 -75.5t-110.5 -61.5
t-129.5 -23z" />
    <glyph glyph-name="v" unicode="v" horiz-adv-x="1058" 
d="M459 0h-62l-178 956l-139 48l4 20h399l-4 -20l-170 -48l156 -856l463 856l-158 48l4 20h400l-5 -20l-180 -48z" />
    <glyph glyph-name="w" unicode="w" horiz-adv-x="1521" 
d="M389 0h-61l-107 956l-143 48l4 20h399l-4 -20l-166 -48l80 -843l443 911h71l80 -911l412 843l-158 48l4 20h399l-4 -20l-184 -48l-471 -956h-61l-88 924z" />
    <glyph glyph-name="x" unicode="x" horiz-adv-x="974" 
d="M301 0h-399l4 20l131 33l403 463l-211 440l-123 48l5 20h399l-4 -20l-166 -48l178 -368l305 368l-194 48l4 20h399l-4 -20l-145 -48l-344 -415l241 -488l115 -33l-4 -20h-399l4 20l174 33l-205 416l-371 -416l211 -33z" />
    <glyph glyph-name="y" unicode="y" horiz-adv-x="1058" 
d="M-10 -424l-133 203l30 18q30 -43 91 -92t110 -49q38 0 81 32t85 86.5t76 108.5t67 117l-178 956l-139 48l4 20h399l-4 -20l-170 -48l158 -856l461 856l-158 48l4 20h400l-5 -20l-180 -48l-487 -878q-47 -84 -75.5 -133.5t-66.5 -110t-66.5 -94.5t-65 -70t-71.5 -53.5
t-77 -29t-90 -11.5z" />
    <glyph glyph-name="z" unicode="z" horiz-adv-x="833" 
d="M614 0h-645l-6 20l750 943h-381l-195 -267h-20l135 328h584l6 -20l-744 -943h437l192 256h21z" />
    <glyph glyph-name="braceleft" unicode="{" horiz-adv-x="524" 
d="M391 -123h-57q-151 0 -206 72t-28 215l78 401q13 67 -4.5 115.5t-62.5 48.5h-7l19 90h6q37 0 75 41.5t54 122.5l78 401q55 287 348 287h57l-4 -20h-45q-52 0 -94.5 -18.5t-71 -48.5t-51 -75.5t-36.5 -91.5t-25 -104l-58 -289q-20 -102 -61 -164t-94 -76l-2 -20
q29 -8 46.5 -34t21.5 -61.5t2 -71.5t-9 -73l-57 -288q-18 -102 -17.5 -177t41 -118t123.5 -43h45z" />
    <glyph glyph-name="bar" unicode="|" horiz-adv-x="550" 
d="M295 -410h-399l4 21l168 72l358 1843l-135 92l4 20h399l-4 -20l-172 -92l-358 -1843l139 -72z" />
    <glyph glyph-name="braceright" unicode="}" horiz-adv-x="528" 
d="M-55 -123h-58l4 21h46q63 0 111 25.5t80 74t52 105.5t35 133l55 288q21 107 62 167.5t94 72.5l4 20q-47 15 -63.5 75t2.5 165l55 289q11 59 15.5 105t-1 91.5t-22.5 75t-52.5 48t-87.5 18.5h-45l5 20h57q149 0 206 -72t29 -215l-77 -401q-16 -81 7 -122.5t58 -41.5h6
l-16 -90h-6q-36 0 -75.5 -41.5t-55.5 -122.5l-78 -401q-55 -287 -346 -287z" />
    <glyph glyph-name="asciitilde" unicode="~" horiz-adv-x="911" 
d="M139 502h-30q19 86 76.5 135t142.5 49q49 0 92.5 -18t71 -39.5t68.5 -39.5t85 -18q32 0 62 9t59.5 37t40.5 73h31q-22 -87 -81 -135.5t-147 -48.5q-52 0 -96 18t-70 39.5t-64 39.5t-79 18q-31 0 -60.5 -9t-59.5 -37t-42 -73z" />
    <glyph glyph-name="exclamdown" unicode="&#xa1;" horiz-adv-x="466" 
d="M416 1446q-36 0 -58 22t-22 56q0 46 35 80t82 34q36 0 57.5 -20t21.5 -53q0 -47 -35 -83t-81 -36zM129 -23q-41 0 -41 62q0 25 29 161.5t71 319t83 356.5t72.5 305t31.5 132h28q-20 -137 -98.5 -639t-87.5 -551q-16 -83 -37 -114.5t-51 -31.5z" />
    <glyph glyph-name="cent" unicode="&#xa2;" horiz-adv-x="1138" 
d="M588 317q149 0 264.5 78t216.5 242h31q-80 -160 -212.5 -265.5t-305.5 -115.5l-50 -256h-92l49 256q-109 13 -185.5 74.5t-112 152t-35.5 201.5q0 245 151.5 427t388.5 214l64 313h92l-61 -307q74 -1 135 -18t99 -44t60 -50.5t35 -47.5l-209 -350h-30q37 68 52.5 98.5
t32.5 78t17 81.5q0 89 -59 139t-179 50q-229 0 -367 -160t-138 -406q0 -181 94 -283t254 -102z" />
    <glyph glyph-name="sterling" unicode="&#xa3;" horiz-adv-x="1073" 
d="M242 61h536l183 256h20l-133 -317h-891l6 31q255 40 383.5 193t128.5 374q0 61 -8 113v6h-320l13 65h295q-3 12 -16 72.5t-18.5 90t-14.5 82t-13 96.5t-4 85q0 171 83 268t233 97q62 0 118 -20.5t93.5 -51.5t56 -50t28.5 -34l-49 -352h-41q20 84 12.5 165t-33.5 145
t-80 103.5t-126 39.5q-100 0 -163.5 -80t-63.5 -219q0 -54 11 -133.5t21.5 -133t34.5 -170.5h359l-13 -65h-333q10 -62 10 -113q0 -168 -80.5 -313t-222.5 -219z" />
    <glyph glyph-name="currency" unicode="&#xa4;" horiz-adv-x="1136" 
d="M1022 856q0 -118 -43 -219.5t-119 -171.5l125 -193l-43 -30l-123 190q-116 -86 -264 -86q-167 0 -250 113l-225 -217l-31 30l232 226q-39 76 -39 176q0 119 44.5 219.5t123.5 169.5l-160 246l43 30l158 -245q124 84 274 84q120 0 195 -66l235 227l31 -30l-236 -228
q72 -84 72 -225zM322 711q0 -136 73 -218.5t199 -82.5q143 0 241.5 119t98.5 300q0 130 -64.5 207.5t-177.5 77.5q-159 0 -264.5 -112.5t-105.5 -290.5z" />
    <glyph glyph-name="yen" unicode="&#xa5;" horiz-adv-x="1187" 
d="M938 1536l4 20h399l-4 -20l-159 -49l-471 -766h282l-12 -66h-307l-27 -139h307l-12 -65h-307l-78 -398l147 -33l-4 -20h-399l4 20l160 33l78 398h-324l12 65h324l27 137v2h-324l12 66h295l-192 766l-131 49l4 20h379l-5 -20l-155 -49l203 -766l464 766z" />
    <glyph glyph-name="brokenbar" unicode="&#xa6;" horiz-adv-x="569" 
d="M535 778h-400l4 21l168 71l127 656l-135 92l4 20h399l-4 -20l-172 -92l-127 -656l140 -71zM303 -410h-399l4 21l168 72l127 655l-135 92l4 21h399l-4 -21l-172 -92l-127 -655l139 -72z" />
    <glyph glyph-name="section" unicode="&#xa7;" horiz-adv-x="876" 
d="M319 -23q-209 0 -313 166l152 275h30q-23 -42 -44 -101.5t-21 -111.5q0 -78 51 -124t158 -46q141 0 245.5 78t104.5 182q0 31 -16 57.5t-37.5 45t-68 39.5t-82.5 34.5t-105 36.5q-195 66 -195 217q0 107 71.5 192t194.5 123q-143 75 -143 217q0 133 98.5 224.5
t241.5 91.5q176 0 272 -146l-118 -223h-31q68 135 27.5 222t-166.5 87q-112 0 -197.5 -68t-85.5 -157q0 -58 48 -97t149 -73q17 -6 50.5 -16t52.5 -16.5t48 -18t46 -22t37.5 -27t31.5 -35t18.5 -44.5t7.5 -56q0 -110 -59 -202.5t-156 -135.5q115 -67 115 -183
q0 -163 -118.5 -274t-293.5 -111zM543 567q104 25 171.5 96.5t67.5 153.5q0 28 -12 51.5t-29.5 39.5t-48.5 32t-59 26.5t-69 25.5q-23 8 -34 12q-125 0 -217 -70.5t-92 -165.5q0 -55 49 -93t168 -75q13 -4 49 -15.5t56 -17.5z" />
    <glyph glyph-name="dieresis" unicode="&#xa8;" horiz-adv-x="792" 
d="M489 1309q-29 0 -46 16t-17 43q0 40 28 69t66 29q32 0 50 -17t18 -44q0 -40 -29 -68t-70 -28zM756 1309q-29 0 -46.5 16.5t-17.5 42.5q0 40 28 69t66 29q32 0 50 -17t18 -44q0 -40 -28.5 -68t-69.5 -28z" />
    <glyph glyph-name="copyright" unicode="&#xa9;" horiz-adv-x="1800" 
d="M797 -23q-190 0 -340.5 84t-233 230t-82.5 327q0 145 52 287t144.5 259.5t212 208.5t264.5 141.5t292 50.5q142 0 264 -49t207 -134.5t133.5 -204t48.5 -253.5q0 -143 -51.5 -285t-144 -259.5t-212 -209t-264 -142.5t-290.5 -51zM807 35q169 0 333.5 74t286.5 194
t197.5 281.5t75.5 328.5q0 125 -45 235t-124 189t-192.5 124.5t-244.5 45.5q-136 0 -270 -47t-245 -131.5t-196.5 -193t-133.5 -240t-48 -264.5q0 -168 76.5 -304t215.5 -214t314 -78zM862 295q-89 0 -157.5 31.5t-109 85.5t-61 118t-20.5 136q0 111 46.5 218.5t122 187
t177.5 128.5t207 49q64 0 119.5 -16.5t92 -42.5t60 -51t35.5 -49l-188 -351h-31q111 205 76.5 326t-197.5 121q-119 0 -220 -64.5t-159.5 -175t-58.5 -241.5q0 -149 83 -248t214 -99q141 0 247 76.5t208 243.5h30q-83 -170 -216 -276.5t-300 -106.5z" />
    <glyph glyph-name="ordfeminine" unicode="&#xaa;" horiz-adv-x="808" 
d="M340 713q-84 0 -132 45t-48 121q0 69 29 124.5t75.5 93.5t122 68.5t150.5 49.5t178 38l10 50q12 67 6.5 112t-29 72.5t-52.5 39t-66 11.5q-113 0 -189 -95.5t-57 -211.5h-31l-28 209q124 135 325 135q130 0 180 -58.5t25 -183.5l-104 -536h106l-4 -17l-168 -49h-25
l33 172q-19 -29 -45 -58t-65 -61t-90.5 -51.5t-106.5 -19.5zM369 768q81 0 161 66.5t134 150.5l43 221q-2 0 -29 -4.5t-46 -7.5t-54.5 -11t-62.5 -16.5t-63.5 -23t-63 -30.5t-54.5 -39t-45.5 -49t-29 -60t-11.5 -72q0 -55 31 -90t90 -35z" />
    <glyph glyph-name="guillemotleft" unicode="&#xab;" horiz-adv-x="929" 
d="M430 145h-31l-317 381l2 13l465 379h31q-273 -261 -416 -386q84 -114 266 -387zM764 145h-31l-317 381l2 13l465 379h30q-284 -271 -415 -386q84 -114 266 -387z" />
    <glyph glyph-name="logicalnot" unicode="&#xac;" horiz-adv-x="989" 
d="M793 213h-66l66 330h-658l12 65h723z" />
    <glyph glyph-name="uni00AD" unicode="&#xad;" horiz-adv-x="649" 
d="M588 537h-518l14 77h518z" />
    <glyph glyph-name="registered" unicode="&#xae;" horiz-adv-x="1204" 
d="M606 530q-183 0 -299.5 116.5t-116.5 291.5q0 151 86.5 290t228.5 223.5t296 84.5q181 0 297 -116t116 -290q0 -151 -86 -290.5t-227.5 -224.5t-294.5 -85zM616 580q104 0 205 45.5t176 119.5t121.5 173.5t46.5 201.5q0 158 -104.5 262.5t-267.5 104.5q-105 0 -207 -45.5
t-177.5 -119.5t-122 -173.5t-46.5 -202.5q0 -158 105 -262t271 -104zM596 743h-160l4 17l62 18l104 529l-53 36l2 9h252q73 0 111 -34t38 -87q0 -75 -57.5 -131t-136.5 -56l63 -262l72 -22l-4 -17h-178l4 17l51 18l-63 266h-103l-53 -266l49 -18zM655 1317l-45 -238h142
q70 0 111.5 40t41.5 106q0 40 -32 66t-97 26h-121z" />
    <glyph glyph-name="macron" unicode="&#xaf;" horiz-adv-x="798" 
d="M823 1233h-538l14 78h539z" />
    <glyph glyph-name="degree" unicode="&#xb0;" horiz-adv-x="518" 
d="M377 1124q-69 0 -114.5 47.5t-45.5 116.5q0 87 72 153t162 66q67 0 112 -46.5t45 -114.5q0 -86 -72.5 -154t-158.5 -68zM387 1182q61 0 111.5 47t50.5 108q0 48 -31 80.5t-78 32.5q-65 0 -114.5 -46.5t-49.5 -107.5q0 -48 31 -81t80 -33z" />
    <glyph glyph-name="plusminus" unicode="&#xb1;" horiz-adv-x="925" 
d="M578 934l-64 -330h326l-13 -65h-327l-64 -328h-65l63 328h-330l13 65h332l63 330h66zM729 0h-723l12 66h723z" />
    <glyph glyph-name="uni00B2" unicode="&#xb2;" horiz-adv-x="688" 
d="M657 827h-542l4 21q69 12 164.5 74.5t181 147.5t145.5 190t60 192q0 70 -38.5 115t-103.5 45q-94 0 -166.5 -94t-72.5 -267v-12h-37l-4 215q114 191 303 191q35 0 66.5 -7.5t62.5 -25t49.5 -53.5t18.5 -86q0 -49 -13.5 -99t-39.5 -96t-54.5 -87.5t-69.5 -82t-72.5 -70.5
t-75 -63.5t-66 -50t-57 -40t-36.5 -24.5h330l115 133h22z" />
    <glyph glyph-name="uni00B3" unicode="&#xb3;" horiz-adv-x="686" 
d="M375 815q-88 0 -159.5 36t-78.5 93l70 168h39q-41 -89 -41 -143q0 -35 17.5 -61t46.5 -39t58 -19t60 -6q116 0 196.5 79.5t80.5 196.5q0 115 -140 115q-26 0 -74 -13t-79 -32l10 45q299 105 299 262q0 50 -37 80.5t-108 30.5q-93 0 -149 -46t-56 -145q0 -35 6 -88h-39
l-29 170q44 52 119.5 99t163.5 47q82 0 144.5 -35.5t62.5 -102.5q0 -72 -65 -137.5t-183 -112.5q90 13 158.5 -24.5t68.5 -120.5q0 -117 -110.5 -207t-251.5 -90z" />
    <glyph glyph-name="acute" unicode="&#xb4;" horiz-adv-x="452" 
d="M250 1126h-27q97 143 173.5 233t117.5 121t66 31q26 0 26 -22q0 -73 -356 -363z" />
    <glyph glyph-name="uni00B5" unicode="&#xb5;" horiz-adv-x="1062" 
d="M250 -389h-348l4 20l139 33l250 1278h-137l4 21l207 61h20l-131 -680q-16 -85 -14 -152.5t39.5 -109t109.5 -41.5q103 0 193 75t151 181l127 645h-135l4 21l207 61h21l-185 -942h135l-4 -21l-207 -61h-20l41 215q-160 -238 -363 -238q-49 0 -86 20t-65 77l-80 -410
l127 -33z" />
    <glyph glyph-name="paragraph" unicode="&#xb6;" horiz-adv-x="1368" 
d="M1171 0h-796l4 20l160 33l137 705h-80q-86 0 -160.5 19.5t-134 58t-93.5 101.5t-34 144q0 132 75.5 241t208.5 171.5t294 62.5h723l-5 -20l-165 -61l-277 -1422l148 -33zM907 1475l-276 -1422h305l276 1422h-305z" />
    <glyph glyph-name="periodcentered" unicode="&#xb7;" horiz-adv-x="409" 
d="M188 428q-37 0 -58 21.5t-21 56.5q0 47 33.5 81t82.5 34q36 0 58 -23t22 -57q0 -47 -34 -80t-83 -33z" />
    <glyph glyph-name="cedilla" unicode="&#xb8;" horiz-adv-x="440" 
d="M6 -418q-56 0 -110 35l2 16q44 -20 94 -20q64 0 108.5 32.5t44.5 84.5q0 39 -33 65.5t-98 26.5l9 39l127 166h34l-110 -144q67 0 100 -30t33 -78q0 -67 -59 -130t-142 -63z" />
    <glyph glyph-name="uni00B9" unicode="&#xb9;" horiz-adv-x="434" 
d="M428 827h-240l2 11l95 32l133 689l-230 -213l7 24l231 266h160l-2 -10l-97 -39l-139 -717l82 -32z" />
    <glyph glyph-name="ordmasculine" unicode="&#xba;" horiz-adv-x="892" 
d="M487 713q-79 0 -139.5 32t-95.5 85t-52.5 113.5t-17.5 125.5q0 62 19.5 130.5t60 135.5t95.5 120.5t134 86.5t168 33q62 0 112.5 -20.5t83.5 -54.5t55.5 -79.5t32 -93t9.5 -96.5q0 -78 -32.5 -166.5t-89.5 -167.5t-148 -131.5t-195 -52.5zM518 764q89 0 170.5 61.5
t130.5 165.5t49 219q0 133 -61.5 223.5t-171.5 90.5q-156 0 -265.5 -125.5t-109.5 -302.5q0 -137 69.5 -234.5t188.5 -97.5z" />
    <glyph glyph-name="guillemotright" unicode="&#xbb;" horiz-adv-x="929" 
d="M53 145h-30q307 292 417 387q-87 115 -268 386h31l317 -379l-2 -13zM387 145h-31q297 282 418 387q-87 115 -268 386h31l317 -379l-2 -13z" />
    <glyph glyph-name="onequarter" unicode="&#xbc;" horiz-adv-x="1726" 
d="M453 827h-240l2 11l94 32l133 689l-229 -213l6 24l232 266h159l-2 -10l-96 -39l-139 -717l82 -32zM244 0h-62l1385 1556h65zM1536 0h-240l2 10l95 39l30 154h-401l4 20l506 586h162l-2 -10l-97 -39l-100 -510l104 -37l-2 -10h-110l-31 -154l82 -39zM1532 760l-455 -527
h353z" />
    <glyph glyph-name="onehalf" unicode="&#xbd;" horiz-adv-x="1759" 
d="M453 827h-240l2 11l94 32l133 689l-229 -213l6 24l232 266h159l-2 -10l-96 -39l-139 -717l82 -32zM244 0h-62l1385 1556h65zM1563 0h-543l4 20q69 12 164.5 74.5t181 148t145.5 190.5t60 192q0 70 -38 114.5t-103 44.5q-95 0 -167.5 -93.5t-72.5 -266.5v-12h-37l-4 215
q114 190 303 190q35 0 66.5 -7.5t62.5 -25t49.5 -53.5t18.5 -86q0 -45 -12 -90.5t-30.5 -85.5t-47.5 -81.5t-57.5 -74.5t-65.5 -68.5t-66.5 -60.5t-66 -53t-57.5 -42.5t-48.5 -33.5t-32.5 -22h330l115 133h22z" />
    <glyph glyph-name="threequarters" unicode="&#xbe;" horiz-adv-x="1933" 
d="M375 815q-88 0 -159.5 36t-78.5 93l70 168h39q-41 -89 -41 -143q0 -35 17.5 -61t46.5 -39t58 -19t60 -6q116 0 196.5 79.5t80.5 196.5q0 115 -140 115q-26 0 -74 -13t-79 -32l10 45q299 105 299 262q0 50 -37 80.5t-108 30.5q-93 0 -149 -46t-56 -145q0 -35 6 -88h-39
l-29 170q44 52 119.5 99t163.5 47q82 0 144.5 -35.5t62.5 -102.5q0 -72 -65 -137.5t-183 -112.5q90 13 158.5 -24.5t68.5 -120.5q0 -117 -110.5 -207t-251.5 -90zM459 0h-62l1385 1556h65zM1751 0h-240l2 10l95 39l30 154h-401l4 20l506 586h162l-2 -10l-97 -39l-100 -510
l105 -37l-3 -10h-110l-31 -154l82 -39zM1747 760l-455 -527h353z" />
    <glyph glyph-name="questiondown" unicode="&#xbf;" horiz-adv-x="884" 
d="M717 1669q36 0 58 -20.5t22 -53.5q0 -47 -35.5 -82.5t-81.5 -35.5q-36 0 -58 21.5t-22 55.5q0 46 35 80.5t82 34.5zM649 1339h21q-8 -97 -21 -165q-12 -59 -27 -102t-46.5 -90t-63.5 -84.5t-98 -109.5q-45 -50 -72.5 -82t-71 -91.5t-68 -109t-44 -114.5t-19.5 -127
q0 -111 65 -166t161 -55q81 0 145.5 35t106 93.5t68 138.5t36.5 166.5t8 180.5h31l14 -413q-62 -113 -181.5 -190t-260.5 -77q-41 0 -80.5 7t-81 26.5t-72 49.5t-50 80t-19.5 114q0 236 209 461q45 50 100 103t88 83t71 74.5t62 89t48 114t42 160.5z" />
    <glyph glyph-name="Agrave" unicode="&#xc0;" horiz-adv-x="1527" 
d="M1010 1659h-27q-356 290 -356 362q0 23 26 23q25 0 66 -31t117.5 -121t173.5 -233zM256 0h-399l4 20l162 54l907 1499h61l363 -1499l135 -54l-4 -20h-400l5 20l151 54l-145 628h-627l-375 -628l166 -54zM918 1458l-412 -694h575z" />
    <glyph glyph-name="Aacute" unicode="&#xc1;" horiz-adv-x="1527" 
d="M987 1659h-26q98 143 174 233t116.5 121t65.5 31q26 0 26 -23q0 -72 -356 -362zM256 0h-399l4 20l162 54l907 1499h61l363 -1499l135 -54l-4 -20h-400l5 20l151 54l-145 628h-627l-375 -628l166 -54zM918 1458l-412 -694h575z" />
    <glyph glyph-name="Acircumflex" unicode="&#xc2;" horiz-adv-x="1527" 
d="M764 1618h-27q212 279 231 303q62 74 93 81q5 1 10 1q29 0 49.5 -41t75.5 -193q11 -29 17 -46.5t17 -47.5t21 -57h-26q-10 15 -40.5 62t-41.5 64.5t-32 51.5t-34.5 59.5t-25.5 51.5q-28 -34 -68.5 -76t-63.5 -65t-83 -79.5t-72 -68.5zM256 0h-399l4 20l162 54l907 1499
h61l363 -1499l135 -54l-4 -20h-400l5 20l151 54l-145 628h-627l-375 -628l166 -54zM918 1458l-412 -694h575z" />
    <glyph glyph-name="Atilde" unicode="&#xc3;" horiz-adv-x="1527" 
d="M758 1700h-17q27 92 80.5 143t116.5 51q38 0 68.5 -17t47.5 -37t43 -37t56 -17q89 0 150 129h16q-26 -92 -79.5 -143.5t-119.5 -51.5q-38 0 -68.5 17t-47.5 37.5t-42.5 37.5t-54.5 17q-87 0 -149 -129zM256 0h-399l4 20l162 54l907 1499h61l363 -1499l135 -54l-4 -20
h-400l5 20l151 54l-145 628h-627l-375 -628l166 -54zM918 1458l-412 -694h575z" />
    <glyph glyph-name="Adieresis" unicode="&#xc4;" horiz-adv-x="1527" 
d="M827 1739q-29 0 -46 16t-17 43q0 40 28 69t66 29q32 0 50 -17t18 -44q0 -40 -29 -68t-70 -28zM1094 1739q-29 0 -46.5 16.5t-17.5 42.5q0 40 28 69t66 29q32 0 50 -17t18 -44q0 -40 -28.5 -68t-69.5 -28zM256 0h-399l4 20l162 54l907 1499h61l363 -1499l135 -54l-4 -20
h-400l5 20l151 54l-145 628h-627l-375 -628l166 -54zM918 1458l-412 -694h575z" />
    <glyph glyph-name="Aring" unicode="&#xc5;" horiz-adv-x="1527" 
d="M1006 1704q-60 0 -99 40.5t-39 98.5q0 76 62 133.5t139 57.5q58 0 96.5 -40.5t38.5 -99.5q0 -74 -61.5 -132t-136.5 -58zM1014 1751q53 0 98 41.5t45 93.5q0 41 -28 71t-68 30q-56 0 -99.5 -41t-43.5 -95q0 -42 27 -71t69 -29zM256 0h-399l4 20l162 54l907 1499h61
l363 -1499l135 -54l-4 -20h-400l5 20l151 54l-145 628h-627l-375 -628l166 -54zM918 1458l-412 -694h575z" />
    <glyph glyph-name="AE" unicode="&#xc6;" horiz-adv-x="1748" 
d="M250 0h-400l5 20l155 54l1069 1482h725l11 -317h-21l-84 256h-543l-123 -627h379l86 174h21l-80 -409h-20l-17 174h-379l-145 -746h563l182 256h21l-133 -317h-891l4 20l164 54l123 628h-392l-448 -628l172 -54zM1067 1450l-492 -686h359z" />
    <glyph glyph-name="Ccedilla" unicode="&#xc7;" horiz-adv-x="1552" 
d="M1542 616h31q-131 -273 -347 -447t-472 -189l-74 -97q67 0 100 -30t33 -78q0 -67 -59 -130t-142 -63q-56 0 -110 35l2 16q44 -20 94 -20q64 0 109 32.5t45 84.5q0 39 -33 65.5t-98 26.5l8 39l90 116h-10q-125 0 -233 40.5t-188.5 115t-126.5 188.5t-46 254
q0 197 79 381.5t209.5 319.5t309.5 216t370 81q103 0 192.5 -23t141.5 -55.5t81.5 -58t35.5 -39.5l-90 -455h-31q19 104 18.5 185t-22.5 143t-56.5 105t-84.5 70t-105 39.5t-119 12.5q-47 0 -99 -6t-123.5 -24.5t-138.5 -48.5t-139 -82.5t-129.5 -120.5t-105 -169
t-71.5 -223q-22 -145 -15 -258t45.5 -198.5t92.5 -145t125.5 -97t144 -54.5t149.5 -17q229 0 425.5 145.5t336.5 417.5z" />
    <glyph glyph-name="Egrave" unicode="&#xc8;" horiz-adv-x="1097" 
d="M799 1659h-27q-356 290 -356 362q0 23 26 23q25 0 66 -31t117.5 -121t173.5 -233zM870 0h-890l4 20l163 54l273 1401l-141 61l4 20h870l10 -317h-20l-84 256h-543l-123 -627h379l86 174h21l-80 -409h-21l-16 174h-379l-145 -746h563l182 256h21z" />
    <glyph glyph-name="Eacute" unicode="&#xc9;" horiz-adv-x="1097" 
d="M776 1659h-26q98 143 174 233t116.5 121t65.5 31q27 0 27 -23q0 -71 -357 -362zM870 0h-890l4 20l163 54l273 1401l-141 61l4 20h870l10 -317h-20l-84 256h-543l-123 -627h379l86 174h21l-80 -409h-21l-16 174h-379l-145 -746h563l182 256h21z" />
    <glyph glyph-name="Ecircumflex" unicode="&#xca;" horiz-adv-x="1097" 
d="M553 1618h-27q212 279 231 303q62 74 93 81q5 1 10 1q29 0 49.5 -41t75.5 -193q11 -29 17 -46.5t17 -47.5t21 -57h-26q-10 15 -40.5 62t-41.5 64.5t-32 51.5t-34.5 59.5t-25.5 51.5q-28 -34 -68.5 -76t-63.5 -65t-83 -79.5t-72 -68.5zM870 0h-890l4 20l163 54l273 1401
l-141 61l4 20h870l10 -317h-20l-84 256h-543l-123 -627h379l86 174h21l-80 -409h-21l-16 174h-379l-145 -746h563l182 256h21z" />
    <glyph glyph-name="Edieresis" unicode="&#xcb;" horiz-adv-x="1097" 
d="M614 1739q-29 0 -46 16t-17 43q0 40 28 69t66 29q32 0 50 -17t18 -44q0 -40 -29 -68t-70 -28zM881 1739q-29 0 -46.5 16.5t-17.5 42.5q0 40 28 69t66 29q32 0 50 -17t18 -44q0 -40 -28.5 -68t-69.5 -28zM870 0h-890l4 20l163 54l273 1401l-141 61l4 20h870l10 -317h-20
l-84 256h-543l-123 -627h379l86 174h21l-80 -409h-21l-16 174h-379l-145 -746h563l182 256h21z" />
    <glyph glyph-name="Igrave" unicode="&#xcc;" horiz-adv-x="559" 
d="M518 1659h-26q-357 291 -357 362q0 23 27 23q25 0 65.5 -31t116.5 -121t174 -233zM379 0h-399l4 20l163 54l273 1401l-141 61l4 20h399l-4 -20l-166 -61l-272 -1401l143 -54z" />
    <glyph glyph-name="Iacute" unicode="&#xcd;" horiz-adv-x="559" 
d="M496 1659h-27q98 143 174 233t116.5 121t65.5 31q27 0 27 -23q0 -72 -356 -362zM379 0h-399l4 20l163 54l273 1401l-141 61l4 20h399l-4 -20l-166 -61l-272 -1401l143 -54z" />
    <glyph glyph-name="Icircumflex" unicode="&#xce;" horiz-adv-x="559" 
d="M272 1618h-26q212 279 231 303q62 74 93 81q5 1 10 1q29 0 49.5 -41t75.5 -193q11 -29 17 -46.5t17 -47.5t21 -57h-27q-10 15 -40.5 62t-41.5 64.5t-32 51.5t-34.5 59.5t-25.5 51.5q-28 -34 -68.5 -76t-63.5 -65t-83 -79.5t-72 -68.5zM379 0h-399l4 20l163 54l273 1401
l-141 61l4 20h399l-4 -20l-166 -61l-272 -1401l143 -54z" />
    <glyph glyph-name="Idieresis" unicode="&#xcf;" horiz-adv-x="559" 
d="M375 1739q-29 0 -46.5 16.5t-17.5 42.5q0 40 28.5 69t66.5 29q31 0 49 -17t18 -44q0 -40 -28.5 -68t-69.5 -28zM641 1739q-29 0 -46 16t-17 43q0 40 28 69t66 29q31 0 49 -17t18 -44q0 -40 -28.5 -68t-69.5 -28zM379 0h-399l4 20l163 54l273 1401l-141 61l4 20h399
l-4 -20l-166 -61l-272 -1401l143 -54z" />
    <glyph glyph-name="Eth" unicode="&#xd0;" horiz-adv-x="1583" 
d="M283 1556h686q282 0 438 -157.5t156 -429.5q0 -205 -68.5 -385t-186.5 -308t-284.5 -202t-355.5 -74h-688l4 20l163 54l132 678h-134l11 51h133l131 672l-141 61zM238 61h383q177 0 331 66.5t263.5 182t172 279t62.5 351.5q0 252 -145 403.5t-406 151.5h-383l-135 -692
h272l-10 -51h-272z" />
    <glyph glyph-name="Ntilde" unicode="&#xd1;" horiz-adv-x="1384" 
d="M643 1700h-16q27 92 80 143t116 51q38 0 68.5 -17t47.5 -37t43 -37t56 -17q88 0 150 129h16q-26 -92 -79 -143.5t-119 -51.5q-38 0 -68.5 17t-47.5 37.5t-42.5 37.5t-54.5 17q-42 0 -81 -33t-69 -96zM379 0h-399l4 20l163 54l273 1401l-141 61l4 20h247l494 -1288
l236 1207l-142 61l4 20h400l-4 -20l-166 -61l-287 -1475h-51l-520 1370l-252 -1296l141 -54z" />
    <glyph glyph-name="Ograve" unicode="&#xd2;" horiz-adv-x="1644" 
d="M1061 1659h-27q-356 290 -356 362q0 23 27 23q25 0 65.5 -31t116.5 -121t174 -233zM690 -23q-250 0 -411.5 172.5t-161.5 446.5q0 189 76.5 369t201.5 313t294.5 214t346.5 81q169 0 304.5 -76.5t213.5 -216t78 -317.5q0 -183 -81 -364t-210.5 -317t-302.5 -220.5
t-348 -84.5zM750 53q157 0 299.5 69.5t245 187t163 281t60.5 343.5q0 136 -43.5 245.5t-118 177.5t-169.5 104t-202 36q-159 0 -301 -64.5t-243.5 -176t-160.5 -267t-59 -330.5q0 -142 47 -260t124 -192t169.5 -114t188.5 -40z" />
    <glyph glyph-name="Oacute" unicode="&#xd3;" horiz-adv-x="1644" 
d="M1038 1659h-26q98 143 174 233t116.5 121t65.5 31q27 0 27 -23q0 -71 -357 -362zM690 -23q-250 0 -411.5 172.5t-161.5 446.5q0 189 76.5 369t201.5 313t294.5 214t346.5 81q169 0 304.5 -76.5t213.5 -216t78 -317.5q0 -183 -81 -364t-210.5 -317t-302.5 -220.5
t-348 -84.5zM750 53q157 0 299.5 69.5t245 187t163 281t60.5 343.5q0 136 -43.5 245.5t-118 177.5t-169.5 104t-202 36q-159 0 -301 -64.5t-243.5 -176t-160.5 -267t-59 -330.5q0 -142 47 -260t124 -192t169.5 -114t188.5 -40z" />
    <glyph glyph-name="Ocircumflex" unicode="&#xd4;" horiz-adv-x="1644" 
d="M815 1618h-27q212 279 231 303q62 74 93 81q5 1 10 1q30 0 52 -44.5t77 -196.5q32 -89 52 -144h-27q-10 15 -40.5 62t-41.5 64.5t-32 51.5t-34.5 59.5t-25.5 51.5q-28 -34 -68.5 -76t-63.5 -65t-83 -79.5t-72 -68.5zM690 -23q-250 0 -411.5 172.5t-161.5 446.5
q0 189 76.5 369t201.5 313t294.5 214t346.5 81q169 0 304.5 -76.5t213.5 -216t78 -317.5q0 -183 -81 -364t-210.5 -317t-302.5 -220.5t-348 -84.5zM750 53q157 0 299.5 69.5t245 187t163 281t60.5 343.5q0 136 -43.5 245.5t-118 177.5t-169.5 104t-202 36q-159 0 -301 -64.5
t-243.5 -176t-160.5 -267t-59 -330.5q0 -142 47 -260t124 -192t169.5 -114t188.5 -40z" />
    <glyph glyph-name="Otilde" unicode="&#xd5;" horiz-adv-x="1644" 
d="M809 1700h-16q27 92 80 143t116 51q38 0 68.5 -17t47.5 -37t43 -37t56 -17q88 0 150 129h16q-26 -92 -79.5 -143.5t-119.5 -51.5q-38 0 -68.5 17t-47.5 37.5t-42.5 37.5t-54.5 17q-88 0 -149 -129zM690 -23q-250 0 -411.5 172.5t-161.5 446.5q0 189 76.5 369t201.5 313
t294.5 214t346.5 81q169 0 304.5 -76.5t213.5 -216t78 -317.5q0 -183 -81 -364t-210.5 -317t-302.5 -220.5t-348 -84.5zM750 53q157 0 299.5 69.5t245 187t163 281t60.5 343.5q0 136 -43.5 245.5t-118 177.5t-169.5 104t-202 36q-159 0 -301 -64.5t-243.5 -176t-160.5 -267
t-59 -330.5q0 -142 47 -260t124 -192t169.5 -114t188.5 -40z" />
    <glyph glyph-name="Odieresis" unicode="&#xd6;" horiz-adv-x="1644" 
d="M879 1739q-29 0 -46.5 16.5t-17.5 42.5q0 40 28 69t66 29q32 0 50 -17t18 -44q0 -40 -28.5 -68t-69.5 -28zM1145 1739q-29 0 -46.5 16.5t-17.5 42.5q0 40 28.5 69t66.5 29q31 0 49 -17t18 -44q0 -40 -28.5 -68t-69.5 -28zM690 -23q-250 0 -411.5 172.5t-161.5 446.5
q0 189 76.5 369t201.5 313t294.5 214t346.5 81q169 0 304.5 -76.5t213.5 -216t78 -317.5q0 -183 -81 -364t-210.5 -317t-302.5 -220.5t-348 -84.5zM750 53q157 0 299.5 69.5t245 187t163 281t60.5 343.5q0 136 -43.5 245.5t-118 177.5t-169.5 104t-202 36q-159 0 -301 -64.5
t-243.5 -176t-160.5 -267t-59 -330.5q0 -142 47 -260t124 -192t169.5 -114t188.5 -40z" />
    <glyph glyph-name="multiply" unicode="&#xd7;" horiz-adv-x="782" 
d="M403 575l-278 -233l-39 45l279 234l-189 233l57 45l189 -231l276 231l35 -47l-276 -231l186 -232l-53 -47z" />
    <glyph glyph-name="Oslash" unicode="&#xd8;" horiz-adv-x="1644" 
d="M1565 1559l-119 -142q89 -81 137.5 -197t48.5 -257q0 -183 -81 -364t-210.5 -317t-302.5 -220.5t-348 -84.5q-205 0 -352 119l-135 -162h-74l166 199q-85 83 -131.5 202t-46.5 261q0 189 76.5 369t201.5 313t294.5 214t346.5 81q209 0 367 -117l86 103h76zM221 659
q0 -265 154 -432l960 1147q-144 123 -350 123q-159 0 -301 -64.5t-243.5 -176t-160.5 -267t-59 -330.5zM750 53q157 0 299.5 69.5t245 187t163 281t60.5 343.5q0 249 -142 401l-962 -1149q148 -133 336 -133z" />
    <glyph glyph-name="Ugrave" unicode="&#xd9;" horiz-adv-x="1435" 
d="M958 1659h-26q-357 291 -357 362q0 23 27 23q25 0 65.5 -31t116.5 -121t174 -233zM618 -23q-121 0 -206 32.5t-130.5 86.5t-65 134.5t-16.5 166t23 191.5l172 887l-141 61l4 20h399l-4 -20l-166 -61l-172 -887q-54 -275 33.5 -401t300.5 -126q216 0 334.5 126.5
t171.5 400.5l172 887l-141 61l4 20h399l-4 -20l-166 -61l-172 -887q-28 -144 -75 -252.5t-121.5 -191t-183 -125t-249.5 -42.5z" />
    <glyph glyph-name="Uacute" unicode="&#xda;" horiz-adv-x="1435" 
d="M936 1659h-27q97 143 173.5 233t117.5 121t66 31q26 0 26 -23q0 -72 -356 -362zM618 -23q-121 0 -206 32.5t-130.5 86.5t-65 134.5t-16.5 166t23 191.5l172 887l-141 61l4 20h399l-4 -20l-166 -61l-172 -887q-54 -275 33.5 -401t300.5 -126q216 0 334.5 126.5
t171.5 400.5l172 887l-141 61l4 20h399l-4 -20l-166 -61l-172 -887q-28 -144 -75 -252.5t-121.5 -191t-183 -125t-249.5 -42.5z" />
    <glyph glyph-name="Ucircumflex" unicode="&#xdb;" horiz-adv-x="1435" 
d="M713 1618h-27q212 279 231 303q62 74 93 81q5 1 10 1q29 0 49.5 -41t75.5 -193q11 -29 17 -46.5t17 -47.5t21 -57h-26q-13 20 -40.5 62t-41.5 63.5t-33.5 53t-33.5 58t-26 52.5q-23 -27 -49 -55.5t-59.5 -62t-54.5 -54t-64.5 -62t-58.5 -55.5zM618 -23q-121 0 -206 32.5
t-130.5 86.5t-65 134.5t-16.5 166t23 191.5l172 887l-141 61l4 20h399l-4 -20l-166 -61l-172 -887q-54 -275 33.5 -401t300.5 -126q216 0 334.5 126.5t171.5 400.5l172 887l-141 61l4 20h399l-4 -20l-166 -61l-172 -887q-28 -144 -75 -252.5t-121.5 -191t-183 -125
t-249.5 -42.5z" />
    <glyph glyph-name="Udieresis" unicode="&#xdc;" horiz-adv-x="1435" 
d="M776 1739q-29 0 -46 16t-17 43q0 40 28 69t66 29q31 0 49 -17t18 -44q0 -40 -28.5 -68t-69.5 -28zM1042 1739q-29 0 -46 16t-17 43q0 40 28 69t66 29q32 0 50 -17t18 -44q0 -40 -29 -68t-70 -28zM618 -23q-121 0 -206 32.5t-130.5 86.5t-65 134.5t-16.5 166t23 191.5
l172 887l-141 61l4 20h399l-4 -20l-166 -61l-172 -887q-54 -275 33.5 -401t300.5 -126q216 0 334.5 126.5t171.5 400.5l172 887l-141 61l4 20h399l-4 -20l-166 -61l-172 -887q-28 -144 -75 -252.5t-121.5 -191t-183 -125t-249.5 -42.5z" />
    <glyph glyph-name="Yacute" unicode="&#xdd;" horiz-adv-x="1257" 
d="M840 1659h-27q98 143 174 233t116.5 121t65.5 31q27 0 27 -23q0 -72 -356 -362zM731 0h-399l4 20l164 54l98 501l-324 912l-124 49l4 20h399l-4 -20l-160 -49l299 -825l592 825l-184 49l4 20h399l-4 -20l-154 -49l-649 -899l-100 -514l143 -54z" />
    <glyph glyph-name="Thorn" unicode="&#xde;" horiz-adv-x="1232" 
d="M379 0h-399l4 20l163 54l273 1401l-141 61l4 20h399l-4 -20l-166 -61l-47 -246h346q117 0 211 -32t154.5 -104t60.5 -175q0 -133 -78 -245.5t-212 -177.5t-292 -65h-346l-69 -356l143 -54zM457 1188l-140 -717h336q207 0 344.5 129.5t137.5 325.5q0 129 -90 195.5
t-252 66.5h-336z" />
    <glyph glyph-name="germandbls" unicode="&#xdf;" horiz-adv-x="1116" 
d="M666 -23q-106 0 -185 54t-112 112l151 275h31q-66 -121 -66 -211q0 -77 48.5 -124.5t144.5 -47.5q128 0 209.5 76.5t81.5 197.5q0 36 -11.5 67t-25.5 50t-40.5 39.5t-41 29t-43.5 23.5q-45 24 -70.5 38t-59 38t-51 45.5t-30 51.5t-12.5 65q0 57 16 102t41 75t55.5 57
t61 56t55.5 63.5t41 87t16 118.5q0 124 -67 213.5t-180 89.5q-84 0 -131.5 -58t-73.5 -194l-266 -1366h-215l4 20l139 33l254 1303q15 77 36.5 132t55.5 98t84.5 64t118.5 21q149 0 232 -93.5t83 -227.5q0 -70 -16.5 -127.5t-43 -96t-58 -70.5t-63.5 -58t-58.5 -52
t-43 -60.5t-16.5 -74.5q0 -25 12 -47t26.5 -38t51 -38.5t60 -35t77.5 -40.5q85 -43 126.5 -93t41.5 -134q0 -170 -108.5 -289t-265.5 -119z" />
    <glyph glyph-name="agrave" unicode="&#xe0;" horiz-adv-x="966" 
d="M602 1126h-27q-356 290 -356 363q0 22 27 22q25 0 65.5 -31t116.5 -121t174 -233zM844 752l-129 -670h131l-4 -21l-207 -61h-21l50 254q-16 -32 -47 -73.5t-81 -90.5t-122.5 -82t-149.5 -33q-99 0 -158 56.5t-59 150.5q0 58 18 110t46 91.5t72 74t86 58.5t98.5 45.5
t98.5 34.5t97.5 25t84 17t68.5 11l9 1.5t8 1t8 1.5l13 62q14 82 6.5 138t-37.5 90.5t-68 49.5t-86 15q-131 0 -225 -98t-94 -234q0 -23 4 -51h-31l-30 262q155 168 403 168q158 0 218.5 -73t29.5 -230zM299 37q108 0 208 78.5t165 179.5l63 328q-151 -28 -232 -54
q-317 -104 -357 -310q-5 -28 -5 -58q0 -71 40 -117.5t118 -46.5z" />
    <glyph glyph-name="aacute" unicode="&#xe1;" horiz-adv-x="966" 
d="M936 1489q0 -73 -356 -363h-27q98 143 174 233t116.5 121t65.5 31q27 0 27 -22zM596 1055q158 0 218.5 -73t29.5 -230l-129 -670h131l-4 -21l-207 -61h-21l50 254q-16 -32 -47 -73.5t-81 -90.5t-122.5 -82t-149.5 -33q-99 0 -158 56.5t-59 150.5q0 58 18 110t46 91.5
t72 74t86 58.5t98.5 45.5t98.5 34.5t97.5 25t84 17t68.5 11l9 1.5t8 1t8 1.5l13 62q14 82 6.5 138t-37.5 90.5t-68 49.5t-86 15q-131 0 -225 -98t-94 -234q0 -23 4 -51h-31l-30 262q155 168 403 168zM672 295l63 328q-151 -28 -232 -54q-317 -104 -357 -310q-5 -28 -5 -58
q0 -71 40 -117.5t118 -46.5q108 0 208 78.5t165 179.5z" />
    <glyph glyph-name="acircumflex" unicode="&#xe2;" horiz-adv-x="966" 
d="M643 1374q-28 -34 -68.5 -76t-63.5 -65t-83 -79.5t-72 -68.5h-26q212 279 231 303q62 74 93 81q5 1 10 1q29 0 49.5 -41t75.5 -193q11 -29 17 -46.5t17 -47.5t21 -57h-27q-10 15 -40.5 62t-41.5 64.5t-32 51.5t-34.5 59.5t-25.5 51.5zM844 752l-129 -670h131l-4 -21
l-207 -61h-21l50 254q-16 -32 -47 -73.5t-81 -90.5t-122.5 -82t-149.5 -33q-99 0 -158 56.5t-59 150.5q0 58 18 110t46 91.5t72 74t86 58.5t98.5 45.5t98.5 34.5t97.5 25t84 17t68.5 11l9 1.5t8 1t8 1.5l13 62q14 82 6.5 138t-37.5 90.5t-68 49.5t-86 15q-131 0 -225 -98
t-94 -234q0 -23 4 -51h-31l-30 262q155 168 403 168q158 0 218.5 -73t29.5 -230zM299 37q108 0 208 78.5t165 179.5l63 328q-151 -28 -232 -54q-317 -104 -357 -310q-5 -28 -5 -58q0 -71 40 -117.5t118 -46.5z" />
    <glyph glyph-name="atilde" unicode="&#xe3;" horiz-adv-x="966" 
d="M500 1296q-88 0 -150 -129h-16q27 92 80 143.5t116 51.5q31 0 56.5 -11t42.5 -27t33.5 -32.5t37 -27.5t45.5 -11q89 0 150 129h16q-26 -92 -79 -143t-119 -51q-38 0 -68.5 17t-47.5 37t-42.5 37t-54.5 17zM596 1055q158 0 218.5 -73t29.5 -230l-129 -670h131l-4 -21
l-207 -61h-21l50 254q-16 -32 -47 -73.5t-81 -90.5t-122.5 -82t-149.5 -33q-99 0 -158 56.5t-59 150.5q0 58 18 110t46 91.5t72 74t86 58.5t98.5 45.5t98.5 34.5t97.5 25t84 17t68.5 11l9 1.5t8 1t8 1.5l13 62q14 82 6.5 138t-37.5 90.5t-68 49.5t-86 15q-131 0 -225 -98
t-94 -234q0 -23 4 -51h-31l-30 262q155 168 403 168zM672 295l63 328q-151 -28 -232 -54q-317 -104 -357 -310q-5 -28 -5 -58q0 -71 40 -117.5t118 -46.5q108 0 208 78.5t165 179.5z" />
    <glyph glyph-name="adieresis" unicode="&#xe4;" horiz-adv-x="966" 
d="M467 1309q-29 0 -46.5 16.5t-17.5 42.5q0 40 28.5 69t66.5 29q31 0 49 -17t18 -44q0 -40 -28.5 -68t-69.5 -28zM733 1309q-29 0 -46 16t-17 43q0 40 28 69t66 29q31 0 49 -17t18 -44q0 -40 -28.5 -68t-69.5 -28zM844 752l-129 -670h131l-4 -21l-207 -61h-21l50 254
q-16 -32 -47 -73.5t-81 -90.5t-122.5 -82t-149.5 -33q-99 0 -158 56.5t-59 150.5q0 58 18 110t46 91.5t72 74t86 58.5t98.5 45.5t98.5 34.5t97.5 25t84 17t68.5 11l9 1.5t8 1t8 1.5l13 62q14 82 6.5 138t-37.5 90.5t-68 49.5t-86 15q-131 0 -225 -98t-94 -234q0 -23 4 -51
h-31l-30 262q155 168 403 168q158 0 218.5 -73t29.5 -230zM299 37q108 0 208 78.5t165 179.5l63 328q-151 -28 -232 -54q-317 -104 -357 -310q-5 -28 -5 -58q0 -71 40 -117.5t118 -46.5z" />
    <glyph glyph-name="aring" unicode="&#xe5;" horiz-adv-x="966" 
d="M598 1171q-60 0 -98.5 41t-38.5 99q0 76 61.5 133t139.5 57q58 0 96.5 -40t38.5 -99q0 -74 -62 -132.5t-137 -58.5zM653 1454q-56 0 -99.5 -40.5t-43.5 -94.5q0 -42 27 -71t69 -29q53 0 98.5 41.5t45.5 93.5q0 41 -28.5 70.5t-68.5 29.5zM844 752l-129 -670h131l-4 -21
l-207 -61h-21l50 254q-16 -32 -47 -73.5t-81 -90.5t-122.5 -82t-149.5 -33q-99 0 -158 56.5t-59 150.5q0 58 18 110t46 91.5t72 74t86 58.5t98.5 45.5t98.5 34.5t97.5 25t84 17t68.5 11l9 1.5t8 1t8 1.5l13 62q14 82 6.5 138t-37.5 90.5t-68 49.5t-86 15q-131 0 -225 -98
t-94 -234q0 -23 4 -51h-31l-30 262q155 168 403 168q158 0 218.5 -73t29.5 -230zM299 37q108 0 208 78.5t165 179.5l63 328q-151 -28 -232 -54q-317 -104 -357 -310q-5 -28 -5 -58q0 -71 40 -117.5t118 -46.5z" />
    <glyph glyph-name="ae" unicode="&#xe6;" horiz-adv-x="1646" 
d="M264 -23q-102 0 -160.5 56t-58.5 149q0 366 670 467q17 3 24 4l13 62q14 82 6.5 138t-37.5 90.5t-68 49.5t-86 15q-131 0 -225 -98t-94 -234q0 -27 4 -51h-31l-31 262q155 168 404 168q140 0 204.5 -59t51.5 -191q84 118 199 184t237 66q166 0 245.5 -123.5t39.5 -323.5
l-6 -30h-756l-2 -13q-37 -223 50.5 -373.5t264.5 -150.5q246 0 439 319h30q-85 -171 -219 -277t-297 -106q-141 0 -224.5 77.5t-117.5 203.5q-246 -281 -469 -281zM829 639h658q31 161 -27 256.5t-194 95.5q-143 0 -264 -100.5t-173 -251.5zM297 37q171 0 365 217l71 369
q-2 0 -35 -6.5t-57 -11.5t-70 -17t-81.5 -24t-82.5 -32t-82 -42t-72 -53t-60.5 -65t-38.5 -78t-15 -93q0 -71 40 -117.5t118 -46.5z" />
    <glyph glyph-name="ccedilla" unicode="&#xe7;" horiz-adv-x="985" 
d="M453 41q142 0 247 75.5t209 243.5h31q-84 -166 -212 -271.5t-294 -111.5l-74 -94q67 0 100.5 -30.5t33.5 -77.5q0 -67 -59 -130t-142 -63q-57 0 -111 35l2 16q44 -20 95 -20q64 0 108.5 32.5t44.5 84.5q0 39 -33 65.5t-98 26.5l8 39l90 116q-165 6 -252.5 117t-87.5 279
q0 132 48 258t127.5 218.5t187.5 149t221 56.5q66 0 123.5 -17t95 -43.5t60.5 -51.5t36 -48l-188 -350h-31q84 152 84 264q0 87 -53 134.5t-156 47.5q-199 0 -334 -160.5t-135 -398.5q0 -173 88 -282t220 -109z" />
    <glyph glyph-name="egrave" unicode="&#xe8;" horiz-adv-x="991" 
d="M645 1126h-27q-356 290 -356 363q0 22 27 22q25 0 65.5 -31t116.5 -121t174 -233zM420 -23q-91 0 -162 33.5t-113.5 91t-64 129t-21.5 152.5q0 125 49 248.5t128 216t184.5 150t212.5 57.5q163 0 242 -124t40 -323l-6 -30h-755l-2 -13q-27 -144 3.5 -264t113 -190
t200.5 -70q245 0 438 319h31q-85 -171 -218.5 -277t-299.5 -106zM176 639h658q31 160 -27.5 256t-194.5 96q-143 0 -263.5 -100t-172.5 -252z" />
    <glyph glyph-name="eacute" unicode="&#xe9;" horiz-adv-x="991" 
d="M623 1126h-27q98 143 174 233t116.5 121t65.5 31q27 0 27 -22q0 -73 -356 -363zM420 -23q-91 0 -162 33.5t-113.5 91t-64 129t-21.5 152.5q0 125 49 248.5t128 216t184.5 150t212.5 57.5q163 0 242 -124t40 -323l-6 -30h-755l-2 -13q-27 -144 3.5 -264t113 -190
t200.5 -70q245 0 438 319h31q-85 -171 -218.5 -277t-299.5 -106zM176 639h658q31 160 -27.5 256t-194.5 96q-143 0 -263.5 -100t-172.5 -252z" />
    <glyph glyph-name="ecircumflex" unicode="&#xea;" horiz-adv-x="991" 
d="M399 1085h-26q212 279 231 303q62 74 93 81q5 1 10 1q29 0 49.5 -41t75.5 -193q11 -29 17 -46.5t17 -47.5t21 -57h-27q-10 15 -40.5 62t-41.5 64.5t-32 51.5t-34.5 59.5t-25.5 51.5q-28 -34 -68.5 -76t-63.5 -65t-83 -79.5t-72 -68.5zM420 -23q-91 0 -162 33.5t-113.5 91
t-64 129t-21.5 152.5q0 125 49 248.5t128 216t184.5 150t212.5 57.5q163 0 242 -124t40 -323l-6 -30h-755l-2 -13q-27 -144 3.5 -264t113 -190t200.5 -70q245 0 438 319h31q-85 -171 -218.5 -277t-299.5 -106zM176 639h658q31 160 -27.5 256t-194.5 96q-143 0 -263.5 -100
t-172.5 -252z" />
    <glyph glyph-name="edieresis" unicode="&#xeb;" horiz-adv-x="991" 
d="M510 1309q-29 0 -46.5 16.5t-17.5 42.5q0 40 28.5 69t66.5 29q31 0 49 -17t18 -44q0 -40 -28.5 -68t-69.5 -28zM776 1309q-29 0 -46 16t-17 43q0 40 28 69t66 29q31 0 49 -17t18 -44q0 -40 -28.5 -68t-69.5 -28zM420 -23q-91 0 -162 33.5t-113.5 91t-64 129t-21.5 152.5
q0 125 49 248.5t128 216t184.5 150t212.5 57.5q163 0 242 -124t40 -323l-6 -30h-755l-2 -13q-27 -144 3.5 -264t113 -190t200.5 -70q245 0 438 319h31q-85 -171 -218.5 -277t-299.5 -106zM176 639h658q31 160 -27.5 256t-194.5 96q-143 0 -263.5 -100t-172.5 -252z" />
    <glyph glyph-name="igrave" unicode="&#xec;" horiz-adv-x="436" 
d="M334 1126h-27q-356 290 -356 363q0 22 26 22q25 0 66 -31t117.5 -121t173.5 -233zM295 0h-348l4 20l139 33l172 889h-133l4 21l207 61h20l-188 -971l127 -33z" />
    <glyph glyph-name="iacute" unicode="&#xed;" horiz-adv-x="436" 
d="M311 1126h-26q98 143 174 233t116.5 121t65.5 31q27 0 27 -22q0 -72 -357 -363zM295 0h-348l4 20l139 33l172 889h-133l4 21l207 61h20l-188 -971l127 -33z" />
    <glyph glyph-name="icircumflex" unicode="&#xee;" horiz-adv-x="436" 
d="M88 1085h-27q34 45 92 121q146 194 183 230q33 34 59 34q29 0 49.5 -41t75.5 -193q11 -29 17 -46.5t17 -47.5t21 -57h-26q-10 15 -40.5 62t-41.5 64.5t-32 51.5t-34.5 59.5t-25.5 51.5q-28 -34 -68.5 -76t-63.5 -65t-83 -79.5t-72 -68.5zM295 0h-348l4 20l139 33l172 889
h-133l4 21l207 61h20l-188 -971l127 -33z" />
    <glyph glyph-name="idieresis" unicode="&#xef;" horiz-adv-x="436" 
d="M199 1309q-29 0 -46.5 16.5t-17.5 42.5q0 40 28 69t66 29q32 0 50 -17t18 -44q0 -40 -28.5 -68t-69.5 -28zM465 1309q-29 0 -46.5 16.5t-17.5 42.5q0 40 28.5 69t66.5 29q31 0 49 -17t18 -44q0 -40 -28.5 -68t-69.5 -28zM295 0h-348l4 20l139 33l172 889h-133l4 21
l207 61h20l-188 -971l127 -33z" />
    <glyph glyph-name="eth" unicode="&#xf0;" horiz-adv-x="1089" 
d="M1083 1485l4 -47l-219 -56q160 -295 160 -610q0 -159 -40 -302t-113 -253t-185.5 -175t-249.5 -65q-98 0 -174 40t-119 106t-64.5 141.5t-21.5 157.5q0 80 25.5 167t76.5 170t119 149t160.5 106.5t192.5 40.5q182 0 297 -158h10q-27 243 -162 463l-262 -66l-6 47l244 62
q-64 99 -183 235h117q87 -100 154 -213zM461 41q123 0 228.5 76.5t167 206t61.5 278.5q0 107 -33 193t-103.5 141t-169.5 55q-127 0 -236 -73t-172 -195.5t-63 -263.5q0 -110 37 -204t111 -154t172 -60z" />
    <glyph glyph-name="ntilde" unicode="&#xf1;" horiz-adv-x="1044" 
d="M408 1167h-17q27 92 80.5 143.5t116.5 51.5q31 0 56.5 -11t42.5 -27t33.5 -32.5t37 -27.5t45.5 -11q87 0 149 129h17q-26 -92 -79.5 -143t-119.5 -51q-38 0 -68.5 17t-47.5 37t-42.5 37t-54.5 17q-87 0 -149 -129zM295 0h-348l4 20l139 33l172 889h-133l4 21l207 61h20
l-47 -246q16 30 38.5 61.5t61.5 71.5t83.5 71t106 52t126.5 21q250 0 191 -307l-136 -695l127 -33l-4 -20h-348l4 20l137 33l123 633q30 159 -16.5 232t-144.5 73q-117 0 -217 -92t-150 -217l-123 -629l127 -33z" />
    <glyph glyph-name="ograve" unicode="&#xf2;" horiz-adv-x="1064" 
d="M666 1126h-27q-356 290 -356 363q0 22 26 22q25 0 66 -31t117.5 -121t173.5 -233zM432 -23q-94 0 -168 36t-117.5 97t-65.5 134.5t-22 154.5q0 123 50 243.5t131 211t189.5 146t219.5 55.5q77 0 139 -23.5t102 -62.5t66.5 -92t38 -109.5t11.5 -118.5q0 -128 -48.5 -251.5
t-127 -215.5t-184 -148.5t-214.5 -56.5zM471 41q85 0 167.5 49t143.5 129t98.5 188t37.5 220q0 102 -32 182.5t-101.5 131t-168.5 50.5q-93 0 -181 -46t-153 -122.5t-104 -179.5t-39 -211q0 -107 37.5 -194.5t114 -142t180.5 -54.5z" />
    <glyph glyph-name="oacute" unicode="&#xf3;" horiz-adv-x="1064" 
d="M643 1126h-27q97 143 173.5 233t117.5 121t66 31q26 0 26 -22q0 -73 -356 -363zM432 -23q-94 0 -168 36t-117.5 97t-65.5 134.5t-22 154.5q0 123 50 243.5t131 211t189.5 146t219.5 55.5q77 0 139 -23.5t102 -62.5t66.5 -92t38 -109.5t11.5 -118.5q0 -128 -48.5 -251.5
t-127 -215.5t-184 -148.5t-214.5 -56.5zM471 41q85 0 167.5 49t143.5 129t98.5 188t37.5 220q0 102 -32 182.5t-101.5 131t-168.5 50.5q-93 0 -181 -46t-153 -122.5t-104 -179.5t-39 -211q0 -107 37.5 -194.5t114 -142t180.5 -54.5z" />
    <glyph glyph-name="ocircumflex" unicode="&#xf4;" horiz-adv-x="1064" 
d="M420 1085h-27q212 279 231 303q62 74 93 81q5 1 10 1q29 0 49.5 -41t75.5 -193q11 -29 17 -46.5t17 -47.5t21 -57h-26q-10 15 -40.5 62t-41.5 64.5t-32 51.5t-34.5 59.5t-25.5 51.5q-28 -34 -68.5 -76t-63.5 -65t-83 -79.5t-72 -68.5zM432 -23q-94 0 -168 36t-117.5 97
t-65.5 134.5t-22 154.5q0 123 50 243.5t131 211t189.5 146t219.5 55.5q77 0 139 -23.5t102 -62.5t66.5 -92t38 -109.5t11.5 -118.5q0 -128 -48.5 -251.5t-127 -215.5t-184 -148.5t-214.5 -56.5zM471 41q85 0 167.5 49t143.5 129t98.5 188t37.5 220q0 102 -32 182.5
t-101.5 131t-168.5 50.5q-93 0 -181 -46t-153 -122.5t-104 -179.5t-39 -211q0 -107 37.5 -194.5t114 -142t180.5 -54.5z" />
    <glyph glyph-name="otilde" unicode="&#xf5;" horiz-adv-x="1064" 
d="M414 1167h-17q27 92 80.5 143.5t116.5 51.5q31 0 56.5 -11t42.5 -27t33.5 -32.5t37 -27.5t45.5 -11q87 0 149 129h17q-26 -92 -79.5 -143t-119.5 -51q-38 0 -68.5 17t-47.5 37t-42.5 37t-54.5 17q-87 0 -149 -129zM432 -23q-94 0 -168 36t-117.5 97t-65.5 134.5
t-22 154.5q0 123 50 243.5t131 211t189.5 146t219.5 55.5q77 0 139 -23.5t102 -62.5t66.5 -92t38 -109.5t11.5 -118.5q0 -128 -48.5 -251.5t-127 -215.5t-184 -148.5t-214.5 -56.5zM471 41q85 0 167.5 49t143.5 129t98.5 188t37.5 220q0 102 -32 182.5t-101.5 131
t-168.5 50.5q-93 0 -181 -46t-153 -122.5t-104 -179.5t-39 -211q0 -107 37.5 -194.5t114 -142t180.5 -54.5z" />
    <glyph glyph-name="odieresis" unicode="&#xf6;" horiz-adv-x="1064" 
d="M530 1309q-29 0 -46 16t-17 43q0 40 28 69t66 29q32 0 50 -17t18 -44q0 -40 -29 -68t-70 -28zM797 1309q-29 0 -46.5 16.5t-17.5 42.5q0 40 28 69t66 29q32 0 50 -17t18 -44q0 -40 -28.5 -68t-69.5 -28zM432 -23q-94 0 -168 36t-117.5 97t-65.5 134.5t-22 154.5
q0 123 50 243.5t131 211t189.5 146t219.5 55.5q77 0 139 -23.5t102 -62.5t66.5 -92t38 -109.5t11.5 -118.5q0 -128 -48.5 -251.5t-127 -215.5t-184 -148.5t-214.5 -56.5zM471 41q85 0 167.5 49t143.5 129t98.5 188t37.5 220q0 102 -32 182.5t-101.5 131t-168.5 50.5
q-93 0 -181 -46t-153 -122.5t-104 -179.5t-39 -211q0 -107 37.5 -194.5t114 -142t180.5 -54.5z" />
    <glyph glyph-name="divide" unicode="&#xf7;" horiz-adv-x="929" 
d="M514 762q-36 0 -58 20.5t-22 53.5q0 47 35.5 82.5t81.5 35.5q36 0 58 -21.5t22 -55.5q0 -46 -35 -80.5t-82 -34.5zM831 543h-722l12 65h723zM403 197q-36 0 -57.5 20t-21.5 53q0 47 35 83t81 36q36 0 58 -22t22 -56q0 -46 -35 -80t-82 -34z" />
    <glyph glyph-name="oslash" unicode="&#xf8;" horiz-adv-x="1064" 
d="M954 1059h76l-106 -127q82 -112 82 -283q0 -128 -48.5 -251.5t-127 -215.5t-184 -148.5t-214.5 -56.5q-142 0 -239 84l-84 -100h-74l119 141q-95 115 -95 297q0 123 50 243.5t131 211t189.5 146t219.5 55.5q144 0 234 -80zM139 432q0 -152 74 -258l612 731
q-80 86 -209 86q-93 0 -181 -46t-153 -122.5t-104 -179.5t-39 -211zM918 627q0 137 -58 231l-610 -729q88 -88 221 -88q85 0 167.5 49t143.5 129t98.5 188t37.5 220z" />
    <glyph glyph-name="ugrave" unicode="&#xf9;" horiz-adv-x="993" 
d="M610 1126h-26q-357 291 -357 363q0 22 27 22q25 0 65.5 -31t116.5 -121t174 -233zM301 -23q-42 0 -74 9.5t-58.5 33t-38.5 62t-14 97t15 138.5l121 625h-133l4 21l207 61h20l-133 -680q-59 -303 135 -303q104 0 193 73.5t153 182.5l125 645h-133l4 21l207 61h21
l-185 -942h133l-4 -21l-204 -61h-21l41 215q-26 -41 -59.5 -78t-81.5 -75.5t-110.5 -61.5t-129.5 -23z" />
    <glyph glyph-name="uacute" unicode="&#xfa;" horiz-adv-x="993" 
d="M588 1126h-27q97 143 173.5 233t117.5 121t66 31q26 0 26 -22q0 -73 -356 -363zM301 -23q-42 0 -74 9.5t-58.5 33t-38.5 62t-14 97t15 138.5l121 625h-133l4 21l207 61h20l-133 -680q-59 -303 135 -303q104 0 193 73.5t153 182.5l125 645h-133l4 21l207 61h21l-185 -942
h133l-4 -21l-204 -61h-21l41 215q-26 -41 -59.5 -78t-81.5 -75.5t-110.5 -61.5t-129.5 -23z" />
    <glyph glyph-name="ucircumflex" unicode="&#xfb;" horiz-adv-x="993" 
d="M365 1085h-27q212 279 231 303q62 74 93 81q5 1 10 1q29 0 49.5 -41t75.5 -193q11 -29 17 -46.5t17 -47.5t21 -57h-27q-10 15 -40.5 62t-41.5 64.5t-32 51.5t-34.5 59.5t-25.5 51.5q-23 -27 -49 -55.5t-59.5 -62t-54.5 -54t-64.5 -62t-58.5 -55.5zM301 -23q-42 0 -74 9.5
t-58.5 33t-38.5 62t-14 97t15 138.5l121 625h-133l4 21l207 61h20l-133 -680q-59 -303 135 -303q104 0 193 73.5t153 182.5l125 645h-133l4 21l207 61h21l-185 -942h133l-4 -21l-204 -61h-21l41 215q-26 -41 -59.5 -78t-81.5 -75.5t-110.5 -61.5t-129.5 -23z" />
    <glyph glyph-name="udieresis" unicode="&#xfc;" horiz-adv-x="993" 
d="M475 1309q-29 0 -46 16t-17 43q0 40 28 69t66 29q31 0 49 -17t18 -44q0 -40 -28.5 -68t-69.5 -28zM741 1309q-29 0 -46 16t-17 43q0 40 28 69t66 29q32 0 50 -17t18 -44q0 -40 -29 -68t-70 -28zM301 -23q-42 0 -74 9.5t-58.5 33t-38.5 62t-14 97t15 138.5l121 625h-133
l4 21l207 61h20l-133 -680q-59 -303 135 -303q104 0 193 73.5t153 182.5l125 645h-133l4 21l207 61h21l-185 -942h133l-4 -21l-204 -61h-21l41 215q-26 -41 -59.5 -78t-81.5 -75.5t-110.5 -61.5t-129.5 -23z" />
    <glyph glyph-name="yacute" unicode="&#xfd;" horiz-adv-x="1058" 
d="M631 1126h-27q97 143 173.5 233t117.5 121t66 31q26 0 26 -22q0 -73 -356 -363zM-10 -424l-133 203l30 18q30 -43 91 -92t110 -49q38 0 81 32t85 86.5t76 108.5t67 117l-178 956l-139 48l4 20h399l-4 -20l-170 -48l158 -856l461 856l-158 48l4 20h400l-5 -20l-180 -48
l-487 -878q-47 -84 -75.5 -133.5t-66.5 -110t-66.5 -94.5t-65 -70t-71.5 -53.5t-77 -29t-90 -11.5z" />
    <glyph glyph-name="thorn" unicode="&#xfe;" horiz-adv-x="974" 
d="M178 -410h-348l4 21l139 33l373 1912h-131l4 21l205 61h20l-112 -583q130 0 231.5 -28t164.5 -73t104 -107.5t57 -126.5t16 -134q0 -153 -70.5 -294.5t-186.5 -228t-242 -86.5q-52 0 -93.5 13.5t-71.5 39.5t-49 50.5t-40 60.5l-97 -497l127 -33zM403 41q108 0 203.5 72
t153 193.5t57.5 258.5q0 72 -16.5 137t-54 124.5t-93.5 103t-140 69t-187 25.5l-164 -840q92 -143 241 -143z" />
    <glyph glyph-name="ydieresis" unicode="&#xff;" horiz-adv-x="1058" 
d="M518 1309q-29 0 -46 16t-17 43q0 40 28 69t66 29q31 0 49 -17t18 -44q0 -40 -28.5 -68t-69.5 -28zM784 1309q-29 0 -46 16t-17 43q0 40 28 69t66 29q32 0 50 -17t18 -44q0 -40 -29 -68t-70 -28zM-10 -424l-133 203l30 18q30 -43 91 -92t110 -49q38 0 81 32t85 86.5
t76 108.5t67 117l-178 956l-139 48l4 20h399l-4 -20l-170 -48l158 -856l461 856l-158 48l4 20h400l-5 -20l-180 -48l-487 -878q-47 -84 -75.5 -133.5t-66.5 -110t-66.5 -94.5t-65 -70t-71.5 -53.5t-77 -29t-90 -11.5z" />
    <glyph glyph-name="Amacron" unicode="&#x100;" horiz-adv-x="1527" 
d="M1292 1765h-538l14 78h539zM256 0h-399l4 20l162 54l907 1499h61l363 -1499l135 -54l-4 -20h-400l5 20l151 54l-145 628h-627l-375 -628l166 -54zM918 1458l-412 -694h575z" />
    <glyph glyph-name="amacron" unicode="&#x101;" horiz-adv-x="966" 
d="M346 1233l14 78h539l-14 -78h-539zM596 1055q158 0 218.5 -73t29.5 -230l-129 -670h131l-4 -21l-207 -61h-21l50 254q-16 -32 -47 -73.5t-81 -90.5t-122.5 -82t-149.5 -33q-99 0 -158 56.5t-59 150.5q0 58 18 110t46 91.5t72 74t86 58.5t98.5 45.5t98.5 34.5t97.5 25
t84 17t68.5 11l9 1.5t8 1t8 1.5l13 62q14 82 6.5 138t-37.5 90.5t-68 49.5t-86 15q-131 0 -225 -98t-94 -234q0 -23 4 -51h-31l-30 262q155 168 403 168zM672 295l63 328q-151 -28 -232 -54q-317 -104 -357 -310q-5 -28 -5 -58q0 -71 40 -117.5t118 -46.5q108 0 208 78.5
t165 179.5z" />
    <glyph glyph-name="Abreve" unicode="&#x102;" horiz-adv-x="1527" 
d="M993 1659q-52 0 -94.5 20t-75.5 65t-40.5 118.5t10.5 181.5h26q-13 -53 -7.5 -106.5t23.5 -96t64 -69.5t113 -27t122 26.5t91.5 71t59.5 95t34 106.5h27q-20 -103 -59 -180.5t-88.5 -120.5t-101 -63.5t-104.5 -20.5zM256 0h-399l4 20l162 54l907 1499h61l363 -1499
l135 -54l-4 -20h-400l5 20l151 54l-145 628h-627l-375 -628l166 -54zM918 1458l-412 -694h575z" />
    <glyph glyph-name="abreve" unicode="&#x103;" horiz-adv-x="966" 
d="M586 1126q-52 0 -94.5 20t-76 65t-41 118.5t10.5 181.5h27q-6 -43 -8 -85t10 -81t33.5 -68.5t62 -47t94.5 -17.5q67 0 122 26.5t91.5 71t59.5 95t34 106.5h27q-20 -103 -59 -180.5t-88.5 -120.5t-100.5 -63.5t-104 -20.5zM596 1055q158 0 218.5 -73t29.5 -230l-129 -670
h131l-4 -21l-207 -61h-21l50 254q-16 -32 -47 -73.5t-81 -90.5t-122.5 -82t-149.5 -33q-99 0 -158 56.5t-59 150.5q0 58 18 110t46 91.5t72 74t86 58.5t98.5 45.5t98.5 34.5t97.5 25t84 17t68.5 11l9 1.5t8 1t8 1.5l13 62q14 82 6.5 138t-37.5 90.5t-68 49.5t-86 15
q-131 0 -225 -98t-94 -234q0 -23 4 -51h-31l-30 262q155 168 403 168zM672 295l63 328q-151 -28 -232 -54q-317 -104 -357 -310q-5 -28 -5 -58q0 -71 40 -117.5t118 -46.5q108 0 208 78.5t165 179.5z" />
    <glyph glyph-name="Aogonek" unicode="&#x104;" horiz-adv-x="1527" 
d="M1485 0h-209q-60 -51 -110 -120.5t-50 -135.5q0 -44 24 -70t64 -26q63 0 129 57h10q-94 -111 -184 -111q-48 0 -78 32.5t-30 84.5q0 133 200 289h-166l5 20l151 54l-145 628h-627l-375 -628l166 -54l-4 -20h-399l4 20l162 54l907 1499h61l363 -1499l135 -54zM918 1458
l-412 -694h575z" />
    <glyph glyph-name="aogonek" unicode="&#x105;" horiz-adv-x="966" 
d="M844 752l-129 -670h131l-4 -21l-207 -61q-60 -51 -110 -120.5t-50 -135.5q0 -44 24 -70t64 -26q63 0 129 57h10q-94 -111 -184 -111q-48 0 -78 32.5t-30 84.5q0 130 204 293l50 250q-16 -32 -47 -73.5t-81 -90.5t-122.5 -82t-149.5 -33q-99 0 -158 56.5t-59 150.5
q0 58 18 110t46 91.5t72 74t86 58.5t98.5 45.5t98.5 34.5t97.5 25t84 17t68.5 11l9 1.5t8 1t8 1.5l13 62q14 82 6.5 138t-37.5 90.5t-68 49.5t-86 15q-131 0 -225 -98t-94 -234q0 -23 4 -51h-31l-30 262q155 168 403 168q158 0 218.5 -73t29.5 -230zM299 37q108 0 208 78.5
t165 179.5l63 328q-151 -28 -232 -54q-317 -104 -357 -310q-5 -28 -5 -58q0 -71 40 -117.5t118 -46.5z" />
    <glyph glyph-name="Cacute" unicode="&#x106;" horiz-adv-x="1552" 
d="M1032 1659h-26q98 143 174 233t116.5 121t65.5 31q27 0 27 -23q0 -71 -357 -362zM709 -23q-125 0 -233 40.5t-188.5 115t-126.5 188.5t-46 254q0 197 79 381.5t209.5 319.5t309.5 216t370 81q103 0 192.5 -23t141.5 -55.5t81.5 -58t35.5 -39.5l-90 -455h-31
q19 104 18.5 185t-22.5 143t-56.5 105t-84.5 70t-105 39.5t-119 12.5q-47 0 -99 -6t-123.5 -24.5t-138.5 -48.5t-139 -82.5t-129.5 -120.5t-105 -169t-71.5 -223q-22 -145 -15 -258t45.5 -198.5t92.5 -145t125.5 -97t144 -54.5t149.5 -17q229 0 425.5 145.5t336.5 417.5h31
q-136 -286 -364.5 -462.5t-499.5 -176.5z" />
    <glyph glyph-name="cacute" unicode="&#x107;" horiz-adv-x="985" 
d="M631 1126h-27q97 143 173.5 233t117.5 121t66 31q26 0 26 -22q0 -73 -356 -363zM416 -23q-116 0 -198 54t-120.5 142t-38.5 200q0 132 48 258t127.5 218.5t187.5 149t221 56.5q66 0 123.5 -17t95 -43.5t60.5 -51.5t36 -48l-188 -350h-31q84 152 84 264q0 87 -53 134.5
t-156 47.5q-199 0 -334 -160.5t-135 -398.5q0 -173 88 -282t220 -109q142 0 247 75.5t209 243.5h31q-41 -80 -92 -146.5t-116 -121t-146 -85t-170 -30.5z" />
    <glyph glyph-name="Cdotaccent" unicode="&#x10a;" horiz-adv-x="1552" 
d="M1069 1731q-32 0 -51 18.5t-19 48.5q0 41 31 73t72 32q32 0 50.5 -19t18.5 -49q0 -41 -30.5 -72.5t-71.5 -31.5zM709 -23q-125 0 -233 40.5t-188.5 115t-126.5 188.5t-46 254q0 197 79 381.5t209.5 319.5t309.5 216t370 81q103 0 192.5 -23t141.5 -55.5t81.5 -58
t35.5 -39.5l-90 -455h-31q19 104 18.5 185t-22.5 143t-56.5 105t-84.5 70t-105 39.5t-119 12.5q-47 0 -99 -6t-123.5 -24.5t-138.5 -48.5t-139 -82.5t-129.5 -120.5t-105 -169t-71.5 -223q-22 -145 -15 -258t45.5 -198.5t92.5 -145t125.5 -97t144 -54.5t149.5 -17
q229 0 425.5 145.5t336.5 417.5h31q-136 -286 -364.5 -462.5t-499.5 -176.5z" />
    <glyph glyph-name="cdotaccent" unicode="&#x10b;" horiz-adv-x="985" 
d="M668 1198q-32 0 -51 19t-19 49q0 41 30.5 72.5t71.5 31.5q32 0 51 -18.5t19 -48.5q0 -42 -30.5 -73.5t-71.5 -31.5zM416 -23q-116 0 -198 54t-120.5 142t-38.5 200q0 132 48 258t127.5 218.5t187.5 149t221 56.5q66 0 123.5 -17t95 -43.5t60.5 -51.5t36 -48l-188 -350
h-31q84 152 84 264q0 87 -53 134.5t-156 47.5q-199 0 -334 -160.5t-135 -398.5q0 -173 88 -282t220 -109q142 0 247 75.5t209 243.5h31q-41 -80 -92 -146.5t-116 -121t-146 -85t-170 -30.5z" />
    <glyph glyph-name="Ccaron" unicode="&#x10c;" horiz-adv-x="1552" 
d="M1038 1653q-29 0 -50.5 41.5t-74.5 188.5q-34 95 -57 155h27q141 -211 176 -289q28 34 66.5 74.5t66 67.5t79.5 77t72 70h27q-32 -43 -87 -116q-129 -173 -171.5 -221t-73.5 -48zM709 -23q-125 0 -233 40.5t-188.5 115t-126.5 188.5t-46 254q0 197 79 381.5t209.5 319.5
t309.5 216t370 81q103 0 192.5 -23t141.5 -55.5t81.5 -58t35.5 -39.5l-90 -455h-31q19 104 18.5 185t-22.5 143t-56.5 105t-84.5 70t-105 39.5t-119 12.5q-47 0 -99 -6t-123.5 -24.5t-138.5 -48.5t-139 -82.5t-129.5 -120.5t-105 -169t-71.5 -223q-22 -145 -15 -258
t45.5 -198.5t92.5 -145t125.5 -97t144 -54.5t149.5 -17q229 0 425.5 145.5t336.5 417.5h31q-136 -286 -364.5 -462.5t-499.5 -176.5z" />
    <glyph glyph-name="ccaron" unicode="&#x10d;" horiz-adv-x="985" 
d="M637 1120q-29 0 -50.5 41.5t-74.5 188.5q-34 95 -57 155h26q7 -10 27 -40l27 -40.5t23.5 -36t24 -37.5t20.5 -33.5t21 -35.5t17 -31.5t16 -33.5q28 34 66 74t68 68.5t78 75t73 70.5h27q-32 -43 -87 -116q-129 -173 -171.5 -221t-73.5 -48zM416 -23q-116 0 -198 54
t-120.5 142t-38.5 200q0 132 48 258t127.5 218.5t187.5 149t221 56.5q66 0 123.5 -17t95 -43.5t60.5 -51.5t36 -48l-188 -350h-31q84 152 84 264q0 87 -53 134.5t-156 47.5q-199 0 -334 -160.5t-135 -398.5q0 -173 88 -282t220 -109q142 0 247 75.5t209 243.5h31
q-41 -80 -92 -146.5t-116 -121t-146 -85t-170 -30.5z" />
    <glyph glyph-name="Dcaron" unicode="&#x10e;" horiz-adv-x="1583" 
d="M918 1653q-29 0 -50.5 41.5t-77.5 195.5q-11 29 -17 46t-17 46.5t-21 55.5h27q141 -211 176 -289q28 34 66.5 74t67.5 68.5t78.5 76.5t72.5 70h26q-36 -47 -94 -126q-143 -191 -179 -227q-33 -32 -58 -32zM668 0h-688l4 20l163 54l273 1401l-141 61l4 20h686
q282 0 438 -157.5t156 -429.5q0 -205 -68.5 -385t-186.5 -308t-284.5 -202t-355.5 -74zM516 1495l-278 -1434h383q177 0 331 66.5t263.5 182t172 279t62.5 351.5q0 252 -145 403.5t-406 151.5h-383z" />
    <glyph glyph-name="dcaron" unicode="&#x10f;" horiz-adv-x="995" 
d="M731 0h-82q-131 0 -233.5 26t-166.5 68.5t-105.5 101.5t-57.5 119.5t-16 128.5q0 113 43 225t112 196.5t161 137t185 52.5q167 0 250 -162l129 663h-133l4 21l207 61h21zM1061 1065h-21q77 80 108.5 137t31.5 133q0 104 -35 156q7 41 34.5 60.5t61.5 19.5
q33 0 53.5 -20.5t20.5 -57.5q0 -79 -82.5 -214.5t-171.5 -213.5zM655 31l154 796q-37 69 -96 116.5t-140 47.5q-106 0 -202.5 -73t-154.5 -195t-58 -256q0 -85 27.5 -158t84.5 -134t155.5 -99t229.5 -45z" />
    <glyph glyph-name="Dcroat" unicode="&#x110;" horiz-adv-x="1583" 
d="M283 1556h686q282 0 438 -157.5t156 -429.5q0 -205 -68.5 -385t-186.5 -308t-284.5 -202t-355.5 -74h-688l4 20l163 54l132 678h-134l11 51h133l131 672l-141 61zM238 61h383q177 0 331 66.5t263.5 182t172 279t62.5 351.5q0 252 -145 403.5t-406 151.5h-383l-135 -692
h272l-10 -51h-272z" />
    <glyph glyph-name="dcroat" unicode="&#x111;" horiz-adv-x="974" 
d="M993 1358h133l-10 -51h-131l-254 -1307h-82q-131 0 -233.5 26t-166.5 68.5t-105.5 101.5t-57.5 119.5t-16 128.5q0 113 43 225t112 196.5t161 137t185 52.5q167 0 250 -162l80 414h-283l11 51h282l39 198h-133l4 21l207 61h21zM655 31l154 796q-37 69 -96 116.5
t-140 47.5q-106 0 -202.5 -73t-154.5 -195t-58 -256q0 -85 27.5 -158t84.5 -134t155.5 -99t229.5 -45z" />
    <glyph glyph-name="Emacron" unicode="&#x112;" horiz-adv-x="1097" 
d="M1081 1765h-538l14 78h539zM870 0h-890l4 20l163 54l273 1401l-141 61l4 20h870l10 -317h-20l-84 256h-543l-123 -627h379l86 174h21l-80 -409h-21l-16 174h-379l-145 -746h563l182 256h21z" />
    <glyph glyph-name="emacron" unicode="&#x113;" horiz-adv-x="991" 
d="M928 1233h-539l14 78h539zM420 -23q-91 0 -162 33.5t-113.5 91t-64 129t-21.5 152.5q0 125 49 248.5t128 216t184.5 150t212.5 57.5q163 0 242 -124t40 -323l-6 -30h-755l-2 -13q-27 -144 3.5 -264t113 -190t200.5 -70q245 0 438 319h31q-85 -171 -218.5 -277
t-299.5 -106zM176 639h658q31 160 -27.5 256t-194.5 96q-143 0 -263.5 -100t-172.5 -252z" />
    <glyph glyph-name="Edotaccent" unicode="&#x116;" horiz-adv-x="1097" 
d="M813 1731q-32 0 -51 18.5t-19 48.5q0 41 31 73t72 32q32 0 50.5 -19t18.5 -49q0 -41 -30.5 -72.5t-71.5 -31.5zM870 0h-890l4 20l163 54l273 1401l-141 61l4 20h870l10 -317h-20l-84 256h-543l-123 -627h379l86 174h21l-80 -409h-21l-16 174h-379l-145 -746h563l182 256
h21z" />
    <glyph glyph-name="edotaccent" unicode="&#x117;" horiz-adv-x="991" 
d="M659 1198q-32 0 -50.5 19t-18.5 49q0 41 30.5 72.5t71.5 31.5q32 0 51 -18.5t19 -48.5q0 -41 -31 -73t-72 -32zM420 -23q-91 0 -162 33.5t-113.5 91t-64 129t-21.5 152.5q0 125 49 248.5t128 216t184.5 150t212.5 57.5q163 0 242 -124t40 -323l-6 -30h-755l-2 -13
q-27 -144 3.5 -264t113 -190t200.5 -70q245 0 438 319h31q-85 -171 -218.5 -277t-299.5 -106zM176 639h658q31 160 -27.5 256t-194.5 96q-143 0 -263.5 -100t-172.5 -252z" />
    <glyph glyph-name="Eogonek" unicode="&#x118;" horiz-adv-x="1097" 
d="M283 1556h870l10 -317h-20l-84 256h-543l-123 -627h379l86 174h21l-80 -409h-21l-16 174h-379l-145 -746h563l182 256h21l-134 -317h-69q-60 -51 -110 -120.5t-50 -135.5q0 -44 24 -70t64 -26q63 0 129 57h10q-94 -111 -184 -111q-48 0 -78.5 32.5t-30.5 84.5
q0 133 201 289h-796l4 20l163 54l273 1401l-141 61z" />
    <glyph glyph-name="eogonek" unicode="&#x119;" horiz-adv-x="991" 
d="M553 -4q-58 -50 -107 -118.5t-49 -133.5q0 -44 24 -70t64 -26q63 0 129 57h11q-94 -111 -185 -111q-48 0 -78 32.5t-30 84.5q0 128 184 277q-57 -11 -96 -11q-91 0 -162 33.5t-113.5 91t-64 129t-21.5 152.5q0 125 49 248.5t128 216t184.5 150t212.5 57.5q163 0 242 -124
t40 -323l-6 -30h-755l-2 -13q-27 -144 3.5 -264t113 -190t200.5 -70q245 0 438 319h31q-68 -135 -166 -231t-219 -133zM612 991q-143 0 -263.5 -100t-172.5 -252h658q31 160 -27.5 256t-194.5 96z" />
    <glyph glyph-name="Ecaron" unicode="&#x11a;" horiz-adv-x="1097" 
d="M782 1653q-29 0 -50.5 41.5t-74.5 188.5q-34 95 -57 155h27q141 -211 176 -289q28 34 66.5 74.5t66 67.5t79.5 77t72 70h27q-32 -43 -87 -116q-129 -173 -171.5 -221t-73.5 -48zM870 0h-890l4 20l163 54l273 1401l-141 61l4 20h870l10 -317h-20l-84 256h-543l-123 -627
h379l86 174h21l-80 -409h-21l-16 174h-379l-145 -746h563l182 256h21z" />
    <glyph glyph-name="ecaron" unicode="&#x11b;" horiz-adv-x="991" 
d="M629 1120q-29 0 -50.5 41.5t-77.5 195.5q-11 29 -17 46t-17 46.5t-21 55.5h27q7 -10 27 -40l27 -40.5t23.5 -36t24 -37.5t20.5 -33.5t21 -35.5t17 -31.5t16 -33.5q28 34 66 74t68 68.5t78.5 75t72.5 70.5h27q-32 -43 -87 -116q-129 -173 -171.5 -221t-73.5 -48zM420 -23
q-91 0 -162 33.5t-113.5 91t-64 129t-21.5 152.5q0 125 49 248.5t128 216t184.5 150t212.5 57.5q163 0 242 -124t40 -323l-6 -30h-755l-2 -13q-27 -144 3.5 -264t113 -190t200.5 -70q245 0 438 319h31q-85 -171 -218.5 -277t-299.5 -106zM176 639h658q31 160 -27.5 256
t-194.5 96q-143 0 -263.5 -100t-172.5 -252z" />
    <glyph glyph-name="Gbreve" unicode="&#x11e;" horiz-adv-x="1570" 
d="M1004 1659q-52 0 -94.5 20t-76 65t-41 118.5t10.5 181.5h26q-13 -53 -7.5 -106.5t23.5 -96t64 -69.5t113 -27t122 26.5t91.5 71t59.5 95t34 106.5h27q-20 -103 -59 -180.5t-88.5 -120.5t-100.5 -63.5t-104 -20.5zM725 -23q-285 0 -446.5 164.5t-161.5 438.5
q0 202 77 385.5t207.5 316.5t311.5 212t379 79q101 0 188 -22.5t138.5 -54.5t80 -58t35.5 -41l-88 -455h-31q51 266 -39.5 410.5t-339.5 144.5q-176 0 -327 -63t-258 -174.5t-167.5 -269.5t-60.5 -341q0 -268 153.5 -432t418.5 -164q108 0 204.5 27.5t166 72t121 101
t77 115.5t25.5 114q0 30 -10 56t-26 45.5t-43.5 36t-53 27.5t-64 20.5t-68.5 14.5t-74.5 10.5t-73 8t-73.5 6t-67 5.5l6 30h651l-145 -743h-43l51 256q-119 -133 -281 -206t-350 -73z" />
    <glyph glyph-name="gbreve" unicode="&#x11f;" horiz-adv-x="999" 
d="M598 1126q-52 0 -94.5 20t-76 65t-41 118.5t10.5 181.5h27q-6 -43 -8 -85t10 -81t33.5 -68.5t62 -47t94.5 -17.5q67 0 122.5 26.5t92 71t59.5 95t34 106.5h26q-20 -103 -59 -180.5t-88.5 -120.5t-100.5 -63.5t-104 -20.5zM170 -424l-174 250l31 18q50 -55 78.5 -84
t69 -62.5t78 -48t77.5 -14.5q135 0 212 82t109 260l4 23q-116 -25 -194 -25q-87 0 -156 23.5t-112 62.5t-71.5 93.5t-40 112t-11.5 122.5q0 177 67.5 331t182 244.5t247.5 90.5q52 0 94 -13.5t73 -39t51.5 -51.5t41.5 -62l27 135h20l183 -61l-4 -21h-131l-160 -825
q-17 -87 -31.5 -148t-35 -119t-43 -95t-55.5 -70.5t-71 -52t-92 -32.5t-117 -19t-147 -5zM520 14q56 0 139 17l156 798q-87 162 -240 162q-111 0 -207.5 -78t-153 -210t-56.5 -285q0 -83 20.5 -154t62.5 -128t113.5 -89.5t165.5 -32.5z" />
    <glyph glyph-name="Gdotaccent" unicode="&#x120;" horiz-adv-x="1570" 
d="M1034 1731q-32 0 -50.5 18.5t-18.5 48.5q0 42 30.5 73.5t71.5 31.5q32 0 51 -19t19 -49q0 -41 -31 -72.5t-72 -31.5zM725 -23q-285 0 -446.5 164.5t-161.5 438.5q0 202 77 385.5t207.5 316.5t311.5 212t379 79q101 0 188 -22.5t138.5 -54.5t80 -58t35.5 -41l-88 -455h-31
q51 266 -39.5 410.5t-339.5 144.5q-176 0 -327 -63t-258 -174.5t-167.5 -269.5t-60.5 -341q0 -268 153.5 -432t418.5 -164q108 0 204.5 27.5t166 72t121 101t77 115.5t25.5 114q0 30 -10 56t-26 45.5t-43.5 36t-53 27.5t-64 20.5t-68.5 14.5t-74.5 10.5t-73 8t-73.5 6
t-67 5.5l6 30h651l-145 -743h-43l51 256q-119 -133 -281 -206t-350 -73z" />
    <glyph glyph-name="gdotaccent" unicode="&#x121;" horiz-adv-x="999" 
d="M629 1198q-32 0 -51 19t-19 49q0 41 31 72.5t72 31.5q32 0 50.5 -18.5t18.5 -48.5q0 -42 -30.5 -73.5t-71.5 -31.5zM170 -424l-174 250l31 18q50 -55 78.5 -84t69 -62.5t78 -48t77.5 -14.5q135 0 212 82t109 260l4 23q-116 -25 -194 -25q-87 0 -156 23.5t-112 62.5
t-71.5 93.5t-40 112t-11.5 122.5q0 177 67.5 331t182 244.5t247.5 90.5q52 0 94 -13.5t73 -39t51.5 -51.5t41.5 -62l27 135h20l183 -61l-4 -21h-131l-160 -825q-17 -87 -31.5 -148t-35 -119t-43 -95t-55.5 -70.5t-71 -52t-92 -32.5t-117 -19t-147 -5zM520 14q56 0 139 17
l156 798q-87 162 -240 162q-111 0 -207.5 -78t-153 -210t-56.5 -285q0 -83 20.5 -154t62.5 -128t113.5 -89.5t165.5 -32.5z" />
    <glyph glyph-name="uni0122" unicode="&#x122;" horiz-adv-x="1570" 
d="M725 -23q-285 0 -446.5 164.5t-161.5 438.5q0 202 77 385.5t207.5 316.5t311.5 212t379 79q101 0 188 -22.5t138.5 -54.5t80 -58t35.5 -41l-88 -455h-31q51 266 -39.5 410.5t-339.5 144.5q-176 0 -327 -63t-258 -174.5t-167.5 -269.5t-60.5 -341q0 -268 153.5 -432
t418.5 -164q108 0 204.5 27.5t166 72t121 101t77 115.5t25.5 114q0 30 -10 56t-26 45.5t-43.5 36t-53 27.5t-64 20.5t-68.5 14.5t-74.5 10.5t-73 8t-73.5 6t-67 5.5l6 30h651l-145 -743h-43l51 256q-119 -133 -281 -206t-350 -73zM698 -102q36 0 55 -27.5t19 -69.5
q0 -132 -188 -301h-23q131 134 131 197q0 24 -14.5 41t-31 25t-28 25.5t-6.5 43.5q7 31 31 48.5t55 17.5z" />
    <glyph glyph-name="uni0123" unicode="&#x123;" horiz-adv-x="999" 
d="M627 1200q-47 0 -64 40.5t-6 98.5q22 115 184 258h23q-118 -118 -129 -178q-5 -25 2.5 -43t21 -27.5t27.5 -19t21.5 -25.5t3.5 -38q-6 -31 -29.5 -48.5t-54.5 -17.5zM170 -424l-174 250l31 18q50 -55 78.5 -84t69 -62.5t78 -48t77.5 -14.5q135 0 212 82t109 260l4 23
q-116 -25 -194 -25q-87 0 -156 23.5t-112 62.5t-71.5 93.5t-40 112t-11.5 122.5q0 177 67.5 331t182 244.5t247.5 90.5q52 0 94 -13.5t73 -39t51.5 -51.5t41.5 -62l27 135h20l183 -61l-4 -21h-131l-160 -825q-17 -87 -31.5 -148t-35 -119t-43 -95t-55.5 -70.5t-71 -52
t-92 -32.5t-117 -19t-147 -5zM520 14q56 0 139 17l156 798q-87 162 -240 162q-111 0 -207.5 -78t-153 -210t-56.5 -285q0 -83 20.5 -154t62.5 -128t113.5 -89.5t165.5 -32.5z" />
    <glyph glyph-name="Hbar" unicode="&#x126;" horiz-adv-x="1490" 
d="M1614 1556l-4 -20l-166 -61l-49 -252h104l-14 -78h-105l-209 -1071l144 -54l-4 -20h-400l4 20l164 54l140 714h-840l-139 -714l143 -54l-4 -20h-399l4 20l163 54l209 1071h-106l14 78h107l49 252l-141 61l4 20h399l-4 -20l-166 -61l-49 -252h840l49 252l-142 61l4 20h400
zM391 850h840l57 295h-839z" />
    <glyph glyph-name="hbar" unicode="&#x127;" horiz-adv-x="1034" 
d="M719 1055q249 0 190 -307l-135 -695l127 -33l-4 -20h-348l4 20l139 33l123 633q31 164 -9.5 234.5t-154.5 70.5q-102 0 -210.5 -96.5t-155.5 -212.5l-123 -629l127 -33l-4 -20h-348l4 20l139 33l244 1254h-146l10 51h146l39 198h-133l4 21l207 61h20l-55 -280h270
l-10 -51h-270l-103 -527q16 30 38 61t61.5 71t83.5 70.5t105.5 51.5t127.5 21z" />
    <glyph glyph-name="Imacron" unicode="&#x12a;" horiz-adv-x="559" 
d="M801 1765h-539l14 78h539zM379 0h-399l4 20l163 54l273 1401l-141 61l4 20h399l-4 -20l-166 -61l-272 -1401l143 -54z" />
    <glyph glyph-name="imacron" unicode="&#x12b;" horiz-adv-x="436" 
d="M616 1233h-538l14 78h539zM295 0h-348l4 20l139 33l172 889h-133l4 21l207 61h20l-188 -971l127 -33z" />
    <glyph glyph-name="Iogonek" unicode="&#x12e;" horiz-adv-x="559" 
d="M279 1536l4 20h399l-4 -20l-166 -61l-272 -1401l143 -54l-4 -20h-172q-60 -51 -110 -120.5t-50 -135.5q0 -44 24 -70t64 -26q63 0 129 57h10q-94 -111 -184 -111q-48 0 -78 32.5t-30 84.5q0 133 200 289h-202l4 20l163 54l273 1401z" />
    <glyph glyph-name="iogonek" unicode="&#x12f;" horiz-adv-x="436" 
d="M395 1485q32 0 51 -19t19 -49q0 -41 -31 -72.5t-72 -31.5q-32 0 -50.5 18.5t-18.5 48.5q0 42 30.5 73.5t71.5 31.5zM133 963l207 61h20l-188 -971l127 -33l-4 -20h-162q-60 -51 -110 -120.5t-50 -135.5q0 -44 24 -70t64 -26q63 0 129 57h11q-94 -111 -185 -111
q-48 0 -78 32.5t-30 84.5q0 133 201 289h-162l4 20l139 33l172 889h-133z" />
    <glyph glyph-name="Idotaccent" unicode="&#x130;" horiz-adv-x="559" 
d="M532 1731q-32 0 -50.5 18.5t-18.5 48.5q0 42 30.5 73.5t71.5 31.5q32 0 51 -19t19 -49q0 -41 -31 -72.5t-72 -31.5zM379 0h-399l4 20l163 54l273 1401l-141 61l4 20h399l-4 -20l-166 -61l-272 -1401l143 -54z" />
    <glyph glyph-name="dotlessi" unicode="&#x131;" horiz-adv-x="436" 
d="M295 0h-348l4 20l139 33l172 889h-133l4 21l207 61h20l-188 -971l127 -33z" />
    <glyph glyph-name="uni0136" unicode="&#x136;" horiz-adv-x="1153" 
d="M379 0h-399l4 20l163 54l273 1401l-141 61l4 20h399l-4 -20l-166 -61l-139 -717l680 729l-138 49l5 20h399l-4 -20l-205 -49l-553 -596l406 -817l133 -54l-4 -20h-400l4 20l158 54l-375 733l-123 -133l-116 -600l143 -54zM479 -102q36 0 55 -27.5t19 -69.5
q0 -132 -188 -301h-23q131 134 131 197q0 24 -14.5 41t-31 25t-28 25.5t-6.5 43.5q7 31 31 48.5t55 17.5z" />
    <glyph glyph-name="uni0137" unicode="&#x137;" horiz-adv-x="956" 
d="M285 0h-348l4 20l139 33l293 1503h-133l4 21l207 61h20l-246 -1255l572 580l-179 41l5 20h399l-4 -20l-170 -46l-344 -354l266 -551l115 -33l-4 -20h-400l4 20l174 33l-229 475l-219 -225l-49 -250l127 -33zM375 -102q36 0 55 -27.5t19 -69.5q0 -132 -189 -301h-22
q131 134 131 197q0 24 -14.5 41t-31 25t-28 25.5t-6.5 43.5q7 31 31 48.5t55 17.5z" />
    <glyph glyph-name="Lacute" unicode="&#x139;" horiz-adv-x="1052" 
d="M510 1659h-27q97 143 173.5 233t117.5 121t66 31q26 0 26 -23q0 -72 -356 -362zM870 0h-890l4 20l163 54l273 1401l-141 61l4 20h399l-4 -20l-166 -61l-274 -1414h563l182 256h21z" />
    <glyph glyph-name="lacute" unicode="&#x13a;" horiz-adv-x="425" 
d="M442 1741h-26q98 143 174 233t116.5 121t65.5 31q27 0 27 -23q0 -71 -357 -362zM285 0h-348l4 20l139 33l293 1503h-133l4 21l207 61h20l-309 -1585l127 -33z" />
    <glyph glyph-name="uni013B" unicode="&#x13b;" horiz-adv-x="1052" 
d="M870 0h-890l4 20l163 54l273 1401l-141 61l4 20h399l-4 -20l-166 -61l-274 -1414h563l182 256h21zM436 -102q36 0 55 -27.5t19 -69.5q0 -132 -188 -301h-23q131 134 131 197q0 24 -14.5 41t-31 25t-28 25.5t-6.5 43.5q7 31 31 48.5t55 17.5z" />
    <glyph glyph-name="uni013C" unicode="&#x13c;" horiz-adv-x="425" 
d="M285 0h-348l4 20l139 33l293 1503h-133l4 21l207 61h20l-309 -1585l127 -33zM66 -102q36 0 54.5 -27t18.5 -70q0 -132 -188 -301h-23q131 134 131 197q0 20 -9.5 34t-22.5 23t-25.5 18t-19 24t-2.5 36q7 31 31 48.5t55 17.5z" />
    <glyph glyph-name="Lcaron" unicode="&#x13d;" horiz-adv-x="1064" 
d="M879 1151h-21q77 80 108 137t31 133q0 106 -34 156q7 41 34.5 60.5t61.5 19.5q33 0 53.5 -20.5t20.5 -57.5q0 -79 -82.5 -214.5t-171.5 -213.5zM870 0h-890l4 20l163 54l273 1401l-141 61l4 20h399l-4 -20l-166 -61l-274 -1414h563l182 256h21z" />
    <glyph glyph-name="lcaron" unicode="&#x13e;" horiz-adv-x="446" 
d="M285 0h-348l4 20l139 33l293 1503h-133l4 21l207 61h20l-309 -1585l127 -33zM498 1065h-21q77 80 108 137t31 133q0 106 -34 156q7 41 34.5 60.5t61.5 19.5q33 0 53.5 -20.5t20.5 -57.5q0 -79 -82.5 -214.5t-171.5 -213.5z" />
    <glyph glyph-name="Lslash" unicode="&#x141;" horiz-adv-x="1058" 
d="M807 61l182 256h21l-133 -317h-891l4 20l164 54l114 594l-139 -68l14 78l142 67l141 730l-141 61l4 20h399l-4 -20l-166 -61l-131 -680l340 163l-16 -79l-340 -162l-127 -656h563z" />
    <glyph glyph-name="lslash" unicode="&#x142;" horiz-adv-x="481" 
d="M518 958l-16 -79l-164 -78l-145 -748l126 -33l-4 -20h-348l4 20l140 33l137 705l-168 -80l14 78l170 80l139 720h-133l4 21l207 61h21l-148 -757z" />
    <glyph glyph-name="Nacute" unicode="&#x143;" horiz-adv-x="1384" 
d="M872 1659h-26q98 143 174 233t116.5 121t65.5 31q27 0 27 -23q0 -71 -357 -362zM379 0h-399l4 20l163 54l273 1401l-141 61l4 20h247l494 -1288l236 1207l-142 61l4 20h400l-4 -20l-166 -61l-287 -1475h-51l-520 1370l-252 -1296l141 -54z" />
    <glyph glyph-name="nacute" unicode="&#x144;" horiz-adv-x="1044" 
d="M637 1126h-27q97 143 173.5 233t117.5 121t66 31q26 0 26 -22q0 -73 -356 -363zM295 0h-348l4 20l139 33l172 889h-133l4 21l207 61h20l-47 -246q16 30 38.5 61.5t61.5 71.5t83.5 71t106 52t126.5 21q250 0 191 -307l-136 -695l127 -33l-4 -20h-348l4 20l137 33l123 633
q30 159 -16.5 232t-144.5 73q-117 0 -217 -92t-150 -217l-123 -629l127 -33z" />
    <glyph glyph-name="uni0145" unicode="&#x145;" horiz-adv-x="1384" 
d="M379 0h-399l4 20l163 54l273 1401l-141 61l4 20h247l494 -1288l236 1207l-142 61l4 20h400l-4 -20l-166 -61l-287 -1475h-51l-520 1370l-252 -1296l141 -54zM614 -102q36 0 55 -27.5t19 -69.5q0 -132 -188 -301h-23q131 134 131 197q0 24 -14.5 41t-31 25t-28 25.5
t-6.5 43.5q7 31 31 48.5t55 17.5z" />
    <glyph glyph-name="uni0146" unicode="&#x146;" horiz-adv-x="1044" 
d="M295 0h-348l4 20l139 33l172 889h-133l4 21l207 61h20l-47 -246q16 30 38.5 61.5t61.5 71.5t83.5 71t106 52t126.5 21q250 0 191 -307l-136 -695l127 -33l-4 -20h-348l4 20l137 33l123 633q30 159 -16.5 232t-144.5 73q-117 0 -217 -92t-150 -217l-123 -629l127 -33z
M422 -102q36 0 55 -27.5t19 -69.5q0 -132 -189 -301h-22q131 134 131 197q0 24 -14.5 41t-31 25t-28 25.5t-6.5 43.5q7 31 31 48.5t55 17.5z" />
    <glyph glyph-name="Ncaron" unicode="&#x147;" horiz-adv-x="1384" 
d="M879 1653q-29 0 -50.5 41.5t-77.5 195.5q-11 29 -17 46t-17 46.5t-21 55.5h27q141 -211 176 -289q28 34 66.5 74t67.5 68.5t78.5 76.5t72.5 70h26q-36 -47 -94 -126q-143 -191 -179 -227q-33 -32 -58 -32zM379 0h-399l4 20l163 54l273 1401l-141 61l4 20h247l494 -1288
l236 1207l-142 61l4 20h400l-4 -20l-166 -61l-287 -1475h-51l-520 1370l-252 -1296l141 -54z" />
    <glyph glyph-name="ncaron" unicode="&#x148;" horiz-adv-x="1044" 
d="M643 1120q-29 0 -50.5 41.5t-74.5 188.5q-34 95 -57 155h26q9 -13 35.5 -52.5t36 -54t29.5 -45.5t30.5 -49t23.5 -42t22 -45q28 34 66.5 74t67 68t78 76t72.5 70h27q-32 -43 -87 -116q-129 -173 -171.5 -221t-73.5 -48zM295 0h-348l4 20l139 33l172 889h-133l4 21l207 61
h20l-47 -246q16 30 38.5 61.5t61.5 71.5t83.5 71t106 52t126.5 21q250 0 191 -307l-136 -695l127 -33l-4 -20h-348l4 20l137 33l123 633q30 159 -16.5 232t-144.5 73q-117 0 -217 -92t-150 -217l-123 -629l127 -33z" />
    <glyph glyph-name="Eng" unicode="&#x14a;" horiz-adv-x="1384" 
d="M676 -424q-66 0 -117 15.5t-84.5 44.5t-53.5 59t-36 69l244 416h30q-14 -27 -50 -94.5t-51 -99.5t-30.5 -81t-15.5 -89q0 -75 47.5 -119.5t136.5 -44.5q76 0 128.5 34.5t93 122.5t65.5 238l4 25l-493 1298l-252 -1296l141 -54l-4 -20h-399l4 20l163 54l273 1401l-141 61
l4 20h247l494 -1288l236 1207l-142 61l4 20h400l-4 -20l-166 -61l-287 -1475q-14 -74 -30.5 -129t-47 -113.5t-70 -96t-101.5 -61.5t-140 -24z" />
    <glyph glyph-name="eng" unicode="&#x14b;" horiz-adv-x="1007" 
d="M457 -424l-133 201l30 18q116 -157 185 -157q79 0 120 204l164 844q32 166 -7 235.5t-154 69.5q-100 0 -210 -95.5t-157 -213.5l-123 -629l127 -33l-4 -20h-348l4 20l139 33l172 889h-133l4 21l207 61h20l-47 -246q16 30 38 61.5t61.5 72t83.5 71t105.5 51.5t127.5 21
q250 0 191 -307l-175 -891q-30 -166 -86 -222q-59 -59 -202 -59z" />
    <glyph glyph-name="Omacron" unicode="&#x14c;" horiz-adv-x="1644" 
d="M1343 1765h-538l14 78h539zM690 -23q-250 0 -411.5 172.5t-161.5 446.5q0 189 76.5 369t201.5 313t294.5 214t346.5 81q169 0 304.5 -76.5t213.5 -216t78 -317.5q0 -183 -81 -364t-210.5 -317t-302.5 -220.5t-348 -84.5zM750 53q157 0 299.5 69.5t245 187t163 281
t60.5 343.5q0 136 -43.5 245.5t-118 177.5t-169.5 104t-202 36q-159 0 -301 -64.5t-243.5 -176t-160.5 -267t-59 -330.5q0 -142 47 -260t124 -192t169.5 -114t188.5 -40z" />
    <glyph glyph-name="omacron" unicode="&#x14d;" horiz-adv-x="1064" 
d="M948 1233h-538l14 78h539zM432 -23q-94 0 -168 36t-117.5 97t-65.5 134.5t-22 154.5q0 123 50 243.5t131 211t189.5 146t219.5 55.5q77 0 139 -23.5t102 -62.5t66.5 -92t38 -109.5t11.5 -118.5q0 -128 -48.5 -251.5t-127 -215.5t-184 -148.5t-214.5 -56.5zM471 41
q85 0 167.5 49t143.5 129t98.5 188t37.5 220q0 102 -32 182.5t-101.5 131t-168.5 50.5q-93 0 -181 -46t-153 -122.5t-104 -179.5t-39 -211q0 -107 37.5 -194.5t114 -142t180.5 -54.5z" />
    <glyph glyph-name="Ohungarumlaut" unicode="&#x150;" horiz-adv-x="1644" 
d="M883 1659h-27q98 143 174 233t116.5 121t65.5 31q27 0 27 -23q0 -72 -356 -362zM1153 1659h-27q97 142 174 232.5t118 121.5t65 31q26 0 26 -23q0 -36 -91.5 -129t-264.5 -233zM690 -23q-250 0 -411.5 172.5t-161.5 446.5q0 189 76.5 369t201.5 313t294.5 214t346.5 81
q169 0 304.5 -76.5t213.5 -216t78 -317.5q0 -183 -81 -364t-210.5 -317t-302.5 -220.5t-348 -84.5zM750 53q157 0 299.5 69.5t245 187t163 281t60.5 343.5q0 136 -43.5 245.5t-118 177.5t-169.5 104t-202 36q-159 0 -301 -64.5t-243.5 -176t-160.5 -267t-59 -330.5
q0 -142 47 -260t124 -192t169.5 -114t188.5 -40z" />
    <glyph glyph-name="ohungarumlaut" unicode="&#x151;" horiz-adv-x="1064" 
d="M487 1126h-26q98 143 174 233t116.5 121t65.5 31q27 0 27 -22q0 -72 -357 -363zM758 1126h-27q97 142 174 232.5t117.5 121.5t64.5 31q27 0 27 -22q0 -36 -91.5 -130t-264.5 -233zM432 -23q-94 0 -168 36t-117.5 97t-65.5 134.5t-22 154.5q0 123 50 243.5t131 211
t189.5 146t219.5 55.5q77 0 139 -23.5t102 -62.5t66.5 -92t38 -109.5t11.5 -118.5q0 -128 -48.5 -251.5t-127 -215.5t-184 -148.5t-214.5 -56.5zM471 41q85 0 167.5 49t143.5 129t98.5 188t37.5 220q0 102 -32 182.5t-101.5 131t-168.5 50.5q-93 0 -181 -46t-153 -122.5
t-104 -179.5t-39 -211q0 -107 37.5 -194.5t114 -142t180.5 -54.5z" />
    <glyph glyph-name="OE" unicode="&#x152;" horiz-adv-x="2019" 
d="M690 -23q-251 0 -412 174t-161 447q0 187 76.5 366.5t202 312.5t294.5 214.5t346 81.5q169 0 310 -80l12 63h717l10 -317h-21l-84 256h-542l-123 -627h379l86 174h20l-80 -409h-20l-17 174h-378l-146 -746h563l183 256h20l-133 -317h-737l14 76q-191 -99 -379 -99z
M750 53q89 0 184 28t147 58l244 1247q-59 48 -147 79.5t-193 31.5q-159 0 -301 -65t-243.5 -176.5t-160.5 -268t-59 -332.5q0 -114 30 -213t81.5 -169t119.5 -120.5t144 -75t154 -24.5z" />
    <glyph glyph-name="oe" unicode="&#x153;" horiz-adv-x="1845" 
d="M432 -23q-95 0 -168.5 36t-117 96.5t-65.5 133.5t-22 154q0 125 49.5 246t130.5 211t189.5 145.5t220.5 55.5q83 0 147.5 -27t105.5 -74.5t65 -104t34 -124.5q79 151 211.5 240.5t274.5 89.5q166 0 241 -121.5t41 -325.5l-4 -24h-755l-4 -19q-31 -143 -0.5 -263
t114.5 -190.5t203 -70.5q245 0 438 319h31q-85 -170 -219.5 -276.5t-296.5 -106.5q-83 0 -148 28.5t-106 78.5t-65.5 109t-34.5 129q-37 -70 -84.5 -129.5t-108 -109t-137.5 -78t-160 -28.5zM471 41q117 0 220.5 81t165 217t61.5 290q0 158 -78 260t-224 102
q-123 0 -233.5 -77t-177 -205t-66.5 -271q0 -166 92 -281.5t240 -115.5zM1030 639h658q31 160 -27.5 256t-194.5 96q-143 0 -263.5 -100t-172.5 -252z" />
    <glyph glyph-name="Racute" unicode="&#x154;" horiz-adv-x="1234" 
d="M827 1659h-26q98 143 174 233t116.5 121t65.5 31q27 0 27 -23q0 -71 -357 -362zM379 0h-399l4 20l163 54l273 1401l-141 61l4 20h591q117 0 211 -32t154.5 -104t60.5 -175q0 -142 -80.5 -257t-222.5 -180t-317 -65l278 -669l172 -54l-4 -20h-440l4 20l160 54l-277 669
h-202l-131 -669l143 -54zM516 1495l-135 -690h336q209 0 345 125.5t136 320.5q0 244 -346 244h-336z" />
    <glyph glyph-name="racute" unicode="&#x155;" horiz-adv-x="739" 
d="M494 1126h-27q98 143 174 233t116.5 121t65.5 31q27 0 27 -22q0 -73 -356 -363zM295 0h-348l4 20l139 33l172 889h-133l4 21l207 61h20l-57 -295h2q25 57 57.5 110.5t75.5 104t96 81t107 30.5q110 0 166 -129l-178 -308h-31q94 174 94 275q0 49 -21 77.5t-61 28.5
q-66 0 -139 -81.5t-125.5 -188t-83.5 -211.5l-90 -465l127 -33z" />
    <glyph glyph-name="uni0156" unicode="&#x156;" horiz-adv-x="1234" 
d="M379 0h-399l4 20l163 54l273 1401l-141 61l4 20h591q117 0 211 -32t154.5 -104t60.5 -175q0 -142 -80.5 -257t-222.5 -180t-317 -65l278 -669l172 -54l-4 -20h-440l4 20l160 54l-277 669h-202l-131 -669l143 -54zM516 1495l-135 -690h336q209 0 345 125.5t136 320.5
q0 244 -346 244h-336zM508 -102q36 0 55 -27.5t19 -69.5q0 -132 -189 -301h-22q131 134 131 197q0 24 -14.5 41t-31 25t-28 25.5t-6.5 43.5q7 31 31 48.5t55 17.5z" />
    <glyph glyph-name="uni0157" unicode="&#x157;" horiz-adv-x="739" 
d="M295 0h-348l4 20l139 33l172 889h-133l4 21l207 61h20l-57 -295h2q25 57 57.5 110.5t75.5 104t96 81t107 30.5q110 0 166 -129l-178 -308h-31q94 174 94 275q0 49 -21 77.5t-61 28.5q-66 0 -139 -81.5t-125.5 -188t-83.5 -211.5l-90 -465l127 -33zM78 -102q36 0 55 -27.5
t19 -69.5q0 -132 -189 -301h-22q131 134 131 197q0 24 -14.5 41t-31 25t-28 25.5t-6.5 43.5q7 31 31 48.5t55 17.5z" />
    <glyph glyph-name="Rcaron" unicode="&#x158;" horiz-adv-x="1234" 
d="M834 1653q-29 0 -50.5 41.5t-77.5 195.5q-11 29 -17 46t-17 46.5t-21 55.5h27q141 -211 176 -289q28 34 66.5 74t67.5 68.5t78.5 76.5t72.5 70h26q-36 -47 -94 -126q-143 -191 -179 -227q-33 -32 -58 -32zM379 0h-399l4 20l163 54l273 1401l-141 61l4 20h591
q117 0 211 -32t154.5 -104t60.5 -175q0 -142 -80.5 -257t-222.5 -180t-317 -65l278 -669l172 -54l-4 -20h-440l4 20l160 54l-277 669h-202l-131 -669l143 -54zM516 1495l-135 -690h336q209 0 345 125.5t136 320.5q0 244 -346 244h-336z" />
    <glyph glyph-name="rcaron" unicode="&#x159;" horiz-adv-x="739" 
d="M500 1120q-29 0 -50.5 41.5t-77.5 195.5q-11 29 -17 46t-17 46.5t-21 55.5h27q7 -10 27 -40l27 -40.5t23.5 -36t24 -37.5t20.5 -33.5t21 -35.5t17 -31.5t16 -33.5q28 34 66 74t68 68.5t78 75t73 70.5h26q-211 -281 -227 -300q-61 -76 -92 -84q-6 -1 -12 -1zM295 0h-348
l4 20l139 33l172 889h-133l4 21l207 61h20l-57 -295h2q25 57 57.5 110.5t75.5 104t96 81t107 30.5q110 0 166 -129l-178 -308h-31q94 174 94 275q0 49 -21 77.5t-61 28.5q-66 0 -139 -81.5t-125.5 -188t-83.5 -211.5l-90 -465l127 -33z" />
    <glyph glyph-name="Sacute" unicode="&#x15a;" horiz-adv-x="1161" 
d="M793 1659h-27q98 143 174 233t116.5 121t65.5 31q27 0 27 -23q0 -72 -356 -362zM457 -23q-91 0 -170 22.5t-132.5 59t-88.5 76.5t-52 82l181 399h41q-91 -204 -91 -313q0 -64 24 -114t60 -78.5t85 -47t92 -24.5t88 -6q141 0 259.5 59t186.5 161t68 224q0 51 -19 92.5
t-46 68.5t-77.5 53t-90 40.5t-107.5 36.5l-107 35q-38 12 -67 23.5t-72 37t-71 55.5t-49 78t-21 105q0 89 37 174t102.5 151t164 106t212.5 40q241 0 391 -166l-193 -303h-41q97 147 97 235q0 47 -26 81.5t-68 53t-86.5 27t-90.5 8.5q-182 0 -309 -99.5t-127 -240.5
q0 -47 19.5 -86.5t46 -65t68.5 -47.5t72.5 -33.5t72.5 -23.5l84 -24q40 -11 64 -19t67 -25t71 -34t62.5 -45.5t55 -60t34.5 -75.5t14 -95q0 -151 -82.5 -279.5t-225 -203.5t-310.5 -75z" />
    <glyph glyph-name="sacute" unicode="&#x15b;" horiz-adv-x="839" 
d="M532 1126h-26q98 143 174 233t116.5 121t65.5 31q27 0 27 -22q0 -72 -357 -363zM315 -23q-209 0 -313 166l152 275h28q-63 -116 -63 -213q0 -78 51 -124t158 -46q141 0 245.5 78t104.5 182q0 31 -15.5 57.5t-38.5 45.5t-67 39.5t-83 34.5t-105 36q-100 34 -151.5 87
t-51.5 136q0 139 102 231.5t256 92.5q188 0 285 -146l-119 -223h-31q69 138 25 223.5t-178 85.5q-118 0 -203.5 -66.5t-85.5 -158.5q0 -56 49.5 -94.5t165.5 -75.5q14 -5 54 -17t55 -17t48 -18t47 -22.5t35.5 -27t31 -35.5t17 -43t7.5 -55q0 -164 -118.5 -276t-293.5 -112z
" />
    <glyph glyph-name="Scedilla" unicode="&#x15e;" horiz-adv-x="1161" 
d="M623 913l84 -24q40 -11 64 -19t67 -25t71 -34t62.5 -45.5t55 -60t34.5 -75.5t14 -95q0 -142 -74 -265t-202.5 -200t-284.5 -90l-74 -97q67 0 100 -30t33 -78q0 -67 -58.5 -130t-141.5 -63q-57 0 -111 35l2 16q44 -20 94 -20q64 0 109 32.5t45 84.5q0 39 -33 65.5
t-98 26.5l8 39l90 116h-22q-91 0 -170 22.5t-132.5 59t-88.5 76.5t-52 82l181 399h41q-91 -204 -91 -313q0 -64 24 -114t60 -78.5t85 -47t92 -24.5t88 -6q141 0 259.5 59t186.5 161t68 224q0 51 -19 92.5t-46 68.5t-77.5 53t-90 40.5t-107.5 36.5l-107 35q-38 12 -67 23.5
t-72 37t-71 55.5t-49 78t-21 105q0 89 37 174t102.5 151t164 106t212.5 40q241 0 391 -166l-193 -303h-41q97 147 97 235q0 47 -26 81.5t-68 53t-86.5 27t-90.5 8.5q-182 0 -309 -99.5t-127 -240.5q0 -47 19.5 -86.5t46 -65t68.5 -47.5t72.5 -33.5t72.5 -23.5z" />
    <glyph glyph-name="scedilla" unicode="&#x15f;" horiz-adv-x="839" 
d="M432 600q14 -5 54 -17t55 -17t48 -18t47 -22.5t35.5 -27t31 -35.5t17 -43t7.5 -55q0 -155 -105.5 -263t-265.5 -122l-73 -97q67 0 100 -30t33 -78q0 -67 -59 -130t-142 -63q-57 0 -111 35l2 16q44 -20 95 -20q64 0 108.5 32.5t44.5 84.5q0 39 -33 65.5t-98 26.5l8 39
l91 116h-7q-209 0 -313 166l152 275h28q-63 -116 -63 -213q0 -78 51 -124t158 -46q141 0 245.5 78t104.5 182q0 31 -15.5 57.5t-38.5 45.5t-67 39.5t-83 34.5t-105 36q-100 34 -151.5 87t-51.5 136q0 139 102 231.5t256 92.5q188 0 285 -146l-119 -223h-31q69 138 25 223.5
t-178 85.5q-118 0 -203.5 -66.5t-85.5 -158.5q0 -56 49.5 -94.5t165.5 -75.5z" />
    <glyph glyph-name="Scaron" unicode="&#x160;" horiz-adv-x="1161" 
d="M799 1653q-29 0 -50.5 41.5t-77.5 195.5q-11 29 -17 46t-17 46.5t-21 55.5h27q141 -211 176 -289q28 34 66.5 74t67.5 68.5t78.5 76.5t72.5 70h26q-36 -47 -94 -126q-143 -191 -179 -227q-33 -32 -58 -32zM457 -23q-91 0 -170 22.5t-132.5 59t-88.5 76.5t-52 82l181 399
h41q-91 -204 -91 -313q0 -64 24 -114t60 -78.5t85 -47t92 -24.5t88 -6q141 0 259.5 59t186.5 161t68 224q0 51 -19 92.5t-46 68.5t-77.5 53t-90 40.5t-107.5 36.5l-107 35q-38 12 -67 23.5t-72 37t-71 55.5t-49 78t-21 105q0 89 37 174t102.5 151t164 106t212.5 40
q241 0 391 -166l-193 -303h-41q97 147 97 235q0 47 -26 81.5t-68 53t-86.5 27t-90.5 8.5q-182 0 -309 -99.5t-127 -240.5q0 -47 19.5 -86.5t46 -65t68.5 -47.5t72.5 -33.5t72.5 -23.5l84 -24q40 -11 64 -19t67 -25t71 -34t62.5 -45.5t55 -60t34.5 -75.5t14 -95
q0 -151 -82.5 -279.5t-225 -203.5t-310.5 -75z" />
    <glyph glyph-name="scaron" unicode="&#x161;" horiz-adv-x="839" 
d="M539 1120q-29 0 -50.5 41.5t-77.5 195.5q-11 29 -17 46t-17 46.5t-21 55.5h27q7 -10 27 -40l27 -40.5t23.5 -36t24 -37.5t20.5 -33.5t21 -35.5t17 -31.5t16 -33.5q28 34 66 74t68 68.5t78.5 75t72.5 70.5h26q-36 -47 -94 -126q-143 -191 -179 -227q-33 -32 -58 -32z
M315 -23q-209 0 -313 166l152 275h28q-63 -116 -63 -213q0 -78 51 -124t158 -46q141 0 245.5 78t104.5 182q0 31 -15.5 57.5t-38.5 45.5t-67 39.5t-83 34.5t-105 36q-100 34 -151.5 87t-51.5 136q0 139 102 231.5t256 92.5q188 0 285 -146l-119 -223h-31q69 138 25 223.5
t-178 85.5q-118 0 -203.5 -66.5t-85.5 -158.5q0 -56 49.5 -94.5t165.5 -75.5q14 -5 54 -17t55 -17t48 -18t47 -22.5t35.5 -27t31 -35.5t17 -43t7.5 -55q0 -164 -118.5 -276t-293.5 -112z" />
    <glyph glyph-name="uni0162" unicode="&#x162;" horiz-adv-x="1343" 
d="M285 1556h1177l11 -317h-21l-84 256h-461l-276 -1421l143 -54l-4 -20h-154l-90 -117q67 0 100 -30t33 -78q0 -67 -58.5 -130t-141.5 -63q-57 0 -111 35l2 16q44 -20 94 -20q64 0 109 32.5t45 84.5q0 39 -33 65.5t-98 26.5l8 39l107 139h-211l4 20l164 54l276 1421h-461
l-182 -256h-20z" />
    <glyph glyph-name="uni0163" unicode="&#x163;" horiz-adv-x="606" 
d="M616 973h-270l-133 -686q-26 -141 -4.5 -198.5t94.5 -57.5q114 0 207 166h31q-52 -111 -126 -165.5t-159 -54.5h-6l-74 -94q67 0 100 -30t33 -78q0 -67 -58.5 -130t-141.5 -63q-57 0 -111 35l2 16q44 -20 94 -20q64 0 109 32.5t45 84.5q0 39 -33 65.5t-98 26.5l8 39
l92 121q-71 12 -93 79.5t5 214.5l135 697h-155l4 20l163 31l117 348h31l-68 -348h271z" />
    <glyph glyph-name="Tcaron" unicode="&#x164;" horiz-adv-x="1343" 
d="M893 1653q-29 0 -50.5 41.5t-74.5 188.5q-34 95 -57 155h26q141 -211 176 -289q28 34 66.5 74t67.5 68.5t78.5 76.5t72.5 70h27q-32 -43 -87 -116q-129 -173 -171.5 -221t-73.5 -48zM770 0h-399l4 20l164 54l276 1421h-461l-182 -256h-20l133 317h1177l11 -317h-21
l-84 256h-461l-276 -1421l143 -54z" />
    <glyph glyph-name="tcaron" unicode="&#x165;" horiz-adv-x="606" 
d="M682 1065h-20q77 80 108 137t31 133q0 104 -35 156q7 41 34.5 60.5t61.5 19.5q33 0 53.5 -20.5t20.5 -57.5q0 -79 -82.5 -214.5t-171.5 -213.5zM256 -23q-94 0 -126 69.5t-1 229.5l135 697h-155l4 20l163 31l117 348h31l-68 -348h271l-11 -51h-270l-133 -686
q-26 -141 -4.5 -198.5t94.5 -57.5q114 0 207 166h31q-52 -111 -126 -165.5t-159 -54.5z" />
    <glyph glyph-name="Tbar" unicode="&#x166;" horiz-adv-x="1345" 
d="M285 1556h1177l11 -317h-21l-84 256h-461l-135 -692h205l-10 -51h-205l-131 -678l143 -54l-4 -20h-399l4 20l164 54l131 678h-201l10 51h201l135 692h-461l-182 -256h-20z" />
    <glyph glyph-name="tbar" unicode="&#x167;" horiz-adv-x="610" 
d="M627 1024l-11 -51h-270l-84 -436h303l-10 -52h-303l-39 -198q-26 -141 -4.5 -198.5t94.5 -57.5q114 0 207 166h31q-52 -111 -126 -165.5t-159 -54.5q-94 0 -126 69.5t-1 229.5l41 209h-113l11 52h112l84 436h-155l4 20l163 31l117 348h31l-68 -348h271z" />
    <glyph glyph-name="Umacron" unicode="&#x16a;" horiz-adv-x="1435" 
d="M1241 1765h-539l15 78h538zM618 -23q-121 0 -206 32.5t-130.5 86.5t-65 134.5t-16.5 166t23 191.5l172 887l-141 61l4 20h399l-4 -20l-166 -61l-172 -887q-54 -275 33.5 -401t300.5 -126q216 0 334.5 126.5t171.5 400.5l172 887l-141 61l4 20h399l-4 -20l-166 -61
l-172 -887q-28 -144 -75 -252.5t-121.5 -191t-183 -125t-249.5 -42.5z" />
    <glyph glyph-name="umacron" unicode="&#x16b;" horiz-adv-x="993" 
d="M893 1233h-539l15 78h538zM301 -23q-42 0 -74 9.5t-58.5 33t-38.5 62t-14 97t15 138.5l121 625h-133l4 21l207 61h20l-133 -680q-59 -303 135 -303q104 0 193 73.5t153 182.5l125 645h-133l4 21l207 61h21l-185 -942h133l-4 -21l-204 -61h-21l41 215q-26 -41 -59.5 -78
t-81.5 -75.5t-110.5 -61.5t-129.5 -23z" />
    <glyph glyph-name="Uring" unicode="&#x16e;" horiz-adv-x="1435" 
d="M954 1704q-60 0 -98.5 40.5t-38.5 98.5q0 76 62 133.5t139 57.5q58 0 96.5 -40.5t38.5 -99.5q0 -74 -62 -132t-137 -58zM963 1751q53 0 98 41.5t45 93.5q0 41 -28 71t-68 30q-56 0 -100 -41t-44 -95q0 -42 27.5 -71t69.5 -29zM618 -23q-121 0 -206 32.5t-130.5 86.5
t-65 134.5t-16.5 166t23 191.5l172 887l-141 61l4 20h399l-4 -20l-166 -61l-172 -887q-54 -275 33.5 -401t300.5 -126q216 0 334.5 126.5t171.5 400.5l172 887l-141 61l4 20h399l-4 -20l-166 -61l-172 -887q-28 -144 -75 -252.5t-121.5 -191t-183 -125t-249.5 -42.5z" />
    <glyph glyph-name="uring" unicode="&#x16f;" horiz-adv-x="993" 
d="M606 1171q-60 0 -98.5 41t-38.5 99q0 76 61.5 133t139.5 57q58 0 96.5 -40t38.5 -99q0 -74 -62 -132.5t-137 -58.5zM614 1219q53 0 98.5 41.5t45.5 93.5q0 41 -28 70.5t-68 29.5q-56 0 -100 -40.5t-44 -94.5q0 -42 27 -71t69 -29zM301 -23q-42 0 -74 9.5t-58.5 33
t-38.5 62t-14 97t15 138.5l121 625h-133l4 21l207 61h20l-133 -680q-59 -303 135 -303q104 0 193 73.5t153 182.5l125 645h-133l4 21l207 61h21l-185 -942h133l-4 -21l-204 -61h-21l41 215q-26 -41 -59.5 -78t-81.5 -75.5t-110.5 -61.5t-129.5 -23z" />
    <glyph glyph-name="Uhungarumlaut" unicode="&#x170;" horiz-adv-x="1435" 
d="M780 1659h-26q98 143 174 233t116.5 121t65.5 31q27 0 27 -23q0 -71 -357 -362zM1051 1659h-27q97 142 174 232.5t117.5 121.5t64.5 31q27 0 27 -23q0 -36 -91.5 -129t-264.5 -233zM618 -23q-121 0 -206 32.5t-130.5 86.5t-65 134.5t-16.5 166t23 191.5l172 887l-141 61
l4 20h399l-4 -20l-166 -61l-172 -887q-54 -275 33.5 -401t300.5 -126q216 0 334.5 126.5t171.5 400.5l172 887l-141 61l4 20h399l-4 -20l-166 -61l-172 -887q-28 -144 -75 -252.5t-121.5 -191t-183 -125t-249.5 -42.5z" />
    <glyph glyph-name="uhungarumlaut" unicode="&#x171;" horiz-adv-x="993" 
d="M432 1126h-26q98 143 174 233t116.5 121t65.5 31q26 0 26 -22q0 -73 -356 -363zM702 1126h-26q97 142 174 232.5t117.5 121.5t64.5 31q27 0 27 -22q0 -36 -92 -129.5t-265 -233.5zM301 -23q-42 0 -74 9.5t-58.5 33t-38.5 62t-14 97t15 138.5l121 625h-133l4 21l207 61h20
l-133 -680q-59 -303 135 -303q104 0 193 73.5t153 182.5l125 645h-133l4 21l207 61h21l-185 -942h133l-4 -21l-204 -61h-21l41 215q-26 -41 -59.5 -78t-81.5 -75.5t-110.5 -61.5t-129.5 -23z" />
    <glyph glyph-name="Uogonek" unicode="&#x172;" horiz-adv-x="1435" 
d="M1186 1536l4 20h399l-4 -20l-166 -61l-172 -887q-26 -137 -70 -241.5t-111.5 -186t-166 -127.5t-225.5 -53q-137 -132 -137 -236q0 -44 24 -70t64 -26q63 0 129 57h10q-94 -111 -184 -111q-48 0 -78.5 32.5t-30.5 84.5q0 122 172 266h-25q-121 0 -206 32.5t-130.5 86.5
t-65 134.5t-16.5 166t23 191.5l172 887l-141 61l4 20h399l-4 -20l-166 -61l-172 -887q-54 -275 33.5 -401t300.5 -126q216 0 334.5 126.5t171.5 400.5l172 887z" />
    <glyph glyph-name="uogonek" unicode="&#x173;" horiz-adv-x="993" 
d="M901 1024h21l-185 -942h133l-4 -21l-204 -61q-60 -51 -110 -120.5t-50 -135.5q0 -44 24 -70t64 -26q63 0 129 57h10q-94 -111 -184 -111q-48 0 -78.5 32.5t-30.5 84.5q0 130 205 293l41 211q-26 -41 -59.5 -78t-81.5 -75.5t-110.5 -61.5t-129.5 -23q-42 0 -74 9.5
t-58.5 33t-38.5 62t-14 97t15 138.5l121 625h-133l4 21l207 61h20l-133 -680q-59 -303 135 -303q104 0 193 73.5t153 182.5l125 645h-133l4 21z" />
    <glyph glyph-name="Wcircumflex" unicode="&#x174;" horiz-adv-x="2181" 
d="M1077 1618h-26q37 49 99 131q123 163 163.5 208.5t70.5 45.5t52 -44.5t77 -196.5q32 -89 52 -144h-27q-10 15 -40.5 62t-41.5 64.5t-32 51.5t-34.5 59.5t-25.5 51.5q-28 -34 -68.5 -76t-63.5 -65t-83 -79.5t-72 -68.5zM532 0h-61l-186 1475l-144 61l4 20h400l-4 -20
l-146 -61l158 -1311l711 1392h67l205 -1392l655 1311l-163 61l4 20h399l-4 -20l-172 -61l-742 -1475h-61l-203 1403z" />
    <glyph glyph-name="wcircumflex" unicode="&#x175;" horiz-adv-x="1521" 
d="M651 1085h-26q37 49 99 131q123 163 163.5 208.5t70.5 45.5t52 -44.5t77 -196.5q32 -89 52 -144h-27q-10 15 -40.5 62t-41.5 64.5t-32 51.5t-34.5 59.5t-25.5 51.5q-28 -34 -68.5 -76t-63.5 -65t-83 -79.5t-72 -68.5zM389 0h-61l-107 956l-143 48l4 20h399l-4 -20
l-166 -48l80 -843l443 911h71l80 -911l412 843l-158 48l4 20h399l-4 -20l-184 -48l-471 -956h-61l-88 924z" />
    <glyph glyph-name="Ycircumflex" unicode="&#x176;" horiz-adv-x="1257" 
d="M616 1618h-26q212 279 231 303q62 74 93 81q5 1 10 1q29 0 49.5 -41t75.5 -193q11 -29 17 -46.5t17 -47.5t21 -57h-27q-10 15 -40.5 62t-41.5 64.5t-32 51.5t-34.5 59.5t-25.5 51.5q-28 -34 -68.5 -76t-63.5 -65t-83 -79.5t-72 -68.5zM731 0h-399l4 20l164 54l98 501
l-324 912l-124 49l4 20h399l-4 -20l-160 -49l299 -825l592 825l-184 49l4 20h399l-4 -20l-154 -49l-649 -899l-100 -514l143 -54z" />
    <glyph glyph-name="ycircumflex" unicode="&#x177;" horiz-adv-x="1058" 
d="M408 1085h-27q212 279 231 303q62 74 93 81q5 1 10 1q29 0 49.5 -41t75.5 -193q11 -29 17 -46.5t17 -47.5t21 -57h-27q-10 15 -40.5 62t-41.5 64.5t-32 51.5t-34.5 59.5t-25.5 51.5q-23 -27 -49 -55.5t-59.5 -62t-54.5 -54t-64.5 -62t-58.5 -55.5zM-10 -424l-133 203
l30 18q30 -43 91 -92t110 -49q38 0 81 32t85 86.5t76 108.5t67 117l-178 956l-139 48l4 20h399l-4 -20l-170 -48l158 -856l461 856l-158 48l4 20h400l-5 -20l-180 -48l-487 -878q-47 -84 -75.5 -133.5t-66.5 -110t-66.5 -94.5t-65 -70t-71.5 -53.5t-77 -29t-90 -11.5z" />
    <glyph glyph-name="Ydieresis" unicode="&#x178;" horiz-adv-x="1257" 
d="M680 1739q-29 0 -46.5 16.5t-17.5 42.5q0 40 28.5 69t66.5 29q31 0 49 -17t18 -44q0 -40 -28.5 -68t-69.5 -28zM946 1739q-29 0 -46 16t-17 43q0 40 28 69t66 29q31 0 49 -17t18 -44q0 -40 -28.5 -68t-69.5 -28zM731 0h-399l4 20l164 54l98 501l-324 912l-124 49l4 20
h399l-4 -20l-160 -49l299 -825l592 825l-184 49l4 20h399l-4 -20l-154 -49l-649 -899l-100 -514l143 -54z" />
    <glyph glyph-name="Zacute" unicode="&#x179;" horiz-adv-x="1050" 
d="M743 1659h-26q98 143 174 233t116.5 121t65.5 31q27 0 27 -23q0 -71 -357 -362zM838 0h-881l-6 20l1089 1475h-628l-185 -266h-20l135 327h819l6 -20l-1081 -1475h682l182 256h21z" />
    <glyph glyph-name="zacute" unicode="&#x17a;" horiz-adv-x="833" 
d="M535 1126h-27q98 143 174 233t116.5 121t65.5 31q27 0 27 -22q0 -73 -356 -363zM614 0h-645l-6 20l750 943h-381l-195 -267h-20l135 328h584l6 -20l-744 -943h437l192 256h21z" />
    <glyph glyph-name="Zdotaccent" unicode="&#x17b;" horiz-adv-x="1050" 
d="M780 1731q-32 0 -50.5 18.5t-18.5 48.5q0 42 30.5 73.5t71.5 31.5q32 0 51 -19t19 -49q0 -41 -31 -72.5t-72 -31.5zM838 0h-881l-6 20l1089 1475h-628l-185 -266h-20l135 327h819l6 -20l-1081 -1475h682l182 256h21z" />
    <glyph glyph-name="zdotaccent" unicode="&#x17c;" horiz-adv-x="833" 
d="M571 1198q-32 0 -50.5 19t-18.5 49q0 41 30.5 72.5t71.5 31.5q32 0 51 -18.5t19 -48.5q0 -41 -31 -73t-72 -32zM614 0h-645l-6 20l750 943h-381l-195 -267h-20l135 328h584l6 -20l-744 -943h437l192 256h21z" />
    <glyph glyph-name="Zcaron" unicode="&#x17d;" horiz-adv-x="1050" 
d="M750 1653q-29 0 -50.5 41.5t-77.5 195.5q-11 29 -17 46t-17 46.5t-21 55.5h27q141 -211 176 -289q28 34 66.5 74t67.5 68.5t78.5 76.5t72.5 70h26q-36 -47 -94 -126q-143 -191 -179 -227q-33 -32 -58 -32zM838 0h-881l-6 20l1089 1475h-628l-185 -266h-20l135 327h819
l6 -20l-1081 -1475h682l182 256h21z" />
    <glyph glyph-name="zcaron" unicode="&#x17e;" horiz-adv-x="833" 
d="M541 1120q-29 0 -50.5 41.5t-77.5 195.5q-11 29 -17 46t-17 46.5t-21 55.5h27q7 -10 27 -40l27 -40.5t23.5 -36t24 -37.5t20.5 -33.5t21 -35.5t17 -31.5t16 -33.5q28 34 66 74t68 68.5t78 75t73 70.5h26q-36 -47 -94 -126q-143 -191 -179 -227q-33 -32 -58 -32zM614 0
h-645l-6 20l750 943h-381l-195 -267h-20l135 328h584l6 -20l-744 -943h437l192 256h21z" />
    <glyph glyph-name="uni018F" unicode="&#x18f;" horiz-adv-x="1607" 
d="M930 1573q314 0 483.5 -171t169.5 -484q0 -187 -72 -360t-193 -300.5t-290.5 -204t-355.5 -76.5q-254 0 -414 162t-160 418q0 102 33 231h1333q6 62 6 127q0 151 -40.5 266.5t-115.5 187.5t-176 108t-227 36q-84 0 -159.5 -18t-147.5 -60.5t-129.5 -107t-102.5 -163
t-69 -222.5h-31l88 455q7 10 35 29t81 44.5t117.5 48t154.5 38.5t182 16zM719 53q286 0 486 184t251 490h-1247q-10 -64 -10 -121q0 -101 28 -190t77.5 -154.5t115 -113t142 -71.5t157.5 -24z" />
    <glyph glyph-name="florin" unicode="&#x192;" horiz-adv-x="989" 
d="M123 -25q-60 0 -100 25.5t-48 65.5l80 274h37q-21 -67 -31.5 -122.5t-10 -105.5t22 -78t64.5 -28q45 0 84.5 27.5t73 83t61.5 123.5t54 164t46.5 187.5t43.5 211.5h-260l12 65h260l16 86q30 159 62.5 267.5t78.5 191t107 121.5t142 39q93 0 136.5 -45t51.5 -105l-80 -276
h-37q101 391 -84 391q-111 0 -180 -148.5t-139 -521.5h307l-12 -65h-308l-18 -96q-21 -108 -40 -190t-46.5 -171t-60 -151.5t-74 -114.5t-95 -78.5t-116.5 -26.5z" />
    <glyph glyph-name="uni0218" unicode="&#x218;" horiz-adv-x="1161" 
d="M457 -23q-91 0 -170 22.5t-132.5 59t-88.5 76.5t-52 82l181 399h41q-91 -204 -91 -313q0 -64 24 -114t60 -78.5t85 -47t92 -24.5t88 -6q141 0 259.5 59t186.5 161t68 224q0 51 -19 92.5t-46 68.5t-77.5 53t-90 40.5t-107.5 36.5l-107 35q-38 12 -67 23.5t-72 37t-71 55.5
t-49 78t-21 105q0 89 37 174t102.5 151t164 106t212.5 40q241 0 391 -166l-193 -303h-41q97 147 97 235q0 47 -26 81.5t-68 53t-86.5 27t-90.5 8.5q-182 0 -309 -99.5t-127 -240.5q0 -47 19.5 -86.5t46 -65t68.5 -47.5t72.5 -33.5t72.5 -23.5l84 -24q40 -11 64 -19t67 -25
t71 -34t62.5 -45.5t55 -60t34.5 -75.5t14 -95q0 -151 -82.5 -279.5t-225 -203.5t-310.5 -75zM432 -102q36 0 55 -27.5t19 -69.5q0 -132 -189 -301h-22q131 134 131 197q0 24 -14.5 41t-31 25t-28 25.5t-6.5 43.5q7 31 31 48.5t55 17.5z" />
    <glyph glyph-name="uni0219" unicode="&#x219;" horiz-adv-x="839" 
d="M315 -23q-209 0 -313 166l152 275h28q-63 -116 -63 -213q0 -78 51 -124t158 -46q141 0 245.5 78t104.5 182q0 31 -15.5 57.5t-38.5 45.5t-67 39.5t-83 34.5t-105 36q-100 34 -151.5 87t-51.5 136q0 139 102 231.5t256 92.5q188 0 285 -146l-119 -223h-31q69 138 25 223.5
t-178 85.5q-118 0 -203.5 -66.5t-85.5 -158.5q0 -56 49.5 -94.5t165.5 -75.5q14 -5 54 -17t55 -17t48 -18t47 -22.5t35.5 -27t31 -35.5t17 -43t7.5 -55q0 -164 -118.5 -276t-293.5 -112zM274 -102q36 0 55 -27.5t19 -69.5q0 -132 -188 -301h-23q131 134 131 197
q0 24 -14.5 41t-31 25t-28 25.5t-6.5 43.5q7 31 31 48.5t55 17.5z" />
    <glyph glyph-name="uni021A" unicode="&#x21a;" horiz-adv-x="1343" 
d="M770 0h-399l4 20l164 54l276 1421h-461l-182 -256h-20l133 317h1177l11 -317h-21l-84 256h-461l-276 -1421l143 -54zM518 -102q36 0 55 -27.5t19 -69.5q0 -132 -189 -301h-22q131 134 131 197q0 24 -14.5 41t-31 25t-28 25.5t-6.5 43.5q7 31 31 48.5t55 17.5z" />
    <glyph glyph-name="uni021B" unicode="&#x21b;" horiz-adv-x="606" 
d="M256 -23q-94 0 -126 69.5t-1 229.5l135 697h-155l4 20l163 31l117 348h31l-68 -348h271l-11 -51h-270l-133 -686q-26 -141 -4.5 -198.5t94.5 -57.5q114 0 207 166h31q-52 -111 -126 -165.5t-159 -54.5zM168 -102q36 0 55 -27.5t19 -69.5q0 -132 -189 -301h-22
q131 134 131 197q0 24 -14.5 41t-31 25t-28 25.5t-6.5 43.5q7 31 31 48.5t55 17.5z" />
    <glyph glyph-name="uni0259" unicode="&#x259;" horiz-adv-x="997" 
d="M580 1055q91 0 162 -33.5t113 -91t63.5 -129t21.5 -152.5q0 -167 -81.5 -323.5t-215 -252.5t-276.5 -96q-163 0 -242.5 124t-40.5 323l6 31h756l2 12q27 144 -4 264t-113.5 190t-200.5 70q-245 0 -438 -319h-31q85 171 219 277t300 106zM823 393h-657q-31 -161 27 -256.5
t194 -95.5q143 0 263.5 100t172.5 252z" />
    <glyph glyph-name="uni02BC" unicode="&#x2bc;" horiz-adv-x="339" 
d="M207 1065h-21q77 80 108.5 137t31.5 133q0 104 -35 156q7 41 34.5 60.5t61.5 19.5q33 0 53.5 -20.5t20.5 -57.5q0 -79 -82.5 -214.5t-171.5 -213.5z" />
    <glyph glyph-name="circumflex" unicode="&#x2c6;" horiz-adv-x="649" 
d="M223 1085h-26q37 49 99 131q123 163 163.5 208.5t70.5 45.5t52 -44.5t77 -196.5q32 -89 52 -144h-27q-10 15 -40.5 62t-41.5 64.5t-32 51.5t-34.5 59.5t-25.5 51.5q-28 -34 -68.5 -76t-63.5 -65t-83 -79.5t-72 -68.5z" />
    <glyph glyph-name="caron" unicode="&#x2c7;" horiz-adv-x="649" 
d="M442 1120q-29 0 -50.5 41.5t-74.5 188.5q-34 95 -57 155h27q7 -10 27 -40l27 -40.5t23.5 -36t24 -37.5t20.5 -33.5t21 -35.5t17 -31.5t16 -33.5q28 34 66 74t68 68.5t78 75t73 70.5h26q-32 -43 -87 -116q-129 -173 -171.5 -221t-73.5 -48z" />
    <glyph glyph-name="breve" unicode="&#x2d8;" horiz-adv-x="749" 
d="M481 1126q-52 0 -94.5 20t-75.5 65t-40.5 118.5t10.5 181.5h26q-13 -53 -7.5 -106.5t23.5 -96t64 -69.5t113 -27t122 26.5t91.5 71t59.5 95t34 106.5h27q-20 -103 -59 -180.5t-88.5 -120.5t-101 -63.5t-104.5 -20.5z" />
    <glyph glyph-name="dotaccent" unicode="&#x2d9;" horiz-adv-x="391" 
d="M424 1198q-32 0 -51 19t-19 49q0 41 31 72.5t72 31.5q32 0 50.5 -18.5t18.5 -48.5q0 -42 -30.5 -73.5t-71.5 -31.5z" />
    <glyph glyph-name="ring" unicode="&#x2da;" horiz-adv-x="516" 
d="M387 1171q-60 0 -98.5 41t-38.5 99q0 76 61.5 133t139.5 57q58 0 96.5 -40t38.5 -99q0 -74 -62 -132.5t-137 -58.5zM395 1219q53 0 98.5 41.5t45.5 93.5q0 41 -28.5 70.5t-68.5 29.5q-56 0 -99.5 -40.5t-43.5 -94.5q0 -42 27 -71t69 -29z" />
    <glyph glyph-name="ogonek" unicode="&#x2db;" horiz-adv-x="440" 
d="M45 -424q-48 0 -78 32.5t-30 84.5q0 24 6.5 48.5t19 47.5t26.5 44t33.5 42t35 37t35 32.5t30.5 25.5t25.5 20.5t15.5 11.5h22q-20 -15 -46 -40t-59.5 -63t-56 -85t-22.5 -88q0 -44 24 -70.5t64 -26.5q62 0 129 58h10q-94 -111 -184 -111z" />
    <glyph glyph-name="tilde" unicode="&#x2dc;" horiz-adv-x="727" 
d="M254 1167h-16q27 92 80 143.5t116 51.5q31 0 56.5 -11t42.5 -27t33.5 -32.5t37 -27.5t45.5 -11q89 0 150 129h16q-26 -92 -79.5 -143t-119.5 -51q-38 0 -68.5 17t-47.5 37t-42.5 37t-54.5 17q-87 0 -149 -129z" />
    <glyph glyph-name="hungarumlaut" unicode="&#x2dd;" horiz-adv-x="720" 
d="M276 1126h-26q98 143 174 233t116.5 121t65.5 31q27 0 27 -22q0 -72 -357 -363zM547 1126h-27q97 142 174 232.5t118 121.5t65 31q26 0 26 -22q0 -36 -91.5 -130t-264.5 -233z" />
    <glyph glyph-name="gravecomb" unicode="&#x300;" 
d="M-117 1126h-26q-357 291 -357 363q0 22 27 22q25 0 65.5 -31t116.5 -121t174 -233z" />
    <glyph glyph-name="acutecomb" unicode="&#x301;" 
d="M-283 1126h-26q98 143 174 233t116.5 121t65.5 31q27 0 27 -22q0 -72 -357 -363z" />
    <glyph glyph-name="uni0302" unicode="&#x302;" 
d="M-436 1085h-27q212 279 231 303q62 74 93 81q5 1 10 1q29 0 49.5 -41t75.5 -193q11 -29 17 -46.5t17 -47.5t21 -57h-26q-13 20 -40.5 62t-41.5 63.5t-33.5 53t-33.5 58t-26 52.5q-23 -27 -49 -55.5t-59.5 -62t-54.5 -54t-64.5 -62t-58.5 -55.5z" />
    <glyph glyph-name="tildecomb" unicode="&#x303;" 
d="M-481 1167h-17q27 92 80.5 143.5t116.5 51.5q31 0 56.5 -11t42.5 -27t33.5 -32.5t37 -27.5t45.5 -11q88 0 149 129h17q-26 -92 -79.5 -143t-119.5 -51q-38 0 -68.5 17t-47.5 37t-42.5 37t-54.5 17q-88 0 -149 -129z" />
    <glyph glyph-name="uni0304" unicode="&#x304;" 
d="M18 1233h-538l14 78h539z" />
    <glyph glyph-name="uni0306" unicode="&#x306;" 
d="M-256 1126q-52 0 -94.5 20t-76 65t-41 118.5t10.5 181.5h27q-6 -43 -8 -85t10 -81t33.5 -68.5t62 -47t94.5 -17.5q67 0 122.5 26.5t92 71t59.5 95t34 106.5h26q-20 -103 -59 -180.5t-88.5 -120.5t-100.5 -63.5t-104 -20.5z" />
    <glyph glyph-name="uni0307" unicode="&#x307;" 
d="M-59 1198q-32 0 -51 19t-19 49q0 41 30.5 72.5t71.5 31.5q32 0 51 -18.5t19 -48.5q0 -42 -30.5 -73.5t-71.5 -31.5z" />
    <glyph glyph-name="uni0308" unicode="&#x308;" 
d="M-307 1309q-29 0 -46.5 16.5t-17.5 42.5q0 40 28.5 69t66.5 29q31 0 49 -17t18 -44q0 -40 -28.5 -68t-69.5 -28zM-41 1309q-29 0 -46 16t-17 43q0 40 28 69t66 29q31 0 49 -17t18 -44q0 -40 -28.5 -68t-69.5 -28z" />
    <glyph glyph-name="uni030A" unicode="&#x30a;" 
d="M-129 1171q-60 0 -98.5 41t-38.5 99q0 76 61.5 133t138.5 57q58 0 97 -40t39 -99q0 -74 -62 -132.5t-137 -58.5zM-121 1219q53 0 98.5 41.5t45.5 93.5q0 41 -28.5 70.5t-68.5 29.5q-56 0 -99.5 -40.5t-43.5 -94.5q0 -42 27 -71t69 -29z" />
    <glyph glyph-name="uni030B" unicode="&#x30b;" 
d="M-594 1126h-27q97 143 173.5 233t117.5 121t66 31q26 0 26 -22q0 -73 -356 -363zM-324 1126h-26q97 142 174 232.5t117.5 121.5t64.5 31q27 0 27 -22q0 -36 -92 -129.5t-265 -233.5z" />
    <glyph glyph-name="uni030C" unicode="&#x30c;" 
d="M-207 1120q-29 0 -50.5 41.5t-74.5 188.5q-34 95 -57 155h27q7 -10 27 -40l27 -40.5t23.5 -36t24 -37.5t20.5 -33.5t21 -35.5t17 -31.5t16 -33.5q28 34 66.5 74t67 68t78 76t72.5 70h27q-32 -43 -87 -116q-129 -173 -171.5 -221t-73.5 -48z" />
    <glyph glyph-name="uni0312" unicode="&#x312;" 
d="M-41 1200q-47 0 -64 40.5t-6 98.5q22 114 185 258h22q-118 -118 -129 -178q-5 -25 2.5 -43t21 -27.5t27.5 -19t21.5 -25.5t3.5 -38q-6 -31 -29.5 -48.5t-54.5 -17.5z" />
    <glyph glyph-name="uni0326" unicode="&#x326;" 
d="M-264 -102q36 0 55 -27.5t19 -69.5q0 -132 -189 -301h-22q131 134 131 197q0 24 -14.5 41t-31 25t-28 25.5t-6.5 43.5q7 31 31 48.5t55 17.5z" />
    <glyph glyph-name="uni0327" unicode="&#x327;" 
d="M-434 -418q-57 0 -111 35l2 16q44 -20 94 -20q64 0 109 32.5t45 84.5q0 39 -33 65.5t-98 26.5l8 39l127 166h35l-111 -144q67 0 100.5 -30.5t33.5 -77.5q0 -67 -59 -130t-142 -63z" />
    <glyph glyph-name="uni0328" unicode="&#x328;" 
d="M-399 -424q-48 0 -78.5 32.5t-30.5 84.5q0 24 6.5 48.5t19 47.5t26.5 44t33.5 42t35 37t35 32.5t30.5 25.5t25.5 20.5t15.5 11.5h23q-20 -15 -46 -40t-59.5 -63t-56 -85t-22.5 -88q0 -44 24 -70.5t64 -26.5q62 0 129 58h10q-94 -111 -184 -111z" />
    <glyph glyph-name="uni0335" unicode="&#x335;" 
d="M-121 549h-497l10 51h497z" />
    <glyph glyph-name="uni0336" unicode="&#x336;" 
d="M-125 537h-1235l14 77h1235z" />
    <glyph glyph-name="uni0337" unicode="&#x337;" 
d="M-39 739l-422 -200l15 77l423 203z" />
    <glyph glyph-name="uni0338" unicode="&#x338;" 
d="M-1298 -168h-74l1360 1624h75z" />
    <glyph glyph-name="uni0394" unicode="&#x394;" horiz-adv-x="1060" 
d="M973 0h-1065l743 1317h62zM664 1212l-648 -1140h881z" />
    <glyph glyph-name="uni03A9" unicode="&#x3a9;" horiz-adv-x="1476" 
d="M338 0h-287l4 20l344 84q-127 63 -200.5 198.5t-73.5 293.5q0 157 66.5 297t174.5 236t247 152t282 56q226 0 374 -147t148 -383q0 -222 -144 -416.5t-362 -286.5l312 -84l-4 -20h-287l-86 119q136 43 247 145t175.5 245.5t64.5 297.5q0 213 -124 349t-322 136
q-131 0 -255 -55t-218 -148.5t-150.5 -227.5t-56.5 -283q0 -164 70 -290t192 -169z" />
    <glyph glyph-name="uni03BC" unicode="&#x3bc;" horiz-adv-x="991" 
d="M209 -389h-348l4 20l139 33l250 1278h-137l4 21l207 61h20l-131 -680q-16 -85 -14 -152.5t39.5 -109t109.5 -41.5q103 0 193 75t151 181l127 645h-135l4 21l207 61h21l-185 -942h135l-4 -21l-207 -61h-20l41 215q-160 -238 -363 -238q-49 0 -86 20t-65 77l-80 -410
l127 -33z" />
    <glyph glyph-name="pi" unicode="&#x3c0;" horiz-adv-x="983" 
d="M287 0h-348l4 20l143 54l184 950h637l-186 -950l123 -54l-4 -20h-348l4 20l143 54l172 878h-471l-172 -878l123 -54z" />
    <glyph glyph-name="uni0400" unicode="&#x400;" horiz-adv-x="1097" 
d="M799 1659h-27q-356 290 -356 362q0 23 26 23q25 0 66 -31t117.5 -121t173.5 -233zM870 0h-890l4 20l163 54l273 1401l-141 61l4 20h870l10 -317h-20l-84 256h-543l-123 -627h379l86 174h21l-80 -409h-21l-16 174h-379l-145 -746h563l182 256h21z" />
    <glyph glyph-name="uni0401" unicode="&#x401;" horiz-adv-x="1097" 
d="M614 1739q-29 0 -46 16t-17 43q0 40 28 69t66 29q32 0 50 -17t18 -44q0 -40 -29 -68t-70 -28zM881 1739q-29 0 -46.5 16.5t-17.5 42.5q0 40 28 69t66 29q32 0 50 -17t18 -44q0 -40 -28.5 -68t-69.5 -28zM870 0h-890l4 20l163 54l273 1401l-141 61l4 20h870l10 -317h-20
l-84 256h-543l-123 -627h379l86 174h21l-80 -409h-21l-16 174h-379l-145 -746h563l182 256h21z" />
    <glyph glyph-name="uni0402" unicode="&#x402;" horiz-adv-x="1636" 
d="M1237 911q200 0 269.5 -119.5t29.5 -357.5l-4 -24q-43 -258 -182.5 -391t-358.5 -148l4 20q187 31 297 159t148 360l4 24q34 210 -22.5 313t-217.5 103q-221 0 -485 -119l-127 -657l143 -54l-4 -20h-399l4 20l164 54l276 1421h-420l-182 -256h-20l133 317h1177l11 -317
h-21l-84 256h-502l-141 -723q31 17 71 34.5t111.5 44t158.5 43.5t169 17z" />
    <glyph glyph-name="uni0403" unicode="&#x403;" horiz-adv-x="1011" 
d="M748 1659h-27q98 143 174 233t116.5 121t65.5 31q27 0 27 -23q0 -72 -356 -362zM240 74l161 -54l-4 -20h-420l5 20l165 54l273 1401l-141 61l4 20h847l11 -317h-21l-84 256h-522z" />
    <glyph glyph-name="uni0404" unicode="&#x404;" horiz-adv-x="1564" 
d="M1546 616h31q-88 -186 -218 -328.5t-298 -226.5t-348 -84q-127 0 -235.5 42.5t-188.5 121.5t-125 199t-45 268q0 198 80 378t213 308t310 203.5t365 75.5q85 0 161 -16t125 -38t87 -48.5t55.5 -45t22.5 -28.5l-90 -455h-31q17 84 17 162q0 393 -385 393
q-193 0 -361 -84.5t-280.5 -231t-157.5 -331.5h803l-13 -62h-804q-13 -83 -13 -157q0 -128 34.5 -230t90 -166t130.5 -106t150.5 -59t155.5 -17q229 0 425.5 146t336.5 417z" />
    <glyph glyph-name="uni0405" unicode="&#x405;" horiz-adv-x="1161" 
d="M457 -23q-91 0 -170 22.5t-132.5 59t-88.5 76.5t-52 82l181 399h41q-91 -204 -91 -313q0 -64 24 -114t60 -78.5t85 -47t92 -24.5t88 -6q141 0 259.5 59t186.5 161t68 224q0 51 -19 92.5t-46 68.5t-77.5 53t-90 40.5t-107.5 36.5l-107 35q-38 12 -67 23.5t-72 37t-71 55.5
t-49 78t-21 105q0 89 37 174t102.5 151t164 106t212.5 40q241 0 391 -166l-193 -303h-41q97 147 97 235q0 47 -26 81.5t-68 53t-86.5 27t-90.5 8.5q-182 0 -309 -99.5t-127 -240.5q0 -47 19.5 -86.5t46 -65t68.5 -47.5t72.5 -33.5t72.5 -23.5l84 -24q40 -11 64 -19t67 -25
t71 -34t62.5 -45.5t55 -60t34.5 -75.5t14 -95q0 -151 -82.5 -279.5t-225 -203.5t-310.5 -75z" />
    <glyph glyph-name="uni0406" unicode="&#x406;" horiz-adv-x="559" 
d="M379 0h-399l4 20l163 54l273 1401l-141 61l4 20h399l-4 -20l-166 -61l-272 -1401l143 -54z" />
    <glyph glyph-name="uni0407" unicode="&#x407;" horiz-adv-x="559" 
d="M375 1739q-29 0 -46.5 16.5t-17.5 42.5q0 40 28.5 69t66.5 29q31 0 49 -17t18 -44q0 -40 -28.5 -68t-69.5 -28zM641 1739q-29 0 -46 16t-17 43q0 40 28 69t66 29q31 0 49 -17t18 -44q0 -40 -28.5 -68t-69.5 -28zM379 0h-399l4 20l163 54l273 1401l-141 61l4 20h399
l-4 -20l-166 -61l-272 -1401l143 -54z" />
    <glyph glyph-name="uni0408" unicode="&#x408;" horiz-adv-x="856" 
d="M236 -23q-66 0 -117 16t-84.5 45t-53.5 59t-36 69l243 416h31q-16 -32 -52.5 -100t-51.5 -99.5t-30 -79.5t-15 -88q0 -78 48 -120t138 -42q38 0 68.5 8.5t63.5 33.5t59.5 67.5t51.5 115t44 171.5l198 1026l-141 61l4 20h400l-5 -20l-165 -61l-207 -1061
q-16 -79 -33.5 -138.5t-48.5 -118.5t-71 -96.5t-100.5 -60.5t-137.5 -23z" />
    <glyph glyph-name="uni0409" unicode="&#x409;" horiz-adv-x="2039" 
d="M1227 881h346q116 0 208.5 -35t152 -113t59.5 -190q0 -243 -171.5 -393t-463.5 -150h-549l4 20l164 54l276 1421h-512q-62 -226 -103.5 -373t-91.5 -311.5t-86 -265t-79 -205.5t-80 -163t-80.5 -108t-88 -69.5t-95.5 -19.5q-95 0 -117 51l43 227h33q-19 -89 -5 -135.5
t66 -46.5q40 0 77.5 25t74.5 73.5t77 133.5t80 191t88.5 260.5t98 328.5t113.5 407l-144 41l4 20h985l-4 -20l-161 -41zM1063 41h293q135 0 240 40.5t168 111t94.5 159.5t31.5 193q0 147 -87 221t-249 74h-335z" />
    <glyph glyph-name="uni040A" unicode="&#x40a;" horiz-adv-x="2037" 
d="M1225 881h346q116 0 208.5 -35t152 -113t59.5 -190q0 -243 -171.5 -393t-463.5 -150h-549l4 20l164 54l145 745h-737l-145 -745l143 -54l-4 -20h-400l5 20l163 54l277 1421l-146 41l5 20h399l-4 -20l-162 -41l-119 -614h738l118 614l-145 41l4 20h399l-4 -20l-162 -41z
M1061 41h293q135 0 240 40.5t168 111t94.5 159.5t31.5 193q0 136 -87 205t-251 69h-336z" />
    <glyph glyph-name="uni040B" unicode="&#x40b;" horiz-adv-x="1669" 
d="M1513 547l-90 -473l142 -54l-4 -20h-246l106 547q31 159 -21.5 231t-199.5 72q-38 0 -77.5 -4t-76 -10.5t-71 -15t-66 -18.5t-58 -19.5t-50.5 -19.5t-39 -16.5t-28.5 -13t-14.5 -6.5l-127 -653l143 -54l-4 -20h-399l4 20l164 54l276 1421h-420l-182 -256h-20l133 317
h1177l11 -317h-21l-84 256h-502l-141 -729q19 11 56.5 29.5t108 47.5t162 48.5t177.5 19.5q196 0 258 -84.5t24 -279.5z" />
    <glyph glyph-name="uni040C" unicode="&#x40c;" horiz-adv-x="1140" 
d="M754 1659h-27q98 143 174 233t116.5 121t65.5 31q27 0 27 -23q0 -72 -356 -362zM379 0h-399l4 20l163 54l273 1401l-141 61l4 20h399l-4 -20l-166 -61l-125 -644l647 656l-119 49l5 20h399l-4 -20l-221 -49l-666 -680l446 -733l201 -54l-4 -20h-399l4 20l88 54l-397 651
l-127 -651l143 -54z" />
    <glyph glyph-name="uni040D" unicode="&#x40d;" horiz-adv-x="1509" 
d="M1049 1659h-27q-356 290 -356 362q0 23 26 23q25 0 66 -31t117.5 -121t173.5 -233zM1229 1536l4 20h399l-4 -20l-162 -41l-276 -1421l143 -54l-4 -20h-399l4 20l164 54l229 1175l-1065 -1046l-24 -129l143 -54l-4 -20h-400l5 20l163 54l277 1421l-146 41l5 20h399l-4 -20
l-162 -41l-233 -1204l1062 1046l31 158z" />
    <glyph glyph-name="uni040E" unicode="&#x40e;" horiz-adv-x="1277" 
d="M864 1659q-72 0 -125 20t-82.5 55.5t-46 84t-15.5 105.5t9 120h107q-11 -65 -15 -109.5t0 -94.5t21 -80t53.5 -50t93.5 -20q41 0 75 10.5t58.5 26.5t45 44t34 55t25.5 67t19 72t16 79h106q-76 -385 -379 -385zM1114 1536l4 20h408l-4 -20l-160 -49l-694 -1125
q-70 -114 -115.5 -177.5t-98 -114.5t-103.5 -70.5t-118 -19.5q-137 0 -182 92l168 293h31q-6 -11 -23 -40.5t-24 -43.5t-18.5 -36t-17.5 -38t-9 -29q-12 -58 18.5 -92.5t91.5 -34.5q84 0 152.5 59.5t167.5 215.5l-289 1161l-131 49l4 20h399l-4 -20l-151 -49l250 -1034
l628 1034z" />
    <glyph glyph-name="uni040F" unicode="&#x40f;" horiz-adv-x="1468" 
d="M1188 1536l4 20h399l-4 -20l-164 -53l-272 -1401l141 -62l-4 -20h-596l-106 -297h-21l8 297h-596l5 20l165 62l273 1401l-144 53l5 20h399l-4 -20l-164 -53l-276 -1422h819l276 1422z" />
    <glyph glyph-name="uni0410" unicode="&#x410;" horiz-adv-x="1527" 
d="M256 0h-399l4 20l162 54l907 1499h61l363 -1499l135 -54l-4 -20h-400l5 20l151 54l-145 628h-627l-375 -628l166 -54zM918 1458l-412 -694h575z" />
    <glyph glyph-name="uni0411" unicode="&#x411;" horiz-adv-x="1226" 
d="M1100 1495h-584l-123 -635h346q87 0 161.5 -20t133.5 -59t93 -105t34 -152q0 -152 -81 -273t-215 -186t-294 -65h-591l4 20l163 54l273 1401l-141 61l4 20h911l10 -317h-20zM721 819h-336l-152 -778h336q219 0 354.5 138.5t135.5 350.5q0 144 -87.5 216.5t-250.5 72.5z
" />
    <glyph glyph-name="uni0412" unicode="&#x412;" horiz-adv-x="1310" 
d="M594 0h-617l5 20l163 52l273 1403l-142 61l5 20h561q216 0 335 -84.5t119 -230.5q0 -155 -109.5 -281.5t-283.5 -173.5q150 -26 235 -110t85 -207q0 -131 -82 -238.5t-226.5 -169t-320.5 -61.5zM514 1495l-133 -684h324q225 0 358 119.5t133 320.5q0 244 -375 244h-307z
M369 750l-133 -689h360q227 0 373.5 118.5t146.5 301.5q0 126 -96.5 197.5t-265.5 71.5h-385z" />
    <glyph glyph-name="uni0413" unicode="&#x413;" horiz-adv-x="1011" 
d="M240 74l161 -54l-4 -20h-420l5 20l165 54l273 1401l-141 61l4 20h847l11 -317h-21l-84 256h-522z" />
    <glyph glyph-name="uni0414" unicode="&#x414;" horiz-adv-x="1458" 
d="M1522 1556l-4 -20l-162 -41l-279 -1434h185l10 -317h-21l-106 256h-1065l-221 -256h-21l133 317h125q180 297 288.5 588t256.5 846l-145 41l4 20h1022zM180 61h805l279 1434h-551q-146 -557 -251.5 -839t-281.5 -595z" />
    <glyph glyph-name="uni0415" unicode="&#x415;" horiz-adv-x="1097" 
d="M870 0h-890l4 20l163 54l273 1401l-141 61l4 20h870l10 -317h-20l-84 256h-543l-123 -627h379l86 174h21l-80 -409h-21l-16 174h-379l-145 -746h563l182 256h21z" />
    <glyph glyph-name="uni0416" unicode="&#x416;" horiz-adv-x="1746" 
d="M1509 1536l4 20h400l-4 -20l-180 -41l-662 -618l487 -803l136 -54l-4 -20h-408l4 20l162 54l-463 760l-147 -760l143 -54l-4 -20h-400l5 20l163 54l148 762l-756 -762l139 -54l-4 -20h-401l4 20l143 54l805 809l-416 612l-167 41l4 20h399l-4 -20l-172 -41l432 -637
l119 617l-142 61l5 20h399l-4 -20l-166 -61l-119 -615l678 635z" />
    <glyph glyph-name="uni0417" unicode="&#x417;" horiz-adv-x="1249" 
d="M799 1513q-85 0 -162.5 -28t-150 -87.5t-128 -165t-82.5 -247.5h-30l88 455q22 16 57 34t95 42.5t144.5 40.5t174.5 16q210 0 321 -88.5t111 -237.5q0 -85 -37.5 -162t-96.5 -130.5t-126 -89.5t-133 -50q145 -26 232 -108t87 -220q0 -90 -37.5 -178.5t-109.5 -163.5
t-192 -121.5t-269 -46.5q-255 0 -386 144t-161 428h31q36 -257 170 -386.5t344 -129.5q102 0 187 26.5t143 70.5t98 102.5t58 122t18 130.5q0 153 -98 224t-289 71h-146l8 41h119q217 0 351.5 118t134.5 304q0 118 -85 194t-253 76z" />
    <glyph glyph-name="uni0418" unicode="&#x418;" horiz-adv-x="1509" 
d="M1229 1536l4 20h399l-4 -20l-162 -41l-276 -1421l143 -54l-4 -20h-399l4 20l164 54l229 1175l-1065 -1046l-24 -129l143 -54l-4 -20h-400l5 20l163 54l277 1421l-146 41l5 20h399l-4 -20l-162 -41l-233 -1204l1062 1046l31 158z" />
    <glyph glyph-name="uni0419" unicode="&#x419;" horiz-adv-x="1509" 
d="M969 1659q-72 0 -125 20t-82.5 55.5t-46 84t-15.5 105.5t9 120h106q-9 -53 -13 -91.5t-4.5 -82.5t9.5 -73.5t28.5 -55.5t52.5 -38.5t81 -12.5t85 12.5t65 39t46 55t33.5 74t23.5 82t19 91.5h107q-76 -385 -379 -385zM1229 1536l4 20h399l-4 -20l-162 -41l-276 -1421
l143 -54l-4 -20h-399l4 20l164 54l229 1175l-1065 -1046l-24 -129l143 -54l-4 -20h-400l5 20l163 54l277 1421l-146 41l5 20h399l-4 -20l-162 -41l-233 -1204l1062 1046l31 158z" />
    <glyph glyph-name="uni041A" unicode="&#x41a;" horiz-adv-x="1140" 
d="M379 0h-399l4 20l163 54l273 1401l-141 61l4 20h399l-4 -20l-166 -61l-125 -644l647 656l-119 49l5 20h399l-4 -20l-221 -49l-666 -680l446 -733l201 -54l-4 -20h-399l4 20l88 54l-397 651l-127 -651l143 -54z" />
    <glyph glyph-name="uni041B" unicode="&#x41b;" horiz-adv-x="1388" 
d="M1511 1556l-4 -20l-166 -61l-272 -1401l143 -54l-4 -20h-399l4 20l164 54l276 1421h-512q-62 -226 -103.5 -373t-91.5 -311.5t-86 -265t-79 -205.5t-80 -163t-80.5 -108t-88 -69.5t-95.5 -19.5q-95 0 -117 51l43 227h33q-19 -89 -5 -135.5t66 -46.5q40 0 77.5 25
t74.5 73.5t77 133.5t80 191t88.5 260.5t98 328.5t113.5 407l-144 41l4 20h985z" />
    <glyph glyph-name="uni041C" unicode="&#x41c;" horiz-adv-x="1755" 
d="M379 0h-399l4 20l163 54l273 1401l-141 61l4 20h247l293 -1441l832 1441h223l-4 -20l-166 -61l-272 -1401l143 -54l-4 -20h-399l4 20l163 54l242 1241l-774 -1315h-61l-273 1286l-235 -1212l141 -54z" />
    <glyph glyph-name="uni041D" unicode="&#x41d;" horiz-adv-x="1490" 
d="M379 0h-399l4 20l163 54l273 1401l-141 61l4 20h399l-4 -20l-166 -61l-121 -625h840l121 625l-142 61l4 20h400l-4 -20l-166 -61l-273 -1401l144 -54l-4 -20h-400l4 20l164 54l140 714h-840l-139 -714l143 -54z" />
    <glyph glyph-name="uni041E" unicode="&#x41e;" horiz-adv-x="1644" 
d="M690 -23q-250 0 -411.5 172.5t-161.5 446.5q0 189 76.5 369t201.5 313t294.5 214t346.5 81q169 0 304.5 -76.5t213.5 -216t78 -317.5q0 -183 -81 -364t-210.5 -317t-302.5 -220.5t-348 -84.5zM750 53q157 0 299.5 69.5t245 187t163 281t60.5 343.5q0 136 -43.5 245.5
t-118 177.5t-169.5 104t-202 36q-159 0 -301 -64.5t-243.5 -176t-160.5 -267t-59 -330.5q0 -142 47 -260t124 -192t169.5 -114t188.5 -40z" />
    <glyph glyph-name="uni041F" unicode="&#x41f;" horiz-adv-x="1470" 
d="M1593 1556l-4 -20l-166 -61l-272 -1401l143 -54l-4 -20h-399l4 20l164 54l276 1421h-819l-276 -1421l143 -54l-4 -20h-399l4 20l163 54l273 1401l-141 61l4 20h1310z" />
    <glyph glyph-name="uni0420" unicode="&#x420;" horiz-adv-x="1202" 
d="M379 0h-399l4 20l163 54l273 1401l-141 61l4 20h591q117 0 211 -32t154.5 -104t60.5 -175q0 -133 -78.5 -247t-213 -181t-291.5 -67h-346l-131 -676l143 -54zM516 1495l-133 -684h336q211 0 345 123t134 317q0 244 -346 244h-336z" />
    <glyph glyph-name="uni0421" unicode="&#x421;" horiz-adv-x="1550" 
d="M707 -23q-125 0 -233 40.5t-188.5 115t-126.5 188.5t-46 254q0 197 79 381.5t209.5 319.5t309.5 216t370 81q103 0 192.5 -23t141.5 -55.5t81.5 -58t35.5 -39.5l-90 -455h-31q19 104 18.5 185t-22.5 143t-56.5 105t-84.5 70t-105 39.5t-119 12.5q-47 0 -99 -6
t-123.5 -24.5t-138.5 -48.5t-139 -82.5t-129.5 -120.5t-105 -169t-71.5 -223q-22 -145 -15 -258t45.5 -198.5t92.5 -145t125.5 -97t144 -54.5t149.5 -17q229 0 425.5 145.5t336.5 417.5h31q-136 -286 -364.5 -462.5t-499.5 -176.5z" />
    <glyph glyph-name="uni0422" unicode="&#x422;" horiz-adv-x="1343" 
d="M770 0h-399l4 20l164 54l276 1421h-461l-182 -256h-20l133 317h1177l11 -317h-21l-84 256h-461l-276 -1421l143 -54z" />
    <glyph glyph-name="uni0423" unicode="&#x423;" horiz-adv-x="1277" 
d="M1114 1536l4 20h408l-4 -20l-160 -49l-694 -1125q-70 -114 -115.5 -177.5t-98 -114.5t-103.5 -70.5t-118 -19.5q-137 0 -182 92l168 293h31q-6 -11 -23 -40.5t-24 -43.5t-18.5 -36t-17.5 -38t-9 -29q-12 -58 18.5 -92.5t91.5 -34.5q84 0 152.5 59.5t167.5 215.5
l-289 1161l-131 49l4 20h399l-4 -20l-151 -49l250 -1034l628 1034z" />
    <glyph glyph-name="uni0424" unicode="&#x424;" horiz-adv-x="1677" 
d="M1671 911q1 -133 -60 -254t-170 -213.5t-268.5 -151.5t-345.5 -69l-32 -170l143 -53l-4 -20h-399l4 20l163 53l33 170q-141 4 -251.5 31.5t-194 81t-128.5 140.5t-46 204q-1 133 60 254.5t169.5 214t267.5 151t346 68.5l25 127l-141 61l4 21h399l-4 -21l-166 -61
l-24 -127q141 -4 251.5 -31.5t194 -81t128.5 -140.5t46 -204zM752 301l192 991q-180 -3 -320.5 -48t-228 -123t-132.5 -181t-44 -225q1 -201 137 -298.5t396 -115.5zM1036 1290l-194 -991q180 3 320.5 48.5t228 124t132.5 181.5t44 224q-1 103 -37 178.5t-106.5 124
t-165.5 75t-222 35.5z" />
    <glyph glyph-name="uni0425" unicode="&#x425;" horiz-adv-x="1236" 
d="M295 0h-399l4 20l151 54l574 704l-308 697l-131 61l4 20h400l-4 -20l-158 -61l270 -619l494 619l-180 61l4 20h399l-4 -20l-160 -61l-528 -668l321 -733l127 -54l-4 -20h-399l4 20l162 54l-289 655l-534 -655l188 -54z" />
    <glyph glyph-name="uni0426" unicode="&#x426;" horiz-adv-x="1527" 
d="M1188 1536l4 20h399l-4 -20l-162 -41l-278 -1434h184l10 -317h-20l-84 256h-1260l5 20l163 54l277 1421l-146 41l5 20h399l-4 -20l-162 -41l-278 -1434h819l278 1434z" />
    <glyph glyph-name="uni0427" unicode="&#x427;" horiz-adv-x="1329" 
d="M1049 1536l4 20h399l-4 -20l-166 -61l-272 -1401l143 -54l-4 -20h-399l4 20l164 54l135 692q-63 -31 -189 -65.5t-260 -34.5q-221 0 -304 86.5t-46 277.5l90 465l-145 41l4 20h399l-4 -20l-162 -41l-90 -465q-31 -159 33.5 -231t236.5 -72q210 0 445 80l129 668z" />
    <glyph glyph-name="uni0428" unicode="&#x428;" horiz-adv-x="2174" 
d="M1894 1536l4 20h400l-4 -20l-162 -41l-277 -1421l144 -54l-4 -20h-2018l5 20l163 54l277 1421l-146 41l5 20h399l-4 -20l-162 -41l-278 -1434h716l279 1434l-146 41l5 20h399l-4 -20l-162 -41l-279 -1434h717l279 1434z" />
    <glyph glyph-name="uni0429" unicode="&#x429;" horiz-adv-x="2234" 
d="M1894 1536l4 20h400l-4 -20l-162 -41l-279 -1434h185l10 -317h-20l-84 256h-1967l5 20l163 54l277 1421l-146 41l5 20h399l-4 -20l-162 -41l-278 -1434h716l279 1434l-146 41l5 20h399l-4 -20l-162 -41l-279 -1434h717l279 1434z" />
    <glyph glyph-name="uni042A" unicode="&#x42a;" horiz-adv-x="1433" 
d="M621 881h346q86 0 160 -20.5t132.5 -60.5t92.5 -106t34 -151q0 -243 -171 -393t-463 -150h-549l4 20l164 54l276 1421h-287l-182 -256h-20l133 317h614l-4 -20l-162 -41zM457 41h293q135 0 240 40.5t168 111t94.5 159.5t31.5 193q0 147 -87 221t-249 74h-336z" />
    <glyph glyph-name="uni042B" unicode="&#x42b;" horiz-adv-x="1726" 
d="M-23 0h549q292 0 463.5 150t171.5 393q0 112 -59.5 190t-152 113t-208.5 35h-346l119 614l162 41l4 20h-399l-5 -20l146 -41l-277 -1421l-163 -54zM1546 0h-399l4 20l164 54l272 1401l-141 61l4 20h399l-4 -20l-166 -61l-272 -1401l143 -54zM387 840h336q162 0 249 -74
t87 -221q0 -104 -32 -193t-95 -159.5t-168 -111t-240 -40.5h-293z" />
    <glyph glyph-name="uni042C" unicode="&#x42c;" horiz-adv-x="1208" 
d="M-23 0h549q292 0 463.5 150t171.5 393q0 112 -59.5 190t-152 113t-208.5 35h-346l119 614l162 41l4 20h-399l-5 -20l146 -41l-277 -1421l-163 -54zM387 840h336q162 0 249 -74t87 -221q0 -104 -32 -193t-95 -159.5t-168 -111t-240 -40.5h-293z" />
    <glyph glyph-name="uni042D" unicode="&#x42d;" horiz-adv-x="1515" 
d="M866 1573q133 0 245.5 -40.5t198 -118t133.5 -201.5t48 -281q0 -171 -51 -323t-139.5 -266t-205 -197.5t-251.5 -126t-275 -42.5q-534 0 -546 572h30q7 -124 49 -219.5t111.5 -155.5t160 -90.5t197.5 -30.5q208 0 378.5 83.5t283.5 251.5t139 400h-831l12 62h825
q2 25 2 76q0 144 -40 257.5t-110.5 184.5t-163.5 108t-204 37q-83 0 -158.5 -18t-149 -60.5t-132 -107t-104.5 -163t-70 -222.5h-31l88 455q10 14 51 39.5t109 58t176 55.5t225 23z" />
    <glyph glyph-name="uni042E" unicode="&#x42e;" horiz-adv-x="2199" 
d="M1608 1573q134 0 243 -48t181 -133t110.5 -202.5t38.5 -255.5q0 -131 -37.5 -257.5t-102.5 -230.5t-154 -192.5t-190.5 -148.5t-213.5 -94t-221 -34q-174 0 -300.5 83.5t-189.5 228t-63 334.5q0 106 20 196h-346l-145 -745l143 -54l-4 -20h-400l5 20l163 54l277 1421
l-146 41l5 20h399l-4 -20l-162 -41l-119 -614h348q42 152 132 283t206 220t253 139t274 50zM1321 53q64 0 133.5 15t142.5 48t141 81t128.5 118t105 154.5t70.5 195.5t26 236q0 129 -26.5 230.5t-72.5 169.5t-112 112.5t-142 64t-165 19.5q-132 0 -249.5 -44.5t-205.5 -124
t-152 -185.5t-97 -231.5t-33 -258.5q0 -151 42.5 -269t114.5 -188.5t161.5 -106.5t189.5 -36z" />
    <glyph glyph-name="uni042F" unicode="&#x42f;" horiz-adv-x="1275" 
d="M807 1556h592l-4 -20l-162 -41l-277 -1421l144 -54l-4 -20h-400l4 20l164 54l133 684h-239l-578 -684l142 -54l-5 -20h-430l4 20l172 54l582 684q-116 1 -208.5 39.5t-151 123t-58.5 203.5q0 191 160 311.5t420 120.5zM670 799h336l139 717h-336q-232 0 -355.5 -110.5
t-123.5 -283.5q0 -158 88.5 -240.5t251.5 -82.5z" />
    <glyph glyph-name="uni0430" unicode="&#x430;" horiz-adv-x="966" 
d="M844 752l-129 -670h131l-4 -21l-207 -61h-21l50 254q-16 -32 -47 -73.5t-81 -90.5t-122.5 -82t-149.5 -33q-99 0 -158 56.5t-59 150.5q0 58 18 110t46 91.5t72 74t86 58.5t98.5 45.5t98.5 34.5t97.5 25t84 17t68.5 11l9 1.5t8 1t8 1.5l13 62q14 82 6.5 138t-37.5 90.5
t-68 49.5t-86 15q-131 0 -225 -98t-94 -234q0 -23 4 -51h-31l-30 262q155 168 403 168q158 0 218.5 -73t29.5 -230zM299 37q108 0 208 78.5t165 179.5l63 328q-151 -28 -232 -54q-317 -104 -357 -310q-5 -28 -5 -58q0 -71 40 -117.5t118 -46.5z" />
    <glyph glyph-name="uni0431" unicode="&#x431;" horiz-adv-x="1087" 
d="M995 1460q-214 -40 -324 -90.5t-192 -136.5q-62 -64 -119.5 -169t-99.5 -230q76 104 183 162.5t227 58.5q87 0 154 -32t104 -78t60.5 -108t30.5 -112t7 -100q0 -116 -44.5 -232.5t-119 -208.5t-181.5 -149.5t-224 -57.5q-181 0 -274 117.5t-93 317.5q0 140 36.5 283.5
t115 285t190 258.5t274.5 205.5t355 124.5q102 19 129 69h20q-22 -76 -71.5 -118t-143.5 -60zM637 991q-120 0 -229 -66.5t-175 -179.5q-49 -175 -49 -325q0 -81 16.5 -147t51.5 -119.5t96 -83t144 -29.5q86 0 167 43.5t142.5 117t99 178t37.5 220.5q0 59 -9.5 113.5
t-32.5 106t-56.5 89t-85.5 60t-117 22.5z" />
    <glyph glyph-name="uni0432" unicode="&#x432;" horiz-adv-x="976" 
d="M612 541q115 -8 183.5 -65t68.5 -169q0 -127 -119.5 -228.5t-287.5 -101.5q-99 0 -175.5 32.5t-124 90.5t-72 133.5t-24.5 165.5q0 96 28.5 192t81.5 178.5t123.5 147t160.5 101.5t186 37q129 0 194.5 -57t65.5 -154q0 -111 -82 -195t-207 -108zM608 991
q-158 0 -287.5 -123t-164.5 -311h327q153 0 240.5 78t87.5 186q0 76 -55 123t-148 47zM451 41q151 0 237 73.5t86 192.5q0 92 -70 145.5t-206 53.5h-351q-4 -46 -4 -70q0 -170 83 -282.5t225 -112.5z" />
    <glyph glyph-name="uni0433" unicode="&#x433;" horiz-adv-x="819" 
d="M305 -23q133 0 230 49.5t153 116.5l-65 275h-29q4 -23 4 -66q0 -68 -12 -120t-42 -99t-90 -72.5t-149 -25.5q-102 0 -158.5 43.5t-56.5 126.5q0 60 23.5 106.5t63.5 77.5t91.5 55.5t108.5 44t114 40t108.5 47.5t91.5 61t63.5 86.5t23.5 118.5q0 99 -70.5 156t-189.5 57
q-194 0 -340 -146l53 -223h31q-2 18 -2 49q0 122 65 191t191 69q80 0 133 -39.5t53 -111.5q0 -56 -23.5 -100.5t-63.5 -74.5t-92 -54t-109 -44.5t-114 -41.5t-109 -49.5t-92 -64t-63.5 -89.5t-23.5 -121q0 -110 78.5 -169t214.5 -59z" />
    <glyph glyph-name="uni0434" unicode="&#x434;" horiz-adv-x="1105" 
d="M629 1659q190 0 302.5 -199.5t112.5 -580.5q0 -121 -16.5 -233.5t-48.5 -214t-83 -184t-116.5 -143t-151.5 -94t-186 -33.5q-98 0 -174 40t-119 106t-64.5 141.5t-21.5 157.5q0 80 25.5 167t76.5 170t119 149t160.5 106.5t192.5 40.5q103 0 179 -44.5t136 -140.5h11
q-9 347 -99 536t-252 189q-58 0 -103.5 -19.5t-81.5 -59t-62.5 -87.5t-55.5 -118h-30q51 168 133 258t217 90zM463 41q123 0 228.5 76.5t167 206t61.5 278.5q0 107 -33 193t-103.5 141t-169.5 55q-127 0 -236 -73t-172 -195.5t-63 -263.5q0 -110 37 -204t111 -154t172 -60z
" />
    <glyph glyph-name="uni0435" unicode="&#x435;" horiz-adv-x="991" 
d="M420 -23q-91 0 -162 33.5t-113.5 91t-64 129t-21.5 152.5q0 125 49 248.5t128 216t184.5 150t212.5 57.5q163 0 242 -124t40 -323l-6 -30h-755l-2 -13q-27 -144 3.5 -264t113 -190t200.5 -70q245 0 438 319h31q-85 -171 -218.5 -277t-299.5 -106zM176 639h658
q31 160 -27.5 256t-194.5 96q-143 0 -263.5 -100t-172.5 -252z" />
    <glyph glyph-name="uni0436" unicode="&#x436;" horiz-adv-x="1769" 
d="M1389 41q67 0 122.5 75t122.5 244h31q-59 -188 -129.5 -285.5t-171.5 -97.5q-186 0 -186 310q0 103 20 200h-280l-95 -487h-82l95 487h-279q-54 -214 -169 -362t-251 -148q-62 0 -99.5 40.5t-43.5 101.5l184 368h31q-60 -133 -87.5 -208.5t-27.5 -128.5q0 -109 78 -109
q93 0 171.5 103t120.5 256t42 311q0 135 -34 207.5t-93 72.5q-67 0 -123 -75t-123 -244h-31q59 188 129.5 285.5t171.5 97.5q99 0 143 -85t44 -225q0 -83 -21 -206h277l78 403h-133l4 21l206 61h21l-94 -485h280q35 139 96.5 254.5t147.5 188.5t178 73q64 0 103 -40t41 -102
l-185 -368h-30q59 130 86.5 207.5t27.5 130.5q0 61 -18.5 84.5t-59.5 23.5q-90 0 -168.5 -102t-121.5 -256t-43 -311q0 -135 34 -208t93 -73z" />
    <glyph glyph-name="uni0437" unicode="&#x437;" horiz-adv-x="864" 
d="M328 41q338 0 338 278q0 96 -62.5 141.5t-189.5 45.5h-66l10 51h66q134 0 207.5 71.5t73.5 166.5q0 92 -57 144t-163 52q-119 0 -194.5 -59t-75.5 -174q0 -40 8 -76h-30l-54 223q32 32 56 51.5t68.5 46t104 39.5t132.5 13q136 0 214.5 -62.5t78.5 -171.5q0 -54 -23 -103
t-59.5 -83t-76.5 -56.5t-79 -31.5q94 -14 147.5 -69t53.5 -140q0 -105 -63 -189t-163 -128t-213 -44q-130 0 -218.5 51t-129.5 115l166 265h29q-31 -51 -42 -69.5t-24.5 -54.5t-13.5 -65q0 -83 64 -130.5t180 -47.5z" />
    <glyph glyph-name="uni0438" unicode="&#x438;" horiz-adv-x="993" 
d="M301 -23q-42 0 -74 9.5t-58.5 33t-38.5 62t-14 97t15 138.5l121 625h-133l4 21l207 61h20l-133 -680q-59 -303 135 -303q104 0 193 73.5t153 182.5l125 645h-133l4 21l207 61h21l-185 -942h133l-4 -21l-204 -61h-21l41 215q-26 -41 -59.5 -78t-81.5 -75.5t-110.5 -61.5
t-129.5 -23z" />
    <glyph glyph-name="uni0439" unicode="&#x439;" horiz-adv-x="993" 
d="M594 1161q63 0 109.5 25t76 75t47.5 108.5t31 141.5h86q-34 -179 -122 -281t-228 -102q-141 0 -197.5 105t-29.5 278h86q-15 -103 -15 -181t38.5 -123.5t117.5 -45.5zM301 -23q-42 0 -74 9.5t-58.5 33t-38.5 62t-14 97t15 138.5l121 625h-133l4 21l207 61h20l-133 -680
q-59 -303 135 -303q104 0 193 73.5t153 182.5l125 645h-133l4 21l207 61h21l-185 -942h133l-4 -21l-204 -61h-21l41 215q-26 -41 -59.5 -78t-81.5 -75.5t-110.5 -61.5t-129.5 -23z" />
    <glyph glyph-name="uni043A" unicode="&#x43a;" horiz-adv-x="964" 
d="M340 1024h20l-188 -971l127 -33l-4 -20h-348l4 20l139 33l172 889h-133l4 21zM1022 1024l-4 -20l-160 -46l-475 -405l387 -502l125 -31l-4 -20h-399l4 20l155 33l-360 471l506 434l-179 46l5 20h399z" />
    <glyph glyph-name="uni043B" unicode="&#x43b;" horiz-adv-x="942" 
d="M866 1024l-188 -971l127 -33l-4 -20h-348l4 20l139 33l178 920h-295q-155 -576 -244.5 -784.5t-224.5 -208.5q-34 0 -53 16t-23 35l43 227h33q-17 -88 -8.5 -135t39.5 -47q84 0 168 201.5t209 689.5l-135 37l4 20h579z" />
    <glyph glyph-name="uni043C" unicode="&#x43c;" horiz-adv-x="1325" 
d="M1167 1024h82l-188 -971l127 -33l-4 -20h-348l4 20l139 33l160 824l-561 -877h-50l-112 877q-123 -459 -167 -590q-76 -221 -153 -279q-38 -28 -82 -28q-34 0 -52.5 16t-22.5 35l43 227h32q-17 -88 -8.5 -135t39.5 -47q71 0 138 186.5t198 704.5l-135 37l4 20h229
l117 -895z" />
    <glyph glyph-name="uni043D" unicode="&#x43d;" horiz-adv-x="1017" 
d="M920 1024h20l-188 -971l127 -33l-5 -20h-348l4 20l140 33l84 434h-498l-84 -434l127 -33l-4 -20h-348l4 20l139 33l172 889h-133l4 21l207 61h20l-94 -485h498l78 403h-133l4 21z" />
    <glyph glyph-name="uni043E" unicode="&#x43e;" horiz-adv-x="1064" 
d="M432 -23q-94 0 -168 36t-117.5 97t-65.5 134.5t-22 154.5q0 123 50 243.5t131 211t189.5 146t219.5 55.5q77 0 139 -23.5t102 -62.5t66.5 -92t38 -109.5t11.5 -118.5q0 -128 -48.5 -251.5t-127 -215.5t-184 -148.5t-214.5 -56.5zM471 41q85 0 167.5 49t143.5 129
t98.5 188t37.5 220q0 102 -32 182.5t-101.5 131t-168.5 50.5q-93 0 -181 -46t-153 -122.5t-104 -179.5t-39 -211q0 -107 37.5 -194.5t114 -142t180.5 -54.5z" />
    <glyph glyph-name="uni043F" unicode="&#x43f;" horiz-adv-x="1044" 
d="M295 0h-348l4 20l139 33l172 889h-133l4 21l207 61h20l-47 -246q16 30 38.5 61.5t61.5 71.5t83.5 71t106 52t126.5 21q250 0 191 -307l-136 -695l127 -33l-4 -20h-348l4 20l137 33l123 633q30 159 -16.5 232t-144.5 73q-117 0 -217 -92t-150 -217l-123 -629l127 -33z" />
    <glyph glyph-name="uni0440" unicode="&#x440;" horiz-adv-x="1009" 
d="M207 -410h-348l4 21l137 33l254 1298h-133l6 27q149 48 233.5 66t159.5 18q102 0 179.5 -29.5t122 -74t71.5 -107t36 -118t9 -116.5q0 -118 -35 -230t-98.5 -202t-160.5 -144.5t-212 -54.5q-45 0 -82 10t-60 23t-46 38.5t-34 42t-30 48.5l-96 -495l127 -33zM430 41
q81 0 157 39.5t135 109.5t94.5 174t35.5 224q0 87 -19.5 159.5t-61.5 132t-115.5 93t-172.5 33.5q-68 0 -137 -17l-158 -807q95 -141 242 -141z" />
    <glyph glyph-name="uni0441" unicode="&#x441;" horiz-adv-x="985" 
d="M416 -23q-116 0 -198 54t-120.5 142t-38.5 200q0 132 48 258t127.5 218.5t187.5 149t221 56.5q66 0 123.5 -17t95 -43.5t60.5 -51.5t36 -48l-188 -350h-31q84 152 84 264q0 87 -53 134.5t-156 47.5q-199 0 -334 -160.5t-135 -398.5q0 -173 88 -282t220 -109
q142 0 247 75.5t209 243.5h31q-41 -80 -92 -146.5t-116 -121t-146 -85t-170 -30.5z" />
    <glyph glyph-name="uni0442" unicode="&#x442;" horiz-adv-x="1574" 
d="M295 0h-348l4 20l139 33l174 893l-135 -4l4 21l207 61h20l-47 -244q17 34 50.5 76t84 89t120 78.5t141.5 31.5q201 0 180 -246q23 40 56.5 79t81 78.5t110 64t129.5 24.5q112 0 163.5 -74t20.5 -233l-135 -695l127 -33l-4 -20h-346l4 20l137 33l123 633q30 159 -9.5 232
t-129.5 73q-97 0 -186.5 -73t-153.5 -185l-134 -680l127 -33l-4 -20h-348l4 20l140 33l122 633q31 160 -5 232.5t-120 72.5q-102 0 -208.5 -94t-155.5 -215l-123 -629l127 -33z" />
    <glyph glyph-name="uni0443" unicode="&#x443;" horiz-adv-x="1058" 
d="M-10 -424l-133 203l30 18q30 -43 91 -92t110 -49q38 0 81 32t85 86.5t76 108.5t67 117l-178 956l-139 48l4 20h399l-4 -20l-170 -48l158 -856l461 856l-158 48l4 20h400l-5 -20l-180 -48l-487 -878q-47 -84 -75.5 -133.5t-66.5 -110t-66.5 -94.5t-65 -70t-71.5 -53.5
t-77 -29t-90 -11.5z" />
    <glyph glyph-name="uni0444" unicode="&#x444;" horiz-adv-x="1286" 
d="M1225 625q0 -85 -23.5 -171.5t-75.5 -170.5t-125.5 -150t-182.5 -108.5t-238 -47.5l-66 -333l127 -33l-4 -21h-348l4 21l139 33l66 333q-213 12 -325 127t-112 304q0 85 24 171.5t76 170t125.5 149.5t182.5 108.5t238 47.5l98 501h-133l4 21l207 61h20l-115 -583
q214 -12 325.5 -126.5t111.5 -303.5zM145 463q-1 -83 20.5 -155t65 -130t115 -94t164.5 -43l184 950q-134 -5 -241 -53t-172.5 -123.5t-100 -165.5t-35.5 -186zM1141 569q1 83 -20.5 155t-65 130t-115 94t-164.5 43l-184 -950q134 5 241 53t172.5 123.5t100 165.5t35.5 186z
" />
    <glyph glyph-name="uni0445" unicode="&#x445;" horiz-adv-x="974" 
d="M301 0h-399l4 20l131 33l403 463l-211 440l-123 48l5 20h399l-4 -20l-166 -48l178 -368l305 368l-194 48l4 20h399l-4 -20l-145 -48l-344 -415l241 -488l115 -33l-4 -20h-399l4 20l174 33l-205 416l-371 -416l211 -33z" />
    <glyph glyph-name="uni0446" unicode="&#x446;" horiz-adv-x="1028" 
d="M922 1024l-189 -973h152l2 -307h-21l-75 256h-150l41 215q-26 -41 -59.5 -78t-81.5 -75.5t-110.5 -61.5t-129.5 -23q-42 0 -74 9.5t-58.5 33t-38.5 62t-14 97t15 138.5l121 625h-133l4 21l207 61h20l-133 -680q-59 -303 135 -303q104 0 193 73.5t153 182.5l125 645h-133
l4 21l207 61h21z" />
    <glyph glyph-name="uni0447" unicode="&#x447;" horiz-adv-x="962" 
d="M864 1024h21l-189 -971l127 -33l-4 -20h-348l4 20l139 33l105 539q-138 -205 -352 -205q-84 0 -137.5 50.5t-53.5 148.5q0 36 27 178l33 178h-134l4 21l207 61h21l-51 -276q-15 -76 -15 -127q0 -170 138 -170q96 0 181 57.5t148 165.5l51 268h-133l4 21z" />
    <glyph glyph-name="uni0448" unicode="&#x448;" horiz-adv-x="1544" 
d="M1452 1024h21l-185 -942h133l-4 -21l-205 -61h-20l41 215q-27 -41 -59 -77.5t-78.5 -75.5t-107 -62t-126.5 -23q-94 0 -142.5 52.5t-41.5 179.5q-27 -40 -60.5 -76.5t-80.5 -74t-108.5 -59.5t-127.5 -22q-42 0 -74 9.5t-58.5 33t-38.5 62t-14 97t15 138.5l121 625h-133
l4 21l207 61h20l-133 -680q-59 -303 135 -303q98 0 183.5 66t148.5 167q1 7 4 21.5t4 21.5l121 625h-133l4 21l207 61h20l-133 -680q-59 -303 135 -303q100 0 186 73t150 183l125 645h-133l4 21z" />
    <glyph glyph-name="uni0449" unicode="&#x449;" horiz-adv-x="1579" 
d="M1473 1024l-189 -973h152l2 -307h-21l-76 256h-149l41 215q-27 -41 -59 -77.5t-78.5 -75.5t-107 -62t-126.5 -23q-94 0 -142.5 52.5t-41.5 179.5q-27 -40 -60.5 -76.5t-80.5 -74t-108.5 -59.5t-127.5 -22q-42 0 -74 9.5t-58.5 33t-38.5 62t-14 97t15 138.5l121 625h-133
l4 21l207 61h20l-133 -680q-59 -303 135 -303q98 0 183.5 66t148.5 167q1 7 4 21.5t4 21.5l121 625h-133l4 21l207 61h20l-133 -680q-59 -303 135 -303q100 0 186 73t150 183l125 645h-133l4 21l207 61h21z" />
    <glyph glyph-name="uni044A" unicode="&#x44a;" horiz-adv-x="901" 
d="M817 354q1 -68 -26 -134t-77.5 -121t-131.5 -88.5t-179 -33.5q-116 0 -188 60.5t-72 175.5q0 68 24 133.5t75 147.5q37 59 103.5 142.5t113.5 137.5t166 189h-338l-191 -267h-20l135 328h534l7 -20q-252 -285 -332 -383q39 8 96 8q152 0 225.5 -78t75.5 -197zM420 20
q75 0 136 28.5t97.5 75t56 103t19.5 115.5q0 48 -13 91.5t-39.5 80.5t-73.5 58.5t-109 21.5q-50 0 -105 -10q-44 -58 -76 -111q-75 -124 -75 -256q0 -87 48 -142t134 -55z" />
    <glyph glyph-name="uni044B" unicode="&#x44b;" horiz-adv-x="1239" 
d="M479 629q153 0 226 -78t75 -197q1 -68 -26 -134t-76.5 -121t-129 -88.5t-175.5 -33.5q-117 0 -187.5 60t-70.5 176q0 15 0.5 28.5t3.5 34.5t5.5 38t9.5 54t12.5 66.5t17.5 92t22 114.5l58 301h-133l4 21l207 61h20l-84 -438q98 43 221 43zM1145 1024h20l-182 -942h133
l-4 -21l-205 -61h-20l180 942h-133l4 21zM385 20q149 0 228 91t79 231q0 248 -235 248q-123 0 -203 -35l-41 -211q-12 -62 -12 -127q0 -89 44.5 -143t139.5 -54z" />
    <glyph glyph-name="uni044C" unicode="&#x44c;" horiz-adv-x="856" 
d="M780 354q1 -68 -26 -134t-76.5 -121t-129 -88.5t-175.5 -33.5q-117 0 -187.5 60t-70.5 176q0 15 0.5 28.5t3.5 34.5t5.5 38t9.5 54t12.5 66.5t17.5 92t22 114.5l58 301h-133l4 21l207 61h20l-84 -438q98 43 221 43q153 0 226 -78t75 -197zM385 20q149 0 228 91t79 231
q0 248 -235 248q-123 0 -203 -35l-41 -211q-12 -62 -12 -127q0 -89 44.5 -143t139.5 -54z" />
    <glyph glyph-name="uni044D" unicode="&#x44d;" horiz-adv-x="958" 
d="M516 1055q189 0 285 -107.5t96 -281.5q0 -188 -74.5 -345.5t-210 -250.5t-303.5 -93q-130 0 -215.5 50.5t-126.5 115.5l166 265h29q-56 -91 -69 -128q-11 -33 -11 -65q0 -79 65.5 -126.5t178.5 -47.5q199 0 320.5 121.5t144.5 335.5h-486l10 51h480q2 16 2 51
q0 391 -301 391q-128 0 -205.5 -57t-77.5 -176q0 -40 8 -76h-31l-53 223q28 28 56 49.5t74 47t110 39.5t139 14z" />
    <glyph glyph-name="uni044E" unicode="&#x44e;" horiz-adv-x="1470" 
d="M1061 1055q88 0 154 -32t101.5 -78t57 -109t27.5 -111.5t6 -99.5q0 -116 -42.5 -232t-115 -208.5t-179 -150t-226.5 -57.5q-86 0 -153 31t-105.5 78t-63 109.5t-33 117t-8.5 109.5q0 19 4 65h-229l-84 -434l127 -33l-4 -20h-348l4 20l139 33l172 889h-133l4 21l207 61h20
l-94 -485h228q19 99 69 191.5t122.5 165t170.5 116t205 43.5zM883 41q117 0 217 73t159.5 202t59.5 284q0 60 -8.5 114t-29.5 105.5t-53 89t-83.5 60t-116.5 22.5q-124 0 -231.5 -72.5t-170.5 -196t-63 -267.5q0 -80 19.5 -153t57.5 -132t101 -94t142 -35z" />
    <glyph glyph-name="uni044F" unicode="&#x44f;" horiz-adv-x="925" 
d="M766 1024h84l-188 -971l126 -33l-4 -20h-348l4 20l140 33l114 592q-179 -270 -289.5 -410.5t-186 -197.5t-148.5 -57q-41 0 -61.5 16t-24.5 35l43 227h32q-36 -182 41 -182q58 0 113.5 34t138 123.5t215.5 264.5q-151 -162 -268 -162q-84 0 -137 47t-53 137
q0 206 186.5 352t470.5 152zM344 399q168 0 365 324l51 270q-244 -3 -409 -128.5t-165 -303.5q0 -75 44 -118.5t114 -43.5z" />
    <glyph glyph-name="uni0450" unicode="&#x450;" horiz-adv-x="991" 
d="M645 1126h-27q-356 290 -356 363q0 22 27 22q25 0 65.5 -31t116.5 -121t174 -233zM420 -23q-91 0 -162 33.5t-113.5 91t-64 129t-21.5 152.5q0 125 49 248.5t128 216t184.5 150t212.5 57.5q163 0 242 -124t40 -323l-6 -30h-755l-2 -13q-27 -144 3.5 -264t113 -190
t200.5 -70q245 0 438 319h31q-85 -171 -218.5 -277t-299.5 -106zM176 639h658q31 160 -27.5 256t-194.5 96q-143 0 -263.5 -100t-172.5 -252z" />
    <glyph glyph-name="uni0451" unicode="&#x451;" horiz-adv-x="991" 
d="M510 1309q-29 0 -46.5 16.5t-17.5 42.5q0 40 28.5 69t66.5 29q31 0 49 -17t18 -44q0 -40 -28.5 -68t-69.5 -28zM776 1309q-29 0 -46 16t-17 43q0 40 28 69t66 29q31 0 49 -17t18 -44q0 -40 -28.5 -68t-69.5 -28zM420 -23q-91 0 -162 33.5t-113.5 91t-64 129t-21.5 152.5
q0 125 49 248.5t128 216t184.5 150t212.5 57.5q163 0 242 -124t40 -323l-6 -30h-755l-2 -13q-27 -144 3.5 -264t113 -190t200.5 -70q245 0 438 319h31q-85 -171 -218.5 -277t-299.5 -106zM176 639h658q31 160 -27.5 256t-194.5 96q-143 0 -263.5 -100t-172.5 -252z" />
    <glyph glyph-name="uni0452" unicode="&#x452;" horiz-adv-x="997" 
d="M719 1055q249 0 190 -307l-172 -891q-31 -165 -88 -222q-59 -59 -203 -59l-133 201l31 18q116 -157 184 -157q42 0 73.5 56t49.5 148l164 844q31 164 -9.5 234.5t-154.5 70.5q-102 0 -210.5 -96.5t-155.5 -212.5l-123 -629l127 -33l-4 -20h-348l4 20l139 33l244 1254
h-146l10 51h146l39 198h-133l4 21l207 61h20l-55 -280h270l-10 -51h-270l-103 -527q16 30 38 61t61.5 71t83.5 70.5t105.5 51.5t127.5 21z" />
    <glyph glyph-name="uni0453" unicode="&#x453;" horiz-adv-x="819" 
d="M530 1126h-26q98 143 174 233t116.5 121t65.5 31q27 0 27 -22q0 -72 -357 -363zM305 -23q133 0 230 49.5t153 116.5l-65 275h-29q4 -23 4 -66q0 -68 -12 -120t-42 -99t-90 -72.5t-149 -25.5q-102 0 -158.5 43.5t-56.5 126.5q0 60 23.5 106.5t63.5 77.5t91.5 55.5
t108.5 44t114 40t108.5 47.5t91.5 61t63.5 86.5t23.5 118.5q0 99 -70.5 156t-189.5 57q-194 0 -340 -146l53 -223h31q-2 18 -2 49q0 122 65 191t191 69q80 0 133 -39.5t53 -111.5q0 -56 -23.5 -100.5t-63.5 -74.5t-92 -54t-109 -44.5t-114 -41.5t-109 -49.5t-92 -64
t-63.5 -89.5t-23.5 -121q0 -110 78.5 -169t214.5 -59z" />
    <glyph glyph-name="uni0454" unicode="&#x454;" horiz-adv-x="983" 
d="M453 41q142 0 247 75.5t209 243.5h31q-41 -80 -92 -146.5t-116 -121t-146 -85t-170 -30.5q-116 0 -198 54t-120.5 142t-38.5 200q0 132 48 258t127.5 218.5t187.5 149t221 56.5q66 0 123.5 -17t95 -43.5t60.5 -51.5t36 -48l-188 -350h-31q84 152 84 264q0 87 -53 134.5
t-156 47.5q-176 0 -303.5 -127t-156.5 -327h460l-10 -52h-457q-2 -18 -2 -53q0 -173 88 -282t220 -109z" />
    <glyph glyph-name="uni0455" unicode="&#x455;" horiz-adv-x="839" 
d="M315 -23q-209 0 -313 166l152 275h28q-63 -116 -63 -213q0 -78 51 -124t158 -46q141 0 245.5 78t104.5 182q0 31 -15.5 57.5t-38.5 45.5t-67 39.5t-83 34.5t-105 36q-100 34 -151.5 87t-51.5 136q0 139 102 231.5t256 92.5q188 0 285 -146l-119 -223h-31q69 138 25 223.5
t-178 85.5q-118 0 -203.5 -66.5t-85.5 -158.5q0 -56 49.5 -94.5t165.5 -75.5q14 -5 54 -17t55 -17t48 -18t47 -22.5t35.5 -27t31 -35.5t17 -43t7.5 -55q0 -164 -118.5 -276t-293.5 -112z" />
    <glyph glyph-name="uni0456" unicode="&#x456;" horiz-adv-x="436" 
d="M362 1313q-32 0 -50.5 18.5t-18.5 48.5q0 42 30.5 73.5t71.5 31.5q32 0 51 -19t19 -49q0 -41 -31 -72.5t-72 -31.5zM295 0h-348l4 20l139 33l172 889h-133l4 21l207 61h20l-188 -971l127 -33z" />
    <glyph glyph-name="uni0457" unicode="&#x457;" horiz-adv-x="436" 
d="M244 1313q-33 0 -51.5 19.5t-18.5 51.5q0 40 30 70.5t72 30.5q33 0 50.5 -19.5t17.5 -50.5q0 -42 -30 -72t-70 -30zM508 1313q-33 0 -51.5 19.5t-18.5 51.5q0 40 30.5 70.5t72.5 30.5q32 0 49.5 -19.5t17.5 -50.5q0 -42 -30 -72t-70 -30zM295 0h-348l4 20l139 33l172 889
h-133l4 21l207 61h20l-188 -971l127 -33z" />
    <glyph glyph-name="uni0458" unicode="&#x458;" horiz-adv-x="395" 
d="M352 1313q-32 0 -50.5 18.5t-18.5 48.5q0 42 30.5 73.5t71.5 31.5q32 0 51 -19t19 -49q0 -41 -31 -72.5t-72 -31.5zM-168 -424l-133 201l31 18q116 -157 184 -157q42 0 73.5 56t49.5 148l215 1100h-133l4 21l205 61h20l-225 -1167q-31 -165 -88 -222q-59 -59 -203 -59z
" />
    <glyph glyph-name="uni0459" unicode="&#x459;" horiz-adv-x="1370" 
d="M1294 354q1 -68 -26 -134t-77 -121t-131 -88.5t-179 -33.5q-115 0 -185.5 60t-70.5 176q0 46 13.5 121.5t61.5 306.5l70 332h-291q-155 -576 -244.5 -784.5t-224.5 -208.5q-34 0 -53 16t-23 35l43 227h33q-17 -88 -8.5 -135t39.5 -47q84 0 168 201.5t209 689.5l-135 37
l4 20h573l-86 -436q102 41 219 41q153 0 226 -78t75 -197zM893 20q66 0 119.5 19t89 50t59.5 73t34.5 87t10.5 93q0 49 -12 92t-37.5 80.5t-73 59.5t-112.5 22q-111 0 -203 -39l-41 -213q-12 -62 -12 -127q0 -87 46 -142t132 -55z" />
    <glyph glyph-name="uni045A" unicode="&#x45a;" horiz-adv-x="1406" 
d="M1333 354q1 -68 -26 -134t-76.5 -121t-129 -88.5t-175.5 -33.5q-117 0 -187.5 60t-70.5 176q0 41 9 94.5t42 220.5h-455l-92 -475l127 -33l-4 -20h-348l4 20l139 33l172 889h-133l4 21l207 61h20l-86 -444h453l12 61l58 301h-133l4 21l206 61h21l-84 -444h221
q153 0 226 -64t75 -162zM938 20q149 0 228 91t79 231q0 40 -10.5 71t-35.5 58t-72.5 42t-116.5 15h-209l-35 -184q-12 -62 -12 -127q0 -89 44.5 -143t139.5 -54z" />
    <glyph glyph-name="uni045B" unicode="&#x45b;" horiz-adv-x="1034" 
d="M719 1055q249 0 190 -307l-135 -695l127 -33l-4 -20h-348l4 20l139 33l123 633q31 164 -9.5 234.5t-154.5 70.5q-102 0 -210.5 -96.5t-155.5 -212.5l-123 -629l127 -33l-4 -20h-348l4 20l139 33l244 1254h-146l10 51h146l39 198h-133l4 21l207 61h20l-55 -280h270
l-10 -51h-270l-103 -527q16 30 38 61t61.5 71t83.5 70.5t105.5 51.5t127.5 21z" />
    <glyph glyph-name="uni045C" unicode="&#x45c;" horiz-adv-x="964" 
d="M893 1489q0 -73 -356 -363h-27q98 143 174 233t116.5 121t65.5 31q27 0 27 -22zM340 1024h20l-188 -971l127 -33l-4 -20h-348l4 20l139 33l172 889h-133l4 21zM1022 1024l-4 -20l-160 -46l-475 -405l387 -502l125 -31l-4 -20h-399l4 20l155 33l-360 471l506 434l-179 46
l5 20h399z" />
    <glyph glyph-name="uni045D" unicode="&#x45d;" horiz-adv-x="993" 
d="M610 1126h-26q-357 291 -357 363q0 22 27 22q25 0 65.5 -31t116.5 -121t174 -233zM301 -23q-42 0 -74 9.5t-58.5 33t-38.5 62t-14 97t15 138.5l121 625h-133l4 21l207 61h20l-133 -680q-59 -303 135 -303q104 0 193 73.5t153 182.5l125 645h-133l4 21l207 61h21
l-185 -942h133l-4 -21l-204 -61h-21l41 215q-26 -41 -59.5 -78t-81.5 -75.5t-110.5 -61.5t-129.5 -23z" />
    <glyph glyph-name="uni045E" unicode="&#x45e;" horiz-adv-x="1058" 
d="M614 1163q63 0 109.5 25t76.5 75t48 108.5t31 141.5h86q-34 -179 -122.5 -281t-228.5 -102q-141 0 -197.5 105t-29.5 278h86q-15 -103 -15 -181t38.5 -123.5t117.5 -45.5zM-10 -424l-133 203l30 18q30 -43 91 -92t110 -49q38 0 81 32t85 86.5t76 108.5t67 117l-178 956
l-139 48l4 20h399l-4 -20l-170 -48l158 -856l461 856l-158 48l4 20h400l-5 -20l-180 -48l-487 -878q-47 -84 -75.5 -133.5t-66.5 -110t-66.5 -94.5t-65 -70t-71.5 -53.5t-77 -29t-90 -11.5z" />
    <glyph glyph-name="uni045F" unicode="&#x45f;" horiz-adv-x="993" 
d="M901 1024h21l-185 -942h133l-4 -21l-204 -61h-21l43 221q-11 -16 -41 -55q-66 -90 -132 -227t-107 -217t-72 -80q-35 0 -35 34q0 47 68.5 157.5t179.5 234.5q-120 -91 -244 -91q-42 0 -74 9.5t-58.5 33t-38.5 62t-14 97t15 138.5l121 625h-133l4 21l207 61h20l-133 -680
q-59 -303 135 -303q104 0 193 73.5t153 182.5l125 645h-133l4 21z" />
    <glyph glyph-name="uni0490" unicode="&#x490;" horiz-adv-x="1001" 
d="M1233 1812l-133 -317h-584l-276 -1421l143 -54l-4 -20h-399l4 20l163 54l273 1401l-141 61l4 20h739l190 256h21z" />
    <glyph glyph-name="uni0491" unicode="&#x491;" horiz-adv-x="712" 
d="M856 1280l-121 -307h-385l-178 -920l127 -33l-4 -20h-348l4 20l139 33l178 918l-127 33l4 20h517l174 256h20z" />
    <glyph glyph-name="uni0492" unicode="&#x492;" horiz-adv-x="1013" 
d="M281 1556h847l11 -317h-21l-84 256h-522l-133 -692h332l-11 -51h-331l-131 -678l161 -54l-4 -20h-420l5 20l165 54l131 678h-135l11 51h135l131 672l-142 61z" />
    <glyph glyph-name="uni0493" unicode="&#x493;" horiz-adv-x="829" 
d="M795 518h-330q-17 -6 -54 -19t-54.5 -20t-50.5 -20t-50.5 -22.5t-44 -25t-40.5 -29.5t-31.5 -34t-26.5 -40.5t-15 -47t-6 -55.5q0 -83 56.5 -126.5t158.5 -43.5q89 0 149 25.5t90 72.5t42 99t12 120q0 43 -4 66h29l65 -275q-56 -67 -153 -116.5t-230 -49.5
q-136 0 -214.5 59t-78.5 169q0 63 20 114t59 88t81.5 62t101.5 49h-215l11 51h342q54 19 90.5 34.5t77.5 40t65.5 51t41 65t16.5 84.5q0 72 -53 111.5t-134 39.5q-126 0 -191 -69t-65 -191q0 -31 2 -49h-31l-53 223q146 146 340 146q119 0 189.5 -57t70.5 -156
q0 -100 -50 -164.5t-140 -108.5h215z" />
    <glyph glyph-name="uni0496" unicode="&#x496;" horiz-adv-x="1794" 
d="M1909 1536l-180 -41l-662 -618l496 -816h174l10 -317h-21l-94 256h-354l4 20l162 54l-463 760l-147 -760l143 -54l-4 -20h-400l5 20l163 54l148 762l-756 -762l139 -54l-4 -20h-401l4 20l143 54l805 809l-416 612l-167 41l4 20h399l-4 -20l-172 -41l432 -637l119 617
l-142 61l5 20h399l-4 -20l-166 -61l-119 -615l678 635l-156 41l4 20h400z" />
    <glyph glyph-name="uni0497" unicode="&#x497;" horiz-adv-x="1779" 
d="M1665 360q-19 -54 -30.5 -100.5t-15.5 -88t-5 -65.5t0.5 -63.5t1.5 -52.5q0 -266 -213 -266q-34 0 -92 10v26q117 0 171.5 51t76.5 173q2 9 17 99t26 138q-47 -118 -104.5 -181t-133.5 -63q-186 0 -186 310q0 103 20 200h-280l-95 -487h-82l95 487h-279
q-54 -214 -169 -362t-251 -148q-62 0 -99.5 40.5t-43.5 101.5l184 368h31q-60 -133 -87.5 -208.5t-27.5 -128.5q0 -109 78 -109q93 0 171.5 103t120.5 256t42 311q0 135 -34 207.5t-93 72.5q-67 0 -123 -75t-123 -244h-31q59 188 129.5 285.5t171.5 97.5q99 0 143 -85
t44 -225q0 -83 -21 -206h277l78 403h-133l4 21l206 61h21l-94 -485h280q35 139 96.5 254.5t147.5 188.5t178 73q64 0 102.5 -39t41.5 -103l-185 -368h-30q59 130 86.5 207.5t27.5 130.5q0 56 -16.5 82t-59.5 26q-92 0 -171 -102.5t-121.5 -255.5t-42.5 -311q0 -135 34 -208
t93 -73q67 0 122.5 75t122.5 244h31z" />
    <glyph glyph-name="uni049A" unicode="&#x49a;" horiz-adv-x="1202" 
d="M1153 -256h-20l-95 256h-356l4 20l162 54l-461 757l-147 -757l143 -54l-4 -20h-399l4 20l163 54l273 1401l-141 61l4 20h399l-4 -20l-166 -61l-119 -613l676 633l-156 41l5 20h399l-4 -20l-183 -41l-659 -621l496 -813h176z" />
    <glyph glyph-name="uni049B" unicode="&#x49b;" horiz-adv-x="987" 
d="M340 1024h20l-188 -971l127 -33l-4 -20h-348l4 20l139 33l172 889h-133l4 21zM1018 1004l-160 -46l-475 -405l387 -502h143l2 -307h-20l-55 256h-348l4 20l155 33l-360 471l506 434l-179 46l5 20h399z" />
    <glyph glyph-name="uni04A2" unicode="&#x4a2;" horiz-adv-x="1550" 
d="M1210 1536l4 20h400l-4 -20l-166 -61l-275 -1414h185l10 -317h-21l-83 256h-349l4 20l164 54l140 714h-840l-139 -714l143 -54l-4 -20h-399l4 20l163 54l273 1401l-141 61l4 20h399l-4 -20l-166 -61l-121 -625h840l121 625z" />
    <glyph glyph-name="uni04A3" unicode="&#x4a3;" horiz-adv-x="1032" 
d="M942 1024l-188 -973h149l2 -307h-20l-76 256h-281l4 20l140 33l84 434h-500l-84 -434l127 -33l-4 -20h-348l4 20l139 33l172 889h-133l4 21l207 61h20l-94 -485h500l78 403h-133l4 21l207 61h20z" />
    <glyph glyph-name="uni04AE" unicode="&#x4ae;" horiz-adv-x="1257" 
d="M731 0h-399l4 20l164 54l98 501l-324 912l-124 49l4 20h399l-4 -20l-160 -49l299 -825l592 825l-184 49l4 20h399l-4 -20l-154 -49l-649 -899l-100 -514l143 -54z" />
    <glyph glyph-name="uni04AF" unicode="&#x4af;" horiz-adv-x="1056" 
d="M768 1004l4 20h399l-4 -20l-180 -48l-520 -956l-70 -356l127 -33l-4 -21h-348l4 21l139 33l70 356l-168 956l-139 48l4 20h399l-4 -20l-170 -48l150 -884l469 884z" />
    <glyph glyph-name="uni04B0" unicode="&#x4b0;" horiz-adv-x="1263" 
d="M1098 1536l4 20h399l-4 -20l-154 -49l-649 -899h248l-10 -51h-248l-90 -463l143 -54l-4 -20h-399l4 20l164 54l90 463h-246l10 51h240l-320 899l-124 49l4 20h399l-4 -20l-160 -49l299 -825l592 825z" />
    <glyph glyph-name="uni04B1" unicode="&#x4b1;" horiz-adv-x="1056" 
d="M768 1004l4 20h399l-4 -20l-180 -48l-520 -956h246l-11 -51h-245l-60 -305l127 -33l-4 -21h-348l4 21l139 33l60 305h-246l10 51h246l-168 956l-139 48l4 20h399l-4 -20l-170 -48l150 -884l469 884z" />
    <glyph glyph-name="uni04B2" unicode="&#x4b2;" horiz-adv-x="1286" 
d="M1012 1536l4 20h399l-4 -20l-160 -61l-528 -668l328 -746h174l10 -317h-21l-94 256h-352l4 20l162 54l-289 655l-534 -655l188 -54l-4 -20h-399l4 20l151 54l574 704l-308 697l-131 61l4 20h400l-4 -20l-158 -61l270 -619l494 619z" />
    <glyph glyph-name="uni04B3" unicode="&#x4b3;" horiz-adv-x="991" 
d="M1028 1004l-145 -48l-344 -415l243 -490h125l2 -307h-20l-76 256h-321l4 20l174 33l-205 416l-371 -416l211 -33l-4 -20h-399l4 20l131 33l403 463l-211 440l-123 48l5 20h399l-4 -20l-166 -48l178 -368l305 368l-194 48l4 20h399z" />
    <glyph glyph-name="uni04B6" unicode="&#x4b6;" horiz-adv-x="1388" 
d="M1049 1536l4 20h399l-4 -20l-166 -61l-274 -1414h184l10 -317h-20l-84 256h-348l4 20l164 54l135 692q-63 -31 -189 -65.5t-260 -34.5q-221 0 -304 86.5t-46 277.5l90 465l-145 41l4 20h399l-4 -20l-162 -41l-90 -465q-31 -159 33.5 -231t236.5 -72q210 0 445 80l129 668
z" />
    <glyph glyph-name="uni04B7" unicode="&#x4b7;" horiz-adv-x="974" 
d="M885 1024l-189 -973h152l2 -307h-21l-75 256h-283l4 20l139 33l105 539q-138 -205 -352 -205q-84 0 -137.5 50.5t-53.5 148.5q0 36 27 178l33 178h-134l4 21l207 61h21l-51 -276q-15 -76 -15 -127q0 -170 138 -170q96 0 181 57.5t148 165.5l51 268h-133l4 21l207 61h21z
" />
    <glyph glyph-name="uni04BA" unicode="&#x4ba;" horiz-adv-x="1327" 
d="M1176 526l-91 -465l146 -41l-4 -20h-400l4 20l162 41l90 465q31 159 -33.5 231t-236.5 72q-212 0 -444 -79l-129 -668l141 -62l-4 -20h-400l5 20l165 62l273 1401l-144 53l5 20h399l-4 -20l-164 -53l-135 -692q63 31 188.5 65.5t259.5 34.5q221 0 304.5 -87t46.5 -278z
" />
    <glyph glyph-name="uni04BB" unicode="&#x4bb;" horiz-adv-x="1034" 
d="M285 0h-348l4 20l139 33l293 1503h-133l4 21l207 61h20l-168 -858q16 30 38 61t61.5 71t83.5 70.5t105.5 51.5t127.5 21q249 0 190 -307l-135 -695l127 -33l-4 -20h-348l4 20l139 33l123 633q31 164 -9.5 234.5t-154.5 70.5q-102 0 -210.5 -96.5t-155.5 -212.5l-123 -629
l127 -33z" />
    <glyph glyph-name="uni04C0" unicode="&#x4c0;" horiz-adv-x="559" 
d="M379 0h-399l4 20l163 54l273 1401l-141 61l4 20h399l-4 -20l-166 -61l-272 -1401l143 -54z" />
    <glyph glyph-name="uni04CF" unicode="&#x4cf;" horiz-adv-x="425" 
d="M285 0h-348l4 20l139 33l293 1503h-133l4 21l207 61h20l-309 -1585l127 -33z" />
    <glyph glyph-name="uni04D8" unicode="&#x4d8;" horiz-adv-x="1607" 
d="M930 1573q314 0 483.5 -171t169.5 -484q0 -187 -72 -360t-193 -300.5t-290.5 -204t-355.5 -76.5q-254 0 -414 162t-160 418q0 102 33 231h1333q6 62 6 127q0 151 -40.5 266.5t-115.5 187.5t-176 108t-227 36q-84 0 -159.5 -18t-147.5 -60.5t-129.5 -107t-102.5 -163
t-69 -222.5h-31l88 455q7 10 35 29t81 44.5t117.5 48t154.5 38.5t182 16zM719 53q286 0 486 184t251 490h-1247q-10 -64 -10 -121q0 -101 28 -190t77.5 -154.5t115 -113t142 -71.5t157.5 -24z" />
    <glyph glyph-name="uni04D9" unicode="&#x4d9;" horiz-adv-x="1009" 
d="M592 1055q91 0 162 -33.5t113 -91t63.5 -129t21.5 -152.5q0 -167 -81.5 -323.5t-215 -252.5t-276.5 -96q-163 0 -242.5 124t-40.5 323l6 31h756l2 12q27 144 -3.5 264t-113 190t-200.5 70q-120 0 -231.5 -80.5t-207.5 -238.5h-30q85 171 218.5 277t299.5 106zM836 393
h-658q-31 -161 27 -256.5t194 -95.5q143 0 264 100.5t173 251.5z" />
    <glyph glyph-name="uni04E2" unicode="&#x4e2;" horiz-adv-x="1509" 
d="M731 1843h539l-15 -78h-538zM1229 1536l4 20h399l-4 -20l-162 -41l-276 -1421l143 -54l-4 -20h-399l4 20l164 54l229 1175l-1065 -1046l-24 -129l143 -54l-4 -20h-400l5 20l163 54l277 1421l-146 41l5 20h399l-4 -20l-162 -41l-233 -1204l1062 1046l31 158z" />
    <glyph glyph-name="uni04E3" unicode="&#x4e3;" horiz-adv-x="993" 
d="M874 1233h-538l14 78h539zM301 -23q-42 0 -74 9.5t-58.5 33t-38.5 62t-14 97t15 138.5l121 625h-133l4 21l207 61h20l-133 -680q-59 -303 135 -303q104 0 193 73.5t153 182.5l125 645h-133l4 21l207 61h21l-185 -942h133l-4 -21l-204 -61h-21l41 215q-26 -41 -59.5 -78
t-81.5 -75.5t-110.5 -61.5t-129.5 -23z" />
    <glyph glyph-name="uni04E8" unicode="&#x4e8;" horiz-adv-x="1650" 
d="M1040 1573q175 0 311 -82.5t209.5 -228t73.5 -328.5q0 -131 -39.5 -257.5t-108 -230.5t-160.5 -192.5t-196 -148.5t-216.5 -94t-219.5 -34q-171 0 -302 82.5t-201 229t-70 334.5q0 135 38.5 262.5t104.5 230.5t156 189.5t191.5 145t212 90.5t216.5 32zM983 1497
q-138 0 -262.5 -50.5t-218.5 -138t-160.5 -205.5t-95.5 -253h1274q2 16 2 51q0 128 -29.5 230.5t-79.5 170t-120 112t-146.5 64t-163.5 19.5zM754 53q82 0 174.5 25.5t191 84t180 141.5t141 209t75.5 275h-1280q-11 -82 -11 -135q0 -121 31 -222.5t83 -170t121 -116
t143 -69.5t151 -22z" />
    <glyph glyph-name="uni04E9" unicode="&#x4e9;" horiz-adv-x="1064" 
d="M649 1055q77 0 139 -23.5t102 -62.5t66.5 -92t38 -109.5t11.5 -118.5q0 -128 -48.5 -251.5t-127 -215.5t-184 -148.5t-214.5 -56.5q-94 0 -168 36t-117.5 97t-65.5 134.5t-22 154.5q0 123 50 243.5t131 211t189.5 146t219.5 55.5zM616 991q-165 0 -298.5 -131
t-167.5 -319h761q7 51 7 86q0 102 -32 182.5t-101.5 131t-168.5 50.5zM471 41q146 0 268.5 128.5t161.5 313.5h-760q-2 -16 -2 -51q0 -107 37.5 -194.5t114 -142t180.5 -54.5z" />
    <glyph glyph-name="uni04EE" unicode="&#x4ee;" horiz-adv-x="1277" 
d="M614 1843h539l-14 -78h-539zM1114 1536l4 20h408l-4 -20l-160 -49l-694 -1125q-70 -114 -115.5 -177.5t-98 -114.5t-103.5 -70.5t-118 -19.5q-137 0 -182 92l168 293h31q-6 -11 -23 -40.5t-24 -43.5t-18.5 -36t-17.5 -38t-9 -29q-12 -58 18.5 -92.5t91.5 -34.5
q84 0 152.5 59.5t167.5 215.5l-289 1161l-131 49l4 20h399l-4 -20l-151 -49l250 -1034l628 1034z" />
    <glyph glyph-name="uni04EF" unicode="&#x4ef;" horiz-adv-x="1058" 
d="M899 1233h-539l15 78h538zM-10 -424l-133 203l30 18q30 -43 91 -92t110 -49q38 0 81 32t85 86.5t76 108.5t67 117l-178 956l-139 48l4 20h399l-4 -20l-170 -48l158 -856l461 856l-158 48l4 20h400l-5 -20l-180 -48l-487 -878q-47 -84 -75.5 -133.5t-66.5 -110
t-66.5 -94.5t-65 -70t-71.5 -53.5t-77 -29t-90 -11.5z" />
    <glyph glyph-name="Wgrave" unicode="&#x1e80;" horiz-adv-x="2181" 
d="M1323 1659h-27q-356 290 -356 362q0 23 27 23q25 0 65.5 -31t116.5 -121t174 -233zM532 0h-61l-186 1475l-144 61l4 20h400l-4 -20l-146 -61l158 -1311l711 1392h67l205 -1392l655 1311l-163 61l4 20h399l-4 -20l-172 -61l-742 -1475h-61l-203 1403z" />
    <glyph glyph-name="wgrave" unicode="&#x1e81;" horiz-adv-x="1521" 
d="M897 1126h-27q-356 290 -356 363q0 22 27 22q25 0 65.5 -31t116.5 -121t174 -233zM389 0h-61l-107 956l-143 48l4 20h399l-4 -20l-166 -48l80 -843l443 911h71l80 -911l412 843l-158 48l4 20h399l-4 -20l-184 -48l-471 -956h-61l-88 924z" />
    <glyph glyph-name="Wacute" unicode="&#x1e82;" horiz-adv-x="2181" 
d="M1300 1659h-26q98 143 174 233t116.5 121t65.5 31q27 0 27 -23q0 -71 -357 -362zM532 0h-61l-186 1475l-144 61l4 20h400l-4 -20l-146 -61l158 -1311l711 1392h67l205 -1392l655 1311l-163 61l4 20h399l-4 -20l-172 -61l-742 -1475h-61l-203 1403z" />
    <glyph glyph-name="wacute" unicode="&#x1e83;" horiz-adv-x="1521" 
d="M874 1126h-26q98 143 174 233t116.5 121t65.5 31q27 0 27 -22q0 -72 -357 -363zM389 0h-61l-107 956l-143 48l4 20h399l-4 -20l-166 -48l80 -843l443 911h71l80 -911l412 843l-158 48l4 20h399l-4 -20l-184 -48l-471 -956h-61l-88 924z" />
    <glyph glyph-name="Wdieresis" unicode="&#x1e84;" horiz-adv-x="2181" 
d="M1141 1739q-29 0 -46.5 16.5t-17.5 42.5q0 40 28 69t66 29q32 0 50 -17t18 -44q0 -40 -28.5 -68t-69.5 -28zM1407 1739q-29 0 -46.5 16.5t-17.5 42.5q0 40 28.5 69t66.5 29q31 0 49 -17t18 -44q0 -40 -28.5 -68t-69.5 -28zM532 0h-61l-186 1475l-144 61l4 20h400l-4 -20
l-146 -61l158 -1311l711 1392h67l205 -1392l655 1311l-163 61l4 20h399l-4 -20l-172 -61l-742 -1475h-61l-203 1403z" />
    <glyph glyph-name="wdieresis" unicode="&#x1e85;" horiz-adv-x="1521" 
d="M762 1309q-29 0 -46.5 16.5t-17.5 42.5q0 40 28.5 69t66.5 29q31 0 49 -17t18 -44q0 -40 -28.5 -68t-69.5 -28zM1028 1309q-29 0 -46 16t-17 43q0 40 28 69t66 29q31 0 49 -17t18 -44q0 -40 -28.5 -68t-69.5 -28zM389 0h-61l-107 956l-143 48l4 20h399l-4 -20l-166 -48
l80 -843l443 911h71l80 -911l412 843l-158 48l4 20h399l-4 -20l-184 -48l-471 -956h-61l-88 924z" />
    <glyph glyph-name="uni1E9E" unicode="&#x1e9e;" horiz-adv-x="1255" 
d="M811 -23q-106 0 -185 54t-112 112l152 275h30q-65 -119 -65 -211q0 -78 48.5 -125t145.5 -47q126 0 207.5 76t81.5 190q0 48 -15 85.5t-45 64t-49 38.5t-53 29q-104 51 -140 81q-69 58 -69 144q0 44 16.5 79t43 60t58 48t63.5 49.5t58.5 57.5t43 79.5t16.5 108.5
q0 130 -72.5 213.5t-217.5 83.5q-261 0 -318 -293l-239 -1229h-226l4 20l140 33l227 1166q5 27 9 44t13 48.5t19 53t28 51.5t38.5 50t51.5 42.5t67 35.5t84 22t104 9q184 0 273 -85.5t89 -236.5q0 -76 -23 -136.5t-57.5 -95t-75 -66t-75 -52.5t-57.5 -50.5t-23 -64.5
q0 -25 10 -45t35 -38.5t43.5 -29t61.5 -31.5t63 -32q87 -45 127.5 -94.5t40.5 -140.5q0 -161 -110 -280.5t-265 -119.5z" />
    <glyph glyph-name="Ygrave" unicode="&#x1ef2;" horiz-adv-x="1257" 
d="M862 1659h-26q-357 291 -357 362q0 23 27 23q25 0 65.5 -31t116.5 -121t174 -233zM731 0h-399l4 20l164 54l98 501l-324 912l-124 49l4 20h399l-4 -20l-160 -49l299 -825l592 825l-184 49l4 20h399l-4 -20l-154 -49l-649 -899l-100 -514l143 -54z" />
    <glyph glyph-name="ygrave" unicode="&#x1ef3;" horiz-adv-x="1058" 
d="M653 1126h-26q-357 291 -357 363q0 22 27 22q25 0 65.5 -31t116.5 -121t174 -233zM-10 -424l-133 203l30 18q30 -43 91 -92t110 -49q38 0 81 32t85 86.5t76 108.5t67 117l-178 956l-139 48l4 20h399l-4 -20l-170 -48l158 -856l461 856l-158 48l4 20h400l-5 -20l-180 -48
l-487 -878q-47 -84 -75.5 -133.5t-66.5 -110t-66.5 -94.5t-65 -70t-71.5 -53.5t-77 -29t-90 -11.5z" />
    <glyph glyph-name="uni2009" unicode="&#x2009;" horiz-adv-x="446" 
 />
    <glyph glyph-name="endash" unicode="&#x2013;" horiz-adv-x="854" 
d="M793 537h-723l14 77h723z" />
    <glyph glyph-name="emdash" unicode="&#x2014;" horiz-adv-x="1263" 
d="M1202 537h-1132l14 77h1133z" />
    <glyph glyph-name="quoteleft" unicode="&#x2018;" horiz-adv-x="333" 
d="M268 1065q-32 0 -51.5 20.5t-19.5 57.5q0 77 78.5 210t173.5 218h20q-75 -78 -107 -138.5t-32 -129.5q0 -103 37 -158q-8 -41 -36.5 -60.5t-62.5 -19.5z" />
    <glyph glyph-name="quoteright" unicode="&#x2019;" horiz-adv-x="339" 
d="M207 1065h-21q77 80 108.5 137t31.5 133q0 104 -35 156q7 41 34.5 60.5t61.5 19.5q33 0 53.5 -20.5t20.5 -57.5q0 -79 -82.5 -214.5t-171.5 -213.5z" />
    <glyph glyph-name="quotesinglbase" unicode="&#x201a;" horiz-adv-x="329" 
d="M-78 -295h-20q139 145 139 244q0 22 -8 45.5t-15.5 36.5t-23.5 39q7 43 40.5 71.5t71.5 28.5t60 -21t22 -57q0 -66 -74 -173.5t-192 -213.5z" />
    <glyph glyph-name="quotedblleft" unicode="&#x201c;" horiz-adv-x="559" 
d="M268 1065q-32 0 -51.5 20.5t-19.5 57.5q0 75 78.5 209.5t173.5 218.5h20q-75 -78 -107 -138.5t-32 -129.5q0 -103 37 -158q-8 -41 -36 -60.5t-63 -19.5zM494 1065q-32 0 -52 20.5t-20 57.5q0 75 78.5 209.5t173.5 218.5h20q-75 -78 -107 -138.5t-32 -129.5
q0 -103 37 -158q-8 -41 -36.5 -60.5t-61.5 -19.5z" />
    <glyph glyph-name="quotedblright" unicode="&#x201d;" horiz-adv-x="589" 
d="M207 1065h-21q77 80 108.5 137t31.5 133q0 104 -35 156q7 41 34.5 60.5t61.5 19.5q33 0 53.5 -20.5t20.5 -57.5q0 -79 -82.5 -214.5t-171.5 -213.5zM457 1065h-21q77 80 108 137t31 133q0 106 -34 156q7 41 34.5 60.5t61.5 19.5q33 0 53.5 -20.5t20.5 -57.5
q0 -79 -82.5 -214.5t-171.5 -213.5z" />
    <glyph glyph-name="quotedblbase" unicode="&#x201e;" horiz-adv-x="577" 
d="M-88 -336h-21q120 123 136 211q10 46 1.5 112t-32.5 103q7 41 34.5 60.5t61.5 19.5q40 0 60 -28.5t10 -80.5q-14 -75 -83.5 -193t-166.5 -204zM182 -336h-20q119 122 135 211q10 46 1.5 112t-32.5 103q7 41 34.5 60.5t61.5 19.5q40 0 60 -28.5t10 -80.5
q-14 -75 -83.5 -193t-166.5 -204z" />
    <glyph glyph-name="dagger" unicode="&#x2020;" horiz-adv-x="954" 
d="M901 1155l125 174h21l-80 -409h-21l-57 174h-252l-195 -1002l140 -72l-4 -20h-400l4 20l168 72l195 1002h-252l-127 -174h-21l80 409h21l59 -174h252l72 371l-135 92l4 20h399l-4 -20l-172 -92l-72 -371h252z" />
    <glyph glyph-name="daggerdbl" unicode="&#x2021;" horiz-adv-x="921" 
d="M752 983h-400l4 21l162 51l45 225h-180l-107 -174h-20l80 410h20l39 -175h180l39 205l-139 72l4 20h400l-5 -20l-167 -72l-39 -205h180l104 175h21l-80 -410h-21l-36 174h-181l-45 -225l146 -51zM559 0h-399l4 20l164 52l45 225h-180l-107 -174h-20l79 409h21l37 -174
h180l41 205l-139 72l4 20h399l-4 -20l-168 -72l-41 -205h180l107 174h20l-80 -409h-20l-37 174h-180l-45 -225l143 -52z" />
    <glyph glyph-name="bullet" unicode="&#x2022;" horiz-adv-x="622" 
d="M283 375q-58 0 -90.5 33.5t-32.5 87.5q0 71 53 124.5t127 53.5q56 0 90.5 -35.5t34.5 -89.5q0 -73 -52.5 -123.5t-129.5 -50.5z" />
    <glyph glyph-name="ellipsis" unicode="&#x2026;" horiz-adv-x="968" 
d="M86 -23q-37 0 -58.5 21.5t-21.5 56.5q0 46 34 80.5t83 34.5q36 0 58 -23t22 -57q0 -47 -34 -80t-83 -33zM393 -23q-37 0 -58.5 21.5t-21.5 56.5q0 46 34 80.5t83 34.5q36 0 58 -23t22 -57q0 -47 -34 -80t-83 -33zM700 -23q-37 0 -58 21.5t-21 56.5q0 47 33.5 81t82.5 34
q36 0 58 -23t22 -57q0 -47 -34 -80t-83 -33z" />
    <glyph glyph-name="perthousand" unicode="&#x2030;" horiz-adv-x="2484" 
d="M414 815q-59 0 -104.5 25.5t-72 69t-40 96t-13.5 112.5q0 126 52 246.5t148.5 200.5t211.5 80q80 0 135 -49t77.5 -118.5t22.5 -152.5q0 -124 -53.5 -241t-151 -193t-212.5 -76zM444 850q53 0 106.5 30t99.5 84t75 141t29 191q0 136 -53.5 226t-133.5 90
q-51 0 -105.5 -33t-101 -90.5t-76.5 -146t-30 -189.5q0 -132 53.5 -217.5t136.5 -85.5zM258 0h-61l1384 1556h66zM1278 -12q-59 0 -104.5 25.5t-72 69t-39.5 96t-13 112.5q0 94 31 188t84 169t131 122t165 47q80 0 135 -48.5t78 -118t23 -152.5q0 -124 -54 -241t-151.5 -193
t-212.5 -76zM1997 -12q-59 0 -104.5 25.5t-72 69t-40 96t-13.5 112.5q0 126 52 246.5t148.5 200t211.5 79.5q80 0 135 -48.5t78 -118t23 -152.5q0 -124 -54 -241t-151.5 -193t-212.5 -76zM1309 23q53 0 106.5 30t99 84t74.5 141t29 191q0 136 -53 225.5t-133 89.5
q-51 0 -105.5 -33t-101.5 -90t-77 -145.5t-30 -189.5q0 -132 54 -217.5t137 -85.5zM2028 23q53 0 106.5 30t99 84t74.5 141t29 191q0 136 -53.5 225.5t-133.5 89.5q-51 0 -105.5 -33t-101 -90t-76.5 -145.5t-30 -189.5q0 -132 54 -217.5t137 -85.5z" />
    <glyph glyph-name="guilsinglleft" unicode="&#x2039;" horiz-adv-x="595" 
d="M430 145h-31l-317 381l2 13l465 379h31q-273 -261 -416 -386q84 -114 266 -387z" />
    <glyph glyph-name="guilsinglright" unicode="&#x203a;" horiz-adv-x="595" 
d="M53 145h-30q297 284 417 387q-87 115 -268 386h31l317 -379l-2 -13z" />
    <glyph glyph-name="fraction" unicode="&#x2044;" horiz-adv-x="368" 
d="M-428 0h-61l1384 1556h66z" />
    <glyph glyph-name="Euro" unicode="&#x20ac;" horiz-adv-x="1306" 
d="M1034 1573q222 0 307 -171q0 -2 1 -3t1 -2l-61 -307h-41q24 137 18 232t-66 145.5t-181 50.5q-196 0 -350.5 -162t-212.5 -471h425l-12 -66h-426q-7 -51 -14 -139h414l-15 -66h-401q-2 -25 -2 -75q0 -251 84.5 -378.5t226.5 -127.5q138 0 243.5 105t147.5 323h41
l-59 -307q-50 -54 -87 -82q-127 -95 -288 -95q-89 0 -159.5 36.5t-113.5 94.5t-71.5 137t-39.5 157.5t-11 162.5q0 33 2 49h-236l15 66h225q6 73 20 139h-219l13 66h221q25 104 62 198t94.5 185.5t128.5 157.5t168 106.5t208 40.5z" />
    <glyph glyph-name="uni20B4" unicode="&#x20b4;" horiz-adv-x="1216" 
d="M1042 948h170l-12 -65h-1046l12 65h772q60 53 94.5 139t34.5 173q0 112 -73.5 180.5t-200.5 68.5q-150 0 -240 -66t-90 -204q0 -61 20 -135h-41l-94 303q202 166 453 166q172 0 265 -82.5t93 -230.5q0 -86 -32.5 -169t-84.5 -143zM260 678h-147l14 65h1047l-15 -65h-774
q-95 -63 -139.5 -155.5t-44.5 -176.5q0 -157 87 -235t228 -78q216 0 333.5 126.5t117.5 362.5q0 42 -2 60h41l43 -365q-35 -42 -83.5 -81t-116 -76.5t-157.5 -60t-188 -22.5q-181 0 -288 88.5t-107 268.5q0 89 37 182.5t114 161.5z" />
    <glyph glyph-name="uni20B8" unicode="&#x20b8;" horiz-adv-x="1423" 
d="M311 1491l13 65h1177l-12 -65h-1178zM809 0h-399l4 20l164 54l237 1216h-461l-182 -256h-20l133 318h1177l11 -318h-21l-84 256h-461l-237 -1216l143 -54z" />
    <glyph glyph-name="uni20BD" unicode="&#x20bd;" horiz-adv-x="1267" 
d="M741 735h-264l-26 -141h602l-13 -66h-604l-88 -454l144 -54l-5 -20h-399l4 20l164 54l88 454h-268l12 66h268l29 139h-268l12 66h268l131 676l-141 61l4 20h510q117 0 211 -32t154.5 -104t60.5 -175q0 -133 -79 -250.5t-215 -188.5t-292 -71zM879 1495h-254l-136 -698
h254q210 0 346 129.5t136 324.5q0 244 -346 244z" />
    <glyph glyph-name="uni2116" unicode="&#x2116;" horiz-adv-x="2199" 
d="M1974 1571q77 0 132 -28t83.5 -77t41 -102t12.5 -115q0 -72 -19.5 -144.5t-58.5 -138t-92 -116t-125.5 -80t-153.5 -29.5q-57 0 -103 19.5t-75.5 51t-49 74t-28 87t-8.5 92.5q0 72 19.5 144.5t58 137.5t91.5 115t124 79.5t151 29.5zM385 0h-399l4 20l164 54l272 1401
l-141 61l4 20h248l493 -1288l236 1207l-142 61l4 20h400l-4 -20l-166 -61l-287 -1475h-51l-520 1370l-252 -1296l141 -54zM1825 776q83 0 159.5 67t122 172t45.5 214q0 309 -204 309q-83 0 -160 -67t-122.5 -172t-45.5 -214q0 -132 53 -220.5t152 -88.5zM2091 492h-661
l10 51h661z" />
    <glyph glyph-name="trademark" unicode="&#x2122;" horiz-adv-x="1378" 
d="M475 948h-156l3 15l57 30l102 529h-151l-80 -88h-14l51 122h454l4 -122h-14l-47 88h-154l-102 -529l49 -30zM883 948h-154l2 15l57 30l103 523l-47 22l4 18h100l115 -526l311 526h90l-4 -18l-53 -22l-102 -523l43 -30l-2 -15h-156l2 15l63 30l91 463l-295 -508h-25
l-104 479l-84 -434l47 -30z" />
    <glyph glyph-name="oneeighth" unicode="&#x215b;" horiz-adv-x="1769" 
d="M453 827h-240l2 11l94 32l133 689l-229 -213l6 24l232 266h159l-2 -10l-96 -39l-139 -717l82 -32zM244 0h-62l1385 1556h65zM1305 -12q-106 0 -171 51t-65 135q0 96 65 167t171 93q-57 13 -91 54.5t-34 97.5q0 104 80.5 167.5t212.5 63.5q94 0 151 -46.5t57 -123.5
q0 -66 -54.5 -124t-143.5 -87h-2q75 -9 120.5 -59.5t45.5 -124.5q0 -119 -94 -191.5t-248 -72.5zM1401 451q91 0 147 50t56 132q0 68 -43 109.5t-113 41.5q-91 0 -146 -52t-55 -138q0 -64 42.5 -103.5t111.5 -39.5zM1329 23q109 0 176.5 61.5t67.5 161.5q0 75 -51.5 121.5
t-135.5 46.5q-113 0 -181 -59.5t-68 -157.5q0 -78 53 -126t139 -48z" />
    <glyph glyph-name="threeeighths" unicode="&#x215c;" horiz-adv-x="1978" 
d="M375 815q-88 0 -159.5 36t-78.5 93l70 168h39q-41 -89 -41 -143q0 -35 17.5 -61t46.5 -39t58 -19t60 -6q116 0 196.5 79.5t80.5 196.5q0 115 -140 115q-26 0 -74 -13t-79 -32l10 45q299 105 299 262q0 50 -37 80.5t-108 30.5q-93 0 -149 -46t-56 -145q0 -35 6 -88h-39
l-29 170q44 52 119.5 99t163.5 47q82 0 144.5 -35.5t62.5 -102.5q0 -72 -65 -137.5t-183 -112.5q90 13 158.5 -24.5t68.5 -120.5q0 -117 -110.5 -207t-251.5 -90zM459 0h-62l1385 1556h65zM1520 -12q-106 0 -171 51t-65 135q0 96 65 167t171 93q-57 13 -91 54.5t-34 97.5
q0 104 80.5 167.5t212.5 63.5q94 0 151 -46.5t57 -123.5q0 -66 -54.5 -124t-143.5 -87h-2q75 -9 120.5 -59.5t45.5 -124.5q0 -119 -94 -191.5t-248 -72.5zM1616 451q91 0 147 50t56 132q0 68 -43 109.5t-113 41.5q-91 0 -146 -52t-55 -138q0 -64 42.5 -103.5t111.5 -39.5z
M1544 23q109 0 176.5 61.5t67.5 161.5q0 75 -51 121.5t-135 46.5q-113 0 -181.5 -59.5t-68.5 -157.5q0 -78 53 -126t139 -48z" />
    <glyph glyph-name="fiveeighths" unicode="&#x215d;" horiz-adv-x="2109" 
d="M453 817q-69 0 -122.5 22.5t-87 63t-53.5 86t-34 103.5h34q20 -59 37 -95.5t45.5 -72.5t70.5 -53t99 -17q140 0 239 88.5t99 218.5q0 81 -47.5 131.5t-130.5 50.5q-77 0 -146 -45t-116 -143h-74l166 426l-74 45l2 10h488l8 -170h-22l-62 140h-260l-139 -349q43 53 115 86
t145 33q98 0 162.5 -60.5t64.5 -156.5q0 -139 -123.5 -240.5t-283.5 -101.5zM575 0h-61l1384 1556h66zM1636 -12q-106 0 -170.5 51t-64.5 135q0 96 64.5 167t170.5 93q-57 13 -91 54.5t-34 97.5q0 104 80.5 167.5t212.5 63.5q94 0 151.5 -47t57.5 -123q0 -66 -54.5 -124
t-143.5 -87h-3q75 -9 120.5 -59.5t45.5 -124.5q0 -119 -94 -191.5t-248 -72.5zM1733 451q91 0 146.5 50t55.5 132q0 68 -42.5 109.5t-112.5 41.5q-91 0 -146 -52t-55 -138q0 -64 42.5 -103.5t111.5 -39.5zM1661 23q109 0 176.5 61.5t67.5 161.5q0 75 -51.5 121.5
t-135.5 46.5q-113 0 -181.5 -59.5t-68.5 -157.5q0 -78 53.5 -126t139.5 -48z" />
    <glyph glyph-name="seveneighths" unicode="&#x215e;" horiz-adv-x="1865" 
d="M285 827h-60l215 394h-151l6 30h164l207 355h-299l-107 -140h-24l73 170h494l-2 -10l-90 -47l-185 -317l97 -19l-5 -22h-116zM338 0h-62l1385 1556h65zM1399 -12q-106 0 -171 51t-65 135q0 96 65 167t171 93q-57 13 -91 54.5t-34 97.5q0 104 80.5 167.5t212.5 63.5
q94 0 151.5 -47t57.5 -123q0 -66 -55 -124t-144 -87h-2q75 -9 120.5 -59.5t45.5 -124.5q0 -119 -94 -191.5t-248 -72.5zM1495 451q91 0 147 50t56 132q0 68 -43 109.5t-113 41.5q-91 0 -146 -52t-55 -138q0 -64 42.5 -103.5t111.5 -39.5zM1423 23q109 0 176.5 61.5
t67.5 161.5q0 75 -51 121.5t-135 46.5q-113 0 -181.5 -59.5t-68.5 -157.5q0 -78 53 -126t139 -48z" />
    <glyph glyph-name="arrowleft" unicode="&#x2190;" horiz-adv-x="2420" 
d="M571 309h-30l-422 381l2 12l569 379h31l-393 -350h2042l-15 -69h-2042z" />
    <glyph glyph-name="arrowup" unicode="&#x2191;" horiz-adv-x="860" 
d="M285 -410h-70l358 1848l-413 -326l6 31l475 495h12l285 -495l-6 -31l-289 326z" />
    <glyph glyph-name="arrowright" unicode="&#x2192;" horiz-adv-x="2416" 
d="M1798 309h-31l394 353h-2042l14 69h2042l-258 350h31l422 -379l-3 -12z" />
    <glyph glyph-name="arrowdown" unicode="&#x2193;" horiz-adv-x="854" 
d="M252 -410h-12l-283 496l6 31l287 -326l358 1847h70l-359 -1847l416 326l-6 -31z" />
    <glyph glyph-name="arrowboth" unicode="&#x2194;" horiz-adv-x="2404" 
d="M567 309h-30l-422 381l2 12l569 379h31l-393 -350h1841l-258 350h30l422 -379l-2 -12l-569 -381h-31l393 353h-1841z" />
    <glyph glyph-name="arrowupdn" unicode="&#x2195;" horiz-adv-x="886" 
d="M268 -410h-12l-283 496l7 31l286 -326l320 1647l-414 -326l6 31l475 495h13l284 -495l-6 -31l-289 326l-319 -1647l416 326l-7 -31z" />
    <glyph glyph-name="uni2196" unicode="&#x2196;" horiz-adv-x="1384" 
d="M1171 -375l-67 -35l-705 1854l-229 -457l-12 25l204 620l11 6l530 -239l8 -27l-444 107z" />
    <glyph glyph-name="uni2197" unicode="&#x2197;" horiz-adv-x="1386" 
d="M1348 1444l-1426 -1854l-55 35l1425 1854l-485 -107l18 27l623 239l8 -6l-35 -620l-22 -25z" />
    </font>
</defs>
</svg>
