<?xml version="1.0" standalone="no"?>
<!DOCTYPE svg PUBLIC "-//W3C//DTD SVG 1.1//EN" "http://www.w3.org/Graphics/SVG/1.1/DTD/svg11.dtd" >
<svg xmlns="http://www.w3.org/2000/svg" xmlns:xlink="http://www.w3.org/1999/xlink" version="1.1">
<metadata>
Created by FontForge 20170731 at Tue Feb  2 19:50:30 2021
 By Aleksey,,,
Copyright (c) 2020 by Matthieu Salvaggio. All rights reserved.
</metadata>
<defs>
<font id="ApocLC-Hairline" horiz-adv-x="1048" >
  <font-face 
    font-family="Apoc LC Hairline"
    font-weight="50"
    font-stretch="normal"
    units-per-em="2048"
    panose-1="0 0 1 0 0 0 0 0 0 0"
    ascent="1638"
    descent="-410"
    x-height="1024"
    cap-height="1556"
    bbox="-1364 -500 2447 2126"
    underline-thickness="102"
    underline-position="-307"
    unicode-range="U+0020-FB02"
  />
<missing-glyph horiz-adv-x="1130" 
d="M1090 0h-1049v20l154 54v1401l-154 61v20h1049v-20l-154 -61v-1401l154 -54v-20zM287 1495v-1386l553 1386h-553zM844 1389l-533 -1328h533v1328z" />
    <glyph glyph-name="fi" unicode="fi" horiz-adv-x="1009" 
d="M397 0h-348v20l133 54v899h-125v51h125v264q0 383 248 383q48 0 80.5 -14.5t53.5 -37t42.5 -46.5t61.5 -48t96 -36q57 -12 82.5 -34.5t25.5 -61.5q0 -38 -21.5 -59t-57.5 -21q-32 0 -59 22.5t-60 65.5q-9 13 -31.5 46.5t-34.5 51t-35 44t-42 40t-45 24.5t-54 11
q-89 0 -128.5 -79t-39.5 -234v-281h574v-971l133 -33v-20h-348v20l133 33v920h-492v-899l133 -54v-20z" />
    <glyph glyph-name="fl" unicode="fl" horiz-adv-x="1052" 
d="M397 0h-348v20l133 33v920h-125v51h125v270q0 113 22.5 194.5t77 132t138.5 50.5q62 0 122.5 -18t112.5 -36t93 -18q62 0 112 39h21v-1585l133 -33v-20h-348v20l133 33v1299q0 66 -40 120t-99.5 84t-121 46t-112.5 16q-162 0 -162 -313v-281h271v-51h-271v-920l133 -33
v-20z" />
    <glyph glyph-name="fh" unicode="fh" horiz-adv-x="1683" 
d="M397 0h-348v20l133 33v920h-125v51h125v270q0 87 10.5 151t36 117.5t73.5 81t118 27.5q66 0 178.5 -36t169.5 -36q63 0 113 39h20v-858q9 29 25.5 60.5t47.5 71.5t69.5 70.5t96 51.5t122.5 21q249 0 249 -307v-695l134 -33v-20h-349v20l134 33v633q0 158 -63 231.5
t-161 73.5q-60 0 -113.5 -27t-91 -71.5t-63.5 -97t-39 -109.5v-633l135 -33v-20h-370v20l153 33v1299q0 66 -45.5 120t-111 84t-128 46t-106.5 16q-41 0 -70.5 -15.5t-47 -41t-27.5 -67.5t-13.5 -85.5t-3.5 -103.5v-281h271v-51h-271v-920l133 -33v-20z" />
    <glyph glyph-name="fb" unicode="fb" horiz-adv-x="1546" 
d="M1079 -23q-54 0 -99.5 14.5t-81 42.5t-59 54t-51.5 64l-45 -152h-30v1352q0 67 -29.5 120.5t-74.5 83.5t-92.5 46t-90.5 16q-41 0 -70.5 -15.5t-47 -41t-27.5 -67.5t-13.5 -85.5t-3.5 -103.5v-281h271v-51h-271v-920l133 -33v-20h-348v20l133 33v920h-125v51h125v270
q0 87 10.5 151t36 117.5t73.5 81t118 27.5q55 0 98 -18t77 -36t69 -18q62 0 112 39h21v-583q153 0 274 -38t194.5 -97.5t122 -139.5t67 -156t18.5 -155q0 -67 -15.5 -135.5t-48 -132.5t-78 -114t-111 -80t-141.5 -30zM1065 41q134 0 229 113.5t95 291.5q0 82 -20.5 161.5
t-67 155.5t-114 133.5t-168.5 92.5t-222 35v-840q49 -61 118 -102t150 -41z" />
    <glyph glyph-name="fk" unicode="fk" horiz-adv-x="1587" 
d="M397 0h-348v20l133 33v920h-125v51h125v270q0 113 22.5 194.5t77 132t138.5 50.5q62 0 122.5 -18t112.5 -36t93 -18q62 0 112 39h21v-1249l454 574l-186 41v20h399v-20l-162 -46l-274 -354l373 -551l121 -33v-20h-400v20l168 33l-321 475l-172 -221v-254l133 -33v-20
h-348v20l133 33v1299q0 66 -40 120t-99.5 84t-121 46t-112.5 16q-162 0 -162 -313v-281h271v-51h-271v-920l133 -33v-20z" />
    <glyph glyph-name="ffi" unicode="ffi" horiz-adv-x="1583" 
d="M397 0h-348v20l133 54v899h-125v51h125v270q0 377 240 377q52 0 103.5 -17.5t86 -39.5t86.5 -56.5t86 -52.5q58 166 220 166q48 0 80 -14.5t53 -37t42.5 -46.5t61.5 -48t96 -36q58 -12 83.5 -34.5t25.5 -61.5q0 -38 -22 -59t-58 -21q-54 0 -115 82q-12 16 -38.5 56
t-44 62.5t-44 50.5t-56 41t-62.5 13q-89 0 -128.5 -79t-39.5 -234v-281h573v-971l133 -33v-20h-348v20l133 33v920h-491v-899l133 -54v-20h-348v20l133 54v899h-492v-899l133 -54v-20zM264 1305v-281h492v287q0 70 -47 141.5t-125.5 118.5t-161.5 47q-158 0 -158 -313z" />
    <glyph glyph-name="ffl" unicode="ffl" horiz-adv-x="1626" 
d="M397 0h-348v20l133 33v920h-125v51h125v262q0 179 57.5 282t182.5 103q66 0 124 -25.5t129 -73.5t109 -67q54 166 209 166q62 0 122.5 -18t112.5 -36t93 -18q63 0 113 39h20v-1585l133 -33v-20h-348v20l133 33v1299q0 66 -40 120t-99.5 84t-121 46t-112.5 16
q-161 0 -161 -313v-281h270v-51h-270v-920l133 -33v-20h-348v20l133 33v920h-492v-920l133 -33v-20zM264 1305v-281h492v270q0 83 -49.5 159t-127 120.5t-157.5 44.5q-158 0 -158 -313z" />
    <glyph glyph-name="ff" unicode="ff" horiz-adv-x="1114" 
d="M397 0h-348v20l133 33v920h-125v51h125v270q0 174 57.5 275.5t182.5 101.5q66 0 123.5 -25t128 -72.5t108.5 -66.5q52 164 209 164q163 0 279 -158l-121 -315h-31q53 138 53 238q0 182 -180 182q-83 0 -120 -86t-37 -258v-250h270v-51h-270v-920l133 -33v-20h-349v20
l134 33v920h-488v-920l133 -33v-20zM264 1305v-281h488v240q0 151 -96 252.5t-234 101.5q-158 0 -158 -313z" />
    <glyph glyph-name="ffh" unicode="ffh" horiz-adv-x="2256" 
d="M397 0h-348v20l133 33v920h-125v51h125v270q0 114 22.5 195t78 131.5t141.5 50.5q51 0 101 -17.5t84.5 -39t85.5 -54.5t85 -51q51 162 213 162q66 0 178.5 -36t169.5 -36q63 0 113 39h21v-858q12 38 36.5 79t66.5 88t109.5 77.5t147.5 30.5q250 0 250 -307v-695l133 -33
v-20h-348v20l133 33v633q0 158 -62.5 231.5t-160.5 73.5q-60 0 -113.5 -27t-91 -71.5t-63.5 -97t-39 -109.5v-633l135 -33v-20h-371v20l154 33v1299q0 66 -45.5 120t-111.5 84t-128.5 46t-106.5 16q-41 0 -70 -15.5t-46.5 -41t-27.5 -67.5t-13.5 -85.5t-3.5 -103.5v-281h270
v-51h-270v-920l133 -33v-20h-348v20l133 33v920h-492v-920l133 -33v-20zM264 1305v-281h492v287q0 70 -47 141.5t-125 118.5t-160 47q-160 0 -160 -313z" />
    <glyph glyph-name="ffk" unicode="ffk" horiz-adv-x="2162" 
d="M397 0h-348v20l133 33v920h-125v51h125v270q0 114 22.5 195t78 131.5t141.5 50.5q66 0 123.5 -24.5t129 -73t107.5 -66.5q54 164 209 164q62 0 122.5 -18t112.5 -36t93 -18q63 0 113 39h20v-1251l451 569l-181 48v20h400v-20l-164 -48l-272 -352l372 -551l121 -33v-20
h-399v20l168 33l-322 475l-174 -223v-252l133 -33v-20h-348v20l133 33v1299q0 66 -40 120t-99.5 84t-121 46t-112.5 16q-161 0 -161 -313v-281h270v-51h-270v-920l133 -33v-20h-348v20l133 33v920h-492v-920l133 -33v-20zM264 1305v-281h492v287q0 70 -47 141.5t-125 118.5
t-160 47q-160 0 -160 -313z" />
    <glyph glyph-name="st" unicode="st" horiz-adv-x="1466" 
d="M424 -23q-208 0 -346 166l98 275h31q-29 -85 -29 -156q0 -101 60 -164t186 -63q134 0 218.5 66.5t84.5 162.5q0 32 -10 58.5t-35 48.5t-49 38t-73 35t-84 31t-103 33q-122 38 -186 106t-64 174q0 95 48 159.5t126 90.5q-7 228 136.5 382.5t352.5 154.5q67 0 124 -18
t104 -56.5t73.5 -106.5t26.5 -159v-211h270v-51h-270v-686q0 -137 32.5 -196.5t104.5 -59.5q119 0 179 166h30q-31 -111 -94 -165.5t-149 -54.5q-93 0 -139 70t-46 229v697h-155v20q110 13 156 68.5t46 161.5q0 81 -24 141t-67 93.5t-95 49t-115 15.5q-134 0 -238 -65
t-157 -173.5t-47 -239.5q53 11 90 11q188 0 309 -146q-35 -132 -76.5 -188.5t-101.5 -56.5q-84 0 -155.5 92t-98.5 223q-56 -21 -95.5 -64.5t-39.5 -113.5q0 -71 55 -114.5t197 -86.5q15 -5 51.5 -15.5t52.5 -15t47.5 -16t46.5 -19t40 -22t37.5 -28t28.5 -33.5t23.5 -42
t13 -50.5t5.5 -61.5q0 -154 -96 -237t-246 -83zM561 692q34 0 60 27t26 80q0 84 -66.5 140t-162.5 56q-40 0 -76 -10q18 -115 87 -204t132 -89z" />
    <glyph glyph-name=".notdef" horiz-adv-x="1130" 
d="M1090 0h-1049v20l154 54v1401l-154 61v20h1049v-20l-154 -61v-1401l154 -54v-20zM287 1495v-1386l553 1386h-553zM844 1389l-533 -1328h533v1328z" />
    <glyph glyph-name=".null" horiz-adv-x="0" 
 />
    <glyph glyph-name="nonmarkingreturn" horiz-adv-x="682" 
 />
    <glyph glyph-name="space" unicode=" " horiz-adv-x="442" 
 />
    <glyph glyph-name="exclam" unicode="!" horiz-adv-x="466" 
d="M248 303h-29q-7 133 -26 634.5t-19 555.5q0 85 15 115t44 30t44.5 -30.5t15.5 -114.5q0 -54 -19 -555.5t-26 -634.5zM233 -23q-42 0 -69 27.5t-27 67.5q0 42 27 70t69 28t69.5 -28t27.5 -70q0 -40 -27.5 -67.5t-69.5 -27.5z" />
    <glyph glyph-name="quotedbl" unicode="&#x22;" horiz-adv-x="460" 
d="M152 1055h-17q-41 326 -41 420q0 55 11.5 75.5t37.5 20.5t36.5 -20.5t10.5 -75.5q0 -93 -38 -420zM326 1055h-17q-41 326 -41 420q0 55 11.5 75.5t37.5 20.5t37 -20.5t11 -75.5q0 -85 -39 -420z" />
    <glyph glyph-name="numbersign" unicode="#" horiz-adv-x="1140" 
d="M1083 1079v-65h-217l-131 -508h205v-66h-223l-113 -440h-61l112 440h-327l-113 -440h-61l112 440h-213v66h232l131 508h-219v65h235l123 477h61l-122 -477h327l123 477h62l-123 -477h200zM346 506h328l131 508h-328z" />
    <glyph glyph-name="dollar" unicode="$" horiz-adv-x="1011" 
d="M909 543q0 -164 -106.5 -267t-265.5 -114v-223h-48v221q-138 3 -245.5 66.5t-147.5 131.5l72 299h35q-54 -207 18 -319.5t268 -116.5v537q-140 37 -190 67q-137 76 -137 248q0 146 91 229t236 89v186h48v-186q172 -9 323 -144l-94 -227h-35q46 101 33.5 167.5t-69.5 99.5
t-158 36v-457q93 -28 157 -51q73 -27 117 -58.5t71 -84.5t27 -129zM449 891q7 -2 20.5 -5t19.5 -5v442q-73 -4 -133 -27t-101.5 -74t-41.5 -122t52 -122t184 -87zM537 748v-527q133 9 222 84.5t89 194.5q0 94 -61.5 148t-184.5 83q-10 2 -20.5 4.5t-23.5 6.5t-21 6z" />
    <glyph glyph-name="percent" unicode="%" horiz-adv-x="1796" 
d="M352 815q-73 0 -131 34.5t-93 91.5t-53 127t-18 146q0 82 21.5 159t60 138t99.5 97.5t135 36.5t134 -37t96.5 -98t55.5 -132.5t19 -146.5q0 -107 -37.5 -200.5t-113.5 -154.5t-175 -61zM377 850q92 0 159.5 92t67.5 256q0 170 -74.5 292t-177.5 122q-91 0 -160 -100.5
t-69 -266.5q0 -164 74.5 -279.5t179.5 -115.5zM375 0h-62l1082 1556h65zM1413 -12q-73 0 -131 34.5t-93 91.5t-53 127t-18 146q0 111 35.5 207.5t109.5 159.5t171 63q74 0 134 -37t96.5 -98t55.5 -132.5t19 -146.5q0 -107 -37.5 -200t-113.5 -154t-175 -61zM1438 23
q92 0 159.5 92t67.5 256q0 170 -74.5 291.5t-177.5 121.5q-91 0 -160 -100t-69 -266q0 -164 74.5 -279.5t179.5 -115.5z" />
    <glyph glyph-name="ampersand" unicode="&#x26;" horiz-adv-x="1257" 
d="M1298 -53h-30q-166 107 -330 233q-90 -95 -210.5 -150t-240.5 -55q-173 0 -292 109t-119 283q0 71 21.5 133t63.5 114.5t92 95.5t120 89q-90 175 -90 342q0 191 103.5 311.5t256.5 120.5q126 0 212.5 -81.5t86.5 -201.5q0 -63 -24.5 -119.5t-59 -96t-92.5 -81t-104 -67
t-115 -62.5t-105 -59q139 -252 482 -555q72 84 104 183t11.5 226t-105.5 254h31q71 -94 103 -192.5t25.5 -188t-38.5 -169.5t-88 -150q140 -121 331 -266zM428 834q17 10 60.5 35.5t63.5 37.5t59.5 36.5t60 40t53 40.5t50 44t39 46t32.5 51t18.5 52.5t7.5 58.5
q0 109 -70.5 173t-168.5 64q-87 0 -154 -57t-100 -143.5t-33 -182.5q0 -135 82 -296zM504 41q99 0 203.5 46.5t185.5 127.5q-357 289 -506 555q-237 -167 -237 -389q0 -154 105 -247t249 -93z" />
    <glyph glyph-name="quotesingle" unicode="'" horiz-adv-x="286" 
d="M152 1055h-17q-41 326 -41 420q0 55 11.5 75.5t37.5 20.5t36.5 -20.5t10.5 -75.5q0 -93 -38 -420z" />
    <glyph glyph-name="parenleft" unicode="(" horiz-adv-x="493" 
d="M438 -123h-35q-30 33 -65 83.5t-81 138t-82 184t-61.5 228t-25.5 263.5q0 142 37 296t90.5 273t102.5 203.5t85 124.5h35q-85 -98 -164 -356.5t-79 -540.5q0 -167 23.5 -320.5t61.5 -264.5t78 -188.5t80 -123.5z" />
    <glyph glyph-name="parenright" unicode=")" horiz-adv-x="493" 
d="M90 -123h-35q40 46 80 123.5t78 188.5t62 264.5t24 320.5q0 282 -79 540t-165 357h35q36 -40 85 -124.5t103 -203.5t91 -273t37 -296q0 -132 -25.5 -263.5t-61.5 -228t-82.5 -184.5t-81.5 -137.5t-65 -83.5z" />
    <glyph glyph-name="asterisk" unicode="*" horiz-adv-x="602" 
d="M301 1141q-30 0 -30 53t16 133q2 11 3 17t2.5 16t2.5 18q-96 -94 -111 -106q-65 -54 -88 -25q-15 25 10.5 44.5t127.5 69.5q36 18 57 28l-28 14q-122 61 -152 82.5t-15 46.5q7 9 16.5 11t23 -4.5t25.5 -14.5t31 -25t32 -29.5t35.5 -34.5t35.5 -34q-26 156 -24 192
q4 44 30 45q37 0 28 -91q-2 -17 -22 -146q12 12 29.5 29t29 28t26.5 25.5t25 23t22.5 17.5t21 13t17.5 6t16 -1t12 -10q16 -25 -13.5 -46.5t-143.5 -77.5q-8 -4 -12.5 -6.5t-12 -6t-13.5 -6.5q21 -10 56 -28q105 -52 130 -71t9 -43q-7 -9 -17 -11.5t-23.5 4t-26 14.5
t-30.5 25t-31.5 30t-35 34.5t-35.5 34.5q26 -156 24 -193q-3 -44 -30 -44z" />
    <glyph glyph-name="plus" unicode="+" horiz-adv-x="894" 
d="M481 604h328v-65h-328v-328h-65v328h-330v65h330v330h65v-330z" />
    <glyph glyph-name="comma" unicode="," horiz-adv-x="337" 
d="M72 -295h-21q94 122 94 213q0 41 -18 74.5t-55 77.5q0 43 27.5 71.5t66.5 28.5q44 0 71 -28t27 -74q0 -69 -51 -167t-141 -196z" />
    <glyph glyph-name="hyphen" unicode="-" horiz-adv-x="657" 
d="M588 537h-518v77h518v-77z" />
    <glyph glyph-name="period" unicode="." horiz-adv-x="360" 
d="M180 -23q-42 0 -69 27.5t-27 67.5q0 42 27 70t69 28t69 -28t27 -70q0 -40 -27 -67.5t-69 -27.5z" />
    <glyph glyph-name="slash" unicode="/" horiz-adv-x="1034" 
d="M96 -244h-61l899 1882h65z" />
    <glyph glyph-name="zero" unicode="0" horiz-adv-x="1271" 
d="M610 -23q-101 0 -186 43.5t-143.5 117t-99.5 172.5t-60 208.5t-19 226.5q0 160 37 308t104.5 264t172 186t229.5 70q102 0 189 -47.5t147.5 -126.5t103.5 -182.5t63.5 -215.5t20.5 -225q0 -154 -39 -297t-109 -255t-177.5 -179.5t-233.5 -67.5zM653 43q78 0 150 43.5
t130.5 125t94 212.5t35.5 291q0 165 -37 312.5t-99 252.5t-145.5 166t-173.5 61q-77 0 -150.5 -48.5t-132 -136t-94.5 -222.5t-36 -295q0 -130 24 -249t66.5 -211.5t99.5 -161t126 -104.5t142 -36z" />
    <glyph glyph-name="one" unicode="1" horiz-adv-x="684" 
d="M596 0h-399v20l153 33v1311l-323 -330h-7v10l357 512h219v-20l-154 -61v-1422l154 -33v-20z" />
    <glyph glyph-name="two" unicode="2" horiz-adv-x="1134" 
d="M997 0h-931v20q37 7 106 49t155.5 110.5t175.5 167.5t163 210t121 249.5t47 274.5q0 195 -90 310.5t-230 115.5q-101 0 -178.5 -64t-115.5 -162.5t-38 -211.5q0 -54 8.5 -139t20.5 -139h-31l-94 413q25 73 60 133t88 116t130.5 88t172.5 32q55 0 106 -10t107.5 -40.5
t98 -78.5t68.5 -131.5t27 -192.5q0 -167 -50 -311.5t-159 -290.5q-145 -193 -454 -457h634l134 256h20z" />
    <glyph glyph-name="three" unicode="3" horiz-adv-x="1144" 
d="M520 -23q-97 0 -189.5 27.5t-164.5 85t-94 133.5l80 324h30q-28 -124 -28 -217q0 -68 26 -122t65.5 -86t92 -53t101 -28.5t96.5 -7.5q193 0 300 122t107 312q0 155 -75.5 245.5t-225.5 90.5q-45 0 -88 -14t-154 -62v31q227 112 334 225t107 248q0 118 -82.5 197
t-227.5 79q-84 0 -152.5 -26.5t-114.5 -88t-46 -149.5q0 -93 47 -276h-31l-120 323q21 38 41 68.5t60 73.5t84 71.5t110.5 49t142.5 20.5q73 0 141.5 -18.5t127.5 -55t94.5 -100t35.5 -144.5q0 -134 -93.5 -243t-254.5 -183q51 12 104.5 7t103.5 -18.5t94.5 -45t77.5 -72
t52 -99.5t19 -128q0 -139 -72 -253t-194 -178.5t-267 -64.5z" />
    <glyph glyph-name="four" unicode="4" horiz-adv-x="1077" 
d="M969 0h-400v20l154 33v336h-703v41l687 1126h262v-20l-154 -49v-1030l195 -47v-21h-195v-336l154 -33v-20zM723 1466l-617 -1015h617v1015z" />
    <glyph glyph-name="five" unicode="5" horiz-adv-x="1308" 
d="M633 -18q-97 0 -180.5 29t-145.5 76.5t-116 118t-91 143t-71 161.5h30q29 -63 50.5 -106t53 -95.5t60 -86.5t68.5 -69.5t83 -55.5t98 -33t118 -13q228 0 372 141t144 365q0 192 -107 314t-280 122q-67 0 -127.5 -20t-116 -61.5t-99.5 -113.5t-69 -169h-106l145 841
l-145 66v20h835l72 -327h-21l-133 266h-499l-123 -672q-3 -16 4 -16q5 0 12 12q58 109 170.5 172.5t239.5 63.5q93 0 178.5 -36t150 -99.5t102.5 -158t38 -204.5q0 -123 -47.5 -230.5t-128 -182.5t-189.5 -118.5t-229 -43.5z" />
    <glyph glyph-name="six" unicode="6" horiz-adv-x="1265" 
d="M639 -23q-244 0 -389.5 203t-145.5 549q0 191 47 350.5t128.5 267t192.5 167t237 59.5q72 0 137 -18.5t109 -47t69 -50.5t39 -40v-332h-41q0 200 -96 306t-264 106q-99 0 -177 -37t-130 -101.5t-86 -155t-49 -192.5t-15 -220q0 -77 6 -160q39 199 169 311.5t302 112.5
q99 0 188.5 -39t156 -106.5t105.5 -163t39 -203.5t-39 -209.5t-107 -181t-169 -127.5t-217 -48zM668 53q171 0 281 132.5t110 342.5t-111 337.5t-289 127.5q-79 0 -148.5 -27.5t-118.5 -74t-84.5 -107t-52.5 -126.5t-17 -132q0 -119 54.5 -227.5t154.5 -177t221 -68.5z" />
    <glyph glyph-name="seven" unicode="7" horiz-adv-x="962" 
d="M326 0h-84l245 756h-266v61h287l240 678h-553l-134 -266h-20l72 327h845v-20l-133 -61l-233 -656l186 -43v-20h-207z" />
    <glyph glyph-name="eight" unicode="8" horiz-adv-x="1165" 
d="M567 -23q-199 0 -334 117t-135 301q0 148 93.5 278.5t230.5 162.5q-125 28 -196.5 126t-71.5 214q0 171 121.5 284t306.5 113q180 0 296.5 -109t116.5 -276q0 -112 -71 -206t-201 -144q105 -14 186 -78.5t121.5 -152.5t40.5 -183q0 -130 -70 -233.5t-184.5 -158.5
t-249.5 -55zM582 866q141 0 224 83.5t83 211.5q0 147 -97 246.5t-243 99.5q-133 0 -218 -86.5t-85 -226.5q0 -143 93 -235.5t243 -92.5zM600 43q73 0 138.5 23.5t116.5 67.5t80.5 114.5t29.5 157.5q0 176 -107.5 283.5t-290.5 107.5q-179 0 -278 -102.5t-99 -260.5
q0 -170 119.5 -280.5t290.5 -110.5z" />
    <glyph glyph-name="nine" unicode="9" horiz-adv-x="1253" 
d="M545 -23q-130 0 -249.5 58.5t-139.5 99.5v332h41q0 -202 103 -317t271 -115q105 0 187.5 48.5t135 130t87 197t49.5 238.5t17 266q-35 -177 -160.5 -297t-302.5 -120q-134 0 -244.5 70t-174 191.5t-63.5 266.5q0 108 37 207t102 174.5t163 120.5t212 45t210 -45
t168.5 -132t113.5 -225.5t41 -314.5q0 -249 -78 -450t-216 -315t-310 -114zM600 559q128 0 222 68.5t139 176t45 236.5q0 107 -33 194.5t-89.5 144.5t-131 87.5t-158.5 30.5q-176 0 -284.5 -125t-108.5 -338q0 -209 107 -342t292 -133z" />
    <glyph glyph-name="colon" unicode=":" horiz-adv-x="442" 
d="M221 758q-42 0 -69 27t-27 67q0 42 27 70t69 28t69 -28t27 -70q0 -40 -27 -67t-69 -27zM221 -23q-42 0 -69 27.5t-27 67.5q0 42 27 70t69 28t69 -28t27 -70q0 -40 -27 -67.5t-69 -27.5z" />
    <glyph glyph-name="semicolon" unicode=";" horiz-adv-x="475" 
d="M242 758q-42 0 -69.5 27t-27.5 67q0 42 27.5 70t69.5 28t69 -28t27 -70q0 -40 -27 -67t-69 -27zM145 -295h-20q94 122 94 213q0 40 -18 73.5t-56 78.5q0 43 28 71.5t67 28.5q44 0 71 -28t27 -74q0 -69 -51.5 -167t-141.5 -196z" />
    <glyph glyph-name="less" unicode="&#x3c;" horiz-adv-x="991" 
d="M889 158v-72l-823 479v21l823 477v-72l-723 -416z" />
    <glyph glyph-name="equal" unicode="=" horiz-adv-x="989" 
d="M856 727h-723v66h723v-66zM856 358h-723v66h723v-66z" />
    <glyph glyph-name="greater" unicode="&#x3e;" horiz-adv-x="991" 
d="M926 565l-824 -479v72l723 417l-723 416v72l824 -477v-21z" />
    <glyph glyph-name="question" unicode="?" horiz-adv-x="880" 
d="M393 307h-20q-13 107 -13 166q0 111 31 179.5t129 205.5q43 61 67.5 99.5t54.5 97t44 118t14 123.5q0 80 -23 141t-63 96.5t-87.5 53t-100.5 17.5q-82 0 -140 -35t-88 -94t-41.5 -139t-4.5 -166.5t28 -180.5h-30l-95 414q39 112 143 189t246 77q48 0 94 -9t97 -35
t89 -66.5t62.5 -110t24.5 -158.5q0 -97 -30 -180t-99 -178q-33 -46 -76.5 -97t-70.5 -81.5t-57 -76.5t-46.5 -92t-27.5 -116.5t-11 -161.5zM389 -23q-42 0 -69 27.5t-27 67.5q0 42 27 70t69 28t69 -28t27 -70q0 -40 -27 -67.5t-69 -27.5z" />
    <glyph glyph-name="at" unicode="@" horiz-adv-x="1615" 
d="M772 -158q-138 0 -261.5 49.5t-218 139.5t-150.5 228t-56 304q0 220 94.5 393.5t264.5 271t386 97.5q316 0 502.5 -202t186.5 -541q0 -226 -81.5 -368t-219.5 -142q-87 0 -133 54t-60 138q-141 -184 -315 -184q-139 0 -227.5 111.5t-88.5 297.5q0 255 173 400t474 145h56
v-698q0 -93 34 -148t95 -55q95 0 160 124.5t65 317.5q0 200 -75 355.5t-218 243.5t-332 88q-193 0 -346.5 -90.5t-239 -252t-85.5 -364.5q0 -158 54 -287.5t145 -212t208.5 -127.5t247.5 -45q162 0 317 76v-31q-171 -86 -356 -86zM748 143q158 0 276 146v715
q-250 0 -401.5 -138.5t-151.5 -369.5q0 -164 76.5 -258.5t200.5 -94.5z" />
    <glyph glyph-name="A" unicode="A" horiz-adv-x="1536" 
d="M356 0h-399v20l152 54l616 1499h61l654 -1499l145 -54v-20h-399v20l141 54l-268 628h-627l-252 -628l176 -54v-20zM735 1458l-278 -694h575z" />
    <glyph glyph-name="B" unicode="B" horiz-adv-x="1314" 
d="M696 0h-616v20l153 52v1403l-153 61v20h561q245 0 384.5 -106t139.5 -283q0 -137 -85 -238t-228 -143q180 -31 284.5 -135t104.5 -252q0 -178 -150 -288.5t-395 -110.5zM326 1495v-684h323q414 0 414 360q0 162 -105 243t-325 81h-307zM326 750v-689h360q203 0 325 94
t122 257q0 157 -115 247.5t-307 90.5h-385z" />
    <glyph glyph-name="C" unicode="C" horiz-adv-x="1554" 
d="M813 -23q-115 0 -222.5 33.5t-199 100t-160 159t-107 219t-38.5 271.5q0 174 61 325.5t166 258t252 168t314 61.5q103 0 196.5 -23t152 -55.5t92.5 -58t42 -39.5v-455h-31q0 121 -26 216.5t-70 158t-105.5 104t-129.5 59t-146 17.5q-47 0 -98.5 -6t-119.5 -24.5
t-129.5 -48.5t-123 -82.5t-106 -120.5t-72 -169t-27.5 -223q2 -120 26.5 -224t64 -181.5t93.5 -140t114.5 -103.5t128.5 -69t133.5 -40t131.5 -12q229 0 397.5 145.5t254.5 417.5h30q-80 -286 -273.5 -462.5t-465.5 -176.5z" />
    <glyph glyph-name="D" unicode="D" horiz-adv-x="1583" 
d="M768 0h-688v20l153 54v1401l-153 61v20h686q222 0 387.5 -99.5t252.5 -278t87 -414.5q0 -355 -194 -559.5t-531 -204.5zM326 1495v-1434h383q315 0 495 185t180 508q0 160 -47 296.5t-132.5 235t-213 154t-282.5 55.5h-383z" />
    <glyph glyph-name="E" unicode="E" horiz-adv-x="1099" 
d="M971 0h-891v20l153 54v1401l-153 61v20h870l72 -317h-21l-133 256h-542v-627h379l51 174h20v-409h-20l-51 174h-379v-746h563l133 256h20z" />
    <glyph glyph-name="F" unicode="F" horiz-adv-x="1044" 
d="M500 0h-420v20l153 54v1401l-153 61v20h870l72 -317h-21l-133 256h-542v-627h379l51 174h20v-409h-20l-51 174h-379v-733l174 -54v-20z" />
    <glyph glyph-name="G" unicode="G" horiz-adv-x="1572" 
d="M831 -23q-222 0 -391.5 101.5t-260.5 282t-91 411.5q0 178 61.5 329t168 254t253.5 160.5t316 57.5q102 0 194.5 -23t149.5 -55t90.5 -57.5t42.5 -40.5v-455h-31q0 267 -119 411t-366 144q-58 0 -116.5 -7.5t-126 -28t-126.5 -52.5t-115 -84t-96 -118t-64 -160.5
t-24 -206.5q0 -225 88 -404t250 -281t369 -102q107 0 196 25.5t146.5 66t97.5 92.5t57 103.5t17 99.5q0 36 -11 67t-27.5 54.5t-46 42.5t-56.5 32.5t-69.5 24.5t-73.5 17.5t-81 12.5t-80 8.5t-81.5 7t-75.5 6.5v30h651v-743h-43v256q-92 -133 -240 -206t-336 -73z" />
    <glyph glyph-name="H" unicode="H" horiz-adv-x="1490" 
d="M479 0h-399v20l153 54v1401l-153 61v20h399v-20l-153 -61v-625h839v625l-153 61v20h399v-20l-154 -61v-1401l154 -54v-20h-399v20l153 54v714h-839v-714l153 -54v-20z" />
    <glyph glyph-name="I" unicode="I" horiz-adv-x="559" 
d="M479 0h-399v20l153 54v1401l-153 61v20h399v-20l-153 -61v-1401l153 -54v-20z" />
    <glyph glyph-name="J" unicode="J" horiz-adv-x="860" 
d="M340 -23q-125 0 -201.5 52.5t-126.5 136.5l164 416h31q-11 -34 -29 -87t-27.5 -82.5t-17.5 -69t-8 -73.5q0 -98 58.5 -157.5t162.5 -59.5q51 0 85.5 14.5t64.5 55t44.5 121.5t14.5 205v1026l-154 61v20h400v-20l-154 -61v-1061q0 -79 -6.5 -138.5t-26 -118.5t-52.5 -96.5
t-89 -60.5t-133 -23z" />
    <glyph glyph-name="K" unicode="K" horiz-adv-x="1161" 
d="M479 0h-399v20l153 54v1401l-153 61v20h399v-20l-153 -61v-717l538 729l-147 49v20h399v-20l-194 -49l-439 -596l566 -817l143 -54v-20h-399v20l147 54l-518 733l-96 -133v-600l153 -54v-20z" />
    <glyph glyph-name="L" unicode="L" horiz-adv-x="1058" 
d="M971 0h-891v20l153 54v1401l-153 61v20h399v-20l-153 -61v-1414h563l133 256h20z" />
    <glyph glyph-name="M" unicode="M" horiz-adv-x="1755" 
d="M479 0h-399v20l153 54v1401l-153 61v20h248l573 -1441l551 1441h223v-20l-153 -61v-1401l153 -54v-20h-399v20l154 54v1241l-519 -1315h-61l-522 1286v-1212l151 -54v-20z" />
    <glyph glyph-name="N" unicode="N" horiz-adv-x="1386" 
d="M479 0h-399v20l153 54v1401l-153 61v20h248l745 -1288v1207l-153 61v20h399v-20l-154 -61v-1475h-51l-786 1370v-1296l151 -54v-20z" />
    <glyph glyph-name="O" unicode="O" horiz-adv-x="1648" 
d="M797 -23q-143 0 -273.5 60.5t-227 164.5t-153.5 253.5t-57 318.5q0 141 40 268t111.5 222.5t165 166t204.5 106.5t227 36q145 0 278 -58t232.5 -159t159 -246.5t59.5 -310.5q0 -172 -64.5 -327t-171 -262.5t-245.5 -170t-285 -62.5zM842 53q79 0 158 19.5t163 70
t147.5 126t104.5 197.5t41 275q0 147 -37 272t-101 212.5t-148.5 150t-179 92t-193.5 29.5q-55 0 -111 -9t-118 -31t-117 -55t-106 -85.5t-87.5 -118t-58 -156.5t-21.5 -198q0 -149 41.5 -279.5t109.5 -222.5t155 -158.5t178.5 -98.5t179.5 -32z" />
    <glyph glyph-name="P" unicode="P" horiz-adv-x="1204" 
d="M479 0h-399v20l153 54v1401l-153 61v20h592q77 0 148 -14.5t134.5 -45t110 -75.5t73.5 -110t27 -144q0 -97 -41.5 -177.5t-111 -132t-157 -79.5t-183.5 -28h-346v-676l153 -54v-20zM326 1495v-684h336q188 0 294.5 94t106.5 264q0 167 -104.5 246.5t-296.5 79.5h-336z
" />
    <glyph glyph-name="Q" unicode="Q" horiz-adv-x="1648" 
d="M1206 -244q-68 0 -131 23.5t-111.5 57.5t-94 68t-97 57.5t-102.5 23.5q-89 0 -173 -60.5t-126 -138.5h-31q33 75 93.5 136.5t135.5 94.5q-214 78 -348.5 282t-134.5 474q0 141 40 268t111.5 222.5t165 166t204.5 106.5t227 36q145 0 278 -58t232.5 -159t159 -246.5
t59.5 -310.5q0 -158 -54.5 -301.5t-146 -248t-212.5 -174t-253 -89.5q17 -11 56.5 -39t64 -42.5t63 -33t80.5 -27t90 -8.5q190 0 291 137h31q-59 -97 -156.5 -157t-210.5 -60zM842 53q79 0 158 19.5t163 70t147.5 126t104.5 197.5t41 275q0 147 -37 272t-101 212.5
t-148.5 150t-179 92t-193.5 29.5q-55 0 -111 -9t-118 -31t-117 -55t-106 -85.5t-87.5 -118t-58 -156.5t-21.5 -198q0 -149 41.5 -279.5t109.5 -222.5t155 -158.5t178.5 -98.5t179.5 -32z" />
    <glyph glyph-name="R" unicode="R" horiz-adv-x="1241" 
d="M479 0h-399v20l153 54v1401l-153 61v20h592q77 0 148 -14.5t134.5 -45t110 -75.5t73.5 -110t27 -144q0 -191 -141.5 -307.5t-388.5 -116.5l409 -669l183 -54v-20h-441v20l150 54l-408 669h-202v-669l153 -54v-20zM326 1495v-690h336q187 0 294 96.5t107 267.5
q0 167 -104.5 246.5t-296.5 79.5h-336z" />
    <glyph glyph-name="S" unicode="S" horiz-adv-x="1161" 
d="M563 -23q-91 0 -174.5 22.5t-143.5 59t-103 76.5t-68 82l102 399h41q-37 -152 -37 -231q0 -85 29 -150.5t72 -102.5t100.5 -60.5t107 -31t99.5 -7.5q82 0 158 22.5t138.5 66.5t100 117.5t37.5 166.5q0 35 -5 66t-17 57t-24 47.5t-34.5 41t-39.5 34t-48.5 29.5t-51.5 24.5
t-58 22.5t-59 20t-64 20l-113 35q-32 10 -56 18t-62.5 25.5t-66.5 36t-60.5 48.5t-53 63.5t-34 80.5t-13.5 101q0 56 13 109t45 106.5t79.5 93t123 64t169.5 24.5q241 0 424 -166l-133 -303h-41q53 112 53 199q0 57 -30 99.5t-78.5 64.5t-98 32t-100.5 10q-69 0 -134 -18
t-120 -52t-88 -90.5t-33 -127.5q0 -58 23.5 -106t56 -79t82 -57.5t87.5 -39.5t85 -26l88 -24q35 -10 52 -15t55 -17.5t60.5 -23t58 -27.5t58 -35.5t51 -43.5t46 -54t34 -63.5t24 -76.5t7.5 -89q0 -207 -144.5 -337t-373.5 -130z" />
    <glyph glyph-name="T" unicode="T" horiz-adv-x="1353" 
d="M877 0h-400v20l154 54v1421h-461l-133 -256h-21l72 317h1178l71 -317h-20l-133 256h-461v-1421l154 -54v-20z" />
    <glyph glyph-name="U" unicode="U" horiz-adv-x="1433" 
d="M719 -23q-144 0 -246 44.5t-159.5 128.5t-83 191t-25.5 247v887l-154 61v20h400v-20l-154 -61v-887q0 -145 31 -249t90 -164t136.5 -87t178.5 -27q102 0 175 27t125.5 88t78 163t25.5 249v887l-154 61v20h399v-20l-153 -61v-887q0 -145 -26.5 -253.5t-84.5 -191
t-158 -124.5t-241 -42z" />
    <glyph glyph-name="V" unicode="V" horiz-adv-x="1460" 
d="M705 0l-605 1487l-147 49v20h399v-20l-139 -49l543 -1372l526 1372l-178 49v20h399v-20l-151 -49l-586 -1487h-61z" />
    <glyph glyph-name="W" unicode="W" horiz-adv-x="2187" 
d="M639 0h-61l-474 1475l-155 61v20h399v-20l-133 -61l412 -1311l440 1392h68l475 -1392l401 1311l-176 61v20h399v-20l-159 -61l-455 -1475h-61l-476 1403z" />
    <glyph glyph-name="X" unicode="X" horiz-adv-x="1249" 
d="M401 0h-399v20l141 54l437 704l-443 697l-143 61v20h399v-20l-145 -61l391 -619l373 619l-193 61v20h400v-20l-148 -61l-399 -668l465 -733l137 -54v-20h-400v20l152 54l-416 655l-407 -655l198 -54v-20z" />
    <glyph glyph-name="Y" unicode="Y" horiz-adv-x="1265" 
d="M840 0h-400v20l154 54v501l-500 912l-135 49v20h399v-20l-149 -49l459 -825l432 825l-195 49v20h400v-20l-144 -49l-475 -899v-514l154 -54v-20z" />
    <glyph glyph-name="Z" unicode="Z" 
d="M936 0h-881l-10 20l803 1475h-629l-133 -266h-20l71 327h819l11 -20l-795 -1475h682l133 256h21z" />
    <glyph glyph-name="bracketleft" unicode="[" horiz-adv-x="552" 
d="M541 -123h-351v1794h351v-20l-258 -92v-1569l258 -92v-21z" />
    <glyph glyph-name="backslash" unicode="\" horiz-adv-x="1034" 
d="M100 1638l899 -1882h-61l-903 1882h65z" />
    <glyph glyph-name="bracketright" unicode="]" horiz-adv-x="552" 
d="M362 -123h-350v21l258 92v1569l-258 92v20h350v-1794z" />
    <glyph glyph-name="asciicircum" unicode="^" horiz-adv-x="710" 
d="M98 891h-26q79 229 125.5 342.5t82 164t72.5 50.5q38 0 76 -47t89.5 -171.5t117.5 -338.5h-27q-43 80 -128 240.5t-128 240.5z" />
    <glyph glyph-name="underscore" unicode="_" horiz-adv-x="931" 
d="M909 -205h-886v78h886v-78z" />
    <glyph glyph-name="grave" unicode="`" horiz-adv-x="452" 
d="M451 1126h-27q-287 278 -287 355q0 30 33 30q25 0 60 -31t93.5 -121t127.5 -233z" />
    <glyph glyph-name="a" unicode="a" horiz-adv-x="960" 
d="M795 752v-670h131v-21l-195 -61h-20v252q-8 -26 -23.5 -57.5t-45.5 -71.5t-67 -72t-92 -54t-116 -22q-117 0 -191 75t-74 196q0 63 23.5 116.5t58.5 91t90 68.5t103.5 50t113.5 35.5t106 24t95 16.5q6 1 10.5 1.5t8.5 1.5v64q0 152 -69 222.5t-171 70.5
q-113 0 -187.5 -75t-74.5 -190q0 -59 20 -118h-30l-82 262q125 168 370 168q159 0 233.5 -73.5t74.5 -229.5zM389 37q55 0 107.5 23.5t93 62t71 81t50.5 87.5v332q-3 -1 -42 -9t-57.5 -12t-63 -16t-70.5 -22t-68 -28t-68 -36t-57 -44.5t-48.5 -55t-29.5 -66t-12 -78.5
q0 -91 50.5 -155t143.5 -64z" />
    <glyph glyph-name="b" unicode="b" horiz-adv-x="978" 
d="M512 -23q-174 0 -291 168l-45 -145h-31v1556h-131v21l195 61h20v-583q153 0 274 -39t194.5 -99t122 -140t67 -156t18.5 -152q0 -87 -26 -173t-73.5 -158t-124 -116.5t-169.5 -44.5zM498 41q136 0 229.5 113t93.5 292q0 82 -20.5 161.5t-67 155.5t-114 133.5t-168.5 92.5
t-222 35v-840q49 -60 120 -101.5t149 -41.5z" />
    <glyph glyph-name="c" unicode="c" horiz-adv-x="987" 
d="M522 -23q-138 0 -241.5 75t-154 194t-50.5 262q0 106 31.5 203.5t89 174.5t147 123t197.5 46q124 0 214 -52t132 -108l-121 -350h-31q39 107 39 198q0 117 -64.5 182.5t-185.5 65.5q-74 0 -140 -25.5t-119 -75.5t-84 -133.5t-31 -191.5q0 -223 119 -373.5t278 -150.5
q143 0 232.5 75.5t160.5 243.5h31q-25 -80 -63.5 -147t-92.5 -121t-129.5 -84.5t-163.5 -30.5z" />
    <glyph glyph-name="d" unicode="d" horiz-adv-x="976" 
d="M831 0h-81q-153 0 -274 35.5t-194.5 91.5t-122 131t-67 148t-18.5 149q0 87 26 174t73.5 160.5t124 119.5t169.5 46q168 0 283 -162v663h-134v21l195 61h20v-1638zM750 31v796q-49 68 -118.5 116t-150.5 48q-136 0 -229.5 -116.5t-93.5 -296.5q0 -102 34.5 -194t103 -169
t185.5 -126.5t269 -57.5z" />
    <glyph glyph-name="e" unicode="e" horiz-adv-x="997" 
d="M528 -23q-109 0 -197.5 47t-142.5 124.5t-83 170.5t-29 191q0 145 59.5 270t164.5 200t230 75q164 0 267.5 -123.5t103.5 -323.5v-30h-756v-13q0 -144 54 -264t150 -190t214 -70q245 0 377 319h31q-53 -173 -164.5 -278t-278.5 -105zM156 639h657q0 160 -77.5 256
t-213.5 96q-143 0 -243.5 -100t-122.5 -252z" />
    <glyph glyph-name="f" unicode="f" horiz-adv-x="544" 
d="M397 0h-348v20l133 33v920h-125v51h125v240q0 200 56 303.5t184 103.5q162 0 278 -158l-120 -315h-31q40 105 50 187t-8.5 132t-56 75.5t-92.5 25.5q-100 0 -139 -83.5t-39 -260.5v-250h271v-51h-271v-920l133 -33v-20z" />
    <glyph glyph-name="g" unicode="g" horiz-adv-x="1005" 
d="M356 -424l-223 250l27 18q61 -55 95 -84t81.5 -62.5t87.5 -48t80 -14.5q134 0 194 81.5t60 260.5v23q-109 -25 -189 -25q-109 0 -195.5 36t-140 93.5t-88.5 134t-49 152t-14 154.5t14.5 153t45.5 139t75.5 113.5t108 76.5t139.5 28q99 0 165.5 -44t127.5 -122v135h20
l195 -61v-21h-131v-825q0 -93 -4.5 -162t-17 -126t-29 -95.5t-47 -68t-63.5 -46t-85 -26.5t-107 -13.5t-133 -3.5zM621 14q54 0 137 17v798q-119 162 -273 162q-136 0 -227.5 -115.5t-91.5 -314.5q0 -82 16.5 -159.5t52.5 -148t88.5 -123.5t129 -84.5t168.5 -31.5z" />
    <glyph glyph-name="h" unicode="h" horiz-adv-x="1038" 
d="M387 0h-348v20l133 33v1503h-133v21l194 61h21v-858q10 30 26 61t47.5 71t69.5 70.5t95.5 51.5t123.5 21q250 0 250 -307v-695l133 -33v-20h-348v20l133 33v633q0 164 -54.5 234.5t-168.5 70.5q-101 0 -192 -96.5t-115 -212.5v-629l133 -33v-20z" />
    <glyph glyph-name="i" unicode="i" horiz-adv-x="436" 
d="M209 1313q-37 0 -60.5 24.5t-23.5 61.5t23.5 61.5t60.5 24.5t60.5 -24.5t23.5 -61.5t-23.5 -61.5t-60.5 -24.5zM397 0h-348v20l133 33v889h-133v21l195 61h20v-971l133 -33v-20z" />
    <glyph glyph-name="j" unicode="j" horiz-adv-x="399" 
d="M201 1313q-37 0 -60.5 24.5t-23.5 61.5t23.5 61.5t60.5 24.5t60.5 -24.5t23.5 -61.5t-23.5 -61.5t-60.5 -24.5zM18 -424l-172 201l27 18q148 -157 215 -157q84 0 84 204v1100h-133v21l194 61h21v-1167q0 -165 -45 -222q-47 -59 -191 -59z" />
    <glyph glyph-name="k" unicode="k" horiz-adv-x="964" 
d="M387 0h-348v20l133 33v1503h-133v21l194 61h21v-1255l459 580l-187 41v20h400v-20l-162 -46l-275 -354l373 -551l121 -33v-20h-399v20l168 33l-322 475l-176 -225v-250l133 -33v-20z" />
    <glyph glyph-name="l" unicode="l" horiz-adv-x="425" 
d="M387 0h-348v20l133 33v1503h-133v21l194 61h21v-1585l133 -33v-20z" />
    <glyph glyph-name="m" unicode="m" horiz-adv-x="1579" 
d="M397 0h-348v20l133 33v893l-133 -4v21l195 61h20v-244q9 26 25 58t46.5 71.5t67.5 71t90.5 53t112.5 21.5q202 0 228 -246q12 31 30 61.5t47.5 64.5t64 60t84 43t103.5 17q112 0 178 -74t66 -233v-695l133 -33v-20h-346v20l131 33v633q0 159 -54.5 232t-144.5 73
q-97 0 -172.5 -73.5t-117.5 -184.5v-680l133 -33v-20h-348v20l133 33v633q0 159 -50.5 232t-134.5 73q-103 0 -190 -93.5t-115 -215.5v-629l133 -33v-20z" />
    <glyph glyph-name="n" unicode="n" 
d="M397 0h-348v20l133 33v889h-133v21l195 61h20v-246q10 30 26.5 61.5t48 72t70 71t96 51.5t122.5 21q250 0 250 -307v-695l133 -33v-20h-348v20l131 33v633q0 158 -62 231.5t-160 73.5q-80 0 -147 -48t-105 -116t-55 -145v-629l133 -33v-20z" />
    <glyph glyph-name="o" unicode="o" horiz-adv-x="1069" 
d="M539 -23q-89 0 -166.5 33t-131 87t-92 124t-57 144t-18.5 147q0 72 18 146t56.5 145.5t92.5 127.5t133.5 90t172.5 34t170.5 -34t127.5 -88.5t85 -125t50 -141.5t15 -140q0 -72 -16.5 -146t-52.5 -147t-88 -129.5t-129.5 -91.5t-169.5 -35zM565 41q149 0 247.5 131.5
t98.5 325.5q0 128 -43.5 238.5t-133 182.5t-208.5 72q-165 0 -272 -128.5t-107 -315.5q0 -129 51 -244t148.5 -188.5t218.5 -73.5z" />
    <glyph glyph-name="p" unicode="p" horiz-adv-x="1005" 
d="M387 -410h-348v21l133 33v1298h-133v27q21 7 65.5 21t59 18.5t47 14t46 12.5t39.5 8.5t43.5 7t41 3t49.5 1.5q95 0 173.5 -25.5t131.5 -70.5t92 -100.5t61 -121t32 -127t10 -123.5q0 -100 -25.5 -191t-73.5 -162.5t-124 -114t-170 -42.5q-54 0 -98 13t-78.5 39
t-56.5 49.5t-50 60.5v-495l133 -33v-21zM522 41q136 0 230 130t94 331q0 103 -27.5 192.5t-81 160.5t-141.5 112t-201 41q-60 0 -141 -19v-807q50 -59 120.5 -100t147.5 -41z" />
    <glyph glyph-name="q" unicode="q" horiz-adv-x="1003" 
d="M971 -410h-348v21l133 33v354q-99 -21 -178 -21q-113 0 -202 36.5t-143.5 93.5t-90 134t-49 150t-13.5 148q0 80 16 155t48.5 140.5t78.5 114.5t110.5 77.5t139.5 28.5q54 0 98 -13.5t78.5 -40t56.5 -50.5t50 -62v135h20l195 -61v-21h-133v-1298l133 -33v-21zM612 25
q68 0 144 18v786q-49 67 -118.5 114.5t-150.5 47.5q-136 0 -229.5 -131.5t-93.5 -335.5q0 -102 27 -190t80 -158t140.5 -110.5t200.5 -40.5z" />
    <glyph glyph-name="r" unicode="r" horiz-adv-x="741" 
d="M397 0h-348v20l133 33v889h-133v21l195 61h20v-295h2q15 58 36.5 110.5t54.5 103.5t80 81.5t102 30.5q108 0 190 -129l-119 -308h-30q47 126 47 220q0 72 -29 116.5t-80 44.5q-50 0 -96 -47t-77.5 -120.5t-52.5 -155.5t-28 -158v-465l133 -33v-20z" />
    <glyph glyph-name="s" unicode="s" horiz-adv-x="845" 
d="M424 -23q-208 0 -346 166l98 275h29q-27 -80 -27 -156q0 -101 60 -164t186 -63q134 0 218.5 66.5t84.5 162.5q0 32 -10 58.5t-35 48.5t-49 38t-73 35t-84 31t-103 33q-122 38 -186 106.5t-64 176.5q0 128 85.5 196t215.5 68q190 0 311 -146l-76 -223h-30
q44 136 -17.5 222.5t-195.5 86.5q-101 0 -174.5 -52.5t-73.5 -141.5q0 -71 56.5 -115t195.5 -86q15 -5 51.5 -15.5t52.5 -15t47.5 -16t46.5 -19t40 -22t37.5 -28t28.5 -33.5t23.5 -42t13 -50.5t5.5 -61.5q0 -154 -96 -237t-246 -83z" />
    <glyph glyph-name="t" unicode="t" horiz-adv-x="608" 
d="M358 -23q-93 0 -138.5 70t-45.5 229v697h-156v20l158 31l49 348h31v-348h270v-51h-270v-686q0 -138 33 -197t106 -59q116 0 176 166h31q-31 -111 -94.5 -165.5t-149.5 -54.5z" />
    <glyph glyph-name="u" unicode="u" horiz-adv-x="993" 
d="M406 -23q-54 0 -95 16t-74.5 53t-51 105.5t-17.5 165.5v625h-133v21l194 61h21v-680q0 -303 194 -303q104 0 178.5 73.5t116.5 182.5v645h-133v21l195 61h20v-942h133v-21l-194 -61h-21v215q-19 -41 -44.5 -78t-65.5 -75.5t-98 -61.5t-125 -23z" />
    <glyph glyph-name="v" unicode="v" horiz-adv-x="1067" 
d="M565 0h-61l-365 956l-147 48v20h399v-20l-162 -48l324 -856l295 856l-166 48v20h399v-20l-172 -48z" />
    <glyph glyph-name="w" unicode="w" horiz-adv-x="1529" 
d="M496 0h-62l-293 956l-151 48v20h399v-20l-158 -48l246 -843l264 911h72l258 -911l246 843l-166 48v20h399v-20l-176 -48l-284 -956h-62l-266 924z" />
    <glyph glyph-name="x" unicode="x" horiz-adv-x="985" 
d="M406 0h-400v20l125 33l313 463l-297 440l-131 48v20h400v-20l-158 -48l250 -368l233 368l-202 48v20h399v-20l-137 -48l-262 -415l335 -488l121 -33v-20h-399v20l168 33l-287 416l-289 -416l218 -33v-20z" />
    <glyph glyph-name="y" unicode="y" horiz-adv-x="1067" 
d="M178 -424l-172 203l27 18q39 -44 109 -92.5t120 -48.5q38 0 75 32t68 86t54.5 109t44.5 117l-365 956l-147 48v20h399v-20l-162 -48l324 -856l295 856l-166 48v20h399v-20l-172 -48l-315 -878q-30 -84 -49 -133.5t-45.5 -110t-48 -94.5t-51.5 -70t-61.5 -53.5t-72 -29
t-88.5 -11.5z" />
    <glyph glyph-name="z" unicode="z" horiz-adv-x="835" 
d="M715 0h-645l-11 20l568 943h-381l-144 -267h-20l72 328h583l11 -20l-562 -943h437l143 256h20z" />
    <glyph glyph-name="braceleft" unicode="{" horiz-adv-x="534" 
d="M520 -123h-57q-150 0 -220.5 72.5t-70.5 214.5v401q0 81 -30.5 122.5t-67.5 41.5h-6v90h6q37 0 67.5 41.5t30.5 122.5v401q0 142 70.5 214.5t220.5 72.5h57v-20h-45q-52 0 -91 -18.5t-62 -48.5t-37 -75.5t-18.5 -91.5t-4.5 -104v-289q0 -102 -29 -164t-79 -76v-20
q108 -26 108 -240v-288q0 -58 4.5 -104t18.5 -91.5t37 -75.5t62 -48.5t91 -18.5h45v-21z" />
    <glyph glyph-name="bar" unicode="|" horiz-adv-x="550" 
d="M475 -410h-399v21l153 72v1843l-153 92v20h399v-20l-153 -92v-1843l153 -72v-21z" />
    <glyph glyph-name="braceright" unicode="}" horiz-adv-x="534" 
d="M72 -123h-58v21h45q52 0 91 18.5t62 48.5t37 75.5t18.5 91.5t4.5 104v288q0 107 29 167.5t80 72.5v20q-51 14 -80 76t-29 164v289q0 58 -4.5 104t-18.5 91.5t-37 75.5t-62 48.5t-91 18.5h-45v20h58q150 0 220 -72.5t70 -214.5v-401q0 -81 31 -122.5t68 -41.5h6v-90h-6
q-37 0 -68 -41.5t-31 -122.5v-401q0 -142 -70 -214.5t-220 -72.5z" />
    <glyph glyph-name="asciitilde" unicode="~" horiz-adv-x="911" 
d="M143 502h-30q2 87 50 135.5t134 48.5q49 0 96 -18t78.5 -39.5t75.5 -39.5t88 -18q53 0 94.5 27t44.5 92h31q-5 -87 -54 -135.5t-137 -48.5q-52 0 -99.5 18t-78 39.5t-71.5 39.5t-82 18q-32 0 -60 -9t-52.5 -37t-27.5 -73z" />
    <glyph glyph-name="exclamdown" unicode="&#xa1;" horiz-adv-x="466" 
d="M233 1446q-42 0 -69 28t-27 70q0 40 27 67t69 27t69.5 -27t27.5 -67q0 -42 -27.5 -70t-69.5 -28zM233 -23q-29 0 -44 30.5t-15 115.5q0 54 19 555.5t26 634.5h29q7 -133 26 -634.5t19 -555.5q0 -84 -15.5 -115t-44.5 -31z" />
    <glyph glyph-name="cent" unicode="&#xa2;" horiz-adv-x="1110" 
d="M1018 637h31q-114 -363 -424 -381v-256h-93v256q-102 11 -184 58t-134 120t-80 164t-28 193q0 212 114.5 358.5t311.5 175.5v313h93v-307q74 -1 138.5 -18t107.5 -44t69.5 -50.5t44.5 -47.5l-121 -350h-30q38 109 38 195q0 118 -70 185t-210 67q-66 0 -125.5 -15.5
t-112.5 -49t-91 -82.5t-60.5 -120.5t-22.5 -158.5q0 -242 123.5 -383.5t314.5 -141.5q147 0 238 76t162 244z" />
    <glyph glyph-name="sterling" unicode="&#xa3;" horiz-adv-x="1069" 
d="M862 61l133 256h21l-72 -317h-891v31q209 33 312.5 149t103.5 289q0 117 -43 242q0 1 -1 3t-1 3h-320v65h295q-7 18 -37.5 89.5t-44.5 109t-35 100.5t-30.5 117t-9.5 105q0 129 65.5 199.5t188.5 70.5q50 0 100.5 -14.5t86.5 -34.5t68 -44t47.5 -39t22.5 -24v-352h-41
q0 112 -26.5 202t-70 143t-94.5 80.5t-104 27.5q-80 0 -128 -58.5t-48 -161.5q0 -29 3.5 -58.5t14 -68t17 -63.5t26 -77t27.5 -73.5t35 -88t35 -87.5h360v-65h-333q45 -116 45 -238q0 -132 -55.5 -240t-157.5 -167v-11h536z" />
    <glyph glyph-name="currency" unicode="&#xa4;" horiz-adv-x="1138" 
d="M963 772q0 -183 -97 -301l166 -199l-37 -30l-161 194q-99 -90 -246 -90q-170 0 -275 111l-180 -215l-37 30l187 222q-78 108 -78 264q0 188 102 299l-211 252l37 30l209 -247q103 86 254 86q122 0 211 -64l188 225l37 -30l-188 -224q119 -113 119 -313zM614 410
q119 0 192 91.5t73 241.5q0 167 -83.5 269t-220.5 102q-133 0 -214.5 -88t-81.5 -233q0 -172 92 -277.5t243 -105.5z" />
    <glyph glyph-name="yen" unicode="&#xa5;" horiz-adv-x="1181" 
d="M741 1536v20h400v-20l-150 -49l-323 -766h284v-66h-307v-139h307v-65h-307v-398l154 -33v-20h-400v20l154 33v398h-324v65h324v139h-324v66h293l-340 766l-141 49v20h379v-20l-146 -49l353 -766l315 766z" />
    <glyph glyph-name="brokenbar" unicode="&#xa6;" horiz-adv-x="575" 
d="M487 778h-399v21l154 71v656l-154 92v20h399v-20l-153 -92v-656l153 -71v-21zM487 -410h-399v21l154 72v655l-154 92v21h399v-21l-153 -92v-655l153 -72v-21z" />
    <glyph glyph-name="section" unicode="&#xa7;" horiz-adv-x="880" 
d="M426 -23q-208 0 -346 166l98 275h31q-29 -85 -29 -156q0 -101 60 -164t186 -63q134 0 218.5 66.5t84.5 162.5q0 19 -3.5 36.5t-13.5 33t-18 27.5t-28 25.5t-32 22t-41 21t-45 19.5t-53.5 19.5t-56 19t-63.5 20.5q-242 78 -242 270q0 100 59 165.5t152 96.5
q-91 42 -140.5 112t-49.5 161q0 124 80 192t202 68q177 0 301 -146l-75 -223h-31q42 134 -15.5 221.5t-183.5 87.5q-94 0 -168 -53t-74 -141q0 -72 58 -118.5t174 -82.5q20 -6 61 -18t62.5 -18.5t56.5 -20.5t54.5 -27t44 -35t37 -46.5t21.5 -60t9 -77.5q0 -195 -156 -270
q84 -44 120 -104.5t36 -143.5q0 -154 -96 -237t-246 -83zM535 567q90 23 142 82t52 133q0 37 -15 66.5t-32.5 48t-61 39t-69.5 30t-88 29.5l-27 9q-110 0 -188 -57t-78 -148q0 -70 57.5 -114t194.5 -85z" />
    <glyph glyph-name="dieresis" unicode="&#xa8;" horiz-adv-x="638" 
d="M184 1309q-35 0 -56.5 21.5t-21.5 55.5t21.5 57t56.5 23q36 0 58 -23t22 -57t-22 -55.5t-58 -21.5zM451 1309q-35 0 -56.5 21.5t-21.5 55.5t21.5 57t56.5 23q36 0 57.5 -22.5t21.5 -57.5q0 -34 -21.5 -55.5t-57.5 -21.5z" />
    <glyph glyph-name="copyright" unicode="&#xa9;" horiz-adv-x="1796" 
d="M899 -23q-162 0 -309.5 63t-253.5 169.5t-169 254t-63 308.5t63 308t169 253t253.5 169t309.5 63q161 0 308 -63t253 -169t169 -253t63 -308t-63 -308.5t-169 -254t-253 -169.5t-308 -63zM899 35q200 0 369 98.5t267.5 268t98.5 370.5q0 200 -98.5 369t-267.5 267.5
t-369 98.5q-201 0 -370.5 -98.5t-268 -267.5t-98.5 -369q0 -150 58 -286.5t157 -235.5t235.5 -157t286.5 -58zM903 295q-104 0 -188.5 43t-135.5 112t-78.5 150.5t-27.5 163.5q0 68 18 136t55.5 131t89.5 111.5t126.5 77.5t159.5 29q122 0 210 -50.5t130 -108.5l-121 -351
h-31q70 205 12 326t-221 121q-152 0 -253 -103.5t-101 -277.5q0 -183 110 -315t265 -132q142 0 232 76t161 244h31q-51 -170 -163 -276.5t-280 -106.5z" />
    <glyph glyph-name="ordfeminine" unicode="&#xaa;" horiz-adv-x="817" 
d="M305 713q-97 0 -157 59t-60 156q0 134 112 205t375 120v50q0 123 -53.5 179t-132.5 56q-59 0 -105 -28.5t-68.5 -73t-28.5 -99t16 -106.5h-31l-70 209q98 135 299 135q130 0 191 -58.5t61 -183.5v-536h107v-17l-160 -49h-25v172q-15 -31 -35.5 -60t-53 -60.5t-80 -50.5
t-101.5 -19zM324 768q81 0 147 66.5t104 150.5v221q-4 -1 -35 -6t-46 -8t-49 -11t-55 -15t-52.5 -19.5t-51.5 -26t-43.5 -33t-37 -41t-22.5 -50t-9 -60.5q0 -72 39.5 -120t110.5 -48z" />
    <glyph glyph-name="guillemotleft" unicode="&#xab;" horiz-adv-x="925" 
d="M498 145h-31l-391 381v13l391 379h31q-241 -280 -342 -386q79 -83 175.5 -193.5t166.5 -193.5zM831 145h-30l-391 381v13l391 379h30q-241 -280 -342 -386q79 -83 175.5 -193.5t166.5 -193.5z" />
    <glyph glyph-name="logicalnot" unicode="&#xac;" horiz-adv-x="993" 
d="M856 213h-65v330h-658v65h723v-395z" />
    <glyph glyph-name="uni00AD" unicode="&#xad;" horiz-adv-x="657" 
d="M588 537h-518v77h518v-77z" />
    <glyph glyph-name="registered" unicode="&#xae;" horiz-adv-x="1202" 
d="M602 530q-209 0 -356.5 147.5t-147.5 356.5q0 136 67.5 251.5t183.5 183t253 67.5q136 0 251.5 -67.5t183 -183t67.5 -251.5q0 -137 -67.5 -253t-183 -183.5t-251.5 -67.5zM602 580q123 0 227.5 60.5t165 165t60.5 228.5q0 92 -36 176t-96.5 144.5t-144.5 96.5t-176 36
q-93 0 -177 -36t-145 -96.5t-97 -144.5t-36 -176q0 -189 133 -321.5t322 -132.5zM551 743h-160v17l60 18v529l-60 36v9h252q85 0 130.5 -43.5t45.5 -106.5q0 -66 -42 -112t-120 -46l115 -262l76 -22v-17h-178v17l49 18l-117 266h-102v-266l51 -18v-17zM500 1317v-238h141
q72 0 99.5 32.5t27.5 90.5q0 49 -37 82t-110 33h-121z" />
    <glyph glyph-name="macron" unicode="&#xaf;" horiz-adv-x="796" 
d="M668 1233h-539v78h539v-78z" />
    <glyph glyph-name="degree" unicode="&#xb0;" horiz-adv-x="522" 
d="M262 1124q-79 0 -135.5 57.5t-56.5 135.5t56.5 134t135.5 56q77 0 134 -56t57 -134t-57 -135.5t-134 -57.5zM262 1182q54 0 93.5 40t39.5 95t-39.5 94t-93.5 39q-57 0 -96 -38.5t-39 -94.5t39 -95.5t96 -39.5z" />
    <glyph glyph-name="plusminus" unicode="&#xb1;" horiz-adv-x="931" 
d="M500 934v-330h327v-65h-327v-328h-66v328h-330v65h330v330h66zM827 0h-723v66h723v-66z" />
    <glyph glyph-name="uni00B2" unicode="&#xb2;" horiz-adv-x="690" 
d="M596 827h-543v21q66 12 144 69t143 134t108.5 172t43.5 176q0 90 -50 151.5t-127 61.5q-83 0 -133.5 -68.5t-50.5 -159.5q0 -75 16 -145h-36l-45 215q77 191 264 191q32 0 62 -5.5t63 -21.5t57 -41t39.5 -69t15.5 -101q0 -39 -8 -78.5t-18.5 -71.5t-33 -69.5t-37.5 -62
t-46.5 -59t-46.5 -51t-51 -48.5t-46 -40t-46 -37t-37 -30h329l88 133h23z" />
    <glyph glyph-name="uni00B3" unicode="&#xb3;" horiz-adv-x="692" 
d="M319 815q-88 0 -165.5 35.5t-96.5 93.5l37 168h39q-16 -62 -16 -113q0 -36 14.5 -64.5t36 -45t51 -27.5t56 -14.5t53.5 -3.5q107 0 166 63.5t59 163.5q0 164 -166 164q-26 0 -71 -13t-72 -32v45q129 50 190.5 106.5t61.5 126.5q0 61 -44 100.5t-126 39.5
q-73 0 -123.5 -33t-50.5 -100q0 -45 28 -146h-39l-61 170q36 53 101.5 99.5t154.5 46.5q93 0 164 -42.5t71 -123.5q0 -65 -51.5 -122.5t-150.5 -99.5q62 9 120 -6.5t99 -62t41 -115.5q0 -108 -91 -183t-219 -75z" />
    <glyph glyph-name="acute" unicode="&#xb4;" horiz-adv-x="452" 
d="M96 1126h-26q69 143 127.5 233t93 121t59.5 31q33 0 33 -30q0 -77 -287 -355z" />
    <glyph glyph-name="uni00B5" unicode="&#xb5;" horiz-adv-x="1062" 
d="M426 -389h-348v20l133 33v1278h-135v21l194 61h21v-680q0 -303 194 -303q104 0 178.5 73.5t116.5 182.5v645h-133v21l195 61h20v-942h133v-21l-194 -61h-21v215q-21 -44 -43 -78t-59.5 -74.5t-90 -63t-116.5 -22.5q-116 0 -178 91v-404l133 -33v-20z" />
    <glyph glyph-name="paragraph" unicode="&#xb6;" horiz-adv-x="1366" 
d="M1272 0h-797v20l154 33v705h-80q-97 0 -184 24.5t-157 72.5t-111.5 128.5t-41.5 183.5q0 74 27 137.5t74 109.5t110 78t135 48t148 16h723v-20l-154 -61v-1422l154 -33v-20zM721 1475v-1422h305v1422h-305z" />
    <glyph glyph-name="periodcentered" unicode="&#xb7;" horiz-adv-x="413" 
d="M207 428q-42 0 -69 27t-27 67q0 42 27 70.5t69 28.5t69 -28.5t27 -70.5q0 -40 -27 -67t-69 -27z" />
    <glyph glyph-name="cedilla" unicode="&#xb8;" horiz-adv-x="438" 
d="M252 -418q-58 0 -119 35v16q58 -22 107 -22q55 0 88.5 26.5t33.5 77.5q0 44 -38.5 75.5t-110.5 31.5v39l94 166h35l-82 -144q78 0 117 -37.5t39 -95.5q0 -61 -45.5 -114.5t-118.5 -53.5z" />
    <glyph glyph-name="uni00B9" unicode="&#xb9;" horiz-adv-x="438" 
d="M371 827h-240v11l88 32v689l-188 -213v24l180 266h160v-10l-88 -39v-717l88 -32v-11z" />
    <glyph glyph-name="ordmasculine" unicode="&#xba;" horiz-adv-x="892" 
d="M451 713q-91 0 -166 41t-120 105.5t-69 137.5t-24 144q0 59 13.5 118t44 116.5t74 101.5t109.5 71t144 27q74 0 136 -27t103 -70.5t70 -99.5t42 -113t13 -112q0 -56 -13 -115t-42.5 -117.5t-71.5 -104.5t-105 -74.5t-138 -28.5zM471 764q115 0 192.5 105t77.5 259
q0 162 -84 279t-217 117q-134 0 -215.5 -100t-81.5 -255q0 -102 40.5 -194.5t117 -151.5t170.5 -59z" />
    <glyph glyph-name="guillemotright" unicode="&#xbb;" horiz-adv-x="925" 
d="M125 145h-31q70 83 166.5 193.5t175.5 193.5q-101 106 -342 386h31l391 -379v-13zM459 145h-31q17 19 64.5 74.5t71 83t62.5 72t74 82.5t70 75q-101 106 -342 386h31l391 -379v-13z" />
    <glyph glyph-name="onequarter" unicode="&#xbc;" horiz-adv-x="1593" 
d="M393 827h-239v11l88 32v689l-189 -213v24l180 266h160v-10l-88 -39v-717l88 -32v-11zM207 0h-62l1082 1556h65zM1507 0h-239v10l88 39v154h-402v20l392 586h161v-10l-88 -39v-510l111 -37v-10h-111v-154l88 -39v-10zM1356 760l-352 -527h352v527z" />
    <glyph glyph-name="onehalf" unicode="&#xbd;" horiz-adv-x="1644" 
d="M395 827h-239v11l88 32v689l-189 -213v24l181 266h159v-10l-88 -39v-717l88 -32v-11zM209 0h-62l1082 1556h65zM1550 0h-542v20q89 16 191.5 104.5t174.5 213.5t72 233q0 90 -49.5 151.5t-126.5 61.5q-83 0 -134 -68t-51 -159q0 -71 17 -145h-37l-45 215q76 190 264 190
q41 0 78.5 -9.5t75.5 -33.5t61 -73.5t23 -120.5q0 -52 -13.5 -103t-33.5 -93t-51.5 -85.5t-59.5 -75t-66.5 -67t-63.5 -56t-58 -47.5q-6 -4 -9 -7t-7.5 -6.5t-8.5 -6.5h330l88 133h22z" />
    <glyph glyph-name="threequarters" unicode="&#xbe;" horiz-adv-x="1785" 
d="M319 815q-88 0 -165.5 35.5t-96.5 93.5l37 168h39q-16 -62 -16 -113q0 -36 14.5 -64.5t36 -45t51 -27.5t56 -14.5t53.5 -3.5q107 0 166 63.5t59 163.5q0 164 -166 164q-26 0 -71 -13t-72 -32v45q129 50 190.5 106.5t61.5 126.5q0 61 -44 100.5t-126 39.5
q-73 0 -123.5 -33t-50.5 -100q0 -45 28 -146h-39l-61 170q36 53 101.5 99.5t154.5 46.5q93 0 164 -42.5t71 -123.5q0 -65 -51.5 -122.5t-150.5 -99.5q62 9 120 -6.5t99 -62t41 -115.5q0 -108 -91 -183t-219 -75zM403 0h-61l1081 1556h66zM1704 0h-240v10l88 39v154h-401v20
l391 586h162v-10l-88 -39v-510l110 -37v-10h-110v-154l88 -39v-10zM1552 760l-352 -527h352v527z" />
    <glyph glyph-name="questiondown" unicode="&#xbf;" horiz-adv-x="880" 
d="M492 1669q42 0 69 -27t27 -67q0 -42 -27 -70t-69 -28t-69.5 28t-27.5 70q0 40 27.5 67t69.5 27zM487 1339h21q12 -99 12 -165q0 -59 -7 -102t-30.5 -91t-47 -84t-75.5 -109q-43 -61 -67.5 -99.5t-54.5 -97t-44 -118t-14 -123.5q0 -80 23.5 -141t63 -96t87 -52.5
t101.5 -17.5q82 0 140 35t88 93.5t41 138.5t4 166.5t-28 180.5h31l94 -413q-39 -112 -143 -189.5t-246 -77.5q-48 0 -94 9t-97 35t-88.5 66.5t-62 110t-24.5 158.5q0 97 30 180.5t99 178.5q37 51 90 112t82 98t59.5 94.5t43.5 134.5t13 185z" />
    <glyph glyph-name="Agrave" unicode="&#xc0;" horiz-adv-x="1536" 
d="M807 1659h-27q-286 277 -286 354q0 31 32 31q25 0 60 -31t93.5 -121t127.5 -233zM356 0h-399v20l152 54l616 1499h61l654 -1499l145 -54v-20h-399v20l141 54l-268 628h-627l-252 -628l176 -54v-20zM735 1458l-278 -694h575z" />
    <glyph glyph-name="Aacute" unicode="&#xc1;" horiz-adv-x="1536" 
d="M764 1659h-27q69 143 127.5 233t93.5 121t60 31q33 0 33 -31q0 -76 -287 -354zM356 0h-399v20l152 54l616 1499h61l654 -1499l145 -54v-20h-399v20l141 54l-268 628h-627l-252 -628l176 -54v-20zM735 1458l-278 -694h575z" />
    <glyph glyph-name="Acircumflex" unicode="&#xc2;" horiz-adv-x="1536" 
d="M541 1618h-27q30 53 78 139q89 158 119.5 202t60.5 44t61.5 -45t119.5 -205q46 -84 75 -135h-27q-14 16 -49.5 58t-53 63t-44 54.5t-46.5 60.5t-36 53q-12 -19 -25.5 -38t-31.5 -42t-30 -38.5t-36 -44t-33.5 -40t-38.5 -45t-36 -41.5zM356 0h-399v20l152 54l616 1499h61
l654 -1499l145 -54v-20h-399v20l141 54l-268 628h-627l-252 -628l176 -54v-20zM735 1458l-278 -694h575z" />
    <glyph glyph-name="Atilde" unicode="&#xc3;" horiz-adv-x="1536" 
d="M520 1700h-16q9 92 52.5 143t107.5 51q38 0 71.5 -17t54.5 -37t50 -37t59 -17q87 0 125 129h16q-9 -92 -52.5 -143.5t-108.5 -51.5q-38 0 -72 17t-54.5 37.5t-49.5 37.5t-58 17q-87 0 -125 -129zM356 0h-399v20l152 54l616 1499h61l654 -1499l145 -54v-20h-399v20l141 54
l-268 628h-627l-252 -628l176 -54v-20zM735 1458l-278 -694h575z" />
    <glyph glyph-name="Adieresis" unicode="&#xc4;" horiz-adv-x="1536" 
d="M639 1739q-35 0 -56.5 22t-21.5 56t21.5 56.5t56.5 22.5q36 0 58 -22.5t22 -56.5t-22 -56t-58 -22zM905 1739q-35 0 -56.5 22t-21.5 56t21.5 56.5t56.5 22.5q36 0 58 -22.5t22 -56.5t-22 -56t-58 -22zM356 0h-399v20l152 54l616 1499h61l654 -1499l145 -54v-20h-399v20
l141 54l-268 628h-627l-252 -628l176 -54v-20zM735 1458l-278 -694h575z" />
    <glyph glyph-name="Aring" unicode="&#xc5;" horiz-adv-x="1536" 
d="M752 1704q-69 0 -117.5 49t-48.5 117t48.5 116t117.5 48q66 0 114.5 -48.5t48.5 -115.5t-48.5 -116.5t-114.5 -49.5zM752 1751q46 0 81 36t35 83t-35 82t-81 35q-49 0 -84 -34.5t-35 -82.5t35 -83.5t84 -35.5zM356 0h-399v20l152 54l616 1499h61l654 -1499l145 -54v-20
h-399v20l141 54l-268 628h-627l-252 -628l176 -54v-20zM735 1458l-278 -694h575z" />
    <glyph glyph-name="AE" unicode="&#xc6;" horiz-adv-x="1751" 
d="M350 0h-399v20l145 54l781 1482h725l71 -317h-20l-133 256h-543v-627h379l51 174h20v-409h-20l-51 174h-379v-746h563l133 256h21l-72 -317h-891v20l154 54v628h-391l-326 -628l182 -54v-20zM885 1460l-359 -696h359v696z" />
    <glyph glyph-name="Ccedilla" unicode="&#xc7;" horiz-adv-x="1554" 
d="M1522 616h30q-76 -274 -257.5 -447.5t-436.5 -188.5l-55 -97q77 0 116 -37.5t39 -95.5q0 -62 -45 -115t-118 -53q-58 0 -119 35v16q58 -22 106 -22q55 0 89 26.5t34 77.5q0 44 -38.5 75.5t-110.5 31.5v39l65 116h-8q-115 0 -222.5 33.5t-199 100t-160 159t-107 219
t-38.5 271.5q0 174 61 325.5t166 258t252 168t314 61.5q103 0 196.5 -23t152 -55.5t92.5 -58t42 -39.5v-455h-31q0 121 -26 216.5t-70 158t-105.5 104t-129.5 59t-146 17.5q-47 0 -98.5 -6t-119.5 -24.5t-129.5 -48.5t-123 -82.5t-106 -120.5t-72 -169t-27.5 -223
q2 -120 26.5 -224t64 -181.5t93.5 -140t114.5 -103.5t128.5 -69t133.5 -40t131.5 -12q229 0 397.5 145.5t254.5 417.5z" />
    <glyph glyph-name="Egrave" unicode="&#xc8;" horiz-adv-x="1099" 
d="M637 1659h-27q-286 277 -286 354q0 31 32 31q25 0 60 -31t93.5 -121t127.5 -233zM971 0h-891v20l153 54v1401l-153 61v20h870l72 -317h-21l-133 256h-542v-627h379l51 174h20v-409h-20l-51 174h-379v-746h563l133 256h20z" />
    <glyph glyph-name="Eacute" unicode="&#xc9;" horiz-adv-x="1099" 
d="M553 1659h-27q69 143 127.5 233t93.5 121t60 31q33 0 33 -31q0 -76 -287 -354zM971 0h-891v20l153 54v1401l-153 61v20h870l72 -317h-21l-133 256h-542v-627h379l51 174h20v-409h-20l-51 174h-379v-746h563l133 256h20z" />
    <glyph glyph-name="Ecircumflex" unicode="&#xca;" horiz-adv-x="1099" 
d="M330 1618h-27q30 53 78 139q89 158 119.5 202t60.5 44t61.5 -45t119.5 -205q46 -84 75 -135h-26q-12 15 -60 71.5t-68 80.5t-51 64.5t-51 72.5q-12 -19 -25.5 -38t-31.5 -42t-30 -38.5t-36 -44t-33.5 -40t-38.5 -45t-36 -41.5zM971 0h-891v20l153 54v1401l-153 61v20h870
l72 -317h-21l-133 256h-542v-627h379l51 174h20v-409h-20l-51 174h-379v-746h563l133 256h20z" />
    <glyph glyph-name="Edieresis" unicode="&#xcb;" horiz-adv-x="1099" 
d="M426 1739q-35 0 -56.5 22t-21.5 56t21.5 56.5t56.5 22.5q36 0 58 -22.5t22 -56.5t-22 -56t-58 -22zM692 1739q-35 0 -56.5 22t-21.5 56t21.5 56.5t56.5 22.5q36 0 58 -22.5t22 -56.5t-22 -56t-58 -22zM971 0h-891v20l153 54v1401l-153 61v20h870l72 -317h-21l-133 256
h-542v-627h379l51 174h20v-409h-20l-51 174h-379v-746h563l133 256h20z" />
    <glyph glyph-name="Igrave" unicode="&#xcc;" horiz-adv-x="559" 
d="M315 1659h-26q-287 278 -287 354q0 31 33 31q25 0 59.5 -31t93 -121t127.5 -233zM479 0h-399v20l153 54v1401l-153 61v20h399v-20l-153 -61v-1401l153 -54v-20z" />
    <glyph glyph-name="Iacute" unicode="&#xcd;" horiz-adv-x="559" 
d="M272 1659h-26q69 143 127.5 233t93 121t59.5 31q33 0 33 -31q0 -76 -287 -354zM479 0h-399v20l153 54v1401l-153 61v20h399v-20l-153 -61v-1401l153 -54v-20z" />
    <glyph glyph-name="Icircumflex" unicode="&#xce;" horiz-adv-x="559" 
d="M49 1618h-26q30 53 78 139q89 158 119.5 202t60.5 44t61.5 -45t119.5 -205q46 -84 75 -135h-27q-14 16 -49.5 58t-53 63t-44 54.5t-46.5 60.5t-36 53q-14 -22 -32 -47t-33 -44.5t-41 -50.5l-39 -46.5t-44.5 -52t-42.5 -48.5zM479 0h-399v20l153 54v1401l-153 61v20h399
v-20l-153 -61v-1401l153 -54v-20z" />
    <glyph glyph-name="Idieresis" unicode="&#xcf;" horiz-adv-x="559" 
d="M145 1739q-35 0 -56 22t-21 56t21 56.5t56 22.5q36 0 58 -22.5t22 -56.5t-22 -56t-58 -22zM412 1739q-35 0 -56.5 22t-21.5 56t21.5 56.5t56.5 22.5q36 0 58 -22.5t22 -56.5t-22 -56t-58 -22zM479 0h-399v20l153 54v1401l-153 61v20h399v-20l-153 -61v-1401l153 -54v-20z
" />
    <glyph glyph-name="Eth" unicode="&#xd0;" horiz-adv-x="1585" 
d="M82 1556h686q222 0 387.5 -99.5t252.5 -278t87 -414.5q0 -355 -194 -559.5t-531 -204.5h-688v20l154 54v678h-136v51h136v672l-154 61v20zM328 61h383q315 0 495 185t180 508q0 160 -47 296.5t-132.5 235t-213 154t-282.5 55.5h-383v-692h270v-51h-270v-691z" />
    <glyph glyph-name="Ntilde" unicode="&#xd1;" horiz-adv-x="1386" 
d="M426 1700h-16q9 92 52 143t107 51q38 0 72 -17t55 -37t50 -37t59 -17q87 0 125 129h16q-9 -92 -52.5 -143.5t-109.5 -51.5q-38 0 -71.5 17t-54.5 37.5t-49.5 37.5t-57.5 17q-87 0 -125 -129zM479 0h-399v20l153 54v1401l-153 61v20h248l745 -1288v1207l-153 61v20h399
v-20l-154 -61v-1475h-51l-786 1370v-1296l151 -54v-20z" />
    <glyph glyph-name="Ograve" unicode="&#xd2;" horiz-adv-x="1648" 
d="M860 1659h-26q-287 278 -287 354q0 31 33 31q25 0 59.5 -31t93 -121t127.5 -233zM797 -23q-143 0 -273.5 60.5t-227 164.5t-153.5 253.5t-57 318.5q0 141 40 268t111.5 222.5t165 166t204.5 106.5t227 36q145 0 278 -58t232.5 -159t159 -246.5t59.5 -310.5
q0 -172 -64.5 -327t-171 -262.5t-245.5 -170t-285 -62.5zM842 53q79 0 158 19.5t163 70t147.5 126t104.5 197.5t41 275q0 147 -37 272t-101 212.5t-148.5 150t-179 92t-193.5 29.5q-55 0 -111 -9t-118 -31t-117 -55t-106 -85.5t-87.5 -118t-58 -156.5t-21.5 -198
q0 -149 41.5 -279.5t109.5 -222.5t155 -158.5t178.5 -98.5t179.5 -32z" />
    <glyph glyph-name="Oacute" unicode="&#xd3;" horiz-adv-x="1648" 
d="M817 1659h-26q69 143 127.5 233t93 121t59.5 31q33 0 33 -31q0 -76 -287 -354zM797 -23q-143 0 -273.5 60.5t-227 164.5t-153.5 253.5t-57 318.5q0 141 40 268t111.5 222.5t165 166t204.5 106.5t227 36q145 0 278 -58t232.5 -159t159 -246.5t59.5 -310.5
q0 -172 -64.5 -327t-171 -262.5t-245.5 -170t-285 -62.5zM842 53q79 0 158 19.5t163 70t147.5 126t104.5 197.5t41 275q0 147 -37 272t-101 212.5t-148.5 150t-179 92t-193.5 29.5q-55 0 -111 -9t-118 -31t-117 -55t-106 -85.5t-87.5 -118t-58 -156.5t-21.5 -198
q0 -149 41.5 -279.5t109.5 -222.5t155 -158.5t178.5 -98.5t179.5 -32z" />
    <glyph glyph-name="Ocircumflex" unicode="&#xd4;" horiz-adv-x="1648" 
d="M594 1618h-27q30 53 78 139q89 158 119.5 202t60.5 44t61.5 -45t119.5 -205q46 -84 75 -135h-26q-12 15 -60 71.5t-68 80.5t-51 64.5t-51 72.5q-12 -19 -25.5 -38t-31.5 -42t-30 -38.5t-36 -44t-33.5 -40t-38.5 -45t-36 -41.5zM797 -23q-143 0 -273.5 60.5t-227 164.5
t-153.5 253.5t-57 318.5q0 141 40 268t111.5 222.5t165 166t204.5 106.5t227 36q145 0 278 -58t232.5 -159t159 -246.5t59.5 -310.5q0 -172 -64.5 -327t-171 -262.5t-245.5 -170t-285 -62.5zM842 53q79 0 158 19.5t163 70t147.5 126t104.5 197.5t41 275q0 147 -37 272
t-101 212.5t-148.5 150t-179 92t-193.5 29.5q-55 0 -111 -9t-118 -31t-117 -55t-106 -85.5t-87.5 -118t-58 -156.5t-21.5 -198q0 -149 41.5 -279.5t109.5 -222.5t155 -158.5t178.5 -98.5t179.5 -32z" />
    <glyph glyph-name="Otilde" unicode="&#xd5;" horiz-adv-x="1648" 
d="M573 1700h-16q9 92 52.5 143t107.5 51q38 0 71.5 -17t54.5 -37t50 -37t59 -17q88 0 125 129h17q-9 -92 -52.5 -143.5t-109.5 -51.5q-38 0 -72 17t-54.5 37.5t-49.5 37.5t-58 17q-88 0 -125 -129zM797 -23q-143 0 -273.5 60.5t-227 164.5t-153.5 253.5t-57 318.5
q0 141 40 268t111.5 222.5t165 166t204.5 106.5t227 36q145 0 278 -58t232.5 -159t159 -246.5t59.5 -310.5q0 -172 -64.5 -327t-171 -262.5t-245.5 -170t-285 -62.5zM842 53q79 0 158 19.5t163 70t147.5 126t104.5 197.5t41 275q0 147 -37 272t-101 212.5t-148.5 150
t-179 92t-193.5 29.5q-55 0 -111 -9t-118 -31t-117 -55t-106 -85.5t-87.5 -118t-58 -156.5t-21.5 -198q0 -149 41.5 -279.5t109.5 -222.5t155 -158.5t178.5 -98.5t179.5 -32z" />
    <glyph glyph-name="Odieresis" unicode="&#xd6;" horiz-adv-x="1648" 
d="M690 1739q-35 0 -56.5 22t-21.5 56t21.5 56.5t56.5 22.5q36 0 58 -22.5t22 -56.5t-22 -56t-58 -22zM956 1739q-35 0 -56 22t-21 56t21 56.5t56 22.5q36 0 58 -22.5t22 -56.5t-22 -56t-58 -22zM797 -23q-143 0 -273.5 60.5t-227 164.5t-153.5 253.5t-57 318.5
q0 141 40 268t111.5 222.5t165 166t204.5 106.5t227 36q145 0 278 -58t232.5 -159t159 -246.5t59.5 -310.5q0 -172 -64.5 -327t-171 -262.5t-245.5 -170t-285 -62.5zM842 53q79 0 158 19.5t163 70t147.5 126t104.5 197.5t41 275q0 147 -37 272t-101 212.5t-148.5 150
t-179 92t-193.5 29.5q-55 0 -111 -9t-118 -31t-117 -55t-106 -85.5t-87.5 -118t-58 -156.5t-21.5 -198q0 -149 41.5 -279.5t109.5 -222.5t155 -158.5t178.5 -98.5t179.5 -32z" />
    <glyph glyph-name="multiply" unicode="&#xd7;" horiz-adv-x="790" 
d="M397 575l-233 -233l-47 45l233 234l-233 233l47 45l233 -231l232 231l45 -47l-232 -231l232 -232l-45 -47z" />
    <glyph glyph-name="Oslash" unicode="&#xd8;" horiz-adv-x="1648" 
d="M1364 1559l-90 -140q134 -107 211.5 -267.5t77.5 -352.5q0 -172 -64.5 -327t-171 -262.5t-245.5 -170t-285 -62.5q-203 0 -375 117l-105 -160h-73l127 199q-132 109 -208.5 275.5t-76.5 365.5q0 141 40 268t111.5 222.5t165 166t204.5 106.5t227 36q207 0 389 -117
l65 103h76zM178 844q0 -197 69 -354.5t185 -262.5l739 1149q-171 121 -374 121q-55 0 -111 -9t-118 -31t-117 -55t-106 -85.5t-87.5 -118t-58 -156.5t-21.5 -198zM842 53q79 0 158 19.5t163 70t147.5 126t104.5 197.5t41 275q0 195 -63 345.5t-172 248.5l-742 -1149
q174 -133 363 -133z" />
    <glyph glyph-name="Ugrave" unicode="&#xd9;" horiz-adv-x="1433" 
d="M752 1659h-27q-287 278 -287 354q0 31 33 31q25 0 60 -31t93.5 -121t127.5 -233zM719 -23q-144 0 -246 44.5t-159.5 128.5t-83 191t-25.5 247v887l-154 61v20h400v-20l-154 -61v-887q0 -145 31 -249t90 -164t136.5 -87t178.5 -27q102 0 175 27t125.5 88t78 163t25.5 249
v887l-154 61v20h399v-20l-153 -61v-887q0 -145 -26.5 -253.5t-84.5 -191t-158 -124.5t-241 -42z" />
    <glyph glyph-name="Uacute" unicode="&#xda;" horiz-adv-x="1433" 
d="M709 1659h-27q69 143 127.5 233t93.5 121t60 31q32 0 32 -31q0 -77 -286 -354zM719 -23q-144 0 -246 44.5t-159.5 128.5t-83 191t-25.5 247v887l-154 61v20h400v-20l-154 -61v-887q0 -145 31 -249t90 -164t136.5 -87t178.5 -27q102 0 175 27t125.5 88t78 163t25.5 249
v887l-154 61v20h399v-20l-153 -61v-887q0 -145 -26.5 -253.5t-84.5 -191t-158 -124.5t-241 -42z" />
    <glyph glyph-name="Ucircumflex" unicode="&#xdb;" horiz-adv-x="1433" 
d="M485 1618h-26q30 53 78 139q89 158 119.5 202t60.5 44t61.5 -45t119.5 -205q46 -84 75 -135h-27q-14 16 -49.5 58t-53 63t-44 54.5t-46.5 60.5t-36 53q-14 -22 -32 -47t-33 -44.5t-41 -50.5l-39 -46.5t-44.5 -52t-42.5 -48.5zM719 -23q-144 0 -246 44.5t-159.5 128.5
t-83 191t-25.5 247v887l-154 61v20h400v-20l-154 -61v-887q0 -145 31 -249t90 -164t136.5 -87t178.5 -27q102 0 175 27t125.5 88t78 163t25.5 249v887l-154 61v20h399v-20l-153 -61v-887q0 -145 -26.5 -253.5t-84.5 -191t-158 -124.5t-241 -42z" />
    <glyph glyph-name="Udieresis" unicode="&#xdc;" horiz-adv-x="1433" 
d="M582 1739q-35 0 -56.5 22t-21.5 56t21.5 56.5t56.5 22.5q36 0 58 -22.5t22 -56.5t-22 -56t-58 -22zM848 1739q-35 0 -56.5 22t-21.5 56t21.5 56.5t56.5 22.5q36 0 58 -22.5t22 -56.5t-22 -56t-58 -22zM719 -23q-144 0 -246 44.5t-159.5 128.5t-83 191t-25.5 247v887
l-154 61v20h400v-20l-154 -61v-887q0 -145 31 -249t90 -164t136.5 -87t178.5 -27q102 0 175 27t125.5 88t78 163t25.5 249v887l-154 61v20h399v-20l-153 -61v-887q0 -145 -26.5 -253.5t-84.5 -191t-158 -124.5t-241 -42z" />
    <glyph glyph-name="Yacute" unicode="&#xdd;" horiz-adv-x="1265" 
d="M625 1659h-27q69 143 127.5 233t93.5 121t60 31q32 0 32 -31q0 -77 -286 -354zM840 0h-400v20l154 54v501l-500 912l-135 49v20h399v-20l-149 -49l459 -825l432 825l-195 49v20h400v-20l-144 -49l-475 -899v-514l154 -54v-20z" />
    <glyph glyph-name="Thorn" unicode="&#xde;" horiz-adv-x="1234" 
d="M479 0h-399v20l153 54v1401l-153 61v20h399v-20l-153 -61v-246h346q77 0 148 -14.5t134.5 -45t110 -75.5t73.5 -110t27 -144q0 -97 -41.5 -176.5t-111 -129.5t-157 -77t-183.5 -27h-346v-356l153 -54v-20zM326 1188v-717h336q186 0 293.5 99.5t107.5 271.5
q0 169 -106 257.5t-295 88.5h-336z" />
    <glyph glyph-name="germandbls" unicode="&#xdf;" horiz-adv-x="1122" 
d="M772 -23q-105 0 -195 53.5t-135 112.5l99 275h30q-28 -82 -28 -154q0 -101 59 -165t172 -64q43 0 82.5 10.5t77 33.5t60 68t22.5 107q0 47 -15 87.5t-33 65.5t-51.5 49.5t-53 34.5t-54.5 27q-49 23 -77 37.5t-64.5 36.5t-56.5 42t-39.5 46t-28 57.5t-8.5 69.5
q0 54 19.5 98.5t47.5 77t56 66t47.5 82t19.5 108.5q0 91 -39.5 177.5t-113.5 144t-162 57.5q-83 0 -119.5 -58.5t-36.5 -193.5v-1366h-215v20l133 33v1303q0 163 54.5 239t179.5 76q88 0 162 -34.5t122.5 -91.5t75.5 -128.5t27 -146.5q0 -56 -15 -104.5t-38 -81t-49.5 -65
t-49.5 -58t-38 -57.5t-15 -66q0 -29 13 -55t31 -45t57.5 -42t72 -39.5t94.5 -44.5q54 -25 91 -49.5t67.5 -60t45.5 -84.5t15 -113q0 -72 -18.5 -129.5t-49 -93.5t-71 -60.5t-81 -34.5t-83.5 -10z" />
    <glyph glyph-name="agrave" unicode="&#xe0;" horiz-adv-x="960" 
d="M500 1126h-27q-287 278 -287 355q0 30 33 30q25 0 60 -31t93.5 -121t127.5 -233zM795 752v-670h131v-21l-195 -61h-20v252q-8 -26 -23.5 -57.5t-45.5 -71.5t-67 -72t-92 -54t-116 -22q-117 0 -191 75t-74 196q0 63 23.5 116.5t58.5 91t90 68.5t103.5 50t113.5 35.5
t106 24t95 16.5q6 1 10.5 1.5t8.5 1.5v64q0 152 -69 222.5t-171 70.5q-113 0 -187.5 -75t-74.5 -190q0 -59 20 -118h-30l-82 262q125 168 370 168q159 0 233.5 -73.5t74.5 -229.5zM389 37q55 0 107.5 23.5t93 62t71 81t50.5 87.5v332q-3 -1 -42 -9t-57.5 -12t-63 -16
t-70.5 -22t-68 -28t-68 -36t-57 -44.5t-48.5 -55t-29.5 -66t-12 -78.5q0 -91 50.5 -155t143.5 -64z" />
    <glyph glyph-name="aacute" unicode="&#xe1;" horiz-adv-x="960" 
d="M743 1481q0 -78 -286 -355h-27q69 143 127.5 233t93.5 121t60 31q32 0 32 -30zM795 752v-670h131v-21l-195 -61h-20v252q-8 -26 -23.5 -57.5t-45.5 -71.5t-67 -72t-92 -54t-116 -22q-117 0 -191 75t-74 196q0 63 23.5 116.5t58.5 91t90 68.5t103.5 50t113.5 35.5t106 24
t95 16.5q6 1 10.5 1.5t8.5 1.5v64q0 152 -69 222.5t-171 70.5q-113 0 -187.5 -75t-74.5 -190q0 -59 20 -118h-30l-82 262q125 168 370 168q159 0 233.5 -73.5t74.5 -229.5zM389 37q55 0 107.5 23.5t93 62t71 81t50.5 87.5v332q-3 -1 -42 -9t-57.5 -12t-63 -16t-70.5 -22
t-68 -28t-68 -36t-57 -44.5t-48.5 -55t-29.5 -66t-12 -78.5q0 -91 50.5 -155t143.5 -64z" />
    <glyph glyph-name="acircumflex" unicode="&#xe2;" horiz-adv-x="960" 
d="M465 1374q-14 -22 -32 -47t-33 -44.5t-41 -50.5l-39 -46.5t-44.5 -52t-42.5 -48.5h-26q30 53 78 139q89 158 119.5 202t60.5 44t61.5 -45t119.5 -205q46 -84 75 -135h-27q-14 16 -49.5 58t-53 63t-44 54.5t-46.5 60.5t-36 53zM795 752v-670h131v-21l-195 -61h-20v252
q-8 -26 -23.5 -57.5t-45.5 -71.5t-67 -72t-92 -54t-116 -22q-117 0 -191 75t-74 196q0 63 23.5 116.5t58.5 91t90 68.5t103.5 50t113.5 35.5t106 24t95 16.5q6 1 10.5 1.5t8.5 1.5v64q0 152 -69 222.5t-171 70.5q-113 0 -187.5 -75t-74.5 -190q0 -59 20 -118h-30l-82 262
q125 168 370 168q159 0 233.5 -73.5t74.5 -229.5zM389 37q55 0 107.5 23.5t93 62t71 81t50.5 87.5v332q-3 -1 -42 -9t-57.5 -12t-63 -16t-70.5 -22t-68 -28t-68 -36t-57 -44.5t-48.5 -55t-29.5 -66t-12 -78.5q0 -91 50.5 -155t143.5 -64z" />
    <glyph glyph-name="atilde" unicode="&#xe3;" horiz-adv-x="960" 
d="M338 1296q-88 0 -125 -129h-16q9 92 52 143.5t107 51.5q38 0 72 -17t55 -37.5t50 -37.5t59 -17q88 0 125 129h16q-9 -92 -52.5 -143t-109.5 -51q-38 0 -71.5 17t-54.5 37t-49.5 37t-57.5 17zM795 752v-670h131v-21l-195 -61h-20v252q-8 -26 -23.5 -57.5t-45.5 -71.5
t-67 -72t-92 -54t-116 -22q-117 0 -191 75t-74 196q0 63 23.5 116.5t58.5 91t90 68.5t103.5 50t113.5 35.5t106 24t95 16.5q6 1 10.5 1.5t8.5 1.5v64q0 152 -69 222.5t-171 70.5q-113 0 -187.5 -75t-74.5 -190q0 -59 20 -118h-30l-82 262q125 168 370 168q159 0 233.5 -73.5
t74.5 -229.5zM389 37q55 0 107.5 23.5t93 62t71 81t50.5 87.5v332q-3 -1 -42 -9t-57.5 -12t-63 -16t-70.5 -22t-68 -28t-68 -36t-57 -44.5t-48.5 -55t-29.5 -66t-12 -78.5q0 -91 50.5 -155t143.5 -64z" />
    <glyph glyph-name="adieresis" unicode="&#xe4;" horiz-adv-x="960" 
d="M330 1309q-35 0 -56.5 21.5t-21.5 55.5t21.5 57t56.5 23q36 0 58 -23t22 -57t-22 -55.5t-58 -21.5zM596 1309q-35 0 -56.5 21.5t-21.5 55.5t21.5 57t56.5 23q36 0 58 -23t22 -57t-22 -55.5t-58 -21.5zM795 752v-670h131v-21l-195 -61h-20v252q-8 -26 -23.5 -57.5
t-45.5 -71.5t-67 -72t-92 -54t-116 -22q-117 0 -191 75t-74 196q0 63 23.5 116.5t58.5 91t90 68.5t103.5 50t113.5 35.5t106 24t95 16.5q6 1 10.5 1.5t8.5 1.5v64q0 152 -69 222.5t-171 70.5q-113 0 -187.5 -75t-74.5 -190q0 -59 20 -118h-30l-82 262q125 168 370 168
q159 0 233.5 -73.5t74.5 -229.5zM389 37q55 0 107.5 23.5t93 62t71 81t50.5 87.5v332q-3 -1 -42 -9t-57.5 -12t-63 -16t-70.5 -22t-68 -28t-68 -36t-57 -44.5t-48.5 -55t-29.5 -66t-12 -78.5q0 -91 50.5 -155t143.5 -64z" />
    <glyph glyph-name="aring" unicode="&#xe5;" horiz-adv-x="960" 
d="M465 1171q-69 0 -117.5 49t-48.5 117t48.5 116t117.5 48q66 0 115 -48.5t49 -115.5t-49 -116.5t-115 -49.5zM465 1454q-49 0 -84 -34.5t-35 -82.5t35 -83t84 -35q46 0 81.5 35.5t35.5 82.5t-35.5 82t-81.5 35zM795 752v-670h131v-21l-195 -61h-20v252q-8 -26 -23.5 -57.5
t-45.5 -71.5t-67 -72t-92 -54t-116 -22q-117 0 -191 75t-74 196q0 63 23.5 116.5t58.5 91t90 68.5t103.5 50t113.5 35.5t106 24t95 16.5q6 1 10.5 1.5t8.5 1.5v64q0 152 -69 222.5t-171 70.5q-113 0 -187.5 -75t-74.5 -190q0 -59 20 -118h-30l-82 262q125 168 370 168
q159 0 233.5 -73.5t74.5 -229.5zM389 37q55 0 107.5 23.5t93 62t71 81t50.5 87.5v332q-3 -1 -42 -9t-57.5 -12t-63 -16t-70.5 -22t-68 -28t-68 -36t-57 -44.5t-48.5 -55t-29.5 -66t-12 -78.5q0 -91 50.5 -155t143.5 -64z" />
    <glyph glyph-name="ae" unicode="&#xe6;" horiz-adv-x="1646" 
d="M367 -23q-118 0 -191.5 74.5t-73.5 194.5q0 62 23.5 115.5t54 89.5t89.5 68.5t97.5 50t113.5 36.5t102.5 24t95.5 17q8 2 12 2.5t10 1.5t11 2v62q0 152 -69 222.5t-171 70.5q-113 0 -187.5 -75t-74.5 -190q0 -59 20 -118h-30l-82 262q125 168 370 168q145 0 219.5 -60.5
t86.5 -189.5q60 117 162 183.5t225 66.5q167 0 268.5 -123t101.5 -324v-30h-755v-13q0 -144 53.5 -264t149.5 -190t214 -70q245 0 377 319h31q-53 -171 -166 -277t-276 -106q-141 0 -239.5 77.5t-156.5 203.5q-193 -281 -415 -281zM805 639h657q0 160 -77.5 256t-213.5 96
q-143 0 -243.5 -100t-122.5 -252zM389 37q54 0 106.5 22.5t94.5 59.5t69.5 68.5t51.5 66.5v369q-5 -1 -41.5 -8.5t-57 -12t-63 -16t-70.5 -22t-68.5 -28t-67.5 -36t-57.5 -45t-48.5 -55t-30 -66t-12 -78.5q0 -91 50.5 -155t143.5 -64z" />
    <glyph glyph-name="ccedilla" unicode="&#xe7;" horiz-adv-x="987" 
d="M940 360h31q-50 -165 -159 -271t-273 -112l-54 -94q78 0 117 -37.5t39 -95.5q0 -61 -45.5 -114.5t-118.5 -53.5q-58 0 -119 35v16q58 -22 107 -22q55 0 89 26.5t34 77.5q0 43 -39 75t-111 32v39l66 116q-100 4 -182 48.5t-135 118t-82 167t-29 197.5q0 106 31.5 203.5
t89 174.5t147 123t197.5 46q124 0 214 -52t132 -108l-121 -350h-31q39 107 39 198q0 117 -64.5 182.5t-185.5 65.5q-74 0 -140 -25.5t-119 -75.5t-84 -133.5t-31 -191.5q0 -223 119 -373.5t278 -150.5q143 0 232.5 75.5t160.5 243.5z" />
    <glyph glyph-name="egrave" unicode="&#xe8;" horiz-adv-x="997" 
d="M549 1126h-27q-286 277 -286 355q0 30 32 30q25 0 60 -31t93.5 -121t127.5 -233zM528 -23q-109 0 -197.5 47t-142.5 124.5t-83 170.5t-29 191q0 145 59.5 270t164.5 200t230 75q164 0 267.5 -123.5t103.5 -323.5v-30h-756v-13q0 -144 54 -264t150 -190t214 -70
q245 0 377 319h31q-53 -173 -164.5 -278t-278.5 -105zM156 639h657q0 160 -77.5 256t-213.5 96q-143 0 -243.5 -100t-122.5 -252z" />
    <glyph glyph-name="eacute" unicode="&#xe9;" horiz-adv-x="997" 
d="M506 1126h-27q69 143 127.5 233t93.5 121t60 31q33 0 33 -30q0 -77 -287 -355zM528 -23q-109 0 -197.5 47t-142.5 124.5t-83 170.5t-29 191q0 145 59.5 270t164.5 200t230 75q164 0 267.5 -123.5t103.5 -323.5v-30h-756v-13q0 -144 54 -264t150 -190t214 -70
q245 0 377 319h31q-53 -173 -164.5 -278t-278.5 -105zM156 639h657q0 160 -77.5 256t-213.5 96q-143 0 -243.5 -100t-122.5 -252z" />
    <glyph glyph-name="ecircumflex" unicode="&#xea;" horiz-adv-x="997" 
d="M283 1085h-27q30 53 78 139q89 158 119.5 202t60.5 44t61.5 -45t119.5 -205q46 -84 75 -135h-27q-14 16 -49.5 58t-53 63t-44 54.5t-46.5 60.5t-36 53q-12 -19 -25.5 -38t-31.5 -42t-30 -38.5t-36 -44t-33.5 -40t-38.5 -45t-36 -41.5zM528 -23q-109 0 -197.5 47
t-142.5 124.5t-83 170.5t-29 191q0 145 59.5 270t164.5 200t230 75q164 0 267.5 -123.5t103.5 -323.5v-30h-756v-13q0 -144 54 -264t150 -190t214 -70q245 0 377 319h31q-53 -173 -164.5 -278t-278.5 -105zM156 639h657q0 160 -77.5 256t-213.5 96q-143 0 -243.5 -100
t-122.5 -252z" />
    <glyph glyph-name="edieresis" unicode="&#xeb;" horiz-adv-x="997" 
d="M379 1309q-35 0 -56.5 21.5t-21.5 55.5t21.5 57t56.5 23q36 0 58 -23t22 -57t-22 -55.5t-58 -21.5zM645 1309q-35 0 -56.5 21.5t-21.5 55.5t21.5 57t56.5 23q36 0 58 -23t22 -57t-22 -55.5t-58 -21.5zM528 -23q-109 0 -197.5 47t-142.5 124.5t-83 170.5t-29 191
q0 145 59.5 270t164.5 200t230 75q164 0 267.5 -123.5t103.5 -323.5v-30h-756v-13q0 -144 54 -264t150 -190t214 -70q245 0 377 319h31q-53 -173 -164.5 -278t-278.5 -105zM156 639h657q0 160 -77.5 256t-213.5 96q-143 0 -243.5 -100t-122.5 -252z" />
    <glyph glyph-name="igrave" unicode="&#xec;" horiz-adv-x="436" 
d="M238 1126h-27q-287 278 -287 355q0 30 33 30q25 0 60 -31t93.5 -121t127.5 -233zM397 0h-348v20l133 33v889h-133v21l195 61h20v-971l133 -33v-20z" />
    <glyph glyph-name="iacute" unicode="&#xed;" horiz-adv-x="436" 
d="M195 1126h-27q69 143 127.5 233t93.5 121t60 31q32 0 32 -30q0 -78 -286 -355zM397 0h-348v20l133 33v889h-133v21l195 61h20v-971l133 -33v-20z" />
    <glyph glyph-name="icircumflex" unicode="&#xee;" horiz-adv-x="436" 
d="M-29 1085h-26q30 53 78 139q89 158 119.5 202t60.5 44t61.5 -45t119.5 -205q46 -84 75 -135h-27q-14 16 -49.5 58t-53 63t-44 54.5t-46.5 60.5t-36 53q-14 -22 -32 -47t-33 -44.5t-41 -50.5l-39 -46.5t-44.5 -52t-42.5 -48.5zM397 0h-348v20l133 33v889h-133v21l195 61
h20v-971l133 -33v-20z" />
    <glyph glyph-name="idieresis" unicode="&#xef;" horiz-adv-x="436" 
d="M68 1309q-35 0 -56.5 21.5t-21.5 55.5t21.5 57t56.5 23q36 0 57.5 -22.5t21.5 -57.5q0 -34 -21.5 -55.5t-57.5 -21.5zM334 1309q-35 0 -56.5 21.5t-21.5 55.5t21.5 57t56.5 23q36 0 58 -23t22 -57t-22 -55.5t-58 -21.5zM397 0h-348v20l133 33v889h-133v21l195 61h20v-971
l133 -33v-20z" />
    <glyph glyph-name="eth" unicode="&#xf0;" horiz-adv-x="1091" 
d="M911 1438l-204 -54q288 -377 288 -798q0 -131 -28 -240.5t-82.5 -192.5t-141 -129.5t-196.5 -46.5q-117 0 -210.5 51t-149 132t-84.5 173t-29 183q0 92 29 185t84 173t145 130.5t200 50.5q182 0 328 -158h10q-72 239 -252 463l-249 -66l-15 47l230 62q-85 103 -228 235
h117q94 -84 201 -213l223 60zM555 41q157 0 256.5 131t99.5 326q0 130 -45 241t-135 181.5t-209 70.5q-166 0 -270.5 -126.5t-104.5 -311.5q0 -129 51 -245.5t146 -191.5t211 -75z" />
    <glyph glyph-name="ntilde" unicode="&#xf1;" 
d="M276 1167h-16q9 92 52.5 143.5t107.5 51.5q38 0 71.5 -17t54.5 -37.5t50 -37.5t59 -17q87 0 125 129h17q-9 -92 -52.5 -143t-109.5 -51q-38 0 -72 17t-54.5 37t-49.5 37t-58 17q-87 0 -125 -129zM397 0h-348v20l133 33v889h-133v21l195 61h20v-246q10 30 26.5 61.5t48 72
t70 71t96 51.5t122.5 21q250 0 250 -307v-695l133 -33v-20h-348v20l131 33v633q0 158 -62 231.5t-160 73.5q-80 0 -147 -48t-105 -116t-55 -145v-629l133 -33v-20z" />
    <glyph glyph-name="ograve" unicode="&#xf2;" horiz-adv-x="1069" 
d="M569 1126h-26q-287 278 -287 355q0 30 33 30q25 0 59.5 -31t93 -121t127.5 -233zM539 -23q-89 0 -166.5 33t-131 87t-92 124t-57 144t-18.5 147q0 72 18 146t56.5 145.5t92.5 127.5t133.5 90t172.5 34t170.5 -34t127.5 -88.5t85 -125t50 -141.5t15 -140q0 -72 -16.5 -146
t-52.5 -147t-88 -129.5t-129.5 -91.5t-169.5 -35zM565 41q149 0 247.5 131.5t98.5 325.5q0 128 -43.5 238.5t-133 182.5t-208.5 72q-165 0 -272 -128.5t-107 -315.5q0 -129 51 -244t148.5 -188.5t218.5 -73.5z" />
    <glyph glyph-name="oacute" unicode="&#xf3;" horiz-adv-x="1069" 
d="M526 1126h-26q69 143 127.5 233t93 121t59.5 31q33 0 33 -30q0 -77 -287 -355zM539 -23q-89 0 -166.5 33t-131 87t-92 124t-57 144t-18.5 147q0 72 18 146t56.5 145.5t92.5 127.5t133.5 90t172.5 34t170.5 -34t127.5 -88.5t85 -125t50 -141.5t15 -140q0 -72 -16.5 -146
t-52.5 -147t-88 -129.5t-129.5 -91.5t-169.5 -35zM565 41q149 0 247.5 131.5t98.5 325.5q0 128 -43.5 238.5t-133 182.5t-208.5 72q-165 0 -272 -128.5t-107 -315.5q0 -129 51 -244t148.5 -188.5t218.5 -73.5z" />
    <glyph glyph-name="ocircumflex" unicode="&#xf4;" horiz-adv-x="1069" 
d="M303 1085h-27q28 49 74 131q91 163 123 208.5t62 45.5t61.5 -45t119.5 -205q46 -84 75 -135h-27q-14 16 -49.5 58t-53 63t-44 54.5t-46.5 60.5t-36 53q-14 -22 -32 -47t-33 -44.5t-41 -50.5l-39 -46.5t-44.5 -52t-42.5 -48.5zM539 -23q-89 0 -166.5 33t-131 87t-92 124
t-57 144t-18.5 147q0 72 18 146t56.5 145.5t92.5 127.5t133.5 90t172.5 34t170.5 -34t127.5 -88.5t85 -125t50 -141.5t15 -140q0 -72 -16.5 -146t-52.5 -147t-88 -129.5t-129.5 -91.5t-169.5 -35zM565 41q149 0 247.5 131.5t98.5 325.5q0 128 -43.5 238.5t-133 182.5
t-208.5 72q-165 0 -272 -128.5t-107 -315.5q0 -129 51 -244t148.5 -188.5t218.5 -73.5z" />
    <glyph glyph-name="otilde" unicode="&#xf5;" horiz-adv-x="1069" 
d="M283 1167h-17q9 92 52.5 143.5t107.5 51.5q38 0 72 -17t55 -37.5t50 -37.5t59 -17q86 0 124 129h17q-9 -92 -52.5 -143t-109.5 -51q-38 0 -71.5 17t-54.5 37t-49.5 37t-57.5 17q-88 0 -125 -129zM539 -23q-89 0 -166.5 33t-131 87t-92 124t-57 144t-18.5 147q0 72 18 146
t56.5 145.5t92.5 127.5t133.5 90t172.5 34t170.5 -34t127.5 -88.5t85 -125t50 -141.5t15 -140q0 -72 -16.5 -146t-52.5 -147t-88 -129.5t-129.5 -91.5t-169.5 -35zM565 41q149 0 247.5 131.5t98.5 325.5q0 128 -43.5 238.5t-133 182.5t-208.5 72q-165 0 -272 -128.5
t-107 -315.5q0 -129 51 -244t148.5 -188.5t218.5 -73.5z" />
    <glyph glyph-name="odieresis" unicode="&#xf6;" horiz-adv-x="1069" 
d="M399 1309q-35 0 -56 21.5t-21 55.5t21 57t56 23q36 0 58 -23t22 -57t-22 -55.5t-58 -21.5zM666 1309q-35 0 -56.5 21.5t-21.5 55.5t21.5 57t56.5 23q36 0 57.5 -22.5t21.5 -57.5q0 -34 -21.5 -55.5t-57.5 -21.5zM539 -23q-89 0 -166.5 33t-131 87t-92 124t-57 144
t-18.5 147q0 72 18 146t56.5 145.5t92.5 127.5t133.5 90t172.5 34t170.5 -34t127.5 -88.5t85 -125t50 -141.5t15 -140q0 -72 -16.5 -146t-52.5 -147t-88 -129.5t-129.5 -91.5t-169.5 -35zM565 41q149 0 247.5 131.5t98.5 325.5q0 128 -43.5 238.5t-133 182.5t-208.5 72
q-165 0 -272 -128.5t-107 -315.5q0 -129 51 -244t148.5 -188.5t218.5 -73.5z" />
    <glyph glyph-name="divide" unicode="&#xf7;" horiz-adv-x="931" 
d="M467 762q-42 0 -69 27t-27 67q0 42 27 70t69 28t69 -28t27 -70q0 -40 -27 -67t-69 -27zM827 543h-723v65h723v-65zM467 197q-42 0 -69 27t-27 67q0 42 27 70t69 28t69 -28t27 -70q0 -40 -27 -67t-69 -27z" />
    <glyph glyph-name="oslash" unicode="&#xf8;" horiz-adv-x="1069" 
d="M924 1059l-80 -125q75 -79 113 -189.5t38 -218.5q0 -72 -16.5 -146t-52.5 -147t-88 -129.5t-129.5 -91.5t-169.5 -35q-144 0 -258 86l-66 -102h-74l92 143q-77 79 -118 189t-41 219q0 72 18 146t56.5 145.5t92.5 127.5t133.5 90t172.5 34q143 0 248 -78l53 82h76z
M147 547q0 -103 35.5 -201t98.5 -170l469 731q-97 84 -224 84q-165 0 -272 -128.5t-107 -315.5zM565 41q149 0 247.5 131.5t98.5 325.5q0 103 -30 197.5t-86 164.5l-469 -729q108 -90 239 -90z" />
    <glyph glyph-name="ugrave" unicode="&#xf9;" horiz-adv-x="993" 
d="M510 1126h-27q-286 277 -286 355q0 30 32 30q25 0 60 -31t93.5 -121t127.5 -233zM406 -23q-54 0 -95 16t-74.5 53t-51 105.5t-17.5 165.5v625h-133v21l194 61h21v-680q0 -303 194 -303q104 0 178.5 73.5t116.5 182.5v645h-133v21l195 61h20v-942h133v-21l-194 -61h-21
v215q-19 -41 -44.5 -78t-65.5 -75.5t-98 -61.5t-125 -23z" />
    <glyph glyph-name="uacute" unicode="&#xfa;" horiz-adv-x="993" 
d="M467 1126h-27q69 143 127.5 233t93.5 121t60 31q33 0 33 -30q0 -77 -287 -355zM406 -23q-54 0 -95 16t-74.5 53t-51 105.5t-17.5 165.5v625h-133v21l194 61h21v-680q0 -303 194 -303q104 0 178.5 73.5t116.5 182.5v645h-133v21l195 61h20v-942h133v-21l-194 -61h-21v215
q-19 -41 -44.5 -78t-65.5 -75.5t-98 -61.5t-125 -23z" />
    <glyph glyph-name="ucircumflex" unicode="&#xfb;" horiz-adv-x="993" 
d="M244 1085h-27q30 53 78 139q89 158 119.5 202t60.5 44t61.5 -45t119.5 -205q46 -84 75 -135h-26q-12 15 -60 71.5t-68 80.5t-51 64.5t-51 72.5q-12 -19 -25.5 -38t-31.5 -42t-30 -38.5t-36 -44t-33.5 -40t-38.5 -45t-36 -41.5zM406 -23q-54 0 -95 16t-74.5 53t-51 105.5
t-17.5 165.5v625h-133v21l194 61h21v-680q0 -303 194 -303q104 0 178.5 73.5t116.5 182.5v645h-133v21l195 61h20v-942h133v-21l-194 -61h-21v215q-19 -41 -44.5 -78t-65.5 -75.5t-98 -61.5t-125 -23z" />
    <glyph glyph-name="udieresis" unicode="&#xfc;" horiz-adv-x="993" 
d="M340 1309q-35 0 -56.5 21.5t-21.5 55.5t21.5 57t56.5 23q36 0 58 -23t22 -57t-22 -55.5t-58 -21.5zM606 1309q-35 0 -56.5 21.5t-21.5 55.5t21.5 57t56.5 23q36 0 58 -23t22 -57t-22 -55.5t-58 -21.5zM406 -23q-54 0 -95 16t-74.5 53t-51 105.5t-17.5 165.5v625h-133v21
l194 61h21v-680q0 -303 194 -303q104 0 178.5 73.5t116.5 182.5v645h-133v21l195 61h20v-942h133v-21l-194 -61h-21v215q-19 -41 -44.5 -78t-65.5 -75.5t-98 -61.5t-125 -23z" />
    <glyph glyph-name="yacute" unicode="&#xfd;" horiz-adv-x="1067" 
d="M518 1126h-26q69 143 127.5 233t93 121t59.5 31q33 0 33 -30q0 -77 -287 -355zM178 -424l-172 203l27 18q39 -44 109 -92.5t120 -48.5q38 0 75 32t68 86t54.5 109t44.5 117l-365 956l-147 48v20h399v-20l-162 -48l324 -856l295 856l-166 48v20h399v-20l-172 -48
l-315 -878q-30 -84 -49 -133.5t-45.5 -110t-48 -94.5t-51.5 -70t-61.5 -53.5t-72 -29t-88.5 -11.5z" />
    <glyph glyph-name="thorn" unicode="&#xfe;" horiz-adv-x="978" 
d="M360 -410h-348v21l133 33v1912h-131v21l195 61h20v-583q110 0 204.5 -20t162.5 -54t122 -81.5t88.5 -99.5t57 -111t32 -112.5t9.5 -107.5q0 -87 -25.5 -172.5t-72.5 -157.5t-124 -117t-171 -45q-98 0 -162.5 44t-122.5 120v-497l133 -33v-21zM498 41q134 0 228.5 113
t94.5 292q0 82 -20.5 161.5t-67 155.5t-114 133.5t-168.5 92.5t-222 35v-840q49 -61 118.5 -102t150.5 -41z" />
    <glyph glyph-name="ydieresis" unicode="&#xff;" horiz-adv-x="1067" 
d="M391 1309q-35 0 -56.5 21.5t-21.5 55.5t21.5 57t56.5 23q36 0 58 -23t22 -57t-22 -55.5t-58 -21.5zM657 1309q-35 0 -56 21.5t-21 55.5t21 57t56 23q36 0 58 -23t22 -57t-22 -55.5t-58 -21.5zM178 -424l-172 203l27 18q39 -44 109 -92.5t120 -48.5q38 0 75 32t68 86
t54.5 109t44.5 117l-365 956l-147 48v20h399v-20l-162 -48l324 -856l295 856l-166 48v20h399v-20l-172 -48l-315 -878q-30 -84 -49 -133.5t-45.5 -110t-48 -94.5t-51.5 -70t-61.5 -53.5t-72 -29t-88.5 -11.5z" />
    <glyph glyph-name="Amacron" unicode="&#x100;" horiz-adv-x="1536" 
d="M1040 1765h-538v78h538v-78zM356 0h-399v20l152 54l616 1499h61l654 -1499l145 -54v-20h-399v20l141 54l-268 628h-627l-252 -628l176 -54v-20zM735 1458l-278 -694h575z" />
    <glyph glyph-name="amacron" unicode="&#x101;" horiz-adv-x="960" 
d="M195 1311h538v-78h-538v78zM795 752v-670h131v-21l-195 -61h-20v252q-8 -26 -23.5 -57.5t-45.5 -71.5t-67 -72t-92 -54t-116 -22q-117 0 -191 75t-74 196q0 63 23.5 116.5t58.5 91t90 68.5t103.5 50t113.5 35.5t106 24t95 16.5q6 1 10.5 1.5t8.5 1.5v64q0 152 -69 222.5
t-171 70.5q-113 0 -187.5 -75t-74.5 -190q0 -59 20 -118h-30l-82 262q125 168 370 168q159 0 233.5 -73.5t74.5 -229.5zM389 37q55 0 107.5 23.5t93 62t71 81t50.5 87.5v332q-3 -1 -42 -9t-57.5 -12t-63 -16t-70.5 -22t-68 -28t-68 -36t-57 -44.5t-48.5 -55t-29.5 -66
t-12 -78.5q0 -91 50.5 -155t143.5 -64z" />
    <glyph glyph-name="Abreve" unicode="&#x102;" horiz-adv-x="1536" 
d="M772 1659q-53 0 -100 20.5t-87.5 63.5t-64.5 120.5t-24 180.5h26q0 -56 13 -106.5t41 -95t78.5 -71t117.5 -26.5t117.5 26.5t78.5 71t41 95t13 106.5h27q0 -103 -24 -180.5t-65 -120.5t-88 -63.5t-100 -20.5zM356 0h-399v20l152 54l616 1499h61l654 -1499l145 -54v-20
h-399v20l141 54l-268 628h-627l-252 -628l176 -54v-20zM735 1458l-278 -694h575z" />
    <glyph glyph-name="abreve" unicode="&#x103;" horiz-adv-x="960" 
d="M465 1126q-53 0 -100 20.5t-88 63.5t-65 120.5t-24 180.5h27q0 -56 13 -106.5t41 -95t78.5 -71t117.5 -26.5t117.5 26.5t78.5 71t41 95t13 106.5h26q0 -103 -24 -180.5t-64.5 -120.5t-87.5 -63.5t-100 -20.5zM795 752v-670h131v-21l-195 -61h-20v252q-8 -26 -23.5 -57.5
t-45.5 -71.5t-67 -72t-92 -54t-116 -22q-117 0 -191 75t-74 196q0 63 23.5 116.5t58.5 91t90 68.5t103.5 50t113.5 35.5t106 24t95 16.5q6 1 10.5 1.5t8.5 1.5v64q0 152 -69 222.5t-171 70.5q-113 0 -187.5 -75t-74.5 -190q0 -59 20 -118h-30l-82 262q125 168 370 168
q159 0 233.5 -73.5t74.5 -229.5zM389 37q55 0 107.5 23.5t93 62t71 81t50.5 87.5v332q-3 -1 -42 -9t-57.5 -12t-63 -16t-70.5 -22t-68 -28t-68 -36t-57 -44.5t-48.5 -55t-29.5 -66t-12 -78.5q0 -91 50.5 -155t143.5 -64z" />
    <glyph glyph-name="Aogonek" unicode="&#x104;" horiz-adv-x="1536" 
d="M1585 20v-20h-209q-112 -123 -112 -229q0 -56 30.5 -89.5t77.5 -33.5q54 0 111 57h18q-75 -111 -164 -111q-56 0 -94.5 40.5t-38.5 103.5q0 120 148 262h-166v20l141 54l-268 628h-627l-252 -628l176 -54v-20h-399v20l152 54l616 1499h61l654 -1499zM735 1458l-278 -694
h575z" />
    <glyph glyph-name="aogonek" unicode="&#x105;" horiz-adv-x="960" 
d="M926 61l-195 -61q-113 -124 -113 -229q0 -56 31 -89.5t78 -33.5q54 0 111 57h18q-75 -111 -164 -111q-56 0 -94.5 40.5t-38.5 103.5q0 127 152 266v248q-8 -26 -23.5 -57.5t-45.5 -71.5t-67 -72t-92 -54t-116 -22q-117 0 -191 75t-74 196q0 63 23.5 116.5t58.5 91
t90 68.5t103.5 50t113.5 35.5t106 24t95 16.5q6 1 10.5 1.5t8.5 1.5v64q0 152 -69 222.5t-171 70.5q-113 0 -187.5 -75t-74.5 -190q0 -59 20 -118h-30l-82 262q125 168 370 168q159 0 233.5 -73.5t74.5 -229.5v-670h131v-21zM389 37q55 0 107.5 23.5t93 62t71 81t50.5 87.5
v332q-3 -1 -42 -9t-57.5 -12t-63 -16t-70.5 -22t-68 -28t-68 -36t-57 -44.5t-48.5 -55t-29.5 -66t-12 -78.5q0 -91 50.5 -155t143.5 -64z" />
    <glyph glyph-name="Cacute" unicode="&#x106;" horiz-adv-x="1554" 
d="M809 1659h-27q69 143 127.5 233t93.5 121t60 31q33 0 33 -31q0 -76 -287 -354zM813 -23q-115 0 -222.5 33.5t-199 100t-160 159t-107 219t-38.5 271.5q0 174 61 325.5t166 258t252 168t314 61.5q103 0 196.5 -23t152 -55.5t92.5 -58t42 -39.5v-455h-31q0 121 -26 216.5
t-70 158t-105.5 104t-129.5 59t-146 17.5q-47 0 -98.5 -6t-119.5 -24.5t-129.5 -48.5t-123 -82.5t-106 -120.5t-72 -169t-27.5 -223q2 -120 26.5 -224t64 -181.5t93.5 -140t114.5 -103.5t128.5 -69t133.5 -40t131.5 -12q229 0 397.5 145.5t254.5 417.5h30
q-80 -286 -273.5 -462.5t-465.5 -176.5z" />
    <glyph glyph-name="cacute" unicode="&#x107;" horiz-adv-x="987" 
d="M512 1126h-27q69 143 127.5 233t93.5 121t60 31q33 0 33 -30q0 -77 -287 -355zM522 -23q-138 0 -241.5 75t-154 194t-50.5 262q0 106 31.5 203.5t89 174.5t147 123t197.5 46q124 0 214 -52t132 -108l-121 -350h-31q39 107 39 198q0 117 -64.5 182.5t-185.5 65.5
q-74 0 -140 -25.5t-119 -75.5t-84 -133.5t-31 -191.5q0 -223 119 -373.5t278 -150.5q143 0 232.5 75.5t160.5 243.5h31q-25 -80 -63.5 -147t-92.5 -121t-129.5 -84.5t-163.5 -30.5z" />
    <glyph glyph-name="Cdotaccent" unicode="&#x10a;" horiz-adv-x="1554" 
d="M817 1731q-37 0 -60.5 24.5t-23.5 61.5t23.5 61.5t60.5 24.5t60.5 -24.5t23.5 -61.5t-23.5 -61.5t-60.5 -24.5zM813 -23q-115 0 -222.5 33.5t-199 100t-160 159t-107 219t-38.5 271.5q0 174 61 325.5t166 258t252 168t314 61.5q103 0 196.5 -23t152 -55.5t92.5 -58
t42 -39.5v-455h-31q0 121 -26 216.5t-70 158t-105.5 104t-129.5 59t-146 17.5q-47 0 -98.5 -6t-119.5 -24.5t-129.5 -48.5t-123 -82.5t-106 -120.5t-72 -169t-27.5 -223q2 -120 26.5 -224t64 -181.5t93.5 -140t114.5 -103.5t128.5 -69t133.5 -40t131.5 -12
q229 0 397.5 145.5t254.5 417.5h30q-80 -286 -273.5 -462.5t-465.5 -176.5z" />
    <glyph glyph-name="cdotaccent" unicode="&#x10b;" horiz-adv-x="987" 
d="M520 1198q-37 0 -60.5 24.5t-23.5 61.5t23.5 61.5t60.5 24.5t60.5 -24.5t23.5 -61.5t-23.5 -61.5t-60.5 -24.5zM522 -23q-138 0 -241.5 75t-154 194t-50.5 262q0 106 31.5 203.5t89 174.5t147 123t197.5 46q124 0 214 -52t132 -108l-121 -350h-31q39 107 39 198
q0 117 -64.5 182.5t-185.5 65.5q-74 0 -140 -25.5t-119 -75.5t-84 -133.5t-31 -191.5q0 -223 119 -373.5t278 -150.5q143 0 232.5 75.5t160.5 243.5h31q-25 -80 -63.5 -147t-92.5 -121t-129.5 -84.5t-163.5 -30.5z" />
    <glyph glyph-name="Ccaron" unicode="&#x10c;" horiz-adv-x="1554" 
d="M817 1653q-30 0 -61 44.5t-119 201.5q-48 86 -78 139h27q7 -8 36 -41.5t38.5 -45t33.5 -40t36 -44t30 -38.5t31.5 -42t25.5 -38q20 32 51 72.5t51 64.5t68 80.5t60 71.5h26q-29 -51 -75 -135q-89 -160 -120 -205t-61 -45zM813 -23q-115 0 -222.5 33.5t-199 100t-160 159
t-107 219t-38.5 271.5q0 174 61 325.5t166 258t252 168t314 61.5q103 0 196.5 -23t152 -55.5t92.5 -58t42 -39.5v-455h-31q0 121 -26 216.5t-70 158t-105.5 104t-129.5 59t-146 17.5q-47 0 -98.5 -6t-119.5 -24.5t-129.5 -48.5t-123 -82.5t-106 -120.5t-72 -169t-27.5 -223
q2 -120 26.5 -224t64 -181.5t93.5 -140t114.5 -103.5t128.5 -69t133.5 -40t131.5 -12q229 0 397.5 145.5t254.5 417.5h30q-80 -286 -273.5 -462.5t-465.5 -176.5z" />
    <glyph glyph-name="ccaron" unicode="&#x10d;" horiz-adv-x="987" 
d="M520 1120q-30 0 -61 44.5t-119 201.5q-48 86 -78 139h27q10 -11 42 -48.5t44.5 -52t38.5 -46t41 -50.5t33 -44t32 -47q20 32 50.5 72t52 66t66.5 78.5t61 71.5h26q-29 -51 -75 -135q-89 -160 -120 -205t-61 -45zM522 -23q-138 0 -241.5 75t-154 194t-50.5 262
q0 106 31.5 203.5t89 174.5t147 123t197.5 46q124 0 214 -52t132 -108l-121 -350h-31q39 107 39 198q0 117 -64.5 182.5t-185.5 65.5q-74 0 -140 -25.5t-119 -75.5t-84 -133.5t-31 -191.5q0 -223 119 -373.5t278 -150.5q143 0 232.5 75.5t160.5 243.5h31q-25 -80 -63.5 -147
t-92.5 -121t-129.5 -84.5t-163.5 -30.5z" />
    <glyph glyph-name="Dcaron" unicode="&#x10e;" horiz-adv-x="1583" 
d="M696 1653q-30 0 -61 44.5t-119 201.5q-48 86 -78 139h27q7 -8 36 -41.5t38.5 -45t33.5 -40t36 -44t30 -38.5t31.5 -42t25.5 -38q20 32 51 72.5t51 64.5t68 80.5t60 71.5h26q-29 -51 -75 -135q-89 -160 -120 -205t-61 -45zM768 0h-688v20l153 54v1401l-153 61v20h686
q222 0 387.5 -99.5t252.5 -278t87 -414.5q0 -355 -194 -559.5t-531 -204.5zM326 1495v-1434h383q315 0 495 185t180 508q0 160 -47 296.5t-132.5 235t-213 154t-282.5 55.5h-383z" />
    <glyph glyph-name="dcaron" unicode="&#x10f;" horiz-adv-x="997" 
d="M831 0h-81q-153 0 -274 35.5t-194.5 91.5t-122 131t-67 148t-18.5 149q0 87 26 174t73.5 160.5t124 119.5t169.5 46q168 0 283 -162v663h-134v21l195 61h20v-1638zM954 1065h-20q94 123 94 211q0 49 -21.5 113.5t-52.5 101.5q0 41 24 60.5t58 19.5q40 0 65 -28.5
t25 -80.5q0 -76 -46 -193.5t-126 -203.5zM750 31v796q-49 68 -118.5 116t-150.5 48q-136 0 -229.5 -116.5t-93.5 -296.5q0 -102 34.5 -194t103 -169t185.5 -126.5t269 -57.5z" />
    <glyph glyph-name="Dcroat" unicode="&#x110;" horiz-adv-x="1585" 
d="M82 1556h686q222 0 387.5 -99.5t252.5 -278t87 -414.5q0 -355 -194 -559.5t-531 -204.5h-688v20l154 54v678h-136v51h136v672l-154 61v20zM328 61h383q315 0 495 185t180 508q0 160 -47 296.5t-132.5 235t-213 154t-282.5 55.5h-383v-692h270v-51h-270v-691z" />
    <glyph glyph-name="dcroat" unicode="&#x111;" horiz-adv-x="976" 
d="M831 1358h132v-51h-132v-1307h-81q-153 0 -274 35.5t-194.5 91.5t-122 131t-67 148t-18.5 149q0 87 26 174t73.5 160.5t124 119.5t169.5 46q168 0 283 -162v414h-285v51h285v198h-134v21l195 61h20v-280zM750 31v796q-49 68 -118.5 116t-150.5 48q-136 0 -229.5 -116.5
t-93.5 -296.5q0 -102 34.5 -194t103 -169t185.5 -126.5t269 -57.5z" />
    <glyph glyph-name="Emacron" unicode="&#x112;" horiz-adv-x="1099" 
d="M829 1765h-538v78h538v-78zM971 0h-891v20l153 54v1401l-153 61v20h870l72 -317h-21l-133 256h-542v-627h379l51 174h20v-409h-20l-51 174h-379v-746h563l133 256h20z" />
    <glyph glyph-name="emacron" unicode="&#x113;" horiz-adv-x="997" 
d="M782 1233h-538v78h538v-78zM528 -23q-109 0 -197.5 47t-142.5 124.5t-83 170.5t-29 191q0 145 59.5 270t164.5 200t230 75q164 0 267.5 -123.5t103.5 -323.5v-30h-756v-13q0 -144 54 -264t150 -190t214 -70q245 0 377 319h31q-53 -173 -164.5 -278t-278.5 -105zM156 639
h657q0 160 -77.5 256t-213.5 96q-143 0 -243.5 -100t-122.5 -252z" />
    <glyph glyph-name="Edotaccent" unicode="&#x116;" horiz-adv-x="1099" 
d="M561 1731q-37 0 -60.5 24.5t-23.5 61.5t23.5 61.5t60.5 24.5t60.5 -24.5t23.5 -61.5t-23.5 -61.5t-60.5 -24.5zM971 0h-891v20l153 54v1401l-153 61v20h870l72 -317h-21l-133 256h-542v-627h379l51 174h20v-409h-20l-51 174h-379v-746h563l133 256h20z" />
    <glyph glyph-name="edotaccent" unicode="&#x117;" horiz-adv-x="997" 
d="M514 1198q-37 0 -60.5 24.5t-23.5 61.5t23.5 61.5t60.5 24.5t60.5 -24.5t23.5 -61.5t-23.5 -61.5t-60.5 -24.5zM528 -23q-109 0 -197.5 47t-142.5 124.5t-83 170.5t-29 191q0 145 59.5 270t164.5 200t230 75q164 0 267.5 -123.5t103.5 -323.5v-30h-756v-13
q0 -144 54 -264t150 -190t214 -70q245 0 377 319h31q-53 -173 -164.5 -278t-278.5 -105zM156 639h657q0 160 -77.5 256t-213.5 96q-143 0 -243.5 -100t-122.5 -252z" />
    <glyph glyph-name="Eogonek" unicode="&#x118;" horiz-adv-x="1099" 
d="M897 -352q54 0 111 57h18q-75 -111 -164 -111q-56 0 -94.5 40.5t-38.5 103.5q0 120 148 262h-797v20l153 54v1401l-153 61v20h870l72 -317h-21l-133 256h-542v-627h379l51 174h20v-409h-20l-51 174h-379v-746h563l133 256h20l-71 -317h-70q-113 -124 -113 -229
q0 -56 31 -89.5t78 -33.5z" />
    <glyph glyph-name="eogonek" unicode="&#x119;" horiz-adv-x="997" 
d="M940 360h31q-42 -136 -121.5 -232.5t-194.5 -131.5q-108 -124 -108 -225q0 -56 30.5 -89.5t77.5 -33.5q54 0 111 57h18q-75 -111 -163 -111q-57 0 -95.5 40.5t-38.5 103.5q0 111 134 250q-53 -11 -93 -11q-109 0 -197.5 47t-142.5 124.5t-83 170.5t-29 191
q0 145 59.5 270t164.5 200t230 75q164 0 267.5 -123.5t103.5 -323.5v-30h-756v-13q0 -144 54 -264t150 -190t214 -70q245 0 377 319zM522 991q-143 0 -243.5 -100t-122.5 -252h657q0 160 -77.5 256t-213.5 96z" />
    <glyph glyph-name="Ecaron" unicode="&#x11a;" horiz-adv-x="1099" 
d="M561 1653q-30 0 -61 44.5t-119 201.5q-48 86 -78 139h27q7 -8 36 -41.5t38.5 -45t33.5 -40t36 -44t30 -38.5t31.5 -42t25.5 -38q20 32 51 72.5t51 64.5t68 80.5t60 71.5h26q-29 -51 -75 -135q-89 -160 -120 -205t-61 -45zM971 0h-891v20l153 54v1401l-153 61v20h870
l72 -317h-21l-133 256h-542v-627h379l51 174h20v-409h-20l-51 174h-379v-746h563l133 256h20z" />
    <glyph glyph-name="ecaron" unicode="&#x11b;" horiz-adv-x="997" 
d="M514 1120q-30 0 -61 44.5t-119 201.5q-48 86 -78 139h27q10 -11 42 -48.5t44.5 -52t38.5 -46t41 -50.5t33 -44t32 -47q20 32 51 72.5t50 64t68 80.5t60 71h27q-29 -51 -75 -135q-89 -160 -120 -205t-61 -45zM528 -23q-109 0 -197.5 47t-142.5 124.5t-83 170.5t-29 191
q0 145 59.5 270t164.5 200t230 75q164 0 267.5 -123.5t103.5 -323.5v-30h-756v-13q0 -144 54 -264t150 -190t214 -70q245 0 377 319h31q-53 -173 -164.5 -278t-278.5 -105zM156 639h657q0 160 -77.5 256t-213.5 96q-143 0 -243.5 -100t-122.5 -252z" />
    <glyph glyph-name="Gbreve" unicode="&#x11e;" horiz-adv-x="1572" 
d="M784 1659q-53 0 -100 20.5t-87.5 63.5t-64.5 120.5t-24 180.5h27q0 -56 13 -106.5t40.5 -95t78 -71t117.5 -26.5t117.5 26.5t78.5 71t41 95t13 106.5h27q0 -103 -24 -180.5t-65 -120.5t-88 -63.5t-100 -20.5zM831 -23q-222 0 -391.5 101.5t-260.5 282t-91 411.5
q0 178 61.5 329t168 254t253.5 160.5t316 57.5q102 0 194.5 -23t149.5 -55t90.5 -57.5t42.5 -40.5v-455h-31q0 267 -119 411t-366 144q-58 0 -116.5 -7.5t-126 -28t-126.5 -52.5t-115 -84t-96 -118t-64 -160.5t-24 -206.5q0 -225 88 -404t250 -281t369 -102q107 0 196 25.5
t146.5 66t97.5 92.5t57 103.5t17 99.5q0 36 -11 67t-27.5 54.5t-46 42.5t-56.5 32.5t-69.5 24.5t-73.5 17.5t-81 12.5t-80 8.5t-81.5 7t-75.5 6.5v30h651v-743h-43v256q-92 -133 -240 -206t-336 -73z" />
    <glyph glyph-name="gbreve" unicode="&#x11f;" horiz-adv-x="1005" 
d="M483 1126q-53 0 -100 20.5t-87.5 63.5t-64.5 120.5t-24 180.5h26q0 -56 13 -106.5t41 -95t78.5 -71t117.5 -26.5t117.5 26.5t78.5 71t41 95t13 106.5h27q0 -103 -24 -180.5t-65 -120.5t-88 -63.5t-100 -20.5zM356 -424l-223 250l27 18q61 -55 95 -84t81.5 -62.5t87.5 -48
t80 -14.5q134 0 194 81.5t60 260.5v23q-109 -25 -189 -25q-109 0 -195.5 36t-140 93.5t-88.5 134t-49 152t-14 154.5t14.5 153t45.5 139t75.5 113.5t108 76.5t139.5 28q99 0 165.5 -44t127.5 -122v135h20l195 -61v-21h-131v-825q0 -93 -4.5 -162t-17 -126t-29 -95.5t-47 -68
t-63.5 -46t-85 -26.5t-107 -13.5t-133 -3.5zM621 14q54 0 137 17v798q-119 162 -273 162q-136 0 -227.5 -115.5t-91.5 -314.5q0 -82 16.5 -159.5t52.5 -148t88.5 -123.5t129 -84.5t168.5 -31.5z" />
    <glyph glyph-name="Gdotaccent" unicode="&#x120;" horiz-adv-x="1572" 
d="M784 1731q-37 0 -60.5 24.5t-23.5 61.5t23.5 61.5t60.5 24.5t60.5 -24.5t23.5 -61.5t-23.5 -61.5t-60.5 -24.5zM831 -23q-222 0 -391.5 101.5t-260.5 282t-91 411.5q0 178 61.5 329t168 254t253.5 160.5t316 57.5q102 0 194.5 -23t149.5 -55t90.5 -57.5t42.5 -40.5v-455
h-31q0 267 -119 411t-366 144q-58 0 -116.5 -7.5t-126 -28t-126.5 -52.5t-115 -84t-96 -118t-64 -160.5t-24 -206.5q0 -225 88 -404t250 -281t369 -102q107 0 196 25.5t146.5 66t97.5 92.5t57 103.5t17 99.5q0 36 -11 67t-27.5 54.5t-46 42.5t-56.5 32.5t-69.5 24.5
t-73.5 17.5t-81 12.5t-80 8.5t-81.5 7t-75.5 6.5v30h651v-743h-43v256q-92 -133 -240 -206t-336 -73z" />
    <glyph glyph-name="gdotaccent" unicode="&#x121;" horiz-adv-x="1005" 
d="M483 1198q-37 0 -60.5 24.5t-23.5 61.5t23.5 61.5t60.5 24.5t60.5 -24.5t23.5 -61.5t-23.5 -61.5t-60.5 -24.5zM356 -424l-223 250l27 18q61 -55 95 -84t81.5 -62.5t87.5 -48t80 -14.5q134 0 194 81.5t60 260.5v23q-109 -25 -189 -25q-109 0 -195.5 36t-140 93.5
t-88.5 134t-49 152t-14 154.5t14.5 153t45.5 139t75.5 113.5t108 76.5t139.5 28q99 0 165.5 -44t127.5 -122v135h20l195 -61v-21h-131v-825q0 -93 -4.5 -162t-17 -126t-29 -95.5t-47 -68t-63.5 -46t-85 -26.5t-107 -13.5t-133 -3.5zM621 14q54 0 137 17v798
q-119 162 -273 162q-136 0 -227.5 -115.5t-91.5 -314.5q0 -82 16.5 -159.5t52.5 -148t88.5 -123.5t129 -84.5t168.5 -31.5z" />
    <glyph glyph-name="uni0122" unicode="&#x122;" horiz-adv-x="1572" 
d="M831 -23q-222 0 -391.5 101.5t-260.5 282t-91 411.5q0 178 61.5 329t168 254t253.5 160.5t316 57.5q102 0 194.5 -23t149.5 -55t90.5 -57.5t42.5 -40.5v-455h-31q0 267 -119 411t-366 144q-58 0 -116.5 -7.5t-126 -28t-126.5 -52.5t-115 -84t-96 -118t-64 -160.5
t-24 -206.5q0 -225 88 -404t250 -281t369 -102q107 0 196 25.5t146.5 66t97.5 92.5t57 103.5t17 99.5q0 36 -11 67t-27.5 54.5t-46 42.5t-56.5 32.5t-69.5 24.5t-73.5 17.5t-81 12.5t-80 8.5t-81.5 7t-75.5 6.5v30h651v-743h-43v256q-92 -133 -240 -206t-336 -73zM819 -102
q47 0 71.5 -40.5t24.5 -99.5q0 -114 -133 -258h-22q94 121 94 178q0 31 -16.5 51.5t-36.5 29.5t-36.5 27.5t-16.5 45.5q0 31 20 48.5t51 17.5z" />
    <glyph glyph-name="uni0123" unicode="&#x123;" horiz-adv-x="1005" 
d="M496 1200q-47 0 -72 40.5t-25 98.5q0 114 133 258h23q-94 -121 -94 -178q0 -25 11 -43t26.5 -27.5l31 -19t26.5 -25.5t11 -38q0 -31 -20 -48.5t-51 -17.5zM356 -424l-223 250l27 18q61 -55 95 -84t81.5 -62.5t87.5 -48t80 -14.5q134 0 194 81.5t60 260.5v23
q-109 -25 -189 -25q-109 0 -195.5 36t-140 93.5t-88.5 134t-49 152t-14 154.5t14.5 153t45.5 139t75.5 113.5t108 76.5t139.5 28q99 0 165.5 -44t127.5 -122v135h20l195 -61v-21h-131v-825q0 -93 -4.5 -162t-17 -126t-29 -95.5t-47 -68t-63.5 -46t-85 -26.5t-107 -13.5
t-133 -3.5zM621 14q54 0 137 17v798q-119 162 -273 162q-136 0 -227.5 -115.5t-91.5 -314.5q0 -82 16.5 -159.5t52.5 -148t88.5 -123.5t129 -84.5t168.5 -31.5z" />
    <glyph glyph-name="Hbar" unicode="&#x126;" horiz-adv-x="1490" 
d="M1411 1556v-20l-154 -61v-252h105v-78h-105v-1071l154 -54v-20h-399v20l153 54v714h-839v-714l153 -54v-20h-399v20l153 54v1071h-106v78h106v252l-153 61v20h399v-20l-153 -61v-252h839v252l-153 61v20h399zM326 850h839v295h-839v-295z" />
    <glyph glyph-name="hbar" unicode="&#x127;" horiz-adv-x="1038" 
d="M866 748v-695l133 -33v-20h-348v20l133 33v633q0 164 -54.5 234.5t-168.5 70.5q-101 0 -192 -96.5t-115 -212.5v-629l133 -33v-20h-348v20l133 33v1254h-147v51h147v198h-133v21l194 61h21v-280h268v-51h-268v-527q10 30 26 61t47.5 71t69.5 70.5t95.5 51.5t123.5 21
q250 0 250 -307z" />
    <glyph glyph-name="Imacron" unicode="&#x12a;" horiz-adv-x="559" 
d="M549 1765h-539v78h539v-78zM479 0h-399v20l153 54v1401l-153 61v20h399v-20l-153 -61v-1401l153 -54v-20z" />
    <glyph glyph-name="imacron" unicode="&#x12b;" horiz-adv-x="436" 
d="M471 1233h-539v78h539v-78zM397 0h-348v20l133 33v889h-133v21l195 61h20v-971l133 -33v-20z" />
    <glyph glyph-name="Iogonek" unicode="&#x12e;" horiz-adv-x="559" 
d="M479 1556v-20l-153 -61v-1401l153 -54v-20h-172q-112 -123 -112 -229q0 -56 30.5 -89.5t77.5 -33.5q54 0 111 57h18q-75 -111 -164 -111q-56 0 -94.5 40.5t-38.5 103.5q0 120 148 262h-203v20l153 54v1401l-153 61v20h399z" />
    <glyph glyph-name="iogonek" unicode="&#x12f;" horiz-adv-x="436" 
d="M209 1313q-37 0 -60.5 24.5t-23.5 61.5t23.5 61.5t60.5 24.5t60.5 -24.5t23.5 -61.5t-23.5 -61.5t-60.5 -24.5zM397 20v-20h-141q-113 -124 -113 -229q0 -56 31 -89.5t78 -33.5q53 0 110 57h19q-75 -111 -164 -111q-56 0 -94.5 40.5t-38.5 103.5q0 121 147 262h-182v20
l133 33v889h-133v21l195 61h20v-971z" />
    <glyph glyph-name="Idotaccent" unicode="&#x130;" horiz-adv-x="559" 
d="M281 1731q-37 0 -60.5 24.5t-23.5 61.5t23.5 61.5t60.5 24.5t60.5 -24.5t23.5 -61.5t-23.5 -61.5t-60.5 -24.5zM479 0h-399v20l153 54v1401l-153 61v20h399v-20l-153 -61v-1401l153 -54v-20z" />
    <glyph glyph-name="dotlessi" unicode="&#x131;" horiz-adv-x="436" 
d="M397 0h-348v20l133 33v889h-133v21l195 61h20v-971l133 -33v-20z" />
    <glyph glyph-name="uni0136" unicode="&#x136;" horiz-adv-x="1161" 
d="M479 0h-399v20l153 54v1401l-153 61v20h399v-20l-153 -61v-717l538 729l-147 49v20h399v-20l-194 -49l-439 -596l566 -817l143 -54v-20h-399v20l147 54l-518 733l-96 -133v-600l153 -54v-20zM598 -102q47 0 71.5 -40.5t24.5 -99.5q0 -114 -133 -258h-22q94 121 94 178
q0 25 -11 43t-26.5 28t-31.5 19.5t-27 25.5t-11 38q0 31 20.5 48.5t51.5 17.5z" />
    <glyph glyph-name="uni0137" unicode="&#x137;" horiz-adv-x="964" 
d="M387 0h-348v20l133 33v1503h-133v21l194 61h21v-1255l459 580l-187 41v20h400v-20l-162 -46l-275 -354l373 -551l121 -33v-20h-399v20l168 33l-322 475l-176 -225v-250l133 -33v-20zM496 -102q47 0 71.5 -40.5t24.5 -99.5q0 -114 -133 -258h-23q94 121 94 178
q0 31 -16.5 51.5t-36.5 29.5t-36.5 27.5t-16.5 45.5q0 31 20.5 48.5t51.5 17.5z" />
    <glyph glyph-name="Lacute" unicode="&#x139;" horiz-adv-x="1058" 
d="M287 1659h-27q69 143 127.5 233t93.5 121t60 31q32 0 32 -31q0 -77 -286 -354zM971 0h-891v20l153 54v1401l-153 61v20h399v-20l-153 -61v-1414h563l133 256h20z" />
    <glyph glyph-name="lacute" unicode="&#x13a;" horiz-adv-x="425" 
d="M205 1741h-27q69 143 127.5 233t93.5 121t60 31q33 0 33 -31q0 -76 -287 -354zM387 0h-348v20l133 33v1503h-133v21l194 61h21v-1585l133 -33v-20z" />
    <glyph glyph-name="uni013B" unicode="&#x13b;" horiz-adv-x="1058" 
d="M971 0h-891v20l153 54v1401l-153 61v20h399v-20l-153 -61v-1414h563l133 256h20zM555 -102q47 0 71.5 -40.5t24.5 -99.5q0 -114 -133 -258h-22q94 121 94 178q0 25 -11 43t-27 28t-31.5 19.5t-26.5 25t-11 38.5q0 31 20.5 48.5t51.5 17.5z" />
    <glyph glyph-name="uni013C" unicode="&#x13c;" horiz-adv-x="425" 
d="M387 0h-348v20l133 33v1503h-133v21l194 61h21v-1585l133 -33v-20zM186 -102q47 0 72 -41t25 -99q0 -114 -133 -258h-23q94 121 94 178q0 31 -16.5 51.5t-36.5 29.5t-36.5 27.5t-16.5 45.5q0 31 20 48.5t51 17.5z" />
    <glyph glyph-name="Lcaron" unicode="&#x13d;" horiz-adv-x="1067" 
d="M756 1151h-21q94 123 94 211q0 49 -21 113.5t-52 101.5q0 41 24 60.5t58 19.5q40 0 65 -28.5t25 -80.5q0 -76 -46 -193.5t-126 -203.5zM971 0h-891v20l153 54v1401l-153 61v20h399v-20l-153 -61v-1414h563l133 256h20z" />
    <glyph glyph-name="lcaron" unicode="&#x13e;" horiz-adv-x="446" 
d="M387 0h-348v20l133 33v1503h-133v21l194 61h21v-1585l133 -33v-20zM393 1065h-20q94 123 94 211q0 49 -21.5 113.5t-52.5 101.5q0 41 24 60.5t58 19.5q40 0 65 -28.5t25 -80.5q0 -76 -46 -193.5t-126 -203.5z" />
    <glyph glyph-name="Lslash" unicode="&#x141;" horiz-adv-x="1077" 
d="M907 61l133 256h21l-72 -317h-891v20l154 54v612l-162 -86v78l162 86v711l-154 61v20h400v-20l-154 -61v-662l274 145v-79l-274 -146v-672h563z" />
    <glyph glyph-name="lslash" unicode="&#x142;" horiz-adv-x="483" 
d="M432 958v-79l-147 -78v-748l133 -33v-20h-348v20l133 33v705l-154 -80v78l154 82v718h-133v21l194 61h21v-757z" />
    <glyph glyph-name="Nacute" unicode="&#x143;" horiz-adv-x="1386" 
d="M670 1659h-27q69 143 127.5 233t93.5 121t60 31q32 0 32 -31q0 -77 -286 -354zM479 0h-399v20l153 54v1401l-153 61v20h248l745 -1288v1207l-153 61v20h399v-20l-154 -61v-1475h-51l-786 1370v-1296l151 -54v-20z" />
    <glyph glyph-name="nacute" unicode="&#x144;" 
d="M520 1126h-26q69 143 127.5 233t93 121t59.5 31q33 0 33 -30q0 -77 -287 -355zM397 0h-348v20l133 33v889h-133v21l195 61h20v-246q10 30 26.5 61.5t48 72t70 71t96 51.5t122.5 21q250 0 250 -307v-695l133 -33v-20h-348v20l131 33v633q0 158 -62 231.5t-160 73.5
q-80 0 -147 -48t-105 -116t-55 -145v-629l133 -33v-20z" />
    <glyph glyph-name="uni0145" unicode="&#x145;" horiz-adv-x="1386" 
d="M479 0h-399v20l153 54v1401l-153 61v20h248l745 -1288v1207l-153 61v20h399v-20l-154 -61v-1475h-51l-786 1370v-1296l151 -54v-20zM713 -102q47 0 71.5 -40.5t24.5 -99.5q0 -114 -133 -258h-23q95 122 95 178q0 25 -11 43t-27 28t-31.5 19.5t-26.5 25.5t-11 38
q0 31 20.5 48.5t51.5 17.5z" />
    <glyph glyph-name="uni0146" unicode="&#x146;" 
d="M397 0h-348v20l133 33v889h-133v21l195 61h20v-246q10 30 26.5 61.5t48 72t70 71t96 51.5t122.5 21q250 0 250 -307v-695l133 -33v-20h-348v20l131 33v633q0 158 -62 231.5t-160 73.5q-80 0 -147 -48t-105 -116t-55 -145v-629l133 -33v-20zM522 -102q47 0 71.5 -40.5
t24.5 -99.5q0 -114 -133 -258h-22q94 121 94 178q0 31 -16.5 51.5t-36.5 29.5t-36.5 27.5t-16.5 45.5q0 31 20 48.5t51 17.5z" />
    <glyph glyph-name="Ncaron" unicode="&#x147;" horiz-adv-x="1386" 
d="M678 1653q-30 0 -61 44.5t-119 201.5q-48 86 -78 139h26q11 -12 42.5 -48.5t44.5 -52l39 -46.5t41 -50.5t33 -44.5t32 -47q16 26 36 53t46.5 60.5t44 54.5t53 63t49.5 58h27q-29 -51 -75 -135q-89 -160 -120 -205t-61 -45zM479 0h-399v20l153 54v1401l-153 61v20h248
l745 -1288v1207l-153 61v20h399v-20l-154 -61v-1475h-51l-786 1370v-1296l151 -54v-20z" />
    <glyph glyph-name="ncaron" unicode="&#x148;" 
d="M528 1120q-30 0 -61 44.5t-119 201.5q-48 86 -78 139h27q10 -11 42 -48.5t44.5 -52t38.5 -46t41 -50.5t33 -44t32 -47q20 32 50.5 72t52 66t66.5 78.5t61 71.5h26q-29 -51 -75 -135q-89 -160 -120 -205t-61 -45zM397 0h-348v20l133 33v889h-133v21l195 61h20v-246
q10 30 26.5 61.5t48 72t70 71t96 51.5t122.5 21q250 0 250 -307v-695l133 -33v-20h-348v20l131 33v633q0 158 -62 231.5t-160 73.5q-80 0 -147 -48t-105 -116t-55 -145v-629l133 -33v-20z" />
    <glyph glyph-name="Eng" unicode="&#x14a;" horiz-adv-x="1386" 
d="M858 -424q-125 0 -201.5 52t-126.5 136l164 416h31q-11 -34 -29 -86.5t-27.5 -82.5t-17.5 -69t-8 -73q0 -98 58.5 -157.5t162.5 -59.5q40 0 69 8.5t57 33t45 67.5t27.5 114.5t10.5 171.5v25l-745 1298v-1296l151 -54v-20h-399v20l153 54v1401l-153 61v20h248l745 -1288
v1207l-153 61v20h399v-20l-154 -61v-1475q-1 -76 -7.5 -134t-26.5 -115t-53 -93.5t-88.5 -59t-131.5 -22.5z" />
    <glyph glyph-name="eng" unicode="&#x14b;" horiz-adv-x="1009" 
d="M641 -424l-172 201l27 18q148 -157 215 -157q82 0 82 204v844q0 164 -54 234.5t-168 70.5q-101 0 -191.5 -97t-115.5 -212v-629l133 -33v-20h-348v20l133 33v889h-133v21l195 61h20v-246q10 30 26.5 61.5t47.5 72t69.5 71t96 51.5t123.5 21q250 0 250 -307v-891
q0 -164 -46 -222q-47 -59 -190 -59z" />
    <glyph glyph-name="Omacron" unicode="&#x14c;" horiz-adv-x="1648" 
d="M1094 1765h-539v78h539v-78zM797 -23q-143 0 -273.5 60.5t-227 164.5t-153.5 253.5t-57 318.5q0 141 40 268t111.5 222.5t165 166t204.5 106.5t227 36q145 0 278 -58t232.5 -159t159 -246.5t59.5 -310.5q0 -172 -64.5 -327t-171 -262.5t-245.5 -170t-285 -62.5zM842 53
q79 0 158 19.5t163 70t147.5 126t104.5 197.5t41 275q0 147 -37 272t-101 212.5t-148.5 150t-179 92t-193.5 29.5q-55 0 -111 -9t-118 -31t-117 -55t-106 -85.5t-87.5 -118t-58 -156.5t-21.5 -198q0 -149 41.5 -279.5t109.5 -222.5t155 -158.5t178.5 -98.5t179.5 -32z" />
    <glyph glyph-name="omacron" unicode="&#x14d;" horiz-adv-x="1069" 
d="M803 1233h-539v78h539v-78zM539 -23q-89 0 -166.5 33t-131 87t-92 124t-57 144t-18.5 147q0 72 18 146t56.5 145.5t92.5 127.5t133.5 90t172.5 34t170.5 -34t127.5 -88.5t85 -125t50 -141.5t15 -140q0 -72 -16.5 -146t-52.5 -147t-88 -129.5t-129.5 -91.5t-169.5 -35z
M565 41q149 0 247.5 131.5t98.5 325.5q0 128 -43.5 238.5t-133 182.5t-208.5 72q-165 0 -272 -128.5t-107 -315.5q0 -129 51 -244t148.5 -188.5t218.5 -73.5z" />
    <glyph glyph-name="Ohungarumlaut" unicode="&#x150;" horiz-adv-x="1648" 
d="M662 1659h-27q69 143 127.5 233t93 121t59.5 31q33 0 33 -31q0 -77 -286 -354zM932 1659h-27q69 143 127.5 233t93.5 121t60 31q33 0 33 -31q0 -76 -287 -354zM797 -23q-143 0 -273.5 60.5t-227 164.5t-153.5 253.5t-57 318.5q0 141 40 268t111.5 222.5t165 166
t204.5 106.5t227 36q145 0 278 -58t232.5 -159t159 -246.5t59.5 -310.5q0 -172 -64.5 -327t-171 -262.5t-245.5 -170t-285 -62.5zM842 53q79 0 158 19.5t163 70t147.5 126t104.5 197.5t41 275q0 147 -37 272t-101 212.5t-148.5 150t-179 92t-193.5 29.5q-55 0 -111 -9
t-118 -31t-117 -55t-106 -85.5t-87.5 -118t-58 -156.5t-21.5 -198q0 -149 41.5 -279.5t109.5 -222.5t155 -158.5t178.5 -98.5t179.5 -32z" />
    <glyph glyph-name="ohungarumlaut" unicode="&#x151;" horiz-adv-x="1069" 
d="M371 1126h-27q69 143 127.5 233t93.5 121t60 31q32 0 32 -30q0 -78 -286 -355zM641 1126h-27q69 143 127.5 233t93.5 121t60 31q33 0 33 -30q0 -77 -287 -355zM539 -23q-89 0 -166.5 33t-131 87t-92 124t-57 144t-18.5 147q0 72 18 146t56.5 145.5t92.5 127.5t133.5 90
t172.5 34t170.5 -34t127.5 -88.5t85 -125t50 -141.5t15 -140q0 -72 -16.5 -146t-52.5 -147t-88 -129.5t-129.5 -91.5t-169.5 -35zM565 41q149 0 247.5 131.5t98.5 325.5q0 128 -43.5 238.5t-133 182.5t-208.5 72q-165 0 -272 -128.5t-107 -315.5q0 -129 51 -244
t148.5 -188.5t218.5 -73.5z" />
    <glyph glyph-name="OE" unicode="&#x152;" horiz-adv-x="2023" 
d="M797 -23q-143 0 -273.5 61t-227 165.5t-153.5 253.5t-57 317q0 177 63.5 329.5t168.5 253.5t239.5 158.5t276.5 57.5q166 0 323 -80v63h717l72 -317h-21l-133 256h-543v-627h379l51 174h21v-409h-21l-51 174h-379v-746h563l134 256h20l-72 -317h-737v76
q-173 -99 -360 -99zM842 53q89 0 178.5 28t136.5 58v1247q-67 48 -161 79.5t-199 31.5q-78 0 -157 -18t-164 -64.5t-149.5 -117.5t-106.5 -188.5t-42 -264.5q0 -149 40.5 -279.5t107.5 -222.5t153.5 -158.5t179.5 -98.5t183 -32z" />
    <glyph glyph-name="oe" unicode="&#x153;" horiz-adv-x="1851" 
d="M539 -23q-89 0 -166.5 32.5t-131 86.5t-92 124t-57 144.5t-18.5 147.5q0 71 17.5 145t55.5 146t92 127.5t134 90t174 34.5q161 0 264.5 -93t151.5 -237q51 152 165 241t256 89q168 0 269.5 -122.5t101.5 -324.5v-24h-756v-19q0 -144 54 -264t150 -190t214 -70
q245 0 377 319h31q-53 -171 -166.5 -277t-276.5 -106q-83 0 -153.5 28.5t-121 78.5t-86.5 109.5t-58 128.5q-23 -70 -59.5 -129.5t-87.5 -109t-122.5 -78t-154.5 -28.5zM565 41q157 0 251.5 131t94.5 326q0 131 -44 241.5t-133.5 181t-207.5 70.5q-110 0 -197.5 -60.5
t-134.5 -161.5t-47 -222q0 -129 54.5 -245.5t151.5 -188.5t212 -72zM1010 639h657q0 160 -77.5 256t-213.5 96q-143 0 -243.5 -100t-122.5 -252z" />
    <glyph glyph-name="Racute" unicode="&#x154;" horiz-adv-x="1241" 
d="M604 1659h-26q69 143 127.5 233t93 121t59.5 31q33 0 33 -31q0 -76 -287 -354zM479 0h-399v20l153 54v1401l-153 61v20h592q77 0 148 -14.5t134.5 -45t110 -75.5t73.5 -110t27 -144q0 -191 -141.5 -307.5t-388.5 -116.5l409 -669l183 -54v-20h-441v20l150 54l-408 669
h-202v-669l153 -54v-20zM326 1495v-690h336q187 0 294 96.5t107 267.5q0 167 -104.5 246.5t-296.5 79.5h-336z" />
    <glyph glyph-name="racute" unicode="&#x155;" horiz-adv-x="741" 
d="M377 1126h-27q69 143 127.5 233t93.5 121t60 31q33 0 33 -30q0 -77 -287 -355zM397 0h-348v20l133 33v889h-133v21l195 61h20v-295h2q15 58 36.5 110.5t54.5 103.5t80 81.5t102 30.5q108 0 190 -129l-119 -308h-30q47 126 47 220q0 72 -29 116.5t-80 44.5q-50 0 -96 -47
t-77.5 -120.5t-52.5 -155.5t-28 -158v-465l133 -33v-20z" />
    <glyph glyph-name="uni0156" unicode="&#x156;" horiz-adv-x="1241" 
d="M479 0h-399v20l153 54v1401l-153 61v20h592q77 0 148 -14.5t134.5 -45t110 -75.5t73.5 -110t27 -144q0 -191 -141.5 -307.5t-388.5 -116.5l409 -669l183 -54v-20h-441v20l150 54l-408 669h-202v-669l153 -54v-20zM326 1495v-690h336q187 0 294 96.5t107 267.5
q0 167 -104.5 246.5t-296.5 79.5h-336zM627 -102q47 0 71.5 -40.5t24.5 -99.5q0 -114 -133 -258h-23q95 122 95 178q0 25 -11 43t-27 28t-31.5 19.5t-26.5 25.5t-11 38q0 31 20.5 48.5t51.5 17.5z" />
    <glyph glyph-name="uni0157" unicode="&#x157;" horiz-adv-x="741" 
d="M397 0h-348v20l133 33v889h-133v21l195 61h20v-295h2q15 58 36.5 110.5t54.5 103.5t80 81.5t102 30.5q108 0 190 -129l-119 -308h-30q47 126 47 220q0 72 -29 116.5t-80 44.5q-50 0 -96 -47t-77.5 -120.5t-52.5 -155.5t-28 -158v-465l133 -33v-20zM199 -102
q47 0 71.5 -40.5t24.5 -99.5q0 -114 -133 -258h-23q94 121 94 178q0 31 -16.5 51.5t-36.5 29.5t-36.5 27.5t-16.5 45.5q0 31 20.5 48.5t51.5 17.5z" />
    <glyph glyph-name="Rcaron" unicode="&#x158;" horiz-adv-x="1241" 
d="M612 1653q-30 0 -61 44.5t-119 201.5q-48 86 -78 139h27q7 -8 36 -41.5t38.5 -45t33.5 -40t36 -44t30 -38.5t31.5 -42t25.5 -38q20 32 51 72.5t51 64.5t68 80.5t60 71.5h26q-29 -51 -75 -135q-89 -160 -120 -205t-61 -45zM479 0h-399v20l153 54v1401l-153 61v20h592
q77 0 148 -14.5t134.5 -45t110 -75.5t73.5 -110t27 -144q0 -191 -141.5 -307.5t-388.5 -116.5l409 -669l183 -54v-20h-441v20l150 54l-408 669h-202v-669l153 -54v-20zM326 1495v-690h336q187 0 294 96.5t107 267.5q0 167 -104.5 246.5t-296.5 79.5h-336z" />
    <glyph glyph-name="rcaron" unicode="&#x159;" horiz-adv-x="741" 
d="M385 1120q-30 0 -61 44.5t-119 201.5q-48 86 -78 139h27q10 -11 42 -48.5t44.5 -52t38.5 -46t41 -50.5t33 -44t32 -47q20 32 51 72.5t50 64t68 80.5t60 71h27q-29 -51 -75 -135q-89 -160 -120 -205t-61 -45zM397 0h-348v20l133 33v889h-133v21l195 61h20v-295h2
q15 58 36.5 110.5t54.5 103.5t80 81.5t102 30.5q108 0 190 -129l-119 -308h-30q47 126 47 220q0 72 -29 116.5t-80 44.5q-50 0 -96 -47t-77.5 -120.5t-52.5 -155.5t-28 -158v-465l133 -33v-20z" />
    <glyph glyph-name="Sacute" unicode="&#x15a;" horiz-adv-x="1161" 
d="M571 1659h-26q69 143 127.5 233t93 121t59.5 31q33 0 33 -31q0 -76 -287 -354zM563 -23q-91 0 -174.5 22.5t-143.5 59t-103 76.5t-68 82l102 399h41q-37 -152 -37 -231q0 -85 29 -150.5t72 -102.5t100.5 -60.5t107 -31t99.5 -7.5q82 0 158 22.5t138.5 66.5t100 117.5
t37.5 166.5q0 35 -5 66t-17 57t-24 47.5t-34.5 41t-39.5 34t-48.5 29.5t-51.5 24.5t-58 22.5t-59 20t-64 20l-113 35q-32 10 -56 18t-62.5 25.5t-66.5 36t-60.5 48.5t-53 63.5t-34 80.5t-13.5 101q0 56 13 109t45 106.5t79.5 93t123 64t169.5 24.5q241 0 424 -166l-133 -303
h-41q53 112 53 199q0 57 -30 99.5t-78.5 64.5t-98 32t-100.5 10q-69 0 -134 -18t-120 -52t-88 -90.5t-33 -127.5q0 -58 23.5 -106t56 -79t82 -57.5t87.5 -39.5t85 -26l88 -24q35 -10 52 -15t55 -17.5t60.5 -23t58 -27.5t58 -35.5t51 -43.5t46 -54t34 -63.5t24 -76.5t7.5 -89
q0 -207 -144.5 -337t-373.5 -130z" />
    <glyph glyph-name="sacute" unicode="&#x15b;" horiz-adv-x="845" 
d="M416 1126h-27q69 143 127.5 233t93.5 121t60 31q32 0 32 -30q0 -78 -286 -355zM424 -23q-208 0 -346 166l98 275h29q-27 -80 -27 -156q0 -101 60 -164t186 -63q134 0 218.5 66.5t84.5 162.5q0 32 -10 58.5t-35 48.5t-49 38t-73 35t-84 31t-103 33q-122 38 -186 106.5
t-64 176.5q0 128 85.5 196t215.5 68q190 0 311 -146l-76 -223h-30q44 136 -17.5 222.5t-195.5 86.5q-101 0 -174.5 -52.5t-73.5 -141.5q0 -71 56.5 -115t195.5 -86q15 -5 51.5 -15.5t52.5 -15t47.5 -16t46.5 -19t40 -22t37.5 -28t28.5 -33.5t23.5 -42t13 -50.5t5.5 -61.5
q0 -154 -96 -237t-246 -83z" />
    <glyph glyph-name="Scedilla" unicode="&#x15e;" horiz-adv-x="1161" 
d="M1081 444q0 -193 -127 -320t-333 -144l-56 -97q78 0 117 -37.5t39 -95.5q0 -61 -45.5 -114.5t-118.5 -53.5q-58 0 -119 35v16q58 -22 107 -22q55 0 89 26.5t34 77.5q0 43 -39 75t-111 32v39l66 116h-21q-91 0 -174.5 22.5t-143.5 59t-103 76.5t-68 82l102 399h41
q-37 -152 -37 -231q0 -85 29 -150.5t72 -102.5t100.5 -60.5t107 -31t99.5 -7.5q82 0 158 22.5t138.5 66.5t100 117.5t37.5 166.5q0 35 -5 66t-17 57t-24 47.5t-34.5 41t-39.5 34t-48.5 29.5t-51.5 24.5t-58 22.5t-59 20t-64 20l-113 35q-32 10 -56 18t-62.5 25.5t-66.5 36
t-60.5 48.5t-53 63.5t-34 80.5t-13.5 101q0 56 13 109t45 106.5t79.5 93t123 64t169.5 24.5q241 0 424 -166l-133 -303h-41q53 112 53 199q0 57 -30 99.5t-78.5 64.5t-98 32t-100.5 10q-69 0 -134 -18t-120 -52t-88 -90.5t-33 -127.5q0 -58 23.5 -106t56 -79t82 -57.5
t87.5 -39.5t85 -26l88 -24q35 -10 52 -15t55 -17.5t60.5 -23t58 -27.5t58 -35.5t51 -43.5t46 -54t34 -63.5t24 -76.5t7.5 -89z" />
    <glyph glyph-name="scedilla" unicode="&#x15f;" horiz-adv-x="845" 
d="M766 297q0 -143 -83.5 -224.5t-217.5 -92.5l-55 -97q77 0 116 -37.5t39 -95.5q0 -61 -45.5 -114.5t-118.5 -53.5q-57 0 -118 35v16q58 -22 106 -22q55 0 89 26.5t34 77.5q0 43 -39 75t-111 32v39l66 116h-4q-208 0 -346 166l98 275h29q-27 -80 -27 -156q0 -101 60 -164
t186 -63q134 0 218.5 66.5t84.5 162.5q0 32 -10 58.5t-35 48.5t-49 38t-73 35t-84 31t-103 33q-122 38 -186 106.5t-64 176.5q0 128 85.5 196t215.5 68q190 0 311 -146l-76 -223h-30q44 136 -17.5 222.5t-195.5 86.5q-101 0 -174.5 -52.5t-73.5 -141.5q0 -71 56.5 -115
t195.5 -86q15 -5 51.5 -15.5t52.5 -15t47.5 -16t46.5 -19t40 -22t37.5 -28t28.5 -33.5t23.5 -42t13 -50.5t5.5 -61.5z" />
    <glyph glyph-name="Scaron" unicode="&#x160;" horiz-adv-x="1161" 
d="M580 1653q-30 0 -61 44.5t-119 201.5q-48 86 -78 139h26q11 -12 42.5 -48.5t44.5 -52l39 -46.5t41 -50.5t33 -44.5t32 -47q16 26 36 53t46.5 60.5t44 54.5t53 63t49.5 58h27q-29 -51 -75 -135q-89 -160 -120 -205t-61 -45zM563 -23q-91 0 -174.5 22.5t-143.5 59
t-103 76.5t-68 82l102 399h41q-37 -152 -37 -231q0 -85 29 -150.5t72 -102.5t100.5 -60.5t107 -31t99.5 -7.5q82 0 158 22.5t138.5 66.5t100 117.5t37.5 166.5q0 35 -5 66t-17 57t-24 47.5t-34.5 41t-39.5 34t-48.5 29.5t-51.5 24.5t-58 22.5t-59 20t-64 20l-113 35
q-32 10 -56 18t-62.5 25.5t-66.5 36t-60.5 48.5t-53 63.5t-34 80.5t-13.5 101q0 56 13 109t45 106.5t79.5 93t123 64t169.5 24.5q241 0 424 -166l-133 -303h-41q53 112 53 199q0 57 -30 99.5t-78.5 64.5t-98 32t-100.5 10q-69 0 -134 -18t-120 -52t-88 -90.5t-33 -127.5
q0 -58 23.5 -106t56 -79t82 -57.5t87.5 -39.5t85 -26l88 -24q35 -10 52 -15t55 -17.5t60.5 -23t58 -27.5t58 -35.5t51 -43.5t46 -54t34 -63.5t24 -76.5t7.5 -89q0 -207 -144.5 -337t-373.5 -130z" />
    <glyph glyph-name="scaron" unicode="&#x161;" horiz-adv-x="845" 
d="M424 1120q-30 0 -61 44.5t-119 201.5q-48 86 -78 139h27q10 -11 42 -48.5t44.5 -52t38.5 -46t41 -50.5t33 -44t32 -47q20 32 51 72.5t50 64t68 80.5t60 71h27q-29 -51 -75 -135q-89 -160 -120 -205t-61 -45zM424 -23q-208 0 -346 166l98 275h29q-27 -80 -27 -156
q0 -101 60 -164t186 -63q134 0 218.5 66.5t84.5 162.5q0 32 -10 58.5t-35 48.5t-49 38t-73 35t-84 31t-103 33q-122 38 -186 106.5t-64 176.5q0 128 85.5 196t215.5 68q190 0 311 -146l-76 -223h-30q44 136 -17.5 222.5t-195.5 86.5q-101 0 -174.5 -52.5t-73.5 -141.5
q0 -71 56.5 -115t195.5 -86q15 -5 51.5 -15.5t52.5 -15t47.5 -16t46.5 -19t40 -22t37.5 -28t28.5 -33.5t23.5 -42t13 -50.5t5.5 -61.5q0 -154 -96 -237t-246 -83z" />
    <glyph glyph-name="uni0162" unicode="&#x162;" horiz-adv-x="1353" 
d="M88 1556h1178l71 -317h-20l-133 256h-461v-1421l154 -54v-20h-154l-68 -117q78 0 117 -37.5t39 -95.5q0 -61 -45.5 -114.5t-118.5 -53.5q-58 0 -119 35v16q58 -22 107 -22q55 0 89 26.5t34 77.5q0 43 -39 75t-111 32v39l80 139h-211v20l154 54v1421h-461l-133 -256h-21z
" />
    <glyph glyph-name="uni0163" unicode="&#x163;" horiz-adv-x="608" 
d="M358 -23h-8l-53 -94q78 0 117 -37.5t39 -95.5q0 -61 -45.5 -114.5t-118.5 -53.5q-58 0 -119 35v16q58 -22 106 -22q55 0 89 26.5t34 77.5q0 44 -38.5 75.5t-110.5 31.5v39l67 121q-72 12 -107.5 82t-35.5 212v697h-156v20l158 31l49 348h31v-348h270v-51h-270v-686
q0 -138 33 -197t106 -59q116 0 176 166h31q-31 -111 -94.5 -165.5t-149.5 -54.5z" />
    <glyph glyph-name="Tcaron" unicode="&#x164;" horiz-adv-x="1353" 
d="M678 1653q-30 0 -61 44.5t-119 201.5q-48 86 -78 139h26q11 -12 42.5 -48.5t44.5 -52l39 -46.5t41 -50.5t33 -44.5t32 -47q16 26 36 53t46.5 60.5t44 54.5t53 63t49.5 58h27q-29 -51 -75 -135q-89 -160 -120 -205t-61 -45zM877 0h-400v20l154 54v1421h-461l-133 -256h-21
l72 317h1178l71 -317h-20l-133 256h-461v-1421l154 -54v-20z" />
    <glyph glyph-name="tcaron" unicode="&#x165;" horiz-adv-x="608" 
d="M553 1065h-21q95 125 95 211q0 49 -21.5 113.5t-52.5 101.5q0 41 24 60.5t58 19.5q40 0 65 -28.5t25 -80.5q0 -76 -46 -193.5t-126 -203.5zM358 -23q-93 0 -138.5 70t-45.5 229v697h-156v20l158 31l49 348h31v-348h270v-51h-270v-686q0 -138 33 -197t106 -59
q116 0 176 166h31q-31 -111 -94.5 -165.5t-149.5 -54.5z" />
    <glyph glyph-name="Tbar" unicode="&#x166;" horiz-adv-x="1353" 
d="M88 1556h1178l71 -317h-20l-133 256h-461v-692h203v-51h-203v-678l154 -54v-20h-400v20l154 54v678h-203v51h203v692h-461l-133 -256h-21z" />
    <glyph glyph-name="tbar" unicode="&#x167;" horiz-adv-x="614" 
d="M573 197h31q-31 -111 -94.5 -165.5t-149.5 -54.5q-93 0 -138.5 70t-45.5 229v209h-113v52h113v436h-156v20l158 31l49 348h31v-348h270v-51h-270v-436h303v-52h-303v-198q0 -138 33 -197t106 -59q116 0 176 166z" />
    <glyph glyph-name="Umacron" unicode="&#x16a;" horiz-adv-x="1433" 
d="M985 1765h-539v78h539v-78zM719 -23q-144 0 -246 44.5t-159.5 128.5t-83 191t-25.5 247v887l-154 61v20h400v-20l-154 -61v-887q0 -145 31 -249t90 -164t136.5 -87t178.5 -27q102 0 175 27t125.5 88t78 163t25.5 249v887l-154 61v20h399v-20l-153 -61v-887
q0 -145 -26.5 -253.5t-84.5 -191t-158 -124.5t-241 -42z" />
    <glyph glyph-name="umacron" unicode="&#x16b;" horiz-adv-x="993" 
d="M743 1233h-538v78h538v-78zM406 -23q-54 0 -95 16t-74.5 53t-51 105.5t-17.5 165.5v625h-133v21l194 61h21v-680q0 -303 194 -303q104 0 178.5 73.5t116.5 182.5v645h-133v21l195 61h20v-942h133v-21l-194 -61h-21v215q-19 -41 -44.5 -78t-65.5 -75.5t-98 -61.5t-125 -23
z" />
    <glyph glyph-name="Uring" unicode="&#x16e;" horiz-adv-x="1433" 
d="M717 1704q-69 0 -117.5 49t-48.5 117t48.5 116t117.5 48q66 0 115 -48.5t49 -115.5t-49 -116.5t-115 -49.5zM717 1751q46 0 81.5 36t35.5 83t-35.5 82t-81.5 35q-49 0 -84 -34.5t-35 -82.5t35 -83.5t84 -35.5zM719 -23q-144 0 -246 44.5t-159.5 128.5t-83 191t-25.5 247
v887l-154 61v20h400v-20l-154 -61v-887q0 -145 31 -249t90 -164t136.5 -87t178.5 -27q102 0 175 27t125.5 88t78 163t25.5 249v887l-154 61v20h399v-20l-153 -61v-887q0 -145 -26.5 -253.5t-84.5 -191t-158 -124.5t-241 -42z" />
    <glyph glyph-name="uring" unicode="&#x16f;" horiz-adv-x="993" 
d="M475 1171q-69 0 -117.5 49t-48.5 117t48.5 116t117.5 48q66 0 115 -48.5t49 -115.5t-49 -116.5t-115 -49.5zM475 1219q46 0 81.5 35.5t35.5 82.5t-35.5 82t-81.5 35q-49 0 -84 -34.5t-35 -82.5t35 -83t84 -35zM406 -23q-54 0 -95 16t-74.5 53t-51 105.5t-17.5 165.5v625
h-133v21l194 61h21v-680q0 -303 194 -303q104 0 178.5 73.5t116.5 182.5v645h-133v21l195 61h20v-942h133v-21l-194 -61h-21v215q-19 -41 -44.5 -78t-65.5 -75.5t-98 -61.5t-125 -23z" />
    <glyph glyph-name="Uhungarumlaut" unicode="&#x170;" horiz-adv-x="1433" 
d="M553 1659h-27q69 143 127.5 233t93.5 121t60 31q33 0 33 -31q0 -76 -287 -354zM823 1659h-26q69 143 127.5 233t93 121t59.5 31q33 0 33 -31q0 -76 -287 -354zM719 -23q-144 0 -246 44.5t-159.5 128.5t-83 191t-25.5 247v887l-154 61v20h400v-20l-154 -61v-887
q0 -145 31 -249t90 -164t136.5 -87t178.5 -27q102 0 175 27t125.5 88t78 163t25.5 249v887l-154 61v20h399v-20l-153 -61v-887q0 -145 -26.5 -253.5t-84.5 -191t-158 -124.5t-241 -42z" />
    <glyph glyph-name="uhungarumlaut" unicode="&#x171;" horiz-adv-x="993" 
d="M311 1126h-26q69 143 127.5 233t93 121t59.5 31q33 0 33 -30q0 -77 -287 -355zM582 1126h-27q69 143 127.5 233t93.5 121t60 31q32 0 32 -30q0 -78 -286 -355zM406 -23q-54 0 -95 16t-74.5 53t-51 105.5t-17.5 165.5v625h-133v21l194 61h21v-680q0 -303 194 -303
q104 0 178.5 73.5t116.5 182.5v645h-133v21l195 61h20v-942h133v-21l-194 -61h-21v215q-19 -41 -44.5 -78t-65.5 -75.5t-98 -61.5t-125 -23z" />
    <glyph glyph-name="Uogonek" unicode="&#x172;" horiz-adv-x="1433" 
d="M983 1536v20h399v-20l-153 -61v-887q0 -281 -105.5 -436t-349.5 -172q-94 -112 -94 -209q0 -56 30.5 -89.5t77.5 -33.5q54 0 111 57h19q-75 -111 -164 -111q-56 0 -94.5 40.5t-38.5 103.5q0 115 124 239h-26q-144 0 -246 44.5t-159.5 128.5t-83 191t-25.5 247v887
l-154 61v20h400v-20l-154 -61v-887q0 -145 31 -249t90 -164t136.5 -87t178.5 -27q102 0 175 27t125.5 88t78 163t25.5 249v887z" />
    <glyph glyph-name="uogonek" unicode="&#x173;" horiz-adv-x="993" 
d="M954 61l-194 -61q-113 -124 -113 -229q0 -56 31 -89.5t78 -33.5q53 0 110 57h19q-75 -111 -164 -111q-56 0 -94.5 40.5t-38.5 103.5q0 128 151 266v211q-19 -41 -44.5 -78t-65.5 -75.5t-98 -61.5t-125 -23q-54 0 -95 16t-74.5 53t-51 105.5t-17.5 165.5v625h-133v21
l194 61h21v-680q0 -303 194 -303q104 0 178.5 73.5t116.5 182.5v645h-133v21l195 61h20v-942h133v-21z" />
    <glyph glyph-name="Wcircumflex" unicode="&#x174;" horiz-adv-x="2187" 
d="M860 1618h-26q30 53 78 139q89 158 119.5 202t60.5 44t61.5 -45t119.5 -205q46 -84 75 -135h-27q-14 16 -49.5 58t-53 63t-44 54.5t-46.5 60.5t-36 53q-14 -22 -32 -47t-33 -44.5t-41 -50.5l-39 -46.5t-44.5 -52t-42.5 -48.5zM639 0h-61l-474 1475l-155 61v20h399v-20
l-133 -61l412 -1311l440 1392h68l475 -1392l401 1311l-176 61v20h399v-20l-159 -61l-455 -1475h-61l-476 1403z" />
    <glyph glyph-name="wcircumflex" unicode="&#x175;" horiz-adv-x="1529" 
d="M539 1085h-27q30 53 78 139q89 158 119.5 202t60.5 44t61.5 -45t119.5 -205q46 -84 75 -135h-27q-14 16 -49.5 58t-53 63t-44 54.5t-46.5 60.5t-36 53q-12 -19 -25.5 -38t-31.5 -42t-30 -38.5t-36 -44t-33.5 -40t-38.5 -45t-36 -41.5zM496 0h-62l-293 956l-151 48v20h399
v-20l-158 -48l246 -843l264 911h72l258 -911l246 843l-166 48v20h399v-20l-176 -48l-284 -956h-62l-266 924z" />
    <glyph glyph-name="Ycircumflex" unicode="&#x176;" horiz-adv-x="1265" 
d="M401 1618h-26q30 53 78 139q89 158 119.5 202t60.5 44t61.5 -45t119.5 -205q46 -84 75 -135h-27q-14 16 -49.5 58t-53 63t-44 54.5t-46.5 60.5t-36 53q-14 -22 -32 -47t-33 -44.5t-41 -50.5l-39 -46.5t-44.5 -52t-42.5 -48.5zM840 0h-400v20l154 54v501l-500 912l-135 49
v20h399v-20l-149 -49l459 -825l432 825l-195 49v20h400v-20l-144 -49l-475 -899v-514l154 -54v-20z" />
    <glyph glyph-name="ycircumflex" unicode="&#x177;" horiz-adv-x="1067" 
d="M295 1085h-27q30 53 78 139q89 158 119.5 202t60.5 44t61.5 -45t119.5 -205q46 -84 75 -135h-26q-12 15 -60 71.5t-68 80.5t-51 64.5t-51 72.5q-12 -19 -25.5 -38t-31.5 -42t-30 -38.5t-36 -44t-33.5 -40t-38.5 -45t-36 -41.5zM178 -424l-172 203l27 18q39 -44 109 -92.5
t120 -48.5q38 0 75 32t68 86t54.5 109t44.5 117l-365 956l-147 48v20h399v-20l-162 -48l324 -856l295 856l-166 48v20h399v-20l-172 -48l-315 -878q-30 -84 -49 -133.5t-45.5 -110t-48 -94.5t-51.5 -70t-61.5 -53.5t-72 -29t-88.5 -11.5z" />
    <glyph glyph-name="Ydieresis" unicode="&#x178;" horiz-adv-x="1265" 
d="M498 1739q-35 0 -56.5 22t-21.5 56t21.5 56.5t56.5 22.5q36 0 58 -22.5t22 -56.5t-22 -56t-58 -22zM764 1739q-35 0 -56.5 22t-21.5 56t21.5 56.5t56.5 22.5q36 0 58 -22.5t22 -56.5t-22 -56t-58 -22zM840 0h-400v20l154 54v501l-500 912l-135 49v20h399v-20l-149 -49
l459 -825l432 825l-195 49v20h400v-20l-144 -49l-475 -899v-514l154 -54v-20z" />
    <glyph glyph-name="Zacute" unicode="&#x179;" 
d="M518 1659h-26q69 143 127.5 233t93 121t59.5 31q33 0 33 -31q0 -76 -287 -354zM936 0h-881l-10 20l803 1475h-629l-133 -266h-20l71 327h819l11 -20l-795 -1475h682l133 256h21z" />
    <glyph glyph-name="zacute" unicode="&#x17a;" horiz-adv-x="835" 
d="M416 1126h-27q69 143 127.5 233t93.5 121t60 31q32 0 32 -30q0 -78 -286 -355zM715 0h-645l-11 20l568 943h-381l-144 -267h-20l72 328h583l11 -20l-562 -943h437l143 256h20z" />
    <glyph glyph-name="Zdotaccent" unicode="&#x17b;" 
d="M526 1731q-37 0 -60.5 24.5t-23.5 61.5t23.5 61.5t60.5 24.5t60.5 -24.5t23.5 -61.5t-23.5 -61.5t-60.5 -24.5zM936 0h-881l-10 20l803 1475h-629l-133 -266h-20l71 327h819l11 -20l-795 -1475h682l133 256h21z" />
    <glyph glyph-name="zdotaccent" unicode="&#x17c;" horiz-adv-x="835" 
d="M424 1198q-37 0 -60.5 24.5t-23.5 61.5t23.5 61.5t60.5 24.5t60.5 -24.5t23.5 -61.5t-23.5 -61.5t-60.5 -24.5zM715 0h-645l-11 20l568 943h-381l-144 -267h-20l72 328h583l11 -20l-562 -943h437l143 256h20z" />
    <glyph glyph-name="Zcaron" unicode="&#x17d;" 
d="M526 1653q-30 0 -61 44.5t-119 201.5q-48 86 -78 139h27q7 -8 36 -41.5t38.5 -45t33.5 -40t36 -44t30 -38.5t31.5 -42t25.5 -38q20 32 51 72.5t51 64.5t68 80.5t60 71.5h26q-29 -51 -75 -135q-89 -160 -120 -205t-61 -45zM936 0h-881l-10 20l803 1475h-629l-133 -266h-20
l71 327h819l11 -20l-795 -1475h682l133 256h21z" />
    <glyph glyph-name="zcaron" unicode="&#x17e;" horiz-adv-x="835" 
d="M424 1120q-30 0 -61 44.5t-119 201.5q-48 86 -78 139h27q10 -11 42 -48.5t44.5 -52t38.5 -46t41 -50.5t33 -44t32 -47q20 32 51 72.5t50 64t68 80.5t60 71h27q-29 -51 -75 -135q-89 -160 -120 -205t-61 -45zM715 0h-645l-11 20l568 943h-381l-144 -267h-20l72 328h583
l11 -20l-562 -943h437l143 256h20z" />
    <glyph glyph-name="uni018F" unicode="&#x18f;" horiz-adv-x="1601" 
d="M739 1573q233 0 410 -99.5t270.5 -274.5t93.5 -400q0 -151 -38.5 -282.5t-107.5 -229.5t-162.5 -168.5t-204.5 -106t-232 -35.5q-138 0 -264.5 56t-220.5 152.5t-149.5 234.5t-55.5 293q0 25 4 75h1325q-7 178 -62 316.5t-148.5 227.5t-219 135t-275.5 46q-76 0 -143 -18
t-129.5 -60.5t-107.5 -107t-72 -163t-27 -222.5h-30v455q6 10 30 29t73 44.5t110 48t149.5 38.5t183.5 16zM813 53q58 0 112.5 7.5t115 28t111.5 53t98.5 85t81 121t54 165.5t21.5 214h-1237q5 -125 47 -235.5t108.5 -189t149 -136t169.5 -85.5t169 -28z" />
    <glyph glyph-name="florin" unicode="&#x192;" horiz-adv-x="976" 
d="M221 -25q-62 0 -106.5 25t-59.5 66l27 274h37q-37 -334 110 -334q45 0 79.5 27.5t57 83.5t37 122.5t21.5 164t9.5 187.5t2.5 212h-260v65h260v86q0 333 59 476t210 143q95 0 146.5 -45t70.5 -105l-27 -276h-37q27 391 -160 391q-111 0 -151 -148.5t-37 -521.5h307v-65
h-307v-96q0 -91 -2.5 -162t-9.5 -150t-19.5 -137.5t-34.5 -114.5t-52 -91t-73.5 -56t-97.5 -21z" />
    <glyph glyph-name="uni0218" unicode="&#x218;" horiz-adv-x="1161" 
d="M563 -23q-91 0 -174.5 22.5t-143.5 59t-103 76.5t-68 82l102 399h41q-37 -152 -37 -231q0 -85 29 -150.5t72 -102.5t100.5 -60.5t107 -31t99.5 -7.5q82 0 158 22.5t138.5 66.5t100 117.5t37.5 166.5q0 35 -5 66t-17 57t-24 47.5t-34.5 41t-39.5 34t-48.5 29.5t-51.5 24.5
t-58 22.5t-59 20t-64 20l-113 35q-32 10 -56 18t-62.5 25.5t-66.5 36t-60.5 48.5t-53 63.5t-34 80.5t-13.5 101q0 56 13 109t45 106.5t79.5 93t123 64t169.5 24.5q241 0 424 -166l-133 -303h-41q53 112 53 199q0 57 -30 99.5t-78.5 64.5t-98 32t-100.5 10q-69 0 -134 -18
t-120 -52t-88 -90.5t-33 -127.5q0 -58 23.5 -106t56 -79t82 -57.5t87.5 -39.5t85 -26l88 -24q35 -10 52 -15t55 -17.5t60.5 -23t58 -27.5t58 -35.5t51 -43.5t46 -54t34 -63.5t24 -76.5t7.5 -89q0 -207 -144.5 -337t-373.5 -130zM553 -102q47 0 71.5 -40.5t24.5 -99.5
q0 -114 -133 -258h-22q94 121 94 178q0 25 -11 43t-27 28t-31.5 19.5t-26.5 25t-11 38.5q0 31 20.5 48.5t51.5 17.5z" />
    <glyph glyph-name="uni0219" unicode="&#x219;" horiz-adv-x="845" 
d="M424 -23q-208 0 -346 166l98 275h29q-27 -80 -27 -156q0 -101 60 -164t186 -63q134 0 218.5 66.5t84.5 162.5q0 32 -10 58.5t-35 48.5t-49 38t-73 35t-84 31t-103 33q-122 38 -186 106.5t-64 176.5q0 128 85.5 196t215.5 68q190 0 311 -146l-76 -223h-30
q44 136 -17.5 222.5t-195.5 86.5q-101 0 -174.5 -52.5t-73.5 -141.5q0 -71 56.5 -115t195.5 -86q15 -5 51.5 -15.5t52.5 -15t47.5 -16t46.5 -19t40 -22t37.5 -28t28.5 -33.5t23.5 -42t13 -50.5t5.5 -61.5q0 -154 -96 -237t-246 -83zM397 -102q47 0 72 -41t25 -99
q0 -113 -134 -258h-22q94 121 94 178q0 31 -16.5 51.5t-36.5 29.5t-36.5 27.5t-16.5 45.5q0 31 20 48.5t51 17.5z" />
    <glyph glyph-name="uni021A" unicode="&#x21a;" horiz-adv-x="1353" 
d="M877 0h-400v20l154 54v1421h-461l-133 -256h-21l72 317h1178l71 -317h-20l-133 256h-461v-1421l154 -54v-20zM643 -102q47 0 71.5 -40.5t24.5 -99.5q0 -114 -133 -258h-22q94 121 94 178q0 25 -11 43t-27 28t-31.5 19.5t-26.5 25.5t-11 38q0 31 20.5 48.5t51.5 17.5z" />
    <glyph glyph-name="uni021B" unicode="&#x21b;" horiz-adv-x="608" 
d="M358 -23q-93 0 -138.5 70t-45.5 229v697h-156v20l158 31l49 348h31v-348h270v-51h-270v-686q0 -138 33 -197t106 -59q116 0 176 166h31q-31 -111 -94.5 -165.5t-149.5 -54.5zM285 -102q47 0 71.5 -40.5t24.5 -99.5q0 -114 -133 -258h-23q94 121 94 178q0 31 -16.5 51.5
t-36.5 29.5t-36.5 27.5t-16.5 45.5q0 31 20.5 48.5t51.5 17.5z" />
    <glyph glyph-name="uni0259" unicode="&#x259;" horiz-adv-x="1003" 
d="M477 1055q88 0 163 -31t127.5 -83.5t90 -121.5t55 -144.5t17.5 -152.5q0 -145 -59.5 -270t-165 -200t-230.5 -75q-164 0 -267.5 123.5t-103.5 323.5v31h756v12q0 144 -54 264t-150 190t-214 70q-244 0 -376 -319h-31q54 173 164.5 278t277.5 105zM850 393h-657
q0 -161 77 -256.5t213 -95.5q143 0 244 100t123 252z" />
    <glyph glyph-name="uni02BC" unicode="&#x2bc;" horiz-adv-x="342" 
d="M104 1065h-20q94 123 94 211q0 49 -21.5 113.5t-52.5 101.5q0 41 24 60.5t58 19.5q40 0 65 -28.5t25 -80.5q0 -76 -46 -193.5t-126 -203.5z" />
    <glyph glyph-name="circumflex" unicode="&#x2c6;" horiz-adv-x="649" 
d="M94 1085h-26q30 53 78 139q89 158 119.5 202t60.5 44t61.5 -45t119.5 -205q46 -84 75 -135h-27q-14 16 -49.5 58t-53 63t-44 54.5t-46.5 60.5t-36 53q-14 -22 -32 -47t-33 -44.5t-41 -50.5l-39 -46.5t-44.5 -52t-42.5 -48.5z" />
    <glyph glyph-name="caron" unicode="&#x2c7;" horiz-adv-x="649" 
d="M391 1120q-30 0 -61 44.5t-119 201.5q-48 86 -78 139h27q10 -11 42 -48.5t44.5 -52t38.5 -46t41 -50.5t33 -44t32 -47q20 32 50.5 72t52 66t66.5 78.5t61 71.5h26q-29 -51 -75 -135q-89 -160 -120 -205t-61 -45z" />
    <glyph glyph-name="breve" unicode="&#x2d8;" horiz-adv-x="747" 
d="M375 1126q-53 0 -100 20.5t-88 63.5t-65 120.5t-24 180.5h27q0 -56 13 -106.5t41 -95t78.5 -71t117.5 -26.5t117.5 26.5t78.5 71t41 95t13 106.5h26q0 -103 -24 -180.5t-64.5 -120.5t-87.5 -63.5t-100 -20.5z" />
    <glyph glyph-name="dotaccent" unicode="&#x2d9;" horiz-adv-x="419" 
d="M125 1198q-37 0 -60.5 24.5t-23.5 61.5t23.5 61.5t60.5 24.5t60.5 -24.5t23.5 -61.5t-23.5 -61.5t-60.5 -24.5z" />
    <glyph glyph-name="ring" unicode="&#x2da;" horiz-adv-x="518" 
d="M260 1171q-69 0 -117.5 49t-48.5 117t48.5 116t117.5 48q66 0 115 -48.5t49 -115.5t-49 -116.5t-115 -49.5zM260 1219q46 0 81.5 35.5t35.5 82.5t-35.5 82t-81.5 35q-49 0 -84 -34.5t-35 -82.5t35 -83t84 -35z" />
    <glyph glyph-name="ogonek" unicode="&#x2db;" horiz-adv-x="442" 
d="M311 -424q-57 0 -95 40t-38 103q0 135 170 283h23q-39 -34 -86 -106.5t-47 -143.5q0 -56 30.5 -89.5t77.5 -33.5q53 0 111 58h18q-75 -111 -164 -111z" />
    <glyph glyph-name="tilde" unicode="&#x2dc;" horiz-adv-x="727" 
d="M203 1167h-17q9 92 52.5 143.5t107.5 51.5q38 0 72 -17t55 -37.5t50 -37.5t59 -17q88 0 125 129h16q-9 -92 -52.5 -143t-109.5 -51q-38 0 -71.5 17t-54.5 37t-49.5 37t-57.5 17q-88 0 -125 -129z" />
    <glyph glyph-name="hungarumlaut" unicode="&#x2dd;" horiz-adv-x="722" 
d="M123 1126h-27q69 143 127.5 233t93.5 121t60 31q33 0 33 -30q0 -77 -287 -355zM393 1126h-26q69 143 127.5 233t93 121t59.5 31q33 0 33 -30q0 -77 -287 -355z" />
    <glyph glyph-name="gravecomb" unicode="&#x300;" horiz-adv-x="0" 
d="M-70 1126h-26q-287 278 -287 355q0 30 33 30q25 0 59.5 -31t93 -121t127.5 -233z" />
    <glyph glyph-name="acutecomb" unicode="&#x301;" horiz-adv-x="0" 
d="M-356 1126h-27q69 143 127.5 233t93.5 121t60 31q32 0 32 -30q0 -78 -286 -355z" />
    <glyph glyph-name="uni0302" unicode="&#x302;" horiz-adv-x="0" 
d="M-555 1085h-27q30 53 78 139q89 158 119.5 202t60.5 44t61.5 -45t119.5 -205q46 -84 75 -135h-26q-12 15 -60 71.5t-68 80.5t-51 64.5t-51 72.5q-12 -19 -25.5 -38t-31.5 -42t-30 -38.5t-36 -44t-33.5 -40t-38.5 -45t-36 -41.5z" />
    <glyph glyph-name="tildecomb" unicode="&#x303;" horiz-adv-x="0" 
d="M-616 1167h-17q9 92 52.5 143.5t107.5 51.5q38 0 71.5 -17t54.5 -37.5t50 -37.5t59 -17q88 0 125 129h17q-9 -92 -52.5 -143t-109.5 -51q-38 0 -72 17t-54.5 37t-49.5 37t-58 17q-86 0 -124 -129z" />
    <glyph glyph-name="uni0304" unicode="&#x304;" horiz-adv-x="0" 
d="M-129 1233h-539v78h539v-78z" />
    <glyph glyph-name="uni0306" unicode="&#x306;" horiz-adv-x="0" 
d="M-373 1126q-53 0 -100 20.5t-87.5 63.5t-64.5 120.5t-24 180.5h26q0 -56 13 -106.5t41 -95t78.5 -71t117.5 -26.5t117.5 26.5t78.5 71t41 95t13 106.5h27q0 -103 -24 -180.5t-65 -120.5t-88 -63.5t-100 -20.5z" />
    <glyph glyph-name="uni0307" unicode="&#x307;" horiz-adv-x="0" 
d="M-211 1198q-37 0 -60.5 24.5t-23.5 61.5t23.5 61.5t60.5 24.5t60.5 -24.5t23.5 -61.5t-23.5 -61.5t-60.5 -24.5z" />
    <glyph glyph-name="uni0308" unicode="&#x308;" horiz-adv-x="0" 
d="M-455 1309q-35 0 -56 21.5t-21 55.5t21 57t56 23q36 0 58 -23t22 -57t-22 -55.5t-58 -21.5zM-188 1309q-35 0 -56.5 21.5t-21.5 55.5t21.5 57t56.5 23q36 0 57.5 -22.5t21.5 -57.5q0 -34 -21.5 -55.5t-57.5 -21.5z" />
    <glyph glyph-name="uni030A" unicode="&#x30a;" horiz-adv-x="0" 
d="M-258 1171q-69 0 -117.5 49t-48.5 117t48.5 116t117.5 48q66 0 115 -48.5t49 -115.5t-49 -116.5t-115 -49.5zM-258 1219q46 0 81.5 35.5t35.5 82.5t-35.5 82t-81.5 35q-49 0 -84 -34.5t-35 -82.5t35 -83t84 -35z" />
    <glyph glyph-name="uni030B" unicode="&#x30b;" horiz-adv-x="0" 
d="M-600 1126h-27q69 143 127.5 233t93.5 121t60 31q33 0 33 -30q0 -77 -287 -355zM-330 1126h-26q69 143 127.5 233t93 121t59.5 31q33 0 33 -30q0 -77 -287 -355z" />
    <glyph glyph-name="uni030C" unicode="&#x30c;" horiz-adv-x="0" 
d="M-324 1120q-30 0 -61 44.5t-119 201.5q-48 86 -78 139h27q10 -11 42 -48.5t44.5 -52t38.5 -46t41 -50.5t33 -44t32 -47q20 32 50.5 72t52 66t66.5 78.5t61 71.5h26q-29 -51 -75 -135q-89 -160 -120 -205t-61 -45z" />
    <glyph glyph-name="uni0312" unicode="&#x312;" horiz-adv-x="0" 
d="M-176 1200q-47 0 -71.5 40.5t-24.5 98.5q0 114 133 258h22q-94 -121 -94 -178q0 -25 11 -43t26.5 -27.5t31.5 -19t27 -25.5t11 -38q0 -31 -20.5 -48.5t-51.5 -17.5z" />
    <glyph glyph-name="uni0326" unicode="&#x326;" horiz-adv-x="0" 
d="M-291 -102q47 0 71.5 -40.5t24.5 -99.5q0 -114 -133 -258h-22q94 121 94 178q0 31 -16.5 51.5t-36.5 29.5t-36.5 27.5t-16.5 45.5q0 31 20 48.5t51 17.5z" />
    <glyph glyph-name="uni0327" unicode="&#x327;" horiz-adv-x="0" 
d="M-252 -418q-58 0 -119 35v16q58 -22 107 -22q55 0 89 26.5t34 77.5q0 43 -39 75t-111 32v39l94 166h35l-82 -144q78 0 117 -37.5t39 -95.5q0 -61 -45.5 -114.5t-118.5 -53.5z" />
    <glyph glyph-name="uni0328" unicode="&#x328;" horiz-adv-x="0" 
d="M-219 -424q-57 0 -95 40t-38 103q0 135 170 283h22q-39 -34 -86 -106.5t-47 -143.5q0 -56 31 -89.5t78 -33.5q52 0 110 58h19q-75 -111 -164 -111z" />
    <glyph glyph-name="uni0335" unicode="&#x335;" horiz-adv-x="0" 
d="M-127 549h-498v51h498v-51z" />
    <glyph glyph-name="uni0336" unicode="&#x336;" horiz-adv-x="0" 
d="M-129 537h-1235v77h1235v-77z" />
    <glyph glyph-name="uni0337" unicode="&#x337;" horiz-adv-x="0" 
d="M-82 739l-383 -200v77l383 203v-80z" />
    <glyph glyph-name="uni0338" unicode="&#x338;" horiz-adv-x="0" 
d="M-983 -168h-74l1045 1624h75z" />
    <glyph glyph-name="uni0394" unicode="&#x394;" horiz-adv-x="1056" 
d="M1069 0h-1065l488 1317h61zM524 1212l-426 -1140h881z" />
    <glyph glyph-name="uni03A9" unicode="&#x3a9;" horiz-adv-x="1470" 
d="M438 0h-286v20l327 84q-169 77 -273 240t-104 352q0 141 51.5 262t138 203.5t202 129t241.5 46.5t241.5 -46.5t202 -129t138 -203.5t51.5 -262q0 -189 -104 -352t-273 -240l328 -84v-20h-287l-108 119q162 54 261 212.5t99 364.5q0 127 -42.5 238.5t-116 189.5t-175 123
t-215.5 45t-215.5 -45t-175 -123t-116 -189.5t-42.5 -238.5q0 -206 99 -364.5t262 -212.5z" />
    <glyph glyph-name="uni03BC" unicode="&#x3bc;" horiz-adv-x="997" 
d="M389 -389h-348v20l133 33v1278h-135v21l194 61h21v-680q0 -303 195 -303q104 0 178 73.5t116 182.5v645h-133v21l195 61h20v-942h133v-21l-194 -61h-21v215q-21 -44 -43 -78t-59.5 -74.5t-90 -63t-116.5 -22.5q-116 0 -178 91v-404l133 -33v-20z" />
    <glyph glyph-name="pi" unicode="&#x3c0;" horiz-adv-x="978" 
d="M387 0h-348v20l133 33v971h635v-971l133 -33v-20h-348v20l133 33v899h-471v-899l133 -33v-20z" />
    <glyph glyph-name="uni0400" unicode="&#x400;" horiz-adv-x="1099" 
d="M637 1659h-27q-286 277 -286 354q0 31 32 31q25 0 60 -31t93.5 -121t127.5 -233zM971 0h-891v20l153 54v1401l-153 61v20h870l72 -317h-21l-133 256h-542v-627h379l51 174h20v-409h-20l-51 174h-379v-746h563l133 256h20z" />
    <glyph glyph-name="uni0401" unicode="&#x401;" horiz-adv-x="1099" 
d="M426 1739q-35 0 -56.5 22t-21.5 56t21.5 56.5t56.5 22.5q36 0 58 -22.5t22 -56.5t-22 -56t-58 -22zM692 1739q-35 0 -56.5 22t-21.5 56t21.5 56.5t56.5 22.5q36 0 58 -22.5t22 -56.5t-22 -56t-58 -22zM971 0h-891v20l153 54v1401l-153 61v20h870l72 -317h-21l-133 256
h-542v-627h379l51 174h20v-409h-20l-51 174h-379v-746h563l133 256h20z" />
    <glyph glyph-name="uni0402" unicode="&#x402;" horiz-adv-x="1626" 
d="M1112 911q214 0 322 -122t108 -355v-18q0 -514 -436 -545v20q344 60 344 525v18q0 197 -93.5 306.5t-264.5 109.5q-96 0 -190.5 -25t-141 -47.5t-78.5 -44.5v-659l154 -54v-20h-400v20l154 54v1421h-420l-133 -256h-21l72 317h1178l71 -317h-20l-133 256h-502v-721
q24 17 57.5 36t89.5 44t131 41t152 16z" />
    <glyph glyph-name="uni0403" unicode="&#x403;" horiz-adv-x="1017" 
d="M543 1659h-27q69 143 127.5 233t93.5 121t60 31q32 0 32 -31q0 -77 -286 -354zM500 0h-420v20l153 54v1401l-153 61v20h850l71 -317h-20l-133 256h-522v-1421l174 -54v-20z" />
    <glyph glyph-name="uni0404" unicode="&#x404;" horiz-adv-x="1562" 
d="M1522 616h30q-80 -286 -273.5 -462.5t-465.5 -176.5q-115 0 -222.5 33.5t-199 100t-160 159t-107 219t-38.5 271.5q0 174 61 325.5t166 258t252 168t314 61.5q103 0 196.5 -23t152 -55.5t92.5 -58t42 -39.5v-455h-31q0 121 -26 216.5t-70 158t-105.5 104t-129.5 59
t-146 17.5q-47 0 -97 -6t-117 -24t-127.5 -46.5t-122 -79t-106 -116t-74 -162.5t-32.5 -213h801v-62h-799q8 -159 54.5 -287.5t116 -210t159 -136.5t179 -78t181.5 -23q229 0 397.5 145.5t254.5 417.5z" />
    <glyph glyph-name="uni0405" unicode="&#x405;" horiz-adv-x="1161" 
d="M563 -23q-91 0 -174.5 22.5t-143.5 59t-103 76.5t-68 82l102 399h41q-37 -152 -37 -231q0 -85 29 -150.5t72 -102.5t100.5 -60.5t107 -31t99.5 -7.5q82 0 158 22.5t138.5 66.5t100 117.5t37.5 166.5q0 35 -5 66t-17 57t-24 47.5t-34.5 41t-39.5 34t-48.5 29.5t-51.5 24.5
t-58 22.5t-59 20t-64 20l-113 35q-32 10 -56 18t-62.5 25.5t-66.5 36t-60.5 48.5t-53 63.5t-34 80.5t-13.5 101q0 56 13 109t45 106.5t79.5 93t123 64t169.5 24.5q241 0 424 -166l-133 -303h-41q53 112 53 199q0 57 -30 99.5t-78.5 64.5t-98 32t-100.5 10q-69 0 -134 -18
t-120 -52t-88 -90.5t-33 -127.5q0 -58 23.5 -106t56 -79t82 -57.5t87.5 -39.5t85 -26l88 -24q35 -10 52 -15t55 -17.5t60.5 -23t58 -27.5t58 -35.5t51 -43.5t46 -54t34 -63.5t24 -76.5t7.5 -89q0 -207 -144.5 -337t-373.5 -130z" />
    <glyph glyph-name="uni0406" unicode="&#x406;" horiz-adv-x="559" 
d="M479 0h-399v20l153 54v1401l-153 61v20h399v-20l-153 -61v-1401l153 -54v-20z" />
    <glyph glyph-name="uni0407" unicode="&#x407;" horiz-adv-x="559" 
d="M145 1739q-35 0 -56 22t-21 56t21 56.5t56 22.5q36 0 58 -22.5t22 -56.5t-22 -56t-58 -22zM412 1739q-35 0 -56.5 22t-21.5 56t21.5 56.5t56.5 22.5q36 0 58 -22.5t22 -56.5t-22 -56t-58 -22zM479 0h-399v20l153 54v1401l-153 61v20h399v-20l-153 -61v-1401l153 -54v-20z
" />
    <glyph glyph-name="uni0408" unicode="&#x408;" horiz-adv-x="860" 
d="M340 -23q-125 0 -201.5 52.5t-126.5 136.5l164 416h31q-11 -34 -29 -87t-27.5 -82.5t-17.5 -69t-8 -73.5q0 -98 58.5 -157.5t162.5 -59.5q51 0 85.5 14.5t64.5 55t44.5 121.5t14.5 205v1026l-154 61v20h400v-20l-154 -61v-1061q0 -79 -6.5 -138.5t-26 -118.5t-52.5 -96.5
t-89 -60.5t-133 -23z" />
    <glyph glyph-name="uni0409" unicode="&#x409;" horiz-adv-x="2043" 
d="M1157 881h346q97 0 184 -26t157 -76.5t111.5 -135t41.5 -192.5q0 -86 -27 -160t-74 -126.5t-110 -90t-135 -56t-148 -18.5h-592v20l154 54v1421h-514q-14 -174 -25 -302t-24.5 -263.5t-26 -232t-28.5 -195t-32.5 -165t-38 -130t-45 -102.5t-52.5 -69t-62.5 -43t-73.5 -13
q-96 0 -127 51v227h31q0 -96 20 -139t78 -43q47 0 84 32t68 106.5t55.5 180t46.5 270t41 358t39 460.5l-153 53v20h985v-20l-154 -53v-602zM1157 41h336q186 0 293.5 110.5t107.5 301.5q0 189 -106 288t-295 99h-336v-799z" />
    <glyph glyph-name="uni040A" unicode="&#x40a;" horiz-adv-x="2039" 
d="M1153 881h346q97 0 184 -26t157 -76.5t111.5 -135t41.5 -192.5q0 -86 -27 -160t-74 -126.5t-110 -90t-135 -56t-148 -18.5h-592v20l154 54v745h-735v-745l153 -54v-20h-399v20l153 54v1401l-153 61v20h399v-20l-153 -61v-594h735v602l-154 53v20h400v-20l-154 -53v-602z
M1153 41h336q186 0 293.5 110.5t107.5 301.5q0 179 -106 272.5t-295 93.5h-336v-778z" />
    <glyph glyph-name="uni040B" unicode="&#x40b;" horiz-adv-x="1673" 
d="M1501 547v-473l154 -54v-20h-246v547q0 159 -67 231t-214 72q-75 0 -151 -14t-136.5 -36t-96 -38t-62.5 -31v-657l154 -54v-20h-400v20l154 54v1421h-420l-133 -256h-21l72 317h1178l71 -317h-20l-133 256h-502v-721q29 17 65 34.5t100.5 43.5t144 42.5t157.5 16.5
q196 0 274 -84.5t78 -279.5z" />
    <glyph glyph-name="uni040C" unicode="&#x40c;" horiz-adv-x="1146" 
d="M557 1659h-27q69 143 127.5 233t93.5 121t60 31q33 0 33 -31q0 -76 -287 -354zM479 0h-399v20l153 54v1401l-153 61v20h399v-20l-153 -61v-644l520 656l-129 49v20h399v-20l-211 -49l-534 -680l590 -733l210 -54v-20h-399v20l78 54l-524 651v-651l153 -54v-20z" />
    <glyph glyph-name="uni040D" unicode="&#x40d;" horiz-adv-x="1490" 
d="M823 1659h-26q-287 278 -287 354q0 31 33 31q25 0 59.5 -31t93 -121t127.5 -233zM1411 1556v-20l-154 -61v-1401l154 -54v-20h-399v20l153 54v1153l-839 -1022v-131l153 -54v-20h-399v20l153 54v1401l-153 61v20h399v-20l-153 -61v-1182l839 1022v160l-153 61v20h399z
" />
    <glyph glyph-name="uni040E" unicode="&#x40e;" horiz-adv-x="1284" 
d="M659 1659q-171 0 -254 93.5t-86 250.5h107q1 -71 10.5 -122.5t33.5 -97.5t71.5 -69.5t117.5 -23.5q57 0 99 16.5t67 43.5t40.5 69t21 85t6.5 99h106q-3 -157 -86 -250.5t-254 -93.5zM924 1536v20h407v-20l-149 -49l-475 -1125q-39 -91 -66 -146t-59.5 -105.5t-65.5 -76
t-75 -40t-95 -14.5q-136 0 -201 92l111 293h31q-35 -100 -35 -187q0 -58 32 -92.5t83 -34.5q84 0 140 59t126 216l-514 1161l-142 49v20h400v-20l-144 -47l453 -1036l430 1034z" />
    <glyph glyph-name="uni040F" unicode="&#x40f;" horiz-adv-x="1470" 
d="M1391 1556v-20l-154 -53v-1401l154 -62v-20h-596l-50 -297h-20l-49 297h-596v20l153 62v1401l-153 53v20h399v-20l-153 -53v-1422h819v1422l-154 53v20h400z" />
    <glyph glyph-name="uni0410" unicode="&#x410;" horiz-adv-x="1536" 
d="M356 0h-399v20l152 54l616 1499h61l654 -1499l145 -54v-20h-399v20l141 54l-268 628h-627l-252 -628l176 -54v-20zM735 1458l-278 -694h575z" />
    <glyph glyph-name="uni0411" unicode="&#x411;" horiz-adv-x="1224" 
d="M907 1495h-583v-635h346q97 0 183.5 -25t157 -74.5t111.5 -132t41 -188.5q0 -105 -41.5 -190t-111 -139t-157 -82.5t-183.5 -28.5h-590v20l153 54v1401l-153 61v20h909l72 -317h-21zM324 819v-778h335q186 0 294 107.5t108 293.5q0 184 -106.5 280.5t-295.5 96.5h-335z
" />
    <glyph glyph-name="uni0412" unicode="&#x412;" horiz-adv-x="1314" 
d="M696 0h-616v20l153 52v1403l-153 61v20h561q245 0 384.5 -106t139.5 -283q0 -137 -85 -238t-228 -143q180 -31 284.5 -135t104.5 -252q0 -178 -150 -288.5t-395 -110.5zM326 1495v-684h323q414 0 414 360q0 162 -105 243t-325 81h-307zM326 750v-689h360q203 0 325 94
t122 257q0 157 -115 247.5t-307 90.5h-385z" />
    <glyph glyph-name="uni0413" unicode="&#x413;" horiz-adv-x="1017" 
d="M500 0h-420v20l153 54v1401l-153 61v20h850l71 -317h-20l-133 256h-522v-1421l174 -54v-20z" />
    <glyph glyph-name="uni0414" unicode="&#x414;" horiz-adv-x="1458" 
d="M1165 61h183l71 -317h-20l-174 256h-1043l-174 -256h-20l71 317h125q121 297 173 586.5t94 835.5l-154 53v20h1022v-20l-154 -53v-1422zM266 61h807v1434h-551q-43 -539 -96 -836t-160 -598z" />
    <glyph glyph-name="uni0415" unicode="&#x415;" horiz-adv-x="1099" 
d="M971 0h-891v20l153 54v1401l-153 61v20h870l72 -317h-21l-133 256h-542v-627h379l51 174h20v-409h-20l-51 174h-379v-746h563l133 256h20z" />
    <glyph glyph-name="uni0416" unicode="&#x416;" horiz-adv-x="1734" 
d="M977 809l571 -735l211 -54v-20h-399v20l78 54l-525 676v-676l154 -54v-20h-399v20l153 54v676l-524 -676l78 -54v-20h-400v20l211 54l570 733l-523 680l-202 49v20h399v-20l-129 -49l520 -680v668l-153 61v20h399v-20l-154 -61v-668l521 680l-129 49v20h399v-20l-207 -49
z" />
    <glyph glyph-name="uni0417" unicode="&#x417;" horiz-adv-x="1280" 
d="M635 1513q-71 0 -133.5 -17t-120 -56.5t-98.5 -98.5t-65.5 -150.5t-24.5 -205.5h-31v455q19 15 52 33.5t92.5 43t150.5 40.5t194 16q233 0 355 -104.5t122 -282.5q0 -74 -26 -137t-71 -108t-99 -76.5t-117 -49.5q173 -30 281 -131t108 -268q0 -88 -31 -165t-93.5 -139.5
t-168 -98.5t-243.5 -36q-533 0 -658 572h31q63 -255 228.5 -385.5t398.5 -130.5q103 0 182 27t124.5 67.5t74 96t38 103.5t9.5 99q0 121 -55.5 202t-148 116.5t-218.5 35.5h-180v41h118q86 0 159 22t131 65t91 115t33 165q0 157 -96.5 241t-294.5 84z" />
    <glyph glyph-name="uni0418" unicode="&#x418;" horiz-adv-x="1490" 
d="M1411 1556v-20l-154 -61v-1401l154 -54v-20h-399v20l153 54v1153l-839 -1022v-131l153 -54v-20h-399v20l153 54v1401l-153 61v20h399v-20l-153 -61v-1182l839 1022v160l-153 61v20h399z" />
    <glyph glyph-name="uni0419" unicode="&#x419;" horiz-adv-x="1490" 
d="M752 1659q-171 0 -254 93.5t-86 250.5h106q1 -56 6.5 -99t21 -85t40.5 -69t67 -43.5t99 -16.5q70 0 117.5 23.5t71.5 69.5t33.5 97.5t10.5 122.5h107q-3 -157 -86 -250.5t-254 -93.5zM1411 1556v-20l-154 -61v-1401l154 -54v-20h-399v20l153 54v1153l-839 -1022v-131
l153 -54v-20h-399v20l153 54v1401l-153 61v20h399v-20l-153 -61v-1182l839 1022v160l-153 61v20h399z" />
    <glyph glyph-name="uni041A" unicode="&#x41a;" horiz-adv-x="1146" 
d="M479 0h-399v20l153 54v1401l-153 61v20h399v-20l-153 -61v-644l520 656l-129 49v20h399v-20l-211 -49l-534 -680l590 -733l210 -54v-20h-399v20l78 54l-524 651v-651l153 -54v-20z" />
    <glyph glyph-name="uni041B" unicode="&#x41b;" horiz-adv-x="1390" 
d="M1311 1556v-20l-154 -53v-1409l154 -54v-20h-400v20l154 54v1421h-514q-14 -174 -25 -302t-24.5 -263.5t-26 -232t-28.5 -195t-32.5 -165t-38 -130t-45 -102.5t-52.5 -69t-62.5 -43t-73.5 -13q-96 0 -127 51v227h31q0 -96 20 -139t78 -43q47 0 84 32t68 106.5t55.5 180
t46.5 270t41 358t39 460.5l-153 53v20h985z" />
    <glyph glyph-name="uni041C" unicode="&#x41c;" horiz-adv-x="1755" 
d="M479 0h-399v20l153 54v1401l-153 61v20h248l573 -1441l551 1441h223v-20l-153 -61v-1401l153 -54v-20h-399v20l154 54v1241l-519 -1315h-61l-522 1286v-1212l151 -54v-20z" />
    <glyph glyph-name="uni041D" unicode="&#x41d;" horiz-adv-x="1490" 
d="M479 0h-399v20l153 54v1401l-153 61v20h399v-20l-153 -61v-625h839v625l-153 61v20h399v-20l-154 -61v-1401l154 -54v-20h-399v20l153 54v714h-839v-714l153 -54v-20z" />
    <glyph glyph-name="uni041E" unicode="&#x41e;" horiz-adv-x="1648" 
d="M797 -23q-143 0 -273.5 60.5t-227 164.5t-153.5 253.5t-57 318.5q0 141 40 268t111.5 222.5t165 166t204.5 106.5t227 36q145 0 278 -58t232.5 -159t159 -246.5t59.5 -310.5q0 -172 -64.5 -327t-171 -262.5t-245.5 -170t-285 -62.5zM842 53q79 0 158 19.5t163 70
t147.5 126t104.5 197.5t41 275q0 147 -37 272t-101 212.5t-148.5 150t-179 92t-193.5 29.5q-55 0 -111 -9t-118 -31t-117 -55t-106 -85.5t-87.5 -118t-58 -156.5t-21.5 -198q0 -149 41.5 -279.5t109.5 -222.5t155 -158.5t178.5 -98.5t179.5 -32z" />
    <glyph glyph-name="uni041F" unicode="&#x41f;" horiz-adv-x="1470" 
d="M1391 1556v-20l-154 -61v-1401l154 -54v-20h-400v20l154 54v1421h-819v-1421l153 -54v-20h-399v20l153 54v1401l-153 61v20h1311z" />
    <glyph glyph-name="uni0420" unicode="&#x420;" horiz-adv-x="1204" 
d="M479 0h-399v20l153 54v1401l-153 61v20h592q77 0 148 -14.5t134.5 -45t110 -75.5t73.5 -110t27 -144q0 -97 -41.5 -177.5t-111 -132t-157 -79.5t-183.5 -28h-346v-676l153 -54v-20zM326 1495v-684h336q188 0 294.5 94t106.5 264q0 167 -104.5 246.5t-296.5 79.5h-336z
" />
    <glyph glyph-name="uni0421" unicode="&#x421;" horiz-adv-x="1554" 
d="M813 -23q-115 0 -222.5 33.5t-199 100t-160 159t-107 219t-38.5 271.5q0 174 61 325.5t166 258t252 168t314 61.5q103 0 196.5 -23t152 -55.5t92.5 -58t42 -39.5v-455h-31q0 121 -26 216.5t-70 158t-105.5 104t-129.5 59t-146 17.5q-47 0 -98.5 -6t-119.5 -24.5
t-129.5 -48.5t-123 -82.5t-106 -120.5t-72 -169t-27.5 -223q2 -120 26.5 -224t64 -181.5t93.5 -140t114.5 -103.5t128.5 -69t133.5 -40t131.5 -12q229 0 397.5 145.5t254.5 417.5h30q-80 -286 -273.5 -462.5t-465.5 -176.5z" />
    <glyph glyph-name="uni0422" unicode="&#x422;" horiz-adv-x="1353" 
d="M877 0h-400v20l154 54v1421h-461l-133 -256h-21l72 317h1178l71 -317h-20l-133 256h-461v-1421l154 -54v-20z" />
    <glyph glyph-name="uni0423" unicode="&#x423;" horiz-adv-x="1284" 
d="M924 1536v20h407v-20l-149 -49l-475 -1125q-39 -91 -66 -146t-59.5 -105.5t-65.5 -76t-75 -40t-95 -14.5q-136 0 -201 92l111 293h31q-35 -100 -35 -187q0 -58 32 -92.5t83 -34.5q84 0 140 59t126 216l-514 1161l-142 49v20h400v-20l-144 -47l453 -1036l430 1034z" />
    <glyph glyph-name="uni0424" unicode="&#x424;" horiz-adv-x="1677" 
d="M1599 817q0 -116 -34.5 -211t-97 -162.5t-152 -115t-196.5 -73t-234 -32.5v-170l153 -53v-20h-399v20l154 53v170q-118 1 -223 21.5t-195.5 64t-156 107t-103 155.5t-37.5 203q0 116 34.5 211t97 162.5t152.5 115t197 73t234 32.5v127l-154 61v21h399v-21l-153 -61v-127
q118 -1 223 -21.5t195.5 -64t156 -107t102.5 -155.5t37 -203zM170 844q0 -116 38.5 -208t99 -150t145.5 -99t166.5 -60t173.5 -26v991q-72 0 -132 -4.5t-126 -16.5t-117.5 -32.5t-99 -55t-79.5 -80.5t-50.5 -112t-18.5 -147zM1507 748q0 116 -38.5 208t-99 150t-145 98.5
t-166 59.5t-173.5 26v-991q72 0 132 4.5t126 17t117 33t99 55t79.5 80.5t50 112t18.5 147z" />
    <glyph glyph-name="uni0425" unicode="&#x425;" horiz-adv-x="1249" 
d="M401 0h-399v20l141 54l437 704l-443 697l-143 61v20h399v-20l-145 -61l391 -619l373 619l-193 61v20h400v-20l-148 -61l-399 -668l465 -733l137 -54v-20h-400v20l152 54l-416 655l-407 -655l198 -54v-20z" />
    <glyph glyph-name="uni0426" unicode="&#x426;" horiz-adv-x="1529" 
d="M1237 61h182l72 -317h-21l-174 256h-1216v20l153 62v1401l-153 53v20h399v-20l-153 -53v-1422h819v1422l-154 53v20h400v-20l-154 -53v-1422z" />
    <glyph glyph-name="uni0427" unicode="&#x427;" horiz-adv-x="1341" 
d="M1262 1556v-20l-154 -61v-1401l154 -54v-20h-400v20l154 54v692q-32 -17 -84 -37t-151 -41.5t-193 -21.5q-221 0 -321.5 86.5t-100.5 277.5v445l-154 61v20h400v-20l-154 -61v-445q0 -159 79 -231t251 -72q213 0 428 80v668l-154 61v20h400z" />
    <glyph glyph-name="uni0428" unicode="&#x428;" horiz-adv-x="2172" 
d="M2093 1556v-20l-154 -53v-1401l154 -62v-20h-2013v20l153 62v1401l-153 53v20h399v-20l-153 -53v-1422h714v1422l-153 53v20h399v-20l-153 -53v-1422h714v1422l-153 53v20h399z" />
    <glyph glyph-name="uni0429" unicode="&#x429;" horiz-adv-x="2232" 
d="M1939 61h183l71 -317h-20l-174 256h-1919v20l153 62v1401l-153 53v20h399v-20l-153 -53v-1422h714v1422l-153 53v20h399v-20l-153 -53v-1422h714v1422l-153 53v20h399v-20l-154 -53v-1422z" />
    <glyph glyph-name="uni042A" unicode="&#x42a;" horiz-adv-x="1437" 
d="M551 881h346q97 0 184 -26t157 -76.5t111.5 -135t41.5 -192.5q0 -86 -27 -160t-74 -126.5t-110 -90t-135 -56t-148 -18.5h-592v20l154 54v1421h-285l-133 -256h-21l72 317h613v-20l-154 -53v-602zM551 41h336q186 0 293.5 110.5t107.5 301.5q0 189 -106 288t-295 99h-336
v-799z" />
    <glyph glyph-name="uni042B" unicode="&#x42b;" horiz-adv-x="1708" 
d="M80 0h592q96 0 183.5 29.5t157 84.5t111 142.5t41.5 194.5q0 108 -41 192.5t-111.5 135t-157 76.5t-183.5 26h-346v602l153 53v20h-399v-20l153 -53v-1409l-153 -54v-20zM1628 0h-399v20l153 54v1401l-153 61v20h399v-20l-153 -61v-1401l153 -54v-20zM326 840h336
q189 0 295 -99t106 -288q0 -191 -107.5 -301.5t-293.5 -110.5h-336v799z" />
    <glyph glyph-name="uni042C" unicode="&#x42c;" horiz-adv-x="1212" 
d="M80 0h592q96 0 183.5 29.5t157 84.5t111 142.5t41.5 194.5q0 108 -41 192.5t-111.5 135t-157 76.5t-183.5 26h-346v602l153 53v20h-399v-20l153 -53v-1409l-153 -54v-20zM326 840h336q189 0 295 -99t106 -288q0 -191 -107.5 -301.5t-293.5 -110.5h-336v799z" />
    <glyph glyph-name="uni042D" unicode="&#x42d;" horiz-adv-x="1523" 
d="M694 1573q146 0 279 -52.5t237 -149.5t166 -248t62 -335q0 -222 -97.5 -407t-274 -294.5t-394.5 -109.5q-533 0 -658 572h31q61 -244 227 -370t387 -126q148 0 269.5 44t212 130t140.5 222t50 311v28h-825v62h821q-12 159 -68 286.5t-144 209t-199.5 124.5t-237.5 43
q-80 0 -150.5 -18t-134.5 -60.5t-110 -107t-73.5 -163t-27.5 -222.5h-30v455q6 10 28.5 28.5t69.5 45t106 48.5t149 38t189 16z" />
    <glyph glyph-name="uni042E" unicode="&#x42e;" horiz-adv-x="2197" 
d="M1403 1573q148 0 278.5 -58t225 -159.5t149.5 -246t55 -310.5q0 -173 -60 -327t-161 -262t-238 -170.5t-286 -62.5q-195 0 -353 102.5t-247.5 285t-89.5 409.5v14h-350v-714l153 -54v-20h-399v20l153 54v1401l-153 61v20h399v-20l-153 -61v-625h352q16 215 117 381
t260 254t348 88zM1411 53q82 0 160.5 20t158.5 70t140 125.5t97.5 197.5t37.5 275q0 147 -34 271.5t-94 213t-141 150.5t-174.5 91.5t-195.5 29.5q-58 0 -114 -9t-116 -31t-113 -55t-100.5 -85.5t-81 -118t-53.5 -156.5t-20 -198q0 -150 38 -280t102 -222t147.5 -158.5
t174 -98.5t181.5 -32z" />
    <glyph glyph-name="uni042F" unicode="&#x42f;" horiz-adv-x="1273" 
d="M795 0h399v20l-154 74v1389l154 53v20h-592q-97 0 -183.5 -24t-157 -71.5t-111.5 -125.5t-41 -178q0 -126 71.5 -218.5t181.5 -136.5t240 -44h4l-446 -684l-174 -54v-20h430v20l-158 54l444 684h246v-664l-153 -74v-20zM948 1516v-717h-336q-186 0 -293.5 96.5
t-107.5 263.5q0 174 106 265.5t295 91.5h336z" />
    <glyph glyph-name="uni0430" unicode="&#x430;" horiz-adv-x="960" 
d="M795 752v-670h131v-21l-195 -61h-20v252q-8 -26 -23.5 -57.5t-45.5 -71.5t-67 -72t-92 -54t-116 -22q-117 0 -191 75t-74 196q0 63 23.5 116.5t58.5 91t90 68.5t103.5 50t113.5 35.5t106 24t95 16.5q6 1 10.5 1.5t8.5 1.5v64q0 152 -69 222.5t-171 70.5
q-113 0 -187.5 -75t-74.5 -190q0 -59 20 -118h-30l-82 262q125 168 370 168q159 0 233.5 -73.5t74.5 -229.5zM389 37q55 0 107.5 23.5t93 62t71 81t50.5 87.5v332q-3 -1 -42 -9t-57.5 -12t-63 -16t-70.5 -22t-68 -28t-68 -36t-57 -44.5t-48.5 -55t-29.5 -66t-12 -78.5
q0 -91 50.5 -155t143.5 -64z" />
    <glyph glyph-name="uni0431" unicode="&#x431;" horiz-adv-x="1091" 
d="M567 1055q89 0 163 -29t126.5 -80.5t88.5 -122t53.5 -152t17.5 -171.5q0 -136 -54.5 -255.5t-154.5 -193.5t-221 -74q-240 0 -366 172t-126 467q0 132 26.5 253.5t86 236t147 205.5t216.5 159t288 99q97 18 115 69h20q-6 -75 -47 -117.5t-133 -60.5q-207 -40 -308 -89.5
t-165 -135.5q-108 -139 -139 -401q56 104 151 162.5t215 58.5zM582 41q106 0 188 68t124 175t42 232q0 134 -46.5 242t-136.5 171.5t-208 63.5q-119 0 -214.5 -67.5t-140.5 -180.5q-4 -78 -4 -120q0 -89 12 -170.5t41.5 -158t73.5 -132.5t113 -89.5t156 -33.5z" />
    <glyph glyph-name="uni0432" unicode="&#x432;" horiz-adv-x="950" 
d="M633 541q124 -11 185 -83.5t61 -174.5q0 -131 -95 -207t-282 -76h-453v20l133 33v918l-133 33v20h422q84 0 146.5 -15t98.5 -38t57.5 -56.5t28.5 -65t7 -69.5q0 -82 -45 -145.5t-131 -93.5zM729 772q0 201 -262 201h-203v-416h252q103 0 158 61.5t55 153.5zM264 51h234
q148 0 221.5 62t73.5 174q0 101 -63.5 160t-188.5 59h-277v-455z" />
    <glyph glyph-name="uni0433" unicode="&#x433;" horiz-adv-x="811" 
d="M723 1024l61 -307h-20l-125 256h-375v-920l133 -33v-20h-348v20l133 33v918l-133 33v20h674z" />
    <glyph glyph-name="uni0434" unicode="&#x434;" horiz-adv-x="1046" 
d="M844 51h131l61 -307h-20l-125 256h-762l-125 -256h-20l61 307h100q64 137 97.5 357t54.5 563l-143 33v20h823v-20l-133 -33v-920zM215 51h547v922h-404q-27 -362 -58 -576.5t-85 -345.5z" />
    <glyph glyph-name="uni0435" unicode="&#x435;" horiz-adv-x="997" 
d="M528 -23q-109 0 -197.5 47t-142.5 124.5t-83 170.5t-29 191q0 145 59.5 270t164.5 200t230 75q164 0 267.5 -123.5t103.5 -323.5v-30h-756v-13q0 -144 54 -264t150 -190t214 -70q245 0 377 319h31q-53 -173 -164.5 -278t-278.5 -105zM156 639h657q0 160 -77.5 256
t-213.5 96q-143 0 -243.5 -100t-122.5 -252z" />
    <glyph glyph-name="uni0436" unicode="&#x436;" horiz-adv-x="1472" 
d="M262 950l379 -426l-416 -471l174 -33v-20h-401v20l121 33l436 490l-383 428l-137 33v20h401v-20zM911 1004l-133 -33v-918l133 -33v-20h-348v20l133 33v918l-133 33v20h348v-20zM920 555l446 -502l109 -33v-20h-400v20l174 33l-415 471l376 426l-172 54v20h400v-20
l-146 -33z" />
    <glyph glyph-name="uni0437" unicode="&#x437;" horiz-adv-x="864" 
d="M420 18q141 0 213 72t72 197q0 219 -293 219h-66v51h66q124 0 187 61t63 170q0 107 -66 166.5t-176 59.5q-112 0 -182 -57.5t-70 -145.5q0 -59 39 -129h-31l-96 223q51 60 136.5 105t203.5 45q151 0 236 -72t85 -195q0 -89 -54 -155.5t-155 -93.5q123 -17 191 -83.5
t68 -172.5q0 -141 -94.5 -223.5t-276.5 -82.5q-244 0 -383 166l115 265h28q-47 -118 -47 -172q0 -93 70.5 -155.5t216.5 -62.5z" />
    <glyph glyph-name="uni0438" unicode="&#x438;" horiz-adv-x="1069" 
d="M1020 1024v-20l-133 -33v-918l133 -33v-20h-346v20l131 33v756l-541 -686v-70l133 -33v-20h-348v20l133 33v918l-133 33v20h348v-20l-133 -33v-768l541 686v82l-131 33v20h346z" />
    <glyph glyph-name="uni0439" unicode="&#x439;" horiz-adv-x="1069" 
d="M532 1182q-146 0 -215.5 90.5t-72.5 249.5h86q0 -55 4.5 -96.5t17.5 -81.5t34.5 -65t58.5 -40.5t87 -15.5q62 0 103.5 22t62.5 65t29 92.5t8 119.5h86q-3 -159 -73 -249.5t-216 -90.5zM1020 1024v-20l-133 -33v-918l133 -33v-20h-346v20l131 33v756l-541 -686v-70
l133 -33v-20h-348v20l133 33v918l-133 33v20h348v-20l-133 -33v-768l541 686v82l-131 33v20h346z" />
    <glyph glyph-name="uni043A" unicode="&#x43a;" horiz-adv-x="970" 
d="M397 1004l-133 -33v-918l133 -33v-20h-348v20l133 33v918l-133 33v20h348v-20zM387 555l485 -502l109 -33v-20h-399v20l174 33l-457 471l418 426l-172 54v20h399v-20l-145 -33z" />
    <glyph glyph-name="uni043B" unicode="&#x43b;" horiz-adv-x="1013" 
d="M965 1024v-20l-134 -33v-918l134 -33v-20h-347v20l132 33v920h-357q-11 -137 -20 -237.5t-20.5 -202t-23.5 -172.5t-27.5 -137.5t-33.5 -108.5t-40.5 -74.5t-49 -46.5t-59.5 -14q-34 0 -56 16t-30 35v227h33q0 -95 11 -138.5t42 -43.5q93 0 141 201t76 694l-143 33v20
h772z" />
    <glyph glyph-name="uni043C" unicode="&#x43c;" horiz-adv-x="1318" 
d="M1282 1024v-20l-154 -33v-918l154 -33v-20h-369v20l134 33v797l-371 -850h-49l-369 838v-764l152 -54v-20h-371v20l154 54v897l-154 33v20h227l402 -913l401 913h213z" />
    <glyph glyph-name="uni043D" unicode="&#x43d;" 
d="M999 1024v-20l-133 -33v-918l133 -33v-20h-346v20l131 33v445h-520v-445l133 -33v-20h-348v20l133 33v918l-133 33v20h348v-20l-133 -33v-422h520v422l-131 33v20h346z" />
    <glyph glyph-name="uni043E" unicode="&#x43e;" horiz-adv-x="1069" 
d="M539 -23q-89 0 -166.5 33t-131 87t-92 124t-57 144t-18.5 147q0 72 18 146t56.5 145.5t92.5 127.5t133.5 90t172.5 34t170.5 -34t127.5 -88.5t85 -125t50 -141.5t15 -140q0 -72 -16.5 -146t-52.5 -147t-88 -129.5t-129.5 -91.5t-169.5 -35zM565 41q149 0 247.5 131.5
t98.5 325.5q0 128 -43.5 238.5t-133 182.5t-208.5 72q-165 0 -272 -128.5t-107 -315.5q0 -129 51 -244t148.5 -188.5t218.5 -73.5z" />
    <glyph glyph-name="uni043F" unicode="&#x43f;" horiz-adv-x="1038" 
d="M989 1024v-20l-133 -33v-918l133 -33v-20h-346v20l131 33v920h-510v-920l133 -33v-20h-348v20l133 33v918l-133 33v20h940z" />
    <glyph glyph-name="uni0440" unicode="&#x440;" horiz-adv-x="1005" 
d="M387 -410h-348v21l133 33v1298h-133v27q21 7 65.5 21t59 18.5t47 14t46 12.5t39.5 8.5t43.5 7t41 3t49.5 1.5q95 0 173.5 -25.5t131.5 -70.5t92 -100.5t61 -121t32 -127t10 -123.5q0 -100 -25.5 -191t-73.5 -162.5t-124 -114t-170 -42.5q-54 0 -98 13t-78.5 39
t-56.5 49.5t-50 60.5v-495l133 -33v-21zM522 41q136 0 230 130t94 331q0 103 -27.5 192.5t-81 160.5t-141.5 112t-201 41q-60 0 -141 -19v-807q50 -59 120.5 -100t147.5 -41z" />
    <glyph glyph-name="uni0441" unicode="&#x441;" horiz-adv-x="987" 
d="M522 -23q-138 0 -241.5 75t-154 194t-50.5 262q0 106 31.5 203.5t89 174.5t147 123t197.5 46q124 0 214 -52t132 -108l-121 -350h-31q39 107 39 198q0 117 -64.5 182.5t-185.5 65.5q-74 0 -140 -25.5t-119 -75.5t-84 -133.5t-31 -191.5q0 -223 119 -373.5t278 -150.5
q143 0 232.5 75.5t160.5 243.5h31q-25 -80 -63.5 -147t-92.5 -121t-129.5 -84.5t-163.5 -30.5z" />
    <glyph glyph-name="uni0442" unicode="&#x442;" horiz-adv-x="966" 
d="M877 1024l61 -307h-20l-125 256h-273v-920l133 -33v-20h-348v20l133 33v920h-264l-125 -256h-20l61 307h787z" />
    <glyph glyph-name="uni0443" unicode="&#x443;" horiz-adv-x="1067" 
d="M178 -424l-172 203l27 18q39 -44 109 -92.5t120 -48.5q38 0 75 32t68 86t54.5 109t44.5 117l-365 956l-147 48v20h399v-20l-162 -48l324 -856l295 856l-166 48v20h399v-20l-172 -48l-315 -878q-30 -84 -49 -133.5t-45.5 -110t-48 -94.5t-51.5 -70t-61.5 -53.5t-72 -29
t-88.5 -11.5z" />
    <glyph glyph-name="uni0444" unicode="&#x444;" horiz-adv-x="1282" 
d="M1208 520q0 -70 -18 -141.5t-58.5 -142t-100 -126t-150 -92t-199.5 -41.5v-325l133 -41v-21h-348v21l133 41v325q-125 4 -226 47.5t-166 115.5t-99.5 167t-34.5 205q0 70 18 141.5t58.5 142t100 126t150 92t199.5 41.5v501h-133v21l195 61h20v-583q166 -7 287 -80
t180 -190.5t59 -264.5zM147 547q0 -207 122.5 -349t330.5 -157v950q-214 -9 -333.5 -131.5t-119.5 -312.5zM1135 485q0 207 -122.5 349t-330.5 157v-950q215 10 334 132t119 312z" />
    <glyph glyph-name="uni0445" unicode="&#x445;" horiz-adv-x="985" 
d="M406 0h-400v20l125 33l313 463l-297 440l-131 48v20h400v-20l-158 -48l250 -368l233 368l-202 48v20h399v-20l-137 -48l-262 -415l335 -488l121 -33v-20h-399v20l168 33l-287 416l-289 -416l218 -33v-20z" />
    <glyph glyph-name="uni0446" unicode="&#x446;" horiz-adv-x="1058" 
d="M856 51h131l62 -307h-21l-125 256h-854v20l133 33v918l-133 33v20h348v-20l-133 -33v-920h510v920l-131 33v20h346v-20l-133 -33v-920z" />
    <glyph glyph-name="uni0447" unicode="&#x447;" horiz-adv-x="985" 
d="M936 1024v-20l-133 -33v-918l133 -33v-20h-346v20l131 33v441q-143 -66 -293 -66q-85 0 -140 16t-85 52t-41.5 83t-11.5 119v273l-134 33v20h349v-20l-134 -33v-273q0 -114 46.5 -166.5t150.5 -52.5q165 0 293 62v430l-131 33v20h346z" />
    <glyph glyph-name="uni0448" unicode="&#x448;" horiz-adv-x="1626" 
d="M1577 1024v-20l-133 -33v-918l133 -33v-20h-1528v20l133 33v918l-133 33v20h348v-20l-133 -33v-920h508v920l-133 33v20h348v-20l-133 -33v-920h508v920l-131 33v20h346z" />
    <glyph glyph-name="uni0449" unicode="&#x449;" horiz-adv-x="1646" 
d="M1444 51h131l61 -307h-20l-125 256h-1442v20l133 33v918l-133 33v20h348v-20l-133 -33v-920h508v920l-133 33v20h348v-20l-133 -33v-920h508v920l-131 33v20h346v-20l-133 -33v-920z" />
    <glyph glyph-name="uni044A" unicode="&#x44a;" horiz-adv-x="1050" 
d="M465 604h199q68 0 129 -18.5t110 -53.5t78 -93.5t29 -131.5q0 -98 -50.5 -169.5t-127.5 -104.5t-168 -33h-414v20l133 33v920h-207l-125 -256h-20l61 307h506v-20l-133 -33v-367zM465 51h192q122 0 193.5 67.5t71.5 186.5q0 120 -70.5 184t-194.5 64h-192v-502z" />
    <glyph glyph-name="uni044B" unicode="&#x44b;" horiz-adv-x="1218" 
d="M264 604h199q68 0 129 -18.5t110 -53.5t78 -93.5t29 -131.5q0 -98 -50.5 -169.5t-127.5 -104.5t-168 -33h-414v20l133 33v918l-133 33v20h348v-20l-133 -33v-367zM1169 1024v-20l-133 -33v-918l133 -33v-20h-346v20l131 33v918l-131 33v20h346zM264 51h193
q122 0 193 67.5t71 186.5q0 120 -70.5 184t-193.5 64h-193v-502z" />
    <glyph glyph-name="uni044C" unicode="&#x44c;" horiz-adv-x="849" 
d="M264 604h199q68 0 129 -18.5t110 -53.5t78 -93.5t29 -131.5q0 -98 -50.5 -169.5t-127.5 -104.5t-168 -33h-414v20l133 33v918l-133 33v20h348v-20l-133 -33v-367zM264 51h193q122 0 193 67.5t71 186.5q0 120 -70.5 184t-193.5 64h-193v-502z" />
    <glyph glyph-name="uni044D" unicode="&#x44d;" horiz-adv-x="960" 
d="M416 1055q115 0 206 -42.5t147.5 -115.5t86 -167.5t29.5 -203.5q0 -154 -57.5 -278t-167 -197.5t-250.5 -73.5q-228 0 -367 166l115 265h28q-2 -6 -10 -27t-10.5 -27t-8.5 -23t-8 -25t-5 -21t-4 -23.5t-1 -21.5q0 -95 67.5 -158.5t205.5 -63.5q178 0 282.5 135.5
t106.5 344.5h-488v51h488q-11 217 -113 341t-272 124q-117 0 -189.5 -58t-72.5 -147q0 -11 2 -23t3.5 -20t7 -22t7.5 -19t9.5 -22t9.5 -21h-31l-96 223q50 60 138.5 105t211.5 45z" />
    <glyph glyph-name="uni044E" unicode="&#x44e;" horiz-adv-x="1462" 
d="M948 1055q91 0 167 -34t125.5 -88.5t84 -125t49.5 -141.5t15 -140q0 -72 -16 -146t-52 -147t-87 -129.5t-127.5 -91.5t-166.5 -35q-86 0 -160.5 31.5t-127 84t-91 120.5t-57.5 140.5t-21 144.5h-219v-445l133 -33v-20h-348v20l133 33v918l-133 33v20h348v-20l-133 -33
v-422h221q5 89 37 175.5t87 162t143.5 122t195.5 46.5zM967 41q146 0 242 131.5t96 325.5q0 95 -25.5 183t-72 157.5t-119 111t-160.5 41.5q-162 0 -266.5 -128.5t-104.5 -315.5q0 -96 29.5 -187t82 -162t130.5 -114t168 -43z" />
    <glyph glyph-name="uni044F" unicode="&#x44f;" horiz-adv-x="970" 
d="M922 1024v-20l-134 -33v-918l134 -33v-20h-349v20l134 33v408h-209l-275 -408l148 -33v-20h-377v20l151 54l271 397q-112 19 -183 85.5t-71 180.5q0 69 28 124.5t75 90.5t106 53.5t123 18.5h428zM500 512h207v461h-207q-116 0 -183 -62t-67 -172q0 -109 66.5 -168
t183.5 -59z" />
    <glyph glyph-name="uni0450" unicode="&#x450;" horiz-adv-x="997" 
d="M549 1126h-27q-286 277 -286 355q0 30 32 30q25 0 60 -31t93.5 -121t127.5 -233zM528 -23q-109 0 -197.5 47t-142.5 124.5t-83 170.5t-29 191q0 145 59.5 270t164.5 200t230 75q164 0 267.5 -123.5t103.5 -323.5v-30h-756v-13q0 -144 54 -264t150 -190t214 -70
q245 0 377 319h31q-53 -173 -164.5 -278t-278.5 -105zM156 639h657q0 160 -77.5 256t-213.5 96q-143 0 -243.5 -100t-122.5 -252z" />
    <glyph glyph-name="uni0451" unicode="&#x451;" horiz-adv-x="997" 
d="M379 1309q-35 0 -56.5 21.5t-21.5 55.5t21.5 57t56.5 23q36 0 58 -23t22 -57t-22 -55.5t-58 -21.5zM645 1309q-35 0 -56.5 21.5t-21.5 55.5t21.5 57t56.5 23q36 0 58 -23t22 -57t-22 -55.5t-58 -21.5zM528 -23q-109 0 -197.5 47t-142.5 124.5t-83 170.5t-29 191
q0 145 59.5 270t164.5 200t230 75q164 0 267.5 -123.5t103.5 -323.5v-30h-756v-13q0 -144 54 -264t150 -190t214 -70q245 0 377 319h31q-53 -173 -164.5 -278t-278.5 -105zM156 639h657q0 160 -77.5 256t-213.5 96q-143 0 -243.5 -100t-122.5 -252z" />
    <glyph glyph-name="uni0452" unicode="&#x452;" horiz-adv-x="999" 
d="M616 1055q250 0 250 -307v-891q0 -165 -45 -222q-47 -59 -190 -59l-172 201l26 18q148 -157 215 -157q84 0 84 204v844q0 164 -54.5 234.5t-168.5 70.5q-101 0 -192 -96.5t-115 -212.5v-629l133 -33v-20h-348v20l133 33v1254h-147v51h147v198h-133v21l194 61h21v-280h268
v-51h-268v-527q10 30 26 61t47.5 71t69.5 70.5t95.5 51.5t123.5 21z" />
    <glyph glyph-name="uni0453" unicode="&#x453;" horiz-adv-x="811" 
d="M692 1481q0 -78 -286 -355h-27q69 143 127.5 233t93 121t59.5 31q33 0 33 -30zM723 1024l61 -307h-20l-125 256h-375v-920l133 -33v-20h-348v20l133 33v918l-133 33v20h674z" />
    <glyph glyph-name="uni0454" unicode="&#x454;" horiz-adv-x="987" 
d="M940 360h31q-25 -80 -63.5 -147t-92.5 -121t-129.5 -84.5t-163.5 -30.5q-138 0 -241.5 75t-154 194t-50.5 262q0 106 31.5 203.5t89 174.5t147 123t197.5 46q124 0 214 -52t132 -108l-121 -350h-31q39 107 39 198q0 117 -64.5 182.5t-185.5 65.5q-74 0 -140 -25.5
t-119 -75.5t-84 -133.5t-31 -191.5v-28h454v-52h-450q23 -194 136.5 -319t256.5 -125t232.5 75.5t160.5 243.5z" />
    <glyph glyph-name="uni0455" unicode="&#x455;" horiz-adv-x="845" 
d="M424 -23q-208 0 -346 166l98 275h29q-27 -80 -27 -156q0 -101 60 -164t186 -63q134 0 218.5 66.5t84.5 162.5q0 32 -10 58.5t-35 48.5t-49 38t-73 35t-84 31t-103 33q-122 38 -186 106.5t-64 176.5q0 128 85.5 196t215.5 68q190 0 311 -146l-76 -223h-30
q44 136 -17.5 222.5t-195.5 86.5q-101 0 -174.5 -52.5t-73.5 -141.5q0 -71 56.5 -115t195.5 -86q15 -5 51.5 -15.5t52.5 -15t47.5 -16t46.5 -19t40 -22t37.5 -28t28.5 -33.5t23.5 -42t13 -50.5t5.5 -61.5q0 -154 -96 -237t-246 -83z" />
    <glyph glyph-name="uni0456" unicode="&#x456;" horiz-adv-x="436" 
d="M209 1313q-37 0 -60.5 24.5t-23.5 61.5t23.5 61.5t60.5 24.5t60.5 -24.5t23.5 -61.5t-23.5 -61.5t-60.5 -24.5zM397 0h-348v20l133 33v889h-133v21l195 61h20v-971l133 -33v-20z" />
    <glyph glyph-name="uni0457" unicode="&#x457;" horiz-adv-x="436" 
d="M86 1313q-37 0 -60.5 24.5t-23.5 61.5t23.5 61.5t60.5 24.5t60.5 -24.5t23.5 -61.5t-23.5 -61.5t-60.5 -24.5zM332 1313q-37 0 -60.5 24.5t-23.5 61.5t23.5 61.5t60.5 24.5t60.5 -24.5t23.5 -61.5t-23.5 -61.5t-60.5 -24.5zM397 0h-348v20l133 33v889h-133v21l195 61h20
v-971l133 -33v-20z" />
    <glyph glyph-name="uni0458" unicode="&#x458;" horiz-adv-x="399" 
d="M201 1313q-37 0 -60.5 24.5t-23.5 61.5t23.5 61.5t60.5 24.5t60.5 -24.5t23.5 -61.5t-23.5 -61.5t-60.5 -24.5zM18 -424l-172 201l27 18q148 -157 215 -157q84 0 84 204v1100h-133v21l194 61h21v-1167q0 -165 -45 -222q-47 -59 -191 -59z" />
    <glyph glyph-name="uni0459" unicode="&#x459;" horiz-adv-x="1396" 
d="M811 604h199q68 0 129 -18.5t110 -53.5t78 -93.5t29 -131.5q0 -98 -50.5 -169.5t-127.5 -104.5t-168 -33h-414v20l133 33v920h-336q-11 -137 -20 -237.5t-20.5 -202t-23.5 -172.5t-27.5 -137.5t-33.5 -108.5t-40.5 -74.5t-49 -46.5t-59.5 -14q-34 0 -56 16t-30 35v227h33
q0 -95 11 -138.5t42 -43.5q93 0 141 201t76 694l-143 33v20h751v-20l-133 -33v-367zM811 51h193q122 0 193 67.5t71 186.5q0 120 -70.5 184t-193.5 64h-193v-502z" />
    <glyph glyph-name="uni045A" unicode="&#x45a;" horiz-adv-x="1429" 
d="M846 573h198q54 0 104 -10.5t94.5 -33t77.5 -54.5t52 -79t19 -103q0 -138 -102.5 -215.5t-244.5 -77.5h-413v20l133 33v469h-500v-469l133 -33v-20h-348v20l133 33v918l-133 33v20h348v-20l-133 -33v-398h500v398l-133 33v20h348v-20l-133 -33v-398zM846 51h192
q123 0 194 63.5t71 176.5q0 112 -70.5 171.5t-194.5 59.5h-192v-471z" />
    <glyph glyph-name="uni045B" unicode="&#x45b;" horiz-adv-x="1038" 
d="M866 748v-695l133 -33v-20h-348v20l133 33v633q0 164 -54.5 234.5t-168.5 70.5q-101 0 -192 -96.5t-115 -212.5v-629l133 -33v-20h-348v20l133 33v1254h-147v51h147v198h-133v21l194 61h21v-280h268v-51h-268v-527q10 30 26 61t47.5 71t69.5 70.5t95.5 51.5t123.5 21
q250 0 250 -307z" />
    <glyph glyph-name="uni045C" unicode="&#x45c;" horiz-adv-x="970" 
d="M752 1481q0 -77 -287 -355h-27q69 143 127.5 233t93.5 121t60 31q33 0 33 -30zM397 1004l-133 -33v-918l133 -33v-20h-348v20l133 33v918l-133 33v20h348v-20zM387 555l485 -502l109 -33v-20h-399v20l174 33l-457 471l418 426l-172 54v20h399v-20l-145 -33z" />
    <glyph glyph-name="uni045D" unicode="&#x45d;" horiz-adv-x="1069" 
d="M592 1126h-27q-286 277 -286 355q0 30 32 30q25 0 60 -31t93.5 -121t127.5 -233zM1020 1024v-20l-133 -33v-918l133 -33v-20h-346v20l131 33v756l-541 -686v-70l133 -33v-20h-348v20l133 33v918l-133 33v20h348v-20l-133 -33v-768l541 686v82l-131 33v20h346z" />
    <glyph glyph-name="uni045E" unicode="&#x45e;" horiz-adv-x="1067" 
d="M537 1223q50 0 87 15.5t58.5 40.5t34.5 65t17.5 81.5t4.5 96.5h86q-3 -159 -72.5 -249.5t-215.5 -90.5t-216 90.5t-73 249.5h86q0 -70 8 -119.5t29 -92.5t62.5 -65t103.5 -22zM178 -424l-172 203l27 18q39 -44 109 -92.5t120 -48.5q38 0 75 32t68 86t54.5 109t44.5 117
l-365 956l-147 48v20h399v-20l-162 -48l324 -856l295 856l-166 48v20h399v-20l-172 -48l-315 -878q-30 -84 -49 -133.5t-45.5 -110t-48 -94.5t-51.5 -70t-61.5 -53.5t-72 -29t-88.5 -11.5z" />
    <glyph glyph-name="uni045F" unicode="&#x45f;" horiz-adv-x="1038" 
d="M989 1024v-20l-133 -33v-918l133 -33v-20h-409l-50 -297h-20l-49 297h-412v20l133 33v918l-133 33v20h348v-20l-133 -33v-920h510v920l-131 33v20h346z" />
    <glyph glyph-name="uni0490" unicode="&#x490;" horiz-adv-x="997" 
d="M981 1812l-72 -317h-583v-1421l153 -54v-20h-399v20l153 54v1409l-153 53v20h747l134 256h20z" />
    <glyph glyph-name="uni0491" unicode="&#x491;" horiz-adv-x="776" 
d="M764 1280l-62 -307h-438v-920l133 -33v-20h-348v20l133 33v918l-133 33v20h569l125 256h21z" />
    <glyph glyph-name="uni0492" unicode="&#x492;" horiz-adv-x="1019" 
d="M82 1556h850l72 -317h-21l-133 256h-522v-692h299v-51h-299v-678l174 -54v-20h-420v20l154 54v678h-164v51h164v672l-154 61v20z" />
    <glyph glyph-name="uni0493" unicode="&#x493;" horiz-adv-x="813" 
d="M725 1024l61 -307h-20l-125 256h-375v-432h324v-52h-324v-436l133 -33v-20h-348v20l133 33v436h-133v52h133v430l-133 33v20h674z" />
    <glyph glyph-name="uni0496" unicode="&#x496;" horiz-adv-x="1705" 
d="M1559 61h133l71 -317h-20l-174 256h-209v20l78 54l-525 676v-676l154 -54v-20h-399v20l153 54v676l-524 -676l78 -54v-20h-400v20l211 54l570 733l-523 680l-202 49v20h399v-20l-129 -49l520 -680v668l-153 61v20h399v-20l-154 -61v-668l521 680l-129 49v20h399v-20
l-207 -49l-520 -678z" />
    <glyph glyph-name="uni0497" unicode="&#x497;" horiz-adv-x="1499" 
d="M262 950l379 -426l-416 -471l174 -33v-20h-401v20l121 33l436 490l-383 428l-137 33v20h401v-20zM911 1004l-133 -33v-918l133 -33v-20h-348v20l133 33v918l-133 33v20h348v-20zM1368 51h127l61 -307h-20l-125 256h-336v20l174 33l-415 471l376 426l-172 54v20h400v-20
l-146 -33l-372 -416z" />
    <glyph glyph-name="uni049A" unicode="&#x49a;" horiz-adv-x="1142" 
d="M1214 -256h-20l-174 256h-248v20l78 54l-524 651v-651l153 -54v-20h-399v20l153 54v1401l-153 61v20h399v-20l-153 -61v-644l520 656l-129 49v20h399v-20l-211 -49l-534 -680l600 -746h172z" />
    <glyph glyph-name="uni049B" unicode="&#x49b;" horiz-adv-x="989" 
d="M397 1004l-133 -33v-918l133 -33v-20h-348v20l133 33v918l-133 33v20h348v-20zM874 51h117l62 -307h-21l-125 256h-325v20l174 33l-457 471l418 426l-172 54v20h399v-20l-145 -33l-412 -416z" />
    <glyph glyph-name="uni04A2" unicode="&#x4a2;" horiz-adv-x="1550" 
d="M1257 61h183l71 -317h-20l-174 256h-305v20l153 54v714h-839v-714l153 -54v-20h-399v20l153 54v1401l-153 61v20h399v-20l-153 -61v-625h839v625l-153 61v20h399v-20l-154 -61v-1414z" />
    <glyph glyph-name="uni04A3" unicode="&#x4a3;" horiz-adv-x="1069" 
d="M866 51h131l62 -307h-21l-125 256h-260v20l111 29v2h12l8 2v445h-520v-445l133 -33v-20h-348v20l133 33v918l-133 33v20h348v-20l-133 -33v-422h520v422l-131 33v20h346v-20l-133 -33v-920z" />
    <glyph glyph-name="uni04AE" unicode="&#x4ae;" horiz-adv-x="1265" 
d="M840 0h-400v20l154 54v501l-500 912l-135 49v20h399v-20l-149 -49l459 -825l432 825l-195 49v20h400v-20l-144 -49l-475 -899v-514l154 -54v-20z" />
    <glyph glyph-name="uni04AF" unicode="&#x4af;" horiz-adv-x="1064" 
d="M678 1004v20h399v-20l-172 -48l-334 -956v-356l134 -33v-21h-349v21l133 33v356l-354 956l-147 48v20h399v-20l-162 -48l324 -880l295 880z" />
    <glyph glyph-name="uni04B0" unicode="&#x4b0;" horiz-adv-x="1267" 
d="M905 1536v20h400v-20l-144 -49l-475 -899h236v-51h-236v-463l154 -54v-20h-400v20l154 54v463h-236v51h230l-494 899l-135 49v20h399v-20l-149 -49l459 -825l432 825z" />
    <glyph glyph-name="uni04B1" unicode="&#x4b1;" horiz-adv-x="1064" 
d="M678 1004v20h399v-20l-172 -48l-334 -956h246v-51h-246v-305l134 -33v-21h-349v21l133 33v305h-245v51h245l-354 956l-147 48v20h399v-20l-162 -48l324 -880l295 880z" />
    <glyph glyph-name="uni04B2" unicode="&#x4b2;" horiz-adv-x="1275" 
d="M1145 61h145l72 -317h-21l-174 256h-293v20l152 54l-416 655l-407 -655l198 -54v-20h-399v20l141 54l437 704l-443 697l-143 61v20h399v-20l-145 -61l391 -619l373 619l-193 61v20h400v-20l-148 -61l-399 -668z" />
    <glyph glyph-name="uni04B3" unicode="&#x4b3;" horiz-adv-x="1007" 
d="M877 51h131l61 -307h-20l-125 256h-328v20l168 33l-287 416l-289 -416l218 -33v-20h-400v20l125 33l313 463l-297 440l-131 48v20h400v-20l-158 -48l250 -368l233 368l-202 48v20h399v-20l-137 -48l-262 -415z" />
    <glyph glyph-name="uni04B6" unicode="&#x4b6;" horiz-adv-x="1400" 
d="M1108 61h182l72 -317h-21l-174 256h-305v20l154 54v692q-32 -17 -84 -37t-151 -41.5t-193 -21.5q-221 0 -321.5 86.5t-100.5 277.5v445l-154 61v20h400v-20l-154 -61v-445q0 -159 79 -231t251 -72q213 0 428 80v668l-154 61v20h400v-20l-154 -61v-1414z" />
    <glyph glyph-name="uni04B7" unicode="&#x4b7;" horiz-adv-x="1005" 
d="M803 51h131l61 -307h-20l-125 256h-260v20l110 29v2h13l8 2v441q-143 -66 -293 -66q-85 0 -140 16t-85 52t-41.5 83t-11.5 119v273l-134 33v20h349v-20l-134 -33v-273q0 -114 46.5 -166.5t150.5 -52.5q165 0 293 62v430l-131 33v20h346v-20l-133 -33v-920z" />
    <glyph glyph-name="uni04BA" unicode="&#x4ba;" horiz-adv-x="1341" 
d="M1176 526v-444l153 -62v-20h-399v20l153 62v444q0 159 -78.5 231t-250.5 72q-216 0 -428 -79v-668l153 -62v-20h-399v20l153 62v1401l-153 53v20h399v-20l-153 -53v-692q32 17 84 37t151 41.5t193 21.5q221 0 321.5 -87t100.5 -278z" />
    <glyph glyph-name="uni04BB" unicode="&#x4bb;" horiz-adv-x="1038" 
d="M387 0h-348v20l133 33v1503h-133v21l194 61h21v-858q10 30 26 61t47.5 71t69.5 70.5t95.5 51.5t123.5 21q250 0 250 -307v-695l133 -33v-20h-348v20l133 33v633q0 164 -54.5 234.5t-168.5 70.5q-101 0 -192 -96.5t-115 -212.5v-629l133 -33v-20z" />
    <glyph glyph-name="uni04C0" unicode="&#x4c0;" horiz-adv-x="559" 
d="M479 0h-399v20l153 54v1401l-153 61v20h399v-20l-153 -61v-1401l153 -54v-20z" />
    <glyph glyph-name="uni04CF" unicode="&#x4cf;" horiz-adv-x="425" 
d="M387 0h-348v20l133 33v1503h-133v21l194 61h21v-1585l133 -33v-20z" />
    <glyph glyph-name="uni04D8" unicode="&#x4d8;" horiz-adv-x="1601" 
d="M739 1573q233 0 410 -99.5t270.5 -274.5t93.5 -400q0 -151 -38.5 -282.5t-107.5 -229.5t-162.5 -168.5t-204.5 -106t-232 -35.5q-138 0 -264.5 56t-220.5 152.5t-149.5 234.5t-55.5 293q0 25 4 75h1325q-7 178 -62 316.5t-148.5 227.5t-219 135t-275.5 46q-76 0 -143 -18
t-129.5 -60.5t-107.5 -107t-72 -163t-27 -222.5h-30v455q6 10 30 29t73 44.5t110 48t149.5 38.5t183.5 16zM813 53q58 0 112.5 7.5t115 28t111.5 53t98.5 85t81 121t54 165.5t21.5 214h-1237q5 -125 47 -235.5t108.5 -189t149 -136t169.5 -85.5t169 -28z" />
    <glyph glyph-name="uni04D9" unicode="&#x4d9;" horiz-adv-x="1003" 
d="M477 1055q88 0 163 -31t127.5 -83.5t90 -121.5t55 -144.5t17.5 -152.5q0 -145 -59.5 -270t-165 -200t-230.5 -75q-164 0 -267.5 123.5t-103.5 323.5v31h756v12q0 144 -54 264t-150 190t-214 70q-244 0 -376 -319h-31q54 173 164.5 278t277.5 105zM850 393h-657
q0 -161 77 -256.5t213 -95.5q143 0 244 100t123 252z" />
    <glyph glyph-name="uni04E2" unicode="&#x4e2;" horiz-adv-x="1490" 
d="M477 1843h539v-78h-539v78zM1411 1556v-20l-154 -61v-1401l154 -54v-20h-399v20l153 54v1153l-839 -1022v-131l153 -54v-20h-399v20l153 54v1401l-153 61v20h399v-20l-153 -61v-1182l839 1022v160l-153 61v20h399z" />
    <glyph glyph-name="uni04E3" unicode="&#x4e3;" horiz-adv-x="1069" 
d="M264 1311h539v-78h-539v78zM1020 1024v-20l-133 -33v-918l133 -33v-20h-346v20l131 33v756l-541 -686v-70l133 -33v-20h-348v20l133 33v918l-133 33v20h348v-20l-133 -33v-768l541 686v82l-131 33v20h346z" />
    <glyph glyph-name="uni04E8" unicode="&#x4e8;" horiz-adv-x="1648" 
d="M834 1573q145 0 278 -58t232.5 -159t159 -246.5t59.5 -310.5q0 -172 -64.5 -327t-171 -262.5t-245.5 -170t-285 -62.5q-143 0 -273.5 60.5t-227 164.5t-153.5 253.5t-57 318.5q0 141 40 268t111.5 222.5t165 166t204.5 106.5t227 36zM797 1497q-55 0 -111 -9t-118 -30.5
t-117 -54.5t-105.5 -84.5t-87 -117t-58.5 -155.5t-22 -196h1272q-16 157 -77.5 282.5t-152.5 203.5t-199.5 119.5t-223.5 41.5zM842 53q79 0 158 19.5t163 70t147.5 126t104.5 197.5t41 275v47h-1276q7 -139 52 -260.5t112.5 -206.5t152 -147t173 -91.5t172.5 -29.5z" />
    <glyph glyph-name="uni04E9" unicode="&#x4e9;" horiz-adv-x="1069" 
d="M547 1055q93 0 170.5 -34t127.5 -88.5t85 -125t50 -141.5t15 -140q0 -72 -16.5 -146t-52.5 -147t-88 -129.5t-129.5 -91.5t-169.5 -35q-89 0 -166.5 33t-131 87t-92 124t-57 144t-18.5 147q0 72 18 146t56.5 145.5t92.5 127.5t133.5 90t172.5 34zM526 991
q-165 0 -272 -128.5t-107 -315.5v-6h762q-5 89 -33.5 169t-75.5 143t-118 100.5t-156 37.5zM565 41q146 0 243.5 126t102.5 316h-759q20 -182 133.5 -312t279.5 -130z" />
    <glyph glyph-name="uni04EE" unicode="&#x4ee;" horiz-adv-x="1284" 
d="M430 1843h539v-78h-539v78zM924 1536v20h407v-20l-149 -49l-475 -1125q-39 -91 -66 -146t-59.5 -105.5t-65.5 -76t-75 -40t-95 -14.5q-136 0 -201 92l111 293h31q-35 -100 -35 -187q0 -58 32 -92.5t83 -34.5q84 0 140 59t126 216l-514 1161l-142 49v20h400v-20l-144 -47
l453 -1036l430 1034z" />
    <glyph glyph-name="uni04EF" unicode="&#x4ef;" horiz-adv-x="1067" 
d="M805 1233h-539v78h539v-78zM178 -424l-172 203l27 18q39 -44 109 -92.5t120 -48.5q38 0 75 32t68 86t54.5 109t44.5 117l-365 956l-147 48v20h399v-20l-162 -48l324 -856l295 856l-166 48v20h399v-20l-172 -48l-315 -878q-30 -84 -49 -133.5t-45.5 -110t-48 -94.5
t-51.5 -70t-61.5 -53.5t-72 -29t-88.5 -11.5z" />
    <glyph glyph-name="Wgrave" unicode="&#x1e80;" horiz-adv-x="2187" 
d="M1126 1659h-26q-287 278 -287 354q0 31 33 31q25 0 59.5 -31t93 -121t127.5 -233zM639 0h-61l-474 1475l-155 61v20h399v-20l-133 -61l412 -1311l440 1392h68l475 -1392l401 1311l-176 61v20h399v-20l-159 -61l-455 -1475h-61l-476 1403z" />
    <glyph glyph-name="wgrave" unicode="&#x1e81;" horiz-adv-x="1529" 
d="M805 1126h-27q-286 277 -286 355q0 30 32 30q25 0 60 -31t93.5 -121t127.5 -233zM496 0h-62l-293 956l-151 48v20h399v-20l-158 -48l246 -843l264 911h72l258 -911l246 843l-166 48v20h399v-20l-176 -48l-284 -956h-62l-266 924z" />
    <glyph glyph-name="Wacute" unicode="&#x1e82;" horiz-adv-x="2187" 
d="M1083 1659h-26q69 143 127.5 233t93 121t59.5 31q33 0 33 -31q0 -76 -287 -354zM639 0h-61l-474 1475l-155 61v20h399v-20l-133 -61l412 -1311l440 1392h68l475 -1392l401 1311l-176 61v20h399v-20l-159 -61l-455 -1475h-61l-476 1403z" />
    <glyph glyph-name="wacute" unicode="&#x1e83;" horiz-adv-x="1529" 
d="M762 1126h-27q69 143 127.5 233t93.5 121t60 31q33 0 33 -30q0 -77 -287 -355zM496 0h-62l-293 956l-151 48v20h399v-20l-158 -48l246 -843l264 911h72l258 -911l246 843l-166 48v20h399v-20l-176 -48l-284 -956h-62l-266 924z" />
    <glyph glyph-name="Wdieresis" unicode="&#x1e84;" horiz-adv-x="2187" 
d="M958 1739q-35 0 -56 22t-21 56t21 56.5t56 22.5q36 0 58 -22.5t22 -56.5t-22 -56t-58 -22zM1225 1739q-35 0 -56.5 22t-21.5 56t21.5 56.5t56.5 22.5q36 0 58 -22.5t22 -56.5t-22 -56t-58 -22zM639 0h-61l-474 1475l-155 61v20h399v-20l-133 -61l412 -1311l440 1392h68
l475 -1392l401 1311l-176 61v20h399v-20l-159 -61l-455 -1475h-61l-476 1403z" />
    <glyph glyph-name="wdieresis" unicode="&#x1e85;" horiz-adv-x="1529" 
d="M635 1309q-35 0 -56.5 21.5t-21.5 55.5t21.5 57t56.5 23q36 0 58 -23t22 -57t-22 -55.5t-58 -21.5zM901 1309q-35 0 -56.5 21.5t-21.5 55.5t21.5 57t56.5 23q36 0 58 -23t22 -57t-22 -55.5t-58 -21.5zM496 0h-62l-293 956l-151 48v20h399v-20l-158 -48l246 -843l264 911
h72l258 -911l246 843l-166 48v20h399v-20l-176 -48l-284 -956h-62l-266 924z" />
    <glyph glyph-name="uni1E9E" unicode="&#x1e9e;" horiz-adv-x="1253" 
d="M918 -23q-105 0 -195 53.5t-135 112.5l98 275h31q-29 -85 -29 -154q0 -101 59.5 -165t172.5 -64q43 0 82 10.5t76.5 33.5t60 68t22.5 107q0 47 -15 87.5t-33 65.5t-51.5 49.5t-53 34.5t-54.5 27q-47 22 -70 33.5t-59 32t-53.5 37t-37 39.5t-27 50.5t-7.5 59.5
q0 43 15.5 77.5t39 56t51 47.5t51 51t39 67t15.5 96q0 64 -22 126t-63.5 114.5t-111.5 84.5t-157 32q-260 0 -260 -293v-1229h-225v20l133 33v1166q0 36 1 58t7.5 64t18.5 69t37 61.5t60.5 54.5t91 34.5t126.5 14.5q108 0 193 -31.5t136 -85t77 -121.5t26 -145
q0 -73 -23 -128t-56.5 -87t-66.5 -57.5t-56 -54t-23 -62.5q0 -17 5.5 -32t13.5 -26.5t24.5 -25t29 -22t37.5 -21.5t40.5 -20t47.5 -21.5t49 -22.5q116 -55 168 -120.5t52 -184.5q0 -89 -27.5 -156t-74 -103.5t-97 -53.5t-104.5 -17z" />
    <glyph glyph-name="Ygrave" unicode="&#x1ef2;" horiz-adv-x="1265" 
d="M668 1659h-27q-287 278 -287 354q0 31 33 31q25 0 60 -31t93.5 -121t127.5 -233zM840 0h-400v20l154 54v501l-500 912l-135 49v20h399v-20l-149 -49l459 -825l432 825l-195 49v20h400v-20l-144 -49l-475 -899v-514l154 -54v-20z" />
    <glyph glyph-name="ygrave" unicode="&#x1ef3;" horiz-adv-x="1067" 
d="M561 1126h-26q-287 278 -287 355q0 30 33 30q25 0 59.5 -31t93 -121t127.5 -233zM178 -424l-172 203l27 18q39 -44 109 -92.5t120 -48.5q38 0 75 32t68 86t54.5 109t44.5 117l-365 956l-147 48v20h399v-20l-162 -48l324 -856l295 856l-166 48v20h399v-20l-172 -48
l-315 -878q-30 -84 -49 -133.5t-45.5 -110t-48 -94.5t-51.5 -70t-61.5 -53.5t-72 -29t-88.5 -11.5z" />
    <glyph glyph-name="uni2009" unicode="&#x2009;" horiz-adv-x="442" 
 />
    <glyph glyph-name="endash" unicode="&#x2013;" horiz-adv-x="862" 
d="M793 537h-723v77h723v-77z" />
    <glyph glyph-name="emdash" unicode="&#x2014;" horiz-adv-x="1271" 
d="M1202 537h-1132v77h1132v-77z" />
    <glyph glyph-name="quoteleft" unicode="&#x2018;" horiz-adv-x="335" 
d="M166 1065q-40 0 -65 28.5t-25 80.5q0 76 46 193.5t126 203.5h20q-94 -123 -94 -211q0 -49 21.5 -113.5t52.5 -101.5q0 -41 -24 -60.5t-58 -19.5z" />
    <glyph glyph-name="quoteright" unicode="&#x2019;" horiz-adv-x="342" 
d="M104 1065h-20q94 123 94 211q0 49 -21.5 113.5t-52.5 101.5q0 41 24 60.5t58 19.5q40 0 65 -28.5t25 -80.5q0 -76 -46 -193.5t-126 -203.5z" />
    <glyph glyph-name="quotesinglbase" unicode="&#x201a;" horiz-adv-x="337" 
d="M72 -295h-21q94 122 94 213q0 41 -18 74.5t-55 77.5q0 43 27.5 71.5t66.5 28.5q44 0 71 -28t27 -74q0 -69 -51 -167t-141 -196z" />
    <glyph glyph-name="quotedblleft" unicode="&#x201c;" horiz-adv-x="561" 
d="M166 1065q-40 0 -65 28.5t-25 80.5q0 76 46 193.5t126 203.5h20q-94 -123 -94 -211q0 -49 21.5 -113.5t52.5 -101.5q0 -41 -24 -60.5t-58 -19.5zM391 1065q-40 0 -65 28.5t-25 80.5q0 76 46 193.5t126 203.5h21q-95 -125 -95 -211q0 -49 21.5 -113.5t52.5 -101.5
q0 -41 -24 -60.5t-58 -19.5z" />
    <glyph glyph-name="quotedblright" unicode="&#x201d;" horiz-adv-x="591" 
d="M104 1065h-20q94 123 94 211q0 49 -21.5 113.5t-52.5 101.5q0 41 24 60.5t58 19.5q40 0 65 -28.5t25 -80.5q0 -76 -46 -193.5t-126 -203.5zM354 1065h-20q94 123 94 211q0 49 -21.5 113.5t-52.5 101.5q0 41 24 60.5t58 19.5q40 0 65 -28.5t25 -80.5q0 -76 -46 -193.5
t-126 -203.5z" />
    <glyph glyph-name="quotedblbase" unicode="&#x201e;" horiz-adv-x="587" 
d="M70 -336h-21q94 123 94 211q0 49 -21 113.5t-52 101.5q0 41 24 60.5t58 19.5q40 0 65 -28.5t25 -80.5q0 -76 -46 -193.5t-126 -203.5zM340 -336h-21q95 125 95 211q0 49 -21.5 113.5t-52.5 101.5q0 41 24 60.5t58 19.5q40 0 65 -28.5t25 -80.5q0 -76 -46 -193.5
t-126 -203.5z" />
    <glyph glyph-name="dagger" unicode="&#x2020;" horiz-adv-x="952" 
d="M774 1155l92 174h21v-409h-21l-92 174h-252v-1002l154 -72v-20h-400v20l154 72v1002h-252l-92 -174h-20v409h20l92 -174h252v371l-154 92v20h400v-20l-154 -92v-371h252z" />
    <glyph glyph-name="daggerdbl" unicode="&#x2021;" horiz-adv-x="923" 
d="M662 983h-400v21l154 51v225h-180l-72 -174h-21v410h21l72 -175h180v205l-154 72v20h400v-20l-154 -72v-205h180l72 175h20v-410h-20l-72 174h-180v-225l154 -51v-21zM662 0h-400v20l154 52v225h-180l-72 -174h-21v409h21l72 -174h180v205l-154 72v20h400v-20l-154 -72
v-205h180l72 174h20v-409h-20l-72 174h-180v-225l154 -52v-20z" />
    <glyph glyph-name="bullet" unicode="&#x2022;" horiz-adv-x="626" 
d="M313 375q-65 0 -107 41.5t-42 103.5q0 65 42 109.5t107 44.5q66 0 108 -44t42 -110q0 -62 -41.5 -103.5t-108.5 -41.5z" />
    <glyph glyph-name="ellipsis" unicode="&#x2026;" horiz-adv-x="974" 
d="M180 -23q-42 0 -69 27.5t-27 67.5q0 42 27 70t69 28t69 -28t27 -70q0 -40 -27 -67.5t-69 -27.5zM487 -23q-42 0 -69 27.5t-27 67.5q0 42 27 70t69 28t69.5 -28t27.5 -70q0 -40 -27.5 -67.5t-69.5 -27.5zM795 -23q-42 0 -69.5 27.5t-27.5 67.5q0 42 27.5 70t69.5 28
t69 -28t27 -70q0 -40 -27 -67.5t-69 -27.5z" />
    <glyph glyph-name="perthousand" unicode="&#x2030;" horiz-adv-x="2502" 
d="M352 815q-73 0 -131 34.5t-93 91.5t-53 127t-18 146q0 82 21.5 159t60 138t99.5 97.5t135 36.5t134 -37t96.5 -98t55.5 -132.5t19 -146.5q0 -107 -37.5 -200.5t-113.5 -154.5t-175 -61zM377 850q92 0 159.5 92t67.5 256q0 170 -74.5 292t-177.5 122q-91 0 -160 -100.5
t-69 -266.5q0 -164 74.5 -279.5t179.5 -115.5zM375 0h-62l1082 1556h65zM1413 -12q-73 0 -131 34.5t-93 91.5t-53 127t-18 146q0 111 35.5 207.5t109.5 159.5t171 63q74 0 134 -37t96.5 -98t55.5 -132.5t19 -146.5q0 -107 -37.5 -200t-113.5 -154t-175 -61zM2122 -12
q-73 0 -131 34.5t-93 91.5t-53 127t-18 146q0 111 35.5 207.5t109 159.5t170.5 63q74 0 134 -37t96.5 -98t55.5 -132.5t19 -146.5q0 -107 -37 -200t-113 -154t-175 -61zM1438 23q92 0 159.5 92t67.5 256q0 170 -74.5 291.5t-177.5 121.5q-91 0 -160 -100t-69 -266
q0 -164 74.5 -279.5t179.5 -115.5zM2146 23q92 0 160 92t68 256q0 170 -74.5 291.5t-177.5 121.5q-91 0 -160.5 -100t-69.5 -266q0 -164 74.5 -279.5t179.5 -115.5z" />
    <glyph glyph-name="guilsinglleft" unicode="&#x2039;" horiz-adv-x="591" 
d="M498 145h-31l-391 381v13l391 379h31q-241 -280 -342 -386q79 -83 175.5 -193.5t166.5 -193.5z" />
    <glyph glyph-name="guilsinglright" unicode="&#x203a;" horiz-adv-x="591" 
d="M125 145h-31q70 83 166.5 193.5t175.5 193.5q-101 106 -342 386h31l391 -379v-13z" />
    <glyph glyph-name="fraction" unicode="&#x2044;" horiz-adv-x="368" 
d="M-328 0h-61l1081 1556h66z" />
    <glyph glyph-name="Euro" unicode="&#x20ac;" horiz-adv-x="1306" 
d="M817 1518q-83 0 -153 -34.5t-128 -107.5t-94 -198t-43 -293h404v-66h-406v-26q0 -20 1 -57.5t1 -55.5h404v-66h-397q28 -291 141 -436t276 -145q137 0 222 105t85 323h41v-307q-118 -177 -340 -177q-100 0 -182.5 38.5t-138 100t-97 147t-64 171t-34.5 180.5h-235v66h229
q-4 78 -4 111v28h-225v66h229q6 98 24.5 189.5t58 184t96 160.5t144.5 111t197 43q225 0 342 -176v-307h-41q0 220 -84.5 324t-228.5 104z" />
    <glyph glyph-name="uni20B4" unicode="&#x20b4;" horiz-adv-x="1222" 
d="M967 948h166v-65h-1047v65h772q35 42 53.5 110.5t18.5 141.5q0 145 -87 227t-239 82q-51 0 -100.5 -10t-97.5 -31t-77.5 -61.5t-29.5 -95.5q0 -17 3.5 -36t7 -32.5t13 -35.5t14.5 -31.5t18.5 -36t17.5 -35.5h-41l-154 303q183 166 426 166q190 0 304 -99t114 -278
q0 -163 -55 -248zM233 678h-147v65h1047v-65h-777q-123 -94 -123 -266q0 -182 110 -280.5t271 -98.5q48 0 95.5 7.5t102.5 30.5t96 59t68.5 99t27.5 144q0 25 -5 54t-10 46.5t-16.5 55t-16.5 53.5h41l113 -365q-26 -42 -67 -81t-101.5 -76.5t-146 -60t-183.5 -22.5
q-101 0 -185 26t-148 78.5t-100 138.5t-36 198q0 156 90 260z" />
    <glyph glyph-name="uni20B8" unicode="&#x20b8;" horiz-adv-x="1423" 
d="M123 1491v65h1177v-65h-1177zM911 0h-399v20l154 54v1216h-441l-153 -256h-21l72 318h1177l72 -318h-20l-154 256h-440v-1216l153 -54v-20z" />
    <glyph glyph-name="uni20BD" unicode="&#x20bd;" horiz-adv-x="1214" 
d="M651 733h-264v-139h606v-66h-606v-454l154 -54v-20h-400v20l154 54v454h-205v66h205v139h-205v66h205v676l-154 61v20h510q97 0 184 -23.5t157 -69t111.5 -122t41.5 -174.5q0 -134 -72 -235t-182.5 -150t-239.5 -49zM641 1495h-254v-700h254q188 0 294.5 98t106.5 276
q0 167 -104.5 246.5t-296.5 79.5z" />
    <glyph glyph-name="uni2116" unicode="&#x2116;" horiz-adv-x="2172" 
d="M1724 741q-68 0 -125.5 27.5t-95.5 71.5t-64.5 99t-38 109.5t-11.5 104.5q0 73 23 145.5t66 134t112.5 100t154.5 38.5q70 0 128.5 -26t98 -67.5t67 -94.5t40 -107.5t12.5 -106.5q0 -67 -24.5 -140t-68.5 -138t-116 -107.5t-158 -42.5zM485 0h-399v20l154 54v1401
l-154 61v20h248l745 -1288v1207l-153 61v20h399v-20l-154 -61v-1475h-51l-786 1370v-1296l151 -54v-20zM1749 776q98 0 173 107.5t75 253.5q0 101 -34 192.5t-97.5 150t-141.5 58.5q-100 0 -174.5 -101.5t-74.5 -252.5q0 -94 34 -187t98.5 -157t141.5 -64zM2071 492h-662v51
h662v-51z" />
    <glyph glyph-name="trademark" unicode="&#x2122;" horiz-adv-x="1376" 
d="M391 948h-155v15l51 30v529h-152l-63 -88h-15l27 122h455l28 -122h-14l-64 88h-153v-529l55 -30v-15zM799 948h-154v15l51 30v523l-51 22v18h100l218 -526l208 526h91v-18l-50 -22v-523l50 -30v-15h-156v15l57 30v463l-196 -508h-25l-197 479v-434l54 -30v-15z" />
    <glyph glyph-name="oneeighth" unicode="&#x215b;" horiz-adv-x="1699" 
d="M395 827h-239v11l88 32v689l-189 -213v24l181 266h159v-10l-88 -39v-717l88 -32v-11zM209 0h-62l1082 1556h65zM1346 -12q-123 0 -199 59.5t-76 157.5q0 86 52 149t137 80q-70 13 -114 62t-44 114q0 94 69 150.5t183 56.5q109 0 175 -55t66 -144q0 -57 -43.5 -107
t-115.5 -75h-2q93 -12 148.5 -70.5t55.5 -144.5q0 -105 -80 -169t-212 -64zM1354 451q75 0 121.5 42t46.5 111q0 82 -52 131t-137 49q-75 0 -120.5 -44.5t-45.5 -118.5q0 -77 51 -123.5t136 -46.5zM1364 23q91 0 146 51.5t55 136.5q0 91 -60.5 147t-158.5 56
q-94 0 -151.5 -52t-57.5 -137q0 -91 62 -146.5t165 -55.5z" />
    <glyph glyph-name="threeeighths" unicode="&#x215c;" horiz-adv-x="1890" 
d="M319 815q-88 0 -165.5 35.5t-96.5 93.5l37 168h39q-16 -62 -16 -113q0 -36 14.5 -64.5t36 -45t51 -27.5t56 -14.5t53.5 -3.5q107 0 166 63.5t59 163.5q0 164 -166 164q-26 0 -71 -13t-72 -32v45q129 50 190.5 106.5t61.5 126.5q0 61 -44 100.5t-126 39.5
q-73 0 -123.5 -33t-50.5 -100q0 -45 28 -146h-39l-61 170q36 53 101.5 99.5t154.5 46.5q93 0 164 -42.5t71 -123.5q0 -65 -51.5 -122.5t-150.5 -99.5q62 9 120 -6.5t99 -62t41 -115.5q0 -108 -91 -183t-219 -75zM403 0h-61l1081 1556h66zM1540 -12q-123 0 -198.5 59.5
t-75.5 157.5q0 86 51.5 149t136.5 80q-70 13 -114 62t-44 114q0 94 69 150.5t183 56.5q109 0 175.5 -55t66.5 -144q0 -57 -44 -107t-116 -75h-2q93 -12 149 -70.5t56 -144.5q0 -104 -80.5 -168.5t-212.5 -64.5zM1548 451q75 0 121.5 42t46.5 111q0 82 -51.5 131t-136.5 49
q-75 0 -120.5 -44.5t-45.5 -118.5q0 -77 51 -123.5t135 -46.5zM1559 23q91 0 145.5 51.5t54.5 136.5q0 91 -60.5 147t-158.5 56q-94 0 -151.5 -52t-57.5 -137q0 -91 62.5 -146.5t165.5 -55.5z" />
    <glyph glyph-name="fiveeighths" unicode="&#x215d;" horiz-adv-x="2021" 
d="M397 817q-235 0 -350 275h35q32 -60 56 -96t59.5 -72.5t80 -53t101.5 -16.5q124 0 203.5 74t79.5 190q0 99 -60 162t-158 63q-77 0 -137.5 -45t-87.5 -143h-74l82 426l-82 45v10h488l41 -170h-23l-88 140h-260l-72 -349q34 53 99.5 86t138.5 33q112 0 192 -73t80 -187
q0 -126 -100.5 -212.5t-243.5 -86.5zM520 0h-61l1081 1556h66zM1657 -12q-123 0 -199 59.5t-76 157.5q0 86 52 149t137 80q-70 13 -114 62t-44 114q0 94 69 150.5t183 56.5q109 0 175.5 -55t66.5 -144q0 -57 -44 -107t-116 -75h-2q93 -12 149 -70.5t56 -144.5
q0 -104 -80.5 -168.5t-212.5 -64.5zM1665 451q75 0 121.5 42t46.5 111q0 82 -51.5 131t-136.5 49q-75 0 -120.5 -44.5t-45.5 -118.5q0 -77 50.5 -123.5t135.5 -46.5zM1675 23q91 0 146 51.5t55 136.5q0 91 -60.5 147t-158.5 56q-94 0 -151.5 -52t-57.5 -137q0 -91 62 -146.5
t165 -55.5z" />
    <glyph glyph-name="seveneighths" unicode="&#x215e;" horiz-adv-x="1771" 
d="M225 827h-59l139 394h-151v30h163l138 355h-299l-80 -140h-25l41 170h494v-10l-80 -47l-123 -317l100 -19v-22h-116zM279 0h-62l1081 1556h66zM1415 -12q-123 0 -198.5 59.5t-75.5 157.5q0 86 51.5 149t136.5 80q-70 13 -114 62t-44 114q0 94 69 150.5t183 56.5
q109 0 175.5 -55t66.5 -144q0 -57 -44 -107t-116 -75h-2q93 -12 149 -70.5t56 -144.5q0 -104 -80.5 -168.5t-212.5 -64.5zM1423 451q75 0 121.5 42t46.5 111q0 82 -51.5 131t-136.5 49q-75 0 -120.5 -44.5t-45.5 -118.5q0 -77 50.5 -123.5t135.5 -46.5zM1434 23
q91 0 145.5 51.5t54.5 136.5q0 91 -60.5 147t-158.5 56q-94 0 -151.5 -52t-57.5 -137q0 -91 62.5 -146.5t165.5 -55.5z" />
    <glyph glyph-name="arrowleft" unicode="&#x2190;" horiz-adv-x="2422" 
d="M612 309h-30l-496 381v12l496 379h30l-325 -350h2042v-69h-2042z" />
    <glyph glyph-name="arrowup" unicode="&#x2191;" horiz-adv-x="858" 
d="M463 -410h-70v1848l-350 -326v31l379 495h12l381 -495v-31l-352 326v-1848z" />
    <glyph glyph-name="arrowright" unicode="&#x2192;" horiz-adv-x="2422" 
d="M1841 309h-31l326 353h-2042v69h2042l-326 350h31l496 -379v-12z" />
    <glyph glyph-name="arrowdown" unicode="&#x2193;" horiz-adv-x="856" 
d="M432 -410h-12l-379 496v31l350 -326v1847h70v-1847l352 326v-31z" />
    <glyph glyph-name="arrowboth" unicode="&#x2194;" horiz-adv-x="2406" 
d="M608 309h-30l-496 381v12l496 379h30l-325 -350h1841l-326 350h31l495 -379v-12l-495 -381h-31l326 353h-1841z" />
    <glyph glyph-name="arrowupdn" unicode="&#x2195;" horiz-adv-x="882" 
d="M446 -410h-12l-379 496v31l351 -326v1647l-351 -326v31l379 495h12l381 -495v-31l-352 326v-1647l352 326v-31z" />
    <glyph glyph-name="uni2196" unicode="&#x2196;" horiz-adv-x="1382" 
d="M1343 -375l-61 -35l-1065 1854l-141 -457l-17 25l84 620l11 6l575 -239l14 -27l-464 107z" />
    <glyph glyph-name="uni2197" unicode="&#x2197;" horiz-adv-x="1382" 
d="M1165 1444l-1065 -1854l-61 35l1065 1854l-465 -107l14 27l576 239l10 -6l84 -620l-16 -25z" />
    <glyph glyph-name="uni2198" unicode="&#x2198;" horiz-adv-x="1382" 
d="M1239 -403l-10 -7l-576 240l-14 27l465 -107l-1065 1854l61 34l1065 -1853l142 457l16 -25z" />
    <glyph glyph-name="uni2199" unicode="&#x2199;" horiz-adv-x="1382" 
d="M729 -170l-575 -240l-11 7l-84 620l17 25l141 -457l1065 1853l61 -34l-1064 -1854l464 107z" />
    <glyph glyph-name="partialdiff" unicode="&#x2202;" horiz-adv-x="1085" 
d="M465 -23q-126 0 -223 66t-146 171.5t-49 229.5q0 73 18 146.5t55 142t89 121t126.5 84t160.5 31.5q224 0 411 -207l11 -2q0 145 -46.5 278t-124 230.5t-172 167t-194.5 100.5l6 37q52 -18 101 -40.5t111.5 -61.5t115.5 -86t105 -115.5t89 -147t59.5 -183.5t22.5 -224
q0 -214 -68 -382.5t-188 -262t-270 -93.5zM467 47q88 0 165.5 39t139.5 115.5t98 202.5t37 286q-78 89 -186.5 153t-224.5 64q-161 0 -267 -125.5t-106 -322.5q0 -182 93 -297t251 -115z" />
    <glyph glyph-name="emptyset" unicode="&#x2205;" horiz-adv-x="1531" 
d="M1352 1292l-113 -131q87 -96 135.5 -222.5t48.5 -264.5q0 -198 -93 -359t-249 -249.5t-340 -88.5q-227 0 -397 138l-119 -140l-45 37l121 142q-91 91 -140.5 217t-49.5 274q0 154 53 289t142.5 230t212 149.5t257.5 54.5q241 0 422 -166l109 127zM211 702
q0 -280 162 -464l762 888q-83 86 -185 131.5t-202 45.5q-70 0 -141.5 -19.5t-143.5 -65.5t-127.5 -113t-90 -171.5t-34.5 -231.5zM793 43q72 0 141.5 16t141.5 57t126 103.5t88.5 163.5t34.5 229q0 278 -151 471l-760 -888q82 -74 181.5 -113t197.5 -39z" />
    <glyph glyph-name="product" unicode="&#x220f;" horiz-adv-x="1212" 
d="M328 -205h-246v21l154 49v1630l-154 41v20h1048v-20l-153 -41v-1630l153 -49v-21h-245v1700h-557v-1700z" />
    <glyph glyph-name="summation" unicode="&#x2211;" horiz-adv-x="1083" 
d="M932 -205h-889v21l109 39l454 800l-389 820l-119 61v20h793l70 -317h-21l-133 256h-506l397 -840l-462 -798h591l154 256h20z" />
    <glyph glyph-name="minus" unicode="&#x2212;" horiz-adv-x="870" 
d="M797 543h-723v65h723v-65z" />
    <glyph glyph-name="radical" unicode="&#x221a;" horiz-adv-x="1323" 
d="M483 -205h-61l-283 805l-153 55v21h399v-21l-156 -55l236 -682l436 1638h471v-16l-430 -65z" />
    <glyph glyph-name="infinity" unicode="&#x221e;" horiz-adv-x="1558" 
d="M401 268q-122 0 -210.5 84.5t-88.5 220.5q0 135 85.5 220.5t207.5 85.5q103 0 204.5 -64t180.5 -176q79 112 180.5 176t204.5 64q122 0 207.5 -85.5t85.5 -220.5q0 -137 -89 -221t-210 -84q-102 0 -200.5 63.5t-178.5 176.5q-80 -113 -178.5 -176.5t-200.5 -63.5z
M410 332q97 0 181.5 66.5t143.5 174.5q-67 113 -154 179.5t-182 66.5t-157 -64.5t-62 -174.5q0 -113 65.5 -180.5t164.5 -67.5zM1151 332q98 0 163.5 67.5t65.5 178.5q0 110 -64.5 175.5t-158.5 65.5q-89 0 -175.5 -64t-156.5 -182q60 -111 145.5 -176t180.5 -65z" />
    <glyph glyph-name="integral" unicode="&#x222b;" horiz-adv-x="839" 
d="M197 -272q-115 0 -181 151l33 316h29q-1 -165 8 -255t31.5 -129.5t64.5 -39.5q32 0 58 19.5t45 60t33 88.5t24 120.5t16.5 140.5t12 163.5t9 173.5t8 187t9.5 189q7 124 15 210.5t21 165.5t30 128.5t42.5 86.5t59.5 53t80 16q36 0 65 -11t46 -25t31.5 -37t20.5 -38.5
t13 -38.5l-33 -317h-30q0 166 -11.5 257t-35 127t-66.5 36q-52 0 -84.5 -51t-54 -175.5t-35.5 -345.5q-7 -107 -15 -319q-16 -400 -40 -556q-42 -281 -153 -336q-30 -15 -66 -15z" />
    <glyph glyph-name="approxequal" unicode="&#x2248;" horiz-adv-x="956" 
d="M164 635h-31q2 87 50 135.5t134 48.5q49 0 96 -18t78.5 -39t75.5 -39t88 -18q54 0 95.5 26.5t44.5 91.5h30q-5 -87 -53.5 -135.5t-136.5 -48.5q-52 0 -99.5 18t-78 39.5t-72 39.5t-82.5 18q-32 0 -60 -9t-52 -37t-27 -73zM164 317h-31q2 87 50 136t134 49q49 0 96 -18
t78.5 -39.5t75.5 -39.5t88 -18q54 0 95.5 27t44.5 92h30q-5 -87 -53.5 -135.5t-136.5 -48.5q-52 0 -99.5 18t-78 39t-72 39t-82.5 18q-32 0 -60 -9t-52 -37t-27 -73z" />
    <glyph glyph-name="notequal" unicode="&#x2260;" horiz-adv-x="907" 
d="M815 793v-66h-248l-116 -303h364v-66h-389l-113 -297h-61l113 297h-273v66h297l115 303h-412v66h436l113 297h64l-113 -297h223z" />
    <glyph glyph-name="lessequal" unicode="&#x2264;" horiz-adv-x="1003" 
d="M918 158v-72l-824 479v21l824 477v-72l-723 -416zM913 0h-825v66h825v-66z" />
    <glyph glyph-name="greaterequal" unicode="&#x2265;" horiz-adv-x="1003" 
d="M909 565l-823 -479v72l723 417l-723 416v72l823 -477v-21zM915 0h-825v66h825v-66z" />
    <glyph glyph-name="lozenge" unicode="&#x25ca;" horiz-adv-x="999" 
d="M528 -29h-61l-375 643l375 643h61l379 -643zM193 614l323 -563l330 563l-330 564z" />
    <glyph glyph-name="B.ss01" horiz-adv-x="1316" 
d="M758 0h-678v20l153 52v1403l-153 61v20h563q244 0 383 -107.5t139 -293.5q0 -143 -83.5 -254.5t-211.5 -148.5q80 -14 145 -41.5t117 -70t80.5 -105.5t28.5 -142t-28.5 -148t-85.5 -125t-152 -88t-217 -32zM326 1495v-1434h422q77 0 139 15t103 42t70 59.5t44.5 72t22 75
t6.5 72.5q0 159 -111.5 246.5t-300.5 87.5q-85 0 -159.5 34t-186.5 146l461 404h30q-12 -13 -64.5 -64.5t-72.5 -73t-60 -68.5t-57.5 -78t-33 -72.5t-15.5 -79.5q0 -65 39.5 -90t112.5 -25q113 0 193.5 54.5t118.5 143t38 199.5q0 179 -106.5 256.5t-331.5 77.5h-301z" />
    <glyph glyph-name="C.ss01" horiz-adv-x="1562" 
d="M815 -23q-115 0 -223.5 34t-200 101t-160 159.5t-107 216.5t-38.5 264q0 235 105 423.5t287 293t405 104.5q174 0 304 -59t183 -130l-379 -966h-30q23 65 75.5 204.5t80 218t52.5 181t25 174.5q0 145 -89 223t-259 78q-58 0 -117 -8.5t-126 -30t-126.5 -54.5t-115 -86.5
t-95.5 -121.5t-64 -164t-24 -209q0 -156 42.5 -286.5t112 -218t160.5 -149t186 -89t191 -27.5q222 0 394.5 147t257.5 416h30q-81 -291 -276 -465t-461 -174z" />
    <glyph glyph-name="Cacute.ss01" horiz-adv-x="1562" 
d="M809 1659h-27q69 143 127.5 233t93.5 121t60 31q33 0 33 -31q0 -76 -287 -354zM815 -23q-115 0 -223.5 34t-200 101t-160 159.5t-107 216.5t-38.5 264q0 235 105 423.5t287 293t405 104.5q174 0 304 -59t183 -130l-379 -966h-30q23 65 75.5 204.5t80 218t52.5 181
t25 174.5q0 145 -89 223t-259 78q-58 0 -117 -8.5t-126 -30t-126.5 -54.5t-115 -86.5t-95.5 -121.5t-64 -164t-24 -209q0 -156 42.5 -286.5t112 -218t160.5 -149t186 -89t191 -27.5q222 0 394.5 147t257.5 416h30q-81 -291 -276 -465t-461 -174z" />
    <glyph glyph-name="Ccaron.ss01" horiz-adv-x="1562" 
d="M817 1653q-30 0 -61 44.5t-119 201.5q-48 86 -78 139h27q7 -8 36 -41.5t38.5 -45t33.5 -40t36 -44t30 -38.5t31.5 -42t25.5 -38q20 32 51 72.5t51 64.5t68 80.5t60 71.5h26q-29 -51 -75 -135q-89 -160 -120 -205t-61 -45zM815 -23q-115 0 -223.5 34t-200 101t-160 159.5
t-107 216.5t-38.5 264q0 235 105 423.5t287 293t405 104.5q174 0 304 -59t183 -130l-379 -966h-30q23 65 75.5 204.5t80 218t52.5 181t25 174.5q0 145 -89 223t-259 78q-58 0 -117 -8.5t-126 -30t-126.5 -54.5t-115 -86.5t-95.5 -121.5t-64 -164t-24 -209
q0 -156 42.5 -286.5t112 -218t160.5 -149t186 -89t191 -27.5q222 0 394.5 147t257.5 416h30q-81 -291 -276 -465t-461 -174z" />
    <glyph glyph-name="Ccedilla.ss01" horiz-adv-x="1562" 
d="M1522 616h30q-78 -279 -261 -451t-433 -185l-55 -97q77 0 116 -37.5t39 -95.5q0 -62 -45 -115t-118 -53q-58 0 -119 35v16q58 -22 106 -22q55 0 89 26.5t34 77.5q0 44 -38.5 75.5t-110.5 31.5v39l65 116h-6q-115 0 -223.5 34t-200 101t-160 159.5t-107 216.5t-38.5 264
q0 235 105 423.5t287 293t405 104.5q174 0 304 -59t183 -130l-379 -966h-30q23 65 75.5 204.5t80 218t52.5 181t25 174.5q0 145 -89 223t-259 78q-58 0 -117 -8.5t-126 -30t-126.5 -54.5t-115 -86.5t-95.5 -121.5t-64 -164t-24 -209q0 -156 42.5 -286.5t112 -218t160.5 -149
t186 -89t191 -27.5q222 0 394.5 147t257.5 416z" />
    <glyph glyph-name="D.ss01" horiz-adv-x="1583" 
d="M899 -23q-93 0 -169.5 19.5t-130 55t-84.5 64.5t-64 70l378 967h31q-27 -78 -80 -214.5t-79.5 -211.5t-50 -176.5t-23.5 -185.5q0 -156 68.5 -250.5t191.5 -94.5q96 0 186.5 55.5t159 151t110 234t41.5 293.5q0 346 -181.5 554t-493.5 208h-383v-1516h-246v20l153 54
v1401l-153 61v20h686q222 0 387.5 -99.5t252.5 -278t87 -414.5q0 -220 -74.5 -399t-211 -283.5t-308.5 -104.5z" />
    <glyph glyph-name="Dcaron.ss01" horiz-adv-x="1583" 
d="M696 1653q-30 0 -61 44.5t-119 201.5q-48 86 -78 139h27q7 -8 36 -41.5t38.5 -45t33.5 -40t36 -44t30 -38.5t31.5 -42t25.5 -38q20 32 51 72.5t51 64.5t68 80.5t60 71.5h26q-29 -51 -75 -135q-89 -160 -120 -205t-61 -45zM899 -23q-93 0 -169.5 19.5t-130 55t-84.5 64.5
t-64 70l378 967h31q-27 -78 -80 -214.5t-79.5 -211.5t-50 -176.5t-23.5 -185.5q0 -156 68.5 -250.5t191.5 -94.5q96 0 186.5 55.5t159 151t110 234t41.5 293.5q0 346 -181.5 554t-493.5 208h-383v-1516h-246v20l153 54v1401l-153 61v20h686q222 0 387.5 -99.5t252.5 -278
t87 -414.5q0 -220 -74.5 -399t-211 -283.5t-308.5 -104.5z" />
    <glyph glyph-name="Dcroat.ss01" horiz-adv-x="1585" 
d="M82 1556h686q222 0 387.5 -99.5t252.5 -278t87 -414.5q0 -220 -74.5 -399t-211 -283.5t-308.5 -104.5q-93 0 -169.5 19.5t-130 55t-84.5 64.5t-64 70l378 967h31q-27 -78 -80 -214.5t-79.5 -211.5t-50 -176.5t-23.5 -185.5q0 -156 68.5 -250.5t191.5 -94.5
q96 0 186.5 55.5t159 151t110 234t41.5 293.5q0 346 -181.5 554t-493.5 208h-383v-713h272v-51h-272v-752h-246v20l154 54v678h-134v51h134v672l-154 61v20z" />
    </font>
</defs>
</svg>
