<?xml version="1.0" standalone="no"?>
<!DOCTYPE svg PUBLIC "-//W3C//DTD SVG 1.1//EN" "http://www.w3.org/Graphics/SVG/1.1/DTD/svg11.dtd" >
<svg xmlns="http://www.w3.org/2000/svg" xmlns:xlink="http://www.w3.org/1999/xlink" version="1.1">
<metadata>
Created by FontForge 20170731 at Tue Feb  2 19:50:29 2021
 By Aleksey,,,
Copyright (c) 2020 by Matthieu Salvaggio. All rights reserved.
</metadata>
<defs>
<font id="ApocLC-RegularItalic" horiz-adv-x="0" >
  <font-face 
    font-family="Apoc LC"
    font-weight="400"
    font-style="italic"
    font-stretch="normal"
    units-per-em="2048"
    panose-1="0 0 5 0 0 0 0 0 0 0"
    ascent="1638"
    descent="-410"
    x-height="1044"
    cap-height="1556"
    bbox="-1470 -500 2513 2126"
    underline-thickness="102"
    underline-position="-307"
    slope="-11"
    unicode-range="U+0020-FB02"
  />
<missing-glyph horiz-adv-x="1200" 
d="M1038 0h-1081l6 29l162 49l270 1388l-141 62l6 28h1081l-6 -28l-166 -62l-270 -1388l145 -49zM522 1479l-254 -1313l774 1313h-520zM1018 1331l-742 -1253h500z" />
    <glyph glyph-name="fi" unicode="fi" horiz-adv-x="1105" 
d="M360 0h-415l6 25l143 57l172 891h-127l15 71h127l38 195q38 195 137 313.5t259 118.5q46 0 79 -11.5t55 -30t43 -38t54 -40.5t76 -33q56 -16 84.5 -36.5t28.5 -60.5q0 -55 -40 -94t-94 -39q-24 0 -42.5 8t-31.5 25t-21 32.5t-17 39.5q-3 8 -11.5 31t-13 34t-14 31.5
t-17 31t-20.5 25.5t-26.5 22.5t-32 13t-39.5 5.5q-181 0 -242 -319l-43 -224h606l-190 -974l125 -45l-4 -25h-416l6 25l141 45l174 903h-456l-172 -891l121 -57z" />
    <glyph glyph-name="fl" unicode="fl" horiz-adv-x="1179" 
d="M358 0h-413l4 25l141 45l176 903h-127l15 71h127l38 199q39 196 135.5 312t245.5 116q66 0 121 -20t104.5 -40t100.5 -20q73 0 170 47h29l-305 -1568l124 -45l-6 -25h-413l4 25l143 45l232 1198q13 69 -1.5 125.5t-47 91.5t-77.5 59t-88 33.5t-83 9.5q-96 0 -150.5 -83.5
t-83.5 -235.5l-45 -224h266l-14 -71h-266l-174 -903l125 -45z" />
    <glyph glyph-name="fh" unicode="fh" horiz-adv-x="1804" 
d="M358 0h-413l4 25l141 45l176 903h-127l15 71h127l38 199q87 428 381 428q74 0 173.5 -40t164.5 -40q73 0 170 47h29l-156 -800q18 29 41 57.5t60 62t78 58.5t96 42t114 17q123 0 184.5 -74.5t31.5 -232.5l-136 -698l125 -45l-6 -25h-405l4 25l135 45l119 620
q58 305 -127 305q-100 0 -189 -76.5t-145 -183.5l-131 -665l127 -45l-6 -25h-428l6 25l153 45l232 1198q13 69 -3.5 125.5t-52 91.5t-82.5 59t-90 33.5t-79 9.5q-45 0 -80.5 -17.5t-59 -44.5t-42.5 -71t-30 -86t-22 -100l-45 -224h266l-14 -71h-266l-174 -903l125 -45z" />
    <glyph glyph-name="fb" unicode="fb" horiz-adv-x="1710" 
d="M1126 -23q-98 0 -159.5 44t-108.5 122l-117 -143h-34l245 1268q15 72 3 126t-37 91t-63.5 59.5t-75 32.5t-72.5 10q-45 0 -80.5 -17.5t-59 -44.5t-42.5 -71t-30 -86t-22 -100l-45 -224h266l-14 -71h-266l-174 -903l125 -45l-7 -25h-413l4 25l141 45l176 903h-127l15 71
h127l38 199q87 428 381 428q61 0 105.5 -20t83.5 -40t86 -20q73 0 172 47h29l-111 -563q121 0 219.5 -25t165 -68t111 -103.5t64.5 -128.5t20 -146q0 -161 -73 -306.5t-193.5 -233t-252.5 -87.5zM1118 57q96 0 181 74.5t135.5 199t50.5 263.5q0 89 -26 165t-77.5 135
t-135.5 92.5t-193 33.5l-162 -840q36 -53 97 -88t130 -35z" />
    <glyph glyph-name="fk" unicode="fk" horiz-adv-x="1722" 
d="M358 0h-413l4 25l141 45l176 903h-127l15 71h127l38 199q39 196 135.5 312t245.5 116q66 0 121 -20t104.5 -40t100.5 -20q73 0 170 47h29l-242 -1241l571 578l-163 45l6 24h399l-6 -24l-182 -53l-320 -330l244 -576l119 -36l-4 -25h-433l5 25l139 32l-193 453l-200 -205
l-45 -235l124 -45l-6 -25h-413l4 25l143 45l232 1198q13 69 -1.5 125.5t-47 91.5t-77.5 59t-88 33.5t-83 9.5q-96 0 -150.5 -83.5t-83.5 -235.5l-45 -224h266l-14 -71h-266l-174 -903l125 -45z" />
    <glyph glyph-name="ffi" unicode="ffi" horiz-adv-x="1722" 
d="M360 0h-415l6 25l143 57l172 891h-127l15 71h127l41 199q39 195 135 311.5t241 116.5q58 0 110 -19.5t84 -44.5t74 -55t76 -43q107 162 289 162q46 0 79 -11.5t55 -30t43 -38t54 -40.5t76 -33q55 -16 83 -36.5t28 -60.5q0 -55 -38.5 -94t-92.5 -39q-46 0 -70.5 26
t-40.5 72q-4 10 -14.5 37.5t-16.5 40.5t-17.5 36.5t-22.5 35.5t-26.5 25.5t-35.5 19.5t-43 6q-53 0 -94.5 -25.5t-69.5 -72.5t-45.5 -100t-31.5 -121l-43 -224h606l-191 -974l125 -45l-4 -25h-416l7 25l141 45l174 903h-457l-174 -891l123 -57l-4 -25h-416l6 25l144 57
l172 891h-467l-172 -891l121 -57zM473 1268l-43 -224h467l47 244q24 123 -52.5 211t-189.5 88q-91 0 -145 -84t-84 -235z" />
    <glyph glyph-name="ffl" unicode="ffl" horiz-adv-x="1794" 
d="M358 0h-413l4 25l141 45l176 903h-127l15 71h127l36 195q40 197 137.5 314.5t243.5 117.5q57 0 108 -19.5t82.5 -44.5t74 -55t77.5 -43q107 162 277 162q66 0 121 -20t104 -40t100 -20q71 0 170 47h29l-305 -1568l125 -45l-6 -25h-414l4 25l141 45l234 1198
q13 69 -1.5 125.5t-47 91.5t-77.5 59t-88 33.5t-83 9.5q-96 0 -150.5 -83t-85.5 -236l-43 -224h267l-15 -71h-266l-174 -903l123 -45l-4 -25h-414l4 25l142 45l176 903h-469l-174 -903l125 -45zM473 1268l-45 -224h469l45 234q26 134 -52 221.5t-190 87.5q-166 0 -227 -319z
" />
    <glyph glyph-name="ff" unicode="ff" horiz-adv-x="1216" 
d="M358 0h-413l4 25l141 45l176 903h-127l15 71h127l38 199q38 194 136 311t243 117q58 0 109 -19.5t82 -44.5t73 -54t76 -42q109 160 277 160q55 0 99.5 -15.5t75 -43.5t46.5 -49t33 -50l-187 -315h-43q88 168 88 264q0 125 -122 125q-158 0 -224 -338l-39 -205h267
l-15 -71h-266l-176 -903l125 -45l-4 -25h-416l6 25l142 45l174 903h-465l-174 -903l125 -45zM473 1268l-45 -224h465l43 216q31 137 -39 232t-197 95q-89 0 -143 -83t-84 -236z" />
    <glyph glyph-name="ffh" unicode="ffh" horiz-adv-x="2420" 
d="M358 0h-413l4 25l141 45l176 903h-127l15 71h127l38 199q38 194 136 311t243 117q58 0 109 -19.5t82 -44t72 -54t75 -42.5q108 160 281 160q74 0 173 -40t165 -40q71 0 170 47h28l-157 -800q19 29 42 57t61 62t78.5 59t96 42t113.5 17q123 0 184 -74.5t31 -232.5
l-135 -698l125 -45l-6 -25h-406l4 25l133 45l121 620q60 305 -129 305q-99 0 -187.5 -76.5t-146.5 -183.5l-129 -665l127 -45l-6 -25h-428l6 25l154 45l231 1198q13 69 -3.5 125.5t-52 91.5t-82.5 59t-90 33.5t-79 9.5q-45 0 -81 -17.5t-59.5 -44.5t-42.5 -71.5t-30 -85.5
t-23 -100l-43 -224h267l-15 -71h-266l-174 -903l123 -45l-4 -25h-414l4 25l142 45l176 903h-469l-174 -903l125 -45zM473 1268l-45 -224h469l47 244q24 123 -53 211t-189 88q-168 0 -229 -319z" />
    <glyph glyph-name="ffk" unicode="ffk" horiz-adv-x="2340" 
d="M358 0h-413l4 25l141 45l176 903h-127l15 71h127l38 199q38 194 136 311t243 117q58 0 109 -19.5t83 -44.5t74 -54t76 -42q108 160 277 160q66 0 121 -20t104 -40t100 -20q71 0 170 47h29l-242 -1243l568 576l-158 49l4 24h400l-5 -24l-184 -55l-317 -328l241 -576
l121 -36l-6 -25h-432l6 25l137 32l-192 453l-201 -207l-45 -233l125 -45l-6 -25h-414l4 25l141 45l234 1198q13 69 -1.5 125.5t-47 91.5t-77.5 59t-88 33.5t-83 9.5q-96 0 -150.5 -83t-85.5 -236l-43 -224h267l-15 -71h-266l-174 -903l123 -45l-4 -25h-414l4 25l142 45
l176 903h-469l-174 -903l125 -45zM473 1268l-45 -224h469l47 244q11 62 -4.5 118t-50.5 95.5t-84 62.5t-103 23q-168 0 -229 -319z" />
    <glyph glyph-name="st" unicode="st" horiz-adv-x="1546" 
d="M332 -23q-125 0 -210.5 51t-119.5 124l141 258h45q-51 -120 -51 -193q0 -84 55.5 -127t157.5 -43q133 0 224.5 68.5t91.5 163.5q0 28 -13.5 51.5t-33.5 40t-60 34.5t-75 30t-97 32q-231 72 -231 252q0 121 76 217t196 127q26 153 116.5 276t223 191.5t279.5 68.5
q169 0 257.5 -90.5t53.5 -265.5l-39 -199h254l-12 -71h-254l-138 -703q-43 -223 86 -223q100 0 181 133h45q-54 -97 -136 -150t-171 -53q-101 0 -140.5 75.5t-9.5 223.5l135 697h-155l8 41q132 19 212.5 97t80.5 224q0 109 -72 160t-197 51q-217 0 -376 -136t-193 -341
q41 6 82 6q105 0 180 -42t113 -103q-58 -127 -114.5 -186.5t-117.5 -59.5q-83 0 -137 92.5t-51 216.5q-77 -23 -122.5 -76t-45.5 -118q0 -58 55 -96t174 -76q9 -3 28 -9q47 -15 69.5 -23t59.5 -23.5t55.5 -30.5t39 -37.5t29 -51.5t8.5 -65q0 -177 -125 -293.5t-315 -116.5z
M621 717q42 0 70 31.5t28 80.5q0 70 -57.5 124.5t-141.5 54.5q-24 0 -61 -9q-5 -110 43.5 -196t118.5 -86z" />
    <glyph glyph-name=".notdef" horiz-adv-x="1200" 
d="M1038 0h-1081l6 29l162 49l270 1388l-141 62l6 28h1081l-6 -28l-166 -62l-270 -1388l145 -49zM522 1479l-254 -1313l774 1313h-520zM1018 1331l-742 -1253h500z" />
    <glyph glyph-name=".null" 
 />
    <glyph glyph-name="nonmarkingreturn" horiz-adv-x="682" 
 />
    <glyph glyph-name="space" unicode=" " horiz-adv-x="446" 
 />
    <glyph glyph-name="exclam" unicode="!" horiz-adv-x="477" 
d="M221 336h-39q19 133 94 622.5t84 536.5q16 84 38.5 113.5t56.5 29.5q25 0 37 -13.5t12 -49.5q0 -52 -124.5 -581.5t-158.5 -657.5zM131 -23q-41 0 -66.5 24t-25.5 62q0 55 40.5 96.5t94.5 41.5q42 0 68 -25.5t26 -64.5q0 -54 -41 -94t-96 -40z" />
    <glyph glyph-name="quotedbl" unicode="&#x22;" horiz-adv-x="489" 
d="M258 1055h-25q18 314 37 420q10 55 27 75.5t49 20.5q31 0 39 -19.5t-2 -76.5q-19 -104 -125 -420zM457 1055h-25q18 314 37 420q10 55 27 75.5t49 20.5q31 0 39 -19.5t-2 -76.5q-19 -104 -125 -420z" />
    <glyph glyph-name="numbersign" unicode="#" horiz-adv-x="1169" 
d="M1145 1556h86l-215 -477h201l-19 -82h-221l-215 -475h201l-15 -82h-223l-199 -440h-86l199 440h-295l-199 -440h-86l199 440h-213l14 82h236l215 475h-215l18 82h236l215 477h86l-215 -477h295zM381 522h295l215 475h-295z" />
    <glyph glyph-name="dollar" unicode="$" horiz-adv-x="1060" 
d="M723 860q55 -20 93 -39.5t76 -49t57.5 -70.5t19.5 -93q0 -170 -133.5 -298t-329.5 -148l-43 -223h-80l43 221q-137 4 -235.5 63.5t-127.5 134.5l138 299h43q-46 -132 -47.5 -225.5t59 -146t184.5 -56.5l95 490q-56 15 -95 37q-180 76 -180 241q0 160 114.5 270t291.5 122
l36 188h80l-37 -188q169 -11 295 -142l-137 -227h-43q46 96 42 159.5t-47 96t-124 37.5l-84 -426q23 -7 76 -27zM565 913q1 0 3.5 -1t4.5 -1l78 402q-116 -12 -190 -79.5t-74 -162.5q0 -56 41.5 -93t136.5 -65zM610 698l-90 -465q136 15 221.5 95t85.5 194q0 69 -49.5 107
t-150.5 65z" />
    <glyph glyph-name="percent" unicode="%" horiz-adv-x="1835" 
d="M432 815q-64 0 -113.5 26.5t-78.5 72t-43.5 99.5t-14.5 115q0 89 32 180.5t87 166.5t136.5 122.5t172.5 47.5q52 0 95 -19t72 -51t49 -74.5t29 -88.5t9 -95q0 -88 -32.5 -178t-88.5 -161.5t-138 -117t-173 -45.5zM463 862q47 0 93.5 28.5t86.5 83t65 146t25 205.5
q0 120 -42 197t-111 77q-45 0 -92.5 -31t-88.5 -87.5t-67.5 -149t-26.5 -203.5q0 -118 43.5 -192t114.5 -74zM299 0h-86l1384 1556h91zM1329 -12q-64 0 -113.5 26.5t-78.5 72t-43.5 99.5t-14.5 115q0 89 32 180.5t87 166t136.5 122t172.5 47.5q52 0 95 -19t72 -51t49 -74.5
t29 -88.5t9 -95q0 -88 -32.5 -177.5t-88.5 -161.5t-138 -117t-173 -45zM1360 35q47 0 93.5 28.5t86.5 83t65 146t25 205.5q0 120 -42 197t-111 77q-45 0 -92.5 -31t-88.5 -87.5t-67.5 -149t-26.5 -203.5q0 -118 43.5 -192t114.5 -74z" />
    <glyph glyph-name="ampersand" unicode="&#x26;" horiz-adv-x="1275" 
d="M1210 -53h-34q-153 97 -293 213q-106 -86 -233.5 -135.5t-248.5 -49.5q-164 0 -268 87t-104 227q0 55 16 108t39 93.5t61.5 82t68.5 68t77 58t70 45t63 36.5q-35 110 -35 221q0 157 63.5 288.5t174.5 207.5t245 76q125 0 199 -64t74 -166q0 -53 -18.5 -103t-47 -90
t-74 -80.5t-86.5 -69t-98.5 -61.5t-96.5 -52t-94.5 -45.5t-78.5 -38.5q77 -276 336 -561q68 61 114.5 132t72 155.5t15.5 183t-59 200.5h35q53 -97 66.5 -198t-10.5 -192.5t-73.5 -173.5t-121.5 -150q141 -141 284 -252zM541 840q102 55 173.5 101.5t145 110.5t112 137.5
t38.5 153.5q0 76 -44.5 119t-115.5 43q-84 0 -161 -69.5t-124 -185t-47 -242.5q0 -66 23 -168zM444 53q90 0 194.5 39t195.5 109q-299 274 -396 536q-121 -86 -189.5 -202t-68.5 -234q0 -115 72.5 -181.5t191.5 -66.5z" />
    <glyph glyph-name="quotesingle" unicode="'" horiz-adv-x="290" 
d="M258 1055h-25q18 314 37 420q10 55 27 75.5t49 20.5q31 0 39 -19.5t-2 -76.5q-19 -104 -125 -420z" />
    <glyph glyph-name="parenleft" unicode="(" horiz-adv-x="528" 
d="M354 -123h-47q-28 34 -58.5 90t-65 140t-57 199t-22.5 235q0 165 51 336.5t122.5 300.5t154 241t140 172t85.5 80h48q-76 -71 -157.5 -206t-151 -301.5t-114 -364.5t-44.5 -375q0 -189 35 -333t81 -214z" />
    <glyph glyph-name="parenright" unicode=")" horiz-adv-x="528" 
d="M-31 -123h-47q79 75 159 203t147.5 287.5t110 353t42.5 375.5q0 189 -33.5 350t-77.5 225h47q62 -73 130.5 -276t68.5 -422q0 -127 -34.5 -263t-90 -254.5t-128 -230.5t-147 -198t-147.5 -150z" />
    <glyph glyph-name="asterisk" unicode="*" horiz-adv-x="628" 
d="M430 1141q-45 0 -26 69q10 40 65 166q-121 -104 -154 -124q-53 -32 -71 3q-14 36 28 59t195 75q-136 56 -167.5 78.5t-2.5 58.5q12 14 25 17t28.5 -6t30 -23t35 -38.5t38.5 -47.5l21 -27q-10 117 -0.5 177t51.5 60q23 0 30 -14.5t-3.5 -52t-23.5 -70t-42 -100.5
q126 110 164 131q49 27 64 -6q13 -34 -28 -59q-31 -18 -167 -66l-33 -12q143 -58 166 -74q34 -22 16 -50q-3 -5 -7 -10q-16 -19 -33 -20.5t-38.5 17t-39 38.5t-49.5 61l-21 27q10 -116 0.5 -176.5t-51.5 -60.5z" />
    <glyph glyph-name="plus" unicode="+" horiz-adv-x="894" 
d="M514 616h313l-18 -90h-313l-62 -315h-90l62 315h-320l18 90h320l61 318h90z" />
    <glyph glyph-name="comma" unicode="," horiz-adv-x="356" 
d="M-82 -311h-22q153 159 153 268q0 48 -51 133q9 49 45.5 80t79.5 31q41 0 65.5 -23t24.5 -63q0 -73 -82 -191.5t-213 -234.5z" />
    <glyph glyph-name="hyphen" unicode="-" horiz-adv-x="681" 
d="M600 524h-518l18 103h518z" />
    <glyph glyph-name="period" unicode="." horiz-adv-x="380" 
d="M98 -23q-43 0 -68.5 26t-25.5 65q0 54 40 93.5t97 39.5q41 0 66.5 -27.5t25.5 -67.5q0 -54 -39.5 -91.5t-95.5 -37.5z" />
    <glyph glyph-name="slash" unicode="/" horiz-adv-x="1073" 
d="M-23 -244h-86l1266 1882h90z" />
    <glyph glyph-name="zero" unicode="0" horiz-adv-x="1316" 
d="M528 -23q-87 0 -156.5 33t-115.5 88t-76.5 131t-43.5 158.5t-13 173.5q0 182 63.5 366.5t165.5 326t240.5 230.5t279.5 89q109 0 192 -54.5t130.5 -145.5t70.5 -197t23 -222q0 -179 -65 -358t-169.5 -314.5t-244 -220t-281.5 -84.5zM586 51q76 0 152.5 41.5t143 121
t118 185.5t81 244.5t29.5 288.5q0 257 -81 412t-208 155q-74 0 -151 -44.5t-145 -127.5t-121.5 -192.5t-85 -249.5t-31.5 -287q0 -249 84 -398t215 -149z" />
    <glyph glyph-name="one" unicode="1" horiz-adv-x="757" 
d="M573 0h-481l6 25l164 53l246 1272l-385 -316h-6l4 19l438 503h318l-5 -24l-165 -64l-271 -1390l144 -53z" />
    <glyph glyph-name="two" unicode="2" horiz-adv-x="1150" 
d="M918 0h-957l6 29q74 29 170 91t203 149.5t209.5 200.5t185 234t133 261t50.5 272q0 123 -55.5 192.5t-155.5 69.5q-161 0 -278.5 -166t-135.5 -432l-19 -110h-36l-23 413q39 72 86 131.5t112.5 116t152.5 89t186 32.5q67 0 124.5 -15.5t109 -50t81 -99t29.5 -153.5
q0 -111 -35 -225t-93 -210.5t-111.5 -167t-111.5 -132.5q-179 -187 -520 -438h602l195 235h29z" />
    <glyph glyph-name="three" unicode="3" horiz-adv-x="1163" 
d="M418 -23q-167 0 -285 70t-127 184l158 316h35q-62 -168 -74 -271q-4 -62 22.5 -109.5t74 -73.5t100 -39t108.5 -13q126 0 233 68.5t169.5 185.5t62.5 254q0 110 -60 176t-178 66q-42 0 -83 -12t-136 -48l11 43q105 48 191 103t155.5 120t108 141.5t38.5 155.5
q0 90 -57 147.5t-166 57.5q-155 0 -252 -101.5t-109 -293.5q-8 -86 -8 -137h-39l-51 323q215 283 506 283q95 0 174 -27.5t130.5 -87t51.5 -141.5q0 -133 -121 -261.5t-339 -221.5q108 19 200.5 -6t151.5 -97.5t59 -179.5q0 -151 -90 -283.5t-241.5 -211.5t-323.5 -79z" />
    <glyph glyph-name="four" unicode="4" horiz-adv-x="1130" 
d="M922 0h-488l4 25l172 53l62 311h-678l10 49l895 1118h326l-4 -24l-164 -55l-197 -1002l184 -57l-6 -29h-194l-60 -311l144 -53zM870 1415l-753 -956h569z" />
    <glyph glyph-name="five" unicode="5" horiz-adv-x="1355" 
d="M569 -20q-117 0 -213.5 41t-163 114.5t-110.5 167.5t-66 207h39q28 -103 65 -180.5t92 -141.5t133.5 -97.5t178.5 -33.5q160 0 294 77.5t212 215t78 305.5q0 149 -73.5 239.5t-203.5 90.5q-129 0 -251.5 -91t-202.5 -265h-176l313 839l-133 64l4 24h901l8 -323h-28
l-101 248h-477l-246 -641q-6 -17 0 -17q7 0 17 13q76 105 194.5 162t253.5 57q162 0 273.5 -115t111.5 -297q0 -113 -41 -217.5t-112 -184.5t-162.5 -139.5t-196.5 -90.5t-211 -31z" />
    <glyph glyph-name="six" unicode="6" horiz-adv-x="1300" 
d="M557 -23q-208 0 -323 142t-115 391q0 215 69 413.5t181 339.5t260 225.5t301 84.5q59 0 112 -13t88.5 -31t64.5 -41t43.5 -40.5t21.5 -30.5l-66 -332h-49q37 194 -37.5 299t-233.5 105q-90 0 -168.5 -35.5t-138.5 -96.5t-108.5 -147t-81.5 -183.5t-55 -209.5
q-2 -11 -7.5 -43t-9.5 -60t-6 -50q72 179 215 285t313 106q174 0 287 -112.5t113 -295.5q0 -132 -56.5 -256.5t-148.5 -214.5t-214.5 -144.5t-250.5 -54.5zM592 61q121 0 226 80.5t167 216t62 291.5q0 154 -75.5 245t-203.5 91q-91 0 -178.5 -50.5t-151 -130.5t-102.5 -182
t-39 -202q0 -97 34 -177.5t102 -131t159 -50.5z" />
    <glyph glyph-name="seven" unicode="7" horiz-adv-x="1005" 
d="M260 0h-154l392 748h-254l16 77h279l354 656h-492l-196 -248h-29l133 323h887l-4 -24l-145 -59l-355 -646l174 -43l-8 -36h-207z" />
    <glyph glyph-name="eight" unicode="8" horiz-adv-x="1208" 
d="M483 -23q-189 0 -304.5 97t-115.5 258q0 168 126 317.5t298 186.5q-102 24 -159.5 102.5t-57.5 181.5q0 124 71.5 228.5t194.5 164.5t269 60q170 0 272.5 -89.5t102.5 -232.5q0 -133 -95.5 -243t-261.5 -170q131 -18 207 -115t76 -229q0 -112 -51 -209t-136 -164
t-198.5 -105.5t-237.5 -38.5zM668 870q146 0 239.5 103.5t93.5 255.5q0 118 -65.5 194t-173.5 76q-140 0 -236 -107t-96 -266q0 -115 63.5 -185.5t174.5 -70.5zM526 51q81 0 154.5 30.5t129.5 85.5t89 138.5t33 181.5q0 138 -77 222t-212 84q-123 0 -219.5 -59.5
t-147.5 -157t-51 -214.5q0 -138 84.5 -224.5t216.5 -86.5z" />
    <glyph glyph-name="nine" unicode="9" horiz-adv-x="1290" 
d="M455 -23q-126 0 -236 53t-133 105l64 332h49q-36 -191 48 -303.5t247 -112.5q101 0 188.5 46t152 123t116.5 185.5t86 226.5t57 253q-68 -166 -209.5 -276.5t-315.5 -110.5q-173 0 -281 110.5t-108 290.5q0 132 53.5 256t142.5 215.5t210 147t250 55.5q203 0 321.5 -131
t118.5 -373q0 -165 -44 -329t-123 -299.5t-181 -240.5t-225 -164t-248 -59zM627 567q118 0 226.5 84.5t173.5 222.5t65 289q0 150 -79.5 238t-209.5 88q-121 0 -226 -81.5t-167 -218.5t-62 -294q0 -151 74 -239.5t205 -88.5z" />
    <glyph glyph-name="colon" unicode=":" horiz-adv-x="462" 
d="M279 758q-42 0 -68.5 24.5t-26.5 61.5q0 55 41 96t94 41q42 0 68.5 -25.5t26.5 -64.5q0 -54 -40.5 -93.5t-94.5 -39.5zM127 -23q-43 0 -68.5 24t-25.5 62q0 55 41 96.5t94 41.5q42 0 68 -25.5t26 -64.5q0 -54 -40.5 -94t-94.5 -40z" />
    <glyph glyph-name="semicolon" unicode=";" horiz-adv-x="489" 
d="M266 758q-43 0 -68.5 24.5t-25.5 63.5q0 54 40 94.5t95 40.5q42 0 68 -25.5t26 -64.5q0 -55 -39.5 -94t-95.5 -39zM-2 -311h-25q154 160 154 268q0 54 -51 133q9 49 45.5 80t79.5 31q41 0 65.5 -23t24.5 -63q0 -73 -81.5 -191.5t-211.5 -234.5z" />
    <glyph glyph-name="less" unicode="&#x3c;" horiz-adv-x="1003" 
d="M831 180l-20 -94l-739 471l8 37l921 469l-20 -102l-770 -388z" />
    <glyph glyph-name="equal" unicode="=" horiz-adv-x="1017" 
d="M887 715h-723l18 90h723zM852 346h-723l18 90h723z" />
    <glyph glyph-name="greater" unicode="&#x3e;" horiz-adv-x="1001" 
d="M944 557l-924 -471l21 102l764 387l-615 386l21 102l739 -469z" />
    <glyph glyph-name="question" unicode="?" horiz-adv-x="913" 
d="M356 324h-37q7 89 19 149q12 59 27 101.5t48 91t62.5 83.5t95.5 109q44 48 73 82t72 93t68.5 110t44.5 118t19 132q0 103 -55.5 152.5t-139.5 49.5q-117 0 -202.5 -86.5t-125 -223t-34.5 -296.5h-39l-23 414q61 113 183.5 189.5t275.5 76.5q46 0 88 -7t85.5 -26t75 -49
t51.5 -80t20 -114q0 -78 -23 -155t-61 -138t-67 -98.5t-60 -69.5q-50 -55 -117 -114t-109.5 -97.5t-87.5 -92.5t-76 -128.5t-51 -175.5zM281 -23q-43 0 -69 24t-26 62q0 55 41.5 96.5t94.5 41.5q42 0 68 -25.5t26 -64.5q0 -54 -40.5 -94t-94.5 -40z" />
    <glyph glyph-name="at" unicode="@" horiz-adv-x="1615" 
d="M635 -160q-160 0 -286.5 65t-200.5 192.5t-74 299.5q0 186 72.5 357.5t194.5 296.5t290.5 199.5t351.5 74.5q270 0 421.5 -148.5t151.5 -406.5q0 -136 -36 -266.5t-95.5 -226.5t-140 -155t-164.5 -59q-82 0 -126 47t-50 121q-68 -71 -150.5 -111t-164.5 -40
q-116 0 -184 78.5t-68 214.5q0 141 55.5 264t152.5 210t233 137t292 50h96l-135 -690q-18 -92 3 -147.5t77 -55.5q71 0 142 89.5t116 231t45 283.5q0 228 -129 362t-360 134q-157 0 -302.5 -67t-252 -179t-170.5 -266t-64 -321q0 -160 70.5 -278t188 -177t265.5 -59
q155 0 320 73l-6 -39q-195 -88 -379 -88zM688 164q67 0 137 30.5t119 77.5l139 715q-120 0 -228.5 -47.5t-186.5 -127.5t-124 -190t-46 -231q0 -108 49.5 -167.5t140.5 -59.5z" />
    <glyph glyph-name="A" unicode="A" horiz-adv-x="1560" 
d="M295 0h-440l6 25l170 49l843 1386l-26 113h166l360 -1499l148 -49l-6 -25h-523l6 25l177 49l-127 557h-600l-336 -557l188 -49zM881 1352l-387 -643h536z" />
    <glyph glyph-name="B" unicode="B" horiz-adv-x="1361" 
d="M606 0h-633l4 25l166 63l269 1380l-142 64l6 24h603q221 0 346 -86t125 -233q0 -150 -114 -275t-296 -176q157 -28 246.5 -113t89.5 -206q0 -131 -87 -238t-240.5 -168t-342.5 -61zM590 1483l-129 -666h246q206 0 336.5 118t130.5 304q0 118 -97.5 181t-285.5 63h-201z
M444 741l-127 -659h295q212 0 348 112.5t136 286.5q0 121 -98.5 190.5t-270.5 69.5h-283z" />
    <glyph glyph-name="C" unicode="C" horiz-adv-x="1585" 
d="M737 -23q-281 0 -454.5 161t-173.5 437q0 201 80.5 386t215.5 319t320.5 213.5t386.5 79.5q179 0 302.5 -59t154.5 -117l-88 -455h-43q26 143 11 247.5t-67.5 173t-129.5 101.5t-175 33q-84 0 -174.5 -25.5t-186 -85t-175 -145t-139.5 -217.5t-80 -291q-17 -139 1.5 -254
t64.5 -192.5t114 -131.5t146 -78t165 -24q220 0 420.5 149.5t335.5 413.5h39q-137 -286 -371 -462.5t-500 -176.5z" />
    <glyph glyph-name="D" unicode="D" horiz-adv-x="1630" 
d="M629 0h-656l4 25l166 65l269 1378l-142 64l6 24h670q313 0 489.5 -161t176.5 -437q0 -202 -75 -380t-205.5 -304.5t-313 -200t-389.5 -73.5zM590 1483l-273 -1401h285q171 0 321.5 65.5t258 179.5t169.5 274.5t62 342.5q0 247 -147 393t-408 146h-268z" />
    <glyph glyph-name="E" unicode="E" horiz-adv-x="1161" 
d="M938 0h-965l4 25l166 65l269 1378l-142 64l6 24h945l10 -317h-29l-102 242h-510l-121 -613h346l94 174h37l-84 -426h-37l-24 175h-346l-138 -709h531l194 235h29z" />
    <glyph glyph-name="F" unicode="F" horiz-adv-x="1110" 
d="M475 0h-502l4 25l166 65l269 1378l-142 64l6 24h945l10 -317h-29l-102 242h-510l-121 -613h346l94 174h37l-84 -426h-37l-24 175h-346l-136 -697l160 -69z" />
    <glyph glyph-name="G" unicode="G" horiz-adv-x="1611" 
d="M743 -23q-285 0 -458.5 167.5t-173.5 443.5q0 197 80.5 379t215 314.5t319.5 212t386 79.5q103 0 193 -22.5t143.5 -54.5t83.5 -58t37 -41l-88 -455h-35q48 268 -45 411.5t-336 143.5q-218 0 -390.5 -112.5t-269 -315t-96.5 -459.5q0 -253 131.5 -405t362.5 -152
q117 0 221 38.5t173.5 99t110 135t40.5 147.5q0 43 -18.5 77.5t-54.5 58.5t-77 41t-99.5 28.5t-107.5 18t-114 12.5l8 34h651l-145 -743h-43l32 328q-108 -169 -271.5 -260t-365.5 -91z" />
    <glyph glyph-name="H" unicode="H" horiz-adv-x="1562" 
d="M455 0h-482l4 25l166 65l269 1378l-142 64l6 24h482l-6 -24l-166 -64l-117 -610h758l116 610l-141 64l6 24h482l-7 -24l-165 -64l-269 -1378l142 -65l-5 -25h-481l4 25l166 65l135 690h-757l-136 -690l142 -65z" />
    <glyph glyph-name="I" unicode="I" horiz-adv-x="630" 
d="M455 0h-482l4 25l166 65l269 1378l-142 64l6 24h482l-6 -24l-166 -64l-269 -1378l142 -65z" />
    <glyph glyph-name="J" unicode="J" horiz-adv-x="927" 
d="M264 -23q-89 0 -154.5 26.5t-102.5 65t-70 97.5l264 416h32q-14 -28 -46 -90t-41.5 -83t-26 -60.5t-21 -67.5t-4.5 -60q0 -82 44.5 -124t125.5 -42q36 0 64.5 8.5t59.5 33.5t56 67.5t49 114.5t42 170l198 1019l-141 64l4 24h481l-4 -24l-166 -64l-207 -1054
q-15 -77 -34.5 -137t-53.5 -118t-80 -96.5t-114 -62t-154 -23.5z" />
    <glyph glyph-name="K" unicode="K" horiz-adv-x="1267" 
d="M455 0h-482l4 25l166 65l269 1378l-142 64l6 24h482l-6 -24l-166 -64l-135 -698l679 717l-141 45l6 24h400l-6 -24l-193 -47l-516 -549l403 -860l136 -51l-5 -25h-503l4 25l159 49l-346 702l-96 -104l-115 -582l142 -65z" />
    <glyph glyph-name="L" unicode="L" horiz-adv-x="1103" 
d="M922 0h-949l4 25l166 65l269 1378l-142 64l6 24h482l-6 -24l-166 -64l-269 -1386h514l195 235h29z" />
    <glyph glyph-name="M" unicode="M" horiz-adv-x="1820" 
d="M373 0h-400l4 25l166 65l269 1378l-142 64l6 24h330l262 -1337l774 1337h306l-6 -24l-166 -64l-269 -1378l142 -65l-4 -25h-482l4 25l166 65l236 1208l-756 -1298h-86l-258 1280l-231 -1190l139 -65z" />
    <glyph glyph-name="N" unicode="N" horiz-adv-x="1409" 
d="M373 0h-400l4 25l166 65l269 1378l-142 64l6 24h256l543 -1173l213 1085l-141 64l4 24h399l-4 -24l-166 -64l-286 -1468h-60l-573 1239l-223 -1149l139 -65z" />
    <glyph glyph-name="O" unicode="O" horiz-adv-x="1636" 
d="M686 -23q-252 0 -413.5 171.5t-161.5 445.5q0 126 35 250t96.5 231.5t148.5 200t187.5 158t217.5 102.5t236 37q257 0 425.5 -171.5t168.5 -440.5q0 -184 -80.5 -365t-210 -316t-302 -219t-347.5 -84zM760 53q180 0 331.5 124t239.5 337t88 465q0 248 -124.5 383
t-317.5 135q-182 0 -336 -119t-243 -322t-89 -442q0 -133 38.5 -242t102.5 -177t144 -105t166 -37z" />
    <glyph glyph-name="P" unicode="P" horiz-adv-x="1251" 
d="M455 0h-482l4 25l166 65l269 1378l-142 64l6 24h633q117 0 214.5 -33t162 -107t64.5 -179q0 -133 -85.5 -247.5t-231.5 -181.5t-316 -67h-273l-127 -651l142 -65zM588 1479l-127 -660h254q203 0 331 118.5t128 305.5q0 236 -332 236h-254z" />
    <glyph glyph-name="Q" unicode="Q" horiz-adv-x="1646" 
d="M1059 -266q-68 0 -127.5 23.5t-104 57t-88 66.5t-98.5 56.5t-117 23.5q-105 0 -199.5 -57.5t-154.5 -139.5h-35q50 79 139 151.5t189 107.5q-162 66 -254 225.5t-92 376.5q0 135 38.5 262.5t105 230.5t156.5 189t191.5 144t211.5 90t216 32q173 0 309 -82.5t210.5 -229.5
t74.5 -333q0 -176 -70.5 -340t-185.5 -285t-259 -203.5t-294 -109.5q28 -15 78.5 -47.5t82.5 -51.5t82 -35t101 -16q161 0 271 135h30q-79 -114 -184.5 -177.5t-222.5 -63.5zM764 53q83 0 171 32.5t176 103.5t157 171.5t112 249.5t43 324q0 126 -23 223.5t-63 160.5t-97 104
t-120.5 58t-138.5 17q-134 0 -256.5 -66.5t-212.5 -181t-143.5 -276.5t-53.5 -344q0 -121 25 -219.5t68 -163.5t101 -109.5t121.5 -64t133.5 -19.5z" />
    <glyph glyph-name="R" unicode="R" horiz-adv-x="1327" 
d="M455 0h-482l4 25l166 65l269 1378l-142 64l6 24h633q117 0 214.5 -33t162 -107t64.5 -179q0 -190 -157 -327t-400 -160l276 -660l178 -65l-4 -25h-522l4 25l160 55l-275 657h-166l-127 -647l142 -65zM588 1479l-129 -664h254q201 0 331 119.5t130 300.5q0 244 -332 244
h-254z" />
    <glyph glyph-name="S" unicode="S" horiz-adv-x="1214" 
d="M489 -23q-173 0 -292 67.5t-185 172.5l201 399h49q-80 -215 -80 -311q0 -73 30 -126.5t80 -82t104 -41t114 -12.5q214 0 350.5 108.5t136.5 276.5q0 38 -10.5 69t-36 56t-50 42.5t-72.5 36.5t-82.5 30.5t-98.5 31.5l-74 25q-309 96 -309 342q0 137 68.5 253.5t196 187.5
t286.5 71q144 0 252.5 -50.5t167.5 -115.5l-193 -336h-49q74 167 74 234q0 101 -80 151.5t-194 50.5q-171 0 -288.5 -91t-117.5 -224q0 -45 19.5 -82.5t46.5 -62t72.5 -47t80.5 -35t86 -27.5l58 -16q44 -13 71.5 -22t71.5 -27t72.5 -36t61.5 -46.5t52.5 -60.5t33 -76
t13.5 -95q0 -121 -49.5 -229t-134 -185.5t-202.5 -122.5t-251 -45z" />
    <glyph glyph-name="T" unicode="T" horiz-adv-x="1341" 
d="M809 0h-481l4 25l166 65l272 1391h-399l-189 -242h-32l133 317h1177l10 -317h-32l-95 242h-399l-272 -1391l141 -65z" />
    <glyph glyph-name="U" unicode="U" horiz-adv-x="1468" 
d="M637 -23q-92 0 -164.5 17t-122 46.5t-83 73.5t-50.5 94.5t-21 114t1.5 127.5t19.5 138l172 880l-141 64l4 24h481l-4 -24l-166 -64l-160 -823q-58 -295 4.5 -439.5t260.5 -144.5q224 0 346 123.5t176 403.5l172 880l-141 64l4 24h399l-4 -24l-166 -64l-172 -880
q-28 -145 -75 -253t-122.5 -190.5t-187.5 -125t-260 -42.5z" />
    <glyph glyph-name="V" unicode="V" horiz-adv-x="1484" 
d="M764 -6h-166l-319 1474l-136 64l4 24h482l-4 -24l-152 -53l260 -1266l754 1268l-162 51l4 24h400l-5 -24l-165 -62l-822 -1364z" />
    <glyph glyph-name="W" unicode="W" horiz-adv-x="2127" 
d="M545 0h-64l-196 1458l-148 74l6 24h490l-6 -24l-142 -64l150 -1157l622 1245h119l185 -1245l573 1157l-172 64l4 24h399l-4 -24l-157 -64l-734 -1468h-65l-193 1325z" />
    <glyph glyph-name="X" unicode="X" horiz-adv-x="1306" 
d="M313 0h-403l4 25l156 53l553 676l-316 714l-135 64l6 24h490l-6 -24l-156 -55l252 -578l465 574l-168 59l4 24h399l-4 -24l-166 -66l-504 -622l334 -766l131 -53l-4 -25h-489l4 25l158 53l-271 616l-504 -616l174 -53z" />
    <glyph glyph-name="Y" unicode="Y" horiz-adv-x="1302" 
d="M795 0h-482l6 25l166 65l95 485l-295 902l-138 55l5 24h489l-4 -24l-158 -49l264 -821l562 817l-179 53l4 24h408l-4 -24l-162 -57l-616 -887l-97 -498l142 -65z" />
    <glyph glyph-name="Z" unicode="Z" horiz-adv-x="1079" 
d="M870 0h-913l-2 41l1018 1440h-539l-198 -252h-29l135 327h836l2 -34l-1008 -1440h608l195 235h29z" />
    <glyph glyph-name="bracketleft" unicode="[" horiz-adv-x="561" 
d="M418 -123h-359l349 1794h358l-6 -33l-260 -92l-299 -1544l223 -92z" />
    <glyph glyph-name="backslash" unicode="\" horiz-adv-x="1775" 
d="M334 1638l1265 -1882h-86l-1269 1882h90z" />
    <glyph glyph-name="bracketright" unicode="]" horiz-adv-x="559" 
d="M250 -123h-359l7 33l260 92l299 1544l-224 92l7 33h358z" />
    <glyph glyph-name="asciicircum" unicode="^" horiz-adv-x="716" 
d="M176 891h-33q133 239 201.5 351.5t111.5 159t79 46.5q37 0 64 -45.5t54.5 -163.5t65.5 -348h-31q-105 239 -174 444q-98 -138 -338 -444z" />
    <glyph glyph-name="underscore" unicode="_" horiz-adv-x="954" 
d="M778 -221h-887l19 102h887z" />
    <glyph glyph-name="grave" unicode="`" horiz-adv-x="540" 
d="M522 1147h-26q-324 271 -324 346q0 39 43 39q44 0 122 -94.5t185 -290.5z" />
    <glyph glyph-name="a" unicode="a" horiz-adv-x="1003" 
d="M883 752l-123 -637l127 -17l-6 -37l-265 -61h-28l47 240q-15 -31 -45.5 -71t-78.5 -86t-117 -77t-142 -31q-98 0 -156.5 56.5t-58.5 150.5q0 67 25.5 127.5t66.5 105.5t100 84t118.5 66t130 50t126.5 36.5t115 24.5l12 63q26 132 -18.5 200.5t-151.5 68.5
q-123 0 -207 -82t-84 -203q0 -30 6 -57h-47l-43 241q59 64 170 116t258 52q332 0 269 -323zM328 61q51 0 103.5 28t95 72.5t72.5 85t52 79.5l60 305q-141 -30 -220 -61q-286 -125 -292 -363q0 -64 32 -105t97 -41z" />
    <glyph glyph-name="b" unicode="b" horiz-adv-x="1042" 
d="M459 -23q-179 0 -271 162l-114 -139h-37l299 1534l-125 27l4 24l262 53h29l-111 -563q151 0 265.5 -38t181.5 -104.5t100 -149.5t33 -181q0 -120 -43 -235.5t-113.5 -200.5t-165.5 -137t-194 -52zM451 57q94 0 179.5 75t137 199t51.5 259q0 90 -26.5 167t-78 136.5
t-136 93t-193.5 33.5l-164 -838q39 -54 98.5 -89.5t131.5 -35.5z" />
    <glyph glyph-name="c" unicode="c" horiz-adv-x="1017" 
d="M444 -23q-180 0 -283.5 115.5t-103.5 298.5q0 182 84.5 340t227 251t305.5 93q124 0 206 -48t119 -112l-196 -350h-39q84 158 84 264q0 84 -50 129.5t-143 45.5q-122 0 -224.5 -78.5t-162 -214.5t-59.5 -297q0 -164 77.5 -264.5t202.5 -100.5q255 0 447 311h39
q-88 -173 -223 -278t-308 -105z" />
    <glyph glyph-name="d" unicode="d" horiz-adv-x="1040" 
d="M801 0h-150q-152 0 -267 36.5t-182.5 100t-100.5 143.5t-33 175q0 155 73 299.5t192.5 232.5t248.5 88q159 0 252 -139l114 598l-127 27l4 24l265 53h28zM659 47l158 815q-36 57 -93.5 95t-129.5 38q-95 0 -181.5 -75.5t-139 -199.5t-52.5 -259q0 -179 110 -292t328 -122
z" />
    <glyph glyph-name="e" unicode="e" horiz-adv-x="1038" 
d="M438 -23q-182 0 -281.5 115.5t-99.5 296.5q0 107 31.5 210t88 188t130 150.5t163.5 101.5t183 36q177 0 267.5 -118t50.5 -322l-10 -49h-734l-2 -21q-44 -224 38 -370t251 -146q117 0 229.5 80.5t204.5 230.5h39q-88 -171 -231.5 -277t-317.5 -106zM248 653h569
q31 159 -18.5 253.5t-169.5 94.5q-126 0 -232 -98.5t-149 -249.5z" />
    <glyph glyph-name="f" unicode="f" horiz-adv-x="602" 
d="M358 0h-413l4 25l141 45l176 903h-127l15 71h127l34 181q42 210 137.5 328t247.5 118q163 0 254 -158l-184 -315h-45q98 180 89 284.5t-112 104.5q-48 0 -86.5 -24.5t-66 -72t-46.5 -106t-34 -135.5l-41 -205h266l-14 -71h-266l-174 -903l125 -45z" />
    <glyph glyph-name="g" unicode="g" horiz-adv-x="1064" 
d="M193 -424l-189 250l39 27q51 -51 76 -74t64.5 -53.5t74.5 -42t74 -11.5q119 0 205 73.5t116 234.5l2 18q-108 -23 -178 -23q-104 0 -184.5 35t-129 95.5t-73 137.5t-24.5 167q0 172 71.5 326t191 246.5t251.5 92.5q91 0 150 -43t104 -117l24 129h29l243 -53l-4 -24
l-139 -27l-160 -829q-30 -154 -76 -254t-122.5 -164t-180.5 -90.5t-255 -26.5zM524 25q70 0 140 20l153 791q-88 159 -221 159q-98 0 -184 -84t-137.5 -223.5t-51.5 -296.5q0 -77 16.5 -141.5t51.5 -116t94 -80t139 -28.5z" />
    <glyph glyph-name="h" unicode="h" horiz-adv-x="1099" 
d="M338 0h-406l5 25l141 45l284 1464l-126 27l4 24l264 53h28l-157 -800q25 38 57 73.5t81 75.5t115 64t138 24q124 0 185.5 -74.5t31.5 -232.5l-137 -698l125 -45l-4 -25h-408l6 25l133 45l121 620q32 166 0.5 235.5t-131.5 69.5q-89 0 -185 -81t-147 -183l-129 -661
l115 -45z" />
    <glyph glyph-name="i" unicode="i" horiz-adv-x="497" 
d="M387 1288q-42 0 -68 25t-26 65q0 56 41 98t96 42q42 0 67 -24.5t25 -63.5q0 -57 -40.5 -99.5t-94.5 -42.5zM356 0h-413l4 25l143 45l168 870l-129 27l6 24l262 53h29l-188 -974l124 -45z" />
    <glyph glyph-name="j" unicode="j" horiz-adv-x="452" 
d="M377 1288q-42 0 -68 24.5t-26 63.5q0 58 40.5 100t96.5 42q42 0 67 -24t25 -64q0 -57 -40 -99.5t-95 -42.5zM-170 -424l-139 221l37 27q121 -154 188 -154q40 0 73 54t48 139l211 1077l-129 27l6 24l262 53h29l-197 -1015q-36 -195 -106 -291q-53 -78 -130 -120t-153 -42
z" />
    <glyph glyph-name="k" unicode="k" horiz-adv-x="1032" 
d="M346 0h-414l5 25l141 45l284 1464l-126 27l4 24l264 53h28l-243 -1245l573 582l-162 45l5 24h399l-4 -24l-182 -53l-320 -330l244 -576l119 -36l-5 -25h-432l4 25l140 32l-193 453l-203 -207l-45 -233l123 -45z" />
    <glyph glyph-name="l" unicode="l" horiz-adv-x="485" 
d="M346 0h-414l5 25l141 45l284 1464l-126 27l4 24l264 53h28l-305 -1568l123 -45z" />
    <glyph glyph-name="m" unicode="m" horiz-adv-x="1665" 
d="M348 0h-405l4 25l143 45l170 872l-131 25l6 24l262 53h29l-39 -206q22 35 55.5 71.5t81.5 76t111 64.5t127 25q99 0 155 -59t50 -180q68 99 164.5 169t211.5 70t175 -75t30 -232l-135 -698l123 -45l-4 -25h-406l7 25l131 45l120 620q29 166 2 235.5t-108 69.5
q-86 0 -171.5 -67.5t-152.5 -175.5l-133 -682l123 -45l-4 -25h-405l4 25l133 45l121 620q29 166 4 235.5t-103 69.5q-88 0 -181 -78.5t-146 -181.5l-129 -665l116 -45z" />
    <glyph glyph-name="n" unicode="n" horiz-adv-x="1110" 
d="M348 0h-405l4 25l143 45l168 870l-129 27l6 24l262 53h29l-39 -208q19 30 42 58.5t60.5 62.5t78 59t96 42t114.5 17q123 0 184 -74.5t31 -232.5l-135 -698l123 -45l-4 -25h-406l4 25l134 45l118 620q60 305 -129 305q-100 0 -187 -75t-144 -185l-129 -665l116 -45z" />
    <glyph glyph-name="o" unicode="o" horiz-adv-x="1124" 
d="M459 -23q-104 0 -183.5 38t-125.5 102t-68.5 139.5t-22.5 159.5q0 167 83 318.5t227.5 246t310.5 94.5q85 0 153 -24t111.5 -63.5t73 -93.5t41.5 -111t12 -119q0 -125 -48.5 -249t-129.5 -220.5t-195.5 -157t-238.5 -60.5zM500 49q102 0 197.5 88t153.5 229.5t58 290.5
q0 151 -67.5 249t-196.5 98q-84 0 -164 -47.5t-139 -125.5t-95 -183t-36 -216q0 -162 77 -272.5t212 -110.5z" />
    <glyph glyph-name="p" unicode="p" horiz-adv-x="1075" 
d="M268 -410h-415l6 25l139 45l250 1280l-127 27l6 28q187 45 285 62.5t170 17.5q114 0 199.5 -37.5t134 -102.5t71.5 -143t23 -169q0 -123 -38.5 -240t-105.5 -208t-165 -146.5t-209 -55.5q-63 0 -113.5 21t-79.5 48t-63 71l-89 -453l125 -45zM471 53q97 0 184.5 71
t142 198.5t54.5 279.5q0 86 -18.5 158.5t-56 129t-99.5 88.5t-143 32q-57 0 -127 -15l-160 -821q38 -52 95.5 -86.5t127.5 -34.5z" />
    <glyph glyph-name="q" unicode="q" horiz-adv-x="1069" 
d="M858 -410h-414l5 25l143 45l63 336q-93 -19 -161 -19q-89 0 -161.5 26.5t-120.5 71.5t-81.5 105.5t-48 126t-14.5 135.5q0 116 40.5 230t108.5 203t165.5 144.5t203.5 55.5q42 0 77 -10t58 -23t46.5 -38t35.5 -42.5t33 -50.5l24 133h29l241 -53l-4 -24l-139 -27
l-246 -1280l123 -45zM528 33q74 0 140 18l151 785q-86 159 -219 159q-71 0 -140 -44t-122 -118t-86 -181t-33 -224q0 -83 16 -151.5t50.5 -124.5t96.5 -87.5t146 -31.5z" />
    <glyph glyph-name="r" unicode="r" horiz-adv-x="784" 
d="M356 0h-413l4 25l143 45l168 870l-129 27l6 24l271 53h20l-51 -266h2q25 51 55.5 97.5t72 94.5t92.5 76.5t103 28.5q106 0 156 -129l-182 -325h-35q78 180 78 258q0 90 -72 90q-53 0 -113.5 -59.5t-107 -139t-84.5 -172.5l-102 -528l124 -45z" />
    <glyph glyph-name="s" unicode="s" horiz-adv-x="878" 
d="M332 -23q-125 0 -210.5 51t-119.5 124l141 258h45q-20 -39 -35.5 -95t-15.5 -98q0 -84 55.5 -127t157.5 -43q133 0 224.5 68t91.5 164q0 64 -66 103.5t-213 84.5q-231 73 -231 252q0 153 111.5 254.5t277.5 101.5q108 0 183.5 -41.5t113.5 -103.5l-117 -232h-39
q52 146 4.5 228t-172.5 82q-109 0 -186.5 -60.5t-77.5 -146.5q0 -59 55 -97t174 -77q9 -3 28 -9q47 -15 69.5 -23t59.5 -23.5t55.5 -30.5t39 -37.5t29 -51.5t8.5 -65q0 -177 -125 -293.5t-315 -116.5z" />
    <glyph glyph-name="t" unicode="t" horiz-adv-x="643" 
d="M274 -23q-210 0 -153 299l135 697h-156l9 37l180 34l145 349h51l-67 -349h254l-15 -71h-254l-135 -703q-44 -223 88 -223q98 0 179 133h45q-56 -98 -137.5 -150.5t-168.5 -52.5z" />
    <glyph glyph-name="u" unicode="u" horiz-adv-x="1058" 
d="M315 -27q-258 0 -194 328l123 639l-127 27l4 24l264 53h29l-140 -712q-22 -105 -11.5 -167t39 -87t79.5 -25q94 0 170.5 64t146.5 182l125 641l-129 27l6 24l263 53h28l-182 -940l127 -26l-4 -25l-262 -53h-29l37 199q-63 -99 -154.5 -162.5t-208.5 -63.5z" />
    <glyph glyph-name="v" unicode="v" horiz-adv-x="1099" 
d="M492 0h-86l-187 969l-141 51l4 24h457l-4 -24l-160 -49l151 -803l441 809l-150 43l4 24h400l-4 -24l-183 -47z" />
    <glyph glyph-name="w" unicode="w" horiz-adv-x="1599" 
d="M438 0h-102l-115 967l-145 53l6 24h457l-7 -24l-149 -47l88 -778l403 849h134l90 -849l370 782l-151 43l6 24h399l-6 -24l-184 -45l-469 -975h-102l-97 899z" />
    <glyph glyph-name="x" unicode="x" horiz-adv-x="1028" 
d="M293 0h-391l6 25l141 38l391 443l-217 465l-125 49l4 24h457l-4 -24l-152 -47l160 -340l293 340l-178 47l4 24h391l-4 -24l-149 -47l-332 -391l246 -516l122 -41l-6 -25h-456l6 25l153 36l-188 392l-352 -392l186 -36z" />
    <glyph glyph-name="y" unicode="y" horiz-adv-x="1095" 
d="M12 -424l-164 223l39 27q122 -133 207 -133q79 0 171.5 101t137.5 214l-186 965l-139 47l4 24h457l-4 -24l-162 -47l153 -805l441 809l-150 43l4 24h400l-4 -24l-183 -47l-483 -871q-53 -95 -98.5 -167t-100.5 -143t-106.5 -116t-111.5 -72.5t-122 -27.5z" />
    <glyph glyph-name="z" unicode="z" horiz-adv-x="876" 
d="M659 0h-694l-6 29l721 946h-326l-196 -258h-37l135 327h625l4 -28l-717 -946h391l197 247h37z" />
    <glyph glyph-name="braceleft" unicode="{" horiz-adv-x="536" 
d="M391 -123h-57q-156 0 -213 71t-29 216l76 385q13 65 -1.5 114.5t-57.5 49.5h-7l25 123h6q36 0 70.5 40.5t50.5 122.5l74 385q27 142 113.5 214.5t242.5 72.5h57l-6 -33h-45q-59 0 -104.5 -27t-75 -76t-48 -101.5t-32.5 -120.5l-57 -289q-41 -210 -156 -240l-2 -20
q40 -11 58 -50.5t17 -86.5t-14 -103l-57 -288q-14 -73 -15.5 -129t11 -102t47.5 -70.5t92 -24.5h45z" />
    <glyph glyph-name="bar" unicode="|" horiz-adv-x="630" 
d="M375 -410h-481l6 37l168 72l352 1810l-135 93l8 36h481l-8 -36l-172 -93l-352 -1810l139 -72z" />
    <glyph glyph-name="braceright" unicode="}" horiz-adv-x="538" 
d="M-49 -123h-57l6 33h45q196 0 260 326l55 288q42 213 156 240l4 20q-105 35 -62 240l56 289q11 53 15 97t-0.5 87.5t-20 73.5t-47.5 48.5t-80 18.5h-45l6 33h57q155 0 213.5 -72.5t30.5 -214.5l-76 -385q-16 -82 3.5 -122.5t55.5 -40.5h6l-24 -123h-6q-34 0 -69.5 -41
t-51.5 -123l-76 -385q-27 -142 -113 -214.5t-241 -72.5z" />
    <glyph glyph-name="asciitilde" unicode="~" horiz-adv-x="935" 
d="M145 481h-43q22 102 87 166t155 64q49 0 93 -20t71.5 -43.5t68.5 -43.5t85 -20q52 0 97 29t62 98h43q-26 -107 -89 -168.5t-159 -61.5q-52 0 -97 20t-71.5 43.5t-63 43.5t-75.5 20q-49 0 -97.5 -30t-66.5 -97z" />
    <glyph glyph-name="exclamdown" unicode="&#xa1;" horiz-adv-x="479" 
d="M412 1415q-42 0 -67.5 25.5t-25.5 64.5q0 54 41 93.5t97 39.5q41 0 66.5 -24t25.5 -62q0 -55 -41.5 -96t-95.5 -41zM133 -23q-24 0 -36.5 14t-12.5 50q0 28 43 222.5t92.5 402.5t98 409t49.5 205h41q-20 -135 -95.5 -624.5t-83.5 -532.5q-16 -85 -38 -115.5t-58 -30.5z
" />
    <glyph glyph-name="cent" unicode="&#xa2;" horiz-adv-x="1150" 
d="M608 326q273 0 465 311h39q-80 -158 -212 -262.5t-290 -118.5l-49 -256h-108l49 258q-168 20 -259 137.5t-91 290.5q0 248 156 427.5t401 211.5l63 313h109l-62 -307q123 -3 205 -51t117 -109l-209 -350h-39q92 170 92 256q0 87 -55.5 135t-165.5 48q-140 0 -247.5 -78.5
t-162.5 -206t-55 -281.5q0 -172 83 -270t226 -98z" />
    <glyph glyph-name="sterling" unicode="&#xa3;" horiz-adv-x="1114" 
d="M295 82h504l194 235h29l-133 -317h-932l8 43q246 40 370 188.5t124 366.5q0 58 -8 107h-306l17 90h274q-1 8 -12 67t-15 83t-11 72.5t-10 87t-3 75.5q0 182 89.5 287.5t258.5 105.5q57 0 108.5 -15t83 -33.5t60.5 -45t38.5 -38t18.5 -24.5l-57 -352h-49q19 83 14.5 161.5
t-26.5 139.5t-72.5 98t-122.5 37q-95 0 -153 -76t-58 -231q0 -123 57 -399h351l-17 -90h-315q6 -46 6 -95q0 -169 -80.5 -309.5t-222.5 -208.5z" />
    <glyph glyph-name="currency" unicode="&#xa4;" horiz-adv-x="1157" 
d="M1055 852q0 -117 -44 -216.5t-122 -170.5l119 -184l-72 -54l-121 187q-114 -68 -252 -68q-155 0 -248 90l-215 -209l-51 54l221 215q-45 79 -45 182q0 118 45.5 217.5t128.5 167.5l-153 235l71 52l154 -238q122 66 262 66q111 0 191 -52l229 224l51 -52l-225 -219
q76 -88 76 -227zM604 418q123 0 210 121.5t87 298.5q0 123 -53.5 195.5t-149.5 72.5q-138 0 -232.5 -114t-94.5 -290q0 -129 62 -206.5t171 -77.5z" />
    <glyph glyph-name="yen" unicode="&#xa5;" horiz-adv-x="1249" 
d="M997 1532l7 24h399l-6 -24l-166 -57l-463 -754h270l-16 -90h-295l-27 -131h297l-18 -90h-295l-66 -332l144 -49l-4 -29h-463l6 29l162 49l65 332h-313l18 90h312l26 131h-313l16 90h285l-190 756l-136 55l7 24h442l-6 -24l-152 -49l193 -762l459 758z" />
    <glyph glyph-name="brokenbar" unicode="&#xa6;" horiz-adv-x="655" 
d="M616 778h-481l8 37l166 72l121 622l-135 93l8 36h481l-8 -36l-172 -93l-121 -622l142 -72zM385 -410h-481l8 37l168 72l119 623l-136 92l9 37h481l-8 -37l-172 -92l-119 -623l139 -72z" />
    <glyph glyph-name="section" unicode="&#xa7;" horiz-adv-x="919" 
d="M342 -23q-126 0 -212 51t-118 124l140 258h47q-52 -107 -52 -193q0 -84 54.5 -127t156.5 -43q134 0 226 68t92 164q0 63 -64.5 101.5t-214.5 86.5q-43 13 -80 32t-72 48t-55 72.5t-20 97.5q0 98 58.5 182.5t158.5 128.5q-106 73 -106 195q0 149 108 249.5t268 100.5
q105 0 178.5 -42.5t112.5 -103.5l-117 -231h-38q51 145 5 227t-165 82q-106 0 -183 -61t-77 -146q0 -61 53.5 -99.5t163.5 -74.5q13 -4 39 -13l57 -19.5t50.5 -19.5t47.5 -23.5t37 -28t31 -36t17.5 -44t7.5 -55.5q0 -104 -53 -197t-140 -143q96 -64 96 -168
q0 -170 -125.5 -285t-312.5 -115zM604 580q73 23 120.5 80t47.5 120q0 34 -18 61t-53 46t-69.5 32.5t-84 31.5t-80.5 32q-82 -6 -142.5 -60t-60.5 -124q0 -61 55 -102.5t173 -78.5z" />
    <glyph glyph-name="dieresis" unicode="&#xa8;" horiz-adv-x="819" 
d="M440 1255q-38 0 -61 22t-23 58q0 50 37 87.5t86 37.5q40 0 63 -22.5t23 -57.5q0 -51 -36.5 -88t-88.5 -37zM756 1255q-38 0 -60 22t-22 58q0 50 37 87.5t86 37.5q39 0 62.5 -22.5t23.5 -57.5q0 -52 -36.5 -88.5t-90.5 -36.5z" />
    <glyph glyph-name="copyright" unicode="&#xa9;" horiz-adv-x="1826" 
d="M805 -39q-194 0 -347 85.5t-237 234.5t-84 333q0 148 52.5 293t147 265t216.5 212.5t269.5 144.5t297.5 52q145 0 269.5 -50t211.5 -137t136 -207.5t49 -258.5q0 -183 -82.5 -361t-217 -310.5t-315 -214t-366.5 -81.5zM821 49q165 0 324.5 72.5t277.5 191t190.5 277.5
t72.5 325q0 250 -163 414t-421 164q-133 0 -262.5 -46t-237 -128.5t-190 -190t-128.5 -237t-46 -262.5q0 -252 162.5 -416t420.5 -164zM879 295q-176 0 -270.5 104.5t-94.5 262.5q0 154 78 289.5t209.5 216.5t281.5 81q112 0 194.5 -48t113.5 -111l-189 -351h-39
q106 197 74 313.5t-190 116.5q-167 0 -285.5 -138.5t-118.5 -334.5q0 -140 74 -230.5t194 -90.5q253 0 449 303h35q-83 -170 -220 -276.5t-296 -106.5z" />
    <glyph glyph-name="ordfeminine" unicode="&#xaa;" horiz-adv-x="827" 
d="M332 713q-81 0 -129.5 45.5t-48.5 120.5q0 79 41.5 143.5t118.5 111t175 78t222 52.5l10 47q10 61 4 101.5t-30 64.5t-52.5 33.5t-64.5 9.5q-109 0 -174.5 -86t-53.5 -203h-43l-35 209q52 56 136 95.5t192 39.5q277 0 225 -262l-98 -504l104 -4l-4 -25l-186 -49h-33
l35 180q-49 -80 -132 -139t-179 -59zM385 788q71 0 146.5 61.5t127.5 143.5l43 213q-43 -4 -92 -15t-108.5 -35.5t-106 -57.5t-78.5 -85.5t-32 -115.5q0 -49 25.5 -79t74.5 -30z" />
    <glyph glyph-name="guillemotleft" unicode="&#xab;" horiz-adv-x="940" 
d="M440 145h-43l-323 373l6 29l467 371h43q-29 -29 -391 -386q206 -329 241 -387zM774 145h-43l-323 373l6 29l467 371h43q-56 -57 -121 -121t-145.5 -142.5t-125.5 -122.5q235 -376 242 -387z" />
    <glyph glyph-name="logicalnot" unicode="&#xac;" horiz-adv-x="985" 
d="M793 221h-91l64 322h-641l16 90h731z" />
    <glyph glyph-name="uni00AD" unicode="&#xad;" horiz-adv-x="681" 
d="M600 524h-518l18 103h518z" />
    <glyph glyph-name="registered" unicode="&#xae;" horiz-adv-x="1228" 
d="M614 520q-186 0 -305 118.5t-119 297.5q0 154 88 296t232.5 228t302.5 86q185 0 303.5 -118t118.5 -295q0 -154 -87.5 -296.5t-231.5 -229.5t-302 -87zM629 586q102 0 201.5 45t173.5 118.5t119.5 171t45.5 197.5q0 156 -103.5 259.5t-264.5 103.5q-138 0 -264 -75.5
t-202.5 -199.5t-76.5 -258q0 -156 104 -259t267 -103zM621 743h-181l4 21l64 22l98 508l-51 41l4 17h268q70 0 108 -33.5t38 -87.5q0 -78 -57.5 -134.5t-137.5 -56.5l72 -249l68 -27l-7 -21h-190l6 21l47 18l-76 258h-69l-49 -254l45 -22zM680 1305l-41 -213h121
q64 0 102.5 36.5t38.5 96.5q0 35 -28 57.5t-85 22.5h-108z" />
    <glyph glyph-name="macron" unicode="&#xaf;" horiz-adv-x="817" 
d="M838 1241h-555l18 94h555z" />
    <glyph glyph-name="degree" unicode="&#xb0;" horiz-adv-x="512" 
d="M373 1124q-69 0 -114.5 47.5t-45.5 116.5q0 87 71.5 153t161.5 66q67 0 112.5 -46.5t45.5 -114.5q0 -86 -72.5 -154t-158.5 -68zM385 1194q55 0 101 42.5t46 98.5q0 43 -28 73t-72 30q-59 0 -103 -41.5t-44 -98.5q0 -44 28 -74t72 -30z" />
    <glyph glyph-name="plusminus" unicode="&#xb1;" horiz-adv-x="921" 
d="M584 934l-62 -318h314l-17 -90h-315l-62 -315h-90l62 315h-318l17 90h319l62 318h90zM727 0h-723l19 90h722z" />
    <glyph glyph-name="uni00B2" unicode="&#xb2;" horiz-adv-x="702" 
d="M670 827h-559l6 29q108 30 230 128.5t208 230t86 241.5q0 64 -32.5 103.5t-88.5 39.5q-84 0 -151 -80t-74 -223q-2 -9 -5 -28t-5 -29h-37l-4 215q48 81 126.5 136t184.5 55q36 0 68.5 -8t65 -26t52 -55t19.5 -88q0 -54 -17 -108.5t-41 -98t-65.5 -91.5t-73.5 -79
t-83.5 -71.5t-76.5 -58.5t-72 -49t-52 -35h331l115 129h27z" />
    <glyph glyph-name="uni00B3" unicode="&#xb3;" horiz-adv-x="692" 
d="M371 815q-93 0 -162 35.5t-76 93.5l72 168h37q-33 -112 -33 -133q0 -62 52 -94.5t122 -32.5q105 0 179.5 78.5t74.5 187.5q0 53 -30 82t-89 29q-24 0 -69.5 -12t-81.5 -29l8 43q132 49 206 117t74 149q0 47 -33 76t-94 29q-82 0 -138 -49t-60 -136q-7 -50 -4 -88h-33
l-29 170q46 57 123.5 101.5t159.5 44.5q93 0 156 -36.5t63 -101.5q0 -72 -72.5 -138.5t-187.5 -113.5q98 16 168.5 -21.5t70.5 -121.5q0 -120 -111.5 -208.5t-262.5 -88.5z" />
    <glyph glyph-name="acute" unicode="&#xb4;" horiz-adv-x="479" 
d="M238 1147h-27q134 195 228.5 290t142.5 95q17 0 28 -8.5t11 -22.5q0 -75 -383 -354z" />
    <glyph glyph-name="uni00B5" unicode="&#xb5;" horiz-adv-x="1132" 
d="M311 -389h-413l4 24l143 46l246 1259l-131 27l4 24l264 53h29l-138 -712q-29 -142 -2.5 -210.5t109.5 -68.5q174 0 315 246l127 641l-131 27l6 24l263 53h28l-182 -940l129 -26l-4 -25l-264 -53h-29l39 199q-148 -226 -352 -226q-75 0 -111 60l-67 -352l124 -46z" />
    <glyph glyph-name="paragraph" unicode="&#xb6;" horiz-adv-x="1482" 
d="M1288 0h-907l4 25l164 53l131 667h-80q-187 0 -308.5 87t-121.5 247q0 135 76 244.5t210.5 171t301.5 61.5h833l-6 -24l-166 -64l-270 -1390l143 -53zM993 1468l-270 -1390h252l270 1390h-252z" />
    <glyph glyph-name="periodcentered" unicode="&#xb7;" horiz-adv-x="428" 
d="M197 428q-43 0 -69 25.5t-26 64.5q0 54 40.5 93.5t97.5 39.5q41 0 66.5 -27t25.5 -67q0 -54 -39.5 -91.5t-95.5 -37.5z" />
    <glyph glyph-name="cedilla" unicode="&#xb8;" horiz-adv-x="448" 
d="M6 -418q-56 0 -110 35l4 23q47 -21 94 -21q66 0 104.5 31t38.5 80q0 39 -33 65.5t-98 26.5l8 39l127 166h43l-110 -144q69 0 105 -31.5t36 -78.5q0 -66 -60 -128.5t-149 -62.5z" />
    <glyph glyph-name="uni00B9" unicode="&#xb9;" horiz-adv-x="464" 
d="M465 827h-297l4 15l102 37l132 671l-213 -192l6 31l215 247h200l-2 -18l-96 -31l-137 -708l90 -37z" />
    <glyph glyph-name="ordmasculine" unicode="&#xba;" horiz-adv-x="913" 
d="M496 713q-80 0 -144 33t-101.5 86.5t-57 115.5t-19.5 127q0 78 35 164t96.5 161.5t157.5 125t205 49.5q63 0 116 -21.5t88 -56.5t59 -81t35 -94.5t11 -98.5q0 -60 -21.5 -129t-64.5 -136.5t-99.5 -122t-134 -88.5t-161.5 -34zM528 780q86 0 160.5 65t116 166t41.5 208
q0 122 -53.5 205t-153.5 83q-101 0 -180 -62t-118.5 -156t-39.5 -199q0 -81 24 -149.5t76.5 -114.5t126.5 -46z" />
    <glyph glyph-name="guillemotright" unicode="&#xbb;" horiz-adv-x="940" 
d="M61 145h-43q98 100 394 387q-214 337 -244 386h43l324 -371l-7 -29zM395 145h-43q119 121 393 387q-191 301 -243 386h43l323 -371l-6 -29z" />
    <glyph glyph-name="onequarter" unicode="&#xbc;" horiz-adv-x="1712" 
d="M489 827h-296l2 15l102 37l131 671l-213 -192l6 31l217 247h201l-4 -18l-94 -31l-140 -708l91 -37zM242 0h-86l1384 1556h90zM1530 0h-297l4 14l102 39l29 150h-385l6 24l488 582h202l-4 -18l-94 -31l-96 -494l102 -45l-4 -18h-110l-29 -150l90 -39zM1470 731l-407 -485
h313z" />
    <glyph glyph-name="onehalf" unicode="&#xbd;" horiz-adv-x="1740" 
d="M492 827h-297l2 15l104 37l129 671l-213 -192l6 31l217 247h201l-4 -18l-94 -31l-137 -708l88 -37zM244 0h-86l1384 1556h90zM1538 0h-559l6 29q80 23 173.5 87.5t171 148t129.5 182.5t52 182q0 64 -32.5 103.5t-89.5 39.5q-83 0 -151 -80t-75 -223q-2 -22 -10 -57h-37
l-4 215q48 81 126.5 135.5t184.5 54.5q36 0 68.5 -7.5t65 -25.5t52 -55t19.5 -88q0 -43 -11 -87t-27.5 -81t-44.5 -76.5t-53 -69.5t-62 -64.5t-63.5 -56.5t-65.5 -51t-59 -42.5t-54 -36t-41 -27.5h332l114 129h27z" />
    <glyph glyph-name="threequarters" unicode="&#xbe;" horiz-adv-x="1894" 
d="M373 815q-92 0 -160.5 35.5t-77.5 93.5l72 168h37q-33 -112 -33 -133q0 -62 52.5 -94.5t123.5 -32.5q104 0 179 78.5t75 187.5q0 53 -31 82t-90 29q-24 0 -69.5 -12t-81.5 -29l10 43q132 48 205 116t73 150q0 47 -33 76t-94 29q-80 0 -136 -49t-62 -136q-4 -60 -2 -88
h-33l-31 170q48 57 125 101.5t158 44.5q94 0 156.5 -36.5t62.5 -101.5q0 -72 -72 -139t-188 -113q99 16 169.5 -21.5t70.5 -121.5q0 -120 -111.5 -208.5t-263.5 -88.5zM428 0h-86l1384 1556h91zM1716 0h-297l4 14l103 39l28 150h-385l7 24l487 582h203l-4 -18l-95 -31
l-96 -494l103 -45l-5 -18h-110l-29 -150l90 -39zM1657 731l-408 -485h314z" />
    <glyph glyph-name="questiondown" unicode="&#xbf;" horiz-adv-x="913" 
d="M750 1669q41 0 66.5 -24t25.5 -62q0 -55 -40.5 -96t-94.5 -41q-42 0 -68.5 25.5t-26.5 64.5q0 54 41 93.5t97 39.5zM672 1323h37q-3 -66 -19 -149q-22 -112 -66.5 -182.5t-166.5 -203.5q-45 -49 -73.5 -82t-71.5 -92.5t-68.5 -110t-44.5 -117.5t-19 -132
q0 -103 55.5 -153t139.5 -50q117 0 203 86.5t125 222.5t34 297h39l23 -413q-61 -114 -183.5 -190.5t-275.5 -76.5q-45 0 -87 7t-85.5 26.5t-75 49.5t-52 80t-20.5 114q0 236 211 461q50 55 117 114t109.5 97.5t87.5 92.5t76 128.5t51 175.5z" />
    <glyph glyph-name="Agrave" unicode="&#xc0;" horiz-adv-x="1560" 
d="M997 1659h-26q-324 269 -324 346q0 39 43 39q93 0 307 -385zM295 0h-440l6 25l170 49l843 1386l-26 113h166l360 -1499l148 -49l-6 -25h-523l6 25l177 49l-127 557h-600l-336 -557l188 -49zM881 1352l-387 -643h536z" />
    <glyph glyph-name="Aacute" unicode="&#xc1;" horiz-adv-x="1560" 
d="M954 1659h-26q134 196 228.5 290.5t143.5 94.5q15 0 27 -9t12 -22q0 -76 -385 -354zM295 0h-440l6 25l170 49l843 1386l-26 113h166l360 -1499l148 -49l-6 -25h-523l6 25l177 49l-127 557h-600l-336 -557l188 -49zM881 1352l-387 -643h536z" />
    <glyph glyph-name="Acircumflex" unicode="&#xc2;" horiz-adv-x="1560" 
d="M750 1618h-31q196 268 229 307q59 71 95 77q5 1 10 1q36 0 60.5 -50t82.5 -224q23 -70 37 -111h-31q-135 201 -172 268q-29 -31 -67.5 -68.5t-65.5 -63t-76.5 -71t-70.5 -65.5zM295 0h-440l6 25l170 49l843 1386l-26 113h166l360 -1499l148 -49l-6 -25h-523l6 25l177 49
l-127 557h-600l-336 -557l188 -49zM881 1352l-387 -643h536z" />
    <glyph glyph-name="Atilde" unicode="&#xc3;" horiz-adv-x="1560" 
d="M743 1696h-28q29 96 84 149t125 53q30 0 55.5 -10.5t43 -26t34.5 -31t37.5 -26t44.5 -10.5q87 0 141 117h29q-28 -95 -83.5 -149t-127.5 -54q-37 0 -67.5 16t-48.5 36t-43.5 36t-53.5 16q-88 0 -142 -116zM295 0h-440l6 25l170 49l843 1386l-26 113h166l360 -1499
l148 -49l-6 -25h-523l6 25l177 49l-127 557h-600l-336 -557l188 -49zM881 1352l-387 -643h536z" />
    <glyph glyph-name="Adieresis" unicode="&#xc4;" horiz-adv-x="1560" 
d="M799 1706q-38 0 -61 22t-23 58q0 50 37 87.5t86 37.5q39 0 62.5 -22.5t23.5 -57.5q0 -51 -36.5 -88t-88.5 -37zM1114 1706q-38 0 -61 22t-23 58q0 50 37 87.5t86 37.5q40 0 63 -22.5t23 -57.5q0 -51 -36.5 -88t-88.5 -37zM295 0h-440l6 25l170 49l843 1386l-26 113h166
l360 -1499l148 -49l-6 -25h-523l6 25l177 49l-127 557h-600l-336 -557l188 -49zM881 1352l-387 -643h536z" />
    <glyph glyph-name="Aring" unicode="&#xc5;" horiz-adv-x="1560" 
d="M983 1688q-63 0 -103 43t-40 106q0 79 65.5 140t145.5 61q62 0 102.5 -43t40.5 -105q0 -78 -66 -140t-145 -62zM995 1749q52 0 95 40.5t43 90.5q0 41 -26.5 69.5t-66.5 28.5q-54 0 -96.5 -39.5t-42.5 -91.5q0 -42 26 -70t68 -28zM295 0h-440l6 25l170 49l843 1386
l-26 113h166l360 -1499l148 -49l-6 -25h-523l6 25l177 49l-127 557h-600l-336 -557l188 -49zM881 1352l-387 -643h536z" />
    <glyph glyph-name="AE" unicode="&#xc6;" horiz-adv-x="1794" 
d="M260 0h-412l7 25l165 65l1057 1466h774l11 -317h-29l-102 242h-486l-121 -613h322l94 174h37l-82 -426h-37l-24 175h-322l-139 -709h506l194 235h29l-133 -317h-940l6 25l166 65l110 574h-397l-418 -586l170 -53zM1061 1430l-492 -689h359z" />
    <glyph glyph-name="Ccedilla" unicode="&#xc7;" horiz-adv-x="1585" 
d="M1569 616h39q-133 -280 -359 -455t-485 -184l-74 -94q69 0 105 -31.5t36 -78.5q0 -67 -59.5 -129t-148.5 -62q-57 0 -111 35l4 23q46 -21 94 -21q66 0 105 31.5t39 79.5q0 39 -33 65.5t-98 26.5l8 39l90 116q-274 5 -443 166t-169 432q0 201 80.5 386t215.5 319
t320.5 213.5t386.5 79.5q179 0 302.5 -59t154.5 -117l-88 -455h-43q26 143 11 247.5t-67.5 173t-129.5 101.5t-175 33q-84 0 -174.5 -25.5t-186 -85t-175 -145t-139.5 -217.5t-80 -291q-17 -139 1.5 -254t64.5 -192.5t114 -131.5t146 -78t165 -24q220 0 420.5 149.5
t335.5 413.5z" />
    <glyph glyph-name="Egrave" unicode="&#xc8;" horiz-adv-x="1161" 
d="M836 1659h-27q-324 269 -324 346q0 39 41 39q44 0 122.5 -94.5t187.5 -290.5zM938 0h-965l4 25l166 65l269 1378l-142 64l6 24h945l10 -317h-29l-102 242h-510l-121 -613h346l94 174h37l-84 -426h-37l-24 175h-346l-138 -709h531l194 235h29z" />
    <glyph glyph-name="Eacute" unicode="&#xc9;" horiz-adv-x="1161" 
d="M793 1659h-27q134 195 228.5 290t142.5 95q17 0 28 -8.5t11 -22.5q0 -75 -383 -354zM938 0h-965l4 25l166 65l269 1378l-142 64l6 24h945l10 -317h-29l-102 242h-510l-121 -613h346l94 174h37l-84 -426h-37l-24 175h-346l-138 -709h531l194 235h29z" />
    <glyph glyph-name="Ecircumflex" unicode="&#xca;" horiz-adv-x="1161" 
d="M588 1618h-31q29 40 79 109q144 197 182 236q39 40 71 40q37 0 62.5 -52t88.5 -241q20 -59 31 -92h-31q-15 22 -47 69t-48.5 71.5t-39 61t-39.5 66.5q-67 -70 -278 -268zM938 0h-965l4 25l166 65l269 1378l-142 64l6 24h945l10 -317h-29l-102 242h-510l-121 -613h346
l94 174h37l-84 -426h-37l-24 175h-346l-138 -709h531l194 235h29z" />
    <glyph glyph-name="Edieresis" unicode="&#xcb;" horiz-adv-x="1161" 
d="M635 1706q-38 0 -61 22t-23 58q0 50 37 87.5t86 37.5q39 0 62.5 -22.5t23.5 -57.5q0 -51 -36.5 -88t-88.5 -37zM950 1706q-38 0 -61 22t-23 58q0 50 37 87.5t86 37.5q40 0 63 -22.5t23 -57.5q0 -51 -36.5 -88t-88.5 -37zM938 0h-965l4 25l166 65l269 1378l-142 64l6 24
h945l10 -317h-29l-102 242h-510l-121 -613h346l94 174h37l-84 -426h-37l-24 175h-346l-138 -709h531l194 235h29z" />
    <glyph glyph-name="Igrave" unicode="&#xcc;" horiz-adv-x="630" 
d="M559 1659h-27q-323 268 -323 346q0 39 41 39q44 0 122 -94.5t187 -290.5zM455 0h-482l4 25l166 65l269 1378l-142 64l6 24h482l-6 -24l-166 -64l-269 -1378l142 -65z" />
    <glyph glyph-name="Iacute" unicode="&#xcd;" horiz-adv-x="630" 
d="M516 1659h-27q134 195 228.5 290t142.5 95q17 0 28 -8.5t11 -22.5q0 -75 -383 -354zM455 0h-482l4 25l166 65l269 1378l-142 64l6 24h482l-6 -24l-166 -64l-269 -1378l142 -65z" />
    <glyph glyph-name="Icircumflex" unicode="&#xce;" horiz-adv-x="630" 
d="M311 1618h-30q199 272 217 295q63 78 97 88q9 2 17 2q38 0 63 -52.5t92 -250.5q18 -53 28 -82h-31q-15 22 -47 69t-48.5 71.5t-39 61t-39.5 66.5q-58 -61 -279 -268zM455 0h-482l4 25l166 65l269 1378l-142 64l6 24h482l-6 -24l-166 -64l-269 -1378l142 -65z" />
    <glyph glyph-name="Idieresis" unicode="&#xcf;" horiz-adv-x="630" 
d="M383 1706q-38 0 -61 22t-23 58q0 50 37 87.5t86 37.5q39 0 62.5 -22.5t23.5 -57.5q0 -51 -36.5 -88t-88.5 -37zM698 1706q-38 0 -61 22t-23 58q0 50 37 87.5t86 37.5q40 0 63 -22.5t23 -57.5q0 -51 -36.5 -88t-88.5 -37zM455 0h-482l4 25l166 65l269 1378l-142 64l6 24
h482l-6 -24l-166 -64l-269 -1378l142 -65z" />
    <glyph glyph-name="Eth" unicode="&#xd0;" horiz-adv-x="1630" 
d="M276 1556h670q314 0 491 -161t177 -437q0 -202 -75.5 -380t-206 -304.5t-313.5 -200t-390 -73.5h-656l7 25l165 65l127 651h-141l14 72h142l127 655l-142 64zM317 82h285q172 0 322.5 65.5t257.5 179.5t169 274.5t62 342.5q0 247 -147 393t-408 146h-268l-131 -670h241
l-14 -72h-240z" />
    <glyph glyph-name="Ntilde" unicode="&#xd1;" horiz-adv-x="1409" 
d="M659 1696h-28q28 95 83 148.5t126 53.5q30 0 55.5 -10.5t43 -26t34.5 -31t37.5 -26t44.5 -10.5q84 0 141 117h29q-28 -95 -83.5 -149t-127.5 -54q-37 0 -68 16t-49 36t-44 36t-54 16q-86 0 -140 -116zM373 0h-400l4 25l166 65l269 1378l-142 64l6 24h256l543 -1173
l213 1085l-141 64l4 24h399l-4 -24l-166 -64l-286 -1468h-60l-573 1239l-223 -1149l139 -65z" />
    <glyph glyph-name="Ograve" unicode="&#xd2;" horiz-adv-x="1636" 
d="M1061 1659h-27q-323 270 -323 346q0 39 43 39q44 0 122 -94.5t185 -290.5zM686 -23q-252 0 -413.5 171.5t-161.5 445.5q0 126 35 250t96.5 231.5t148.5 200t187.5 158t217.5 102.5t236 37q257 0 425.5 -171.5t168.5 -440.5q0 -184 -80.5 -365t-210 -316t-302 -219
t-347.5 -84zM760 53q180 0 331.5 124t239.5 337t88 465q0 248 -124.5 383t-317.5 135q-182 0 -336 -119t-243 -322t-89 -442q0 -133 38.5 -242t102.5 -177t144 -105t166 -37z" />
    <glyph glyph-name="Oacute" unicode="&#xd3;" horiz-adv-x="1636" 
d="M1020 1659h-27q134 196 228 290.5t143 94.5q17 0 28 -8.5t11 -22.5q0 -75 -383 -354zM686 -23q-252 0 -413.5 171.5t-161.5 445.5q0 126 35 250t96.5 231.5t148.5 200t187.5 158t217.5 102.5t236 37q257 0 425.5 -171.5t168.5 -440.5q0 -184 -80.5 -365t-210 -316
t-302 -219t-347.5 -84zM760 53q180 0 331.5 124t239.5 337t88 465q0 248 -124.5 383t-317.5 135q-182 0 -336 -119t-243 -322t-89 -442q0 -133 38.5 -242t102.5 -177t144 -105t166 -37z" />
    <glyph glyph-name="Ocircumflex" unicode="&#xd4;" horiz-adv-x="1636" 
d="M815 1618h-31q198 270 222 300q61 75 96 83q7 2 14 2q37 0 62.5 -52t88.5 -241q20 -59 31 -92h-30q-130 187 -174 268q-58 -61 -279 -268zM686 -23q-252 0 -413.5 171.5t-161.5 445.5q0 126 35 250t96.5 231.5t148.5 200t187.5 158t217.5 102.5t236 37
q257 0 425.5 -171.5t168.5 -440.5q0 -184 -80.5 -365t-210 -316t-302 -219t-347.5 -84zM760 53q180 0 331.5 124t239.5 337t88 465q0 248 -124.5 383t-317.5 135q-182 0 -336 -119t-243 -322t-89 -442q0 -133 38.5 -242t102.5 -177t144 -105t166 -37z" />
    <glyph glyph-name="Otilde" unicode="&#xd5;" horiz-adv-x="1636" 
d="M809 1696h-29q28 95 83 148.5t126 53.5q30 0 55.5 -10.5t43 -26t34.5 -31t37.5 -26t44.5 -10.5q85 0 142 117h28q-28 -95 -83.5 -149t-127.5 -54q-37 0 -68 16t-49 36t-44 36t-54 16q-85 0 -139 -116zM686 -23q-252 0 -413.5 171.5t-161.5 445.5q0 126 35 250t96.5 231.5
t148.5 200t187.5 158t217.5 102.5t236 37q257 0 425.5 -171.5t168.5 -440.5q0 -184 -80.5 -365t-210 -316t-302 -219t-347.5 -84zM760 53q180 0 331.5 124t239.5 337t88 465q0 248 -124.5 383t-317.5 135q-182 0 -336 -119t-243 -322t-89 -442q0 -133 38.5 -242t102.5 -177
t144 -105t166 -37z" />
    <glyph glyph-name="Odieresis" unicode="&#xd6;" horiz-adv-x="1636" 
d="M862 1706q-38 0 -61 22t-23 58q0 50 37 87.5t86 37.5q40 0 63 -22.5t23 -57.5q0 -51 -36.5 -88t-88.5 -37zM1178 1706q-38 0 -60 22t-22 58q0 50 37 87.5t86 37.5q39 0 62.5 -22.5t23.5 -57.5q0 -51 -36.5 -88t-90.5 -37zM686 -23q-252 0 -413.5 171.5t-161.5 445.5
q0 126 35 250t96.5 231.5t148.5 200t187.5 158t217.5 102.5t236 37q257 0 425.5 -171.5t168.5 -440.5q0 -184 -80.5 -365t-210 -316t-302 -219t-347.5 -84zM760 53q180 0 331.5 124t239.5 337t88 465q0 248 -124.5 383t-317.5 135q-182 0 -336 -119t-243 -322t-89 -442
q0 -133 38.5 -242t102.5 -177t144 -105t166 -37z" />
    <glyph glyph-name="multiply" unicode="&#xd7;" horiz-adv-x="792" 
d="M401 547l-268 -225l-53 63l268 225l-180 224l78 63l180 -223l266 223l49 -66l-264 -221l178 -223l-73 -65z" />
    <glyph glyph-name="Oslash" unicode="&#xd8;" horiz-adv-x="1636" 
d="M1573 1556l-123 -147q176 -173 176 -448q0 -184 -80.5 -365t-210 -316t-302 -219t-347.5 -84q-198 0 -344 109l-119 -141h-106l164 196q-170 175 -170 453q0 126 35 250t96.5 231.5t148.5 200t187.5 158t217.5 102.5t236 37q203 0 354 -111l78 94h109zM309 614
q0 -201 84 -340l905 1084q-121 139 -321 139q-182 0 -336 -119t-243 -322t-89 -442zM760 53q180 0 331.5 124t239.5 337t88 465q0 183 -71 309l-906 -1083q62 -74 145.5 -113t172.5 -39z" />
    <glyph glyph-name="Ugrave" unicode="&#xd9;" horiz-adv-x="1468" 
d="M1004 1659h-27q-324 269 -324 346q0 39 43 39q94 0 308 -385zM637 -23q-92 0 -164.5 17t-122 46.5t-83 73.5t-50.5 94.5t-21 114t1.5 127.5t19.5 138l172 880l-141 64l4 24h481l-4 -24l-166 -64l-160 -823q-58 -295 4.5 -439.5t260.5 -144.5q224 0 346 123.5t176 403.5
l172 880l-141 64l4 24h399l-4 -24l-166 -64l-172 -880q-28 -145 -75 -253t-122.5 -190.5t-187.5 -125t-260 -42.5z" />
    <glyph glyph-name="Uacute" unicode="&#xda;" horiz-adv-x="1468" 
d="M961 1659h-27q134 195 229 290t144 95q15 0 27 -9t12 -22q0 -76 -385 -354zM637 -23q-92 0 -164.5 17t-122 46.5t-83 73.5t-50.5 94.5t-21 114t1.5 127.5t19.5 138l172 880l-141 64l4 24h481l-4 -24l-166 -64l-160 -823q-58 -295 4.5 -439.5t260.5 -144.5
q224 0 346 123.5t176 403.5l172 880l-141 64l4 24h399l-4 -24l-166 -64l-172 -880q-28 -145 -75 -253t-122.5 -190.5t-187.5 -125t-260 -42.5z" />
    <glyph glyph-name="Ucircumflex" unicode="&#xdb;" horiz-adv-x="1468" 
d="M756 1618h-31q196 268 229 307q59 71 95 77q5 1 10 1q36 0 60.5 -50t82.5 -224q23 -70 37 -111h-31q-135 201 -172 268q-29 -31 -67.5 -68.5t-65.5 -63t-76.5 -71t-70.5 -65.5zM637 -23q-92 0 -164.5 17t-122 46.5t-83 73.5t-50.5 94.5t-21 114t1.5 127.5t19.5 138
l172 880l-141 64l4 24h481l-4 -24l-166 -64l-160 -823q-58 -295 4.5 -439.5t260.5 -144.5q224 0 346 123.5t176 403.5l172 880l-141 64l4 24h399l-4 -24l-166 -64l-172 -880q-28 -145 -75 -253t-122.5 -190.5t-187.5 -125t-260 -42.5z" />
    <glyph glyph-name="Udieresis" unicode="&#xdc;" horiz-adv-x="1468" 
d="M805 1706q-38 0 -61 22t-23 58q0 50 37 87.5t86 37.5q39 0 62.5 -22.5t23.5 -57.5q0 -51 -36.5 -88t-88.5 -37zM1120 1706q-38 0 -61 22t-23 58q0 50 37 87.5t86 37.5q40 0 63 -22.5t23 -57.5q0 -51 -36.5 -88t-88.5 -37zM637 -23q-92 0 -164.5 17t-122 46.5t-83 73.5
t-50.5 94.5t-21 114t1.5 127.5t19.5 138l172 880l-141 64l4 24h481l-4 -24l-166 -64l-160 -823q-58 -295 4.5 -439.5t260.5 -144.5q224 0 346 123.5t176 403.5l172 880l-141 64l4 24h399l-4 -24l-166 -64l-172 -880q-28 -145 -75 -253t-122.5 -190.5t-187.5 -125t-260 -42.5
z" />
    <glyph glyph-name="Yacute" unicode="&#xdd;" horiz-adv-x="1302" 
d="M868 1659h-26q134 196 228.5 290.5t143.5 94.5q15 0 27 -9t12 -22q0 -76 -385 -354zM795 0h-482l6 25l166 65l95 485l-295 902l-138 55l5 24h489l-4 -24l-158 -49l264 -821l562 817l-179 53l4 24h408l-4 -24l-162 -57l-616 -887l-97 -498l142 -65z" />
    <glyph glyph-name="Thorn" unicode="&#xde;" horiz-adv-x="1280" 
d="M455 0h-482l4 25l166 65l269 1378l-142 64l6 24h482l-6 -24l-166 -64l-43 -231h295q126 0 225 -32.5t161 -105t62 -177.5q0 -135 -81 -249t-221 -180.5t-304 -66.5h-297l-66 -336l142 -65zM528 1171l-131 -679h244q212 0 340.5 121t128.5 319q0 239 -330 239h-252z" />
    <glyph glyph-name="germandbls" unicode="&#xdf;" horiz-adv-x="1200" 
d="M721 -23q-107 0 -190 52.5t-113 122.5l139 258h47q-53 -125 -53 -195q0 -84 50 -126t136 -42q124 0 198.5 69.5t74.5 172.5q0 33 -11.5 60t-27.5 45t-44.5 36t-49.5 27.5t-56 23.5q-30 13 -44 19.5t-42.5 21.5t-43.5 27t-35.5 32t-31 40.5t-18.5 49t-8 60.5
q0 63 17.5 114.5t45 86.5t61.5 66t67.5 62t61 65.5t45 85t17.5 112.5q0 111 -65.5 187.5t-163.5 76.5q-87 0 -138 -71.5t-79 -210.5l-254 -1305h-281l5 25l141 45l235 1210q78 391 375 391q143 0 224 -84t81 -217q0 -95 -29.5 -167t-71.5 -114t-84 -78t-71.5 -79.5
t-29.5 -97.5q0 -34 15.5 -61t52.5 -52.5t67 -40.5t90 -43q48 -21 78.5 -39.5t60 -46.5t43.5 -66.5t14 -89.5q0 -94 -33.5 -173.5t-90 -132.5t-130 -82.5t-153.5 -29.5z" />
    <glyph glyph-name="agrave" unicode="&#xe0;" horiz-adv-x="1003" 
d="M631 1147h-27q-323 268 -323 346q0 39 41 39q44 0 122 -94.5t187 -290.5zM883 752l-123 -637l127 -17l-6 -37l-265 -61h-28l47 240q-15 -31 -45.5 -71t-78.5 -86t-117 -77t-142 -31q-98 0 -156.5 56.5t-58.5 150.5q0 67 25.5 127.5t66.5 105.5t100 84t118.5 66t130 50
t126.5 36.5t115 24.5l12 63q26 132 -18.5 200.5t-151.5 68.5q-123 0 -207 -82t-84 -203q0 -30 6 -57h-47l-43 241q59 64 170 116t258 52q332 0 269 -323zM328 61q51 0 103.5 28t95 72.5t72.5 85t52 79.5l60 305q-141 -30 -220 -61q-286 -125 -292 -363q0 -64 32 -105t97 -41
z" />
    <glyph glyph-name="aacute" unicode="&#xe1;" horiz-adv-x="1003" 
d="M932 1532q17 0 28 -8.5t11 -22.5q0 -75 -383 -354h-27q134 195 228.5 290t142.5 95zM614 1075q332 0 269 -323l-123 -637l127 -17l-6 -37l-265 -61h-28l47 240q-15 -31 -45.5 -71t-78.5 -86t-117 -77t-142 -31q-98 0 -156.5 56.5t-58.5 150.5q0 67 25.5 127.5t66.5 105.5
t100 84t118.5 66t130 50t126.5 36.5t115 24.5l12 63q26 132 -18.5 200.5t-151.5 68.5q-123 0 -207 -82t-84 -203q0 -30 6 -57h-47l-43 241q59 64 170 116t258 52zM328 61q51 0 103.5 28t95 72.5t72.5 85t52 79.5l60 305q-141 -30 -220 -61q-286 -125 -292 -363
q0 -64 32 -105t97 -41z" />
    <glyph glyph-name="acircumflex" unicode="&#xe2;" horiz-adv-x="1003" 
d="M662 1374q-58 -61 -279 -268h-31q29 40 79 109q144 197 182 236q39 40 71 40q37 0 62.5 -52t88.5 -241q20 -59 31 -92h-30q-15 22 -47 69t-48.5 71.5t-39 61t-39.5 66.5zM883 752l-123 -637l127 -17l-6 -37l-265 -61h-28l47 240q-15 -31 -45.5 -71t-78.5 -86t-117 -77
t-142 -31q-98 0 -156.5 56.5t-58.5 150.5q0 67 25.5 127.5t66.5 105.5t100 84t118.5 66t130 50t126.5 36.5t115 24.5l12 63q26 132 -18.5 200.5t-151.5 68.5q-123 0 -207 -82t-84 -203q0 -30 6 -57h-47l-43 241q59 64 170 116t258 52q332 0 269 -323zM328 61q51 0 103.5 28
t95 72.5t72.5 85t52 79.5l60 305q-141 -30 -220 -61q-286 -125 -292 -363q0 -64 32 -105t97 -41z" />
    <glyph glyph-name="atilde" unicode="&#xe3;" horiz-adv-x="1003" 
d="M516 1300q-85 0 -139 -116h-29q28 95 83 148.5t126 53.5q30 0 55.5 -10.5t43 -26t34.5 -31t37.5 -26t44.5 -10.5q84 0 141 117h29q-28 -95 -83.5 -149t-127.5 -54q-37 0 -68 16t-49 36t-44 36t-54 16zM614 1075q332 0 269 -323l-123 -637l127 -17l-6 -37l-265 -61h-28
l47 240q-15 -31 -45.5 -71t-78.5 -86t-117 -77t-142 -31q-98 0 -156.5 56.5t-58.5 150.5q0 67 25.5 127.5t66.5 105.5t100 84t118.5 66t130 50t126.5 36.5t115 24.5l12 63q26 132 -18.5 200.5t-151.5 68.5q-123 0 -207 -82t-84 -203q0 -30 6 -57h-47l-43 241q59 64 170 116
t258 52zM328 61q51 0 103.5 28t95 72.5t72.5 85t52 79.5l60 305q-141 -30 -220 -61q-286 -125 -292 -363q0 -64 32 -105t97 -41z" />
    <glyph glyph-name="adieresis" unicode="&#xe4;" horiz-adv-x="1003" 
d="M463 1255q-38 0 -61 22t-23 58q0 50 37 87.5t86 37.5q39 0 62.5 -22.5t23.5 -57.5q0 -51 -36.5 -88t-88.5 -37zM778 1255q-38 0 -61 22t-23 58q0 50 37 87.5t86 37.5q40 0 63 -22.5t23 -57.5q0 -51 -36.5 -88t-88.5 -37zM614 1075q332 0 269 -323l-123 -637l127 -17
l-6 -37l-265 -61h-28l47 240q-15 -31 -45.5 -71t-78.5 -86t-117 -77t-142 -31q-98 0 -156.5 56.5t-58.5 150.5q0 67 25.5 127.5t66.5 105.5t100 84t118.5 66t130 50t126.5 36.5t115 24.5l12 63q26 132 -18.5 200.5t-151.5 68.5q-123 0 -207 -82t-84 -203q0 -30 6 -57h-47
l-43 241q59 64 170 116t258 52zM328 61q51 0 103.5 28t95 72.5t72.5 85t52 79.5l60 305q-141 -30 -220 -61q-286 -125 -292 -363q0 -64 32 -105t97 -41z" />
    <glyph glyph-name="aring" unicode="&#xe5;" horiz-adv-x="1003" 
d="M616 1176q-63 0 -104 43t-41 106q0 79 65.5 140t147.5 61q61 0 102 -43t41 -105q0 -78 -66 -140t-145 -62zM674 1466q-56 0 -99 -39.5t-43 -91.5q0 -42 27 -70t68 -28q52 0 95.5 40.5t43.5 90.5q0 41 -27 69.5t-65 28.5zM883 752l-123 -637l127 -17l-6 -37l-265 -61h-28
l47 240q-15 -31 -45.5 -71t-78.5 -86t-117 -77t-142 -31q-98 0 -156.5 56.5t-58.5 150.5q0 67 25.5 127.5t66.5 105.5t100 84t118.5 66t130 50t126.5 36.5t115 24.5l12 63q26 132 -18.5 200.5t-151.5 68.5q-123 0 -207 -82t-84 -203q0 -30 6 -57h-47l-43 241q59 64 170 116
t258 52q332 0 269 -323zM328 61q51 0 103.5 28t95 72.5t72.5 85t52 79.5l60 305q-141 -30 -220 -61q-286 -125 -292 -363q0 -64 32 -105t97 -41z" />
    <glyph glyph-name="ae" unicode="&#xe6;" horiz-adv-x="1665" 
d="M256 -23q-103 0 -162 56t-59 149q0 358 684 496l12 61q26 134 -20 201.5t-150 67.5q-125 0 -209 -82t-84 -203q0 -33 6 -57h-47l-43 241q56 62 168.5 115t253.5 53q124 0 188.5 -49.5t71.5 -155.5q83 98 190 151.5t224 53.5q178 0 267.5 -118t49.5 -322l-10 -49h-733
l-2 -21q-40 -222 39.5 -369t247.5 -147q120 0 231.5 80t202.5 231h39q-88 -171 -231 -277t-316 -106q-144 0 -235.5 76t-127.5 203q-76 -111 -200.5 -195t-245.5 -84zM874 653h568q31 159 -18.5 253.5t-170.5 94.5q-125 0 -231 -98.5t-148 -249.5zM328 61q40 0 82.5 18
t75 43t66 60t53 59.5t38.5 51.5l66 338q-5 -1 -36.5 -9t-53.5 -13.5t-62 -18.5t-69.5 -25.5t-69 -33t-68.5 -42.5t-59.5 -52.5t-49.5 -63.5t-31.5 -76t-12.5 -90q0 -63 33 -104.5t98 -41.5z" />
    <glyph glyph-name="ccedilla" unicode="&#xe7;" horiz-adv-x="1017" 
d="M489 49q255 0 447 311h39q-85 -170 -218 -275t-302 -108l-74 -94q67 0 103 -31.5t36 -78.5q0 -66 -59.5 -128.5t-147.5 -62.5q-56 0 -110 35l2 23q46 -21 94 -21q66 0 105.5 31.5t39.5 79.5q0 39 -33 65.5t-98 26.5l9 39l90 119q-166 10 -260.5 123.5t-94.5 287.5
q0 182 84.5 340t227 251t305.5 93q124 0 206 -48t119 -112l-196 -350h-39q84 158 84 264q0 84 -50 129.5t-143 45.5q-122 0 -224.5 -78.5t-162 -214.5t-59.5 -297q0 -164 77.5 -264.5t202.5 -100.5z" />
    <glyph glyph-name="egrave" unicode="&#xe8;" horiz-adv-x="1038" 
d="M678 1147h-27q-323 268 -323 346q0 39 41 39q44 0 122 -94.5t187 -290.5zM438 -23q-182 0 -281.5 115.5t-99.5 296.5q0 107 31.5 210t88 188t130 150.5t163.5 101.5t183 36q177 0 267.5 -118t50.5 -322l-10 -49h-734l-2 -21q-44 -224 38 -370t251 -146q117 0 229.5 80.5
t204.5 230.5h39q-88 -171 -231.5 -277t-317.5 -106zM248 653h569q31 159 -18.5 253.5t-169.5 94.5q-126 0 -232 -98.5t-149 -249.5z" />
    <glyph glyph-name="eacute" unicode="&#xe9;" horiz-adv-x="1038" 
d="M635 1147h-27q134 195 228.5 290t142.5 95q17 0 28 -8.5t11 -22.5q0 -75 -383 -354zM438 -23q-182 0 -281.5 115.5t-99.5 296.5q0 107 31.5 210t88 188t130 150.5t163.5 101.5t183 36q177 0 267.5 -118t50.5 -322l-10 -49h-734l-2 -21q-44 -224 38 -370t251 -146
q117 0 229.5 80.5t204.5 230.5h39q-88 -171 -231.5 -277t-317.5 -106zM248 653h569q31 159 -18.5 253.5t-169.5 94.5q-126 0 -232 -98.5t-149 -249.5z" />
    <glyph glyph-name="ecircumflex" unicode="&#xea;" horiz-adv-x="1038" 
d="M430 1106h-31q29 40 79 109q144 197 182 236q39 40 71 40q37 0 62.5 -52t88.5 -241q20 -59 31 -92h-30q-15 22 -47 69t-48.5 71.5t-39 61t-39.5 66.5q-58 -61 -279 -268zM438 -23q-182 0 -281.5 115.5t-99.5 296.5q0 107 31.5 210t88 188t130 150.5t163.5 101.5t183 36
q177 0 267.5 -118t50.5 -322l-10 -49h-734l-2 -21q-44 -224 38 -370t251 -146q117 0 229.5 80.5t204.5 230.5h39q-88 -171 -231.5 -277t-317.5 -106zM248 653h569q31 159 -18.5 253.5t-169.5 94.5q-126 0 -232 -98.5t-149 -249.5z" />
    <glyph glyph-name="edieresis" unicode="&#xeb;" horiz-adv-x="1038" 
d="M510 1255q-38 0 -61 22t-23 58q0 50 37 87.5t86 37.5q39 0 62.5 -22.5t23.5 -57.5q0 -51 -36.5 -88t-88.5 -37zM825 1255q-38 0 -61 22t-23 58q0 50 37 87.5t86 37.5q40 0 63 -22.5t23 -57.5q0 -51 -36.5 -88t-88.5 -37zM438 -23q-182 0 -281.5 115.5t-99.5 296.5
q0 107 31.5 210t88 188t130 150.5t163.5 101.5t183 36q177 0 267.5 -118t50.5 -322l-10 -49h-734l-2 -21q-44 -224 38 -370t251 -146q117 0 229.5 80.5t204.5 230.5h39q-88 -171 -231.5 -277t-317.5 -106zM248 653h569q31 159 -18.5 253.5t-169.5 94.5q-126 0 -232 -98.5
t-149 -249.5z" />
    <glyph glyph-name="igrave" unicode="&#xec;" horiz-adv-x="497" 
d="M373 1147h-27q-323 268 -323 346q0 39 40 39q96 0 310 -385zM356 0h-413l4 25l143 45l168 870l-129 27l6 24l262 53h29l-188 -974l124 -45z" />
    <glyph glyph-name="iacute" unicode="&#xed;" horiz-adv-x="497" 
d="M330 1147h-27q134 195 228.5 290t142.5 95q17 0 28 -8.5t11 -22.5q0 -77 -383 -354zM356 0h-413l4 25l143 45l168 870l-129 27l6 24l262 53h29l-188 -974l124 -45z" />
    <glyph glyph-name="icircumflex" unicode="&#xee;" horiz-adv-x="497" 
d="M125 1106h-31q24 32 66 90q153 210 193 252q42 43 75 43q36 0 60.5 -50t82.5 -224q7 -23 11.5 -36t12 -34.5t13.5 -40.5h-30q-145 215 -175 268q-67 -70 -278 -268zM356 0h-413l4 25l143 45l168 870l-129 27l6 24l262 53h29l-188 -974l124 -45z" />
    <glyph glyph-name="idieresis" unicode="&#xef;" horiz-adv-x="497" 
d="M205 1255q-38 0 -61 22t-23 58q0 50 37 87.5t86 37.5q39 0 62.5 -22.5t23.5 -57.5q0 -51 -36.5 -88t-88.5 -37zM520 1255q-38 0 -60 22t-22 58q0 50 36.5 87.5t86.5 37.5q39 0 61.5 -22.5t22.5 -57.5q0 -51 -36.5 -88t-88.5 -37zM356 0h-413l4 25l143 45l168 870l-129 27
l6 24l262 53h29l-188 -974l124 -45z" />
    <glyph glyph-name="eth" unicode="&#xf0;" horiz-adv-x="1150" 
d="M1098 1513l14 -79l-180 -56q164 -284 164 -590q0 -225 -77.5 -409t-223 -293t-332.5 -109q-99 0 -177.5 38t-126.5 102.5t-73 144t-25 168.5q0 95 28.5 189.5t82.5 176t125.5 144.5t164.5 99t193 36q187 0 277 -133h10q-52 201 -164 389l-235 -71l-15 79l205 62
q-76 113 -194 237h198q78 -84 150 -188zM485 49q113 0 212 80t157.5 215t58.5 289q0 162 -71.5 266.5t-200.5 104.5q-119 0 -217.5 -74t-154.5 -202.5t-56 -281.5q0 -168 73 -282.5t199 -114.5z" />
    <glyph glyph-name="ntilde" unicode="&#xf1;" horiz-adv-x="1110" 
d="M465 1184h-29q28 95 83 148.5t126 53.5q30 0 55.5 -10.5t43 -26t34.5 -31t37.5 -26t44.5 -10.5q84 0 141 117h29q-28 -95 -83.5 -149t-127.5 -54q-37 0 -67.5 16t-48.5 36t-43.5 36t-53.5 16q-87 0 -141 -116zM348 0h-405l4 25l143 45l168 870l-129 27l6 24l262 53h29
l-39 -208q19 30 42 58.5t60.5 62.5t78 59t96 42t114.5 17q123 0 184 -74.5t31 -232.5l-135 -698l123 -45l-4 -25h-406l4 25l134 45l118 620q60 305 -129 305q-100 0 -187 -75t-144 -185l-129 -665l116 -45z" />
    <glyph glyph-name="ograve" unicode="&#xf2;" horiz-adv-x="1124" 
d="M705 1147h-27q-324 269 -324 346q0 39 41 39q96 0 310 -385zM459 -23q-104 0 -183.5 38t-125.5 102t-68.5 139.5t-22.5 159.5q0 167 83 318.5t227.5 246t310.5 94.5q85 0 153 -24t111.5 -63.5t73 -93.5t41.5 -111t12 -119q0 -125 -48.5 -249t-129.5 -220.5t-195.5 -157
t-238.5 -60.5zM500 49q102 0 197.5 88t153.5 229.5t58 290.5q0 151 -67.5 249t-196.5 98q-84 0 -164 -47.5t-139 -125.5t-95 -183t-36 -216q0 -162 77 -272.5t212 -110.5z" />
    <glyph glyph-name="oacute" unicode="&#xf3;" horiz-adv-x="1124" 
d="M662 1147h-27q134 195 228.5 290t142.5 95q17 0 27.5 -8.5t10.5 -22.5q0 -78 -382 -354zM459 -23q-104 0 -183.5 38t-125.5 102t-68.5 139.5t-22.5 159.5q0 167 83 318.5t227.5 246t310.5 94.5q85 0 153 -24t111.5 -63.5t73 -93.5t41.5 -111t12 -119q0 -125 -48.5 -249
t-129.5 -220.5t-195.5 -157t-238.5 -60.5zM500 49q102 0 197.5 88t153.5 229.5t58 290.5q0 151 -67.5 249t-196.5 98q-84 0 -164 -47.5t-139 -125.5t-95 -183t-36 -216q0 -162 77 -272.5t212 -110.5z" />
    <glyph glyph-name="ocircumflex" unicode="&#xf4;" horiz-adv-x="1124" 
d="M457 1106h-31q196 268 229 307q59 71 95 77q5 1 10 1q36 0 60.5 -50t82.5 -224q7 -23 11.5 -36t12 -34.5t13.5 -40.5h-31q-138 205 -174 268q-67 -70 -278 -268zM459 -23q-104 0 -183.5 38t-125.5 102t-68.5 139.5t-22.5 159.5q0 167 83 318.5t227.5 246t310.5 94.5
q85 0 153 -24t111.5 -63.5t73 -93.5t41.5 -111t12 -119q0 -125 -48.5 -249t-129.5 -220.5t-195.5 -157t-238.5 -60.5zM500 49q102 0 197.5 88t153.5 229.5t58 290.5q0 151 -67.5 249t-196.5 98q-84 0 -164 -47.5t-139 -125.5t-95 -183t-36 -216q0 -162 77 -272.5t212 -110.5
z" />
    <glyph glyph-name="otilde" unicode="&#xf5;" horiz-adv-x="1124" 
d="M451 1184h-29q28 95 83 148.5t126 53.5q30 0 55.5 -10.5t43 -26t34.5 -31t37.5 -26t44.5 -10.5q84 0 141 117h29q-28 -95 -83.5 -149t-127.5 -54q-37 0 -67.5 16t-48.5 36t-43.5 36t-53.5 16q-87 0 -141 -116zM459 -23q-104 0 -183.5 38t-125.5 102t-68.5 139.5
t-22.5 159.5q0 167 83 318.5t227.5 246t310.5 94.5q85 0 153 -24t111.5 -63.5t73 -93.5t41.5 -111t12 -119q0 -125 -48.5 -249t-129.5 -220.5t-195.5 -157t-238.5 -60.5zM500 49q102 0 197.5 88t153.5 229.5t58 290.5q0 151 -67.5 249t-196.5 98q-84 0 -164 -47.5
t-139 -125.5t-95 -183t-36 -216q0 -162 77 -272.5t212 -110.5z" />
    <glyph glyph-name="odieresis" unicode="&#xf6;" horiz-adv-x="1124" 
d="M537 1255q-38 0 -61 22t-23 58q0 50 36.5 87.5t85.5 37.5q39 0 63 -23t24 -57q0 -51 -36.5 -88t-88.5 -37zM852 1255q-38 0 -60 22t-22 58q0 50 36.5 87.5t86.5 37.5q39 0 61.5 -22.5t22.5 -57.5q0 -51 -36.5 -88t-88.5 -37zM459 -23q-104 0 -183.5 38t-125.5 102
t-68.5 139.5t-22.5 159.5q0 167 83 318.5t227.5 246t310.5 94.5q85 0 153 -24t111.5 -63.5t73 -93.5t41.5 -111t12 -119q0 -125 -48.5 -249t-129.5 -220.5t-195.5 -157t-238.5 -60.5zM500 49q102 0 197.5 88t153.5 229.5t58 290.5q0 151 -67.5 249t-196.5 98
q-84 0 -164 -47.5t-139 -125.5t-95 -183t-36 -216q0 -162 77 -272.5t212 -110.5z" />
    <glyph glyph-name="divide" unicode="&#xf7;" horiz-adv-x="917" 
d="M506 762q-42 0 -67 24t-25 62q0 55 40.5 96t94.5 41q42 0 68 -25.5t26 -64.5q0 -54 -40.5 -93.5t-96.5 -39.5zM825 547h-723l17 90h723zM395 197q-42 0 -67 24t-25 62q0 55 40.5 96t96.5 41q42 0 67 -25.5t25 -64.5q0 -54 -40.5 -93.5t-96.5 -39.5z" />
    <glyph glyph-name="oslash" unicode="&#xf8;" horiz-adv-x="1126" 
d="M987 1075h109l-111 -131q86 -110 86 -280q0 -125 -48.5 -249t-129.5 -220.5t-195.5 -157t-238.5 -60.5q-142 0 -238 70l-80 -94h-106l127 149q-103 120 -103 314q0 167 83 318.5t227.5 246t310.5 94.5q149 0 246 -71zM211 432q0 -128 45 -219l586 692q-70 99 -197 99
q-84 0 -164 -47.5t-139 -125.5t-95 -183t-36 -216zM909 657q0 97 -26 168l-582 -684q79 -92 199 -92q102 0 197.5 88t153.5 229.5t58 290.5z" />
    <glyph glyph-name="ugrave" unicode="&#xf9;" horiz-adv-x="1058" 
d="M649 1147h-26q-324 269 -324 346q0 39 43 39q93 0 307 -385zM315 -27q-258 0 -194 328l123 639l-127 27l4 24l264 53h29l-140 -712q-22 -105 -11.5 -167t39 -87t79.5 -25q94 0 170.5 64t146.5 182l125 641l-129 27l6 24l263 53h28l-182 -940l127 -26l-4 -25l-262 -53h-29
l37 199q-63 -99 -154.5 -162.5t-208.5 -63.5z" />
    <glyph glyph-name="uacute" unicode="&#xfa;" horiz-adv-x="1058" 
d="M608 1147h-26q133 195 227 290t143 95q15 0 27 -9t12 -22q0 -75 -383 -354zM315 -27q-258 0 -194 328l123 639l-127 27l4 24l264 53h29l-140 -712q-22 -105 -11.5 -167t39 -87t79.5 -25q94 0 170.5 64t146.5 182l125 641l-129 27l6 24l263 53h28l-182 -940l127 -26
l-4 -25l-262 -53h-29l37 199q-63 -99 -154.5 -162.5t-208.5 -63.5z" />
    <glyph glyph-name="ucircumflex" unicode="&#xfb;" horiz-adv-x="1058" 
d="M401 1106h-30q196 268 229 307q59 71 95 77q5 1 10 1q36 0 60.5 -50t82.5 -224q7 -23 11.5 -36t12 -34.5t13.5 -40.5h-31q-135 201 -172 268q-38 -40 -80 -80.5t-113 -106t-88 -81.5zM315 -27q-258 0 -194 328l123 639l-127 27l4 24l264 53h29l-140 -712
q-22 -105 -11.5 -167t39 -87t79.5 -25q94 0 170.5 64t146.5 182l125 641l-129 27l6 24l263 53h28l-182 -940l127 -26l-4 -25l-262 -53h-29l37 199q-63 -99 -154.5 -162.5t-208.5 -63.5z" />
    <glyph glyph-name="udieresis" unicode="&#xfc;" horiz-adv-x="1058" 
d="M481 1255q-38 0 -60 22t-22 58q0 50 36.5 87.5t86.5 37.5q39 0 61.5 -22.5t22.5 -57.5q0 -51 -36.5 -88t-88.5 -37zM799 1255q-38 0 -61 22t-23 58q0 50 37 87.5t86 37.5q39 0 62.5 -22.5t23.5 -57.5q0 -51 -36.5 -88t-88.5 -37zM315 -27q-258 0 -194 328l123 639
l-127 27l4 24l264 53h29l-140 -712q-22 -105 -11.5 -167t39 -87t79.5 -25q94 0 170.5 64t146.5 182l125 641l-129 27l6 24l263 53h28l-182 -940l127 -26l-4 -25l-262 -53h-29l37 199q-63 -99 -154.5 -162.5t-208.5 -63.5z" />
    <glyph glyph-name="yacute" unicode="&#xfd;" horiz-adv-x="1095" 
d="M659 1147h-26q134 195 228.5 290t142.5 95q17 0 27.5 -8.5t10.5 -22.5q0 -75 -383 -354zM12 -424l-164 223l39 27q122 -133 207 -133q79 0 171.5 101t137.5 214l-186 965l-139 47l4 24h457l-4 -24l-162 -47l153 -805l441 809l-150 43l4 24h400l-4 -24l-183 -47l-483 -871
q-53 -95 -98.5 -167t-100.5 -143t-106.5 -116t-111.5 -72.5t-122 -27.5z" />
    <glyph glyph-name="thorn" unicode="&#xfe;" horiz-adv-x="1042" 
d="M240 -410h-416l6 25l141 45l365 1874l-125 27l4 24l260 53h29l-109 -563q151 0 265.5 -38t181.5 -104.5t100 -149.5t33 -181q0 -120 -43 -235.5t-113.5 -200.5t-165.5 -137t-194 -52q-90 0 -147.5 37t-104.5 103l-88 -457l125 -45zM451 57q95 0 180.5 74.5t136.5 198
t51 260.5q0 90 -26.5 167t-78 136.5t-136 93t-193.5 33.5l-164 -840q38 -53 99.5 -88t130.5 -35z" />
    <glyph glyph-name="ydieresis" unicode="&#xff;" horiz-adv-x="1095" 
d="M535 1255q-38 0 -61 22t-23 58q0 50 36.5 87.5t85.5 37.5q39 0 62.5 -22.5t23.5 -57.5q0 -51 -36 -88t-88 -37zM850 1255q-38 0 -61 22t-23 58q0 50 37 87.5t86 37.5q40 0 63 -22.5t23 -57.5q0 -51 -36.5 -88t-88.5 -37zM12 -424l-164 223l39 27q122 -133 207 -133
q79 0 171.5 101t137.5 214l-186 965l-139 47l4 24h457l-4 -24l-162 -47l153 -805l441 809l-150 43l4 24h400l-4 -24l-183 -47l-483 -871q-53 -95 -98.5 -167t-100.5 -143t-106.5 -116t-111.5 -72.5t-122 -27.5z" />
    <glyph glyph-name="Amacron" unicode="&#x100;" horiz-adv-x="1560" 
d="M1280 1753h-555l18 94h555zM295 0h-440l6 25l170 49l843 1386l-26 113h166l360 -1499l148 -49l-6 -25h-523l6 25l177 49l-127 557h-600l-336 -557l188 -49zM881 1352l-387 -643h536z" />
    <glyph glyph-name="amacron" unicode="&#x101;" horiz-adv-x="1003" 
d="M358 1241l17 94h555l-17 -94h-555zM614 1075q332 0 269 -323l-123 -637l127 -17l-6 -37l-265 -61h-28l47 240q-15 -31 -45.5 -71t-78.5 -86t-117 -77t-142 -31q-98 0 -156.5 56.5t-58.5 150.5q0 67 25.5 127.5t66.5 105.5t100 84t118.5 66t130 50t126.5 36.5t115 24.5
l12 63q26 132 -18.5 200.5t-151.5 68.5q-123 0 -207 -82t-84 -203q0 -30 6 -57h-47l-43 241q59 64 170 116t258 52zM328 61q51 0 103.5 28t95 72.5t72.5 85t52 79.5l60 305q-141 -30 -220 -61q-286 -125 -292 -363q0 -64 32 -105t97 -41z" />
    <glyph glyph-name="Abreve" unicode="&#x102;" horiz-adv-x="1560" 
d="M977 1659q-52 0 -95 21t-76 67t-41.5 119t9.5 178h29q-13 -74 0 -136t62.5 -104.5t131.5 -42.5q119 0 198 83t103 200h29q-19 -100 -58 -177t-88 -121t-100.5 -65.5t-103.5 -21.5zM295 0h-440l6 25l170 49l843 1386l-26 113h166l360 -1499l148 -49l-6 -25h-523l6 25
l177 49l-127 557h-600l-336 -557l188 -49zM881 1352l-387 -643h536z" />
    <glyph glyph-name="abreve" unicode="&#x103;" horiz-adv-x="1003" 
d="M608 1147q-51 0 -93.5 21t-75.5 67t-41 119t10 178h28q-12 -53 -4.5 -104t27.5 -90.5t64 -64t106 -24.5q82 0 148 42.5t103 104.5t52 136h29q-19 -100 -58 -177t-89 -121t-102 -65.5t-104 -21.5zM614 1075q332 0 269 -323l-123 -637l127 -17l-6 -37l-265 -61h-28l47 240
q-15 -31 -45.5 -71t-78.5 -86t-117 -77t-142 -31q-98 0 -156.5 56.5t-58.5 150.5q0 67 25.5 127.5t66.5 105.5t100 84t118.5 66t130 50t126.5 36.5t115 24.5l12 63q26 132 -18.5 200.5t-151.5 68.5q-123 0 -207 -82t-84 -203q0 -30 6 -57h-47l-43 241q59 64 170 116t258 52z
M328 61q51 0 103.5 28t95 72.5t72.5 85t52 79.5l60 305q-141 -30 -220 -61q-286 -125 -292 -363q0 -64 32 -105t97 -41z" />
    <glyph glyph-name="Aogonek" unicode="&#x104;" horiz-adv-x="1560" 
d="M1516 0h-216q-62 -52 -113.5 -120.5t-51.5 -137.5q0 -43 22 -66.5t57 -23.5q59 0 119 57h27q-100 -119 -201 -119q-53 0 -86 32.5t-33 84.5q0 134 220 293h-267l6 25l177 49l-127 557h-600l-336 -557l188 -49l-6 -25h-440l6 25l170 49l843 1386l-26 113h166l360 -1499
l148 -49zM881 1352l-387 -643h536z" />
    <glyph glyph-name="aogonek" unicode="&#x105;" horiz-adv-x="1003" 
d="M883 752l-123 -637l127 -17l-6 -37l-258 -59q-168 -144 -168 -260q0 -43 22.5 -66.5t57.5 -23.5q58 0 118 57h27q-100 -119 -201 -119q-53 0 -86 32.5t-33 84.5q0 38 19.5 79t42 70t62.5 64.5t57 48.5t49 37l45 234q-15 -31 -45.5 -71t-78.5 -86t-117 -77t-142 -31
q-98 0 -156.5 56.5t-58.5 150.5q0 67 25.5 127.5t66.5 105.5t100 84t118.5 66t130 50t126.5 36.5t115 24.5l12 63q26 132 -18.5 200.5t-151.5 68.5q-123 0 -207 -82t-84 -203q0 -30 6 -57h-47l-43 241q59 64 170 116t258 52q332 0 269 -323zM328 61q51 0 103.5 28t95 72.5
t72.5 85t52 79.5l60 305q-141 -30 -220 -61q-286 -125 -292 -363q0 -64 32 -105t97 -41z" />
    <glyph glyph-name="Cacute" unicode="&#x106;" horiz-adv-x="1585" 
d="M1032 1659h-26q134 196 228.5 290.5t143.5 94.5q15 0 27 -9t12 -22q0 -76 -385 -354zM737 -23q-281 0 -454.5 161t-173.5 437q0 201 80.5 386t215.5 319t320.5 213.5t386.5 79.5q179 0 302.5 -59t154.5 -117l-88 -455h-43q26 143 11 247.5t-67.5 173t-129.5 101.5
t-175 33q-84 0 -174.5 -25.5t-186 -85t-175 -145t-139.5 -217.5t-80 -291q-17 -139 1.5 -254t64.5 -192.5t114 -131.5t146 -78t165 -24q220 0 420.5 149.5t335.5 413.5h39q-137 -286 -371 -462.5t-500 -176.5z" />
    <glyph glyph-name="cacute" unicode="&#x107;" horiz-adv-x="1017" 
d="M635 1147h-27q134 195 229 290t144 95q15 0 27 -9t12 -22q0 -76 -385 -354zM444 -23q-180 0 -283.5 115.5t-103.5 298.5q0 182 84.5 340t227 251t305.5 93q124 0 206 -48t119 -112l-196 -350h-39q84 158 84 264q0 84 -50 129.5t-143 45.5q-122 0 -224.5 -78.5
t-162 -214.5t-59.5 -297q0 -164 77.5 -264.5t202.5 -100.5q255 0 447 311h39q-88 -173 -223 -278t-308 -105z" />
    <glyph glyph-name="Cdotaccent" unicode="&#x10a;" horiz-adv-x="1585" 
d="M1075 1700q-42 0 -67 25.5t-25 64.5q0 54 40 93.5t95 39.5q41 0 65.5 -26t24.5 -66q0 -54 -39 -92.5t-94 -38.5zM737 -23q-281 0 -454.5 161t-173.5 437q0 201 80.5 386t215.5 319t320.5 213.5t386.5 79.5q179 0 302.5 -59t154.5 -117l-88 -455h-43q26 143 11 247.5
t-67.5 173t-129.5 101.5t-175 33q-84 0 -174.5 -25.5t-186 -85t-175 -145t-139.5 -217.5t-80 -291q-17 -139 1.5 -254t64.5 -192.5t114 -131.5t146 -78t165 -24q220 0 420.5 149.5t335.5 413.5h39q-137 -286 -371 -462.5t-500 -176.5z" />
    <glyph glyph-name="cdotaccent" unicode="&#x10b;" horiz-adv-x="1017" 
d="M678 1188q-42 0 -67 25.5t-25 64.5q0 54 40 93.5t95 39.5q41 0 65.5 -26t24.5 -66q0 -54 -39 -92.5t-94 -38.5zM444 -23q-180 0 -283.5 115.5t-103.5 298.5q0 182 84.5 340t227 251t305.5 93q124 0 206 -48t119 -112l-196 -350h-39q84 158 84 264q0 84 -50 129.5
t-143 45.5q-122 0 -224.5 -78.5t-162 -214.5t-59.5 -297q0 -164 77.5 -264.5t202.5 -100.5q255 0 447 311h39q-88 -173 -223 -278t-308 -105z" />
    <glyph glyph-name="Ccaron" unicode="&#x10c;" horiz-adv-x="1585" 
d="M1055 1655q-38 0 -63 52.5t-92 250.5q-18 53 -28 82h31q142 -211 174 -268q29 32 67.5 69t65.5 63t75.5 70.5t70.5 65.5h30q-32 -44 -86 -117q-139 -191 -176 -229q-38 -39 -69 -39zM737 -23q-281 0 -454.5 161t-173.5 437q0 201 80.5 386t215.5 319t320.5 213.5
t386.5 79.5q179 0 302.5 -59t154.5 -117l-88 -455h-43q26 143 11 247.5t-67.5 173t-129.5 101.5t-175 33q-84 0 -174.5 -25.5t-186 -85t-175 -145t-139.5 -217.5t-80 -291q-17 -139 1.5 -254t64.5 -192.5t114 -131.5t146 -78t165 -24q220 0 420.5 149.5t335.5 413.5h39
q-137 -286 -371 -462.5t-500 -176.5z" />
    <glyph glyph-name="ccaron" unicode="&#x10d;" horiz-adv-x="1017" 
d="M657 1143q-37 0 -62.5 52t-88.5 241q-20 59 -31 92h31q142 -211 174 -268q30 32 68.5 70t63.5 61.5t77 72t69 64.5h31q-29 -40 -79 -109q-144 -197 -182 -236q-39 -40 -71 -40zM444 -23q-180 0 -283.5 115.5t-103.5 298.5q0 182 84.5 340t227 251t305.5 93q124 0 206 -48
t119 -112l-196 -350h-39q84 158 84 264q0 84 -50 129.5t-143 45.5q-122 0 -224.5 -78.5t-162 -214.5t-59.5 -297q0 -164 77.5 -264.5t202.5 -100.5q255 0 447 311h39q-88 -173 -223 -278t-308 -105z" />
    <glyph glyph-name="Dcaron" unicode="&#x10e;" horiz-adv-x="1630" 
d="M932 1655q-36 0 -60.5 49.5t-82.5 220.5q-7 23 -12 36.5t-12.5 36t-14.5 42.5h30q133 -192 174 -268q37 40 83 84t106 99.5t90 84.5h31q-195 -268 -229 -309q-58 -70 -94 -75q-4 -1 -9 -1zM629 0h-656l4 25l166 65l269 1378l-142 64l6 24h670q313 0 489.5 -161
t176.5 -437q0 -202 -75 -380t-205.5 -304.5t-313 -200t-389.5 -73.5zM590 1483l-273 -1401h285q171 0 321.5 65.5t258 179.5t169.5 274.5t62 342.5q0 247 -147 393t-408 146h-268z" />
    <glyph glyph-name="dcaron" unicode="&#x10f;" horiz-adv-x="1081" 
d="M801 0h-150q-152 0 -267 36.5t-182.5 100t-100.5 143.5t-33 175q0 155 73 299.5t192.5 232.5t248.5 88q159 0 252 -139l114 598l-127 27l4 24l265 53h28zM1139 1065h-29q70 70 103.5 130.5t33.5 129.5q0 101 -39 152q9 45 40.5 69.5t70.5 24.5q36 0 58 -22t22 -62
q0 -77 -80 -207.5t-180 -214.5zM659 47l158 815q-36 57 -93.5 95t-129.5 38q-95 0 -181.5 -75.5t-139 -199.5t-52.5 -259q0 -179 110 -292t328 -122z" />
    <glyph glyph-name="Dcroat" unicode="&#x110;" horiz-adv-x="1630" 
d="M276 1556h670q314 0 491 -161t177 -437q0 -202 -75.5 -380t-206 -304.5t-313.5 -200t-390 -73.5h-656l7 25l165 65l127 651h-141l14 72h142l127 655l-142 64zM317 82h285q172 0 322.5 65.5t257.5 179.5t169 274.5t62 342.5q0 247 -147 393t-408 146h-268l-131 -670h241
l-14 -72h-240z" />
    <glyph glyph-name="dcroat" unicode="&#x111;" horiz-adv-x="1040" 
d="M1065 1368h135l-14 -72h-133l-252 -1296h-150q-152 0 -267 36.5t-182.5 100t-100.5 143.5t-33 175q0 155 73 299.5t192.5 232.5t248.5 88q159 0 252 -139l69 360h-272l14 72h270l33 166l-127 27l4 24l265 53h28zM659 47l158 815q-36 57 -93.5 95t-129.5 38
q-95 0 -181.5 -75.5t-139 -199.5t-52.5 -259q0 -179 110 -292t328 -122z" />
    <glyph glyph-name="Emacron" unicode="&#x112;" horiz-adv-x="1161" 
d="M1118 1753h-555l17 94h555zM938 0h-965l4 25l166 65l269 1378l-142 64l6 24h945l10 -317h-29l-102 242h-510l-121 -613h346l94 174h37l-84 -426h-37l-24 175h-346l-138 -709h531l194 235h29z" />
    <glyph glyph-name="emacron" unicode="&#x113;" horiz-adv-x="1038" 
d="M961 1241h-555l16 94h555zM438 -23q-182 0 -281.5 115.5t-99.5 296.5q0 107 31.5 210t88 188t130 150.5t163.5 101.5t183 36q177 0 267.5 -118t50.5 -322l-10 -49h-734l-2 -21q-44 -224 38 -370t251 -146q117 0 229.5 80.5t204.5 230.5h39q-88 -171 -231.5 -277
t-317.5 -106zM248 653h569q31 159 -18.5 253.5t-169.5 94.5q-126 0 -232 -98.5t-149 -249.5z" />
    <glyph glyph-name="Edotaccent" unicode="&#x116;" horiz-adv-x="1161" 
d="M836 1700q-42 0 -67.5 25.5t-25.5 64.5q0 54 40.5 93.5t95.5 39.5q41 0 65.5 -26t24.5 -66q0 -54 -39.5 -92.5t-93.5 -38.5zM938 0h-965l4 25l166 65l269 1378l-142 64l6 24h945l10 -317h-29l-102 242h-510l-121 -613h346l94 174h37l-84 -426h-37l-24 175h-346l-138 -709
h531l194 235h29z" />
    <glyph glyph-name="edotaccent" unicode="&#x117;" horiz-adv-x="1038" 
d="M678 1188q-42 0 -67 25.5t-25 64.5q0 54 40 93.5t95 39.5q41 0 65.5 -26t24.5 -66q0 -54 -39.5 -92.5t-93.5 -38.5zM438 -23q-182 0 -281.5 115.5t-99.5 296.5q0 107 31.5 210t88 188t130 150.5t163.5 101.5t183 36q177 0 267.5 -118t50.5 -322l-10 -49h-734l-2 -21
q-44 -224 38 -370t251 -146q117 0 229.5 80.5t204.5 230.5h39q-88 -171 -231.5 -277t-317.5 -106zM248 653h569q31 159 -18.5 253.5t-169.5 94.5q-126 0 -232 -98.5t-149 -249.5z" />
    <glyph glyph-name="Eogonek" unicode="&#x118;" horiz-adv-x="1161" 
d="M276 1556h945l10 -317h-29l-102 242h-510l-121 -613h346l94 174h37l-84 -426h-37l-24 175h-346l-138 -709h531l194 235h29l-133 -317h-68q-62 -52 -113.5 -120.5t-51.5 -137.5q0 -43 22 -66.5t57 -23.5q59 0 119 57h27q-100 -119 -201 -119q-53 0 -86 32.5t-33 84.5
q0 135 219 293h-856l4 25l166 65l269 1378l-142 64z" />
    <glyph glyph-name="eogonek" unicode="&#x119;" horiz-adv-x="1038" 
d="M584 -2q-37 -31 -70 -66t-63.5 -89t-30.5 -101q0 -43 22.5 -66.5t57.5 -23.5q58 0 118 57h27q-100 -119 -201 -119q-53 0 -85.5 32.5t-32.5 84.5q0 126 198 279q-44 -9 -86 -9q-182 0 -281.5 115.5t-99.5 296.5q0 107 31.5 210t88 188t130 150.5t163.5 101.5t183 36
q177 0 267.5 -118t50.5 -322l-10 -49h-734l-2 -21q-44 -224 38 -370t251 -146q117 0 229.5 80.5t204.5 230.5h39q-68 -133 -172 -229t-231 -133zM629 1001q-126 0 -232 -98.5t-149 -249.5h569q31 159 -18.5 253.5t-169.5 94.5z" />
    <glyph glyph-name="Ecaron" unicode="&#x11a;" horiz-adv-x="1161" 
d="M813 1655q-36 0 -60.5 49.5t-82.5 220.5q-7 23 -12 36.5t-12.5 36t-14.5 42.5h31q133 -192 174 -268q38 40 83 84t105.5 100t89.5 84h31q-195 -268 -229 -309q-58 -70 -94 -75q-4 -1 -9 -1zM938 0h-965l4 25l166 65l269 1378l-142 64l6 24h945l10 -317h-29l-102 242h-510
l-121 -613h346l94 174h37l-84 -426h-37l-24 175h-346l-138 -709h531l194 235h29z" />
    <glyph glyph-name="ecaron" unicode="&#x11b;" horiz-adv-x="1038" 
d="M655 1143q-36 0 -60.5 49.5t-82.5 220.5q-7 23 -12 36.5t-12.5 36t-14.5 42.5h31q133 -192 174 -268q38 40 83 84t105.5 100t89.5 84h31q-195 -268 -229 -309q-58 -70 -94 -75q-4 -1 -9 -1zM438 -23q-182 0 -281.5 115.5t-99.5 296.5q0 107 31.5 210t88 188t130 150.5
t163.5 101.5t183 36q177 0 267.5 -118t50.5 -322l-10 -49h-734l-2 -21q-44 -224 38 -370t251 -146q117 0 229.5 80.5t204.5 230.5h39q-88 -171 -231.5 -277t-317.5 -106zM248 653h569q31 159 -18.5 253.5t-169.5 94.5q-126 0 -232 -98.5t-149 -249.5z" />
    <glyph glyph-name="Gbreve" unicode="&#x11e;" horiz-adv-x="1611" 
d="M1022 1659q-52 0 -94.5 21t-75 67t-40.5 119t9 178h29q-13 -75 -0.5 -136.5t61.5 -104t131 -42.5q62 0 115.5 24t90.5 65t62 90t36 104h28q-19 -100 -58 -177t-88.5 -121t-101.5 -65.5t-104 -21.5zM743 -23q-285 0 -458.5 167.5t-173.5 443.5q0 197 80.5 379t215 314.5
t319.5 212t386 79.5q103 0 193 -22.5t143.5 -54.5t83.5 -58t37 -41l-88 -455h-35q48 268 -45 411.5t-336 143.5q-218 0 -390.5 -112.5t-269 -315t-96.5 -459.5q0 -253 131.5 -405t362.5 -152q117 0 221 38.5t173.5 99t110 135t40.5 147.5q0 43 -18.5 77.5t-54.5 58.5t-77 41
t-99.5 28.5t-107.5 18t-114 12.5l8 34h651l-145 -743h-43l32 328q-108 -169 -271.5 -260t-365.5 -91z" />
    <glyph glyph-name="gbreve" unicode="&#x11f;" horiz-adv-x="1064" 
d="M633 1147q-52 0 -94.5 21t-75 67t-40.5 119t9 178h29q-13 -75 -0.5 -136.5t61.5 -104t131 -42.5t148 42.5t103 104.5t52 136h29q-19 -100 -58 -177t-88.5 -121t-101.5 -65.5t-104 -21.5zM193 -424l-189 250l39 27q51 -51 76 -74t64.5 -53.5t74.5 -42t74 -11.5
q119 0 205 73.5t116 234.5l2 18q-108 -23 -178 -23q-104 0 -184.5 35t-129 95.5t-73 137.5t-24.5 167q0 172 71.5 326t191 246.5t251.5 92.5q91 0 150 -43t104 -117l24 129h29l243 -53l-4 -24l-139 -27l-160 -829q-30 -154 -76 -254t-122.5 -164t-180.5 -90.5t-255 -26.5z
M524 25q70 0 140 20l153 791q-88 159 -221 159q-98 0 -184 -84t-137.5 -223.5t-51.5 -296.5q0 -77 16.5 -141.5t51.5 -116t94 -80t139 -28.5z" />
    <glyph glyph-name="Gdotaccent" unicode="&#x120;" horiz-adv-x="1611" 
d="M1044 1700q-42 0 -67 25.5t-25 64.5q0 54 40 93.5t95 39.5q41 0 66 -26t25 -66q0 -54 -40 -92.5t-94 -38.5zM743 -23q-285 0 -458.5 167.5t-173.5 443.5q0 197 80.5 379t215 314.5t319.5 212t386 79.5q103 0 193 -22.5t143.5 -54.5t83.5 -58t37 -41l-88 -455h-35
q48 268 -45 411.5t-336 143.5q-218 0 -390.5 -112.5t-269 -315t-96.5 -459.5q0 -253 131.5 -405t362.5 -152q117 0 221 38.5t173.5 99t110 135t40.5 147.5q0 43 -18.5 77.5t-54.5 58.5t-77 41t-99.5 28.5t-107.5 18t-114 12.5l8 34h651l-145 -743h-43l32 328
q-108 -169 -271.5 -260t-365.5 -91z" />
    <glyph glyph-name="gdotaccent" unicode="&#x121;" horiz-adv-x="1064" 
d="M655 1188q-42 0 -67 25.5t-25 64.5q0 54 40 93.5t95 39.5q41 0 65.5 -26t24.5 -66q0 -54 -39.5 -92.5t-93.5 -38.5zM193 -424l-189 250l39 27q51 -51 76 -74t64.5 -53.5t74.5 -42t74 -11.5q119 0 205 73.5t116 234.5l2 18q-108 -23 -178 -23q-104 0 -184.5 35t-129 95.5
t-73 137.5t-24.5 167q0 172 71.5 326t191 246.5t251.5 92.5q91 0 150 -43t104 -117l24 129h29l243 -53l-4 -24l-139 -27l-160 -829q-30 -154 -76 -254t-122.5 -164t-180.5 -90.5t-255 -26.5zM524 25q70 0 140 20l153 791q-88 159 -221 159q-98 0 -184 -84t-137.5 -223.5
t-51.5 -296.5q0 -77 16.5 -141.5t51.5 -116t94 -80t139 -28.5z" />
    <glyph glyph-name="uni0122" unicode="&#x122;" horiz-adv-x="1611" 
d="M743 -23q-285 0 -458.5 167.5t-173.5 443.5q0 197 80.5 379t215 314.5t319.5 212t386 79.5q103 0 193 -22.5t143.5 -54.5t83.5 -58t37 -41l-88 -455h-35q48 268 -45 411.5t-336 143.5q-218 0 -390.5 -112.5t-269 -315t-96.5 -459.5q0 -253 131.5 -405t362.5 -152
q117 0 221 38.5t173.5 99t110 135t40.5 147.5q0 43 -18.5 77.5t-54.5 58.5t-77 41t-99.5 28.5t-107.5 18t-114 12.5l8 34h651l-145 -743h-43l32 328q-108 -169 -271.5 -260t-365.5 -91zM717 -102q41 0 63.5 -26.5t22.5 -68.5q0 -65 -51 -143.5t-148 -159.5h-26
q122 122 122 195q0 22 -13.5 38.5t-29 26t-26.5 27.5t-6 43q7 31 33 49.5t59 18.5z" />
    <glyph glyph-name="uni0123" unicode="&#x123;" horiz-adv-x="1064" 
d="M659 1200q-48 0 -68.5 34.5t-12.5 88.5q3 50 50 121.5t144 152.5h27q-113 -113 -123 -182q-3 -27 9.5 -46t29 -28.5t28.5 -28t7 -44.5q-6 -31 -32 -49.5t-59 -18.5zM193 -424l-189 250l39 27q51 -51 76 -74t64.5 -53.5t74.5 -42t74 -11.5q119 0 205 73.5t116 234.5l2 18
q-108 -23 -178 -23q-104 0 -184.5 35t-129 95.5t-73 137.5t-24.5 167q0 172 71.5 326t191 246.5t251.5 92.5q91 0 150 -43t104 -117l24 129h29l243 -53l-4 -24l-139 -27l-160 -829q-30 -154 -76 -254t-122.5 -164t-180.5 -90.5t-255 -26.5zM524 25q70 0 140 20l153 791
q-88 159 -221 159q-98 0 -184 -84t-137.5 -223.5t-51.5 -296.5q0 -77 16.5 -141.5t51.5 -116t94 -80t139 -28.5z" />
    <glyph glyph-name="Hbar" unicode="&#x126;" horiz-adv-x="1564" 
d="M1690 1556l-7 -24l-165 -64l-48 -237h119l-18 -94h-119l-203 -1047l142 -65l-5 -25h-481l4 25l166 65l135 690h-757l-136 -690l142 -65l-4 -25h-482l4 25l166 65l203 1047h-117l19 94h117l47 237l-142 64l6 24h482l-6 -24l-166 -64l-45 -237h757l45 237l-141 64l6 24h482
zM469 858h758l53 279h-758z" />
    <glyph glyph-name="hbar" unicode="&#x127;" horiz-adv-x="1099" 
d="M766 1075q124 0 185.5 -74.5t31.5 -232.5l-137 -698l125 -45l-4 -25h-408l6 25l133 45l121 620q32 166 0.5 235.5t-131.5 69.5q-89 0 -185 -81t-147 -183l-129 -661l115 -45l-4 -25h-406l5 25l141 45l237 1226h-141l14 72h142l32 166l-126 27l4 24l264 53h28l-53 -270
h264l-14 -72h-264l-90 -458q25 38 57 73.5t81 75.5t115 64t138 24z" />
    <glyph glyph-name="Imacron" unicode="&#x12a;" horiz-adv-x="630" 
d="M842 1753h-555l16 94h555zM455 0h-482l4 25l166 65l269 1378l-142 64l6 24h482l-6 -24l-166 -64l-269 -1378l142 -65z" />
    <glyph glyph-name="imacron" unicode="&#x12b;" horiz-adv-x="497" 
d="M655 1241h-555l17 94h555zM356 0h-413l4 25l143 45l168 870l-129 27l6 24l262 53h29l-188 -974l124 -45z" />
    <glyph glyph-name="Iogonek" unicode="&#x12e;" horiz-adv-x="630" 
d="M270 1532l6 24h482l-6 -24l-166 -64l-269 -1378l142 -65l-4 -25h-193q-38 -31 -71 -66t-64 -89.5t-31 -102.5q0 -43 22.5 -66.5t57.5 -23.5q57 0 117 57h26q-100 -119 -200 -119q-51 0 -84 32.5t-33 84.5q0 135 219 293h-248l4 25l166 65l269 1378z" />
    <glyph glyph-name="iogonek" unicode="&#x12f;" horiz-adv-x="497" 
d="M430 1518q42 0 67 -24.5t25 -63.5q0 -57 -40.5 -99.5t-94.5 -42.5q-42 0 -68 25t-26 65q0 56 41 98t96 42zM135 991l262 53h29l-188 -974l124 -45l-6 -25h-176q-166 -143 -166 -258q0 -43 22.5 -66.5t57.5 -23.5q59 0 119 57h27q-100 -119 -201 -119q-53 0 -86 32.5
t-33 84.5q0 134 221 293h-198l4 25l143 45l168 870l-129 27z" />
    <glyph glyph-name="Idotaccent" unicode="&#x130;" horiz-adv-x="630" 
d="M559 1700q-42 0 -67 25.5t-25 64.5q0 54 40 93.5t95 39.5q41 0 65.5 -26t24.5 -66q0 -54 -39.5 -92.5t-93.5 -38.5zM455 0h-482l4 25l166 65l269 1378l-142 64l6 24h482l-6 -24l-166 -64l-269 -1378l142 -65z" />
    <glyph glyph-name="dotlessi" unicode="&#x131;" horiz-adv-x="497" 
d="M356 0h-413l4 25l143 45l168 870l-129 27l6 24l262 53h29l-188 -974l124 -45z" />
    <glyph glyph-name="uni0136" unicode="&#x136;" horiz-adv-x="1267" 
d="M455 0h-482l4 25l166 65l269 1378l-142 64l6 24h482l-6 -24l-166 -64l-135 -698l679 717l-141 45l6 24h400l-6 -24l-193 -47l-516 -549l403 -860l136 -51l-5 -25h-503l4 25l159 49l-346 702l-96 -104l-115 -582l142 -65zM535 -102q40 0 61.5 -26.5t21.5 -68.5
q0 -65 -50 -143.5t-146 -159.5h-27q123 126 123 195q0 22 -14 38.5t-29.5 26t-26.5 27.5t-6 43q7 32 33 50t60 18z" />
    <glyph glyph-name="uni0137" unicode="&#x137;" horiz-adv-x="1032" 
d="M346 0h-414l5 25l141 45l284 1464l-126 27l4 24l264 53h28l-243 -1245l573 582l-162 45l5 24h399l-4 -24l-182 -53l-320 -330l244 -576l119 -36l-5 -25h-432l4 25l140 32l-193 453l-203 -207l-45 -233l123 -45zM410 -102q41 0 63.5 -26.5t22.5 -68.5q0 -65 -51 -143.5
t-148 -159.5h-27q123 123 123 195q0 22 -14 38.5t-29.5 26t-26.5 27.5t-6 43q7 31 33.5 49.5t59.5 18.5z" />
    <glyph glyph-name="Lacute" unicode="&#x139;" horiz-adv-x="1103" 
d="M543 1659h-27q134 195 228.5 290t142.5 95q17 0 28 -8.5t11 -22.5q0 -75 -383 -354zM922 0h-949l4 25l166 65l269 1378l-142 64l6 24h482l-6 -24l-166 -64l-269 -1386h514l195 235h29z" />
    <glyph glyph-name="lacute" unicode="&#x13a;" horiz-adv-x="485" 
d="M457 1741h-27q134 195 228.5 290t142.5 95q17 0 28 -8.5t11 -22.5q0 -77 -383 -354zM346 0h-414l5 25l141 45l284 1464l-126 27l4 24l264 53h28l-305 -1568l123 -45z" />
    <glyph glyph-name="uni013B" unicode="&#x13b;" horiz-adv-x="1103" 
d="M922 0h-949l4 25l166 65l269 1378l-142 64l6 24h482l-6 -24l-166 -64l-269 -1386h514l195 235h29zM459 -102q40 0 62 -27t22 -68q0 -65 -50.5 -143.5t-146.5 -159.5h-27q123 126 123 195q0 22 -13.5 38.5t-29 26t-26.5 27.5t-6 43q7 32 32.5 50t59.5 18z" />
    <glyph glyph-name="uni013C" unicode="&#x13c;" horiz-adv-x="485" 
d="M346 0h-414l5 25l141 45l284 1464l-126 27l4 24l264 53h28l-305 -1568l123 -45zM94 -102q40 0 63 -27t23 -68q0 -65 -51 -143.5t-147 -159.5h-27q123 123 123 195q0 22 -14 38.5t-29.5 26t-26.5 27.5t-6 43q7 31 33 49.5t59 18.5z" />
    <glyph glyph-name="Lcaron" unicode="&#x13d;" horiz-adv-x="1120" 
d="M946 1151h-28q71 69 104 130t33 132q0 99 -39 150q9 47 40 70.5t72 23.5q35 0 56.5 -21t21.5 -61q0 -79 -79.5 -209.5t-180.5 -214.5zM922 0h-949l4 25l166 65l269 1378l-142 64l6 24h482l-6 -24l-166 -64l-269 -1386h514l195 235h29z" />
    <glyph glyph-name="lcaron" unicode="&#x13e;" horiz-adv-x="518" 
d="M346 0h-414l5 25l141 45l284 1464l-126 27l4 24l264 53h28l-305 -1568l123 -45zM567 1065h-28q70 70 103.5 130.5t33.5 129.5q0 101 -39 152q9 45 40.5 69.5t70.5 24.5q36 0 57.5 -22t21.5 -62q0 -77 -80 -207.5t-180 -214.5z" />
    <glyph glyph-name="Lslash" unicode="&#x141;" horiz-adv-x="1112" 
d="M840 82l194 235h29l-133 -317h-948l4 25l168 65l106 547l-147 -70l20 111l150 72l139 718l-141 64l4 24h481l-4 -24l-166 -64l-123 -626l315 151l-20 -112l-315 -152l-127 -647h514z" />
    <glyph glyph-name="lslash" unicode="&#x142;" horiz-adv-x="548" 
d="M586 987l-23 -113l-153 -73l-144 -731l123 -45l-4 -25h-414l4 25l142 45l127 653l-166 -78l20 111l168 80l135 698l-127 27l5 24l264 53h28l-141 -725z" />
    <glyph glyph-name="Nacute" unicode="&#x143;" horiz-adv-x="1409" 
d="M870 1659h-26q135 196 228 290.5t142 94.5q17 0 28 -8.5t11 -22.5q0 -75 -383 -354zM373 0h-400l4 25l166 65l269 1378l-142 64l6 24h256l543 -1173l213 1085l-141 64l4 24h399l-4 -24l-166 -64l-286 -1468h-60l-573 1239l-223 -1149l139 -65z" />
    <glyph glyph-name="nacute" unicode="&#x144;" horiz-adv-x="1110" 
d="M676 1147h-27q134 195 228.5 290t142.5 95q17 0 28 -8.5t11 -22.5q0 -77 -383 -354zM348 0h-405l4 25l143 45l168 870l-129 27l6 24l262 53h29l-39 -208q19 30 42 58.5t60.5 62.5t78 59t96 42t114.5 17q123 0 184 -74.5t31 -232.5l-135 -698l123 -45l-4 -25h-406l4 25
l134 45l118 620q60 305 -129 305q-100 0 -187 -75t-144 -185l-129 -665l116 -45z" />
    <glyph glyph-name="uni0145" unicode="&#x145;" horiz-adv-x="1409" 
d="M373 0h-400l4 25l166 65l269 1378l-142 64l6 24h256l543 -1173l213 1085l-141 64l4 24h399l-4 -24l-166 -64l-286 -1468h-60l-573 1239l-223 -1149l139 -65zM627 -102q40 0 62 -27t22 -68q0 -65 -50.5 -143.5t-146.5 -159.5h-27q123 126 123 195q0 22 -13.5 38.5t-29 26
t-26.5 27.5t-6 43q6 31 31.5 49.5t60.5 18.5z" />
    <glyph glyph-name="uni0146" unicode="&#x146;" horiz-adv-x="1110" 
d="M348 0h-405l4 25l143 45l168 870l-129 27l6 24l262 53h29l-39 -208q19 30 42 58.5t60.5 62.5t78 59t96 42t114.5 17q123 0 184 -74.5t31 -232.5l-135 -698l123 -45l-4 -25h-406l4 25l134 45l118 620q60 305 -129 305q-100 0 -187 -75t-144 -185l-129 -665l116 -45z
M438 -102q40 0 63 -27t23 -68q0 -65 -51 -143.5t-147 -159.5h-27q123 123 123 195q0 22 -14 38.5t-29.5 26t-26.5 27.5t-6 43q7 31 33 49.5t59 18.5z" />
    <glyph glyph-name="Ncaron" unicode="&#x147;" horiz-adv-x="1409" 
d="M891 1655q-36 0 -60.5 49.5t-82.5 220.5q-7 23 -12 36.5t-12.5 36t-14.5 42.5h30q133 -192 174 -268q37 40 83 84t106 99.5t90 84.5h31q-195 -268 -229 -309q-58 -70 -94 -75q-4 -1 -9 -1zM373 0h-400l4 25l166 65l269 1378l-142 64l6 24h256l543 -1173l213 1085l-141 64
l4 24h399l-4 -24l-166 -64l-286 -1468h-60l-573 1239l-223 -1149l139 -65z" />
    <glyph glyph-name="ncaron" unicode="&#x148;" horiz-adv-x="1110" 
d="M696 1143q-36 0 -60.5 49.5t-82.5 220.5q-7 23 -12 36.5t-12.5 36t-14.5 42.5h31q135 -194 176 -268q38 41 81 83t107.5 102.5t87.5 82.5h31q-195 -268 -229 -309q-58 -70 -94 -75q-4 -1 -9 -1zM348 0h-405l4 25l143 45l168 870l-129 27l6 24l262 53h29l-39 -208
q19 30 42 58.5t60.5 62.5t78 59t96 42t114.5 17q123 0 184 -74.5t31 -232.5l-135 -698l123 -45l-4 -25h-406l4 25l134 45l118 620q60 305 -129 305q-100 0 -187 -75t-144 -185l-129 -665l116 -45z" />
    <glyph glyph-name="Eng" unicode="&#x14a;" horiz-adv-x="1409" 
d="M657 -424q-89 0 -154.5 26.5t-102 64.5t-68.5 97l262 416h33q-6 -12 -38.5 -75t-41 -82.5t-27.5 -64.5t-25 -77t-6 -65q0 -77 45 -119.5t125 -42.5q69 0 118 35.5t87.5 122.5t65.5 235l20 107l-489 1085l-223 -1149l139 -65l-4 -25h-400l4 25l166 65l269 1378l-142 64
l6 24h256l543 -1173l213 1085l-141 64l4 24h399l-4 -24l-166 -64l-286 -1468q-14 -73 -33.5 -130.5t-53.5 -114.5t-80 -94.5t-115 -61t-155 -23.5z" />
    <glyph glyph-name="eng" unicode="&#x14b;" horiz-adv-x="1073" 
d="M461 -424l-139 221l36 27q50 -66 101.5 -110t87.5 -44q40 0 71.5 53t49.5 140l159 827q32 167 1 236t-130 69q-89 0 -183 -77.5t-148 -182.5l-129 -665l116 -45l-6 -25h-405l4 25l143 45l168 870l-129 27l6 24l262 53h29l-39 -208q19 30 42 58.5t60.5 62.5t78 59t96 42
t114.5 17q122 0 183.5 -74.5t31.5 -232.5l-145 -739q-35 -195 -105 -291q-52 -79 -128 -120.5t-154 -41.5z" />
    <glyph glyph-name="Omacron" unicode="&#x14c;" horiz-adv-x="1636" 
d="M1343 1753h-555l19 94h555zM686 -23q-252 0 -413.5 171.5t-161.5 445.5q0 126 35 250t96.5 231.5t148.5 200t187.5 158t217.5 102.5t236 37q257 0 425.5 -171.5t168.5 -440.5q0 -184 -80.5 -365t-210 -316t-302 -219t-347.5 -84zM760 53q180 0 331.5 124t239.5 337
t88 465q0 248 -124.5 383t-317.5 135q-182 0 -336 -119t-243 -322t-89 -442q0 -133 38.5 -242t102.5 -177t144 -105t166 -37z" />
    <glyph glyph-name="omacron" unicode="&#x14d;" horiz-adv-x="1124" 
d="M987 1241h-555l17 94h555zM459 -23q-104 0 -183.5 38t-125.5 102t-68.5 139.5t-22.5 159.5q0 167 83 318.5t227.5 246t310.5 94.5q85 0 153 -24t111.5 -63.5t73 -93.5t41.5 -111t12 -119q0 -125 -48.5 -249t-129.5 -220.5t-195.5 -157t-238.5 -60.5zM500 49
q102 0 197.5 88t153.5 229.5t58 290.5q0 151 -67.5 249t-196.5 98q-84 0 -164 -47.5t-139 -125.5t-95 -183t-36 -216q0 -162 77 -272.5t212 -110.5z" />
    <glyph glyph-name="Ohungarumlaut" unicode="&#x150;" horiz-adv-x="1636" 
d="M872 1659h-26q134 196 228 290.5t143 94.5q17 0 27.5 -8.5t10.5 -22.5q0 -75 -383 -354zM1143 1659h-27q133 195 228 290t143 95q17 0 28 -8.5t11 -22.5q0 -38 -101 -130.5t-282 -223.5zM686 -23q-252 0 -413.5 171.5t-161.5 445.5q0 126 35 250t96.5 231.5t148.5 200
t187.5 158t217.5 102.5t236 37q257 0 425.5 -171.5t168.5 -440.5q0 -184 -80.5 -365t-210 -316t-302 -219t-347.5 -84zM760 53q180 0 331.5 124t239.5 337t88 465q0 248 -124.5 383t-317.5 135q-182 0 -336 -119t-243 -322t-89 -442q0 -133 38.5 -242t102.5 -177t144 -105
t166 -37z" />
    <glyph glyph-name="ohungarumlaut" unicode="&#x151;" horiz-adv-x="1124" 
d="M514 1147h-27q134 195 228.5 290t142.5 95q17 0 28 -8.5t11 -22.5q0 -77 -383 -354zM784 1147h-26q133 195 228 290t142 95q17 0 28 -8.5t11 -22.5q0 -38 -101 -130.5t-282 -223.5zM459 -23q-104 0 -183.5 38t-125.5 102t-68.5 139.5t-22.5 159.5q0 167 83 318.5
t227.5 246t310.5 94.5q85 0 153 -24t111.5 -63.5t73 -93.5t41.5 -111t12 -119q0 -125 -48.5 -249t-129.5 -220.5t-195.5 -157t-238.5 -60.5zM500 49q102 0 197.5 88t153.5 229.5t58 290.5q0 151 -67.5 249t-196.5 98q-84 0 -164 -47.5t-139 -125.5t-95 -183t-36 -216
q0 -162 77 -272.5t212 -110.5z" />
    <glyph glyph-name="OE" unicode="&#x152;" horiz-adv-x="2060" 
d="M686 -23q-253 0 -414 172t-161 445q0 151 49 298t137 268.5t202.5 215t253 145.5t279.5 52q168 0 309 -80l13 63h766l8 -317h-29l-102 242h-486l-118 -613h321l94 174h37l-84 -426h-37l-24 175h-322l-137 -709h506l195 235h28l-133 -317h-786l14 76q-188 -99 -379 -99z
M760 53q95 0 184.5 40t142.5 100l213 1097q-37 96 -123.5 151.5t-199.5 55.5q-183 0 -337 -118.5t-242.5 -322.5t-88.5 -446q0 -132 37.5 -240t101 -176t143.5 -104.5t169 -36.5z" />
    <glyph glyph-name="oe" unicode="&#x153;" horiz-adv-x="1878" 
d="M459 -23q-84 0 -152.5 25t-113.5 67t-76 99t-44.5 118.5t-13.5 127.5q0 167 83 319.5t227.5 247t310.5 94.5q148 0 236 -73t122 -191q82 124 202.5 194t254.5 70q180 0 266.5 -117t48.5 -323l-8 -47h-731l-6 -23q-46 -222 37 -369t252 -147q118 0 230 80t206 231h39
q-87 -170 -232.5 -276.5t-316.5 -106.5q-142 0 -230.5 77.5t-123.5 201.5q-81 -124 -199 -201.5t-268 -77.5zM500 49q104 0 199 87t152.5 229t57.5 297q0 152 -68 247t-196 95q-110 0 -211 -78.5t-162 -209t-61 -274.5q0 -165 80.5 -279t208.5 -114zM1087 653h570
q31 159 -19 253.5t-170 94.5q-125 0 -231.5 -98.5t-149.5 -249.5z" />
    <glyph glyph-name="Racute" unicode="&#x154;" horiz-adv-x="1327" 
d="M827 1659h-26q134 195 228.5 290t141.5 95q17 0 28 -8.5t11 -22.5q0 -75 -383 -354zM455 0h-482l4 25l166 65l269 1378l-142 64l6 24h633q117 0 214.5 -33t162 -107t64.5 -179q0 -190 -157 -327t-400 -160l276 -660l178 -65l-4 -25h-522l4 25l160 55l-275 657h-166
l-127 -647l142 -65zM588 1479l-129 -664h254q201 0 331 119.5t130 300.5q0 244 -332 244h-254z" />
    <glyph glyph-name="racute" unicode="&#x155;" horiz-adv-x="784" 
d="M504 1147h-27q134 195 228.5 290t142.5 95q17 0 28 -8.5t11 -22.5q0 -77 -383 -354zM356 0h-413l4 25l143 45l168 870l-129 27l6 24l271 53h20l-51 -266h2q25 51 55.5 97.5t72 94.5t92.5 76.5t103 28.5q106 0 156 -129l-182 -325h-35q78 180 78 258q0 90 -72 90
q-53 0 -113.5 -59.5t-107 -139t-84.5 -172.5l-102 -528l124 -45z" />
    <glyph glyph-name="uni0156" unicode="&#x156;" horiz-adv-x="1327" 
d="M455 0h-482l4 25l166 65l269 1378l-142 64l6 24h633q117 0 214.5 -33t162 -107t64.5 -179q0 -190 -157 -327t-400 -160l276 -660l178 -65l-4 -25h-522l4 25l160 55l-275 657h-166l-127 -647l142 -65zM588 1479l-129 -664h254q201 0 331 119.5t130 300.5q0 244 -332 244
h-254zM563 -102q40 0 62 -27t22 -68q0 -65 -50 -143.5t-146 -159.5h-27q123 126 123 195q0 22 -14 38.5t-29.5 26t-26.5 27.5t-6 43q7 32 32.5 50t59.5 18z" />
    <glyph glyph-name="uni0157" unicode="&#x157;" horiz-adv-x="784" 
d="M356 0h-413l4 25l143 45l168 870l-129 27l6 24l271 53h20l-51 -266h2q25 51 55.5 97.5t72 94.5t92.5 76.5t103 28.5q106 0 156 -129l-182 -325h-35q78 180 78 258q0 90 -72 90q-53 0 -113.5 -59.5t-107 -139t-84.5 -172.5l-102 -528l124 -45zM111 -102q41 0 63.5 -26.5
t22.5 -68.5q0 -65 -50.5 -143.5t-146.5 -159.5h-27q123 126 123 195q0 22 -14 38.5t-29.5 26t-26.5 27.5t-6 43q6 31 32 49.5t59 18.5z" />
    <glyph glyph-name="Rcaron" unicode="&#x158;" horiz-adv-x="1327" 
d="M848 1655q-36 0 -60.5 49.5t-82.5 220.5q-7 23 -12 36.5t-12.5 36t-14.5 42.5h30q133 -192 174 -268q37 40 83 84t106 99.5t90 84.5h31q-195 -268 -229 -309q-58 -70 -94 -75q-4 -1 -9 -1zM455 0h-482l4 25l166 65l269 1378l-142 64l6 24h633q117 0 214.5 -33t162 -107
t64.5 -179q0 -190 -157 -327t-400 -160l276 -660l178 -65l-4 -25h-522l4 25l160 55l-275 657h-166l-127 -647l142 -65zM588 1479l-129 -664h254q201 0 331 119.5t130 300.5q0 244 -332 244h-254z" />
    <glyph glyph-name="rcaron" unicode="&#x159;" horiz-adv-x="784" 
d="M524 1143q-36 0 -60.5 49.5t-82.5 220.5q-7 23 -12 36.5t-12.5 36t-14.5 42.5h31q135 -194 176 -268q38 41 81 83t107.5 102.5t87.5 82.5h31q-195 -268 -229 -309q-58 -70 -94 -75q-4 -1 -9 -1zM356 0h-413l4 25l143 45l168 870l-129 27l6 24l271 53h20l-51 -266h2
q25 51 55.5 97.5t72 94.5t92.5 76.5t103 28.5q106 0 156 -129l-182 -325h-35q78 180 78 258q0 90 -72 90q-53 0 -113.5 -59.5t-107 -139t-84.5 -172.5l-102 -528l124 -45z" />
    <glyph glyph-name="Sacute" unicode="&#x15a;" horiz-adv-x="1214" 
d="M801 1659h-27q134 195 229 290t144 95q15 0 27 -9t12 -22q0 -76 -385 -354zM489 -23q-173 0 -292 67.5t-185 172.5l201 399h49q-80 -215 -80 -311q0 -73 30 -126.5t80 -82t104 -41t114 -12.5q214 0 350.5 108.5t136.5 276.5q0 38 -10.5 69t-36 56t-50 42.5t-72.5 36.5
t-82.5 30.5t-98.5 31.5l-74 25q-309 96 -309 342q0 137 68.5 253.5t196 187.5t286.5 71q144 0 252.5 -50.5t167.5 -115.5l-193 -336h-49q74 167 74 234q0 101 -80 151.5t-194 50.5q-171 0 -288.5 -91t-117.5 -224q0 -45 19.5 -82.5t46.5 -62t72.5 -47t80.5 -35t86 -27.5
l58 -16q44 -13 71.5 -22t71.5 -27t72.5 -36t61.5 -46.5t52.5 -60.5t33 -76t13.5 -95q0 -121 -49.5 -229t-134 -185.5t-202.5 -122.5t-251 -45z" />
    <glyph glyph-name="sacute" unicode="&#x15b;" horiz-adv-x="878" 
d="M541 1147h-27q134 195 228.5 290t142.5 95q17 0 28 -8.5t11 -22.5q0 -75 -383 -354zM332 -23q-125 0 -210.5 51t-119.5 124l141 258h45q-20 -39 -35.5 -95t-15.5 -98q0 -84 55.5 -127t157.5 -43q133 0 224.5 68t91.5 164q0 64 -66 103.5t-213 84.5q-231 73 -231 252
q0 153 111.5 254.5t277.5 101.5q108 0 183.5 -41.5t113.5 -103.5l-117 -232h-39q52 146 4.5 228t-172.5 82q-109 0 -186.5 -60.5t-77.5 -146.5q0 -59 55 -97t174 -77q9 -3 28 -9q47 -15 69.5 -23t59.5 -23.5t55.5 -30.5t39 -37.5t29 -51.5t8.5 -65q0 -177 -125 -293.5
t-315 -116.5z" />
    <glyph glyph-name="Scedilla" unicode="&#x15e;" horiz-adv-x="1214" 
d="M692 938l58 -16q44 -13 71.5 -22t71.5 -27t72.5 -36t61.5 -46.5t52.5 -60.5t33 -76t13.5 -95q0 -236 -169.5 -400.5t-424.5 -178.5l-73 -97q69 0 105 -31.5t36 -78.5q0 -66 -60 -128.5t-149 -62.5q-56 0 -110 35l4 23q47 -21 94 -21q66 0 104.5 31t38.5 80q0 39 -33 65.5
t-98 26.5l8 39l90 116q-173 0 -292 67.5t-185 172.5l201 399h49q-80 -215 -80 -311q0 -73 30 -126.5t80 -82t104 -41t114 -12.5q214 0 350.5 108.5t136.5 276.5q0 38 -10.5 69t-36 56t-50 42.5t-72.5 36.5t-82.5 30.5t-98.5 31.5l-74 25q-309 96 -309 342q0 137 68.5 253.5
t196 187.5t286.5 71q144 0 252.5 -50.5t167.5 -115.5l-193 -336h-49q74 167 74 234q0 101 -80 151.5t-194 50.5q-171 0 -288.5 -91t-117.5 -224q0 -45 19.5 -82.5t46.5 -62t72.5 -47t80.5 -35t86 -27.5z" />
    <glyph glyph-name="scedilla" unicode="&#x15f;" horiz-adv-x="878" 
d="M483 627q9 -3 28 -9q47 -15 69.5 -23t59.5 -23.5t55.5 -30.5t39 -37.5t29 -51.5t8.5 -65q0 -167 -113 -281t-288 -126l-74 -97q69 0 105 -31.5t36 -78.5q0 -66 -60 -128.5t-149 -62.5q-56 0 -110 35l4 23q47 -21 94 -21q66 0 104.5 31t38.5 80q0 39 -33 65.5t-98 26.5
l9 39l90 116q-124 1 -208 51.5t-118 123.5l141 258h45q-20 -39 -35.5 -95t-15.5 -98q0 -84 55.5 -127t157.5 -43q133 0 224.5 68t91.5 164q0 64 -66 103.5t-213 84.5q-231 73 -231 252q0 153 111.5 254.5t277.5 101.5q108 0 183.5 -41.5t113.5 -103.5l-117 -232h-39
q52 146 4.5 228t-172.5 82q-109 0 -186.5 -60.5t-77.5 -146.5q0 -59 55 -97t174 -77z" />
    <glyph glyph-name="Scaron" unicode="&#x160;" horiz-adv-x="1214" 
d="M823 1655q-37 0 -62.5 52t-88.5 241q-20 59 -31 92h31q142 -211 174 -268q30 32 68.5 70t63.5 61.5t77 72t69 64.5h31q-29 -40 -79 -109q-144 -197 -182 -236q-39 -40 -71 -40zM489 -23q-173 0 -292 67.5t-185 172.5l201 399h49q-80 -215 -80 -311q0 -73 30 -126.5
t80 -82t104 -41t114 -12.5q214 0 350.5 108.5t136.5 276.5q0 38 -10.5 69t-36 56t-50 42.5t-72.5 36.5t-82.5 30.5t-98.5 31.5l-74 25q-309 96 -309 342q0 137 68.5 253.5t196 187.5t286.5 71q144 0 252.5 -50.5t167.5 -115.5l-193 -336h-49q74 167 74 234q0 101 -80 151.5
t-194 50.5q-171 0 -288.5 -91t-117.5 -224q0 -45 19.5 -82.5t46.5 -62t72.5 -47t80.5 -35t86 -27.5l58 -16q44 -13 71.5 -22t71.5 -27t72.5 -36t61.5 -46.5t52.5 -60.5t33 -76t13.5 -95q0 -121 -49.5 -229t-134 -185.5t-202.5 -122.5t-251 -45z" />
    <glyph glyph-name="scaron" unicode="&#x161;" horiz-adv-x="878" 
d="M561 1143q-36 0 -60.5 49.5t-82.5 220.5q-7 23 -12 36.5t-12.5 36t-14.5 42.5h31q133 -192 174 -268q38 40 83 84t105.5 100t89.5 84h31q-195 -268 -229 -309q-58 -70 -94 -75q-4 -1 -9 -1zM332 -23q-125 0 -210.5 51t-119.5 124l141 258h45q-20 -39 -35.5 -95t-15.5 -98
q0 -84 55.5 -127t157.5 -43q133 0 224.5 68t91.5 164q0 64 -66 103.5t-213 84.5q-231 73 -231 252q0 153 111.5 254.5t277.5 101.5q108 0 183.5 -41.5t113.5 -103.5l-117 -232h-39q52 146 4.5 228t-172.5 82q-109 0 -186.5 -60.5t-77.5 -146.5q0 -59 55 -97t174 -77
q9 -3 28 -9q47 -15 69.5 -23t59.5 -23.5t55.5 -30.5t39 -37.5t29 -51.5t8.5 -65q0 -177 -125 -293.5t-315 -116.5z" />
    <glyph glyph-name="uni0162" unicode="&#x162;" horiz-adv-x="1341" 
d="M283 1556h1177l10 -317h-32l-95 242h-399l-272 -1391l141 -65l-4 -25h-197l-90 -117q69 0 105.5 -31.5t36.5 -78.5q0 -66 -60 -128.5t-149 -62.5q-57 0 -111 35l4 23q46 -21 94 -21q66 0 105 31.5t39 79.5q0 39 -33 65.5t-98 26.5l8 39l106 139h-241l4 25l166 65
l272 1391h-399l-189 -242h-32z" />
    <glyph glyph-name="uni0163" unicode="&#x163;" horiz-adv-x="643" 
d="M657 973h-254l-135 -703q-44 -223 88 -223q98 0 179 133h45q-56 -98 -137.5 -150.5t-168.5 -52.5h-12l-74 -94q69 0 105.5 -31.5t36.5 -78.5q0 -66 -60 -128.5t-149 -62.5q-57 0 -111 35l4 23q46 -21 95 -21q66 0 104.5 31t38.5 80q0 39 -33 65.5t-98 26.5l8 39l94 123
q-151 35 -102 292l135 697h-156l9 37l180 34l145 349h51l-67 -349h254z" />
    <glyph glyph-name="Tcaron" unicode="&#x164;" horiz-adv-x="1341" 
d="M891 1655q-36 0 -60.5 49.5t-82.5 220.5q-7 23 -12 36.5t-12.5 36t-14.5 42.5h30q133 -192 174 -268q37 40 83 84t106 99.5t90 84.5h31q-195 -268 -229 -309q-58 -70 -94 -75q-4 -1 -9 -1zM809 0h-481l4 25l166 65l272 1391h-399l-189 -242h-32l133 317h1177l10 -317h-32
l-95 242h-399l-272 -1391l141 -65z" />
    <glyph glyph-name="tcaron" unicode="&#x165;" horiz-adv-x="647" 
d="M731 1065h-29q71 70 105.5 130.5t34.5 129.5q0 97 -39 152q7 45 38.5 69.5t71.5 24.5q36 0 58 -22t22 -62q0 -77 -80 -207.5t-182 -214.5zM274 -23q-210 0 -153 299l135 697h-156l9 37l180 34l145 349h51l-67 -349h254l-15 -71h-254l-135 -703q-44 -223 88 -223
q98 0 179 133h45q-56 -98 -137.5 -150.5t-168.5 -52.5z" />
    <glyph glyph-name="Tbar" unicode="&#x166;" horiz-adv-x="1343" 
d="M283 1556h1177l10 -317h-32l-95 242h-399l-131 -668h193l-15 -72h-192l-127 -651l141 -65l-4 -25h-481l4 25l166 65l127 651h-189l15 72h188l131 668h-399l-189 -242h-32z" />
    <glyph glyph-name="tbar" unicode="&#x167;" horiz-adv-x="651" 
d="M674 1044l-15 -71h-253l-80 -416h290l-14 -72h-291l-41 -215q-44 -223 88 -223q98 0 179 133h45q-56 -98 -137.5 -150.5t-168.5 -52.5q-210 0 -153 299l41 209h-117l14 72h117l80 416h-156l9 37l180 34l145 349h51l-67 -349h254z" />
    <glyph glyph-name="Umacron" unicode="&#x16a;" horiz-adv-x="1468" 
d="M1286 1753h-555l19 94h555zM637 -23q-92 0 -164.5 17t-122 46.5t-83 73.5t-50.5 94.5t-21 114t1.5 127.5t19.5 138l172 880l-141 64l4 24h481l-4 -24l-166 -64l-160 -823q-58 -295 4.5 -439.5t260.5 -144.5q224 0 346 123.5t176 403.5l172 880l-141 64l4 24h399l-4 -24
l-166 -64l-172 -880q-28 -145 -75 -253t-122.5 -190.5t-187.5 -125t-260 -42.5z" />
    <glyph glyph-name="umacron" unicode="&#x16b;" horiz-adv-x="1058" 
d="M932 1241h-555l18 94h555zM315 -27q-258 0 -194 328l123 639l-127 27l4 24l264 53h29l-140 -712q-22 -105 -11.5 -167t39 -87t79.5 -25q94 0 170.5 64t146.5 182l125 641l-129 27l6 24l263 53h28l-182 -940l127 -26l-4 -25l-262 -53h-29l37 199q-63 -99 -154.5 -162.5
t-208.5 -63.5z" />
    <glyph glyph-name="Uring" unicode="&#x16e;" horiz-adv-x="1468" 
d="M989 1688q-63 0 -103 43t-40 106q0 79 65.5 140t145.5 61q62 0 102.5 -43t40.5 -105q0 -78 -66 -140t-145 -62zM1001 1749q52 0 95 40.5t43 90.5q0 42 -26 70t-66 28q-54 0 -97 -39.5t-43 -91.5q0 -42 26 -70t68 -28zM637 -23q-92 0 -164.5 17t-122 46.5t-83 73.5
t-50.5 94.5t-21 114t1.5 127.5t19.5 138l172 880l-141 64l4 24h481l-4 -24l-166 -64l-160 -823q-58 -295 4.5 -439.5t260.5 -144.5q224 0 346 123.5t176 403.5l172 880l-141 64l4 24h399l-4 -24l-166 -64l-172 -880q-28 -145 -75 -253t-122.5 -190.5t-187.5 -125t-260 -42.5
z" />
    <glyph glyph-name="uring" unicode="&#x16f;" horiz-adv-x="1058" 
d="M635 1176q-63 0 -103 43t-40 106q0 79 65 140t145 61q62 0 103 -43t41 -105q0 -78 -66 -140t-145 -62zM647 1237q52 0 95.5 40.5t43.5 90.5q0 41 -27 69.5t-67 28.5q-54 0 -96.5 -39.5t-42.5 -91.5q0 -42 26 -70t68 -28zM315 -27q-258 0 -194 328l123 639l-127 27l4 24
l264 53h29l-140 -712q-22 -105 -11.5 -167t39 -87t79.5 -25q94 0 170.5 64t146.5 182l125 641l-129 27l6 24l263 53h28l-182 -940l127 -26l-4 -25l-262 -53h-29l37 199q-63 -99 -154.5 -162.5t-208.5 -63.5z" />
    <glyph glyph-name="Uhungarumlaut" unicode="&#x170;" horiz-adv-x="1468" 
d="M813 1659h-27q134 195 229 290t144 95q15 0 27 -9t12 -22q0 -76 -385 -354zM1083 1659h-26q135 196 230 290.5t143 94.5q17 0 27.5 -8.5t10.5 -22.5q0 -76 -385 -354zM637 -23q-92 0 -164.5 17t-122 46.5t-83 73.5t-50.5 94.5t-21 114t1.5 127.5t19.5 138l172 880
l-141 64l4 24h481l-4 -24l-166 -64l-160 -823q-58 -295 4.5 -439.5t260.5 -144.5q224 0 346 123.5t176 403.5l172 880l-141 64l4 24h399l-4 -24l-166 -64l-172 -880q-28 -145 -75 -253t-122.5 -190.5t-187.5 -125t-260 -42.5z" />
    <glyph glyph-name="uhungarumlaut" unicode="&#x171;" horiz-adv-x="1058" 
d="M461 1147h-27q132 195 227 290t144 95q15 0 27 -9t12 -22q0 -75 -383 -354zM731 1147h-26q133 196 227.5 290.5t142.5 94.5q17 0 28 -8.5t11 -22.5q0 -38 -101 -130.5t-282 -223.5zM315 -27q-258 0 -194 328l123 639l-127 27l4 24l264 53h29l-140 -712
q-22 -105 -11.5 -167t39 -87t79.5 -25q94 0 170.5 64t146.5 182l125 641l-129 27l6 24l263 53h28l-182 -940l127 -26l-4 -25l-262 -53h-29l37 199q-63 -99 -154.5 -162.5t-208.5 -63.5z" />
    <glyph glyph-name="Uogonek" unicode="&#x172;" horiz-adv-x="1468" 
d="M1221 1532l4 24h399l-4 -24l-166 -64l-172 -880q-27 -135 -69 -237.5t-108.5 -183.5t-164 -127.5t-225.5 -57.5q-144 -134 -144 -240q0 -43 22.5 -66.5t57.5 -23.5q59 0 119 57h27q-100 -119 -201 -119q-53 0 -86 32.5t-33 84.5q0 123 191 270h-31q-92 0 -164.5 17
t-122 46.5t-83 73.5t-50.5 94.5t-21 114t1.5 127.5t19.5 138l172 880l-141 64l4 24h481l-4 -24l-166 -64l-160 -823q-58 -295 4.5 -439.5t260.5 -144.5q224 0 346 123.5t176 403.5l172 880z" />
    <glyph glyph-name="uogonek" unicode="&#x173;" horiz-adv-x="1058" 
d="M963 1044h28l-182 -940l127 -26l-4 -25l-258 -53q-168 -140 -168 -258q0 -43 22.5 -66.5t57.5 -23.5q56 0 116 57h27q-100 -119 -201 -119q-51 0 -83.5 32.5t-32.5 84.5q0 138 231 301l35 191q-63 -99 -154.5 -162.5t-208.5 -63.5q-258 0 -194 328l123 639l-127 27l4 24
l264 53h29l-140 -712q-22 -105 -11.5 -167t39 -87t79.5 -25q94 0 170.5 64t146.5 182l125 641l-129 27l6 24z" />
    <glyph glyph-name="Wcircumflex" unicode="&#x174;" horiz-adv-x="2127" 
d="M1106 1618h-31q198 270 222 300q61 75 96 83q7 2 14 2q37 0 62.5 -52t88.5 -241q20 -59 31 -92h-30q-134 194 -175 268q-67 -70 -278 -268zM545 0h-64l-196 1458l-148 74l6 24h490l-6 -24l-142 -64l150 -1157l622 1245h119l185 -1245l573 1157l-172 64l4 24h399l-4 -24
l-157 -64l-734 -1468h-65l-193 1325z" />
    <glyph glyph-name="wcircumflex" unicode="&#x175;" horiz-adv-x="1599" 
d="M727 1106h-31q196 268 229 307q59 71 95 77q5 1 10 1q36 0 60.5 -50t82.5 -224q23 -70 37 -111h-30q-135 201 -172 268q-38 -40 -80 -80.5t-113 -106t-88 -81.5zM438 0h-102l-115 967l-145 53l6 24h457l-7 -24l-149 -47l88 -778l403 849h134l90 -849l370 782l-151 43
l6 24h399l-6 -24l-184 -45l-469 -975h-102l-97 899z" />
    <glyph glyph-name="Ycircumflex" unicode="&#x176;" horiz-adv-x="1302" 
d="M664 1618h-31q196 268 229 307q59 71 95 77q5 1 10 1q36 0 60.5 -50t82.5 -224q23 -70 37 -111h-31q-135 201 -172 268q-29 -31 -67.5 -68.5t-65.5 -63t-76.5 -71t-70.5 -65.5zM795 0h-482l6 25l166 65l95 485l-295 902l-138 55l5 24h489l-4 -24l-158 -49l264 -821
l562 817l-179 53l4 24h408l-4 -24l-162 -57l-616 -887l-97 -498l142 -65z" />
    <glyph glyph-name="ycircumflex" unicode="&#x177;" horiz-adv-x="1095" 
d="M455 1106h-31q29 40 79 109q144 197 182 236q39 40 71 40q37 0 62.5 -52t88.5 -241q20 -59 31 -92h-31q-15 22 -47 69t-48.5 71.5t-39 61t-39.5 66.5q-67 -70 -278 -268zM12 -424l-164 223l39 27q122 -133 207 -133q79 0 171.5 101t137.5 214l-186 965l-139 47l4 24h457
l-4 -24l-162 -47l153 -805l441 809l-150 43l4 24h400l-4 -24l-183 -47l-483 -871q-53 -95 -98.5 -167t-100.5 -143t-106.5 -116t-111.5 -72.5t-122 -27.5z" />
    <glyph glyph-name="Ydieresis" unicode="&#x178;" horiz-adv-x="1302" 
d="M713 1706q-38 0 -61 22t-23 58q0 50 37 87.5t86 37.5q39 0 62.5 -22.5t23.5 -57.5q0 -51 -36.5 -88t-88.5 -37zM1028 1706q-38 0 -61 22t-23 58q0 50 37 87.5t86 37.5q40 0 63 -22.5t23 -57.5q0 -51 -36.5 -88t-88.5 -37zM795 0h-482l6 25l166 65l95 485l-295 902
l-138 55l5 24h489l-4 -24l-158 -49l264 -821l562 817l-179 53l4 24h408l-4 -24l-162 -57l-616 -887l-97 -498l142 -65z" />
    <glyph glyph-name="Zacute" unicode="&#x179;" horiz-adv-x="1079" 
d="M737 1659h-26q134 195 228.5 290t141.5 95q17 0 28 -8.5t11 -22.5q0 -77 -383 -354zM870 0h-913l-2 41l1018 1440h-539l-198 -252h-29l135 327h836l2 -34l-1008 -1440h608l195 235h29z" />
    <glyph glyph-name="zacute" unicode="&#x17a;" horiz-adv-x="876" 
d="M545 1147h-27q134 196 228 290.5t143 94.5q17 0 28 -8.5t11 -22.5q0 -75 -383 -354zM659 0h-694l-6 29l721 946h-326l-196 -258h-37l135 327h625l4 -28l-717 -946h391l197 247h37z" />
    <glyph glyph-name="Zdotaccent" unicode="&#x17b;" horiz-adv-x="1079" 
d="M780 1700q-42 0 -67 25.5t-25 64.5q0 54 40 93.5t95 39.5q41 0 65.5 -26t24.5 -66q0 -54 -39.5 -92.5t-93.5 -38.5zM870 0h-913l-2 41l1018 1440h-539l-198 -252h-29l135 327h836l2 -34l-1008 -1440h608l195 235h29z" />
    <glyph glyph-name="zdotaccent" unicode="&#x17c;" horiz-adv-x="876" 
d="M588 1188q-42 0 -67 25.5t-25 64.5q0 54 40 93.5t95 39.5q41 0 65.5 -26t24.5 -66q0 -54 -39.5 -92.5t-93.5 -38.5zM659 0h-694l-6 29l721 946h-326l-196 -258h-37l135 327h625l4 -28l-717 -946h391l197 247h37z" />
    <glyph glyph-name="Zcaron" unicode="&#x17d;" horiz-adv-x="1079" 
d="M758 1655q-36 0 -61 50.5t-86 228.5q-7 21 -11 33.5t-11.5 33.5t-13.5 39h31q135 -194 176 -268q38 40 82 83t106.5 101.5t88.5 83.5h31q-195 -268 -229 -309q-58 -70 -94 -75q-4 -1 -9 -1zM870 0h-913l-2 41l1018 1440h-539l-198 -252h-29l135 327h836l2 -34
l-1008 -1440h608l195 235h29z" />
    <glyph glyph-name="zcaron" unicode="&#x17e;" horiz-adv-x="876" 
d="M565 1143q-36 0 -60.5 49.5t-82.5 220.5q-7 23 -12 36.5t-12.5 36t-14.5 42.5h31q133 -192 174 -268q38 40 83 84t105.5 100t89.5 84h31q-195 -268 -229 -309q-58 -70 -94 -75q-4 -1 -9 -1zM659 0h-694l-6 29l721 946h-326l-196 -258h-37l135 327h625l4 -28l-717 -946
h391l197 247h37z" />
    <glyph glyph-name="uni018F" unicode="&#x18f;" horiz-adv-x="1587" 
d="M915 1573q305 0 479.5 -173t174.5 -470q0 -184 -73 -358.5t-194.5 -305t-291 -210t-351.5 -79.5q-251 0 -409 159.5t-158 414.5q0 121 39 246h1221q10 95 10 172q0 268 -123 403t-340 135q-101 0 -192.5 -34t-169.5 -101.5t-136 -177.5t-86 -252h-43l88 455q23 24 71 52
t118 57t167.5 48t198.5 19zM717 53q119 0 224 52t182.5 143.5t132 211.5t81.5 259h-1034q-14 -85 -14 -158q0 -234 123.5 -371t304.5 -137z" />
    <glyph glyph-name="florin" unicode="&#x192;" horiz-adv-x="989" 
d="M123 -25q-63 0 -102.5 25t-47.5 66l80 274h45q-18 -70 -26.5 -123t-7 -99t21 -70.5t57.5 -24.5q34 0 63.5 17t54 46.5t48 81t42.5 108.5t40 142.5t39 169t41 200.5h-235l16 91h235l19 100q57 299 154.5 446.5t250.5 147.5q169 0 193 -150l-80 -276h-45q19 85 26.5 148
t2.5 117t-32 82t-75 28q-91 0 -147.5 -135.5t-126.5 -507.5h266l-16 -91h-267l-22 -106q-25 -126 -54 -228t-70 -193.5t-89.5 -153t-112.5 -97t-139 -35.5z" />
    <glyph glyph-name="uni0218" unicode="&#x218;" horiz-adv-x="1214" 
d="M489 -23q-173 0 -292 67.5t-185 172.5l201 399h49q-80 -215 -80 -311q0 -73 30 -126.5t80 -82t104 -41t114 -12.5q214 0 350.5 108.5t136.5 276.5q0 38 -10.5 69t-36 56t-50 42.5t-72.5 36.5t-82.5 30.5t-98.5 31.5l-74 25q-309 96 -309 342q0 137 68.5 253.5t196 187.5
t286.5 71q144 0 252.5 -50.5t167.5 -115.5l-193 -336h-49q74 167 74 234q0 101 -80 151.5t-194 50.5q-171 0 -288.5 -91t-117.5 -224q0 -45 19.5 -82.5t46.5 -62t72.5 -47t80.5 -35t86 -27.5l58 -16q44 -13 71.5 -22t71.5 -27t72.5 -36t61.5 -46.5t52.5 -60.5t33 -76
t13.5 -95q0 -121 -49.5 -229t-134 -185.5t-202.5 -122.5t-251 -45zM455 -102q41 0 63.5 -26.5t22.5 -68.5q0 -65 -51 -143.5t-148 -159.5h-27q123 123 123 195q0 22 -14 38.5t-29.5 26t-26.5 27.5t-6 43q7 31 33.5 49.5t59.5 18.5z" />
    <glyph glyph-name="uni0219" unicode="&#x219;" horiz-adv-x="878" 
d="M332 -23q-125 0 -210.5 51t-119.5 124l141 258h45q-20 -39 -35.5 -95t-15.5 -98q0 -84 55.5 -127t157.5 -43q133 0 224.5 68t91.5 164q0 64 -66 103.5t-213 84.5q-231 73 -231 252q0 153 111.5 254.5t277.5 101.5q108 0 183.5 -41.5t113.5 -103.5l-117 -232h-39
q52 146 4.5 228t-172.5 82q-109 0 -186.5 -60.5t-77.5 -146.5q0 -59 55 -97t174 -77q9 -3 28 -9q47 -15 69.5 -23t59.5 -23.5t55.5 -30.5t39 -37.5t29 -51.5t8.5 -65q0 -177 -125 -293.5t-315 -116.5zM293 -102q41 0 63.5 -26.5t22.5 -68.5q0 -65 -51 -143.5t-148 -159.5
h-26q122 122 122 195q0 22 -13.5 38.5t-29 26t-26.5 27.5t-6 43q7 31 33 49.5t59 18.5z" />
    <glyph glyph-name="uni021A" unicode="&#x21a;" horiz-adv-x="1341" 
d="M809 0h-481l4 25l166 65l272 1391h-399l-189 -242h-32l133 317h1177l10 -317h-32l-95 242h-399l-272 -1391l141 -65zM518 -102q41 0 63.5 -26.5t22.5 -68.5q0 -65 -50 -143.5t-146 -159.5h-27q123 126 123 195q0 22 -14 38.5t-29.5 26t-26.5 27.5t-6 43q6 31 31.5 49.5
t58.5 18.5z" />
    <glyph glyph-name="uni021B" unicode="&#x21b;" horiz-adv-x="643" 
d="M274 -23q-210 0 -153 299l135 697h-156l9 37l180 34l145 349h51l-67 -349h254l-15 -71h-254l-135 -703q-44 -223 88 -223q98 0 179 133h45q-56 -98 -137.5 -150.5t-168.5 -52.5zM184 -102q41 0 63.5 -26.5t22.5 -68.5q0 -65 -50 -143.5t-146 -159.5h-27q123 126 123 195
q0 22 -14 38.5t-29.5 26t-26.5 27.5t-6 43q6 31 31.5 49.5t58.5 18.5z" />
    <glyph glyph-name="uni0259" unicode="&#x259;" horiz-adv-x="1046" 
d="M604 1055q182 0 281.5 -115.5t99.5 -296.5q0 -107 -31.5 -210t-88 -188t-130 -150.5t-163.5 -101.5t-183 -36q-176 0 -266 118t-51 322l10 49h733l4 21q28 147 0.5 265.5t-103.5 184.5t-186 66q-119 0 -231.5 -80t-204.5 -231h-39q88 171 231.5 277t317.5 106zM795 379
h-570q-30 -159 20 -253.5t171 -94.5q125 0 231 98.5t148 249.5z" />
    <glyph glyph-name="uni02BC" unicode="&#x2bc;" horiz-adv-x="352" 
d="M213 1065h-29q71 69 104.5 130t33.5 130q0 101 -39 152q9 45 40 69.5t72 24.5q35 0 56.5 -22t21.5 -62q0 -78 -79.5 -208.5t-180.5 -213.5z" />
    <glyph glyph-name="circumflex" unicode="&#x2c6;" horiz-adv-x="653" 
d="M281 1106h-31q196 268 229 307q59 71 95 77q5 1 10 1q36 0 60.5 -50t82.5 -224q7 -23 11.5 -36t12 -34.5t13.5 -40.5h-31q-135 201 -172 268q-29 -31 -67.5 -68.5t-65.5 -63t-76.5 -71t-70.5 -65.5z" />
    <glyph glyph-name="caron" unicode="&#x2c7;" horiz-adv-x="653" 
d="M446 1143q-36 0 -60.5 49.5t-82.5 220.5q-7 23 -12 36.5t-12.5 36t-14.5 42.5h31q133 -192 174 -268q37 40 83 84t106 99.5t90 84.5h30q-195 -268 -229 -309q-58 -70 -94 -75q-4 -1 -9 -1z" />
    <glyph glyph-name="breve" unicode="&#x2d8;" horiz-adv-x="749" 
d="M557 1147q-52 0 -95 21t-76 67t-41.5 119t9.5 178h29q-12 -53 -4.5 -104t28 -90.5t65 -64t106.5 -24.5q119 0 198 83t105 200h26q-19 -100 -58 -177t-88 -121t-100.5 -65.5t-103.5 -21.5z" />
    <glyph glyph-name="dotaccent" unicode="&#x2d9;" horiz-adv-x="432" 
d="M406 1188q-42 0 -67.5 25.5t-25.5 64.5q0 54 40.5 93.5t95.5 39.5q41 0 65.5 -26t24.5 -66q0 -54 -39 -92.5t-94 -38.5z" />
    <glyph glyph-name="ring" unicode="&#x2da;" horiz-adv-x="534" 
d="M395 1176q-63 0 -104 43t-41 106q0 79 65.5 140t147.5 61q61 0 102 -43t41 -105q0 -78 -66.5 -140t-144.5 -62zM406 1237q52 0 95.5 40.5t43.5 90.5q0 41 -27 69.5t-67 28.5q-54 0 -97 -39.5t-43 -91.5q0 -42 27 -70t68 -28z" />
    <glyph glyph-name="ogonek" unicode="&#x2db;" horiz-adv-x="464" 
d="M-14 -424q-53 0 -86 32t-33 85q0 42 22 86.5t58 82.5t67 65t65 52.5t36 26.5h39q-193 -157 -193 -280q0 -41 22.5 -64.5t57.5 -23.5q59 0 119 57h26q-98 -119 -200 -119z" />
    <glyph glyph-name="tilde" unicode="&#x2dc;" horiz-adv-x="745" 
d="M326 1184h-29q29 96 84 149t125 53q30 0 55.5 -10.5t43 -26t34.5 -31t37.5 -26t44.5 -10.5q87 0 141 117h29q-28 -95 -83.5 -149t-127.5 -54q-37 0 -67.5 16t-48.5 36t-43.5 36t-53.5 16q-87 0 -141 -116z" />
    <glyph glyph-name="hungarumlaut" unicode="&#x2dd;" horiz-adv-x="747" 
d="M305 1147h-26q134 196 228.5 290.5t143.5 94.5q15 0 27 -9t12 -22q0 -76 -385 -354zM575 1147h-26q135 196 230 290.5t143 94.5q17 0 28 -8.5t11 -22.5q0 -75 -386 -354z" />
    <glyph glyph-name="gravecomb" unicode="&#x300;" 
d="M-47 1147h-27q-323 268 -323 346q0 39 43 39q93 0 307 -385z" />
    <glyph glyph-name="acutecomb" unicode="&#x301;" 
d="M-289 1147h-26q134 195 228.5 290t141.5 95q17 0 28 -8.5t11 -22.5q0 -75 -383 -354z" />
    <glyph glyph-name="uni0302" unicode="&#x302;" 
d="M-432 1106h-31q196 268 229 307q59 71 95 77q5 1 10 1q36 0 60.5 -50t82.5 -224q23 -70 37 -111h-31q-138 205 -174 268q-67 -70 -278 -268z" />
    <glyph glyph-name="tildecomb" unicode="&#x303;" 
d="M-483 1184h-29q28 95 83 148.5t126 53.5q30 0 55.5 -10.5t43 -26t34.5 -31t37.5 -26t44.5 -10.5q84 0 141 117h29q-28 -95 -83.5 -149t-127.5 -54q-37 0 -68 16t-49 36t-44 36t-54 16q-85 0 -139 -116z" />
    <glyph glyph-name="uni0304" unicode="&#x304;" 
d="M16 1241h-555l19 94h555z" />
    <glyph glyph-name="uni0306" unicode="&#x306;" 
d="M-254 1147q-52 0 -95 21t-76 67t-41.5 119t9.5 178h29q-12 -53 -4.5 -104t28 -90.5t65 -64t106.5 -24.5q119 0 198 83t105 200h26q-19 -100 -58 -177t-88 -121t-100.5 -65.5t-103.5 -21.5z" />
    <glyph glyph-name="uni0307" unicode="&#x307;" 
d="M-82 1188q-42 0 -67 25.5t-25 64.5q0 54 40 93.5t95 39.5q41 0 65.5 -26t24.5 -66q0 -54 -39.5 -92.5t-93.5 -38.5z" />
    <glyph glyph-name="uni0308" unicode="&#x308;" 
d="M-383 1255q-38 0 -60 22t-22 58q0 50 37 87.5t86 37.5q39 0 62.5 -22.5t23.5 -57.5q0 -52 -37 -88.5t-90 -36.5zM-66 1255q-38 0 -61 22t-23 58q0 50 37 87.5t86 37.5q39 0 62.5 -22.5t23.5 -57.5q0 -51 -36.5 -88t-88.5 -37z" />
    <glyph glyph-name="uni030A" unicode="&#x30a;" 
d="M-139 1176q-64 0 -105 43t-41 106q0 79 65.5 140t147.5 61q61 0 102.5 -43t41.5 -105q0 -78 -66.5 -140t-144.5 -62zM-129 1237q52 0 95.5 40.5t43.5 90.5q0 41 -27 69.5t-67 28.5q-54 0 -96.5 -39.5t-42.5 -91.5q0 -42 26.5 -70t67.5 -28z" />
    <glyph glyph-name="uni030B" unicode="&#x30b;" 
d="M-639 1147h-27q134 195 229 290t144 95q15 0 27 -9t12 -22q0 -76 -385 -354zM-369 1147h-26q135 196 229.5 290.5t142.5 94.5q17 0 28 -8.5t11 -22.5q0 -76 -385 -354z" />
    <glyph glyph-name="uni030C" unicode="&#x30c;" 
d="M-207 1143q-36 0 -60.5 49.5t-82.5 220.5q-7 23 -12 36.5t-12.5 36t-14.5 42.5h31q133 -192 174 -268q38 40 83 84t105.5 100t89.5 84h31q-195 -268 -229 -309q-58 -70 -94 -75q-4 -1 -9 -1z" />
    <glyph glyph-name="uni0312" unicode="&#x312;" 
d="M-49 1200q-46 0 -67 35t-15 88q3 50 50 121.5t144 152.5h27q-115 -115 -121 -182q-4 -27 8.5 -46t29 -28.5t28 -28t6.5 -44.5q-6 -32 -31 -50t-59 -18z" />
    <glyph glyph-name="uni0326" unicode="&#x326;" 
d="M-236 -102q41 0 63.5 -26.5t22.5 -68.5q0 -66 -50.5 -144t-147.5 -159h-27q123 123 123 195q0 22 -14 38.5t-29.5 26t-26.5 27.5t-6 43q7 31 33 49.5t59 18.5z" />
    <glyph glyph-name="uni0327" unicode="&#x327;" 
d="M-442 -418q-57 0 -111 35l4 23q46 -21 94 -21q66 0 105 31.5t39 79.5q0 39 -33 65.5t-98 26.5l8 39l127 166h43l-111 -144q69 0 105.5 -31.5t36.5 -78.5q0 -66 -60 -128.5t-149 -62.5z" />
    <glyph glyph-name="uni0328" unicode="&#x328;" 
d="M-420 -424q-52 0 -84.5 32t-32.5 85q0 36 17 74t40 68t56 61.5t56.5 50t50 38.5t28.5 21h39q-25 -20 -50.5 -43t-61 -62.5t-58 -85.5t-22.5 -89q0 -41 22.5 -64.5t57.5 -23.5q56 0 116 57h27q-98 -119 -201 -119z" />
    <glyph glyph-name="uni0335" unicode="&#x335;" 
d="M-127 539h-555l14 71h555z" />
    <glyph glyph-name="uni0336" unicode="&#x336;" 
d="M-129 528h-1341l16 95h1341z" />
    <glyph glyph-name="uni0337" unicode="&#x337;" 
d="M-43 739l-485 -229l20 111l488 231z" />
    <glyph glyph-name="uni0338" unicode="&#x338;" 
d="M-1290 -158h-107l1350 1612h108z" />
    <glyph glyph-name="uni0394" unicode="&#x394;" horiz-adv-x="1097" 
d="M1014 0h-1114l751 1317h94zM668 1143l-596 -1039h815z" />
    <glyph glyph-name="uni03A9" unicode="&#x3a9;" horiz-adv-x="1480" 
d="M424 0h-371l6 33l334 71q-128 68 -201 207t-73 293q0 119 41 231.5t114 202.5t169.5 157.5t214 104.5t239.5 37q236 0 383 -148.5t147 -381.5q0 -213 -142 -408.5t-363 -294.5l305 -71l-6 -33h-371l-43 119q94 28 182 93t155 154t107.5 203t40.5 232q0 197 -113 319.5
t-300 122.5q-125 0 -240.5 -50.5t-201 -137t-136.5 -211t-51 -264.5q0 -169 72 -296t190 -165z" />
    <glyph glyph-name="uni03BC" unicode="&#x3bc;" horiz-adv-x="1060" 
d="M270 -389h-413l4 24l143 46l246 1259l-131 27l4 24l264 53h29l-137 -712q-29 -142 -3 -210.5t109 -68.5q174 0 315 246l127 641l-131 27l6 24l263 53h28l-182 -940l129 -26l-4 -25l-264 -53h-29l39 199q-148 -226 -352 -226q-75 0 -111 60l-67 -352l124 -46z" />
    <glyph glyph-name="pi" unicode="&#x3c0;" horiz-adv-x="1077" 
d="M348 0h-416l7 25l143 57l186 962h738l-187 -962l121 -57l-4 -25h-416l6 25l144 57l166 842h-441l-166 -842l123 -57z" />
    <glyph glyph-name="uni0400" unicode="&#x400;" horiz-adv-x="1161" 
d="M836 1659h-27q-324 269 -324 346q0 39 41 39q44 0 122.5 -94.5t187.5 -290.5zM938 0h-965l4 25l166 65l269 1378l-142 64l6 24h945l10 -317h-29l-102 242h-510l-121 -613h346l94 174h37l-84 -426h-37l-24 175h-346l-138 -709h531l194 235h29z" />
    <glyph glyph-name="uni0401" unicode="&#x401;" horiz-adv-x="1161" 
d="M635 1706q-38 0 -61 22t-23 58q0 50 37 87.5t86 37.5q39 0 62.5 -22.5t23.5 -57.5q0 -51 -36.5 -88t-88.5 -37zM950 1706q-38 0 -61 22t-23 58q0 50 37 87.5t86 37.5q40 0 63 -22.5t23 -57.5q0 -51 -36.5 -88t-88.5 -37zM938 0h-965l4 25l166 65l269 1378l-142 64l6 24
h945l10 -317h-29l-102 242h-510l-121 -613h346l94 174h37l-84 -426h-37l-24 175h-346l-138 -709h531l194 235h29z" />
    <glyph glyph-name="uni0402" unicode="&#x402;" horiz-adv-x="1660" 
d="M1231 907q216 0 294 -121t36 -368l-5 -33q-42 -242 -186.5 -370t-365.5 -144l4 20q157 33 245.5 154t126.5 338l6 35q37 206 -12.5 308.5t-197.5 102.5q-88 0 -185.5 -22.5t-148.5 -43t-84 -38.5l-125 -635l141 -65l-4 -25h-481l4 25l166 65l272 1391h-358l-189 -242h-32
l133 317h1177l11 -317h-33l-94 242h-441l-137 -699q36 21 90 45t163 52t210 28z" />
    <glyph glyph-name="uni0403" unicode="&#x403;" horiz-adv-x="1079" 
d="M780 1659h-26q134 195 228.5 290t141.5 95q17 0 28 -8.5t11 -22.5q0 -75 -383 -354zM319 94l160 -69l-6 -25h-502l6 25l166 65l269 1378l-142 64l6 24h922l10 -317h-28l-103 242h-489z" />
    <glyph glyph-name="uni0404" unicode="&#x404;" horiz-adv-x="1597" 
d="M1571 616h39q-136 -286 -371 -462.5t-500 -176.5q-283 0 -455.5 166t-172.5 453q0 135 37 263t103 234.5t159.5 196.5t204 152t239.5 96.5t262 34.5q95 0 179 -19t139 -47.5t90 -57t47 -52.5l-88 -455h-43q14 80 14 158q0 199 -99.5 298t-275.5 99q-178 0 -332.5 -84.5
t-260 -232t-148.5 -334.5h747l-16 -78h-745q-11 -90 -11 -150q0 -117 28 -212.5t75.5 -160t112 -108.5t136.5 -64t150 -20q221 0 421 149t335 414z" />
    <glyph glyph-name="uni0405" unicode="&#x405;" horiz-adv-x="1214" 
d="M489 -23q-173 0 -292 67.5t-185 172.5l201 399h49q-80 -215 -80 -311q0 -73 30 -126.5t80 -82t104 -41t114 -12.5q214 0 350.5 108.5t136.5 276.5q0 38 -10.5 69t-36 56t-50 42.5t-72.5 36.5t-82.5 30.5t-98.5 31.5l-74 25q-309 96 -309 342q0 137 68.5 253.5t196 187.5
t286.5 71q144 0 252.5 -50.5t167.5 -115.5l-193 -336h-49q74 167 74 234q0 101 -80 151.5t-194 50.5q-171 0 -288.5 -91t-117.5 -224q0 -45 19.5 -82.5t46.5 -62t72.5 -47t80.5 -35t86 -27.5l58 -16q44 -13 71.5 -22t71.5 -27t72.5 -36t61.5 -46.5t52.5 -60.5t33 -76
t13.5 -95q0 -121 -49.5 -229t-134 -185.5t-202.5 -122.5t-251 -45z" />
    <glyph glyph-name="uni0406" unicode="&#x406;" horiz-adv-x="630" 
d="M455 0h-482l4 25l166 65l269 1378l-142 64l6 24h482l-6 -24l-166 -64l-269 -1378l142 -65z" />
    <glyph glyph-name="uni0407" unicode="&#x407;" horiz-adv-x="630" 
d="M383 1706q-38 0 -61 22t-23 58q0 50 37 87.5t86 37.5q39 0 62.5 -22.5t23.5 -57.5q0 -51 -36.5 -88t-88.5 -37zM698 1706q-38 0 -61 22t-23 58q0 50 37 87.5t86 37.5q40 0 63 -22.5t23 -57.5q0 -51 -36.5 -88t-88.5 -37zM455 0h-482l4 25l166 65l269 1378l-142 64l6 24
h482l-6 -24l-166 -64l-269 -1378l142 -65z" />
    <glyph glyph-name="uni0408" unicode="&#x408;" horiz-adv-x="927" 
d="M264 -23q-89 0 -154.5 26.5t-102.5 65t-70 97.5l264 416h32q-14 -28 -46 -90t-41.5 -83t-26 -60.5t-21 -67.5t-4.5 -60q0 -82 44.5 -124t125.5 -42q36 0 64.5 8.5t59.5 33.5t56 67.5t49 114.5t42 170l198 1019l-141 64l4 24h481l-4 -24l-166 -64l-207 -1054
q-15 -77 -34.5 -137t-53.5 -118t-80 -96.5t-114 -62t-154 -23.5z" />
    <glyph glyph-name="uni0409" unicode="&#x409;" horiz-adv-x="2070" 
d="M1272 901h244q106 0 196.5 -22.5t161 -67t111 -117t40.5 -164.5q0 -233 -185.5 -381.5t-485.5 -148.5h-586l6 25l166 65l270 1389h-477q-47 -178 -81 -302.5t-73 -262.5t-68 -231t-63.5 -192.5t-62.5 -163t-61 -127t-63.5 -100t-65.5 -66.5t-71 -42t-77 -12
q-95 0 -117 51l56 303h34q-22 -122 -7.5 -173.5t69.5 -51.5q44 0 84 30t82.5 103t83 172.5t92 263.5t103 349.5t122.5 453.5l-141 55l4 20h1040l-4 -24l-166 -57zM1110 70h246q120 0 215 36.5t155 101t91.5 149.5t31.5 184q0 146 -92 220.5t-260 74.5h-237z" />
    <glyph glyph-name="uni040A" unicode="&#x40a;" horiz-adv-x="2123" 
d="M1323 893h246q106 0 196.5 -22.5t161.5 -65.5t111.5 -114t40.5 -161q0 -234 -186 -382t-488 -148h-584l6 25l166 65l142 725h-676l-142 -725l142 -65l-6 -25h-482l6 25l166 65l271 1391l-144 51l4 24h482l-4 -24l-164 -51l-115 -588h676l113 582l-142 57l4 24h482l-4 -24
l-166 -57zM1163 70h246q119 0 214 36.5t155.5 101t92.5 149.5t32 184q0 135 -92.5 204.5t-262.5 69.5h-239z" />
    <glyph glyph-name="uni040B" unicode="&#x40b;" horiz-adv-x="1697" 
d="M1542 526l-86 -444l141 -57l-4 -25h-327l104 530q29 154 -17.5 224.5t-174.5 70.5q-90 0 -192 -24.5t-147.5 -43t-82.5 -36.5l-123 -631l141 -65l-4 -25h-481l4 25l166 65l272 1391h-358l-189 -242h-32l133 317h1177l11 -317h-33l-94 242h-441l-137 -705q19 11 53.5 27.5
t97.5 41.5t146 41.5t162 16.5q211 0 282.5 -89.5t32.5 -287.5z" />
    <glyph glyph-name="uni040C" unicode="&#x40c;" horiz-adv-x="1251" 
d="M827 1659h-26q134 195 228.5 290t141.5 95q17 0 28 -8.5t11 -22.5q0 -75 -383 -354zM455 0h-482l4 25l166 65l269 1378l-142 64l6 24h482l-6 -24l-166 -64l-121 -628l635 647l-129 45l6 24h399l-6 -24l-203 -47l-583 -600l438 -809l176 -51l-4 -25h-506l4 25l119 49
l-369 653l-125 -637l142 -65z" />
    <glyph glyph-name="uni040D" unicode="&#x40d;" horiz-adv-x="1583" 
d="M1061 1659h-27q-323 268 -323 346q0 39 43 39q93 0 307 -385zM1223 1532l4 24h481l-4 -24l-164 -51l-270 -1391l141 -65l-6 -25h-481l6 25l166 65l217 1120l-967 -972l-29 -148l142 -65l-6 -25h-482l6 25l166 65l271 1391l-144 51l4 24h482l-4 -24l-164 -51l-221 -1137
l966 971l33 166z" />
    <glyph glyph-name="uni040E" unicode="&#x40e;" horiz-adv-x="1304" 
d="M918 1659q-87 0 -146.5 30t-86.5 82.5t-35 122.5t7 150h131q-9 -51 -13 -90t-4 -81t8.5 -71.5t25 -54t46.5 -37t71 -12.5q49 0 87 19.5t62.5 48.5t44 78t30.5 92t23 108h131q-16 -83 -45.5 -150.5t-74.5 -121.5t-112 -83.5t-150 -29.5zM1137 1532l4 24h413l-6 -24
l-166 -57l-704 -1117q-70 -111 -117.5 -175.5t-101 -114t-106.5 -69t-120 -19.5q-137 0 -182 92l187 325h34q-79 -141 -88 -176q-15 -57 15 -92t88 -35q90 0 159.5 55t159.5 193l-299 1135l-141 55l4 24h489l-4 -24l-151 -49l231 -934l578 930z" />
    <glyph glyph-name="uni040F" unicode="&#x40f;" horiz-adv-x="1542" 
d="M1182 1532l4 24h481l-4 -24l-166 -66l-268 -1378l141 -63l-6 -25h-621l-122 -297h-21l-8 297h-621l6 25l166 63l269 1378l-142 66l4 24h482l-4 -24l-166 -66l-273 -1388h738l272 1388z" />
    <glyph glyph-name="uni0410" unicode="&#x410;" horiz-adv-x="1560" 
d="M295 0h-440l6 25l170 49l843 1386l-26 113h166l360 -1499l148 -49l-6 -25h-523l6 25l177 49l-127 557h-600l-336 -557l188 -49zM881 1352l-387 -643h536z" />
    <glyph glyph-name="uni0411" unicode="&#x411;" horiz-adv-x="1288" 
d="M1122 1481h-532l-115 -592h244q106 0 196.5 -22.5t161.5 -66.5t111.5 -116t40.5 -164q0 -150 -86.5 -270t-233.5 -185t-325 -65h-611l4 25l166 65l269 1378l-142 64l6 24h967l10 -317h-28zM698 823h-237l-146 -753h271q209 0 338 129.5t129 330.5q0 144 -93 218.5
t-262 74.5z" />
    <glyph glyph-name="uni0412" unicode="&#x412;" horiz-adv-x="1359" 
d="M604 0h-633l6 25l166 63l269 1380l-142 64l4 24h603q221 0 346 -86t125 -233q0 -150 -114 -275t-296 -176q157 -28 246.5 -113t89.5 -206q0 -131 -87 -238t-240.5 -168t-342.5 -61zM588 1483l-129 -666h246q207 0 336.5 118t129.5 304q0 118 -97.5 181t-285.5 63h-200z
M442 741l-127 -659h295q212 0 349 113t137 286q0 121 -99 190.5t-270 69.5h-285z" />
    <glyph glyph-name="uni0413" unicode="&#x413;" horiz-adv-x="1079" 
d="M319 94l160 -69l-6 -25h-502l6 25l166 65l269 1378l-142 64l6 24h922l10 -317h-28l-103 242h-489z" />
    <glyph glyph-name="uni0414" unicode="&#x414;" horiz-adv-x="1488" 
d="M1563 1556l-4 -24l-164 -51l-275 -1403h191l-13 -350h-28l-94 272h-1106l-209 -272h-29l123 350h139q151 239 252.5 522.5t257.5 880.5l-141 55l4 20h1096zM193 78h753l275 1401h-537q-145 -570 -247.5 -865.5t-243.5 -535.5z" />
    <glyph glyph-name="uni0415" unicode="&#x415;" horiz-adv-x="1161" 
d="M938 0h-965l4 25l166 65l269 1378l-142 64l6 24h945l10 -317h-29l-102 242h-510l-121 -613h346l94 174h37l-84 -426h-37l-24 175h-346l-138 -709h531l194 235h29z" />
    <glyph glyph-name="uni0416" unicode="&#x416;" horiz-adv-x="1855" 
d="M1978 1556l-4 -24l-176 -43l-590 -580l467 -833l131 -51l-6 -25h-493l4 25l164 49l-408 727l-137 -711l133 -65l-4 -25h-461l4 25l158 65l139 711l-688 -727l143 -49l-6 -25h-489l4 25l141 51l793 842l-361 571l-166 43l4 24h408l-6 -24l-166 -41l397 -639l121 616
l-141 64l6 24h477l-6 -24l-166 -64l-121 -616l649 639l-151 41l4 24h399z" />
    <glyph glyph-name="uni0417" unicode="&#x417;" horiz-adv-x="1286" 
d="M791 1507q-177 0 -315.5 -137.5t-176.5 -400.5h-43l61 454q66 55 197.5 102.5t290.5 47.5q218 0 339.5 -90t121.5 -242q0 -110 -62.5 -205t-155.5 -153t-198 -80q160 -24 255 -110.5t95 -221.5q0 -94 -40 -181.5t-113.5 -157.5t-192 -112.5t-262.5 -42.5q-511 0 -574 598
h35q34 -257 165.5 -391.5t354.5 -134.5q111 0 198.5 34.5t140.5 93.5t80.5 133.5t27.5 158.5q0 147 -94.5 219t-272.5 72h-139l12 63h125q191 0 317 117.5t126 292.5q0 125 -77 199.5t-226 74.5z" />
    <glyph glyph-name="uni0418" unicode="&#x418;" horiz-adv-x="1583" 
d="M1223 1532l4 24h481l-4 -24l-164 -51l-270 -1391l141 -65l-6 -25h-481l6 25l166 65l217 1120l-967 -972l-29 -148l142 -65l-6 -25h-482l6 25l166 65l271 1391l-144 51l4 24h482l-4 -24l-164 -51l-221 -1137l966 971l33 166z" />
    <glyph glyph-name="uni0419" unicode="&#x419;" horiz-adv-x="1583" 
d="M1001 1659q-87 0 -146 30t-85.5 82.5t-35 122.5t6.5 150h131q-8 -52 -12 -90t-4 -80.5t8.5 -72t25 -54t46 -37t70.5 -12.5q49 0 87 19.5t62.5 48.5t44 78t30.5 92t23 108h131q-16 -83 -45 -150.5t-74.5 -121.5t-112.5 -83.5t-151 -29.5zM1223 1532l4 24h481l-4 -24
l-164 -51l-270 -1391l141 -65l-6 -25h-481l6 25l166 65l217 1120l-967 -972l-29 -148l142 -65l-6 -25h-482l6 25l166 65l271 1391l-144 51l4 24h482l-4 -24l-164 -51l-221 -1137l966 971l33 166z" />
    <glyph glyph-name="uni041A" unicode="&#x41a;" horiz-adv-x="1251" 
d="M455 0h-482l4 25l166 65l269 1378l-142 64l6 24h482l-6 -24l-166 -64l-121 -628l635 647l-129 45l6 24h399l-6 -24l-203 -47l-583 -600l438 -809l176 -51l-4 -25h-506l4 25l119 49l-369 653l-125 -637l142 -65z" />
    <glyph glyph-name="uni041B" unicode="&#x41b;" horiz-adv-x="1452" 
d="M1579 1556l-6 -24l-166 -64l-268 -1378l141 -65l-4 -25h-481l4 25l166 65l272 1389h-504q-47 -178 -81 -302.5t-73 -262.5t-68 -231t-63.5 -192.5t-62.5 -163t-61 -127t-63.5 -100t-65.5 -66.5t-71 -42t-77 -12q-95 0 -117 51l56 303h34q-22 -122 -8.5 -173.5t70.5 -51.5
q44 0 84 30t82.5 103t83 172.5t92 263.5t103 349.5t122.5 453.5l-139 55l4 20h1065z" />
    <glyph glyph-name="uni041C" unicode="&#x41c;" horiz-adv-x="1820" 
d="M373 0h-400l4 25l166 65l269 1378l-142 64l6 24h330l262 -1337l774 1337h306l-6 -24l-166 -64l-269 -1378l142 -65l-4 -25h-482l4 25l166 65l236 1208l-756 -1298h-86l-258 1280l-231 -1190l139 -65z" />
    <glyph glyph-name="uni041D" unicode="&#x41d;" horiz-adv-x="1562" 
d="M455 0h-482l4 25l166 65l269 1378l-142 64l6 24h482l-6 -24l-166 -64l-117 -610h758l116 610l-141 64l6 24h482l-7 -24l-165 -64l-269 -1378l142 -65l-5 -25h-481l4 25l166 65l135 690h-757l-136 -690l142 -65z" />
    <glyph glyph-name="uni041E" unicode="&#x41e;" horiz-adv-x="1636" 
d="M686 -23q-252 0 -413.5 171.5t-161.5 445.5q0 126 35 250t96.5 231.5t148.5 200t187.5 158t217.5 102.5t236 37q257 0 425.5 -171.5t168.5 -440.5q0 -184 -80.5 -365t-210 -316t-302 -219t-347.5 -84zM760 53q180 0 331.5 124t239.5 337t88 465q0 248 -124.5 383
t-317.5 135q-182 0 -336 -119t-243 -322t-89 -442q0 -133 38.5 -242t102.5 -177t144 -105t166 -37z" />
    <glyph glyph-name="uni041F" unicode="&#x41f;" horiz-adv-x="1542" 
d="M1669 1556l-6 -24l-166 -64l-268 -1378l141 -65l-4 -25h-481l4 25l166 65l272 1389h-737l-273 -1389l142 -65l-4 -25h-482l4 25l166 65l269 1378l-142 64l6 24h1393z" />
    <glyph glyph-name="uni0420" unicode="&#x420;" horiz-adv-x="1251" 
d="M455 0h-482l4 25l166 65l269 1378l-142 64l6 24h633q117 0 214.5 -33t162 -107t64.5 -179q0 -133 -85.5 -247.5t-231.5 -181.5t-316 -67h-273l-127 -651l142 -65zM588 1479l-127 -660h254q203 0 331 118.5t128 305.5q0 236 -332 236h-254z" />
    <glyph glyph-name="uni0421" unicode="&#x421;" horiz-adv-x="1585" 
d="M735 -23q-281 0 -453.5 161t-172.5 437q0 135 36.5 264t101.5 238t158 201.5t203 157.5t239.5 101t264.5 36q94 0 178 -19t139.5 -47.5t91 -57t48.5 -52.5l-90 -455h-43q26 143 11 247.5t-67 173t-129 101.5t-176 33q-83 0 -173.5 -25.5t-186 -85t-175 -145t-139 -217.5
t-79.5 -291q-18 -139 0.5 -254t64 -192.5t113.5 -131.5t146 -78t165 -24q220 0 420.5 149.5t337.5 413.5h39q-138 -286 -372.5 -462.5t-500.5 -176.5z" />
    <glyph glyph-name="uni0422" unicode="&#x422;" horiz-adv-x="1341" 
d="M809 0h-481l4 25l166 65l272 1391h-399l-189 -242h-32l133 317h1177l10 -317h-32l-95 242h-399l-272 -1391l141 -65z" />
    <glyph glyph-name="uni0423" unicode="&#x423;" horiz-adv-x="1304" 
d="M1137 1532l4 24h413l-6 -24l-166 -57l-704 -1117q-70 -111 -117.5 -175.5t-101 -114t-106.5 -69t-120 -19.5q-137 0 -182 92l187 325h34q-79 -141 -88 -176q-15 -57 15 -92t88 -35q90 0 159.5 55t159.5 193l-299 1135l-141 55l4 24h489l-4 -24l-151 -49l231 -934l578 930
z" />
    <glyph glyph-name="uni0424" unicode="&#x424;" horiz-adv-x="1736" 
d="M1733 899q0 -125 -59 -242t-164.5 -209.5t-265 -153t-347.5 -71.5l-31 -153l142 -66l-4 -24h-482l4 24l166 66l31 153q-296 12 -454 128t-158 341q-1 125 57.5 241.5t164 209t264.5 152.5t347 71l25 123l-142 63l7 25h481l-6 -25l-166 -63l-25 -123q612 -25 615 -467z
M1106 1298l-197 -1007q150 7 269 57t193 131t112.5 183t38.5 217q-3 374 -416 419zM735 291l197 1007q-150 -7 -268.5 -57t-192.5 -131t-112 -182.5t-37 -216.5q0 -375 413 -420z" />
    <glyph glyph-name="uni0425" unicode="&#x425;" horiz-adv-x="1306" 
d="M313 0h-403l4 25l156 53l553 676l-316 714l-135 64l6 24h490l-6 -24l-156 -55l252 -578l465 574l-168 59l4 24h399l-4 -24l-166 -66l-504 -622l334 -766l131 -53l-4 -25h-489l4 25l158 53l-271 616l-504 -616l174 -53z" />
    <glyph glyph-name="uni0426" unicode="&#x426;" horiz-adv-x="1593" 
d="M1182 1532l4 24h481l-4 -24l-166 -57l-272 -1397h190l-12 -350h-29l-82 272h-1321l6 25l164 57l271 1393l-142 57l4 24h482l-4 -24l-166 -57l-273 -1397h738l272 1397z" />
    <glyph glyph-name="uni0427" unicode="&#x427;" horiz-adv-x="1413" 
d="M1053 1532l4 24h481l-4 -24l-166 -64l-268 -1378l141 -65l-6 -25h-481l6 25l166 65l129 660q-234 -101 -449 -101q-226 0 -310 90.5t-46 286.5l88 455l-143 51l4 24h481l-4 -24l-164 -51l-90 -459q-29 -154 28.5 -222.5t215.5 -68.5q196 0 401 80l127 657z" />
    <glyph glyph-name="uni0428" unicode="&#x428;" horiz-adv-x="2265" 
d="M1905 1532l4 24h481l-4 -24l-166 -57l-270 -1393l143 -57l-6 -25h-2116l6 25l164 57l271 1393l-142 57l4 24h482l-4 -24l-166 -57l-273 -1397h643l273 1397l-142 57l5 24h481l-4 -24l-166 -57l-273 -1397h644l272 1397z" />
    <glyph glyph-name="uni0429" unicode="&#x429;" horiz-adv-x="2316" 
d="M1905 1532l4 24h481l-4 -24l-166 -57l-272 -1397h190l-12 -350h-29l-82 272h-2044l6 25l164 57l271 1393l-142 57l4 24h482l-4 -24l-166 -57l-273 -1397h643l273 1397l-142 57l5 24h481l-4 -24l-166 -57l-273 -1397h644l272 1397z" />
    <glyph glyph-name="uni042A" unicode="&#x42a;" horiz-adv-x="1492" 
d="M694 901h244q106 0 196.5 -22.5t161.5 -67t111.5 -117t40.5 -164.5q0 -233 -186 -381.5t-486 -148.5h-586l7 25l165 65l271 1391h-258l-189 -242h-32l133 317h688l-4 -24l-166 -57zM532 70h246q120 0 215 36.5t155.5 101t92 149.5t31.5 184q0 146 -92 220.5t-260 74.5
h-238z" />
    <glyph glyph-name="uni042B" unicode="&#x42b;" horiz-adv-x="1839" 
d="M-29 0h584q302 0 488 148t186 382q0 92 -40.5 164.5t-111.5 117t-161.5 67t-196.5 22.5h-244l111 574l166 57l4 24h-482l-4 -24l142 -57l-269 -1385l-166 -65zM1663 0h-481l4 25l166 65l268 1378l-141 64l6 24h481l-6 -24l-166 -64l-268 -1378l141 -65zM463 836h237
q169 0 261 -74.5t92 -220.5q0 -99 -32 -184t-92.5 -149.5t-155.5 -101t-214 -36.5h-246z" />
    <glyph glyph-name="uni042C" unicode="&#x42c;" horiz-adv-x="1273" 
d="M-29 0h584q302 0 488 148t186 382q0 92 -40.5 164.5t-111.5 117t-161.5 67t-196.5 22.5h-244l111 574l166 57l4 24h-482l-4 -24l142 -57l-269 -1385l-166 -65zM463 836h237q169 0 261 -74.5t92 -220.5q0 -99 -32 -184t-92.5 -149.5t-155.5 -101t-214 -36.5h-246z" />
    <glyph glyph-name="uni042D" unicode="&#x42d;" horiz-adv-x="1540" 
d="M838 1573q314 0 497 -169.5t183 -479.5q0 -199 -72 -375.5t-195.5 -301.5t-293.5 -197.5t-359 -72.5q-269 0 -414.5 156.5t-160.5 441.5h38q22 -251 164 -386.5t373 -135.5q284 0 475.5 194.5t229.5 520.5h-768l14 78h760q2 25 2 74q0 276 -127.5 431.5t-347.5 155.5
q-100 0 -190.5 -34t-167 -101t-130 -177.5t-74.5 -252.5h-43l62 455q24 25 71 53t115.5 56.5t163.5 47.5t195 19z" />
    <glyph glyph-name="uni042E" unicode="&#x42e;" horiz-adv-x="2215" 
d="M1628 1573q172 0 303 -81t201 -224t70 -326q0 -153 -51.5 -300.5t-142 -265.5t-206.5 -209t-251 -140.5t-269 -49.5q-168 0 -294 80.5t-192.5 223.5t-66.5 329q0 92 19 189h-293l-138 -709l142 -65l-6 -25h-482l6 25l166 65l271 1391l-144 51l4 24h482l-4 -24l-164 -51
l-117 -604h295q58 200 191.5 359.5t309.5 248t361 88.5zM1356 53q85 0 174 37.5t172.5 114.5t148.5 183t104.5 254t39.5 316q0 276 -114.5 407.5t-311.5 131.5q-183 0 -331.5 -124t-229 -326t-80.5 -435q0 -138 34.5 -247t94.5 -176t136 -101.5t163 -34.5z" />
    <glyph glyph-name="uni042F" unicode="&#x42f;" horiz-adv-x="1357" 
d="M850 1556h633l-4 -24l-164 -51l-271 -1391l142 -65l-6 -25h-482l7 25l165 65l127 655h-200l-537 -665l135 -55l-6 -25h-514l6 25l178 65l545 668q-160 21 -255 108t-95 238q0 202 164.5 327t431.5 125zM756 811h254l133 680h-254q-218 0 -339.5 -105t-121.5 -282
q0 -144 86 -218.5t242 -74.5z" />
    <glyph glyph-name="uni0430" unicode="&#x430;" horiz-adv-x="1003" 
d="M883 752l-123 -637l127 -17l-6 -37l-265 -61h-28l47 240q-15 -31 -45.5 -71t-78.5 -86t-117 -77t-142 -31q-98 0 -156.5 56.5t-58.5 150.5q0 67 25.5 127.5t66.5 105.5t100 84t118.5 66t130 50t126.5 36.5t115 24.5l12 63q26 132 -18.5 200.5t-151.5 68.5
q-123 0 -207 -82t-84 -203q0 -30 6 -57h-47l-43 241q59 64 170 116t258 52q332 0 269 -323zM328 61q51 0 103.5 28t95 72.5t72.5 85t52 79.5l60 305q-141 -30 -220 -61q-286 -125 -292 -363q0 -64 32 -105t97 -41z" />
    <glyph glyph-name="uni0431" unicode="&#x431;" horiz-adv-x="1132" 
d="M506 1237q-104 -98 -178 -330q156 156 360 156q90 0 160.5 -29t112 -74t68.5 -104.5t36.5 -113.5t9.5 -109q0 -115 -45.5 -232t-123 -211t-191.5 -153.5t-240 -59.5q-100 0 -177 35t-123.5 97.5t-69.5 141.5t-23 173q0 145 38 289t120 283t199 253.5t286.5 200.5
t370.5 123q101 18 129 69h28q-31 -110 -91 -163.5t-181 -71.5q-214 -37 -308 -68t-167 -102zM649 991q-99 0 -191.5 -47t-156.5 -127q-57 -202 -57 -391q0 -80 15 -146t46.5 -119t84.5 -82.5t124 -29.5q101 0 193.5 80.5t149 216t56.5 287.5q0 72 -14.5 134t-44.5 113.5
t-82.5 81t-122.5 29.5z" />
    <glyph glyph-name="uni0432" unicode="&#x432;" horiz-adv-x="1013" 
d="M631 553q126 -10 200 -67.5t74 -172.5q0 -128 -129 -232t-309 -104q-99 0 -178 33.5t-128.5 92t-75.5 136t-26 167.5q0 168 77 321t217.5 250.5t308.5 97.5q138 0 211 -57t73 -158q0 -112 -89.5 -197.5t-225.5 -109.5zM623 1004q-135 0 -248 -122.5t-148 -308.5h265
q72 0 130.5 24.5t95 65t56 89t19.5 98.5q0 70 -45 112t-125 42zM469 49q128 0 203.5 72.5t75.5 187.5q0 96 -63.5 149.5t-188.5 53.5h-279q-4 -54 -4 -84q0 -166 67.5 -272.5t188.5 -106.5z" />
    <glyph glyph-name="uni0433" unicode="&#x433;" horiz-adv-x="880" 
d="M354 -23q128 0 232 47.5t166 116.5l-66 285h-39q6 -27 6 -74q0 -66 -15 -119.5t-48.5 -96.5t-92.5 -67t-141 -24q-97 0 -148.5 42t-51.5 124q0 70 37.5 121.5t98 83.5t133 58.5t145 56.5t133 67.5t98 100.5t37.5 147q0 108 -82 168.5t-219 60.5q-114 0 -207.5 -43.5
t-157.5 -105.5l57 -246h39q-4 23 -4 61q0 123 68.5 195t195.5 72q79 0 129 -39.5t50 -112.5q0 -58 -30 -104t-78.5 -74.5t-111 -56.5t-127 -49.5t-127 -54t-111 -69.5t-78.5 -96t-30 -133q0 -119 88 -180.5t252 -61.5z" />
    <glyph glyph-name="uni0434" unicode="&#x434;" horiz-adv-x="1155" 
d="M649 1659q153 0 257 -95.5t152 -263t48 -401.5q0 -267 -75.5 -474.5t-222.5 -327.5t-343 -120q-99 0 -177.5 38t-126.5 102.5t-73 144t-25 168.5q0 95 28.5 189.5t82.5 176t125.5 144.5t164.5 99t193 36q187 0 289 -164h10q-10 323 -99.5 487.5t-240.5 164.5
q-109 0 -175.5 -65t-106.5 -185h-39q85 346 354 346zM487 49q113 0 212 80t157.5 215t58.5 289q0 162 -71.5 266.5t-200.5 104.5q-119 0 -218 -74t-155.5 -202.5t-56.5 -281.5q0 -168 74 -282.5t200 -114.5z" />
    <glyph glyph-name="uni0435" unicode="&#x435;" horiz-adv-x="1038" 
d="M438 -23q-182 0 -281.5 115.5t-99.5 296.5q0 107 31.5 210t88 188t130 150.5t163.5 101.5t183 36q177 0 267.5 -118t50.5 -322l-10 -49h-734l-2 -21q-44 -224 38 -370t251 -146q117 0 229.5 80.5t204.5 230.5h39q-88 -171 -231.5 -277t-317.5 -106zM248 653h569
q31 159 -18.5 253.5t-169.5 94.5q-126 0 -232 -98.5t-149 -249.5z" />
    <glyph glyph-name="uni0436" unicode="&#x436;" horiz-adv-x="1802" 
d="M1442 63q59 0 111 73t106 224h41q-55 -188 -128 -285.5t-186 -97.5q-105 0 -152.5 83.5t-47.5 226.5q0 97 22 207h-239l-101 -494h-147l100 494h-243q-37 -138 -100.5 -253t-155 -189.5t-189.5 -74.5q-62 0 -99 40.5t-42 101.5l182 368h39q-113 -251 -113 -350
q0 -88 62 -88q75 0 147 118.5t114 285t42 313.5q0 109 -27.5 167t-79.5 58q-57 0 -109.5 -73.5t-107.5 -225.5h-39q55 188 128 285.5t186 97.5q70 0 116 -41t65 -108t19 -160q0 -98 -22 -211h240l77 385l-129 27l4 24l265 53h28l-98 -489h242q37 140 100.5 255t154.5 190
t189 75q65 0 103 -39t40 -102l-182 -369h-39q113 258 113 353q0 46 -15.5 66t-48.5 20q-73 0 -145 -118t-115 -285t-43 -314q0 -108 28 -166t79 -58z" />
    <glyph glyph-name="uni0437" unicode="&#x437;" horiz-adv-x="903" 
d="M340 49q147 0 221 70t74 190q0 201 -236 201h-67l14 61h64q136 0 211 75t75 177q0 82 -50 131.5t-144 49.5q-120 0 -195.5 -69t-75.5 -192q0 -37 9 -77h-39l-60 256q68 70 159 111.5t228 41.5q147 0 229.5 -60.5t82.5 -172.5t-86.5 -190.5t-202.5 -98.5
q112 -13 177 -70.5t65 -158.5q0 -99 -63.5 -179.5t-167.5 -124t-224 -43.5q-140 0 -234.5 48t-134.5 116l178 291h37q-75 -133 -75 -207q0 -83 60 -129.5t171 -46.5z" />
    <glyph glyph-name="uni0438" unicode="&#x438;" horiz-adv-x="1058" 
d="M315 -27q-258 0 -194 328l123 639l-127 27l4 24l264 53h29l-140 -712q-22 -105 -11.5 -167t39 -87t79.5 -25q94 0 170.5 64t146.5 182l125 641l-129 27l6 24l263 53h28l-182 -940l127 -26l-4 -25l-262 -53h-29l37 199q-63 -99 -154.5 -162.5t-208.5 -63.5z" />
    <glyph glyph-name="uni0439" unicode="&#x439;" horiz-adv-x="1058" 
d="M621 1188q57 0 99.5 25t70.5 75t45.5 106.5t31.5 137.5h119q-35 -177 -127.5 -280t-238.5 -103q-151 0 -209.5 104.5t-30.5 278.5h119q-15 -99 -17 -175.5t32 -122.5t106 -46zM315 -27q-258 0 -194 328l123 639l-127 27l4 24l264 53h29l-140 -712q-22 -105 -11.5 -167
t39 -87t79.5 -25q94 0 170.5 64t146.5 182l125 641l-129 27l6 24l263 53h28l-182 -940l127 -26l-4 -25l-262 -53h-29l37 199q-63 -99 -154.5 -162.5t-208.5 -63.5z" />
    <glyph glyph-name="uni043A" unicode="&#x43a;" horiz-adv-x="1036" 
d="M397 1044h29l-188 -974l110 -45l-4 -25h-401l4 25l143 45l168 870l-129 27l6 24zM1085 1044l-6 -24l-176 -53l-424 -375l373 -533l121 -34l-6 -25h-432l6 25l131 32l-336 475l495 441l-167 47l6 24h415z" />
    <glyph glyph-name="uni043B" unicode="&#x43b;" horiz-adv-x="983" 
d="M915 1044l-188 -974l125 -45l-6 -25h-406l4 25l136 45l176 913h-271q-43 -163 -72.5 -271.5t-64.5 -224t-63 -187t-61 -139t-64.5 -103.5t-68.5 -57t-79 -21q-34 0 -52.5 16t-22.5 35l53 276h41q-21 -101 -14.5 -149.5t42.5 -48.5q77 0 158.5 204t192.5 660l-134 47l5 24
h634z" />
    <glyph glyph-name="uni043C" unicode="&#x43c;" horiz-adv-x="1380" 
d="M1165 1044h150l-191 -974l125 -45l-4 -25h-407l6 25l133 45l156 804l-531 -874h-88l-86 868q-27 -103 -45.5 -171.5t-41.5 -150.5t-39.5 -135t-37.5 -114t-38 -98.5t-37.5 -78t-39.5 -63t-41 -42t-45 -27.5t-49 -8q-34 0 -52.5 16t-22.5 35l53 276h41
q-21 -101 -15 -149.5t43 -48.5q69 0 141.5 197.5t184.5 666.5l-133 47l4 24h299l84 -847l518 847l4 -8z" />
    <glyph glyph-name="uni043D" unicode="&#x43d;" horiz-adv-x="1091" 
d="M991 1044h29l-189 -974l125 -45l-6 -25h-405l4 25l133 45l82 424h-445l-81 -424l116 -45l-6 -25h-405l4 25l143 45l168 870l-129 27l6 24l262 53h29l-94 -489h444l76 385l-129 27l6 24z" />
    <glyph glyph-name="uni043E" unicode="&#x43e;" horiz-adv-x="1124" 
d="M459 -23q-104 0 -183.5 38t-125.5 102t-68.5 139.5t-22.5 159.5q0 167 83 318.5t227.5 246t310.5 94.5q85 0 153 -24t111.5 -63.5t73 -93.5t41.5 -111t12 -119q0 -125 -48.5 -249t-129.5 -220.5t-195.5 -157t-238.5 -60.5zM500 49q102 0 197.5 88t153.5 229.5t58 290.5
q0 151 -67.5 249t-196.5 98q-84 0 -164 -47.5t-139 -125.5t-95 -183t-36 -216q0 -162 77 -272.5t212 -110.5z" />
    <glyph glyph-name="uni043F" unicode="&#x43f;" horiz-adv-x="1110" 
d="M348 0h-405l4 25l143 45l168 870l-129 27l6 24l262 53h29l-39 -208q19 30 42 58.5t60.5 62.5t78 59t96 42t114.5 17q123 0 184 -74.5t31 -232.5l-135 -698l123 -45l-4 -25h-406l4 25l134 45l118 620q60 305 -129 305q-100 0 -187 -75t-144 -185l-129 -665l116 -45z" />
    <glyph glyph-name="uni0440" unicode="&#x440;" horiz-adv-x="1075" 
d="M268 -410h-415l6 25l139 45l250 1280l-127 27l6 28q187 45 285 62.5t170 17.5q114 0 199.5 -37.5t134 -102.5t71.5 -143t23 -169q0 -123 -38.5 -240t-105.5 -208t-165 -146.5t-209 -55.5q-63 0 -113.5 21t-79.5 48t-63 71l-89 -453l125 -45zM471 53q97 0 184.5 71
t142 198.5t54.5 279.5q0 86 -18.5 158.5t-56 129t-99.5 88.5t-143 32q-57 0 -127 -15l-160 -821q38 -52 95.5 -86.5t127.5 -34.5z" />
    <glyph glyph-name="uni0441" unicode="&#x441;" horiz-adv-x="1017" 
d="M444 -23q-180 0 -283.5 115.5t-103.5 298.5q0 182 84.5 340t227 251t305.5 93q124 0 206 -48t119 -112l-196 -350h-39q84 158 84 264q0 84 -50 129.5t-143 45.5q-122 0 -224.5 -78.5t-162 -214.5t-59.5 -297q0 -164 77.5 -264.5t202.5 -100.5q255 0 447 311h39
q-88 -173 -223 -278t-308 -105z" />
    <glyph glyph-name="uni0442" unicode="&#x442;" horiz-adv-x="1665" 
d="M348 0h-405l4 25l143 45l170 872l-131 25l6 24l262 53h29l-39 -206q22 35 55.5 71.5t81.5 76t111 64.5t127 25q99 0 155 -59t50 -180q68 99 164.5 169t211.5 70t175 -75t30 -232l-135 -698l123 -45l-4 -25h-406l7 25l131 45l120 620q29 166 2 235.5t-108 69.5
q-86 0 -171.5 -67.5t-152.5 -175.5l-133 -682l123 -45l-4 -25h-405l4 25l133 45l121 620q29 166 4 235.5t-103 69.5q-88 0 -181 -78.5t-146 -181.5l-129 -665l116 -45z" />
    <glyph glyph-name="uni0443" unicode="&#x443;" horiz-adv-x="1095" 
d="M12 -424l-164 223l39 27q122 -133 207 -133q79 0 171.5 101t137.5 214l-186 965l-139 47l4 24h457l-4 -24l-162 -47l153 -805l441 809l-150 43l4 24h400l-4 -24l-183 -47l-483 -871q-53 -95 -98.5 -167t-100.5 -143t-106.5 -116t-111.5 -72.5t-122 -27.5z" />
    <glyph glyph-name="uni0444" unicode="&#x444;" horiz-adv-x="1370" 
d="M1311 627q0 -86 -25 -171.5t-78 -167.5t-128.5 -147t-186 -108.5t-240.5 -52.5l-61 -320l123 -45l-4 -25h-414l4 25l141 45l62 320q-215 15 -330 137.5t-115 310.5q0 86 25 171.5t78 167.5t129 146.5t186 108t240 53.5l90 459l-127 27l4 24l264 53h29l-111 -563
q215 -17 330 -139.5t115 -308.5zM518 53l184 948q-118 -9 -213.5 -60t-154 -128t-89.5 -168t-32 -186q0 -162 77 -275t228 -131zM852 999l-184 -948q118 10 213.5 61.5t154 128.5t89.5 167.5t32 185.5q2 161 -76 273.5t-229 131.5z" />
    <glyph glyph-name="uni0445" unicode="&#x445;" horiz-adv-x="1028" 
d="M293 0h-391l6 25l141 38l391 443l-217 465l-125 49l4 24h457l-4 -24l-152 -47l160 -340l293 340l-178 47l4 24h391l-4 -24l-149 -47l-332 -391l246 -516l122 -41l-6 -25h-456l6 25l153 36l-188 392l-352 -392l186 -36z" />
    <glyph glyph-name="uni0446" unicode="&#x446;" horiz-adv-x="1087" 
d="M963 1044h28l-190 -983h149l-10 -325h-29l-82 264h-188l37 199q-63 -99 -154.5 -162.5t-208.5 -63.5q-258 0 -194 328l123 639l-127 27l4 24l264 53h29l-140 -712q-22 -105 -11.5 -167t39 -87t79.5 -25q94 0 170.5 64t146.5 182l125 641l-129 27l6 24z" />
    <glyph glyph-name="uni0447" unicode="&#x447;" horiz-adv-x="1032" 
d="M930 1044h28l-188 -974l125 -45l-6 -25h-422l4 25l152 45l94 487q-148 -156 -330 -156q-102 0 -158.5 50.5t-56.5 150.5q0 46 18 141l37 197l-127 27l4 24l265 53h28l-59 -315q-12 -61 -12 -104q0 -148 135 -148q154 0 272 162l58 301l-129 27l6 24z" />
    <glyph glyph-name="uni0448" unicode="&#x448;" horiz-adv-x="1613" 
d="M1518 1044h28l-184 -940l129 -26l-4 -25l-262 -53h-29l37 199q-145 -226 -350 -226q-212 0 -207 222q-63 -97 -154 -159.5t-207 -62.5q-258 0 -194 328l123 639l-127 27l4 24l264 53h29l-140 -712q-22 -105 -11.5 -167t39 -87t79.5 -25q89 0 162 57.5t141 163.5
q0 11 4 27l123 639l-127 27l4 24l264 53h29l-139 -712q-29 -152 0 -215.5t106 -63.5q89 0 161.5 63.5t143.5 182.5l125 641l-129 27l4 24z" />
    <glyph glyph-name="uni0449" unicode="&#x449;" horiz-adv-x="1640" 
d="M1518 1044h28l-190 -983h149l-10 -325h-29l-84 264h-186l37 199q-145 -226 -350 -226q-212 0 -207 222q-63 -97 -154 -159.5t-207 -62.5q-258 0 -194 328l123 639l-127 27l4 24l264 53h29l-140 -712q-22 -105 -11.5 -167t39 -87t79.5 -25q89 0 162 57.5t141 163.5
q0 11 4 27l123 639l-127 27l4 24l264 53h29l-139 -712q-29 -152 0 -215.5t106 -63.5q89 0 161.5 63.5t143.5 182.5l125 641l-129 27l4 24z" />
    <glyph glyph-name="uni044A" unicode="&#x44a;" horiz-adv-x="958" 
d="M541 643q169 0 253.5 -75t86.5 -203q0 -71 -30.5 -140t-85 -124.5t-140 -89.5t-187.5 -34q-148 0 -227.5 64.5t-79.5 185.5q0 73 26 144t85 164q85 135 342 442h-293l-182 -252h-29l123 319h565l6 -28q-207 -249 -303 -377q40 4 70 4zM451 33q87 0 151.5 49t94.5 121.5
t30 154.5q0 62 -20 112.5t-70 85t-123 34.5q-46 0 -84 -6q-40 -57 -59 -92q-88 -155 -88 -277q0 -83 44 -132.5t124 -49.5z" />
    <glyph glyph-name="uni044B" unicode="&#x44b;" horiz-adv-x="1353" 
d="M516 641q169 0 253.5 -75.5t84.5 -203.5q1 -69 -29 -137.5t-84 -125t-139 -91.5t-184 -35q-148 0 -227.5 63.5t-79.5 188.5q0 48 40 258q5 24 7 37l80 420l-127 27l4 24l264 53h29l-84 -436q97 33 192 33zM1255 1044h29l-182 -940l129 -26l-4 -25l-262 -53h-29l180 940
l-129 27l6 24zM426 31q89 0 153.5 47.5t93.5 119t29 156.5q0 48 -10.5 87t-33.5 73t-66 53t-103 19q-90 0 -176 -27l-43 -219q-12 -67 -12 -127q0 -182 168 -182z" />
    <glyph glyph-name="uni044C" unicode="&#x44c;" horiz-adv-x="925" 
d="M854 362q1 -69 -29 -137.5t-84 -125t-139 -91.5t-184 -35q-148 0 -227.5 63.5t-79.5 188.5q0 48 40 258q5 24 7 37l80 420l-127 27l4 24l264 53h29l-84 -436q97 33 192 33q169 0 253.5 -75.5t84.5 -203.5zM426 31q89 0 153.5 47.5t93.5 119t29 156.5q0 48 -10.5 87
t-33.5 73t-66 53t-103 19q-90 0 -176 -27l-43 -219q-12 -67 -12 -127q0 -182 168 -182z" />
    <glyph glyph-name="uni044D" unicode="&#x44d;" horiz-adv-x="991" 
d="M528 1075q108 0 188.5 -32.5t126.5 -89.5t68.5 -127t22.5 -152q0 -134 -42.5 -258.5t-118.5 -222.5t-193.5 -157t-257.5 -59q-132 0 -223.5 48t-133.5 116l178 291h39q-40 -68 -59 -115.5t-19 -93.5q0 -80 60.5 -127t165.5 -47q180 0 290.5 125.5t139.5 331.5h-451l15 59
h442q2 25 2 76q0 78 -14 141.5t-44 114.5t-82 79t-124 28q-124 0 -200.5 -68t-76.5 -193q0 -37 9 -77h-39l-60 256q149 153 391 153z" />
    <glyph glyph-name="uni044E" unicode="&#x44e;" horiz-adv-x="1564" 
d="M1126 1075q91 0 161 -29t110.5 -72.5t66 -103t34.5 -112.5t9 -109q0 -118 -44.5 -237t-121.5 -216t-192 -158t-244 -61q-88 0 -158 29.5t-112 75.5t-70 107.5t-38.5 120.5t-10.5 120q0 24 4 64h-201l-81 -424l116 -45l-6 -25h-405l4 25l143 45l168 870l-129 27l6 24
l262 53h29l-94 -489h196q22 102 74.5 195.5t128.5 166t179 115.5t216 43zM948 49q102 0 194.5 82.5t149 220t56.5 289.5q0 73 -13.5 135.5t-42.5 115t-79.5 82.5t-118.5 30q-111 0 -209.5 -76.5t-156.5 -205.5t-58 -276q0 -107 29 -195t93.5 -145t155.5 -57z" />
    <glyph glyph-name="uni044F" unicode="&#x44f;" horiz-adv-x="991" 
d="M776 1044h150l-191 -974l125 -45l-4 -25h-407l6 25l133 45l106 553q-170 -258 -285 -398.5t-191 -192.5t-150 -52q-41 0 -61.5 16t-24.5 35l49 260h41q-18 -92 -7 -137t56 -45q54 0 102.5 25.5t122.5 101t184 217.5q-116 -101 -223 -101q-88 0 -143 49.5t-55 143.5
q0 136 87.5 250t240.5 180.5t339 68.5zM381 436q154 0 334 291l53 274q-138 -2 -256.5 -61.5t-188 -158.5t-69.5 -214q0 -63 33.5 -97t93.5 -34z" />
    <glyph glyph-name="uni0450" unicode="&#x450;" horiz-adv-x="1038" 
d="M678 1147h-27q-323 268 -323 346q0 39 41 39q44 0 122 -94.5t187 -290.5zM438 -23q-182 0 -281.5 115.5t-99.5 296.5q0 107 31.5 210t88 188t130 150.5t163.5 101.5t183 36q177 0 267.5 -118t50.5 -322l-10 -49h-734l-2 -21q-44 -224 38 -370t251 -146q117 0 229.5 80.5
t204.5 230.5h39q-88 -171 -231.5 -277t-317.5 -106zM248 653h569q31 159 -18.5 253.5t-169.5 94.5q-126 0 -232 -98.5t-149 -249.5z" />
    <glyph glyph-name="uni0451" unicode="&#x451;" horiz-adv-x="1038" 
d="M510 1255q-38 0 -61 22t-23 58q0 50 37 87.5t86 37.5q39 0 62.5 -22.5t23.5 -57.5q0 -51 -36.5 -88t-88.5 -37zM825 1255q-38 0 -61 22t-23 58q0 50 37 87.5t86 37.5q40 0 63 -22.5t23 -57.5q0 -51 -36.5 -88t-88.5 -37zM438 -23q-182 0 -281.5 115.5t-99.5 296.5
q0 107 31.5 210t88 188t130 150.5t163.5 101.5t183 36q177 0 267.5 -118t50.5 -322l-10 -49h-734l-2 -21q-44 -224 38 -370t251 -146q117 0 229.5 80.5t204.5 230.5h39q-88 -171 -231.5 -277t-317.5 -106zM248 653h569q31 159 -18.5 253.5t-169.5 94.5q-126 0 -232 -98.5
t-149 -249.5z" />
    <glyph glyph-name="uni0452" unicode="&#x452;" horiz-adv-x="1060" 
d="M766 1075q125 0 185.5 -77.5t27.5 -249.5l-141 -719q-36 -193 -107 -291q-52 -79 -128.5 -120.5t-153.5 -41.5l-140 221l37 27q121 -154 191 -154q39 0 70.5 53.5t49.5 139.5l162 827q32 166 0.5 235.5t-131.5 69.5q-89 0 -185 -81t-147 -183l-129 -661l115 -45l-4 -25
h-406l5 25l141 45l237 1226h-141l14 72h142l32 166l-126 27l4 24l264 53h28l-53 -270h264l-14 -72h-264l-90 -458q25 38 57 73.5t81 75.5t115 64t138 24z" />
    <glyph glyph-name="uni0453" unicode="&#x453;" horiz-adv-x="880" 
d="M532 1147h-26q134 196 228 290.5t143 94.5q17 0 27.5 -8.5t10.5 -22.5q0 -75 -383 -354zM354 -23q128 0 232 47.5t166 116.5l-66 285h-39q6 -27 6 -74q0 -66 -15 -119.5t-48.5 -96.5t-92.5 -67t-141 -24q-97 0 -148.5 42t-51.5 124q0 70 37.5 121.5t98 83.5t133 58.5
t145 56.5t133 67.5t98 100.5t37.5 147q0 108 -82 168.5t-219 60.5q-114 0 -207.5 -43.5t-157.5 -105.5l57 -246h39q-4 23 -4 61q0 123 68.5 195t195.5 72q79 0 129 -39.5t50 -112.5q0 -58 -30 -104t-78.5 -74.5t-111 -56.5t-127 -49.5t-127 -54t-111 -69.5t-78.5 -96
t-30 -133q0 -119 88 -180.5t252 -61.5z" />
    <glyph glyph-name="uni0454" unicode="&#x454;" horiz-adv-x="1015" 
d="M489 49q255 0 447 311h39q-88 -173 -223 -278t-308 -105q-180 0 -283.5 115.5t-103.5 298.5q0 182 84.5 340t227 251t305.5 93q124 0 206 -48t119 -112l-196 -350h-39q84 158 84 264q0 84 -50 129.5t-143 45.5q-155 0 -275.5 -125.5t-156.5 -319.5h424l-14 -61h-420
q-4 -54 -4 -84q0 -164 77.5 -264.5t202.5 -100.5z" />
    <glyph glyph-name="uni0455" unicode="&#x455;" horiz-adv-x="878" 
d="M332 -23q-125 0 -210.5 51t-119.5 124l141 258h45q-20 -39 -35.5 -95t-15.5 -98q0 -84 55.5 -127t157.5 -43q133 0 224.5 68t91.5 164q0 64 -66 103.5t-213 84.5q-231 73 -231 252q0 153 111.5 254.5t277.5 101.5q108 0 183.5 -41.5t113.5 -103.5l-117 -232h-39
q52 146 4.5 228t-172.5 82q-109 0 -186.5 -60.5t-77.5 -146.5q0 -59 55 -97t174 -77q9 -3 28 -9q47 -15 69.5 -23t59.5 -23.5t55.5 -30.5t39 -37.5t29 -51.5t8.5 -65q0 -177 -125 -293.5t-315 -116.5z" />
    <glyph glyph-name="uni0456" unicode="&#x456;" horiz-adv-x="497" 
d="M387 1288q-42 0 -68 25t-26 65q0 56 41 98t96 42q42 0 67 -24.5t25 -63.5q0 -57 -40.5 -99.5t-94.5 -42.5zM356 0h-413l4 25l143 45l168 870l-129 27l6 24l262 53h29l-188 -974l124 -45z" />
    <glyph glyph-name="uni0457" unicode="&#x457;" horiz-adv-x="497" 
d="M258 1288q-38 0 -60 25.5t-22 66.5q0 56 37 97t88 41q37 0 58.5 -25.5t21.5 -65.5q0 -58 -36.5 -98.5t-86.5 -40.5zM535 1288q-38 0 -60 25.5t-22 66.5q0 56 37 97t88 41q37 0 58 -25.5t21 -65.5q0 -58 -36 -98.5t-86 -40.5zM356 0h-413l4 25l143 45l168 870l-129 27
l6 24l262 53h29l-188 -974l124 -45z" />
    <glyph glyph-name="uni0458" unicode="&#x458;" horiz-adv-x="452" 
d="M377 1288q-42 0 -68 24.5t-26 63.5q0 58 40.5 100t96.5 42q42 0 67 -24t25 -64q0 -57 -40 -99.5t-95 -42.5zM-170 -424l-139 221l37 27q121 -154 188 -154q40 0 73 54t48 139l211 1077l-129 27l6 24l262 53h29l-197 -1015q-36 -195 -106 -291q-53 -78 -130 -120t-153 -42
z" />
    <glyph glyph-name="uni0459" unicode="&#x459;" horiz-adv-x="1421" 
d="M1012 641q169 0 253.5 -75t86.5 -204q0 -69 -30.5 -137.5t-85 -125t-140.5 -91.5t-187 -35q-147 0 -226 64t-79 188q0 62 49 295l95 463h-263q-43 -163 -72.5 -271.5t-64.5 -224t-63 -187t-61 -139t-64.5 -103.5t-68.5 -57t-79 -21q-34 0 -52.5 16t-22.5 35l53 276h41
q-21 -101 -14.5 -149.5t42.5 -48.5q77 0 158.5 204t192.5 660l-134 47l5 24h624l-84 -434q103 31 191 31zM920 31q71 0 126 28.5t87 76t48.5 103.5t16.5 115q0 101 -51 168.5t-162 67.5q-83 0 -174 -31l-43 -219q-14 -63 -14 -127q0 -85 42 -133.5t124 -48.5z" />
    <glyph glyph-name="uni045A" unicode="&#x45a;" horiz-adv-x="1492" 
d="M889 590h194q169 0 253.5 -65.5t86.5 -178.5q0 -66 -30.5 -132t-84.5 -120t-138 -87.5t-183 -33.5q-148 0 -227.5 63.5t-79.5 188.5q0 48 40 258q5 24 7 37l2 8h-403l-88 -458l116 -45l-6 -25h-405l4 25l143 45l168 870l-129 27l6 24l262 53h29l-88 -454h403l68 350
l-129 27l4 24l264 53h29zM997 31q129 0 201 90.5t72 218.5q0 188 -213 188h-178l-37 -188q-15 -68 -15 -127q0 -182 170 -182z" />
    <glyph glyph-name="uni045B" unicode="&#x45b;" horiz-adv-x="1099" 
d="M766 1075q124 0 185.5 -74.5t31.5 -232.5l-137 -698l125 -45l-4 -25h-408l6 25l133 45l121 620q32 166 0.5 235.5t-131.5 69.5q-89 0 -185 -81t-147 -183l-129 -661l115 -45l-4 -25h-406l5 25l141 45l237 1226h-141l14 72h142l32 166l-126 27l4 24l264 53h28l-53 -270
h264l-14 -72h-264l-90 -458q25 38 57 73.5t81 75.5t115 64t138 24z" />
    <glyph glyph-name="uni045C" unicode="&#x45c;" horiz-adv-x="1036" 
d="M956 1501q0 -75 -383 -354h-26q134 195 228.5 290t142.5 95q17 0 27.5 -8.5t10.5 -22.5zM397 1044h29l-188 -974l110 -45l-4 -25h-401l4 25l143 45l168 870l-129 27l6 24zM1085 1044l-6 -24l-176 -53l-424 -375l373 -533l121 -34l-6 -25h-432l6 25l131 32l-336 475
l495 441l-167 47l6 24h415z" />
    <glyph glyph-name="uni045D" unicode="&#x45d;" horiz-adv-x="1058" 
d="M649 1147h-26q-324 269 -324 346q0 39 43 39q93 0 307 -385zM315 -27q-258 0 -194 328l123 639l-127 27l4 24l264 53h29l-140 -712q-22 -105 -11.5 -167t39 -87t79.5 -25q94 0 170.5 64t146.5 182l125 641l-129 27l6 24l263 53h28l-182 -940l127 -26l-4 -25l-262 -53h-29
l37 199q-63 -99 -154.5 -162.5t-208.5 -63.5z" />
    <glyph glyph-name="uni045E" unicode="&#x45e;" horiz-adv-x="1095" 
d="M666 1190q57 0 99.5 25t70.5 75t45.5 106.5t31.5 137.5h119q-35 -177 -127.5 -280t-238.5 -103q-151 0 -209.5 104.5t-30.5 278.5h119q-15 -99 -17 -175.5t32 -122.5t106 -46zM12 -424l-164 223l39 27q122 -133 207 -133q79 0 171.5 101t137.5 214l-186 965l-139 47l4 24
h457l-4 -24l-162 -47l153 -805l441 809l-150 43l4 24h400l-4 -24l-183 -47l-483 -871q-53 -95 -98.5 -167t-100.5 -143t-106.5 -116t-111.5 -72.5t-122 -27.5z" />
    <glyph glyph-name="uni045F" unicode="&#x45f;" horiz-adv-x="1058" 
d="M963 1044h28l-182 -940l127 -26l-4 -25l-262 -53h-29l39 203q-17 -24 -59 -72q-52 -70 -98.5 -170t-72 -171.5t-57.5 -124t-65 -52.5q-24 0 -39 14t-15 41q0 108 248 375q-99 -70 -209 -70q-256 0 -192 328l123 639l-127 27l4 24l264 53h29l-140 -712
q-22 -105 -11.5 -167t39 -87t79.5 -25q94 0 170.5 64t146.5 182l125 641l-129 27l6 24z" />
    <glyph glyph-name="uni0490" unicode="&#x490;" horiz-adv-x="1052" 
d="M1290 1829l-125 -350h-575l-273 -1389l142 -65l-4 -25h-482l4 25l166 65l269 1378l-142 64l6 24h779l207 273h28z" />
    <glyph glyph-name="uni0491" unicode="&#x491;" horiz-adv-x="757" 
d="M903 1290l-115 -307h-374l-176 -913l133 -45l-6 -25h-422l4 25l143 45l174 905l-123 45l4 24h549l180 246h29z" />
    <glyph glyph-name="uni0492" unicode="&#x492;" horiz-adv-x="1083" 
d="M276 1556h922l10 -317h-28l-103 242h-489l-129 -668h301l-15 -72h-301l-125 -647l158 -69l-4 -25h-502l4 25l168 65l127 651h-141l14 72h142l127 655l-142 64z" />
    <glyph glyph-name="uni0493" unicode="&#x493;" horiz-adv-x="886" 
d="M836 512h-312q-16 -6 -52.5 -19.5t-54.5 -20.5t-50 -20.5t-49 -22.5t-43 -24.5t-40 -28.5t-31 -32t-25.5 -38.5t-14.5 -43.5t-6 -51q0 -82 51.5 -124t148.5 -42q82 0 141 24t92.5 67t48.5 96.5t15 119.5q0 34 -6 74h37l68 -285q-64 -69 -168 -116.5t-232 -47.5
q-163 0 -251.5 61.5t-88.5 180.5q0 106 55 174.5t154 118.5h-166l15 72h321q47 18 69.5 26.5t63 26.5t61 31.5t48 35t41 42.5t23.5 49.5t10 60.5q0 73 -50 112.5t-129 39.5q-127 0 -195.5 -72t-68.5 -195q0 -38 4 -61h-39l-57 246q64 62 157.5 105.5t205.5 43.5
q139 0 221 -60t82 -169q0 -92 -42 -154.5t-118 -107.5h170z" />
    <glyph glyph-name="uni0496" unicode="&#x496;" horiz-adv-x="1865" 
d="M1960 1532l-176 -43l-600 -590l461 -821h165l-12 -350h-29l-86 272h-391l4 25l164 49l-407 727l-138 -711l134 -65l-7 -25h-460l6 25l157 65l140 711l-688 -727l141 -49l-4 -25h-475l6 25l141 51l782 831l-366 582l-166 43l4 24h408l-6 -24l-166 -41l397 -639l121 616
l-142 64l5 24h477l-4 -24l-166 -64l-121 -616l647 639l-149 41l4 24h399z" />
    <glyph glyph-name="uni0497" unicode="&#x497;" horiz-adv-x="1820" 
d="M1700 360q-28 -87 -34.5 -149t-0.5 -136t6 -93q0 -54 -10 -99t-33 -83.5t-67 -60.5t-105 -22q-31 0 -110 17v37q106 0 154.5 43t70.5 151q23 127 39 189q-89 -177 -224 -177q-105 0 -152.5 83.5t-47.5 226.5q0 97 22 207h-239l-101 -494h-147l100 494h-243
q-37 -138 -100.5 -253t-155 -189.5t-189.5 -74.5q-62 0 -99 40.5t-42 101.5l182 368h39q-113 -251 -113 -350q0 -88 62 -88q75 0 147 118.5t114 285t42 313.5q0 109 -27.5 167t-79.5 58q-57 0 -109.5 -73.5t-107.5 -225.5h-39q55 188 128 285.5t186 97.5q70 0 116 -41
t65 -108t19 -160q0 -98 -22 -211h240l77 385l-129 27l4 24l265 53h28l-98 -489h242q37 140 100.5 255t154.5 190t189 75q65 0 102.5 -38.5t40.5 -102.5l-182 -369h-39q113 258 113 353q0 44 -14 65t-48 21q-75 0 -147.5 -118t-115 -284.5t-42.5 -314.5q0 -108 28 -166
t79 -58q59 0 112.5 73.5t106.5 223.5h39z" />
    <glyph glyph-name="uni049A" unicode="&#x49a;" horiz-adv-x="1280" 
d="M1212 -272h-28l-88 272h-402l4 25l162 49l-405 717l-138 -701l142 -65l-4 -25h-482l4 25l166 65l269 1378l-142 64l6 24h482l-6 -24l-166 -64l-119 -610l653 633l-149 41l4 24h399l-4 -24l-182 -43l-580 -563l465 -848h152z" />
    <glyph glyph-name="uni049B" unicode="&#x49b;" horiz-adv-x="1056" 
d="M397 1044h29l-188 -974l110 -45l-4 -25h-401l4 25l143 45l168 870l-129 27l6 24zM1079 1020l-176 -53l-424 -375l371 -531h137l-10 -325h-29l-71 264h-342l6 25l131 32l-336 475l495 441l-167 47l6 24h415z" />
    <glyph glyph-name="uni04A2" unicode="&#x4a2;" horiz-adv-x="1615" 
d="M1202 1532l6 24h482l-7 -24l-165 -64l-271 -1390h191l-13 -350h-28l-82 272h-410l4 25l166 65l135 690h-757l-136 -690l142 -65l-4 -25h-482l4 25l166 65l269 1378l-142 64l6 24h482l-6 -24l-166 -64l-117 -610h758l116 610z" />
    <glyph glyph-name="uni04A3" unicode="&#x4a3;" horiz-adv-x="1105" 
d="M993 1044h29l-191 -983h148l-10 -325h-29l-82 264h-313l6 25l133 45l82 424h-447l-81 -424l116 -45l-6 -25h-405l4 25l143 45l168 870l-129 27l6 24l262 53h29l-94 -489h446l74 385l-127 27l4 24z" />
    <glyph glyph-name="uni04AE" unicode="&#x4ae;" horiz-adv-x="1302" 
d="M795 0h-482l6 25l166 65l95 485l-295 902l-138 55l5 24h489l-4 -24l-158 -49l264 -821l562 817l-179 53l4 24h408l-4 -24l-162 -57l-616 -887l-97 -498l142 -65z" />
    <glyph glyph-name="uni04AF" unicode="&#x4af;" horiz-adv-x="1069" 
d="M784 1020l4 24h400l-4 -24l-176 -47l-502 -973l-66 -340l125 -45l-6 -25h-414l5 25l141 45l67 340l-149 969l-131 51l4 24h457l-4 -24l-170 -49l124 -891l453 897z" />
    <glyph glyph-name="uni04B0" unicode="&#x4b0;" horiz-adv-x="1308" 
d="M1128 1532l5 24h407l-4 -24l-162 -57l-616 -887h239l-14 -72h-240l-81 -426l141 -65l-6 -25h-482l7 25l165 65l82 426h-237l14 72h232l-291 889l-137 55l4 24h489l-4 -24l-158 -49l264 -821l562 817z" />
    <glyph glyph-name="uni04B1" unicode="&#x4b1;" horiz-adv-x="1069" 
d="M784 1020l4 24h400l-4 -24l-176 -47l-502 -973h207l-11 -51h-206l-56 -289l125 -45l-6 -25h-414l5 25l141 45l57 289h-219l10 51h219l-149 969l-131 51l4 24h457l-4 -24l-170 -49l124 -891l453 897z" />
    <glyph glyph-name="uni04B2" unicode="&#x4b2;" horiz-adv-x="1339" 
d="M1049 1532l6 24h399l-6 -24l-164 -66l-508 -626l338 -762h168l-14 -350h-29l-86 272h-395l6 25l158 53l-275 622l-508 -622l174 -53l-6 -25h-403l6 25l153 53l560 680l-314 710l-133 64l4 24h473l-4 -24l-155 -55l256 -582l469 578z" />
    <glyph glyph-name="uni04B3" unicode="&#x4b3;" horiz-adv-x="1044" 
d="M1069 1020l-149 -47l-332 -391l250 -521h129l-11 -325h-28l-82 264h-352l6 25l153 36l-188 392l-352 -392l186 -36l-6 -25h-391l6 25l141 38l391 443l-217 465l-125 49l4 24h457l-4 -24l-152 -47l160 -340l293 340l-178 47l4 24h391z" />
    <glyph glyph-name="uni04B6" unicode="&#x4b6;" horiz-adv-x="1464" 
d="M1053 1532l4 24h481l-4 -24l-166 -64l-272 -1390h190l-12 -350h-29l-82 272h-409l6 25l166 65l129 660q-234 -101 -449 -101q-226 0 -310 90.5t-46 286.5l88 455l-143 51l4 24h481l-4 -24l-164 -51l-90 -459q-29 -154 28.5 -222.5t215.5 -68.5q196 0 401 80l127 657z" />
    <glyph glyph-name="uni04B7" unicode="&#x4b7;" horiz-adv-x="1042" 
d="M930 1044h28l-190 -983h150l-11 -325h-28l-82 264h-330l4 25l152 45l94 487q-148 -156 -330 -156q-102 0 -158.5 50.5t-56.5 150.5q0 46 18 141l37 197l-127 27l4 24l265 53h28l-59 -315q-12 -61 -12 -104q0 -148 135 -148q154 0 272 162l58 301l-129 27l6 24z" />
    <glyph glyph-name="uni04BA" unicode="&#x4ba;" horiz-adv-x="1413" 
d="M1262 530l-91 -454l146 -51l-6 -25h-482l7 25l161 51l90 459q31 154 -26 222t-215 68q-197 0 -402 -80l-127 -657l142 -63l-6 -25h-482l6 25l166 63l269 1378l-142 66l4 24h482l-4 -24l-166 -66l-129 -659q38 18 87.5 36t155 41t203.5 23q226 0 311.5 -90.5t47.5 -286.5z
" />
    <glyph glyph-name="uni04BB" unicode="&#x4bb;" horiz-adv-x="1099" 
d="M338 0h-406l5 25l141 45l284 1464l-126 27l4 24l264 53h28l-157 -800q25 38 57 73.5t81 75.5t115 64t138 24q124 0 185.5 -74.5t31.5 -232.5l-137 -698l125 -45l-4 -25h-408l6 25l133 45l121 620q32 166 0.5 235.5t-131.5 69.5q-89 0 -185 -81t-147 -183l-129 -661
l115 -45z" />
    <glyph glyph-name="uni04C0" unicode="&#x4c0;" horiz-adv-x="630" 
d="M455 0h-482l4 25l166 65l269 1378l-142 64l6 24h482l-6 -24l-166 -64l-269 -1378l142 -65z" />
    <glyph glyph-name="uni04CF" unicode="&#x4cf;" horiz-adv-x="485" 
d="M346 0h-414l5 25l141 45l284 1464l-126 27l4 24l264 53h28l-305 -1568l123 -45z" />
    <glyph glyph-name="uni04D8" unicode="&#x4d8;" horiz-adv-x="1587" 
d="M915 1573q305 0 479.5 -173t174.5 -470q0 -184 -73 -358.5t-194.5 -305t-291 -210t-351.5 -79.5q-251 0 -409 159.5t-158 414.5q0 121 39 246h1221q10 95 10 172q0 268 -123 403t-340 135q-101 0 -192.5 -34t-169.5 -101.5t-136 -177.5t-86 -252h-43l88 455q23 24 71 52
t118 57t167.5 48t198.5 19zM717 53q119 0 224 52t182.5 143.5t132 211.5t81.5 259h-1034q-14 -85 -14 -158q0 -234 123.5 -371t304.5 -137z" />
    <glyph glyph-name="uni04D9" unicode="&#x4d9;" horiz-adv-x="1058" 
d="M616 1055q122 0 210 -55.5t130.5 -147t42.5 -209.5q0 -133 -49.5 -259.5t-131 -219.5t-191.5 -150t-226 -57q-175 0 -265 118t-50 322l10 49h731l4 21q43 224 -39 370t-249 146q-118 0 -231 -80.5t-203 -230.5h-39q88 171 230.5 277t315.5 106zM807 379h-567
q-31 -159 18 -253.5t170 -94.5q125 0 231 98.5t148 249.5z" />
    <glyph glyph-name="uni04E2" unicode="&#x4e2;" horiz-adv-x="1583" 
d="M762 1868h555l-19 -94h-555zM1223 1532l4 24h481l-4 -24l-164 -51l-270 -1391l141 -65l-6 -25h-481l6 25l166 65l217 1120l-967 -972l-29 -148l142 -65l-6 -25h-482l6 25l166 65l271 1391l-144 51l4 24h482l-4 -24l-164 -51l-221 -1137l966 971l33 166z" />
    <glyph glyph-name="uni04E3" unicode="&#x4e3;" horiz-adv-x="1058" 
d="M913 1241h-555l19 94h555zM315 -27q-258 0 -194 328l123 639l-127 27l4 24l264 53h29l-140 -712q-22 -105 -11.5 -167t39 -87t79.5 -25q94 0 170.5 64t146.5 182l125 641l-129 27l6 24l263 53h28l-182 -940l127 -26l-4 -25l-262 -53h-29l37 199q-63 -99 -154.5 -162.5
t-208.5 -63.5z" />
    <glyph glyph-name="uni04E8" unicode="&#x4e8;" horiz-adv-x="1640" 
d="M1034 1573q173 0 308.5 -81t210.5 -224.5t75 -325.5q0 -190 -84 -370t-216.5 -309t-302.5 -207.5t-337 -78.5q-256 0 -415.5 176.5t-159.5 456.5q0 131 37 257.5t101.5 231t153.5 194t190.5 150.5t214.5 95.5t224 34.5zM975 1497q-151 0 -283.5 -85.5t-223 -229.5
t-130.5 -324h1079q4 66 4 100q0 140 -34.5 246t-96.5 168.5t-141 93.5t-174 31zM762 53q75 0 155.5 30t159.5 92t146 147t116.5 204t69.5 254h-1085q-13 -89 -13 -168q0 -111 25 -204t68 -157.5t101 -110t123 -66.5t134 -21z" />
    <glyph glyph-name="uni04E9" unicode="&#x4e9;" horiz-adv-x="1124" 
d="M680 1075q85 0 153 -24t111.5 -63.5t73 -93.5t41.5 -111t12 -119q0 -125 -48.5 -249t-129.5 -220.5t-195.5 -157t-238.5 -60.5q-104 0 -183.5 38t-125.5 102t-68.5 139.5t-22.5 159.5q0 167 83 318.5t227.5 246t310.5 94.5zM645 1004q-146 0 -267 -129.5t-155 -317.5h680
q6 49 6 100q0 151 -67.5 249t-196.5 98zM500 49q125 0 237 129.5t154 313.5h-678q-2 -20 -2 -60q0 -162 77 -272.5t212 -110.5z" />
    <glyph glyph-name="uni04EE" unicode="&#x4ee;" horiz-adv-x="1304" 
d="M666 1868h555l-17 -94h-555zM1137 1532l4 24h413l-6 -24l-166 -57l-704 -1117q-70 -111 -117.5 -175.5t-101 -114t-106.5 -69t-120 -19.5q-137 0 -182 92l187 325h34q-79 -141 -88 -176q-15 -57 15 -92t88 -35q90 0 159.5 55t159.5 193l-299 1135l-141 55l4 24h489
l-4 -24l-151 -49l231 -934l578 930z" />
    <glyph glyph-name="uni04EF" unicode="&#x4ef;" horiz-adv-x="1095" 
d="M954 1241h-555l19 94h555zM12 -424l-164 223l39 27q122 -133 207 -133q79 0 171.5 101t137.5 214l-186 965l-139 47l4 24h457l-4 -24l-162 -47l153 -805l441 809l-150 43l4 24h400l-4 -24l-183 -47l-483 -871q-53 -95 -98.5 -167t-100.5 -143t-106.5 -116t-111.5 -72.5
t-122 -27.5z" />
    <glyph glyph-name="Wgrave" unicode="&#x1e80;" horiz-adv-x="2127" 
d="M1352 1659h-27q-324 271 -324 346q0 39 43 39q44 0 122.5 -94.5t185.5 -290.5zM545 0h-64l-196 1458l-148 74l6 24h490l-6 -24l-142 -64l150 -1157l622 1245h119l185 -1245l573 1157l-172 64l4 24h399l-4 -24l-157 -64l-734 -1468h-65l-193 1325z" />
    <glyph glyph-name="wgrave" unicode="&#x1e81;" horiz-adv-x="1599" 
d="M975 1147h-27q-323 268 -323 346q0 39 43 39q93 0 307 -385zM438 0h-102l-115 967l-145 53l6 24h457l-7 -24l-149 -47l88 -778l403 849h134l90 -849l370 782l-151 43l6 24h399l-6 -24l-184 -45l-469 -975h-102l-97 899z" />
    <glyph glyph-name="Wacute" unicode="&#x1e82;" horiz-adv-x="2127" 
d="M1311 1659h-27q134 196 228 290.5t143 94.5q17 0 28 -8.5t11 -22.5q0 -75 -383 -354zM545 0h-64l-196 1458l-148 74l6 24h490l-6 -24l-142 -64l150 -1157l622 1245h119l185 -1245l573 1157l-172 64l4 24h399l-4 -24l-157 -64l-734 -1468h-65l-193 1325z" />
    <glyph glyph-name="wacute" unicode="&#x1e83;" horiz-adv-x="1599" 
d="M932 1147h-27q134 195 229 290t144 95q15 0 27 -9t12 -22q0 -76 -385 -354zM438 0h-102l-115 967l-145 53l6 24h457l-7 -24l-149 -47l88 -778l403 849h134l90 -849l370 782l-151 43l6 24h399l-6 -24l-184 -45l-469 -975h-102l-97 899z" />
    <glyph glyph-name="Wdieresis" unicode="&#x1e84;" horiz-adv-x="2127" 
d="M1153 1706q-38 0 -61 22t-23 58q0 50 37 87.5t86 37.5q40 0 63 -22.5t23 -57.5q0 -51 -36.5 -88t-88.5 -37zM1468 1706q-38 0 -60 22t-22 58q0 50 37 87.5t86 37.5q39 0 62.5 -22.5t23.5 -57.5q0 -51 -36.5 -88t-90.5 -37zM545 0h-64l-196 1458l-148 74l6 24h490l-6 -24
l-142 -64l150 -1157l622 1245h119l185 -1245l573 1157l-172 64l4 24h399l-4 -24l-157 -64l-734 -1468h-65l-193 1325z" />
    <glyph glyph-name="wdieresis" unicode="&#x1e85;" horiz-adv-x="1599" 
d="M807 1255q-38 0 -61 22t-23 58q0 50 37 87.5t86 37.5q40 0 63 -22.5t23 -57.5q0 -51 -36.5 -88t-88.5 -37zM1122 1255q-38 0 -60 22t-22 58q0 50 37 87.5t86 37.5q39 0 62.5 -22.5t23.5 -57.5q0 -52 -36.5 -88.5t-90.5 -36.5zM438 0h-102l-115 967l-145 53l6 24h457
l-7 -24l-149 -47l88 -778l403 849h134l90 -849l370 782l-151 43l6 24h399l-6 -24l-184 -45l-469 -975h-102l-97 899z" />
    <glyph glyph-name="uni1E9E" unicode="&#x1e9e;" horiz-adv-x="1339" 
d="M858 -23q-108 0 -187.5 51.5t-111.5 123.5l139 258h47q-53 -110 -53 -201q0 -80 47.5 -121t134.5 -41q125 0 206 70t81 172q0 73 -39.5 113t-111.5 73q-7 3 -31 14.5t-33 15.5t-30.5 15.5t-31 18.5t-27 20t-25.5 24.5t-20 28t-17 33t-9 37.5t-4 45q0 52 17.5 95t45.5 73
t61.5 57l67 54t61.5 57.5t45.5 74.5t17.5 97q0 113 -72.5 184.5t-202.5 71.5q-71 0 -129 -25.5t-96 -70t-62.5 -97.5t-35.5 -114l-232 -1184h-307l4 25l144 45l210 1089q5 28 10.5 52t22.5 69t38.5 81t60 78t86 70t119 47t155.5 19q182 0 273.5 -81t91.5 -226
q0 -69 -21 -124.5t-53 -89t-68.5 -64t-68.5 -53t-53 -53.5t-21 -67q0 -23 9 -43t21 -33.5t37 -29t42 -24t52.5 -25t53.5 -25.5q44 -23 72 -41.5t53.5 -46.5t37 -65t11.5 -87q0 -172 -122 -296t-300 -124z" />
    <glyph glyph-name="Ygrave" unicode="&#x1ef2;" horiz-adv-x="1302" 
d="M911 1659h-26q-324 269 -324 346q0 39 43 39q93 0 307 -385zM795 0h-482l6 25l166 65l95 485l-295 902l-138 55l5 24h489l-4 -24l-158 -49l264 -821l562 817l-179 53l4 24h408l-4 -24l-162 -57l-616 -887l-97 -498l142 -65z" />
    <glyph glyph-name="ygrave" unicode="&#x1ef3;" horiz-adv-x="1095" 
d="M702 1147h-26q-324 269 -324 346q0 39 41 39q44 0 122 -94.5t187 -290.5zM12 -424l-164 223l39 27q122 -133 207 -133q79 0 171.5 101t137.5 214l-186 965l-139 47l4 24h457l-4 -24l-162 -47l153 -805l441 809l-150 43l4 24h400l-4 -24l-183 -47l-483 -871
q-53 -95 -98.5 -167t-100.5 -143t-106.5 -116t-111.5 -72.5t-122 -27.5z" />
    <glyph glyph-name="uni2009" unicode="&#x2009;" horiz-adv-x="446" 
 />
    <glyph glyph-name="endash" unicode="&#x2013;" horiz-adv-x="886" 
d="M805 524h-723l18 103h723z" />
    <glyph glyph-name="emdash" unicode="&#x2014;" horiz-adv-x="1296" 
d="M1214 524h-1132l18 103h1133z" />
    <glyph glyph-name="quoteleft" unicode="&#x2018;" horiz-adv-x="344" 
d="M270 1065q-35 0 -56 21t-21 61q0 79 80 210.5t180 213.5h28q-139 -136 -139 -262q0 -97 41 -150q-9 -45 -41 -69.5t-72 -24.5z" />
    <glyph glyph-name="quoteright" unicode="&#x2019;" horiz-adv-x="352" 
d="M213 1065h-29q71 69 104.5 130t33.5 130q0 101 -39 152q9 45 40 69.5t72 24.5q35 0 56.5 -22t21.5 -62q0 -78 -79.5 -208.5t-180.5 -213.5z" />
    <glyph glyph-name="quotesinglbase" unicode="&#x201a;" horiz-adv-x="356" 
d="M-82 -311h-22q153 159 153 268q0 48 -51 133q9 49 45.5 80t79.5 31q41 0 65.5 -23t24.5 -63q0 -73 -82 -191.5t-213 -234.5z" />
    <glyph glyph-name="quotedblleft" unicode="&#x201c;" horiz-adv-x="600" 
d="M270 1065q-35 0 -56 21t-21 61q0 79 80 210.5t180 213.5h28q-139 -136 -139 -262q0 -97 41 -150q-9 -45 -40.5 -69.5t-72.5 -24.5zM526 1065q-35 0 -56 21t-21 61q0 78 80.5 209.5t179.5 214.5h28q-139 -136 -139 -262q0 -97 41 -150q-9 -45 -41 -69.5t-72 -24.5z" />
    <glyph glyph-name="quotedblright" unicode="&#x201d;" horiz-adv-x="618" 
d="M213 1065h-29q71 69 104.5 130t33.5 130q0 101 -39 152q9 45 40 69.5t72 24.5q35 0 56.5 -22t21.5 -62q0 -78 -79.5 -208.5t-180.5 -213.5zM479 1065h-28q70 69 103.5 129.5t33.5 130.5q0 101 -39 152q9 45 40.5 69.5t72.5 24.5q35 0 56 -22t21 -62q0 -78 -79.5 -208.5
t-180.5 -213.5z" />
    <glyph glyph-name="quotedblbase" unicode="&#x201e;" horiz-adv-x="610" 
d="M-74 -326h-28q126 123 135 226q6 46 -4 100.5t-33 85.5q9 45 40.5 69.5t72.5 24.5q40 0 60.5 -26t14.5 -76q-8 -75 -80 -195.5t-178 -208.5zM205 -326h-29q126 123 135 226q6 46 -4 100.5t-33 85.5q9 45 40.5 69.5t72.5 24.5q40 0 61 -26.5t15 -75.5q-8 -75 -80 -195.5
t-178 -208.5z" />
    <glyph glyph-name="dagger" unicode="&#x2020;" horiz-adv-x="1032" 
d="M965 1169l116 166h37l-96 -487h-37l-51 166h-234l-176 -905l140 -72l-9 -37h-481l8 37l168 72l176 905h-227l-125 -166h-37l94 487h37l62 -166h227l66 340l-136 93l7 36h481l-6 -36l-172 -93l-66 -340h234z" />
    <glyph glyph-name="daggerdbl" unicode="&#x2021;" horiz-adv-x="1005" 
d="M825 942h-481l6 37l180 59l39 191h-176l-117 -182h-36l96 487h37l43 -182h176l35 170l-156 80l8 36h482l-9 -36l-184 -80l-35 -170h185l106 182h37l-94 -487h-37l-37 182h-182l-39 -191l159 -59zM641 0h-481l6 37l182 59l37 191h-176l-115 -183h-37l95 488h36l45 -182
h177l32 170l-153 79l8 37h481l-8 -37l-186 -79l-33 -170h182l109 182h37l-95 -488h-36l-37 183h-185l-37 -191l158 -59z" />
    <glyph glyph-name="bullet" unicode="&#x2022;" horiz-adv-x="665" 
d="M303 375q-66 0 -104.5 39t-38.5 102q0 84 61.5 144.5t149.5 60.5q65 0 104 -41t39 -105q0 -84 -61.5 -142t-149.5 -58z" />
    <glyph glyph-name="ellipsis" unicode="&#x2026;" horiz-adv-x="1069" 
d="M98 -23q-43 0 -68.5 26t-25.5 65q0 54 40 93.5t97 39.5q41 0 66.5 -27.5t25.5 -67.5q0 -54 -39.5 -91.5t-95.5 -37.5zM442 -23q-43 0 -68.5 26t-25.5 65q0 54 40 93.5t97 39.5q41 0 67 -27.5t26 -67.5q0 -54 -40 -91.5t-96 -37.5zM786 -23q-43 0 -68.5 26t-25.5 65
q0 54 40 93.5t97 39.5q41 0 67 -27.5t26 -67.5q0 -54 -40 -91.5t-96 -37.5z" />
    <glyph glyph-name="perthousand" unicode="&#x2030;" horiz-adv-x="2584" 
d="M432 815q-64 0 -113.5 26.5t-78.5 72t-43.5 99.5t-14.5 115q0 89 32 180.5t87 166.5t136.5 122.5t172.5 47.5q52 0 95 -19t72 -51t49 -74.5t29 -88.5t9 -95q0 -88 -32.5 -178t-88.5 -161.5t-138 -117t-173 -45.5zM463 862q47 0 93.5 28.5t86.5 83t65 146t25 205.5
q0 120 -42 197t-111 77q-45 0 -92.5 -31t-88.5 -87.5t-67.5 -149t-26.5 -203.5q0 -118 43.5 -192t114.5 -74zM299 0h-86l1384 1556h91zM1329 -12q-64 0 -113.5 26.5t-78.5 72t-43.5 99.5t-14.5 115q0 89 32 180.5t87 166t136.5 122t172.5 47.5q52 0 95 -19t72 -51t49 -74.5
t29 -88.5t9 -95q0 -88 -32.5 -177.5t-88.5 -161.5t-138 -117t-173 -45zM2081 -12q-64 0 -113.5 26.5t-78.5 72t-43.5 99.5t-14.5 115q0 89 32 180.5t87 166t136.5 122t172.5 47.5q52 0 95 -19t72 -51t49 -74.5t29 -88.5t9 -95q0 -88 -32.5 -177.5t-88.5 -161.5t-138 -117
t-173 -45zM1360 35q47 0 93.5 28.5t86.5 83t65 146t25 205.5q0 120 -42 197t-111 77q-45 0 -92.5 -31t-88.5 -87.5t-67.5 -149t-26.5 -203.5q0 -118 43.5 -192t114.5 -74zM2111 35q47 0 93.5 28.5t87 83t65.5 146t25 205.5q0 120 -42 197t-112 77q-45 0 -92.5 -31
t-88.5 -87.5t-67 -149t-26 -203.5q0 -118 43 -192t114 -74z" />
    <glyph glyph-name="guilsinglleft" unicode="&#x2039;" horiz-adv-x="606" 
d="M440 145h-43l-323 373l6 29l467 371h43q-29 -29 -391 -386q206 -329 241 -387z" />
    <glyph glyph-name="guilsinglright" unicode="&#x203a;" horiz-adv-x="606" 
d="M61 145h-43q106 107 394 387q-217 342 -244 386h43l324 -371l-7 -29z" />
    <glyph glyph-name="fraction" unicode="&#x2044;" horiz-adv-x="385" 
d="M-410 0h-86l1385 1556h90z" />
    <glyph glyph-name="Euro" unicode="&#x20ac;" horiz-adv-x="1304" 
d="M1030 1573q217 0 316 -176l-62 -307h-49q21 126 12.5 218t-66.5 144.5t-165 52.5q-177 0 -318 -161t-200 -439h383l-19 -90h-383q-12 -89 -14 -141h371l-19 -90h-358v-54q0 -233 74.5 -359t203.5 -126t233 107.5t144 308.5h49l-59 -307q-164 -177 -381 -177
q-106 0 -187.5 50t-130 135t-72.5 189t-24 222v11h-215l19 90h200q6 70 21 141h-195l19 90h196q28 106 70.5 202.5t104 182t135.5 148t168 99t198 36.5z" />
    <glyph glyph-name="uni20B4" unicode="&#x20b4;" horiz-adv-x="1290" 
d="M1120 973h158l-16 -90h-1106l18 90h727q72 51 115 137.5t43 177.5q0 100 -61.5 159.5t-178.5 59.5q-146 0 -235 -73.5t-101 -216.5q-3 -54 9 -125h-50l-73 315q211 166 467 166q202 0 304.5 -81t102.5 -224q0 -78 -33.5 -156.5t-89.5 -138.5zM260 662h-147l18 90h1106
l-18 -90h-715q-104 -62 -156.5 -157t-52.5 -192q0 -130 75 -200t203 -70q196 0 312.5 120t130.5 335q6 41 6 77h49l51 -358q-244 -240 -567 -240q-208 0 -318 92t-110 261q0 89 33 176t100 156z" />
    <glyph glyph-name="uni20B8" unicode="&#x20b8;" horiz-adv-x="1394" 
d="M307 1466l17 90h1144l-16 -90h-1145zM834 0h-482l4 25l168 65l226 1159h-383l-189 -241h-33l134 317h1144l11 -317h-33l-94 241h-383l-226 -1159l140 -65z" />
    <glyph glyph-name="uni20BD" unicode="&#x20bd;" horiz-adv-x="1320" 
d="M762 731h-223l-27 -141h573l-18 -90h-573l-80 -410l139 -65l-4 -25h-481l4 25l168 65l79 410h-237l18 90h236l29 141h-236l16 90h236l127 647l-141 64l4 24h571q88 0 165 -19.5t138.5 -57.5t97 -100.5t35.5 -141.5q0 -137 -83.5 -254t-225.5 -184.5t-307 -67.5zM887 1479
h-205l-129 -670h205q197 0 320.5 120.5t123.5 313.5q0 236 -315 236z" />
    <glyph glyph-name="uni2116" unicode="&#x2116;" horiz-adv-x="2254" 
d="M2007 1573q63 0 113.5 -18.5t82.5 -49.5t53 -73.5t29.5 -87t8.5 -93.5q0 -90 -33.5 -180t-91.5 -163t-147.5 -119t-192.5 -46q-75 0 -132.5 28t-90 76t-48.5 103.5t-16 116.5q0 72 20.5 144t61.5 137t96 115.5t129.5 80t157.5 29.5zM383 0h-399l6 25l166 65l268 1378
l-141 64l4 24h256l544 -1173l211 1085l-141 64l4 24h400l-5 -24l-165 -64l-287 -1468h-60l-571 1239l-223 -1149l139 -65zM1858 791q84 0 154.5 74.5t107.5 181.5t37 215q0 266 -179 266q-84 0 -154.5 -74.5t-107.5 -181.5t-37 -215q0 -117 45.5 -191.5t133.5 -74.5z
M2132 485h-682l16 82h682z" />
    <glyph glyph-name="trademark" unicode="&#x2122;" horiz-adv-x="1386" 
d="M489 948h-188l4 19l66 30l100 519h-143l-72 -82h-23l52 122h454l4 -122h-22l-39 82h-145l-101 -519l58 -30zM897 948h-186l2 15l67 34l99 510l-45 31l4 18h141l98 -493l285 493h108l-4 -18l-55 -31l-98 -510l49 -34l-2 -15h-189l3 15l73 34l86 443l-280 -492h-31l-94 475
l-82 -426l53 -34z" />
    <glyph glyph-name="oneeighth" unicode="&#x215b;" horiz-adv-x="1753" 
d="M489 827h-296l2 15l102 37l131 671l-213 -192l6 31l217 247h201l-4 -18l-94 -31l-140 -708l91 -37zM242 0h-86l1384 1556h90zM1276 -12q-116 0 -184 51t-68 137q0 92 65 163.5t171 94.5q-57 13 -91 54.5t-34 97.5q0 103 86 167t223 64q102 0 163.5 -46.5t61.5 -121.5
q0 -65 -55 -123.5t-144 -89.5h-18q83 -12 132.5 -63t49.5 -125q0 -115 -100 -187.5t-258 -72.5zM1372 455q78 0 128 51t50 131q0 62 -35.5 100.5t-95.5 38.5q-79 0 -127.5 -52t-48.5 -134q0 -61 35 -98t94 -37zM1300 31q97 0 158.5 60.5t61.5 158.5q0 71 -44.5 115.5
t-117.5 44.5q-99 0 -162 -60.5t-63 -156.5q0 -73 45.5 -117.5t121.5 -44.5z" />
    <glyph glyph-name="threeeighths" unicode="&#x215c;" horiz-adv-x="1937" 
d="M373 815q-92 0 -160.5 35.5t-77.5 93.5l72 168h37q-33 -112 -33 -133q0 -62 52.5 -94.5t123.5 -32.5q104 0 179 78.5t75 187.5q0 53 -31 82t-90 29q-24 0 -69.5 -12t-81.5 -29l10 43q132 48 205 116t73 150q0 47 -33 76t-94 29q-80 0 -136 -49t-62 -136q-4 -60 -2 -88
h-33l-31 170q48 57 125 101.5t158 44.5q94 0 156.5 -36.5t62.5 -101.5q0 -72 -72 -139t-188 -113q99 16 169.5 -21.5t70.5 -121.5q0 -120 -111.5 -208.5t-263.5 -88.5zM428 0h-86l1384 1556h91zM1462 -12q-116 0 -184 51t-68 137q0 92 65 163.5t171 94.5q-57 13 -91 54.5
t-34 97.5q0 103 86 167t223 64q102 0 163.5 -46.5t61.5 -121.5q0 -65 -54.5 -123.5t-143.5 -89.5h-19q83 -12 133 -63t50 -125q0 -115 -100 -187.5t-259 -72.5zM1559 455q78 0 128 51t50 131q0 62 -35.5 100.5t-95.5 38.5q-79 0 -127.5 -52t-48.5 -134q0 -61 35 -98t94 -37z
M1487 31q97 0 158 60.5t61 158.5q0 71 -44.5 115.5t-117.5 44.5q-99 0 -162 -60.5t-63 -156.5q0 -72 46 -117t122 -45z" />
    <glyph glyph-name="fiveeighths" unicode="&#x215d;" horiz-adv-x="2080" 
d="M463 817q-239 0 -309 275h36q36 -111 93.5 -170.5t158.5 -59.5q132 0 223 88.5t91 214.5q0 73 -40.5 119.5t-113.5 46.5q-69 0 -134 -45t-106 -131h-98l166 426l-76 37l4 18h504l8 -170h-22l-72 131h-244l-137 -340q45 54 112.5 86.5t139.5 32.5q99 0 163 -60.5
t64 -156.5q0 -95 -59 -175t-153.5 -123.5t-198.5 -43.5zM559 0h-86l1385 1556h90zM1593 -12q-116 0 -185 51t-69 137q0 92 65 163.5t171 94.5q-57 13 -91 54.5t-34 97.5q0 103 86 167t223 64q102 0 164 -46.5t62 -121.5q0 -66 -54.5 -124t-144.5 -89h-19q84 -12 133.5 -63
t49.5 -125q0 -115 -99.5 -187.5t-257.5 -72.5zM1688 455q78 0 129 51.5t51 130.5q0 62 -36 100.5t-97 38.5q-78 0 -127 -52t-49 -134q0 -60 35.5 -97.5t93.5 -37.5zM1616 31q97 0 158 60.5t61 158.5q0 71 -44 115.5t-118 44.5q-99 0 -162 -60.5t-63 -156.5q0 -72 46.5 -117
t121.5 -45z" />
    <glyph glyph-name="seveneighths" unicode="&#x215e;" horiz-adv-x="1798" 
d="M303 827h-100l215 394h-152l8 39h164l201 337h-268l-109 -131h-24l73 170h510l-4 -18l-84 -35l-188 -321l98 -11l-6 -30h-117zM285 0h-86l1384 1556h90zM1319 -12q-116 0 -184 51t-68 137q0 92 65 163.5t171 94.5q-58 13 -91.5 54.5t-33.5 97.5q0 103 86 167t223 64
q101 0 163 -46.5t62 -121.5q0 -65 -55.5 -123.5t-145.5 -89.5h-18q84 -12 133 -63t49 -125q0 -116 -99 -188t-257 -72zM1415 455q77 0 127.5 51.5t50.5 130.5q0 62 -35.5 100.5t-95.5 38.5q-79 0 -128.5 -52t-49.5 -134q0 -60 35.5 -97.5t95.5 -37.5zM1341 31
q97 0 159.5 60.5t62.5 158.5q0 71 -45 115.5t-119 44.5q-97 0 -160 -60.5t-63 -156.5q0 -72 45 -117t120 -45z" />
    <glyph glyph-name="arrowleft" unicode="&#x2190;" horiz-adv-x="2453" 
d="M569 309h-39l-415 377l4 21l561 374h39l-371 -342h2054l-18 -86h-2052z" />
    <glyph glyph-name="arrowup" unicode="&#x2191;" horiz-adv-x="858" 
d="M291 -410h-86l354 1827l-401 -305l8 39l469 487h20l283 -487l-8 -39l-285 305z" />
    <glyph glyph-name="arrowright" unicode="&#x2192;" horiz-adv-x="2449" 
d="M1839 309h-41l371 344h-2052l16 86h2054l-237 342h39l413 -374l-4 -21z" />
    <glyph glyph-name="arrowdown" unicode="&#x2193;" horiz-adv-x="854" 
d="M254 -410h-21l-280 488l8 39l283 -305l354 1826h86l-354 -1826l403 305l-8 -39z" />
    <glyph glyph-name="arrowboth" unicode="&#x2194;" horiz-adv-x="2406" 
d="M565 309h-39l-415 377l4 21l561 374h39l-371 -342h1802l-237 342h39l413 -374l-4 -21l-559 -377h-39l371 344h-1804z" />
    <glyph glyph-name="arrowupdn" unicode="&#x2195;" horiz-adv-x="886" 
d="M272 -410h-20l-281 488l9 39l282 -305l311 1605l-401 -305l6 39l471 487h21l280 -487l-6 -39l-285 305l-311 -1605l404 305l-9 -39z" />
    <glyph glyph-name="uni2196" unicode="&#x2196;" horiz-adv-x="1394" 
d="M1182 -367l-84 -43l-699 1829l-229 -434l-12 33l200 610l19 10l524 -235l12 -33l-430 92z" />
    <glyph glyph-name="uni2197" unicode="&#x2197;" horiz-adv-x="1396" 
d="M1343 1419l-1409 -1829l-67 43l1409 1829l-465 -92l27 33l612 235l16 -10l-34 -610l-27 -33z" />
    <glyph glyph-name="uni2198" unicode="&#x2198;" horiz-adv-x="1392" 
d="M1071 -399l-20 -11l-523 236l-12 33l430 -92l-698 1828l82 43l698 -1828l232 434l12 -33z" />
    <glyph glyph-name="uni2199" unicode="&#x2199;" horiz-adv-x="1392" 
d="M592 -174l-615 -236l-14 11l35 610l27 33l61 -434l1409 1828l66 -43l-1409 -1828l466 92z" />
    <glyph glyph-name="partialdiff" unicode="&#x2202;" horiz-adv-x="1122" 
d="M383 -23q-168 0 -267.5 102t-99.5 265q0 159 83 306t218.5 237t280.5 90q123 0 220.5 -59.5t139.5 -139.5l11 -2q26 139 8.5 260.5t-70 219.5t-130.5 167t-173 105l12 45q72 -27 136 -64.5t127.5 -96t109 -129.5t73.5 -169t28 -209q0 -143 -37.5 -283t-104.5 -255
t-154.5 -203.5t-194 -137.5t-216.5 -49zM403 72q85 0 168.5 42.5t156 121t129 198t85.5 264.5q-60 85 -146.5 139t-191.5 54q-122 0 -228 -71.5t-168.5 -192.5t-62.5 -260q0 -132 68.5 -213.5t189.5 -81.5z" />
    <glyph glyph-name="emptyset" unicode="&#x2205;" horiz-adv-x="1581" 
d="M1477 1337l55 -53l-123 -117q107 -141 107 -344q0 -135 -44 -263.5t-124.5 -233t-186.5 -183.5t-236.5 -122.5t-267.5 -43.5q-227 0 -370 121l-137 -131l-52 53l135 130q-116 134 -116 344q0 172 69 333t183.5 279.5t271 190t322.5 71.5q244 0 395 -145zM293 530
q0 -153 61 -266l897 858q-58 84 -144 128t-187 44q-168 0 -312.5 -103.5t-229.5 -280t-85 -380.5zM1343 795q0 151 -53 260l-895 -852q59 -74 144.5 -113t183.5 -39q173 0 315.5 98t223.5 268.5t81 377.5z" />
    <glyph glyph-name="product" unicode="&#x220f;" horiz-adv-x="1286" 
d="M264 -205h-327l4 25l165 61l312 1600l-146 51l7 24h1130l-6 -24l-162 -51l-311 -1600l141 -61l-4 -25h-328l328 1686h-475z" />
    <glyph glyph-name="summation" unicode="&#x2211;" horiz-adv-x="1157" 
d="M866 -205h-962l6 37l131 45l586 778l-221 813l-113 52l8 36h866l9 -317h-29l-121 242h-448l223 -826l-598 -778h559l207 236h28z" />
    <glyph glyph-name="minus" unicode="&#x2212;" horiz-adv-x="878" 
d="M801 530h-723l18 91h723z" />
    <glyph glyph-name="radical" unicode="&#x221a;" horiz-adv-x="1382" 
d="M393 -205h-86l-164 801l-145 55l6 25h457l-6 -25l-156 -53l119 -639l741 1597h477l-4 -22l-440 -57z" />
    <glyph glyph-name="infinity" unicode="&#x221e;" horiz-adv-x="1595" 
d="M362 260q-112 0 -185 70.5t-73 187.5q0 157 113 263t258 106q105 0 195.5 -62.5t152.5 -169.5q103 108 216.5 170t217.5 62q110 0 180 -70.5t70 -185.5q0 -107 -55.5 -193.5t-141.5 -132t-182 -45.5q-205 0 -337 232q-222 -232 -429 -232zM391 352q90 0 188 61.5
t169 159.5q-39 100 -115 163t-164 63q-103 0 -178.5 -74t-75.5 -188q0 -84 49.5 -134.5t126.5 -50.5zM1137 352q105 0 184.5 75.5t79.5 190.5q0 82 -48.5 131.5t-121.5 49.5q-86 0 -185 -61t-182 -165q36 -101 109.5 -161t163.5 -60z" />
    <glyph glyph-name="integral" unicode="&#x222b;" horiz-adv-x="884" 
d="M33 -272q-69 0 -106 38.5t-48 88.5l90 299h39q-41 -202 -34.5 -286.5t69.5 -84.5q32 0 61.5 18.5t55.5 57.5t48.5 84.5t45 115.5t40 132.5t38.5 154.5t37 163t38.5 175.5t38.5 175.5q24 104 43.5 180.5t44.5 155t50 133t56.5 103.5t66.5 78t79 46t95 17q48 0 82 -14
t50 -39.5t23 -46.5t11 -50l-89 -301h-43q43 214 33.5 304t-76.5 90q-80 0 -138.5 -130.5t-135.5 -467.5q-16 -69 -46 -205q-24 -104 -35.5 -156t-34 -145.5t-38 -143t-39.5 -126.5t-44.5 -118.5t-48.5 -97.5t-57 -85.5t-64 -59t-74.5 -41.5t-83.5 -12z" />
    <glyph glyph-name="approxequal" unicode="&#x2248;" horiz-adv-x="991" 
d="M180 623h-43q22 102 87 165.5t155 63.5q49 0 93 -20t71.5 -43.5t68 -43.5t84.5 -20q53 0 98.5 29t61.5 98h43q-26 -107 -88.5 -168t-159.5 -61q-52 0 -97 20t-71.5 43.5t-63 43.5t-75.5 20q-49 0 -97.5 -30t-66.5 -97zM154 289h-43q21 102 85 165.5t154 63.5q49 0 93 -20
t72 -43.5t68.5 -43.5t84.5 -20q53 0 98.5 29t62.5 98h43q-27 -107 -89.5 -168t-157.5 -61q-53 0 -98.5 20t-72 43.5t-63.5 43.5t-76 20q-49 0 -96.5 -30t-64.5 -97z" />
    <glyph glyph-name="notequal" unicode="&#x2260;" horiz-adv-x="907" 
d="M868 805l-16 -90h-254l-160 -279h359l-17 -90h-393l-164 -285h-86l162 285h-242l17 90h278l158 279h-381l16 90h418l162 285h88l-164 -285h219z" />
    <glyph glyph-name="lessequal" unicode="&#x2264;" horiz-adv-x="1024" 
d="M113 594l921 469l-20 -102l-770 -388l620 -393l-20 -90h8l-18 -90h-836l18 90h822l-734 467z" />
    <glyph glyph-name="greaterequal" unicode="&#x2265;" horiz-adv-x="1011" 
d="M197 1063l739 -471l-6 -37l-916 -465h826l-17 -90h-835l16 90h2l21 98l770 390l-621 391z" />
    <glyph glyph-name="lozenge" unicode="&#x25ca;" horiz-adv-x="1021" 
d="M444 -29h-86l-249 643l499 643h86l254 -643zM250 614l207 -522l405 522l-203 523z" />
    <glyph glyph-name="B.ss01" horiz-adv-x="1361" 
d="M944 766q67 -12 124.5 -36t104.5 -60t74 -89.5t27 -117.5q0 -130 -79 -236t-218 -166.5t-309 -60.5h-695l4 25l166 63l269 1380l-142 64l6 24h596q218 0 347 -84t129 -237q0 -156 -115 -289.5t-289 -179.5zM795 1479h-207l-109 -559l531 395h30q-12 -10 -55.5 -48
t-60.5 -53t-56 -50t-57 -54t-48.5 -50.5t-45 -53t-31.5 -47.5t-24 -48.5t-7 -42.5q0 -75 129 -75q169 0 280.5 135t111.5 321q0 56 -19.5 97t-52 66t-83 40.5t-104 21t-122.5 5.5zM315 78h316q215 0 340 111t125 296q0 116 -82 176t-226 70q-95 10 -164.5 44t-148.5 128z
" />
    <glyph glyph-name="C.ss01" horiz-adv-x="1589" 
d="M723 -23q-131 0 -243 40t-195.5 115t-131 191t-47.5 261q0 125 35.5 249t100 232.5t157 202.5t202.5 161t242.5 105.5t270.5 38.5q185 0 304 -59.5t155 -129.5l-606 -966h-37q38 63 113.5 181t123 196t100 174.5t79 174.5t26.5 138q0 96 -72 155.5t-221 59.5
q-159 0 -303.5 -73.5t-246.5 -195t-162 -284t-60 -334.5q0 -143 42.5 -253t115 -174.5t160 -97t186.5 -32.5q224 0 422 148.5t336 414.5h39q-144 -297 -375 -468t-510 -171z" />
    </font>
</defs>
</svg>
