<?xml version="1.0" standalone="no"?>
<!DOCTYPE svg PUBLIC "-//W3C//DTD SVG 1.1//EN" "http://www.w3.org/Graphics/SVG/1.1/DTD/svg11.dtd" >
<svg xmlns="http://www.w3.org/2000/svg" xmlns:xlink="http://www.w3.org/1999/xlink" version="1.1">
<metadata>
Created by FontForge 20170731 at Tue Feb  2 19:50:40 2021
 By Aleksey,,,
Copyright (c) 2020 by Matthieu Salvaggio. All rights reserved.
</metadata>
<defs>
<font id="ApocLC-LightSansItalic" horiz-adv-x="360" >
  <font-face 
    font-family="Apoc LC Light Sans"
    font-weight="400"
    font-style="italic"
    font-stretch="normal"
    units-per-em="2048"
    panose-1="0 0 5 0 0 0 0 0 0 0"
    ascent="1638"
    descent="-410"
    x-height="1024"
    cap-height="1556"
    bbox="-1233 -500 2365 2126"
    underline-thickness="102"
    underline-position="-307"
    slope="-11"
    unicode-range="U+0020-FB02"
  />
<missing-glyph horiz-adv-x="1298" 
d="M1174 0h-1049l4 20l158 33l278 1428l-141 55l4 20h1049l-4 -20l-166 -55l-279 -1428l150 -33zM662 1495l-271 -1386l823 1386h-552zM1198 1389l-790 -1328h532z" />
    <glyph glyph-name="fi" unicode="fi" horiz-adv-x="972" 
d="M948 1489q48 -11 70 -28.5t22 -47.5q0 -43 -27.5 -71.5t-68.5 -28.5q-36 0 -64 31.5t-48.5 76.5t-43 89.5t-59.5 76t-86 31.5q-89 0 -144 -78.5t-85 -234.5l-56 -281h574l-199 -1024h-82l189 973h-492l-184 -953h-82l184 953h-125l11 51h124l52 264q74 383 323 383
q48 0 77.5 -14.5t45.5 -37t33 -46.5t52 -48t89 -36z" />
    <glyph glyph-name="fl" unicode="fl" horiz-adv-x="1015" 
d="M160 0h-82l188 973h-125l11 51h124l54 270q17 84 43 150.5t63 118.5t89.5 80t115.5 28q62 0 119 -18t105 -36t89 -18q63 0 121 39h21l-320 -1638h-82l262 1352q11 54 -7 99.5t-53.5 75.5t-82 51t-91.5 30.5t-85 9.5q-160 0 -223 -313l-56 -281h271l-11 -51h-270z" />
    <glyph glyph-name="fh" unicode="fh" horiz-adv-x="1638" 
d="M160 0h-82l188 973h-125l11 51h124l54 270q17 85 38 146t56 117t89.5 85t127.5 29q66 0 171.5 -36t162.5 -36q63 0 121 39h20l-168 -858q15 29 37.5 60.5t61 71.5t83 70.5t106 51.5t126.5 21q249 0 190 -307l-145 -748h-82l133 686q30 158 -18 231.5t-146 73.5
q-117 0 -216 -91.5t-150 -213.5l-133 -686h-82l262 1352q13 66 -22 120t-95 84t-118.5 46t-102.5 16q-43 0 -76.5 -17.5t-55.5 -44t-40.5 -70.5t-29 -84t-21.5 -97l-56 -281h271l-11 -51h-270z" />
    <glyph glyph-name="fb" unicode="fb" horiz-adv-x="1548" 
d="M971 -23q-138 0 -216.5 78t-78.5 232q0 71 14 145l146 739q41 213 41 238q0 51 -24 92.5t-61 66t-77.5 37.5t-77.5 13q-50 0 -87 -22t-62.5 -67t-42 -96.5t-31.5 -127.5l-56 -281h271l-11 -51h-268l-190 -973h-82l190 973h-127l11 51h124l54 270q14 69 30.5 122.5
t42 102.5t58 81.5t78.5 51.5t102 19q55 0 94 -18t69.5 -36t65.5 -18q63 0 121 39h21l-115 -604q108 5 197.5 -12.5t151 -52.5t106 -80.5t70 -101.5t37 -110t11.5 -110q0 -77 -19.5 -157.5t-61.5 -158t-99.5 -138.5t-140.5 -98.5t-178 -37.5zM965 41q78 0 152.5 38
t132.5 103.5t93 160.5t35 202q0 73 -16.5 140.5t-53.5 129t-92.5 105t-139.5 67t-187 17.5l-117 -555q-16 -88 -16 -152q0 -121 52.5 -188.5t156.5 -67.5z" />
    <glyph glyph-name="fk" unicode="fk" horiz-adv-x="1499" 
d="M160 0h-82l188 973h-125l11 51h124l54 270q17 84 43 150.5t63 118.5t89.5 80t115.5 28q62 0 119 -18t105 -36t89 -18q63 0 121 39h21l-244 -1251l616 637h68l-408 -420l293 -604h-110l-256 528l-219 -225l-60 -303h-82l262 1352q11 54 -7 99.5t-53.5 75.5t-82 51
t-91.5 30.5t-85 9.5q-160 0 -223 -313l-56 -281h271l-11 -51h-270z" />
    <glyph glyph-name="ffi" unicode="ffi" horiz-adv-x="1546" 
d="M1522 1489q48 -11 70 -28.5t22 -47.5q0 -43 -27.5 -71.5t-68.5 -28.5q-36 0 -64 31.5t-48.5 76.5t-43 89.5t-59.5 76t-86 31.5q-64 0 -110.5 -41.5t-73 -107t-46.5 -164.5l-55 -281h573l-198 -1024h-82l188 973h-491l-185 -953h-82l185 953h-492l-184 -953h-82l184 953
h-125l11 51h124l54 270q75 377 313 377q52 0 100 -17.5t78.5 -39.5t75.5 -56.5t76 -52.5q90 166 252 166q48 0 77.5 -14.5t45.5 -37t33 -46.5t52 -48t89 -36zM850 1024l55 287q14 70 -19 141.5t-102 118.5t-151 47q-157 0 -219 -313l-56 -281h492z" />
    <glyph glyph-name="ffl" unicode="ffl" horiz-adv-x="1589" 
d="M160 0h-82l188 973h-125l11 51h124l52 262q34 178 112.5 281.5t202.5 103.5q65 0 118 -25.5t115 -73.5t97 -67q86 166 241 166q62 0 119 -18t105.5 -36t89.5 -18q63 0 121 39h20l-319 -1638h-82l262 1352q11 54 -7 99.5t-53.5 75.5t-82.5 51t-92 30.5t-85 9.5
q-160 0 -223 -313l-55 -281h270l-10 -51h-270l-189 -973h-82l189 973h-492zM414 1305l-56 -281h492l53 270q24 126 -61.5 225t-208.5 99q-157 0 -219 -313z" />
    <glyph glyph-name="ff" unicode="ff" horiz-adv-x="1105" 
d="M160 0h-82l188 973h-125l11 51h124l54 270q75 377 313 377q66 0 118.5 -25t113.5 -72.5t96 -66.5q37 73 99 118.5t147 45.5q157 0 243 -158l-22 -16q-5 5 -22 24.5t-31 33t-37 30t-52 25t-63 8.5q-53 0 -95.5 -25t-66.5 -55t-45.5 -86t-28.5 -84.5t-18 -84.5q-1 -2 -1 -3
t-0.5 -3t-0.5 -3l-49 -250h270l-10 -51h-270l-189 -973h-82l189 973h-488zM414 1305l-56 -281h488l47 240q29 148 -46 251t-214 103q-157 0 -219 -313z" />
    <glyph glyph-name="ffh" unicode="ffh" horiz-adv-x="2211" 
d="M160 0h-82l188 973h-125l11 51h124l58 291q33 165 110.5 260.5t202.5 95.5q50 0 96.5 -17.5t77.5 -40t75.5 -55.5t76.5 -51q44 80 103 122t147 42q67 0 167 -36t154 -36q67 0 125 39h21l-168 -858q15 29 37 60.5t60.5 71.5t82.5 70.5t105.5 51.5t127.5 21q250 0 191 -307
l-146 -748h-82l134 686q61 305 -148 305q-112 0 -217.5 -86.5t-165.5 -218.5l-133 -686h-82l262 1352q11 53 -9.5 99.5t-58.5 76t-86 50.5t-91.5 30.5t-77.5 9.5q-36 0 -67.5 -13t-53.5 -32t-41 -49.5t-30 -55.5t-21.5 -60.5t-15 -55t-9.5 -47.5l-55 -281h270l-10 -51h-270
l-189 -973h-82l189 973h-492zM414 1305l-56 -281h492l55 287q13 69 -20 141t-98 119t-138 47q-36 0 -67.5 -13.5t-53 -33t-40.5 -51t-30 -56.5t-21.5 -61t-14 -53.5t-8.5 -44.5z" />
    <glyph glyph-name="ffk" unicode="ffk" horiz-adv-x="2070" 
d="M160 0h-82l188 973h-125l11 51h124l54 270q75 377 317 377q50 0 96.5 -17.5t77.5 -40t75.5 -55.5t76.5 -51q88 164 250 164q69 0 163.5 -36t141.5 -36q63 0 121 39h20l-244 -1251l627 637h55l-407 -420l293 -604h-111l-256 528l-217 -223l-59 -305h-82l262 1352
q11 54 -7.5 99.5t-54 75.5t-81 51t-87.5 30.5t-75 9.5q-36 0 -67.5 -13t-53.5 -32t-41 -49.5t-30 -55.5t-21.5 -60.5t-15 -55t-9.5 -47.5l-55 -281h270l-10 -51h-270l-189 -973h-82l189 973h-492zM414 1305l-56 -281h492l55 287q13 69 -20 141t-98 119t-138 47
q-36 0 -67.5 -13.5t-53 -33t-40.5 -51t-30 -56.5t-21.5 -61t-14 -53.5t-8.5 -44.5z" />
    <glyph glyph-name="st" unicode="st" horiz-adv-x="1417" 
d="M291 -23q-210 0 -314 166l29 19q35 -50 107 -90.5t182 -40.5q144 0 245 79.5t101 190.5q0 25 -7.5 45.5t-28 39t-39 31.5t-61 30.5t-71.5 28t-90 32.5q-105 37 -154 90.5t-49 130.5q0 104 64.5 191t165.5 118q22 145 109.5 269t214.5 196t261 72q144 0 223.5 -87.5
t47.5 -252.5l-41 -211h270l-10 -51h-270l-134 -686q-5 -28 -8 -44.5t-6 -46.5t-1.5 -49.5t7 -43.5t17.5 -38t32.5 -24t49.5 -10q121 0 210 157l23 -4q-51 -102 -124 -154.5t-155 -52.5q-38 0 -66 12.5t-44 30t-24 46.5t-10.5 52t1 58t6 53t8.5 47l136 697h-156l4 20
q106 12 156.5 92t50.5 238q0 105 -50.5 152t-154.5 47q-129 0 -244.5 -63t-192 -172.5t-95.5 -242.5q53 11 90 11q185 0 282 -146q-61 -132 -114 -188.5t-113 -56.5q-83 0 -136.5 92t-55.5 223q-72 -24 -119 -82t-47 -131q0 -54 45.5 -91.5t163.5 -74.5q15 -5 48 -15t49 -15
t44 -15.5t42.5 -19t35.5 -21.5t32 -27t22.5 -32.5t16 -41t4.5 -48.5q0 -164 -118 -276t-293 -112zM567 692q45 0 78 42t33 100q0 71 -55 119t-140 48q-38 0 -77 -10q-4 -115 47.5 -207t113.5 -92z" />
    <glyph glyph-name=".notdef" horiz-adv-x="1298" 
d="M1174 0h-1049l4 20l158 33l278 1428l-141 55l4 20h1049l-4 -20l-166 -55l-279 -1428l150 -33zM662 1495l-271 -1386l823 1386h-552zM1198 1389l-790 -1328h532z" />
    <glyph glyph-name=".null" horiz-adv-x="0" 
 />
    <glyph glyph-name="nonmarkingreturn" horiz-adv-x="682" 
 />
    <glyph glyph-name="space" unicode=" " horiz-adv-x="454" 
 />
    <glyph glyph-name="exclam" unicode="!" horiz-adv-x="446" 
d="M197 303h-29q18 134 96.5 635t89.5 555q18 85 38.5 115t49.5 30q41 0 41 -75q0 -60 -106 -512t-180 -748zM106 -23q-37 0 -58 21.5t-21 56.5q0 47 33.5 81t82.5 34q36 0 58 -23t22 -57q0 -47 -34 -80t-83 -33z" />
    <glyph glyph-name="quotedbl" unicode="&#x22;" horiz-adv-x="464" 
d="M256 1055h-16q25 331 41 420q10 55 25.5 75.5t41.5 20.5t32.5 -19.5t-3.5 -76.5q-17 -90 -121 -420zM430 1055h-16q25 331 41 420q10 55 25.5 75.5t41.5 20.5t32.5 -19.5t-3.5 -76.5q-17 -90 -121 -420z" />
    <glyph glyph-name="numbersign" unicode="#" horiz-adv-x="1150" 
d="M1153 1556h61l-215 -477h199l-12 -65h-217l-230 -508h205l-12 -66h-223l-199 -440h-61l198 440h-328l-198 -440h-62l199 440h-213l12 66h232l229 508h-219l12 65h238l215 477h61l-215 -477h328zM350 506h328l229 508h-327z" />
    <glyph glyph-name="dollar" unicode="$" horiz-adv-x="970" 
d="M973 1247l-31 -22q-43 42 -121.5 78t-150.5 43l-95 -480q80 -24 148 -51q87 -34 128.5 -79.5t41.5 -121.5q0 -174 -133.5 -306t-321.5 -146l-43 -223h-47l43 221q-136 3 -231.5 66.5t-122.5 131.5l35 17q36 -73 129.5 -121t197.5 -51l109 555q-135 38 -178 67
q-94 60 -94 176q0 157 114.5 269.5t280.5 120.5l37 186h47l-37 -186q93 -5 169 -48t126 -96zM492 891q2 0 40 -12l91 469q-130 -8 -230 -94t-100 -193q0 -59 48.5 -98.5t150.5 -71.5zM614 731q-10 2 -30.5 7t-30.5 7l-107 -540q154 11 264.5 110.5t110.5 229.5
q0 73 -51.5 116.5t-155.5 69.5z" />
    <glyph glyph-name="percent" unicode="%" horiz-adv-x="1609" 
d="M416 815q-59 0 -104.5 25.5t-72 69t-40 96t-13.5 112.5q0 126 52 246.5t148.5 200.5t211.5 80q80 0 135 -48.5t78 -118.5t23 -153q0 -124 -54 -241t-151.5 -193t-212.5 -76zM446 850q53 0 106.5 30t99.5 84t75 141t29 191q0 136 -53.5 226t-133.5 90q-51 0 -105.5 -33
t-101 -90.5t-76.5 -146t-30 -189.5q0 -132 53.5 -217.5t136.5 -85.5zM285 0h-62l1082 1556h65zM1120 -12q-59 0 -104.5 25.5t-72 69t-39.5 96t-13 112.5q0 126 52 246.5t148.5 200t211.5 79.5q80 0 135 -48.5t77.5 -118t22.5 -152.5q0 -124 -54 -241t-151.5 -193t-212.5 -76
zM1151 23q53 0 106.5 30t99 84t74.5 141t29 191q0 136 -53 225.5t-133 89.5q-51 0 -105.5 -33t-101 -90t-76.5 -145.5t-30 -189.5q0 -132 53.5 -217.5t136.5 -85.5z" />
    <glyph glyph-name="ampersand" unicode="&#x26;" horiz-adv-x="1243" 
d="M1186 -53h-31q-154 114 -285 233q-108 -95 -238.5 -150t-250.5 -55q-151 0 -247.5 84.5t-96.5 225.5q0 43 8 82q26 135 122 236.5t259 195.5q-37 107 -37 219q0 62 12 123q38 191 165 311.5t280 120.5q110 0 180 -63.5t70 -163.5q0 -29 -6 -56q-12 -63 -47.5 -119.5
t-77.5 -96t-107.5 -81t-116.5 -67t-126.5 -62.5t-116.5 -59q91 -257 372 -555q91 86 144 194.5t53 227.5q0 124 -57 241h30q70 -126 70 -258q0 -121 -55 -235t-150 -207q99 -103 281 -266zM463 1130q-8 -44 -8 -98q0 -92 32 -198q21 11 67 35.5t70.5 37.5t67.5 37t68 39.5
t61 40.5t58 44.5t48.5 45.5t42.5 50.5t29 53t19 58.5q4 18 4 51q0 86 -56 136t-141 50q-87 0 -165.5 -57t-128 -143.5t-68.5 -182.5zM410 41q99 0 212 46.5t209 127.5q-301 288 -397 555q-268 -167 -313 -389q-6 -37 -6 -70q0 -125 84.5 -197.5t210.5 -72.5z" />
    <glyph glyph-name="quotesingle" unicode="'" horiz-adv-x="290" 
d="M256 1055h-16q25 331 41 420q10 55 25.5 75.5t41.5 20.5t32.5 -19.5t-3.5 -76.5q-17 -90 -121 -420z" />
    <glyph glyph-name="parenleft" unicode="(" horiz-adv-x="497" 
d="M315 -123h-34q-23 34 -48.5 86t-54 131.5t-47 188.5t-18.5 223q0 132 26 268q23 115 72.5 239.5t106.5 225.5t119.5 192.5t111.5 150t82 89.5h35q-105 -98 -235 -356.5t-185 -540.5q-39 -195 -39 -389q0 -178 31.5 -310t76.5 -198z" />
    <glyph glyph-name="parenright" unicode=")" horiz-adv-x="495" 
d="M-33 -123h-35q49 46 104.5 123.5t115 188.5t113 264.5t85.5 320.5q35 178 35 365q0 180 -30 325t-72 207h34q52 -75 107 -263.5t55 -397.5q0 -126 -22 -236q-26 -132 -76.5 -263.5t-105.5 -228t-118.5 -184.5t-108.5 -137.5t-81 -83.5z" />
    <glyph glyph-name="asterisk" unicode="*" horiz-adv-x="608" 
d="M422 1141q-23 0 -23 30q0 29 19 78l47 129l-115 -92q-61 -51 -92 -51q-12 0 -18 12q-8 19 14.5 38.5t75.5 47.5l131 56l-109 59q-65 38 -65 65q0 11 8 19q9 12 22 12q28 0 72 -51l78 -94l4 131q4 108 49 108q23 0 23 -28q0 -22 -21 -80l-45 -131l115 94q61 51 92 51
q12 0 18 -12q8 -19 -16 -40.5t-74 -45.5l-131 -57l111 -56q63 -43 63 -67q0 -11 -8 -19q-9 -12 -24 -12q-31 0 -72 51l-76 90l-2 -127q-7 -55 -17.5 -81.5t-33.5 -26.5z" />
    <glyph glyph-name="plus" unicode="+" horiz-adv-x="892" 
d="M500 604h325l-12 -65h-328l-63 -328h-66l64 328h-330l12 65h332l64 330h65z" />
    <glyph glyph-name="comma" unicode="," horiz-adv-x="337" 
d="M-74 -295h-20q78 82 108.5 135t30.5 103q0 52 -47 127q7 43 40.5 71.5t72.5 28.5q38 0 60 -22.5t22 -59.5q0 -67 -72 -170.5t-195 -212.5z" />
    <glyph glyph-name="hyphen" unicode="-" horiz-adv-x="657" 
d="M592 537h-518l14 77h518z" />
    <glyph glyph-name="period" unicode="." horiz-adv-x="362" 
d="M90 -23q-37 0 -58.5 21.5t-21.5 56.5q0 46 34 80.5t83 34.5q36 0 58 -23t22 -57q0 -47 -34 -80t-83 -33z" />
    <glyph glyph-name="slash" unicode="/" horiz-adv-x="1048" 
d="M-45 -244h-61l1265 1882h66z" />
    <glyph glyph-name="zero" unicode="0" horiz-adv-x="1286" 
d="M514 -23q-85 0 -152 32t-109.5 85t-70.5 127.5t-39.5 154t-11.5 169.5q0 122 27 248t74 239t115 212.5t147.5 172t173.5 114.5t190 42q86 0 154.5 -35t112.5 -92.5t73 -136.5t41 -162.5t12 -175.5q0 -144 -38.5 -290.5t-108.5 -271.5t-160.5 -222.5t-202.5 -153.5
t-227 -56zM569 43q76 0 155 38.5t152.5 115t131.5 180.5t92.5 246.5t34.5 300.5q0 263 -89.5 423t-236.5 160q-74 0 -154 -42t-155 -123t-135 -188.5t-96 -250.5t-36 -297q0 -256 93 -409.5t243 -153.5z" />
    <glyph glyph-name="one" unicode="1" horiz-adv-x="641" 
d="M342 0h-92l264 1364l-387 -330h-6l2 10l457 512h65z" />
    <glyph glyph-name="two" unicode="2" horiz-adv-x="1099" 
d="M961 0h-1004l4 20q33 6 100.5 41.5t158.5 99t190 144.5t195 186.5t172.5 217t123.5 242.5t47 257q0 140 -68.5 219.5t-183.5 79.5q-74 0 -151 -34t-138.5 -85.5t-106 -101t-71.5 -92.5l-18 10q39 72 87.5 133t114 116.5t151 87.5t181.5 32q34 0 66.5 -4t82 -22t85 -49
t62 -92.5t26.5 -145.5q0 -135 -49.5 -271t-129.5 -253.5t-199 -239t-240.5 -220.5t-270.5 -204l-2 -11h797z" />
    <glyph glyph-name="three" unicode="3" horiz-adv-x="1134" 
d="M406 -23q-137 0 -240.5 62.5t-163.5 183.5l27 10q58 -103 163.5 -155.5t223.5 -52.5q138 0 256.5 73t188 197.5t69.5 269.5q0 111 -60 174.5t-178 63.5q-16 0 -32.5 -1.5t-28 -3t-31 -7t-27 -7.5t-32 -11.5t-30.5 -11.5t-36.5 -14.5t-36.5 -15.5l-10 -4l6 31
q89 40 162 79.5t145 91t120.5 104.5t79 118.5t30.5 134.5q0 100 -68 160.5t-184 60.5q-118 0 -243.5 -60.5t-207.5 -166.5l-18 10q27 36 57 68.5t79 73.5t100.5 70.5t121.5 50t142 20.5q63 0 121 -15t107.5 -44.5t79 -80.5t29.5 -116q0 -140 -114 -270t-322 -218
q97 18 184 -4.5t146 -92.5t59 -175q0 -110 -53 -217t-139.5 -186.5t-203.5 -128t-238 -48.5z" />
    <glyph glyph-name="four" unicode="4" horiz-adv-x="1089" 
d="M723 0h-92l76 389h-703l8 41l906 1126h108l-215 -1105h195l-13 -62h-194zM915 1466l-813 -1015h617z" />
    <glyph glyph-name="five" unicode="5" horiz-adv-x="1302" 
d="M543 -18q-109 0 -200 41t-154 113.5t-105 163.5t-64 200l27 10q29 -108 67 -187.5t92.5 -143t131.5 -96t176 -32.5q162 0 303.5 84t225 226.5t83.5 306.5q0 146 -82.5 235.5t-230.5 89.5q-141 0 -269 -88.5t-214 -275.5h-107l340 927h758l-12 -61h-664l-254 -676h10
q78 108 207.5 172t255.5 64q166 0 274.5 -106t108.5 -281q0 -130 -59 -256t-155.5 -220t-226 -152t-263.5 -58z" />
    <glyph glyph-name="six" unicode="6" horiz-adv-x="1247" 
d="M537 -23q-197 0 -305.5 137t-108.5 373q0 165 42.5 328t118.5 297.5t174.5 239t217.5 163t239 58.5q66 0 123.5 -19t93.5 -46.5t57 -50.5t30 -40l-21 -10q-112 127 -295 127q-100 0 -191 -40.5t-162 -110.5t-129.5 -165t-98 -202.5t-62.5 -224.5q-15 -78 -24 -160
q78 199 229 311.5t323 112.5q174 0 288 -114t114 -292q0 -125 -56 -248.5t-145.5 -216t-209.5 -150t-242 -57.5zM580 53q130 0 244.5 82.5t182.5 220.5t68 295q0 158 -86 250t-235 92q-98 0 -194.5 -47.5t-168 -125t-116 -180.5t-44.5 -208q0 -157 96 -268t253 -111z" />
    <glyph glyph-name="seven" unicode="7" horiz-adv-x="841" 
d="M143 0h-84l838 1495h-686l12 61h793z" />
    <glyph glyph-name="eight" unicode="8" horiz-adv-x="1175" 
d="M467 -23q-174 0 -284.5 98t-110.5 255q0 163 125.5 316t289.5 190q-101 24 -154.5 104t-53.5 180q0 122 69.5 226.5t187.5 165.5t255 61q157 0 252.5 -90t95.5 -232q0 -134 -93 -244.5t-255 -168.5q130 -18 202 -118.5t72 -230.5q0 -145 -87 -264.5t-223.5 -183.5
t-287.5 -64zM653 866q163 0 268 103t105 252q0 123 -77.5 204.5t-203.5 81.5q-155 0 -262.5 -105.5t-107.5 -266.5q0 -120 74.5 -194.5t203.5 -74.5zM512 43q84 0 162.5 28.5t142 82t101.5 138.5t38 189q0 144 -86.5 230t-242.5 86q-104 0 -191.5 -35t-145 -94.5t-89 -136
t-31.5 -160.5q0 -145 96.5 -236.5t245.5 -91.5z" />
    <glyph glyph-name="nine" unicode="9" horiz-adv-x="1239" 
d="M422 -23q-127 0 -232 57t-127 99l23 10q7 -10 32.5 -29t68 -42.5t106.5 -40.5t131 -17q109 0 205 48t168 130t132.5 199t102.5 245t74 279q-69 -177 -218 -297t-325 -120q-175 0 -283 115.5t-108 297.5q0 128 52.5 250t139 212t203 145t238.5 55q190 0 303 -124.5
t113 -361.5q0 -206 -68.5 -410t-178.5 -357t-256.5 -248t-295.5 -95zM590 559q134 0 252.5 82t189 219.5t70.5 294.5q0 161 -93.5 251.5t-242.5 90.5q-135 0 -249 -79.5t-180.5 -216t-66.5 -296.5q0 -158 83.5 -252t236.5 -94z" />
    <glyph glyph-name="colon" unicode=":" horiz-adv-x="491" 
d="M260 758q-37 0 -58.5 21.5t-21.5 56.5q0 46 34 80t83 34q36 0 58 -23t22 -57q0 -47 -34 -79.5t-83 -32.5zM178 -23q-37 0 -58.5 21.5t-21.5 56.5q0 46 34 80.5t83 34.5q36 0 58 -23t22 -57q0 -47 -34 -80t-83 -33z" />
    <glyph glyph-name="semicolon" unicode=";" horiz-adv-x="493" 
d="M264 758q-37 0 -58.5 21.5t-21.5 56.5q0 46 34 80t83 34q36 0 58 -23t22 -57q0 -47 -34 -79.5t-83 -32.5zM25 -295h-21q78 82 108.5 135t30.5 103q0 52 -47 127q7 43 40.5 71.5t72.5 28.5q38 0 60 -22.5t22 -59.5q0 -67 -71.5 -170.5t-194.5 -212.5z" />
    <glyph glyph-name="less" unicode="&#x3c;" horiz-adv-x="987" 
d="M817 145l-14 -59l-729 479l4 21l915 477l-14 -72l-815 -420z" />
    <glyph glyph-name="equal" unicode="=" horiz-adv-x="1024" 
d="M895 727h-723l12 66h723zM860 358h-723l13 66h722z" />
    <glyph glyph-name="greater" unicode="&#x3e;" horiz-adv-x="985" 
d="M190 1004l15 59l729 -479l-4 -21l-916 -477l15 72l815 420z" />
    <glyph glyph-name="question" unicode="?" horiz-adv-x="890" 
d="M346 307h-20q5 87 20 170q21 104 64.5 172.5t169.5 208.5q46 51 75 85t71.5 92.5t66.5 107.5t42.5 113t18.5 126q0 112 -64 167t-165 55q-112 0 -218 -60.5t-167 -150.5l-19 10q61 111 180.5 188.5t260.5 77.5q42 0 81.5 -7t81.5 -26t72.5 -49t50 -80t19.5 -114
q0 -235 -211 -461q-42 -47 -105 -105.5t-100 -97t-80 -97t-73.5 -138t-51.5 -187.5zM266 -23q-37 0 -58.5 21.5t-21.5 56.5q0 46 34 80.5t83 34.5q36 0 58 -23t22 -57q0 -47 -34 -80t-83 -33z" />
    <glyph glyph-name="at" unicode="@" horiz-adv-x="1619" 
d="M643 -158q-160 0 -286.5 64.5t-201.5 192t-75 298.5q0 87 16 166q44 220 172 393.5t317.5 271t405.5 97.5q267 0 415 -147t148 -404q0 -95 -20 -192q-43 -226 -152 -368t-247 -142q-86 0 -122 54t-34 138q-178 -184 -350 -184q-115 0 -182.5 78.5t-67.5 214.5
q0 55 12 116q51 255 252 400t502 145h55l-135 -698q-8 -36 -8 -74q0 -61 25.5 -95t72.5 -34q95 0 184 124.5t127 317.5q19 97 19 175q0 234 -134 373t-376 139q-193 0 -364 -90.5t-288.5 -252t-156.5 -364.5q-16 -88 -16 -158q0 -122 42 -220.5t116 -162t171.5 -97.5
t210.5 -34q161 0 332 76l-6 -31q-185 -86 -373 -86zM678 143q82 0 160.5 40t142.5 106l139 715q-250 0 -428.5 -138.5t-222.5 -369.5q-10 -46 -10 -105q0 -118 58.5 -183t160.5 -65z" />
    <glyph glyph-name="A" unicode="A" horiz-adv-x="1368" 
d="M-31 0h-71l950 1573h61l381 -1573h-112l-164 702h-627zM836 1458l-412 -694h575z" />
    <glyph glyph-name="B" unicode="B" horiz-adv-x="1277" 
d="M614 0h-524l303 1556h408q218 0 336 -87.5t118 -243.5q0 -83 -34 -158t-90.5 -129t-125 -92.5t-143.5 -59.5q148 -27 235 -106.5t87 -216.5q0 -67 -21.5 -132t-67 -125.5t-111 -106t-161.5 -72.5t-209 -27zM477 1516l-139 -717h324q129 0 240.5 51.5t183 155t71.5 237.5
q0 145 -90 209t-283 64h-307zM330 758l-142 -725h422q85 0 155.5 18.5t117.5 48.5t83.5 71t56.5 81t33 84.5t17 76.5t4 60q0 136 -98 210.5t-264 74.5h-385z" />
    <glyph glyph-name="C" unicode="C" horiz-adv-x="1564" 
d="M707 -23q-268 0 -429 166.5t-161 434.5q0 127 36 253.5t99 235t152.5 203t192.5 161t221.5 104.5t238.5 38q111 0 219 -34t168 -70t92 -68l-39 -31q-88 64 -209.5 108t-238.5 44q-86 0 -180 -23.5t-195 -78t-186 -133t-152.5 -199t-95.5 -265.5q-22 -143 -15 -256
t45 -198.5t91.5 -145.5t124.5 -98t144.5 -55t151.5 -17q229 0 425.5 145.5t336.5 417.5h31q-66 -139 -156.5 -255t-200 -202t-241 -134t-270.5 -48z" />
    <glyph glyph-name="D" unicode="D" horiz-adv-x="1548" 
d="M625 0h-535l303 1556h533q286 0 442 -153t156 -447q0 -194 -69 -370t-187.5 -305t-286 -205t-356.5 -76zM477 1516l-287 -1475h383q138 0 267.5 47.5t232 133t180 198t119 249t41.5 279.5q0 269 -145.5 418.5t-407.5 149.5h-383z" />
    <glyph glyph-name="E" unicode="E" horiz-adv-x="1026" 
d="M899 0h-809l303 1556h789l-13 -61h-696l-123 -627h451l-10 -61h-451l-145 -746h716z" />
    <glyph glyph-name="F" unicode="F" horiz-adv-x="1013" 
d="M182 0h-92l303 1556h789l-13 -61h-696l-123 -627h451l-10 -61h-451z" />
    <glyph glyph-name="G" unicode="G" horiz-adv-x="1548" 
d="M709 -23q-265 0 -428.5 167t-163.5 436q0 189 79 372t207 318.5t301.5 219t352.5 83.5q158 0 291 -58.5t188 -113.5l-39 -31q-94 68 -213 110t-233 42q-163 0 -315 -68.5t-265.5 -185.5t-181.5 -283.5t-68 -351.5q0 -269 153.5 -424.5t409.5 -155.5q241 0 412.5 142.5
t222.5 412.5l17 88l-598 17l4 30h651l-143 -743h-43l67 346q-55 -94 -134 -166.5t-167.5 -116t-180.5 -65t-183 -21.5z" />
    <glyph glyph-name="H" unicode="H" horiz-adv-x="1404" 
d="M1188 850l137 706h92l-303 -1556h-92l154 788h-840l-154 -788h-92l303 1556h92l-137 -706h840z" />
    <glyph glyph-name="I" unicode="I" horiz-adv-x="473" 
d="M182 0h-92l303 1556h92z" />
    <glyph glyph-name="J" unicode="J" horiz-adv-x="854" 
d="M281 -23q-194 0 -320 197l27 10q66 -70 121.5 -100.5t136.5 -30.5q41 0 76.5 8.5t62.5 21t50.5 35.5t39.5 42.5t31 53t23.5 55.5t18 61.5t13.5 59t12 59.5l215 1107h93l-222 -1142q-17 -90 -45.5 -164t-72.5 -138t-110.5 -99.5t-149.5 -35.5z" />
    <glyph glyph-name="K" unicode="K" horiz-adv-x="1013" 
d="M182 0h-92l303 1556h92l-155 -794l741 794h59l-614 -669l440 -887h-108l-412 807l-123 -131z" />
    <glyph glyph-name="L" unicode="L" horiz-adv-x="978" 
d="M858 0h-768l303 1556h92l-290 -1495h675z" />
    <glyph glyph-name="M" unicode="M" horiz-adv-x="1669" 
d="M184 0h-94l303 1556h94l293 -1441l832 1441h69l-303 -1556h-92l256 1315l-774 -1315h-61l-273 1286z" />
    <glyph glyph-name="N" unicode="N" horiz-adv-x="1312" 
d="M184 0h-94l303 1556h94l494 -1288l252 1288h92l-303 -1556h-51l-520 1370z" />
    <glyph glyph-name="O" unicode="O" horiz-adv-x="1662" 
d="M700 -23q-170 0 -301 82.5t-201.5 230t-70.5 335.5q0 136 38.5 264t105 230.5t156.5 188.5t192 143.5t212 89.5t216 32q173 0 308.5 -82.5t210 -229t74.5 -331.5q0 -132 -40 -258.5t-108 -229.5t-160.5 -191t-196.5 -147.5t-216 -93t-219 -33.5zM760 53q62 0 131 15
t144 48.5t145.5 81t134 118t110.5 154.5t75 195.5t28 235.5q0 128 -30 231t-80 170t-119.5 112t-145 64t-158.5 19q-162 0 -305.5 -70t-243 -186.5t-157.5 -271.5t-58 -322q0 -123 31 -224t83 -168.5t121 -114t143 -67t151 -20.5z" />
    <glyph glyph-name="P" unicode="P" horiz-adv-x="1173" 
d="M182 0h-92l303 1556h438q117 0 211 -32t154.5 -104t60.5 -175q0 -133 -77.5 -245t-211.5 -177t-292 -65h-346zM477 1516l-139 -717h336q207 0 344 129t137 325q0 129 -90 196t-252 67h-336z" />
    <glyph glyph-name="Q" unicode="Q" horiz-adv-x="1662" 
d="M1067 -244q-68 0 -126.5 23.5t-100.5 57.5t-81 68t-86 57.5t-98 23.5q-89 0 -184 -60.5t-153 -138.5h-31q48 74 120.5 136t153.5 95q-165 66 -259.5 227t-94.5 380q0 136 38.5 264t105 230.5t156.5 188.5t192 143.5t212 89.5t216 32q173 0 308.5 -82.5t210 -229
t74.5 -331.5q0 -145 -48 -283.5t-130 -248.5t-188.5 -198t-227.5 -142.5t-243 -71.5q15 -11 49 -39t55.5 -42.5t56.5 -33t75.5 -27t88.5 -8.5q192 0 318 137h31q-78 -97 -187 -157t-223 -60zM760 53q62 0 131 15t144 48.5t145.5 81t134 118t110.5 154.5t75 195.5t28 235.5
q0 128 -30 231t-80 170t-119.5 112t-145 64t-158.5 19q-162 0 -305.5 -70t-243 -186.5t-157.5 -271.5t-58 -322q0 -123 31 -224t83 -168.5t121 -114t143 -67t151 -20.5z" />
    <glyph glyph-name="R" unicode="R" horiz-adv-x="1200" 
d="M182 0h-92l303 1556h438q117 0 211 -32t154.5 -104t60.5 -175q0 -130 -75 -240.5t-204.5 -176.5t-283.5 -70l316 -758h-109l-313 758h-258zM477 1516l-139 -717h336q207 0 344 129t137 325q0 129 -90 196t-252 67h-336z" />
    <glyph glyph-name="S" unicode="S" horiz-adv-x="1114" 
d="M410 -23q-88 0 -163.5 22.5t-128.5 60.5t-89 80.5t-58 90.5l45 27q57 -112 164.5 -170.5t239.5 -58.5q148 0 272.5 62t196.5 168.5t72 232.5q0 99 -65.5 155t-199.5 90q-108 28 -155.5 43t-96.5 39q-204 101 -204 279q0 92 37 177.5t102 151.5t163 106t212 40
q239 0 393 -166l-41 -33q-50 65 -159.5 106.5t-207.5 41.5q-114 0 -213.5 -48t-159 -130.5t-59.5 -178.5q0 -74 48.5 -126t148.5 -93q49 -20 213 -65q317 -84 317 -338q0 -115 -49 -220t-132.5 -180.5t-199.5 -120.5t-243 -45z" />
    <glyph glyph-name="T" unicode="T" horiz-adv-x="1226" 
d="M555 0h-92l291 1495h-543l12 61h1178l-12 -61h-543z" />
    <glyph glyph-name="U" unicode="U" horiz-adv-x="1368" 
d="M582 -23q-117 0 -200.5 30t-131 82.5t-69 131t-19.5 168t24 199.5l189 968h92l-188 -968q-52 -264 29 -395.5t304 -131.5q207 0 329 120.5t177 406.5l189 968h92l-189 -968q-28 -144 -75 -252.5t-121 -191t-182.5 -125t-249.5 -42.5z" />
    <glyph glyph-name="V" unicode="V" horiz-adv-x="1292" 
d="M582 0h-62l-330 1556h113l291 -1441l833 1441h70z" />
    <glyph glyph-name="W" unicode="W" horiz-adv-x="2027" 
d="M459 0h-62l-196 1556h110l168 -1392l711 1392h67l205 -1392l697 1392h63l-782 -1556h-62l-202 1403z" />
    <glyph glyph-name="X" unicode="X" horiz-adv-x="1085" 
d="M-25 0h-59l633 778l-342 778h110l306 -700l559 700h59l-594 -749l354 -807h-110l-322 729z" />
    <glyph glyph-name="Y" unicode="Y" horiz-adv-x="1138" 
d="M520 0h-92l113 575l-348 981h114l324 -894l643 894h61l-700 -968z" />
    <glyph glyph-name="Z" unicode="Z" horiz-adv-x="970" 
d="M846 0h-932l-6 20l1089 1475h-710l12 61h819l6 -20l-1081 -1475h815z" />
    <glyph glyph-name="bracketleft" unicode="[" horiz-adv-x="538" 
d="M401 -123h-350l350 1794h351l-4 -20l-277 -92l-305 -1569l240 -92z" />
    <glyph glyph-name="backslash" unicode="\" horiz-adv-x="1751" 
d="M311 1638l1266 -1882h-61l-1270 1882h65z" />
    <glyph glyph-name="bracketright" unicode="]" horiz-adv-x="538" 
d="M238 -123h-351l4 21l277 92l305 1569l-240 92l5 20h350z" />
    <glyph glyph-name="asciicircum" unicode="^" horiz-adv-x="710" 
d="M174 891h-27q179 332 257 444.5t131 112.5q38 0 67 -47t56.5 -171.5t52.5 -338.5h-27l-164 481z" />
    <glyph glyph-name="underscore" unicode="_" horiz-adv-x="929" 
d="M770 -205h-887l15 78h886z" />
    <glyph glyph-name="grave" unicode="`" horiz-adv-x="1357" 
d="M727 1126h-16q-357 291 -357 363q0 22 27 22q83 0 346 -385z" />
    <glyph glyph-name="a" unicode="a" horiz-adv-x="925" 
d="M272 -25q-100 0 -162.5 82t-62.5 238q0 147 57.5 281t157 232.5t240 157t299.5 58.5l-6 -31q-140 0 -265 -52.5t-213.5 -141t-140 -209.5t-51.5 -254q0 -139 51.5 -218t136.5 -79q89 0 183.5 89.5t185.5 242.5l119 653h82l-197 -1024h-82l66 301q-204 -326 -398 -326z
" />
    <glyph glyph-name="b" unicode="b" horiz-adv-x="968" 
d="M391 -23q-138 0 -216.5 78t-78.5 232q0 65 15 145l237 1206h84l-115 -604q129 6 231.5 -20.5t165 -73.5t104 -111.5t57.5 -129t16 -132.5q0 -77 -20 -157.5t-61.5 -158t-99.5 -138.5t-141 -98.5t-178 -37.5zM389 41q78 0 153 38t132.5 103.5t93 160.5t35.5 202
q0 73 -16.5 140.5t-54 128.5t-93 105t-139.5 67.5t-187 17.5l-116 -555q-20 -120 -12 -210.5t60 -144t144 -53.5z" />
    <glyph glyph-name="c" unicode="c" horiz-adv-x="989" 
d="M426 -23q-117 0 -200.5 55.5t-123 145.5t-39.5 203q0 129 49 253t128.5 216t187 148.5t219.5 56.5q117 0 201.5 -53t114.5 -107l-29 -25q-53 53 -134 94.5t-165 41.5q-103 0 -194 -46t-156 -124.5t-102.5 -186.5t-37.5 -229q0 -171 88 -275t224 -104q140 0 245 75
t209 244h31q-82 -168 -215 -275.5t-301 -107.5z" />
    <glyph glyph-name="d" unicode="d" horiz-adv-x="974" 
d="M825 893l146 745h82l-318 -1638h-82q-131 0 -233.5 26t-166.5 68.5t-105.5 101.5t-57.5 119.5t-16 128.5q0 113 43 225t112 196.5t161 137t185 52.5q167 0 250 -162zM659 31l154 796q-35 68 -94.5 116t-140.5 48q-106 0 -202.5 -73t-155 -195t-58.5 -256q0 -85 27.5 -158
t84.5 -134t155.5 -99t229.5 -45z" />
    <glyph glyph-name="e" unicode="e" horiz-adv-x="1003" 
d="M461 41q145 0 260 77.5t215 241.5h10q-82 -164 -224.5 -273.5t-307.5 -109.5q-74 0 -134 25t-99 65.5t-65 96t-37 114t-11 121.5q0 171 80.5 322t219 242.5t296.5 91.5q150 0 227.5 -85t48.5 -233q-16 -83 -62 -161t-86.5 -119t-76.5 -66l-539 238q-26 -89 -26 -183
q0 -185 88.5 -295t222.5 -110zM637 991q-152 0 -278.5 -95t-178.5 -255q172 -64 273.5 -92.5t177.5 -28.5q113 0 179 58t81 143q14 70 -1.5 123.5t-54 84.5t-89 46.5t-109.5 15.5z" />
    <glyph glyph-name="f" unicode="f" horiz-adv-x="536" 
d="M160 0h-82l188 973h-125l11 51h124l48 240q32 155 72 234q87 173 251 173q158 0 244 -158l-23 -16q-1 1 -28 31t-43.5 44t-54 30t-78.5 16q-53 0 -95.5 -25t-66.5 -55t-45.5 -86t-28.5 -84.5t-18 -84.5q-1 -6 -2 -9l-50 -250h271l-11 -51h-270z" />
    <glyph glyph-name="g" unicode="g" horiz-adv-x="976" 
d="M317 -422q-111 0 -181 48.5t-130 178.5h31q66 -109 131 -147.5t141 -38.5q130 0 217 77.5t111 199.5l20 104q-114 -22 -201.5 -23t-152.5 25t-109 63.5t-70.5 92t-38 111t-11.5 120.5q0 177 67.5 331t182 244.5t247.5 90.5q52 0 94 -13.5t73 -39t51.5 -51.5t41.5 -62
l27 135h84l-213 -1092q-15 -81 -47 -143.5t-72 -101.5t-90.5 -64.5t-99.5 -35t-103 -9.5zM664 31l155 798q-87 162 -239 162q-112 0 -208.5 -78t-153 -210t-56.5 -285q0 -77 17 -143.5t54.5 -123t96 -90t142 -44.5t192.5 14z" />
    <glyph glyph-name="h" unicode="h" horiz-adv-x="964" 
d="M121 0h-82l319 1638h82l-168 -858q16 30 38 61t61.5 71t83.5 70.5t105.5 51.5t127.5 21q250 0 191 -307l-146 -748h-82l133 686q31 165 -9.5 235t-153.5 70q-102 0 -211 -96.5t-156 -212.5z" />
    <glyph glyph-name="i" unicode="i" 
d="M336 1313q-32 0 -51 18.5t-19 48.5q0 41 31 73t72 32q32 0 50.5 -19t18.5 -49q0 -41 -30.5 -72.5t-71.5 -31.5zM121 0h-82l199 1024h81z" />
    <glyph glyph-name="j" unicode="j" horiz-adv-x="358" 
d="M315 1313q-33 0 -51 19.5t-18 51.5q0 40 30 70.5t72 30.5q33 0 50.5 -19.5t17.5 -50.5q0 -43 -30 -72.5t-71 -29.5zM-170 -422q-69 0 -120 43t-64 103h30q22 -50 58.5 -77.5t81.5 -27.5q68 0 119 59.5t71 163.5l232 1182h79l-231 -1188q-25 -124 -98 -191t-158 -67z" />
    <glyph glyph-name="k" unicode="k" horiz-adv-x="843" 
d="M121 0h-82l319 1638h82l-243 -1251l616 637h68l-408 -420l293 -604h-111l-256 528l-219 -225z" />
    <glyph glyph-name="l" unicode="l" 
d="M121 0h-82l319 1638h82z" />
    <glyph glyph-name="m" unicode="m" horiz-adv-x="1495" 
d="M121 0h-82l199 1024h81l-47 -244q17 34 50.5 76t84 89t120 78.5t141.5 31.5q200 0 180 -246q23 40 56.5 79t81 78.5t110 64t129.5 24.5q112 0 163.5 -74t20.5 -233l-145 -748h-82l133 686q30 159 -9.5 232t-129.5 73q-97 0 -186.5 -73t-153.5 -185l-144 -733h-82l133 686
q31 160 -5 232.5t-120 72.5q-102 0 -208.5 -94t-155.5 -215z" />
    <glyph glyph-name="n" unicode="n" horiz-adv-x="964" 
d="M121 0h-82l199 1024h81l-47 -246q17 31 37 61.5t58 71.5t79.5 71t102 51.5t125.5 21.5q122 0 179 -74t26 -233l-146 -748h-84l133 686q30 157 -18.5 231t-142.5 74q-111 0 -213.5 -93t-153.5 -216z" />
    <glyph glyph-name="o" unicode="o" horiz-adv-x="1079" 
d="M440 -23q-72 0 -131 21t-98.5 58t-68.5 81.5t-44.5 96.5t-22.5 98t-7 90q0 112 46 225t123 203.5t188 147.5t232 57q74 0 133 -21.5t96.5 -59t64 -81t39.5 -94.5t18.5 -92.5t5.5 -81.5q0 -92 -28 -186.5t-80.5 -176.5t-122 -146t-159 -101.5t-184.5 -37.5zM479 41
q86 0 167.5 43.5t143 117t99 178t37.5 220.5q0 59 -9.5 113.5t-32.5 106t-56.5 89t-85.5 60t-117 22.5q-92 0 -179 -43t-152 -114.5t-104.5 -171.5t-39.5 -207q0 -108 36.5 -200.5t113 -153t179.5 -60.5z" />
    <glyph glyph-name="p" unicode="p" horiz-adv-x="976" 
d="M41 -410h-82l277 1422q166 43 266 43q94 0 167 -24t117 -62.5t72 -93t38.5 -109t10.5 -117.5q0 -183 -68 -337.5t-185 -244.5t-255 -90q-54 0 -96 13t-71.5 40t-46.5 49.5t-38 59.5zM397 41q107 0 206 84t159.5 223t60.5 289q0 80 -21.5 146t-64 117t-114 79.5
t-164.5 28.5q-62 0 -146 -19l-157 -807q40 -60 102 -100.5t139 -40.5z" />
    <glyph glyph-name="q" unicode="q" horiz-adv-x="972" 
d="M657 -410h-82l80 408q-103 -21 -182 -21q-91 0 -162 23.5t-115.5 62.5t-73.5 93.5t-40.5 111.5t-11.5 121q0 131 41.5 254t110.5 213t163 144.5t193 54.5q54 0 95 -13t70 -40.5t46 -51t38 -61.5l27 135h82zM516 25q68 0 148 18l153 786q-37 68 -96.5 115t-140.5 47
q-107 0 -206.5 -85t-160.5 -225t-61 -290q0 -164 90.5 -265t273.5 -101z" />
    <glyph glyph-name="r" unicode="r" horiz-adv-x="636" 
d="M121 0h-82l199 1024h81l-57 -295h2q27 57 64.5 108t88.5 97t119.5 73t143.5 27h35l-13 -63h-38q-64 0 -122.5 -23t-105.5 -63t-87.5 -95.5t-70.5 -117.5t-53 -133z" />
    <glyph glyph-name="s" unicode="s" horiz-adv-x="804" 
d="M291 -23q-210 0 -314 166l29 19q94 -131 287 -131q146 0 248 79t102 193q0 18 -4 34t-15 30t-20.5 24.5t-30.5 22.5t-34.5 19.5t-43.5 19t-46 17.5t-53 19t-54 19q-95 34 -148 86.5t-53 134.5q0 138 103.5 232t255.5 94q187 0 284 -146l-28 -18q-35 42 -110 76t-159 34
q-119 0 -203.5 -68.5t-84.5 -164.5q0 -56 47.5 -93.5t161.5 -74.5q15 -5 48 -15t49 -15t44 -15.5t42.5 -19t35.5 -21.5t32 -27t22.5 -32.5t16 -41t4.5 -48.5q0 -164 -118 -276t-293 -112z" />
    <glyph glyph-name="t" unicode="t" horiz-adv-x="589" 
d="M258 -23q-101 0 -129.5 77t2.5 222l135 697h-155l10 51h155l68 348h82l-68 -348h271l-11 -51h-270l-133 -686q-27 -141 -6.5 -198.5t96.5 -57.5q121 0 213 157l21 -4q-50 -102 -123.5 -154.5t-157.5 -52.5z" />
    <glyph glyph-name="u" unicode="u" horiz-adv-x="923" 
d="M264 -23q-54 0 -91 15.5t-64.5 54t-30 104t13.5 166.5l137 707h82l-131 -680q-59 -303 135 -303q102 0 191.5 73.5t152.5 182.5l142 727h82l-199 -1024h-82l41 215q-26 -41 -59.5 -78t-80.5 -75.5t-109.5 -61.5t-129.5 -23z" />
    <glyph glyph-name="v" unicode="v" horiz-adv-x="837" 
d="M375 0h-80l-174 1024h92l152 -924l317 555q92 161 92 250q0 78 -76 78q-32 0 -80.5 -25.5t-95.5 -68.5v41q46 48 101 77t102 29q117 0 117 -116q0 -92 -70 -213z" />
    <glyph glyph-name="w" unicode="w" horiz-adv-x="1314" 
d="M301 0h-61l-115 1024h90l88 -911l442 911h72l82 -911l279 577q69 145 69 217q0 76 -71 76q-77 0 -181 -94v41q106 106 209 106q56 0 82.5 -29t26.5 -79q0 -79 -66 -215l-352 -713h-61l-86 924z" />
    <glyph glyph-name="x" unicode="x" horiz-adv-x="872" 
d="M707 0h-89l-180 471q-61 -99 -112 -172.5t-112.5 -148t-119 -114.5t-106.5 -40q-68 0 -68 67q0 92 78 173h31q-31 -38 -50.5 -81.5t-19.5 -72.5q0 -39 33 -39q65 0 178 134.5t246 350.5l-185 496h88l156 -410q17 27 53.5 88t59 97.5t59.5 87t66.5 79t67 49.5t73.5 21
q72 0 72 -69q0 -74 -84 -183h-29q32 44 52 92t20 80q0 39 -41 39q-47 0 -102.5 -69.5t-178.5 -260.5q-43 -67 -67 -104z" />
    <glyph glyph-name="y" unicode="y" horiz-adv-x="827" 
d="M-49 -422q-63 0 -105 41t-73 115h30q55 -119 136 -119q77 0 172 97.5t180 258.5l-170 1053h88l151 -952l318 583q92 177 92 252q0 76 -78 76q-70 0 -174 -94v41q101 106 201 106q110 0 110 -106t-98 -283l-377 -676q-219 -393 -403 -393z" />
    <glyph glyph-name="z" unicode="z" horiz-adv-x="745" 
d="M793 1024l6 -20l-744 -943h570l-13 -61h-686l-6 20l750 943h-473l12 61h584z" />
    <glyph glyph-name="braceleft" unicode="{" horiz-adv-x="532" 
d="M395 -123h-57q-244 0 -244 199q0 33 10 88l78 401q6 30 6 56q0 54 -21.5 81t-51.5 27h-6l18 90h6q37 0 75 41.5t54 122.5l78 401q55 287 348 287h57l-4 -20h-45q-52 0 -94.5 -18.5t-71 -48.5t-51 -75.5t-36.5 -91.5t-25 -104l-58 -289q-20 -102 -61 -164t-94 -76l-2 -20
q71 -19 71 -137q0 -54 -10 -103l-57 -288q-19 -101 -19 -152q0 -88 38 -137t128 -49h45z" />
    <glyph glyph-name="bar" unicode="|" horiz-adv-x="446" 
d="M90 -410h-92l397 2048h92z" />
    <glyph glyph-name="braceright" unicode="}" horiz-adv-x="534" 
d="M-53 -123h-58l5 21h45q52 0 94.5 18.5t71 48.5t51 75.5t36.5 91.5t25 104l57 288q42 214 156 240l2 20q-72 22 -72 142q0 30 11 98l57 289q18 95 18 151q0 89 -37.5 138t-127.5 49h-45l4 20h57q244 0 244 -198q0 -29 -11 -89l-77 -401q-7 -35 -7 -55q0 -54 22 -81.5
t52 -27.5h6l-18 -90h-6q-37 0 -75 -41.5t-54 -122.5l-78 -401q-28 -142 -113 -214.5t-235 -72.5z" />
    <glyph glyph-name="asciitilde" unicode="~" horiz-adv-x="911" 
d="M610 506q-52 0 -96 18t-70 39.5t-64 39.5t-79 18q-51 0 -97.5 -25.5t-62.5 -83.5h-30q18 79 75 126.5t142 47.5q49 0 92.5 -18t70.5 -39.5t67.5 -39.5t84.5 -18q53 0 99.5 25.5t62.5 83.5h31q-21 -80 -80 -127t-146 -47z" />
    <glyph glyph-name="exclamdown" unicode="&#xa1;" horiz-adv-x="444" 
d="M453 1638q37 0 58 -21t21 -56q0 -47 -33.5 -81t-82.5 -34q-36 0 -58 23t-22 57q0 47 34 79.5t83 32.5zM362 1313h29q-18 -134 -96.5 -635t-89.5 -555q-18 -85 -38.5 -115.5t-49.5 -30.5q-41 0 -41 76q0 60 106 512t180 748z" />
    <glyph glyph-name="cent" unicode="&#xa2;" horiz-adv-x="1099" 
d="M774 1278q-244 0 -397.5 -161.5t-153.5 -418.5q0 -175 97 -278t255 -103q147 0 252.5 76t210.5 244h31q-39 -77 -86 -140t-108 -116.5t-138.5 -86t-165.5 -38.5l-51 -256h-92l51 256q-163 17 -249.5 127.5t-86.5 275.5q0 167 71.5 312t195.5 238.5t276 115.5l62 313h92
l-60 -307q74 -1 134.5 -18t99 -43.5t61 -50.5t35.5 -48l-29 -24q-53 48 -85 71t-89.5 41.5t-132.5 18.5z" />
    <glyph glyph-name="sterling" unicode="&#xa3;" horiz-adv-x="1005" 
d="M702 1573q53 0 102.5 -15t82 -34.5t61 -44.5t40.5 -38.5t18 -23.5l-25 -20q-36 42 -118.5 87.5t-160.5 45.5q-107 0 -174 -91t-67 -239q0 -49 8 -111.5t15 -100t24 -114t20 -92.5h359l-13 -65h-333q12 -67 12 -123q0 -161 -85 -306t-220 -216l-2 -11h618l-12 -61h-891
l6 31q243 37 377.5 187t134.5 382q0 56 -8 113v4h-319l12 65h295q-3 15 -16 69.5t-19 84t-14.5 78t-12.5 91t-4 83.5q0 177 83.5 281t225.5 104z" />
    <glyph glyph-name="currency" unicode="&#xa4;" horiz-adv-x="1136" 
d="M1022 856q0 -118 -43 -219.5t-119 -171.5l125 -193l-43 -30l-123 190q-116 -86 -264 -86q-167 0 -250 113l-225 -217l-31 30l232 226q-39 76 -39 176q0 119 44.5 219.5t123.5 169.5l-160 246l43 30l158 -245q124 84 274 84q120 0 195 -66l235 227l31 -30l-236 -228
q72 -84 72 -225zM322 711q0 -136 73 -218.5t199 -82.5q143 0 241.5 119t98.5 300q0 130 -64.5 207.5t-177.5 77.5q-159 0 -264.5 -112.5t-105.5 -290.5z" />
    <glyph glyph-name="yen" unicode="&#xa5;" horiz-adv-x="985" 
d="M1075 1556h49l-514 -835h285l-14 -66h-308l-26 -139h307l-12 -65h-307l-89 -451h-92l88 451h-323l12 65h324l26 137v2h-323l14 66h293l-209 835h90l223 -835z" />
    <glyph glyph-name="brokenbar" unicode="&#xa6;" horiz-adv-x="454" 
d="M326 778h-93l166 860h93zM94 -410h-92l168 861h92z" />
    <glyph glyph-name="section" unicode="&#xa7;" horiz-adv-x="876" 
d="M319 -23q-209 0 -313 166l152 275h30q-43 -79 -59 -156q-6 -30 -6 -57q0 -78 50 -124t157 -46q147 0 249.5 78t102.5 184q0 20 -5 37t-18.5 32.5t-25 27t-38 25.5t-44 22.5t-54.5 22t-58.5 21t-67.5 23.5q-195 66 -195 217q0 26 6 53q19 101 90.5 166t171.5 96l2 9
q-145 60 -145 204q0 30 6 60q24 124 117 192t215 68q72 0 132 -27t89.5 -56.5t50.5 -62.5l-118 -223h-31q30 58 39 105q4 32 4 45q0 74 -50 116.5t-130 42.5q-94 0 -178.5 -53t-102.5 -141q-4 -20 -4 -31q0 -58 49.5 -97.5t147.5 -72.5q18 -6 58 -18t60 -19t52.5 -21
t50 -28.5t36.5 -36t27 -49.5t8 -63q0 -31 -6 -68q-18 -97 -72 -165.5t-135 -104.5l-2 -8q58 -28 87.5 -68.5t29.5 -103.5q0 -18 -8 -68q-30 -154 -142 -237t-262 -83zM543 567q106 26 172.5 95t66.5 153q0 63 -60.5 107.5t-193.5 81.5q-109 0 -198 -57t-107 -148
q-4 -20 -4 -31q0 -56 50.5 -94t166.5 -74z" />
    <glyph glyph-name="dieresis" unicode="&#xa8;" horiz-adv-x="1226" 
d="M272 1309q-29 0 -46 16t-17 43q0 40 28 69t66 29q32 0 50 -17t18 -44q0 -40 -29 -68t-70 -28zM539 1309q-29 0 -46.5 16.5t-17.5 42.5q0 40 28 69t66 29q32 0 50 -17t18 -44q0 -40 -28.5 -68t-69.5 -28z" />
    <glyph glyph-name="copyright" unicode="&#xa9;" horiz-adv-x="1800" 
d="M797 -23q-142 0 -264.5 49.5t-208 135t-134.5 204.5t-49 255q0 120 37 239.5t102 223t156.5 193t197 153t227.5 99.5t245 36q142 0 264 -49t207 -134.5t133.5 -204t48.5 -253.5q0 -179 -81 -353.5t-212.5 -304t-308.5 -209.5t-360 -80zM807 35q169 0 333.5 74t286.5 194
t197.5 281.5t75.5 328.5q0 125 -44.5 235t-123.5 189t-192.5 124.5t-245.5 45.5q-136 0 -270 -47t-245 -131.5t-196.5 -193t-133.5 -240t-48 -264.5q0 -125 44.5 -235.5t123.5 -189.5t192.5 -125t245.5 -46zM862 295q-89 0 -157.5 31.5t-109 85.5t-61 118t-20.5 136
q0 111 46.5 218.5t122 187t177.5 128.5t207 49q64 0 119.5 -16.5t92 -42.5t60 -51t35.5 -49l-28 -25q-36 33 -67.5 55.5t-94 44t-133.5 21.5q-196 0 -325.5 -136.5t-129.5 -342.5q0 -151 83.5 -250t213.5 -99q141 0 247 76.5t208 243.5h30q-39 -80 -89.5 -146.5t-114.5 -121
t-144 -85t-168 -30.5z" />
    <glyph glyph-name="ordfeminine" unicode="&#xaa;" horiz-adv-x="788" 
d="M360 717q-79 0 -129.5 72.5t-50.5 199.5q0 117 46.5 222t126.5 180.5t193 120t240 44.5h70l-162 -819h-67l51 250q-167 -270 -318 -270zM393 768q127 0 295 287l94 477q-150 0 -274 -70.5t-195 -191t-71 -264.5q0 -111 42 -174.5t109 -63.5z" />
    <glyph glyph-name="guillemotleft" unicode="&#xab;" horiz-adv-x="931" 
d="M549 918h31q-298 -285 -418 -388q93 -122 268 -385h-31l-317 379l2 13zM883 918h30q-307 -294 -417 -388q93 -122 268 -385h-31l-317 379l2 13z" />
    <glyph glyph-name="logicalnot" unicode="&#xac;" horiz-adv-x="978" 
d="M782 213h-65l65 330h-657l12 65h723z" />
    <glyph glyph-name="uni00AD" unicode="&#xad;" horiz-adv-x="657" 
d="M592 537h-518l14 77h518z" />
    <glyph glyph-name="registered" unicode="&#xae;" horiz-adv-x="1204" 
d="M606 530q-181 0 -298.5 117t-117.5 291q0 151 86.5 290t228.5 223.5t296 84.5q183 0 298 -114.5t115 -288.5q0 -114 -51.5 -225t-135 -193.5t-195 -133.5t-226.5 -51zM614 580q105 0 206 45.5t176.5 119.5t122 174t46.5 203q0 157 -104 261t-268 104q-105 0 -207 -45.5
t-177.5 -119t-122 -173t-46.5 -201.5q0 -158 105 -263t269 -105zM545 743h-49l118 609h193q74 0 111.5 -32.5t37.5 -86.5q0 -76 -58 -132.5t-136 -56.5l72 -301h-56l-71 301h-103zM655 1317l-45 -238h142q71 0 112 44.5t41 107.5q0 86 -129 86h-121z" />
    <glyph glyph-name="macron" unicode="&#xaf;" horiz-adv-x="1228" 
d="M852 1233h-539l15 78h538z" />
    <glyph glyph-name="degree" unicode="&#xb0;" horiz-adv-x="526" 
d="M381 1124q-69 0 -114.5 47.5t-45.5 116.5q0 87 72 153t162 66q67 0 112 -46.5t45 -114.5q0 -86 -72.5 -154t-158.5 -68zM391 1182q61 0 111.5 47t50.5 108q0 48 -31 80.5t-78 32.5q-65 0 -114 -46.5t-49 -107.5q0 -48 30.5 -81t79.5 -33z" />
    <glyph glyph-name="plusminus" unicode="&#xb1;" horiz-adv-x="925" 
d="M569 934l-63 -330h325l-12 -65h-327l-64 -328h-66l64 328h-330l13 65h331l64 330h65zM737 0h-723l13 66h723z" />
    <glyph glyph-name="uni00B2" unicode="&#xb2;" horiz-adv-x="657" 
d="M676 827h-563l2 11q70 12 165.5 76.5t181.5 151.5t146 193.5t60 192.5q0 70 -38 115t-102 45q-72 0 -147 -56t-115 -112l-20 10q50 78 133.5 134.5t181.5 56.5q34 0 64 -7.5t59 -25t46.5 -52t17.5 -83.5q0 -45 -12 -91.5t-30.5 -86.5t-48.5 -82.5t-57 -75t-66 -69
t-66 -60t-66 -53t-57 -42t-48 -32.5t-31 -21v-4h416z" />
    <glyph glyph-name="uni00B3" unicode="&#xb3;" horiz-adv-x="688" 
d="M510 1260q88 13 156.5 -26.5t68.5 -121.5q0 -76 -51 -145t-134.5 -110.5t-174.5 -41.5q-84 0 -151.5 34.5t-96.5 94.5l23 10q34 -59 99 -84.5t136 -25.5q115 0 194.5 79t79.5 195q0 56 -31.5 86.5t-92.5 30.5q-86 0 -166 -45l10 45q299 105 299 262q0 49 -37.5 80
t-108.5 31q-67 0 -132 -29t-115 -90l-19 10q44 53 120 99.5t169 46.5q79 0 140 -35.5t61 -102.5q0 -73 -66.5 -138t-179.5 -109z" />
    <glyph glyph-name="acute" unicode="&#xb4;" horiz-adv-x="1220" 
d="M291 1126h-17q263 385 347 385q26 0 26 -22q0 -79 -356 -363z" />
    <glyph glyph-name="uni00B5" unicode="&#xb5;" horiz-adv-x="995" 
d="M78 -389h-82l274 1413h80l-131 -680q-59 -303 135 -303q102 0 191.5 73.5t152.5 182.5l142 727h82l-199 -1024h-82l41 215q-23 -34 -44 -61.5t-56 -62.5t-70 -58t-83.5 -39.5t-100.5 -16.5q-116 0 -162 91z" />
    <glyph glyph-name="paragraph" unicode="&#xb6;" horiz-adv-x="1323" 
d="M1321 1556l-303 -1556h-92l286 1475h-305l-286 -1475h-93l148 758h-80q-86 0 -160.5 19.5t-134 58t-93.5 101.5t-34 144q0 132 75.5 241t208.5 171.5t294 62.5h569z" />
    <glyph glyph-name="periodcentered" unicode="&#xb7;" horiz-adv-x="415" 
d="M190 428q-37 0 -58 21.5t-21 56.5q0 47 33.5 81t82.5 34q36 0 58 -23t22 -57q0 -47 -34 -80t-83 -33z" />
    <glyph glyph-name="cedilla" unicode="&#xb8;" horiz-adv-x="1228" 
d="M113 -418q-57 0 -111 35l2 16q44 -20 94 -20q64 0 109 32.5t45 84.5q0 39 -33 65.5t-98 26.5l8 39l127 166h35l-111 -144q67 0 100 -30t33 -78q0 -67 -58.5 -130t-141.5 -63z" />
    <glyph glyph-name="uni00B9" unicode="&#xb9;" horiz-adv-x="399" 
d="M340 827h-64l142 732l-230 -213l5 24l233 266h72z" />
    <glyph glyph-name="ordmasculine" unicode="&#xba;" horiz-adv-x="901" 
d="M492 713q-63 0 -115.5 21.5t-87 56.5t-58.5 82t-34.5 96t-10.5 100q0 62 19.5 130.5t60 135.5t96 120.5t134.5 86.5t168 33q77 0 135.5 -31t91.5 -82.5t49 -109.5t16 -121q0 -61 -19.5 -131t-60 -138.5t-94.5 -124t-130 -90t-160 -34.5zM522 764q89 0 170.5 61.5
t130.5 165.5t49 219q0 133 -61.5 223.5t-171.5 90.5q-156 0 -265.5 -125.5t-109.5 -302.5q0 -137 69.5 -234.5t188.5 -97.5z" />
    <glyph glyph-name="guillemotright" unicode="&#xbb;" horiz-adv-x="929" 
d="M53 145h-30q297 284 417 387q-87 115 -268 386h31l317 -379l-2 -13zM387 145h-31q288 275 418 387q-87 115 -268 386h31l317 -379l-2 -13z" />
    <glyph glyph-name="onequarter" unicode="&#xbc;" horiz-adv-x="1308" 
d="M383 827h-64l142 732l-230 -213l5 24l233 266h72zM84 0h-61l1081 1556h65zM1047 0h-64l39 203h-401l4 20l505 586h74l-112 -576h110l-6 -30h-111zM1130 760l-454 -527h352z" />
    <glyph glyph-name="onehalf" unicode="&#xbd;" horiz-adv-x="1462" 
d="M385 827h-63l141 732l-230 -213l5 24l233 266h72zM86 0h-61l1081 1556h65zM1311 0h-563l2 10q70 12 165.5 76.5t181.5 152t146 194t60 192.5q0 70 -38 114.5t-102 44.5q-72 0 -147 -56t-115 -112l-20 11q50 78 133.5 134t181.5 56q33 0 63 -7.5t59.5 -25t46.5 -52
t17 -83.5q0 -45 -12 -91.5t-30.5 -86.5t-48 -82t-57 -74.5t-66 -69t-65.5 -60t-66 -53t-57 -42t-48 -32.5t-31 -21v-4h416z" />
    <glyph glyph-name="threequarters" unicode="&#xbe;" horiz-adv-x="1560" 
d="M743 1112q0 -76 -51 -145t-134.5 -110.5t-174.5 -41.5q-84 0 -151.5 34.5t-96.5 94.5l23 10q34 -59 99 -84.5t136 -25.5q116 0 195.5 79.5t79.5 194.5q0 56 -32 86.5t-93 30.5q-86 0 -166 -45l10 45q299 105 299 262q0 50 -37 80.5t-108 30.5q-67 0 -132.5 -29
t-115.5 -90l-19 10q44 53 120 99.5t169 46.5q79 0 140 -35.5t61 -102.5q0 -73 -66.5 -138t-179.5 -109q88 13 156.5 -26.5t68.5 -121.5zM274 0l1082 1556h65l-1085 -1556h-62zM1382 809h74l-113 -576h111l-6 -30h-111l-39 -203h-63l39 203h-402l5 20zM928 233h352l102 527z
" />
    <glyph glyph-name="questiondown" unicode="&#xbf;" horiz-adv-x="886" 
d="M743 1669q37 0 58.5 -21.5t21.5 -56.5q0 -46 -33.5 -80t-82.5 -34q-36 0 -58 22.5t-22 56.5q0 47 33.5 80t82.5 33zM664 1339h20q-5 -87 -20 -170q-21 -104 -64.5 -172.5t-169.5 -208.5q-46 -51 -75 -85t-71.5 -92.5t-66.5 -107.5t-42.5 -113t-18.5 -126
q0 -112 64 -166.5t165 -54.5q112 0 218 60.5t167 150.5l18 -10q-61 -112 -180.5 -189.5t-259.5 -77.5q-42 0 -81.5 7t-81 26.5t-72.5 49.5t-50.5 80t-19.5 114q0 235 211 461q43 47 105.5 105.5t100 97t80 97t73 137.5t51.5 187z" />
    <glyph glyph-name="Agrave" unicode="&#xc0;" horiz-adv-x="1368" 
d="M918 1659h-17q-356 290 -356 362q0 23 26 23q84 0 347 -385zM-31 0h-71l950 1573h61l381 -1573h-112l-164 702h-627zM836 1458l-412 -694h575z" />
    <glyph glyph-name="Aacute" unicode="&#xc1;" horiz-adv-x="1368" 
d="M895 1659h-16q263 385 346 385q26 0 26 -23q0 -78 -356 -362zM-31 0h-71l950 1573h61l381 -1573h-112l-164 702h-627zM836 1458l-412 -694h575z" />
    <glyph glyph-name="Acircumflex" unicode="&#xc2;" horiz-adv-x="1368" 
d="M682 1618h-16q43 57 88 117t69.5 94t50.5 68.5t40 51t29 31t25 19t21 4.5t19.5 -4.5t17 -18.5t16 -31t19.5 -51t23.5 -68.5t32.5 -94t42 -117.5h-16q-10 15 -40.5 62t-41.5 64.5t-32 51.5t-34.5 59.5t-25.5 51.5q-28 -34 -68.5 -76t-63.5 -65t-83 -79.5t-72 -68.5zM-31 0
h-71l950 1573h61l381 -1573h-112l-164 702h-627zM836 1458l-412 -694h575z" />
    <glyph glyph-name="Atilde" unicode="&#xc3;" horiz-adv-x="1368" 
d="M676 1700h-17q27 92 80.5 143t116.5 51q38 0 68.5 -17t47.5 -37t43 -37t56 -17q89 0 150 129h16q-26 -92 -80 -143.5t-119 -51.5q-38 0 -68.5 17t-47.5 37.5t-42.5 37.5t-54.5 17q-87 0 -149 -129zM-31 0h-71l950 1573h61l381 -1573h-112l-164 702h-627zM836 1458
l-412 -694h575z" />
    <glyph glyph-name="Adieresis" unicode="&#xc4;" horiz-adv-x="1368" 
d="M743 1739q-29 0 -46 16t-17 43q0 40 28 69t66 29q32 0 50 -17t18 -44q0 -40 -29 -68t-70 -28zM1010 1739q-29 0 -46.5 16.5t-17.5 42.5q0 40 28 69t66 29q32 0 50 -17t18 -44q0 -40 -28.5 -68t-69.5 -28zM-31 0h-71l950 1573h61l381 -1573h-112l-164 702h-627zM836 1458
l-412 -694h575z" />
    <glyph glyph-name="Aring" unicode="&#xc5;" horiz-adv-x="1368" 
d="M922 1704q-61 0 -99.5 38.5t-38.5 96.5q0 75 62 135t139 60q58 0 96.5 -38.5t38.5 -94.5q0 -74 -61.5 -135.5t-136.5 -61.5zM930 1751q53 0 98 43.5t45 95.5q0 40 -28 68.5t-68 28.5q-56 0 -101 -43t-45 -97q0 -39 28.5 -67.5t70.5 -28.5zM-31 0h-71l950 1573h61
l381 -1573h-112l-164 702h-627zM836 1458l-412 -694h575z" />
    <glyph glyph-name="AE" unicode="&#xc6;" horiz-adv-x="1636" 
d="M-55 0h-72l1124 1556h797l-14 -61h-697l-120 -627h450l-12 -61h-451l-147 -746h717l-11 -61h-809l138 702h-392zM979 1450l-490 -686h359l135 686h-4z" />
    <glyph glyph-name="Ccedilla" unicode="&#xc7;" horiz-adv-x="1564" 
d="M1544 616h31q-129 -272 -344.5 -445.5t-474.5 -190.5l-74 -97q67 0 100 -30t33 -78q0 -67 -59 -130t-142 -63q-56 0 -110 35l2 16q44 -20 94 -20q64 0 109 32.5t45 84.5q0 39 -33 65.5t-98 26.5l8 39l90 116h-14q-268 0 -429 166.5t-161 434.5q0 127 36 253.5t99 235
t152.5 203t192.5 161t221.5 104.5t238.5 38q111 0 219 -34t168 -70t92 -68l-39 -31q-88 64 -209.5 108t-238.5 44q-86 0 -180 -23.5t-195 -78t-186 -133t-152.5 -199t-95.5 -265.5q-22 -143 -15 -256t45 -198.5t91.5 -145.5t124.5 -98t144.5 -55t151.5 -17
q229 0 425.5 145.5t336.5 417.5z" />
    <glyph glyph-name="Egrave" unicode="&#xc8;" horiz-adv-x="1026" 
d="M809 1659h-16q-357 291 -357 362q0 23 27 23q83 0 346 -385zM899 0h-809l303 1556h789l-13 -61h-696l-123 -627h451l-10 -61h-451l-145 -746h716z" />
    <glyph glyph-name="Eacute" unicode="&#xc9;" horiz-adv-x="1026" 
d="M786 1659h-16q263 385 346 385q27 0 27 -23q0 -78 -357 -362zM899 0h-809l303 1556h789l-13 -61h-696l-123 -627h451l-10 -61h-451l-145 -746h716z" />
    <glyph glyph-name="Ecircumflex" unicode="&#xca;" horiz-adv-x="1026" 
d="M573 1618h-16q43 57 88 117.5t69.5 94t51 68t40.5 51t29 31t25 19t21 4.5t19.5 -4.5t17 -18.5t16 -31t19.5 -51t23.5 -68.5t32.5 -94t42 -117.5h-17q-10 15 -40.5 62t-41.5 64.5t-32 51.5t-34.5 59.5t-25.5 51.5q-28 -34 -68.5 -76t-63.5 -65t-83 -79.5t-72 -68.5zM899 0
h-809l303 1556h789l-13 -61h-696l-123 -627h451l-10 -61h-451l-145 -746h716z" />
    <glyph glyph-name="Edieresis" unicode="&#xcb;" horiz-adv-x="1026" 
d="M635 1739q-29 0 -46.5 16.5t-17.5 42.5q0 40 28.5 69t66.5 29q31 0 49 -17t18 -44q0 -40 -28.5 -68t-69.5 -28zM901 1739q-29 0 -46 16t-17 43q0 40 28 69t66 29q31 0 49 -17t18 -44q0 -40 -28.5 -68t-69.5 -28zM899 0h-809l303 1556h789l-13 -61h-696l-123 -627h451
l-10 -61h-451l-145 -746h716z" />
    <glyph glyph-name="Igrave" unicode="&#xcc;" horiz-adv-x="473" 
d="M465 1659h-16q-357 291 -357 362q0 23 27 23q83 0 346 -385zM182 0h-92l303 1556h92z" />
    <glyph glyph-name="Iacute" unicode="&#xcd;" horiz-adv-x="473" 
d="M442 1659h-16q263 385 346 385q27 0 27 -23q0 -78 -357 -362zM182 0h-92l303 1556h92z" />
    <glyph glyph-name="Icircumflex" unicode="&#xce;" horiz-adv-x="473" 
d="M229 1618h-16q43 57 88 117.5t69.5 94t51 68t40.5 51t29 31t25 19t21 4.5t19.5 -4.5t17 -18.5t16 -31t19.5 -51t23.5 -68.5t32.5 -94t42 -117.5h-17q-10 15 -40.5 62t-41.5 64.5t-32 51.5t-34.5 59.5t-25.5 51.5q-28 -34 -68.5 -76t-63.5 -65t-83 -79.5t-72 -68.5zM182 0
h-92l303 1556h92z" />
    <glyph glyph-name="Idieresis" unicode="&#xcf;" horiz-adv-x="473" 
d="M291 1739q-29 0 -46.5 16.5t-17.5 42.5q0 40 28.5 69t66.5 29q31 0 49 -17t18 -44q0 -40 -28.5 -68t-69.5 -28zM557 1739q-29 0 -46 16t-17 43q0 40 28 69t66 29q31 0 49 -17t18 -44q0 -40 -28.5 -68t-69.5 -28zM182 0h-92l303 1556h92z" />
    <glyph glyph-name="Eth" unicode="&#xd0;" horiz-adv-x="1560" 
d="M406 1556h532q286 0 442 -153t156 -447q0 -194 -69 -370t-187.5 -305t-286 -205t-356.5 -76h-535l146 752h-129l10 51h129zM203 41h383q138 0 267.5 47.5t232 133t179.5 198t118.5 249t41.5 279.5q0 269 -145.5 418.5t-407.5 149.5h-383l-139 -713h277l-11 -51h-276z" />
    <glyph glyph-name="Ntilde" unicode="&#xd1;" horiz-adv-x="1312" 
d="M641 1700h-16q27 92 80 143t116 51q38 0 68.5 -17t47.5 -37t43 -37t56 -17q88 0 150 129h16q-26 -92 -80 -143.5t-118 -51.5q-38 0 -68.5 17t-47.5 37.5t-42.5 37.5t-54.5 17q-42 0 -81 -33t-69 -96zM184 0h-94l303 1556h94l494 -1288l252 1288h92l-303 -1556h-51
l-520 1370z" />
    <glyph glyph-name="Ograve" unicode="&#xd2;" horiz-adv-x="1662" 
d="M1061 1659h-17q-356 290 -356 362q0 23 27 23q83 0 346 -385zM700 -23q-170 0 -301 82.5t-201.5 230t-70.5 335.5q0 136 38.5 264t105 230.5t156.5 188.5t192 143.5t212 89.5t216 32q173 0 308.5 -82.5t210 -229t74.5 -331.5q0 -132 -40 -258.5t-108 -229.5t-160.5 -191
t-196.5 -147.5t-216 -93t-219 -33.5zM760 53q62 0 131 15t144 48.5t145.5 81t134 118t110.5 154.5t75 195.5t28 235.5q0 128 -30 231t-80 170t-119.5 112t-145 64t-158.5 19q-162 0 -305.5 -70t-243 -186.5t-157.5 -271.5t-58 -322q0 -123 31 -224t83 -168.5t121 -114
t143 -67t151 -20.5z" />
    <glyph glyph-name="Oacute" unicode="&#xd3;" horiz-adv-x="1662" 
d="M1038 1659h-16q263 385 346 385q27 0 27 -23q0 -78 -357 -362zM700 -23q-170 0 -301 82.5t-201.5 230t-70.5 335.5q0 136 38.5 264t105 230.5t156.5 188.5t192 143.5t212 89.5t216 32q173 0 308.5 -82.5t210 -229t74.5 -331.5q0 -132 -40 -258.5t-108 -229.5t-160.5 -191
t-196.5 -147.5t-216 -93t-219 -33.5zM760 53q62 0 131 15t144 48.5t145.5 81t134 118t110.5 154.5t75 195.5t28 235.5q0 128 -30 231t-80 170t-119.5 112t-145 64t-158.5 19q-162 0 -305.5 -70t-243 -186.5t-157.5 -271.5t-58 -322q0 -123 31 -224t83 -168.5t121 -114
t143 -67t151 -20.5z" />
    <glyph glyph-name="Ocircumflex" unicode="&#xd4;" horiz-adv-x="1662" 
d="M825 1618h-16q43 57 88 117.5t69.5 94t51 68t40.5 51t29 31t25 19t21 4.5t19.5 -4.5t17 -18.5t16 -31t19.5 -51t23.5 -68.5t32.5 -94t42 -117.5h-17q-10 15 -40.5 62t-41.5 64.5t-32 51.5t-34.5 59.5t-25.5 51.5q-28 -34 -68.5 -76t-63.5 -65t-83 -79.5t-72 -68.5z
M700 -23q-170 0 -301 82.5t-201.5 230t-70.5 335.5q0 136 38.5 264t105 230.5t156.5 188.5t192 143.5t212 89.5t216 32q173 0 308.5 -82.5t210 -229t74.5 -331.5q0 -132 -40 -258.5t-108 -229.5t-160.5 -191t-196.5 -147.5t-216 -93t-219 -33.5zM760 53q62 0 131 15
t144 48.5t145.5 81t134 118t110.5 154.5t75 195.5t28 235.5q0 128 -30 231t-80 170t-119.5 112t-145 64t-158.5 19q-162 0 -305.5 -70t-243 -186.5t-157.5 -271.5t-58 -322q0 -123 31 -224t83 -168.5t121 -114t143 -67t151 -20.5z" />
    <glyph glyph-name="Otilde" unicode="&#xd5;" horiz-adv-x="1662" 
d="M819 1700h-16q27 92 80 143t116 51q38 0 68.5 -17t47.5 -37t43 -37t56 -17q88 0 150 129h16q-26 -92 -80 -143.5t-118 -51.5q-38 0 -68.5 17t-47.5 37.5t-42.5 37.5t-54.5 17q-42 0 -81 -33t-69 -96zM700 -23q-170 0 -301 82.5t-201.5 230t-70.5 335.5q0 136 38.5 264
t105 230.5t156.5 188.5t192 143.5t212 89.5t216 32q173 0 308.5 -82.5t210 -229t74.5 -331.5q0 -132 -40 -258.5t-108 -229.5t-160.5 -191t-196.5 -147.5t-216 -93t-219 -33.5zM760 53q62 0 131 15t144 48.5t145.5 81t134 118t110.5 154.5t75 195.5t28 235.5q0 128 -30 231
t-80 170t-119.5 112t-145 64t-158.5 19q-162 0 -305.5 -70t-243 -186.5t-157.5 -271.5t-58 -322q0 -123 31 -224t83 -168.5t121 -114t143 -67t151 -20.5z" />
    <glyph glyph-name="Odieresis" unicode="&#xd6;" horiz-adv-x="1662" 
d="M887 1739q-29 0 -46.5 16.5t-17.5 42.5q0 40 28.5 69t66.5 29q31 0 49 -17t18 -44q0 -40 -28.5 -68t-69.5 -28zM1153 1739q-29 0 -46 16t-17 43q0 40 28 69t66 29q31 0 49 -17t18 -44q0 -40 -28.5 -68t-69.5 -28zM700 -23q-170 0 -301 82.5t-201.5 230t-70.5 335.5
q0 136 38.5 264t105 230.5t156.5 188.5t192 143.5t212 89.5t216 32q173 0 308.5 -82.5t210 -229t74.5 -331.5q0 -132 -40 -258.5t-108 -229.5t-160.5 -191t-196.5 -147.5t-216 -93t-219 -33.5zM760 53q62 0 131 15t144 48.5t145.5 81t134 118t110.5 154.5t75 195.5t28 235.5
q0 128 -30 231t-80 170t-119.5 112t-145 64t-158.5 19q-162 0 -305.5 -70t-243 -186.5t-157.5 -271.5t-58 -322q0 -123 31 -224t83 -168.5t121 -114t143 -67t151 -20.5z" />
    <glyph glyph-name="multiply" unicode="&#xd7;" horiz-adv-x="784" 
d="M406 575l-281 -233l-37 45l279 234l-189 233l55 45l189 -231l276 231l37 -47l-276 -231l186 -232l-55 -47z" />
    <glyph glyph-name="Oslash" unicode="&#xd8;" horiz-adv-x="1662" 
d="M1575 1559l-121 -146q89 -87 137.5 -211.5t48.5 -271.5q0 -132 -40 -258.5t-108 -229.5t-160.5 -191t-196.5 -147.5t-216 -93t-219 -33.5q-205 0 -352 119l-135 -162h-74l168 201q-87 87 -133.5 213t-46.5 277q0 136 38.5 264t105 230.5t156.5 188.5t192 143.5t212 89.5
t216 32q213 0 362 -121l90 107h76zM231 647q0 -271 146 -430l971 1161q-139 119 -353 119q-162 0 -305.5 -70t-243 -186.5t-157.5 -271.5t-58 -322zM760 53q62 0 131 15t144 48.5t145.5 81t134 118t110.5 154.5t75 195.5t28 235.5q0 284 -139 436l-971 -1159
q142 -125 342 -125z" />
    <glyph glyph-name="Ugrave" unicode="&#xd9;" horiz-adv-x="1368" 
d="M911 1659h-16q-356 290 -356 362q0 23 26 23q83 0 346 -385zM582 -23q-117 0 -200.5 30t-131 82.5t-69 131t-19.5 168t24 199.5l189 968h92l-188 -968q-52 -264 29 -395.5t304 -131.5q207 0 329 120.5t177 406.5l189 968h92l-189 -968q-28 -144 -75 -252.5t-121 -191
t-182.5 -125t-249.5 -42.5z" />
    <glyph glyph-name="Uacute" unicode="&#xda;" horiz-adv-x="1368" 
d="M889 1659h-17q263 385 347 385q26 0 26 -23q0 -78 -356 -362zM582 -23q-117 0 -200.5 30t-131 82.5t-69 131t-19.5 168t24 199.5l189 968h92l-188 -968q-52 -264 29 -395.5t304 -131.5q207 0 329 120.5t177 406.5l189 968h92l-189 -968q-28 -144 -75 -252.5t-121 -191
t-182.5 -125t-249.5 -42.5z" />
    <glyph glyph-name="Ucircumflex" unicode="&#xdb;" horiz-adv-x="1368" 
d="M676 1618h-17q43 57 88 117.5t69.5 94t51 68t40.5 51t29 31t25 19t21 4.5t19.5 -4.5t17 -18.5t16 -31t19.5 -51t23.5 -68.5t32.5 -94t42 -117.5h-16q-10 15 -40.5 62t-41.5 64.5t-32 51.5t-34.5 59.5t-25.5 51.5q-28 -34 -68.5 -76t-63.5 -65t-83 -79.5t-72 -68.5z
M582 -23q-117 0 -200.5 30t-131 82.5t-69 131t-19.5 168t24 199.5l189 968h92l-188 -968q-52 -264 29 -395.5t304 -131.5q207 0 329 120.5t177 406.5l189 968h92l-189 -968q-28 -144 -75 -252.5t-121 -191t-182.5 -125t-249.5 -42.5z" />
    <glyph glyph-name="Udieresis" unicode="&#xdc;" horiz-adv-x="1368" 
d="M737 1739q-29 0 -46 16t-17 43q0 40 28 69t66 29q32 0 50 -17t18 -44q0 -40 -29 -68t-70 -28zM1004 1739q-29 0 -46.5 16.5t-17.5 42.5q0 40 28 69t66 29q32 0 50 -17t18 -44q0 -40 -28.5 -68t-69.5 -28zM582 -23q-117 0 -200.5 30t-131 82.5t-69 131t-19.5 168t24 199.5
l189 968h92l-188 -968q-52 -264 29 -395.5t304 -131.5q207 0 329 120.5t177 406.5l189 968h92l-189 -968q-28 -144 -75 -252.5t-121 -191t-182.5 -125t-249.5 -42.5z" />
    <glyph glyph-name="Yacute" unicode="&#xdd;" horiz-adv-x="1138" 
d="M772 1659h-16q263 385 346 385q26 0 26 -23q0 -78 -356 -362zM520 0h-92l113 575l-348 981h114l324 -894l643 894h61l-700 -968z" />
    <glyph glyph-name="Thorn" unicode="&#xde;" horiz-adv-x="1196" 
d="M182 0h-92l303 1556h92l-63 -327h346q117 0 211 -32t154.5 -104t60.5 -175q0 -133 -78 -245.5t-212 -177.5t-292 -65h-346zM414 1188l-140 -717h336q207 0 344.5 129.5t137.5 325.5q0 129 -90 195.5t-252 66.5h-336z" />
    <glyph glyph-name="germandbls" unicode="&#xdf;" horiz-adv-x="1087" 
d="M635 -23q-106 0 -185 54t-112 112l27 19q37 -51 106 -94t168 -43q129 0 214 80.5t85 203.5q0 36 -11.5 67t-25.5 50t-40.5 39.5t-41 29t-43.5 23.5q-45 24 -70.5 38t-59 38t-51 45.5t-30 51.5t-12.5 65q0 57 16 102t41 75t55.5 57t61.5 56t56 63.5t41 87t16 118.5
q0 123 -66.5 213t-177.5 90q-34 0 -62 -10t-47 -23t-35.5 -38t-25.5 -42.5t-18 -49t-12 -45.5t-9 -44l-266 -1366h-82l264 1356q6 32 10.5 51t16 56t24.5 61.5t37 54.5t52 48.5t69.5 31t91.5 12.5q145 0 227 -93.5t82 -229.5q0 -70 -16.5 -127t-43 -95t-58 -70t-63.5 -58.5
t-58.5 -52.5t-43 -60.5t-16.5 -75.5q0 -54 50.5 -93t177.5 -104q85 -43 126.5 -93t41.5 -134q0 -170 -109 -289t-266 -119z" />
    <glyph glyph-name="agrave" unicode="&#xe0;" horiz-adv-x="925" 
d="M698 1126h-16q-356 290 -356 363q0 22 26 22q83 0 346 -385zM272 -25q-100 0 -162.5 82t-62.5 238q0 147 57.5 281t157 232.5t240 157t299.5 58.5l-6 -31q-140 0 -265 -52.5t-213.5 -141t-140 -209.5t-51.5 -254q0 -139 51.5 -218t136.5 -79q89 0 183.5 89.5t185.5 242.5
l119 653h82l-197 -1024h-82l66 301q-204 -326 -398 -326z" />
    <glyph glyph-name="aacute" unicode="&#xe1;" horiz-adv-x="925" 
d="M553 1126h-16q263 385 346 385q26 0 26 -22q0 -79 -356 -363zM272 -25q-100 0 -162.5 82t-62.5 238q0 147 57.5 281t157 232.5t240 157t299.5 58.5l-6 -31q-140 0 -265 -52.5t-213.5 -141t-140 -209.5t-51.5 -254q0 -139 51.5 -218t136.5 -79q89 0 183.5 89.5
t185.5 242.5l119 653h82l-197 -1024h-82l66 301q-204 -326 -398 -326z" />
    <glyph glyph-name="acircumflex" unicode="&#xe2;" horiz-adv-x="925" 
d="M360 1085h-16q43 57 88 117.5t69.5 94t51 68t40.5 51t29 31t25 19t21 4.5t19.5 -4.5t17 -18.5t16 -31t19.5 -51t23.5 -68.5t32.5 -94t42 -117.5h-17q-10 15 -40.5 62t-41.5 64.5t-32 51.5t-34.5 59.5t-25.5 51.5q-28 -34 -68.5 -76t-63.5 -65t-83 -79.5t-72 -68.5z
M272 -25q-100 0 -162.5 82t-62.5 238q0 147 57.5 281t157 232.5t240 157t299.5 58.5l-6 -31q-140 0 -265 -52.5t-213.5 -141t-140 -209.5t-51.5 -254q0 -139 51.5 -218t136.5 -79q89 0 183.5 89.5t185.5 242.5l119 653h82l-197 -1024h-82l66 301q-204 -326 -398 -326z" />
    <glyph glyph-name="atilde" unicode="&#xe3;" horiz-adv-x="925" 
d="M395 1167h-16q27 92 80 143.5t116 51.5q38 0 68.5 -17t48 -37.5t43.5 -37.5t56 -17q87 0 149 129h16q-26 -92 -79.5 -143t-118.5 -51q-38 0 -68.5 17t-47.5 37t-42.5 37t-54.5 17q-42 0 -81 -33t-69 -96zM272 -25q-100 0 -162.5 82t-62.5 238q0 147 57.5 281t157 232.5
t240 157t299.5 58.5l-6 -31q-140 0 -265 -52.5t-213.5 -141t-140 -209.5t-51.5 -254q0 -139 51.5 -218t136.5 -79q89 0 183.5 89.5t185.5 242.5l119 653h82l-197 -1024h-82l66 301q-204 -326 -398 -326z" />
    <glyph glyph-name="adieresis" unicode="&#xe4;" horiz-adv-x="925" 
d="M512 1309q-29 0 -46 16t-17 43q0 40 28 69t66 29q31 0 49 -17t18 -44q0 -40 -28.5 -68t-69.5 -28zM778 1309q-29 0 -46 16t-17 43q0 40 28 69t66 29q32 0 50 -17t18 -44q0 -40 -29 -68t-70 -28zM272 -25q-100 0 -162.5 82t-62.5 238q0 147 57.5 281t157 232.5t240 157
t299.5 58.5l-6 -31q-140 0 -265 -52.5t-213.5 -141t-140 -209.5t-51.5 -254q0 -139 51.5 -218t136.5 -79q89 0 183.5 89.5t185.5 242.5l119 653h82l-197 -1024h-82l66 301q-204 -326 -398 -326z" />
    <glyph glyph-name="aring" unicode="&#xe5;" horiz-adv-x="925" 
d="M682 1171q-61 0 -99 39t-38 97q0 75 61.5 134.5t138.5 59.5q58 0 97 -38.5t39 -94.5q0 -74 -62 -135.5t-137 -61.5zM690 1219q53 0 98.5 43.5t45.5 95.5q0 40 -28.5 68t-68.5 28q-56 0 -100.5 -42.5t-44.5 -96.5q0 -39 28 -67.5t70 -28.5zM272 -25q-100 0 -162.5 82
t-62.5 238q0 147 57.5 281t157 232.5t240 157t299.5 58.5l-6 -31q-140 0 -265 -52.5t-213.5 -141t-140 -209.5t-51.5 -254q0 -139 51.5 -218t136.5 -79q89 0 183.5 89.5t185.5 242.5l119 653h82l-197 -1024h-82l66 301q-204 -326 -398 -326z" />
    <glyph glyph-name="ae" unicode="&#xe6;" horiz-adv-x="1579" 
d="M281 -25q-110 0 -172 81.5t-62 236.5q0 149 58 284t158.5 233t241.5 156t300 58h76l-39 -205q70 109 171 172.5t220 63.5q125 0 206 -69.5t81 -194.5q0 -68 -25.5 -136.5t-64.5 -120t-75 -87.5t-65 -56l-489 199q-37 -126 -37 -234q0 -73 19 -130t49 -91t71.5 -56
t81.5 -30t84 -8q126 0 222 75.5t198 243.5h31q-79 -167 -213.5 -275t-300.5 -108q-115 0 -207 58t-129 180q-112 -123 -205.5 -181.5t-183.5 -58.5zM340 39q169 0 315 209l144 745q-139 0 -264 -52t-214.5 -140.5t-141.5 -209.5t-52 -255q0 -140 56 -218.5t157 -78.5z
M1217 520q84 0 143.5 37t86 90.5t26.5 116.5q0 75 -41.5 128t-102 76t-131.5 23q-60 0 -114 -18t-107 -58.5t-98 -114.5t-76 -177q265 -103 414 -103z" />
    <glyph glyph-name="ccedilla" unicode="&#xe7;" horiz-adv-x="989" 
d="M457 41q140 0 245 75t209 244h31q-78 -159 -202.5 -264.5t-280.5 -115.5l-74 -97q67 0 100 -30t33 -78q0 -67 -59 -130t-142 -63q-56 0 -110 35l2 16q44 -20 94 -20q64 0 109 32.5t45 84.5q0 39 -33 65.5t-98 26.5l8 39l90 116q-116 1 -199 56.5t-122.5 145t-39.5 202.5
q0 129 49 253t128.5 216t187 148.5t219.5 56.5q117 0 201.5 -53t114.5 -107l-29 -25q-53 53 -134 94.5t-165 41.5q-103 0 -194 -46t-156 -124.5t-102.5 -186.5t-37.5 -229q0 -171 88 -275t224 -104z" />
    <glyph glyph-name="egrave" unicode="&#xe8;" horiz-adv-x="1003" 
d="M676 1126h-17q-356 290 -356 363q0 22 27 22q83 0 346 -385zM461 41q145 0 260 77.5t215 241.5h10q-82 -164 -224.5 -273.5t-307.5 -109.5q-74 0 -134 25t-99 65.5t-65 96t-37 114t-11 121.5q0 171 80.5 322t219 242.5t296.5 91.5q150 0 227.5 -85t48.5 -233
q-16 -83 -62 -161t-86.5 -119t-76.5 -66l-539 238q-26 -89 -26 -183q0 -185 88.5 -295t222.5 -110zM637 991q-152 0 -278.5 -95t-178.5 -255q172 -64 273.5 -92.5t177.5 -28.5q113 0 179 58t81 143q14 70 -1.5 123.5t-54 84.5t-89 46.5t-109.5 15.5z" />
    <glyph glyph-name="eacute" unicode="&#xe9;" horiz-adv-x="1003" 
d="M1010 1489q0 -79 -357 -363h-16q263 385 346 385q27 0 27 -22zM715 391l-539 238q-26 -89 -26 -183q0 -185 88.5 -295t222.5 -110q145 0 260 77.5t215 241.5h10q-82 -164 -224.5 -273.5t-307.5 -109.5q-74 0 -134 25t-99 65.5t-65 96t-37 114t-11 121.5q0 171 80.5 322
t219 242.5t296.5 91.5q150 0 227.5 -85t48.5 -233q-16 -83 -62 -161t-86.5 -119t-76.5 -66zM637 991q-152 0 -278.5 -95t-178.5 -255q172 -64 273.5 -92.5t177.5 -28.5q113 0 179 58t81 143q14 70 -1.5 123.5t-54 84.5t-89 46.5t-109.5 15.5z" />
    <glyph glyph-name="ecircumflex" unicode="&#xea;" horiz-adv-x="1003" 
d="M727 1374q-28 -34 -68.5 -76t-63.5 -65t-83 -79.5t-72 -68.5h-16q43 57 88 117.5t69.5 94t51 68t40.5 51t29 31t25 19t21 4.5t19.5 -4.5t17 -18.5t16 -31t19.5 -51t23.5 -68.5t32.5 -94t42 -117.5h-17q-10 15 -40.5 62t-41.5 64.5t-32 51.5t-34.5 59.5t-25.5 51.5z
M461 41q145 0 260 77.5t215 241.5h10q-82 -164 -224.5 -273.5t-307.5 -109.5q-74 0 -134 25t-99 65.5t-65 96t-37 114t-11 121.5q0 171 80.5 322t219 242.5t296.5 91.5q150 0 227.5 -85t48.5 -233q-16 -83 -62 -161t-86.5 -119t-76.5 -66l-539 238q-26 -89 -26 -183
q0 -185 88.5 -295t222.5 -110zM637 991q-152 0 -278.5 -95t-178.5 -255q172 -64 273.5 -92.5t177.5 -28.5q113 0 179 58t81 143q14 70 -1.5 123.5t-54 84.5t-89 46.5t-109.5 15.5z" />
    <glyph glyph-name="edieresis" unicode="&#xeb;" horiz-adv-x="1003" 
d="M551 1309q-29 0 -46.5 16.5t-17.5 42.5q0 40 28.5 69t66.5 29q31 0 49 -17t18 -44q0 -40 -28.5 -68t-69.5 -28zM817 1309q-29 0 -46 16t-17 43q0 40 28 69t66 29q31 0 49 -17t18 -44q0 -40 -28.5 -68t-69.5 -28zM461 41q145 0 260 77.5t215 241.5h10
q-82 -164 -224.5 -273.5t-307.5 -109.5q-74 0 -134 25t-99 65.5t-65 96t-37 114t-11 121.5q0 171 80.5 322t219 242.5t296.5 91.5q150 0 227.5 -85t48.5 -233q-16 -83 -62 -161t-86.5 -119t-76.5 -66l-539 238q-26 -89 -26 -183q0 -185 88.5 -295t222.5 -110zM637 991
q-152 0 -278.5 -95t-178.5 -255q172 -64 273.5 -92.5t177.5 -28.5q113 0 179 58t81 143q14 70 -1.5 123.5t-54 84.5t-89 46.5t-109.5 15.5z" />
    <glyph glyph-name="igrave" unicode="&#xec;" 
d="M301 1126h-16q-357 291 -357 363q0 22 27 22q83 0 346 -385zM121 0h-82l199 1024h81z" />
    <glyph glyph-name="iacute" unicode="&#xed;" 
d="M279 1126h-17q263 385 346 385q27 0 27 -22q0 -79 -356 -363zM121 0h-82l199 1024h81z" />
    <glyph glyph-name="icircumflex" unicode="&#xee;" 
d="M66 1085h-17q43 57 88 117.5t69.5 94t51 68t40.5 51t29 31t25 19t21 4.5t19.5 -4.5t17 -18.5t16 -31t19.5 -51t23.5 -68.5t32.5 -94t42 -117.5h-17q-10 15 -40.5 62t-41.5 64.5t-32 51.5t-34.5 59.5t-25.5 51.5q-23 -27 -49 -55.5t-59.5 -62t-54.5 -54t-64.5 -62
t-58.5 -55.5zM121 0h-82l199 1024h81z" />
    <glyph glyph-name="idieresis" unicode="&#xef;" 
d="M176 1309q-29 0 -46 16t-17 43q0 40 28 69t66 29q31 0 49 -17t18 -44q0 -40 -28.5 -68t-69.5 -28zM442 1309q-29 0 -46 16t-17 43q0 40 28 69t66 29q32 0 50 -17t18 -44q0 -40 -29 -68t-70 -28zM121 0h-82l199 1024h81z" />
    <glyph glyph-name="eth" unicode="&#xf0;" horiz-adv-x="1093" 
d="M1090 1485l4 -47l-220 -56q160 -295 160 -610q0 -159 -40 -302t-113 -253t-185.5 -175t-249.5 -65q-98 0 -174 40t-118.5 106t-64 141.5t-21.5 157.5q0 80 25.5 167t76.5 170t118.5 149t160 106.5t192.5 40.5q182 0 297 -158h10q-27 243 -162 463l-262 -66l-6 47l244 62
q-67 103 -182 235h116q87 -100 154 -213zM467 41q123 0 228.5 76.5t167 206t61.5 278.5q0 107 -33 193t-103.5 141t-169.5 55q-127 0 -236 -73t-172 -195.5t-63 -263.5q0 -110 37 -204t111 -154t172 -60z" />
    <glyph glyph-name="ntilde" unicode="&#xf1;" horiz-adv-x="964" 
d="M367 1167h-17q27 92 80.5 143.5t116.5 51.5q31 0 56.5 -11t42.5 -27t33.5 -32.5t37 -27.5t45.5 -11q88 0 149 129h17q-26 -92 -80 -143t-119 -51q-38 0 -68.5 17t-47.5 37t-42.5 37t-54.5 17q-88 0 -149 -129zM121 0h-82l199 1024h81l-47 -246q17 31 37 61.5t58 71.5
t79.5 71t102 51.5t125.5 21.5q122 0 179 -74t26 -233l-146 -748h-84l133 686q30 157 -18.5 231t-142.5 74q-111 0 -213.5 -93t-153.5 -216z" />
    <glyph glyph-name="ograve" unicode="&#xf2;" horiz-adv-x="1079" 
d="M664 1126h-17q-356 290 -356 363q0 22 26 22q84 0 347 -385zM440 -23q-72 0 -131 21t-98.5 58t-68.5 81.5t-44.5 96.5t-22.5 98t-7 90q0 112 46 225t123 203.5t188 147.5t232 57q74 0 133 -21.5t96.5 -59t64 -81t39.5 -94.5t18.5 -92.5t5.5 -81.5q0 -92 -28 -186.5
t-80.5 -176.5t-122 -146t-159 -101.5t-184.5 -37.5zM479 41q86 0 167.5 43.5t143 117t99 178t37.5 220.5q0 59 -9.5 113.5t-32.5 106t-56.5 89t-85.5 60t-117 22.5q-92 0 -179 -43t-152 -114.5t-104.5 -171.5t-39.5 -207q0 -108 36.5 -200.5t113 -153t179.5 -60.5z" />
    <glyph glyph-name="oacute" unicode="&#xf3;" horiz-adv-x="1079" 
d="M641 1126h-16q263 385 346 385q26 0 26 -22q0 -79 -356 -363zM440 -23q-72 0 -131 21t-98.5 58t-68.5 81.5t-44.5 96.5t-22.5 98t-7 90q0 112 46 225t123 203.5t188 147.5t232 57q74 0 133 -21.5t96.5 -59t64 -81t39.5 -94.5t18.5 -92.5t5.5 -81.5q0 -92 -28 -186.5
t-80.5 -176.5t-122 -146t-159 -101.5t-184.5 -37.5zM479 41q86 0 167.5 43.5t143 117t99 178t37.5 220.5q0 59 -9.5 113.5t-32.5 106t-56.5 89t-85.5 60t-117 22.5q-92 0 -179 -43t-152 -114.5t-104.5 -171.5t-39.5 -207q0 -108 36.5 -200.5t113 -153t179.5 -60.5z" />
    <glyph glyph-name="ocircumflex" unicode="&#xf4;" horiz-adv-x="1079" 
d="M428 1085h-16q43 57 88 117t69.5 94t50.5 68.5t40 51t29 31t25 19t21 4.5t19.5 -4.5t17 -18.5t16 -31t19.5 -51t23.5 -68.5t32.5 -94t42 -117.5h-16q-10 15 -40.5 62t-41.5 64.5t-32 51.5t-34.5 59.5t-25.5 51.5q-28 -34 -68.5 -76t-63.5 -65t-83 -79.5t-72 -68.5z
M440 -23q-72 0 -131 21t-98.5 58t-68.5 81.5t-44.5 96.5t-22.5 98t-7 90q0 112 46 225t123 203.5t188 147.5t232 57q74 0 133 -21.5t96.5 -59t64 -81t39.5 -94.5t18.5 -92.5t5.5 -81.5q0 -92 -28 -186.5t-80.5 -176.5t-122 -146t-159 -101.5t-184.5 -37.5zM479 41
q86 0 167.5 43.5t143 117t99 178t37.5 220.5q0 59 -9.5 113.5t-32.5 106t-56.5 89t-85.5 60t-117 22.5q-92 0 -179 -43t-152 -114.5t-104.5 -171.5t-39.5 -207q0 -108 36.5 -200.5t113 -153t179.5 -60.5z" />
    <glyph glyph-name="otilde" unicode="&#xf5;" horiz-adv-x="1079" 
d="M422 1167h-16q27 92 80 143.5t116 51.5q31 0 56.5 -11t42.5 -27t33.5 -32.5t37 -27.5t45.5 -11q89 0 150 129h16q-26 -92 -80 -143t-119 -51q-38 0 -68.5 17t-47.5 37t-42.5 37t-54.5 17q-87 0 -149 -129zM440 -23q-72 0 -131 21t-98.5 58t-68.5 81.5t-44.5 96.5
t-22.5 98t-7 90q0 112 46 225t123 203.5t188 147.5t232 57q74 0 133 -21.5t96.5 -59t64 -81t39.5 -94.5t18.5 -92.5t5.5 -81.5q0 -92 -28 -186.5t-80.5 -176.5t-122 -146t-159 -101.5t-184.5 -37.5zM479 41q86 0 167.5 43.5t143 117t99 178t37.5 220.5q0 59 -9.5 113.5
t-32.5 106t-56.5 89t-85.5 60t-117 22.5q-92 0 -179 -43t-152 -114.5t-104.5 -171.5t-39.5 -207q0 -108 36.5 -200.5t113 -153t179.5 -60.5z" />
    <glyph glyph-name="odieresis" unicode="&#xf6;" horiz-adv-x="1079" 
d="M539 1309q-29 0 -46.5 16.5t-17.5 42.5q0 40 28 69t66 29q32 0 50 -17t18 -44q0 -40 -28.5 -68t-69.5 -28zM805 1309q-29 0 -46.5 16.5t-17.5 42.5q0 40 28.5 69t66.5 29q31 0 49 -17t18 -44q0 -40 -28.5 -68t-69.5 -28zM440 -23q-72 0 -131 21t-98.5 58t-68.5 81.5
t-44.5 96.5t-22.5 98t-7 90q0 112 46 225t123 203.5t188 147.5t232 57q74 0 133 -21.5t96.5 -59t64 -81t39.5 -94.5t18.5 -92.5t5.5 -81.5q0 -92 -28 -186.5t-80.5 -176.5t-122 -146t-159 -101.5t-184.5 -37.5zM479 41q86 0 167.5 43.5t143 117t99 178t37.5 220.5
q0 59 -9.5 113.5t-32.5 106t-56.5 89t-85.5 60t-117 22.5q-92 0 -179 -43t-152 -114.5t-104.5 -171.5t-39.5 -207q0 -108 36.5 -200.5t113 -153t179.5 -60.5z" />
    <glyph glyph-name="divide" unicode="&#xf7;" horiz-adv-x="931" 
d="M502 762q-37 0 -58.5 21.5t-21.5 56.5q0 46 34 80t83 34q36 0 57.5 -22.5t21.5 -57.5q0 -47 -33.5 -79.5t-82.5 -32.5zM831 543h-722l12 65h723zM350 197q-38 0 -59 21.5t-21 55.5q0 46 34 80.5t83 34.5q36 0 58 -23t22 -57q0 -47 -34 -79.5t-83 -32.5z" />
    <glyph glyph-name="oslash" unicode="&#xf8;" horiz-adv-x="1081" 
d="M965 1059h75l-110 -133q84 -116 84 -301q0 -92 -28 -186.5t-80.5 -176.5t-122 -146t-159 -101.5t-184.5 -37.5q-141 0 -235 84l-86 -100h-74l121 143q-98 124 -98 318q0 112 46 225t123 203.5t188 147.5t232 57q143 0 234 -84zM150 455q0 -162 77 -277l607 723
q-77 90 -209 90q-92 0 -179 -43t-152 -114.5t-104.5 -171.5t-39.5 -207zM926 600q0 150 -58 252l-604 -719q86 -92 215 -92q86 0 167.5 43.5t143 117t99 178t37.5 220.5z" />
    <glyph glyph-name="ugrave" unicode="&#xf9;" horiz-adv-x="923" 
d="M582 1126h-17q-356 290 -356 363q0 22 27 22q83 0 346 -385zM264 -23q-54 0 -91 15.5t-64.5 54t-30 104t13.5 166.5l137 707h82l-131 -680q-59 -303 135 -303q102 0 191.5 73.5t152.5 182.5l142 727h82l-199 -1024h-82l41 215q-26 -41 -59.5 -78t-80.5 -75.5
t-109.5 -61.5t-129.5 -23z" />
    <glyph glyph-name="uacute" unicode="&#xfa;" horiz-adv-x="923" 
d="M559 1126h-16q263 385 346 385q26 0 26 -22q0 -79 -356 -363zM264 -23q-54 0 -91 15.5t-64.5 54t-30 104t13.5 166.5l137 707h82l-131 -680q-59 -303 135 -303q102 0 191.5 73.5t152.5 182.5l142 727h82l-199 -1024h-82l41 215q-26 -41 -59.5 -78t-80.5 -75.5
t-109.5 -61.5t-129.5 -23z" />
    <glyph glyph-name="ucircumflex" unicode="&#xfb;" horiz-adv-x="923" 
d="M346 1085h-16q43 57 88 117t69.5 94t50.5 68.5t40 51t29 31t25 19t21 4.5t19.5 -4.5t17 -18.5t16 -31t19.5 -51t23.5 -68.5t32.5 -94t42 -117.5h-16q-10 15 -40.5 62t-41.5 64.5t-32 51.5t-34.5 59.5t-25.5 51.5q-28 -34 -68.5 -76t-63.5 -65t-83 -79.5t-72 -68.5z
M264 -23q-54 0 -91 15.5t-64.5 54t-30 104t13.5 166.5l137 707h82l-131 -680q-59 -303 135 -303q102 0 191.5 73.5t152.5 182.5l142 727h82l-199 -1024h-82l41 215q-26 -41 -59.5 -78t-80.5 -75.5t-109.5 -61.5t-129.5 -23z" />
    <glyph glyph-name="udieresis" unicode="&#xfc;" horiz-adv-x="923" 
d="M457 1309q-29 0 -46.5 16.5t-17.5 42.5q0 40 28 69t66 29q32 0 50 -17t18 -44q0 -40 -28.5 -68t-69.5 -28zM723 1309q-29 0 -46.5 16.5t-17.5 42.5q0 40 28.5 69t66.5 29q31 0 49 -17t18 -44q0 -40 -28.5 -68t-69.5 -28zM264 -23q-54 0 -91 15.5t-64.5 54t-30 104
t13.5 166.5l137 707h82l-131 -680q-59 -303 135 -303q102 0 191.5 73.5t152.5 182.5l142 727h82l-199 -1024h-82l41 215q-26 -41 -59.5 -78t-80.5 -75.5t-109.5 -61.5t-129.5 -23z" />
    <glyph glyph-name="yacute" unicode="&#xfd;" horiz-adv-x="827" 
d="M469 1126h-16q263 385 346 385q26 0 26 -22q0 -79 -356 -363zM-49 -422q-63 0 -105 41t-73 115h30q55 -119 136 -119q77 0 172 97.5t180 258.5l-170 1053h88l151 -952l318 583q92 177 92 252q0 76 -78 76q-70 0 -174 -94v41q101 106 201 106q110 0 110 -106t-98 -283
l-377 -676q-219 -393 -403 -393z" />
    <glyph glyph-name="thorn" unicode="&#xfe;" horiz-adv-x="976" 
d="M41 -410h-82l397 2048h84l-112 -583q130 0 231.5 -28t164.5 -73t104 -107.5t57 -126.5t16 -134q0 -153 -70.5 -294.5t-187 -228t-242.5 -86.5q-52 0 -93.5 13.5t-71.5 39.5t-49 50.5t-40 60.5zM399 41q108 0 203.5 72t153 193.5t57.5 258.5q0 72 -16.5 137t-54 124.5
t-93.5 103t-140 69t-187 25.5l-164 -840q92 -143 241 -143z" />
    <glyph glyph-name="ydieresis" unicode="&#xff;" horiz-adv-x="827" 
d="M367 1309q-29 0 -46.5 16.5t-17.5 42.5q0 40 28 69t66 29q32 0 50 -17t18 -44q0 -40 -28.5 -68t-69.5 -28zM633 1309q-29 0 -46.5 16.5t-17.5 42.5q0 40 28.5 69t66.5 29q31 0 49 -17t18 -44q0 -40 -28.5 -68t-69.5 -28zM-49 -422q-63 0 -105 41t-73 115h30
q55 -119 136 -119q77 0 172 97.5t180 258.5l-170 1053h88l151 -952l318 583q92 177 92 252q0 76 -78 76q-70 0 -174 -94v41q101 106 201 106q110 0 110 -106t-98 -283l-377 -676q-219 -393 -403 -393z" />
    <glyph glyph-name="Amacron" unicode="&#x100;" horiz-adv-x="1368" 
d="M1210 1765h-538l14 78h539zM-31 0h-71l950 1573h61l381 -1573h-112l-164 702h-627zM836 1458l-412 -694h575z" />
    <glyph glyph-name="amacron" unicode="&#x101;" horiz-adv-x="925" 
d="M909 1233h-538l14 78h539zM272 -25q-100 0 -162.5 82t-62.5 238q0 147 57.5 281t157 232.5t240 157t299.5 58.5l-6 -31q-140 0 -265 -52.5t-213.5 -141t-140 -209.5t-51.5 -254q0 -139 51.5 -218t136.5 -79q89 0 183.5 89.5t185.5 242.5l119 653h82l-197 -1024h-82
l66 301q-204 -326 -398 -326z" />
    <glyph glyph-name="Abreve" unicode="&#x102;" horiz-adv-x="1368" 
d="M911 1659q-52 0 -94.5 20t-75.5 65t-40.5 118.5t10.5 181.5h16q-13 -53 -6 -106.5t27 -96t67.5 -69.5t114.5 -27t123.5 26.5t95 70.5t63 95.5t35.5 106.5h17q-20 -103 -59 -180.5t-88.5 -120.5t-101 -63.5t-104.5 -20.5zM-31 0h-71l950 1573h61l381 -1573h-112l-164 702
h-627zM836 1458l-412 -694h575z" />
    <glyph glyph-name="abreve" unicode="&#x103;" horiz-adv-x="925" 
d="M569 1126q-52 0 -94.5 20t-75.5 65t-40.5 118.5t10.5 181.5h16q-13 -53 -6 -106.5t27 -96t67.5 -69.5t114.5 -27t123.5 26.5t95 70.5t63 95.5t35.5 106.5h17q-20 -103 -59 -180.5t-88.5 -120.5t-101 -63.5t-104.5 -20.5zM272 -25q-100 0 -162.5 82t-62.5 238
q0 147 57.5 281t157 232.5t240 157t299.5 58.5l-6 -31q-140 0 -265 -52.5t-213.5 -141t-140 -209.5t-51.5 -254q0 -139 51.5 -218t136.5 -79q89 0 183.5 89.5t185.5 242.5l119 653h82l-197 -1024h-82l66 301q-204 -326 -398 -326z" />
    <glyph glyph-name="Aogonek" unicode="&#x104;" horiz-adv-x="1368" 
d="M1122 -371q62 0 129 58h11q-94 -111 -185 -111q-48 0 -78 32.5t-30 84.5q0 134 217 301q6 4 8 6h-16l-164 702h-627l-418 -702h-71l950 1573h61l381 -1573h-73q-22 -17 -48 -41.5t-59 -62.5t-54.5 -83.5t-21.5 -86.5q0 -44 24 -70.5t64 -26.5zM836 1458l-412 -694h575z
" />
    <glyph glyph-name="aogonek" unicode="&#x105;" horiz-adv-x="925" 
d="M686 0h-59q-22 -17 -48 -41.5t-59 -62.5t-54.5 -83.5t-21.5 -86.5q0 -44 24 -70.5t64 -26.5q63 0 130 58h10q-94 -111 -185 -111q-48 0 -78 32.5t-30 84.5q0 137 218 301q5 4 7 6l66 301q-204 -326 -398 -326q-100 0 -162.5 82t-62.5 238q0 147 57.5 281t157 232.5
t240 157t299.5 58.5l-6 -31q-140 0 -265 -52.5t-213.5 -141t-140 -209.5t-51.5 -254q0 -139 51.5 -218t136.5 -79q89 0 183.5 89.5t185.5 242.5l119 653h82z" />
    <glyph glyph-name="Cacute" unicode="&#x106;" horiz-adv-x="1564" 
d="M1024 1659h-16q263 385 346 385q26 0 26 -23q0 -78 -356 -362zM707 -23q-268 0 -429 166.5t-161 434.5q0 127 36 253.5t99 235t152.5 203t192.5 161t221.5 104.5t238.5 38q111 0 219 -34t168 -70t92 -68l-39 -31q-88 64 -209.5 108t-238.5 44q-86 0 -180 -23.5t-195 -78
t-186 -133t-152.5 -199t-95.5 -265.5q-22 -143 -15 -256t45 -198.5t91.5 -145.5t124.5 -98t144.5 -55t151.5 -17q229 0 425.5 145.5t336.5 417.5h31q-66 -139 -156.5 -255t-200 -202t-241 -134t-270.5 -48z" />
    <glyph glyph-name="cacute" unicode="&#x107;" horiz-adv-x="989" 
d="M623 1126h-17q263 385 346 385q27 0 27 -22q0 -79 -356 -363zM426 -23q-117 0 -200.5 55.5t-123 145.5t-39.5 203q0 129 49 253t128.5 216t187 148.5t219.5 56.5q117 0 201.5 -53t114.5 -107l-29 -25q-53 53 -134 94.5t-165 41.5q-103 0 -194 -46t-156 -124.5
t-102.5 -186.5t-37.5 -229q0 -171 88 -275t224 -104q140 0 245 75t209 244h31q-82 -168 -215 -275.5t-301 -107.5z" />
    <glyph glyph-name="Cdotaccent" unicode="&#x10a;" horiz-adv-x="1564" 
d="M1071 1731q-32 0 -51 18.5t-19 48.5q0 41 31 73t72 32q32 0 51 -19t19 -49q0 -41 -31 -72.5t-72 -31.5zM707 -23q-268 0 -429 166.5t-161 434.5q0 127 36 253.5t99 235t152.5 203t192.5 161t221.5 104.5t238.5 38q111 0 219 -34t168 -70t92 -68l-39 -31
q-88 64 -209.5 108t-238.5 44q-86 0 -180 -23.5t-195 -78t-186 -133t-152.5 -199t-95.5 -265.5q-22 -143 -15 -256t45 -198.5t91.5 -145.5t124.5 -98t144.5 -55t151.5 -17q229 0 425.5 145.5t336.5 417.5h31q-66 -139 -156.5 -255t-200 -202t-241 -134t-270.5 -48z" />
    <glyph glyph-name="cdotaccent" unicode="&#x10b;" horiz-adv-x="989" 
d="M670 1198q-32 0 -51 19t-19 49q0 41 30.5 72.5t71.5 31.5q32 0 51 -18.5t19 -48.5q0 -42 -30.5 -73.5t-71.5 -31.5zM426 -23q-117 0 -200.5 55.5t-123 145.5t-39.5 203q0 129 49 253t128.5 216t187 148.5t219.5 56.5q117 0 201.5 -53t114.5 -107l-29 -25
q-53 53 -134 94.5t-165 41.5q-103 0 -194 -46t-156 -124.5t-102.5 -186.5t-37.5 -229q0 -171 88 -275t224 -104q140 0 245 75t209 244h31q-82 -168 -215 -275.5t-301 -107.5z" />
    <glyph glyph-name="Ccaron" unicode="&#x10c;" horiz-adv-x="1564" 
d="M1040 1653q-29 0 -50.5 41.5t-74.5 188.5q-34 95 -57 155h27q141 -211 176 -289q28 34 66.5 74t67.5 68.5t78.5 76.5t72.5 70h26q-32 -43 -87 -116q-129 -173 -171.5 -221t-73.5 -48zM707 -23q-268 0 -429 166.5t-161 434.5q0 127 36 253.5t99 235t152.5 203t192.5 161
t221.5 104.5t238.5 38q111 0 219 -34t168 -70t92 -68l-39 -31q-88 64 -209.5 108t-238.5 44q-86 0 -180 -23.5t-195 -78t-186 -133t-152.5 -199t-95.5 -265.5q-22 -143 -15 -256t45 -198.5t91.5 -145.5t124.5 -98t144.5 -55t151.5 -17q229 0 425.5 145.5t336.5 417.5h31
q-66 -139 -156.5 -255t-200 -202t-241 -134t-270.5 -48z" />
    <glyph glyph-name="ccaron" unicode="&#x10d;" horiz-adv-x="989" 
d="M639 1120q-29 0 -50.5 41.5t-74.5 188.5q-34 95 -57 155h26q7 -10 27 -40l27 -40.5t23.5 -36t24 -37.5t20.5 -33.5t21 -35.5t17 -31.5t16 -33.5q28 34 66 74t68 68.5t78.5 75t72.5 70.5h27q-32 -43 -87 -116q-129 -173 -171.5 -221t-73.5 -48zM426 -23
q-117 0 -200.5 55.5t-123 145.5t-39.5 203q0 129 49 253t128.5 216t187 148.5t219.5 56.5q117 0 201.5 -53t114.5 -107l-29 -25q-53 53 -134 94.5t-165 41.5q-103 0 -194 -46t-156 -124.5t-102.5 -186.5t-37.5 -229q0 -171 88 -275t224 -104q140 0 245 75t209 244h31
q-82 -168 -215 -275.5t-301 -107.5z" />
    <glyph glyph-name="Dcaron" unicode="&#x10e;" horiz-adv-x="1548" 
d="M879 1653q-29 0 -50.5 41.5t-77.5 195.5q-11 29 -17 46t-17 46.5t-21 55.5h27q141 -211 176 -289q28 34 66.5 74t67.5 68.5t78.5 76.5t72.5 70h26q-36 -47 -94 -126q-143 -191 -179 -227q-33 -32 -58 -32zM625 0h-535l303 1556h533q286 0 442 -153t156 -447
q0 -194 -69 -370t-187.5 -305t-286 -205t-356.5 -76zM477 1516l-287 -1475h383q138 0 267.5 47.5t232 133t180 198t119 249t41.5 279.5q0 269 -145.5 418.5t-407.5 149.5h-383z" />
    <glyph glyph-name="dcaron" unicode="&#x10f;" horiz-adv-x="995" 
d="M825 893l146 745h82l-318 -1638h-82q-131 0 -233.5 26t-166.5 68.5t-105.5 101.5t-57.5 119.5t-16 128.5q0 113 43 225t112 196.5t161 137t185 52.5q167 0 250 -162zM1245 1571q33 0 53.5 -20.5t20.5 -57.5q0 -79 -82.5 -214.5t-171.5 -213.5h-21q77 80 108.5 137
t31.5 133q0 104 -35 156q7 41 34.5 60.5t61.5 19.5zM659 31l154 796q-35 68 -94.5 116t-140.5 48q-106 0 -202.5 -73t-155 -195t-58.5 -256q0 -85 27.5 -158t84.5 -134t155.5 -99t229.5 -45z" />
    <glyph glyph-name="Dcroat" unicode="&#x110;" horiz-adv-x="1560" 
d="M406 1556h532q286 0 442 -153t156 -447q0 -194 -69 -370t-187.5 -305t-286 -205t-356.5 -76h-535l146 752h-129l10 51h129zM203 41h383q138 0 267.5 47.5t232 133t179.5 198t118.5 249t41.5 279.5q0 269 -145.5 418.5t-407.5 149.5h-383l-139 -713h277l-11 -51h-276z" />
    <glyph glyph-name="dcroat" unicode="&#x111;" horiz-adv-x="974" 
d="M997 1358h133l-10 -51h-131l-254 -1307h-82q-131 0 -233.5 26t-166.5 68.5t-105.5 101.5t-57.5 119.5t-16 128.5q0 113 43 225t112 196.5t161 137t185 52.5q167 0 250 -162l82 414h-284l10 51h282l56 280h82zM659 31l154 796q-35 68 -94.5 116t-140.5 48
q-106 0 -202.5 -73t-155 -195t-58.5 -256q0 -85 27.5 -158t84.5 -134t155.5 -99t229.5 -45z" />
    <glyph glyph-name="Emacron" unicode="&#x112;" horiz-adv-x="1026" 
d="M1102 1765h-539l15 78h538zM899 0h-809l303 1556h789l-13 -61h-696l-123 -627h451l-10 -61h-451l-145 -746h716z" />
    <glyph glyph-name="emacron" unicode="&#x113;" horiz-adv-x="1003" 
d="M430 1233l14 78h539l-14 -78h-539zM715 391l-539 238q-26 -89 -26 -183q0 -185 88.5 -295t222.5 -110q145 0 260 77.5t215 241.5h10q-82 -164 -224.5 -273.5t-307.5 -109.5q-74 0 -134 25t-99 65.5t-65 96t-37 114t-11 121.5q0 171 80.5 322t219 242.5t296.5 91.5
q150 0 227.5 -85t48.5 -233q-16 -83 -62 -161t-86.5 -119t-76.5 -66zM637 991q-152 0 -278.5 -95t-178.5 -255q172 -64 273.5 -92.5t177.5 -28.5q113 0 179 58t81 143q14 70 -1.5 123.5t-54 84.5t-89 46.5t-109.5 15.5z" />
    <glyph glyph-name="Edotaccent" unicode="&#x116;" horiz-adv-x="1026" 
d="M834 1731q-32 0 -51 18.5t-19 48.5q0 42 30.5 73.5t71.5 31.5q32 0 51 -19t19 -49q0 -41 -30.5 -72.5t-71.5 -31.5zM899 0h-809l303 1556h789l-13 -61h-696l-123 -627h451l-10 -61h-451l-145 -746h716z" />
    <glyph glyph-name="edotaccent" unicode="&#x117;" horiz-adv-x="1003" 
d="M700 1198q-32 0 -50.5 19t-18.5 49q0 41 30.5 72.5t71.5 31.5q32 0 51 -18.5t19 -48.5q0 -41 -31 -73t-72 -32zM461 41q145 0 260 77.5t215 241.5h10q-82 -164 -224.5 -273.5t-307.5 -109.5q-74 0 -134 25t-99 65.5t-65 96t-37 114t-11 121.5q0 171 80.5 322t219 242.5
t296.5 91.5q150 0 227.5 -85t48.5 -233q-16 -83 -62 -161t-86.5 -119t-76.5 -66l-539 238q-26 -89 -26 -183q0 -185 88.5 -295t222.5 -110zM637 991q-152 0 -278.5 -95t-178.5 -255q172 -64 273.5 -92.5t177.5 -28.5q113 0 179 58t81 143q14 70 -1.5 123.5t-54 84.5
t-89 46.5t-109.5 15.5z" />
    <glyph glyph-name="Eogonek" unicode="&#x118;" horiz-adv-x="1026" 
d="M1182 1556l-13 -61h-696l-123 -627h451l-10 -61h-451l-145 -746h716l-12 -61h-121q-22 -17 -47.5 -41.5t-58.5 -62.5t-54.5 -83.5t-21.5 -86.5q0 -44 24 -70.5t64 -26.5q62 0 129 58h10q-94 -111 -184 -111q-48 0 -78.5 32.5t-30.5 84.5q0 134 217 300q7 5 9 7h-666
l303 1556h789z" />
    <glyph glyph-name="eogonek" unicode="&#x119;" horiz-adv-x="1003" 
d="M461 41q145 0 260 77.5t215 241.5h10q-66 -131 -172 -230t-233 -134q-33 -27 -68.5 -63t-71.5 -96t-36 -111q0 -44 24 -70.5t64 -26.5q62 0 129 58h10q-94 -111 -184 -111q-48 0 -78.5 32.5t-30.5 84.5q0 132 207 295q-53 -11 -92 -11q-74 0 -134 25t-99 65.5t-65 96
t-37 114t-11 121.5q0 171 80.5 322t219 242.5t296.5 91.5q150 0 227.5 -85t48.5 -233q-16 -83 -62 -161t-86.5 -119t-76.5 -66l-539 238q-26 -89 -26 -183q0 -185 88.5 -295t222.5 -110zM637 991q-152 0 -278.5 -95t-178.5 -255q172 -64 273.5 -92.5t177.5 -28.5
q113 0 179 58t81 143q14 70 -1.5 123.5t-54 84.5t-89 46.5t-109.5 15.5z" />
    <glyph glyph-name="Ecaron" unicode="&#x11a;" horiz-adv-x="1026" 
d="M803 1653q-29 0 -50.5 41.5t-74.5 188.5q-34 95 -57 155h26q141 -211 176 -289q28 34 66.5 74t67.5 68.5t78.5 76.5t72.5 70h27q-32 -43 -87 -116q-129 -173 -171.5 -221t-73.5 -48zM899 0h-809l303 1556h789l-13 -61h-696l-123 -627h451l-10 -61h-451l-145 -746h716z
" />
    <glyph glyph-name="ecaron" unicode="&#x11b;" horiz-adv-x="1003" 
d="M670 1120q-29 0 -50.5 41.5t-77.5 195.5q-11 29 -17 46t-17 46.5t-21 55.5h27q7 -10 27 -40l27 -40.5t23.5 -36t24 -37.5t20.5 -33.5t21 -35.5t17 -31.5t16 -33.5q28 34 66 74t68 68.5t78 75t73 70.5h26q-36 -47 -94 -126q-143 -191 -179 -227q-33 -32 -58 -32zM715 391
l-539 238q-26 -89 -26 -183q0 -185 88.5 -295t222.5 -110q145 0 260 77.5t215 241.5h10q-82 -164 -224.5 -273.5t-307.5 -109.5q-74 0 -134 25t-99 65.5t-65 96t-37 114t-11 121.5q0 171 80.5 322t219 242.5t296.5 91.5q150 0 227.5 -85t48.5 -233q-16 -83 -62 -161
t-86.5 -119t-76.5 -66zM637 991q-152 0 -278.5 -95t-178.5 -255q172 -64 273.5 -92.5t177.5 -28.5q113 0 179 58t81 143q14 70 -1.5 123.5t-54 84.5t-89 46.5t-109.5 15.5z" />
    <glyph glyph-name="Gbreve" unicode="&#x11e;" horiz-adv-x="1548" 
d="M1004 1659q-52 0 -94.5 20t-76 65t-41 118.5t10.5 181.5h16q-13 -53 -6 -106.5t27 -96t67.5 -69.5t114.5 -27t123.5 26.5t95 70.5t63 95.5t35.5 106.5h17q-20 -103 -59 -180.5t-88.5 -120.5t-100.5 -63.5t-104 -20.5zM709 -23q-265 0 -428.5 167t-163.5 436q0 189 79 372
t207 318.5t301.5 219t352.5 83.5q158 0 291 -58.5t188 -113.5l-39 -31q-94 68 -213 110t-233 42q-163 0 -315 -68.5t-265.5 -185.5t-181.5 -283.5t-68 -351.5q0 -269 153.5 -424.5t409.5 -155.5q241 0 412.5 142.5t222.5 412.5l17 88l-598 17l4 30h651l-143 -743h-43l67 346
q-55 -94 -134 -166.5t-167.5 -116t-180.5 -65t-183 -21.5z" />
    <glyph glyph-name="gbreve" unicode="&#x11f;" horiz-adv-x="976" 
d="M643 1126q-52 0 -94.5 20t-76 65t-41 118.5t10.5 181.5h17q-13 -53 -6 -106.5t27 -96t67.5 -69.5t114.5 -27t123.5 26.5t95 70.5t63 95.5t35.5 106.5h16q-20 -103 -59 -180.5t-88.5 -120.5t-100.5 -63.5t-104 -20.5zM317 -422q-111 0 -181 48.5t-130 178.5h31
q66 -109 131 -147.5t141 -38.5q130 0 217 77.5t111 199.5l20 104q-114 -22 -201.5 -23t-152.5 25t-109 63.5t-70.5 92t-38 111t-11.5 120.5q0 177 67.5 331t182 244.5t247.5 90.5q52 0 94 -13.5t73 -39t51.5 -51.5t41.5 -62l27 135h84l-213 -1092q-15 -81 -47 -143.5
t-72 -101.5t-90.5 -64.5t-99.5 -35t-103 -9.5zM664 31l155 798q-87 162 -239 162q-112 0 -208.5 -78t-153 -210t-56.5 -285q0 -77 17 -143.5t54.5 -123t96 -90t142 -44.5t192.5 14z" />
    <glyph glyph-name="Gdotaccent" unicode="&#x120;" horiz-adv-x="1548" 
d="M1034 1731q-32 0 -50.5 18.5t-18.5 48.5q0 42 30.5 73.5t71.5 31.5q32 0 51 -19t19 -49q0 -41 -31 -72.5t-72 -31.5zM709 -23q-265 0 -428.5 167t-163.5 436q0 189 79 372t207 318.5t301.5 219t352.5 83.5q158 0 291 -58.5t188 -113.5l-39 -31q-94 68 -213 110t-233 42
q-163 0 -315 -68.5t-265.5 -185.5t-181.5 -283.5t-68 -351.5q0 -269 153.5 -424.5t409.5 -155.5q241 0 412.5 142.5t222.5 412.5l17 88l-598 17l4 30h651l-143 -743h-43l67 346q-55 -94 -134 -166.5t-167.5 -116t-180.5 -65t-183 -21.5z" />
    <glyph glyph-name="gdotaccent" unicode="&#x121;" horiz-adv-x="976" 
d="M612 1198q-32 0 -50.5 19t-18.5 49q0 41 30.5 72.5t71.5 31.5q32 0 51 -18.5t19 -48.5q0 -41 -31 -73t-72 -32zM317 -422q-111 0 -181 48.5t-130 178.5h31q66 -109 131 -147.5t141 -38.5q130 0 217 77.5t111 199.5l20 104q-114 -22 -201.5 -23t-152.5 25t-109 63.5
t-70.5 92t-38 111t-11.5 120.5q0 177 67.5 331t182 244.5t247.5 90.5q52 0 94 -13.5t73 -39t51.5 -51.5t41.5 -62l27 135h84l-213 -1092q-15 -81 -47 -143.5t-72 -101.5t-90.5 -64.5t-99.5 -35t-103 -9.5zM664 31l155 798q-87 162 -239 162q-112 0 -208.5 -78t-153 -210
t-56.5 -285q0 -77 17 -143.5t54.5 -123t96 -90t142 -44.5t192.5 14z" />
    <glyph glyph-name="uni0122" unicode="&#x122;" horiz-adv-x="1548" 
d="M709 -23q-265 0 -428.5 167t-163.5 436q0 189 79 372t207 318.5t301.5 219t352.5 83.5q158 0 291 -58.5t188 -113.5l-39 -31q-94 68 -213 110t-233 42q-163 0 -315 -68.5t-265.5 -185.5t-181.5 -283.5t-68 -351.5q0 -269 153.5 -424.5t409.5 -155.5q241 0 412.5 142.5
t222.5 412.5l17 88l-598 17l4 30h651l-143 -743h-43l67 346q-55 -94 -134 -166.5t-167.5 -116t-180.5 -65t-183 -21.5zM698 -102q36 0 55 -27.5t19 -69.5q0 -132 -188 -301h-23q131 134 131 197q0 24 -14.5 41t-31 25t-28 25.5t-6.5 43.5q7 31 31 48.5t55 17.5z" />
    <glyph glyph-name="uni0123" unicode="&#x123;" horiz-adv-x="976" 
d="M631 1200q-36 0 -55 27t-19 69q0 132 188 301h23q-69 -71 -100 -116.5t-31 -79.5q0 -20 9.5 -34t22 -23l25 -18t19 -24t2.5 -36q-6 -31 -29.5 -48.5t-54.5 -17.5zM317 -422q-111 0 -181 48.5t-130 178.5h31q66 -109 131 -147.5t141 -38.5q130 0 217 77.5t111 199.5
l20 104q-114 -22 -201.5 -23t-152.5 25t-109 63.5t-70.5 92t-38 111t-11.5 120.5q0 177 67.5 331t182 244.5t247.5 90.5q52 0 94 -13.5t73 -39t51.5 -51.5t41.5 -62l27 135h84l-213 -1092q-15 -81 -47 -143.5t-72 -101.5t-90.5 -64.5t-99.5 -35t-103 -9.5zM664 31l155 798
q-87 162 -239 162q-112 0 -208.5 -78t-153 -210t-56.5 -285q0 -77 17 -143.5t54.5 -123t96 -90t142 -44.5t192.5 14z" />
    <glyph glyph-name="Hbar" unicode="&#x126;" horiz-adv-x="1404" 
d="M1352 1223h102l-14 -78h-103l-223 -1145h-92l154 788h-840l-154 -788h-92l223 1145h-108l14 78h109l65 333h92l-65 -333h840l65 333h92zM348 850h840l57 295h-839z" />
    <glyph glyph-name="hbar" unicode="&#x127;" horiz-adv-x="964" 
d="M688 1055q250 0 191 -307l-146 -748h-82l133 686q31 165 -9.5 235t-153.5 70q-102 0 -211 -96.5t-156 -212.5l-133 -682h-82l254 1307h-146l11 51h145l55 280h82l-55 -280h270l-10 -51h-270l-103 -527q16 30 38 61t61.5 71t83.5 70.5t105.5 51.5t127.5 21z" />
    <glyph glyph-name="Imacron" unicode="&#x12a;" horiz-adv-x="473" 
d="M758 1765h-539l14 78h539zM182 0h-92l303 1556h92z" />
    <glyph glyph-name="imacron" unicode="&#x12b;" 
d="M594 1233h-539l15 78h538zM121 0h-82l199 1024h81z" />
    <glyph glyph-name="Iogonek" unicode="&#x12e;" horiz-adv-x="473" 
d="M88 -371q62 0 129 58h10q-94 -111 -184 -111q-48 0 -78.5 32.5t-30.5 84.5q0 134 217 300q7 5 9 7h-70l303 1556h92l-303 -1554h2q-2 0 -2 -2q-22 -17 -47.5 -41.5t-58.5 -62.5t-54.5 -83.5t-21.5 -86.5q0 -44 24 -70.5t64 -26.5z" />
    <glyph glyph-name="iogonek" unicode="&#x12f;" 
d="M369 1485q32 0 50.5 -19t18.5 -49q0 -41 -30.5 -72.5t-71.5 -31.5q-32 0 -51 18.5t-19 48.5q0 41 31 73t72 32zM121 0h-21q-22 -17 -47.5 -41.5t-58.5 -62.5t-54.5 -83.5t-21.5 -86.5q0 -44 24 -70.5t64 -26.5q62 0 129 58h10q-94 -111 -184 -111q-48 0 -78 32.5
t-30 84.5q0 134 217 301q6 4 8 6h-39l199 1024h81z" />
    <glyph glyph-name="Idotaccent" unicode="&#x130;" horiz-adv-x="473" 
d="M489 1731q-32 0 -50.5 18.5t-18.5 48.5q0 42 30.5 73.5t71.5 31.5q32 0 51 -19t19 -49q0 -41 -31 -72.5t-72 -31.5zM182 0h-92l303 1556h92z" />
    <glyph glyph-name="dotlessi" unicode="&#x131;" 
d="M121 0h-82l199 1024h81z" />
    <glyph glyph-name="uni0136" unicode="&#x136;" horiz-adv-x="1013" 
d="M182 0h-92l303 1556h92l-155 -794l741 794h59l-614 -669l440 -887h-108l-412 807l-123 -131zM434 -102q36 0 55 -27.5t19 -69.5q0 -132 -189 -301h-22q131 134 131 197q0 24 -14.5 41t-31 25t-28 25.5t-6.5 43.5q7 31 31 48.5t55 17.5z" />
    <glyph glyph-name="uni0137" unicode="&#x137;" horiz-adv-x="843" 
d="M121 0h-82l319 1638h82l-243 -1251l616 637h68l-408 -420l293 -604h-111l-256 528l-219 -225zM344 -102q36 0 55 -27.5t19 -69.5q0 -132 -189 -301h-22q131 134 131 197q0 24 -14.5 41t-31 25t-28 25.5t-6.5 43.5q7 31 31 48.5t55 17.5z" />
    <glyph glyph-name="Lacute" unicode="&#x139;" horiz-adv-x="978" 
d="M457 1659h-17q263 385 346 385q27 0 27 -23q0 -78 -356 -362zM858 0h-768l303 1556h92l-290 -1495h675z" />
    <glyph glyph-name="lacute" unicode="&#x13a;" 
d="M401 1741h-16q263 385 346 385q27 0 27 -23q0 -78 -357 -362zM121 0h-82l319 1638h82z" />
    <glyph glyph-name="uni013B" unicode="&#x13b;" horiz-adv-x="978" 
d="M858 0h-768l303 1556h92l-290 -1495h675zM393 -102q36 0 55 -27.5t19 -69.5q0 -132 -188 -301h-23q131 134 131 197q0 24 -14.5 41t-31 25t-28 25.5t-6.5 43.5q7 31 31 48.5t55 17.5z" />
    <glyph glyph-name="uni013C" unicode="&#x13c;" 
d="M121 0h-82l319 1638h82zM35 -102q36 0 55 -27.5t19 -69.5q0 -132 -189 -301h-22q131 134 131 197q0 24 -14.5 41t-31 25t-28 25.5t-6.5 43.5q7 31 31 48.5t55 17.5z" />
    <glyph glyph-name="Lcaron" unicode="&#x13d;" horiz-adv-x="991" 
d="M836 1151h-21q77 80 108 137t31 133q0 106 -34 156q7 41 34.5 60.5t61.5 19.5q33 0 53.5 -20.5t20.5 -57.5q0 -79 -82.5 -214.5t-171.5 -213.5zM858 0h-768l303 1556h92l-290 -1495h675z" />
    <glyph glyph-name="lcaron" unicode="&#x13e;" horiz-adv-x="380" 
d="M121 0h-82l319 1638h82zM467 1065h-21q77 80 108.5 137t31.5 133q0 104 -35 156q7 41 34.5 60.5t61.5 19.5q33 0 53.5 -20.5t20.5 -57.5q0 -79 -82.5 -214.5t-171.5 -213.5z" />
    <glyph glyph-name="Lslash" unicode="&#x141;" horiz-adv-x="997" 
d="M340 717l-127 -656h676l-12 -61h-768l129 668l-140 -68l15 78l141 67l158 811h92l-148 -761l340 163l-16 -79z" />
    <glyph glyph-name="lslash" unicode="&#x142;" horiz-adv-x="481" 
d="M354 881l164 77l-16 -79l-164 -78l-156 -801h-82l148 758l-168 -80l14 78l170 82l156 800h82z" />
    <glyph glyph-name="Nacute" unicode="&#x143;" horiz-adv-x="1312" 
d="M860 1659h-16q263 385 346 385q27 0 27 -23q0 -78 -357 -362zM184 0h-94l303 1556h94l494 -1288l252 1288h92l-303 -1556h-51l-520 1370z" />
    <glyph glyph-name="nacute" unicode="&#x144;" horiz-adv-x="964" 
d="M586 1126h-17q263 385 346 385q27 0 27 -22q0 -79 -356 -363zM121 0h-82l199 1024h81l-47 -246q17 31 37 61.5t58 71.5t79.5 71t102 51.5t125.5 21.5q122 0 179 -74t26 -233l-146 -748h-84l133 686q30 157 -18.5 231t-142.5 74q-111 0 -213.5 -93t-153.5 -216z" />
    <glyph glyph-name="uni0145" unicode="&#x145;" horiz-adv-x="1312" 
d="M184 0h-94l303 1556h94l494 -1288l252 1288h92l-303 -1556h-51l-520 1370zM510 -102q36 0 55 -27.5t19 -69.5q0 -132 -189 -301h-22q131 134 131 197q0 24 -14.5 41t-31 25t-28 25.5t-6.5 43.5q7 31 31 48.5t55 17.5z" />
    <glyph glyph-name="uni0146" unicode="&#x146;" horiz-adv-x="964" 
d="M121 0h-82l199 1024h81l-47 -246q17 31 37 61.5t58 71.5t79.5 71t102 51.5t125.5 21.5q122 0 179 -74t26 -233l-146 -748h-84l133 686q30 157 -18.5 231t-142.5 74q-111 0 -213.5 -93t-153.5 -216zM401 -102q36 0 55 -27.5t19 -69.5q0 -132 -188 -301h-23
q131 134 131 197q0 24 -14.5 41t-31 25t-28 25.5t-6.5 43.5q7 31 31 48.5t55 17.5z" />
    <glyph glyph-name="Ncaron" unicode="&#x147;" horiz-adv-x="1312" 
d="M877 1653q-29 0 -50.5 41.5t-77.5 195.5q-11 29 -17 46t-17 46.5t-21 55.5h27q141 -211 176 -289q28 34 66.5 74t67.5 68.5t78.5 76.5t72.5 70h26q-36 -47 -94 -126q-143 -191 -179 -227q-33 -32 -58 -32zM184 0h-94l303 1556h94l494 -1288l252 1288h92l-303 -1556h-51
l-520 1370z" />
    <glyph glyph-name="ncaron" unicode="&#x148;" horiz-adv-x="964" 
d="M602 1120q-29 0 -50.5 41.5t-74.5 188.5q-34 95 -57 155h26q9 -13 35.5 -52.5t36 -54t29.5 -45.5t30.5 -49t23.5 -42t22 -45q28 34 66.5 74t67 68t78 76t72.5 70h27q-32 -43 -87 -116q-129 -173 -171.5 -221t-73.5 -48zM121 0h-82l199 1024h81l-47 -246q17 31 37 61.5
t58 71.5t79.5 71t102 51.5t125.5 21.5q122 0 179 -74t26 -233l-146 -748h-84l133 686q30 157 -18.5 231t-142.5 74q-111 0 -213.5 -93t-153.5 -216z" />
    <glyph glyph-name="Eng" unicode="&#x14a;" horiz-adv-x="1312" 
d="M645 -432q-93 0 -177.5 52.5t-141.5 143.5l26 11q63 -69 120 -100t136 -31q46 0 85 9.5t68.5 29t53 41.5t41.5 55.5t30 60.5t23 67t16.5 66t12.5 66l6 33l-493 1298l-267 -1370h-94l303 1556h94l494 -1288l252 1288h92l-303 -1556q-14 -73 -32 -131.5t-48.5 -116.5
t-70 -97t-97.5 -63t-129 -24z" />
    <glyph glyph-name="eng" unicode="&#x14b;" horiz-adv-x="964" 
d="M444 -422q-69 0 -120 41.5t-64 95.5l16 4q21 -46 64.5 -73t89.5 -27q66 0 117 59.5t71 163.5l164 844q31 162 -17 233.5t-144 71.5q-117 0 -217 -92t-150 -217l-133 -682h-82l199 1024h81l-47 -246q16 30 38.5 61.5t61.5 71.5t83.5 71t106 52t126.5 21q250 0 191 -307
l-179 -912q-25 -124 -98 -191t-158 -67z" />
    <glyph glyph-name="Omacron" unicode="&#x14c;" horiz-adv-x="1662" 
d="M1354 1765h-539l14 78h539zM700 -23q-170 0 -301 82.5t-201.5 230t-70.5 335.5q0 136 38.5 264t105 230.5t156.5 188.5t192 143.5t212 89.5t216 32q173 0 308.5 -82.5t210 -229t74.5 -331.5q0 -132 -40 -258.5t-108 -229.5t-160.5 -191t-196.5 -147.5t-216 -93
t-219 -33.5zM760 53q62 0 131 15t144 48.5t145.5 81t134 118t110.5 154.5t75 195.5t28 235.5q0 128 -30 231t-80 170t-119.5 112t-145 64t-158.5 19q-162 0 -305.5 -70t-243 -186.5t-157.5 -271.5t-58 -322q0 -123 31 -224t83 -168.5t121 -114t143 -67t151 -20.5z" />
    <glyph glyph-name="omacron" unicode="&#x14d;" horiz-adv-x="1079" 
d="M956 1233h-538l14 78h539zM440 -23q-72 0 -131 21t-98.5 58t-68.5 81.5t-44.5 96.5t-22.5 98t-7 90q0 112 46 225t123 203.5t188 147.5t232 57q74 0 133 -21.5t96.5 -59t64 -81t39.5 -94.5t18.5 -92.5t5.5 -81.5q0 -92 -28 -186.5t-80.5 -176.5t-122 -146t-159 -101.5
t-184.5 -37.5zM479 41q86 0 167.5 43.5t143 117t99 178t37.5 220.5q0 59 -9.5 113.5t-32.5 106t-56.5 89t-85.5 60t-117 22.5q-92 0 -179 -43t-152 -114.5t-104.5 -171.5t-39.5 -207q0 -108 36.5 -200.5t113 -153t179.5 -60.5z" />
    <glyph glyph-name="Ohungarumlaut" unicode="&#x150;" horiz-adv-x="1662" 
d="M893 1659h-27q97 143 173.5 233t117.5 121t66 31q26 0 26 -23q0 -72 -356 -362zM1163 1659h-26q97 142 174 232.5t117.5 121.5t64.5 31q27 0 27 -23q0 -74 -357 -362zM700 -23q-170 0 -301 82.5t-201.5 230t-70.5 335.5q0 136 38.5 264t105 230.5t156.5 188.5t192 143.5
t212 89.5t216 32q173 0 308.5 -82.5t210 -229t74.5 -331.5q0 -132 -40 -258.5t-108 -229.5t-160.5 -191t-196.5 -147.5t-216 -93t-219 -33.5zM760 53q62 0 131 15t144 48.5t145.5 81t134 118t110.5 154.5t75 195.5t28 235.5q0 128 -30 231t-80 170t-119.5 112t-145 64
t-158.5 19q-162 0 -305.5 -70t-243 -186.5t-157.5 -271.5t-58 -322q0 -123 31 -224t83 -168.5t121 -114t143 -67t151 -20.5z" />
    <glyph glyph-name="ohungarumlaut" unicode="&#x151;" horiz-adv-x="1079" 
d="M496 1126h-27q98 143 174 233t116.5 121t65.5 31q27 0 27 -22q0 -73 -356 -363zM766 1126h-27q97 142 174 232.5t118 121.5t65 31q26 0 26 -22q0 -36 -91.5 -130t-264.5 -233zM440 -23q-72 0 -131 21t-98.5 58t-68.5 81.5t-44.5 96.5t-22.5 98t-7 90q0 112 46 225
t123 203.5t188 147.5t232 57q74 0 133 -21.5t96.5 -59t64 -81t39.5 -94.5t18.5 -92.5t5.5 -81.5q0 -92 -28 -186.5t-80.5 -176.5t-122 -146t-159 -101.5t-184.5 -37.5zM479 41q86 0 167.5 43.5t143 117t99 178t37.5 220.5q0 59 -9.5 113.5t-32.5 106t-56.5 89t-85.5 60
t-117 22.5q-92 0 -179 -43t-152 -114.5t-104.5 -171.5t-39.5 -207q0 -108 36.5 -200.5t113 -153t179.5 -60.5z" />
    <glyph glyph-name="OE" unicode="&#x152;" horiz-adv-x="1992" 
d="M680 -23q-246 0 -403.5 172.5t-157.5 442.5q0 149 49 296.5t136.5 269t200.5 216t249 147t274 52.5q179 0 320 -80l12 63h788l-10 -61h-696l-123 -627h450l-12 -61h-450l-146 -746h717l-10 -61h-809l16 92q-205 -115 -395 -115zM745 41q160 0 340 104l252 1295
q-58 33 -153 58.5t-180 25.5q-207 0 -388 -121.5t-288 -326t-107 -437.5q0 -113 30 -210.5t81 -167.5t118 -120.5t142.5 -75t152.5 -24.5z" />
    <glyph glyph-name="oe" unicode="&#x153;" horiz-adv-x="1855" 
d="M440 -23q-80 0 -145.5 29t-106.5 75.5t-69 106.5t-39.5 118.5t-11.5 115.5q0 85 26.5 174.5t78.5 171t122 146t164.5 103t197.5 38.5q70 0 125.5 -18.5t92.5 -48.5t64.5 -73.5t42.5 -88.5t24 -99q77 144 216.5 236t293.5 92q129 0 205.5 -67.5t76.5 -186.5q0 -34 -6 -64
q-12 -65 -41 -125t-64 -103.5t-64.5 -71.5t-55.5 -46l-537 217q-29 -60 -29 -162q0 -186 80 -295.5t232 -109.5q124 0 240 79.5t214 239.5h31q-83 -166 -222.5 -274.5t-309.5 -108.5q-152 0 -234 90t-106 240q-75 -142 -205 -236t-281 -94zM479 41q86 0 168 43.5t143.5 117
t98.5 178t37 220.5q0 59 -9.5 113.5t-32.5 106t-56.5 89t-85.5 60t-117 22.5q-91 0 -178.5 -43.5t-152.5 -115t-104.5 -171t-39.5 -206.5q0 -108 37 -201t113.5 -153t178.5 -60zM1483 520q68 0 121 23t83.5 61.5t46 82t15.5 89.5q0 107 -76.5 161t-183.5 54
q-148 0 -275 -100t-180 -252q176 -63 275 -91t174 -28z" />
    <glyph glyph-name="Racute" unicode="&#x154;" horiz-adv-x="1200" 
d="M827 1659h-16q263 385 346 385q27 0 27 -23q0 -78 -357 -362zM182 0h-92l303 1556h438q117 0 211 -32t154.5 -104t60.5 -175q0 -130 -75 -240.5t-204.5 -176.5t-283.5 -70l316 -758h-109l-313 758h-258zM477 1516l-139 -717h336q207 0 344 129t137 325q0 129 -90 196
t-252 67h-336z" />
    <glyph glyph-name="racute" unicode="&#x155;" horiz-adv-x="636" 
d="M442 1126h-16q263 385 346 385q27 0 27 -22q0 -79 -357 -363zM121 0h-82l199 1024h81l-57 -295h2q27 57 64.5 108t88.5 97t119.5 73t143.5 27h35l-13 -63h-38q-64 0 -122.5 -23t-105.5 -63t-87.5 -95.5t-70.5 -117.5t-53 -133z" />
    <glyph glyph-name="uni0156" unicode="&#x156;" horiz-adv-x="1200" 
d="M182 0h-92l303 1556h438q117 0 211 -32t154.5 -104t60.5 -175q0 -130 -75 -240.5t-204.5 -176.5t-283.5 -70l316 -758h-109l-313 758h-258zM477 1516l-139 -717h336q207 0 344 129t137 325q0 129 -90 196t-252 67h-336zM477 -102q36 0 55 -27.5t19 -69.5
q0 -132 -189 -301h-22q131 134 131 197q0 24 -14.5 41t-31 25t-28 25.5t-6.5 43.5q7 31 31 48.5t55 17.5z" />
    <glyph glyph-name="uni0157" unicode="&#x157;" horiz-adv-x="636" 
d="M121 0h-82l199 1024h81l-57 -295h2q27 57 64.5 108t88.5 97t119.5 73t143.5 27h35l-13 -63h-38q-64 0 -122.5 -23t-105.5 -63t-87.5 -95.5t-70.5 -117.5t-53 -133zM37 -102q36 0 55 -27.5t19 -69.5q0 -132 -189 -301h-22q131 134 131 197q0 24 -14.5 41t-31 25t-28 25.5
t-6.5 43.5q7 31 31 48.5t55 17.5z" />
    <glyph glyph-name="Rcaron" unicode="&#x158;" horiz-adv-x="1200" 
d="M844 1653q-29 0 -50.5 41.5t-74.5 188.5q-34 95 -57 155h26q141 -211 176 -289q28 34 66.5 74t67.5 68.5t78.5 76.5t72.5 70h27q-32 -43 -87 -116q-129 -173 -171.5 -221t-73.5 -48zM182 0h-92l303 1556h438q117 0 211 -32t154.5 -104t60.5 -175q0 -130 -75 -240.5
t-204.5 -176.5t-283.5 -70l316 -758h-109l-313 758h-258zM477 1516l-139 -717h336q207 0 344 129t137 325q0 129 -90 196t-252 67h-336z" />
    <glyph glyph-name="rcaron" unicode="&#x159;" horiz-adv-x="636" 
d="M459 1120q-29 0 -50.5 41.5t-77.5 195.5q-11 29 -17 46t-17 46.5t-21 55.5h27q7 -10 27 -40l27 -40.5t23.5 -36t24 -37.5t20.5 -33.5t21 -35.5t17 -31.5t16 -33.5q28 34 66 74t68 68.5t78 75t73 70.5h27q-32 -43 -87 -116q-129 -173 -171.5 -221t-73.5 -48zM121 0h-82
l199 1024h81l-57 -295h2q27 57 64.5 108t88.5 97t119.5 73t143.5 27h35l-13 -63h-38q-64 0 -122.5 -23t-105.5 -63t-87.5 -95.5t-70.5 -117.5t-53 -133z" />
    <glyph glyph-name="Sacute" unicode="&#x15a;" horiz-adv-x="1114" 
d="M741 1659h-16q263 385 346 385q27 0 27 -23q0 -78 -357 -362zM410 -23q-88 0 -163.5 22.5t-128.5 60.5t-89 80.5t-58 90.5l45 27q57 -112 164.5 -170.5t239.5 -58.5q148 0 272.5 62t196.5 168.5t72 232.5q0 99 -65.5 155t-199.5 90q-108 28 -155.5 43t-96.5 39
q-204 101 -204 279q0 92 37 177.5t102 151.5t163 106t212 40q239 0 393 -166l-41 -33q-50 65 -159.5 106.5t-207.5 41.5q-114 0 -213.5 -48t-159 -130.5t-59.5 -178.5q0 -74 48.5 -126t148.5 -93q49 -20 213 -65q317 -84 317 -338q0 -115 -49 -220t-132.5 -180.5
t-199.5 -120.5t-243 -45z" />
    <glyph glyph-name="sacute" unicode="&#x15b;" horiz-adv-x="804" 
d="M498 1126h-17q263 385 346 385q27 0 27 -22q0 -79 -356 -363zM291 -23q-210 0 -314 166l29 19q94 -131 287 -131q146 0 248 79t102 193q0 18 -4 34t-15 30t-20.5 24.5t-30.5 22.5t-34.5 19.5t-43.5 19t-46 17.5t-53 19t-54 19q-95 34 -148 86.5t-53 134.5
q0 138 103.5 232t255.5 94q187 0 284 -146l-28 -18q-35 42 -110 76t-159 34q-119 0 -203.5 -68.5t-84.5 -164.5q0 -56 47.5 -93.5t161.5 -74.5q15 -5 48 -15t49 -15t44 -15.5t42.5 -19t35.5 -21.5t32 -27t22.5 -32.5t16 -41t4.5 -48.5q0 -164 -118 -276t-293 -112z" />
    <glyph glyph-name="Scedilla" unicode="&#x15e;" horiz-adv-x="1114" 
d="M754 1573q239 0 393 -166l-41 -33q-50 65 -159.5 106.5t-207.5 41.5q-114 0 -213.5 -48t-159 -130.5t-59.5 -178.5q0 -74 48.5 -126t148.5 -93q49 -20 213 -65q317 -84 317 -338q0 -108 -43.5 -207t-118 -173t-177.5 -123t-220 -60l-76 -97q67 0 100 -30t33 -78
q0 -67 -58.5 -130t-141.5 -63q-57 0 -111 35l2 16q44 -20 94 -20q64 0 109 32.5t45 84.5q0 39 -33 65.5t-98 26.5l8 39l90 116h-28q-88 0 -163.5 22.5t-128.5 60.5t-89 80.5t-58 90.5l45 27q57 -112 164.5 -170.5t239.5 -58.5q148 0 272.5 62t196.5 168.5t72 232.5
q0 99 -65.5 155t-199.5 90q-108 28 -155.5 43t-96.5 39q-204 101 -204 279q0 92 37 177.5t102 151.5t163 106t212 40z" />
    <glyph glyph-name="scedilla" unicode="&#x15f;" horiz-adv-x="804" 
d="M500 1055q187 0 284 -146l-28 -18q-35 42 -110 76t-159 34q-119 0 -203.5 -68.5t-84.5 -164.5q0 -56 47.5 -93.5t161.5 -74.5q15 -5 48 -15t49 -15t44 -15.5t42.5 -19t35.5 -21.5t32 -27t22.5 -32.5t16 -41t4.5 -48.5q0 -155 -105 -263t-265 -122l-74 -97q67 0 100 -30
t33 -78q0 -67 -59 -130t-142 -63q-56 0 -110 35l2 16q44 -20 94 -20q64 0 109 32.5t45 84.5q0 39 -33 65.5t-98 26.5l8 39l90 116h-6q-210 0 -314 166l29 19q94 -131 287 -131q146 0 248 79t102 193q0 18 -4 34t-15 30t-20.5 24.5t-30.5 22.5t-34.5 19.5t-43.5 19t-46 17.5
t-53 19t-54 19q-95 34 -148 86.5t-53 134.5q0 138 103.5 232t255.5 94z" />
    <glyph glyph-name="Scaron" unicode="&#x160;" horiz-adv-x="1114" 
d="M758 1653q-29 0 -50.5 41.5t-77.5 195.5q-11 29 -17 46t-17 46.5t-21 55.5h27q141 -211 176 -289q28 34 66.5 74t67.5 68.5t78.5 76.5t72.5 70h27q-32 -43 -87 -116q-129 -173 -171.5 -221t-73.5 -48zM410 -23q-88 0 -163.5 22.5t-128.5 60.5t-89 80.5t-58 90.5l45 27
q57 -112 164.5 -170.5t239.5 -58.5q148 0 272.5 62t196.5 168.5t72 232.5q0 99 -65.5 155t-199.5 90q-108 28 -155.5 43t-96.5 39q-204 101 -204 279q0 92 37 177.5t102 151.5t163 106t212 40q239 0 393 -166l-41 -33q-50 65 -159.5 106.5t-207.5 41.5q-114 0 -213.5 -48
t-159 -130.5t-59.5 -178.5q0 -74 48.5 -126t148.5 -93q49 -20 213 -65q317 -84 317 -338q0 -115 -49 -220t-132.5 -180.5t-199.5 -120.5t-243 -45z" />
    <glyph glyph-name="scaron" unicode="&#x161;" horiz-adv-x="804" 
d="M514 1120q-29 0 -50.5 41.5t-74.5 188.5q-34 95 -57 155h26q9 -13 35.5 -52.5t36 -54t29.5 -45.5t30.5 -49t23.5 -42t22 -45q28 34 66.5 74t67 68t78 76t72.5 70h27q-32 -43 -87 -116q-129 -173 -171.5 -221t-73.5 -48zM291 -23q-210 0 -314 166l29 19q94 -131 287 -131
q146 0 248 79t102 193q0 18 -4 34t-15 30t-20.5 24.5t-30.5 22.5t-34.5 19.5t-43.5 19t-46 17.5t-53 19t-54 19q-95 34 -148 86.5t-53 134.5q0 138 103.5 232t255.5 94q187 0 284 -146l-28 -18q-35 42 -110 76t-159 34q-119 0 -203.5 -68.5t-84.5 -164.5q0 -56 47.5 -93.5
t161.5 -74.5q15 -5 48 -15t49 -15t44 -15.5t42.5 -19t35.5 -21.5t32 -27t22.5 -32.5t16 -41t4.5 -48.5q0 -164 -118 -276t-293 -112z" />
    <glyph glyph-name="uni0162" unicode="&#x162;" horiz-adv-x="1226" 
d="M211 1495l12 61h1178l-12 -61h-543l-291 -1495h-31l-90 -117q67 0 100 -30t33 -78q0 -67 -58.5 -130t-141.5 -63q-57 0 -111 35l2 16q44 -20 94 -20q64 0 109 32.5t45 84.5q0 39 -33 65.5t-98 26.5l8 39l106 139h-26l291 1495h-543z" />
    <glyph glyph-name="uni0163" unicode="&#x163;" horiz-adv-x="589" 
d="M618 973h-270l-133 -686q-27 -141 -6.5 -198.5t96.5 -57.5q121 0 213 157l21 -4q-50 -102 -123.5 -154.5t-157.5 -52.5h-6l-74 -94q67 0 100 -30t33 -78q0 -67 -58.5 -130t-141.5 -63q-57 0 -111 35l2 16q44 -20 94 -20q64 0 109 32.5t45 84.5q0 39 -33 65.5t-98 26.5
l8 39l92 121q-75 13 -95 89t7 205l135 697h-155l10 51h155l68 348h82l-68 -348h271z" />
    <glyph glyph-name="Tcaron" unicode="&#x164;" horiz-adv-x="1226" 
d="M831 1653q-29 0 -50.5 41.5t-74.5 188.5q-34 95 -57 155h27q141 -211 176 -289q28 34 66.5 74t67.5 68.5t78.5 76.5t72.5 70h26q-32 -43 -87 -116q-129 -173 -171.5 -221t-73.5 -48zM555 0h-92l291 1495h-543l12 61h1178l-12 -61h-543z" />
    <glyph glyph-name="tcaron" unicode="&#x165;" horiz-adv-x="589" 
d="M664 1065h-21q77 80 108 137t31 133q0 106 -34 156q7 41 34.5 60.5t61.5 19.5q33 0 53.5 -20.5t20.5 -57.5q0 -79 -82.5 -214.5t-171.5 -213.5zM258 -23q-101 0 -129.5 77t2.5 222l135 697h-155l10 51h155l68 348h82l-68 -348h271l-11 -51h-270l-133 -686
q-27 -141 -6.5 -198.5t96.5 -57.5q121 0 213 157l21 -4q-50 -102 -123.5 -154.5t-157.5 -52.5z" />
    <glyph glyph-name="Tbar" unicode="&#x166;" horiz-adv-x="1236" 
d="M1405 1556l-12 -61h-543l-135 -692h205l-11 -51h-204l-146 -752h-92l145 752h-200l10 51h201l135 692h-543l12 61h1178z" />
    <glyph glyph-name="tbar" unicode="&#x167;" horiz-adv-x="620" 
d="M639 1024l-10 -51h-271l-84 -436h304l-11 -52h-303l-39 -198q-27 -141 -6.5 -198.5t96.5 -57.5q121 0 213 157l21 -4q-50 -102 -123.5 -154.5t-157.5 -52.5q-101 0 -129.5 77t2.5 222l41 209h-112l10 52h113l83 436h-155l10 51h156l67 348h82l-67 -348h270z" />
    <glyph glyph-name="Umacron" unicode="&#x16a;" horiz-adv-x="1368" 
d="M1204 1765h-538l14 78h539zM582 -23q-117 0 -200.5 30t-131 82.5t-69 131t-19.5 168t24 199.5l189 968h92l-188 -968q-52 -264 29 -395.5t304 -131.5q207 0 329 120.5t177 406.5l189 968h92l-189 -968q-28 -144 -75 -252.5t-121 -191t-182.5 -125t-249.5 -42.5z" />
    <glyph glyph-name="umacron" unicode="&#x16b;" horiz-adv-x="923" 
d="M874 1233h-538l14 78h539zM264 -23q-54 0 -91 15.5t-64.5 54t-30 104t13.5 166.5l137 707h82l-131 -680q-59 -303 135 -303q102 0 191.5 73.5t152.5 182.5l142 727h82l-199 -1024h-82l41 215q-26 -41 -59.5 -78t-80.5 -75.5t-109.5 -61.5t-129.5 -23z" />
    <glyph glyph-name="Uring" unicode="&#x16e;" horiz-adv-x="1368" 
d="M895 1704q-61 0 -99 38.5t-38 96.5q0 75 61.5 135t138.5 60q58 0 97 -38.5t39 -94.5q0 -74 -62 -135.5t-137 -61.5zM903 1751q53 0 98.5 43.5t45.5 95.5q0 40 -28.5 68.5t-68.5 28.5q-56 0 -100.5 -43t-44.5 -97q0 -39 28 -67.5t70 -28.5zM582 -23q-117 0 -200.5 30
t-131 82.5t-69 131t-19.5 168t24 199.5l189 968h92l-188 -968q-52 -264 29 -395.5t304 -131.5q207 0 329 120.5t177 406.5l189 968h92l-189 -968q-28 -144 -75 -252.5t-121 -191t-182.5 -125t-249.5 -42.5z" />
    <glyph glyph-name="uring" unicode="&#x16f;" horiz-adv-x="923" 
d="M586 1171q-61 0 -99 39t-38 97q0 75 61.5 134.5t138.5 59.5q58 0 96.5 -38.5t38.5 -94.5q0 -74 -61.5 -135.5t-136.5 -61.5zM594 1219q53 0 98 43.5t45 95.5q0 40 -28 68t-68 28q-56 0 -100.5 -42.5t-44.5 -96.5q0 -39 28 -67.5t70 -28.5zM264 -23q-54 0 -91 15.5
t-64.5 54t-30 104t13.5 166.5l137 707h82l-131 -680q-59 -303 135 -303q102 0 191.5 73.5t152.5 182.5l142 727h82l-199 -1024h-82l41 215q-26 -41 -59.5 -78t-80.5 -75.5t-109.5 -61.5t-129.5 -23z" />
    <glyph glyph-name="Uhungarumlaut" unicode="&#x170;" horiz-adv-x="1368" 
d="M743 1659h-26q98 143 174 233t116.5 121t65.5 31q27 0 27 -23q0 -71 -357 -362zM1014 1659h-27q97 142 174 232.5t117.5 121.5t64.5 31q27 0 27 -23q0 -36 -91.5 -129t-264.5 -233zM582 -23q-117 0 -200.5 30t-131 82.5t-69 131t-19.5 168t24 199.5l189 968h92l-188 -968
q-52 -264 29 -395.5t304 -131.5q207 0 329 120.5t177 406.5l189 968h92l-189 -968q-28 -144 -75 -252.5t-121 -191t-182.5 -125t-249.5 -42.5z" />
    <glyph glyph-name="uhungarumlaut" unicode="&#x171;" horiz-adv-x="923" 
d="M414 1126h-27q98 143 174 233t116.5 121t65.5 31q27 0 27 -22q0 -73 -356 -363zM684 1126h-27q97 142 174 232.5t118 121.5t65 31q26 0 26 -22q0 -36 -91.5 -130t-264.5 -233zM264 -23q-54 0 -91 15.5t-64.5 54t-30 104t13.5 166.5l137 707h82l-131 -680
q-59 -303 135 -303q102 0 191.5 73.5t152.5 182.5l142 727h82l-199 -1024h-82l41 215q-26 -41 -59.5 -78t-80.5 -75.5t-109.5 -61.5t-129.5 -23z" />
    <glyph glyph-name="Uogonek" unicode="&#x172;" horiz-adv-x="1368" 
d="M1118 588l189 968h92l-189 -968q-54 -276 -185.5 -431.5t-371.5 -176.5q-58 -49 -107.5 -118.5t-49.5 -135.5q0 -44 24 -70.5t64 -26.5q62 0 129 58h10q-94 -111 -184 -111q-48 0 -78.5 32.5t-30.5 84.5q0 128 197 287q-21 -3 -45 -3q-117 0 -200.5 30t-131 82.5t-69 131
t-19.5 168t24 199.5l189 968h92l-188 -968q-52 -264 29 -395.5t304 -131.5q207 0 329 120.5t177 406.5z" />
    <glyph glyph-name="uogonek" unicode="&#x173;" horiz-adv-x="923" 
d="M684 0h-59q-22 -17 -48 -41.5t-59 -62.5t-54.5 -83.5t-21.5 -86.5q0 -44 24 -70.5t64 -26.5q62 0 129 58h11q-94 -111 -185 -111q-48 0 -78 32.5t-30 84.5q0 137 218 301q5 4 7 6l41 215q-26 -41 -59.5 -78t-80.5 -75.5t-109.5 -61.5t-129.5 -23q-54 0 -91 15.5t-64.5 54
t-30 104t13.5 166.5l137 707h82l-131 -680q-59 -303 135 -303q102 0 191.5 73.5t152.5 182.5l142 727h82z" />
    <glyph glyph-name="Wcircumflex" unicode="&#x174;" horiz-adv-x="2027" 
d="M1004 1618h-17q43 57 88 117.5t69.5 94t51 68t40.5 51t29 31t25 19t21 4.5t19.5 -4.5t17 -18.5t16 -31t19.5 -51t23.5 -68.5t32.5 -94t42 -117.5h-17q-10 15 -40.5 62t-41.5 64.5t-32 51.5t-34.5 59.5t-25.5 51.5q-23 -27 -49 -55.5t-59.5 -62t-54.5 -54t-64.5 -62
t-58.5 -55.5zM459 0h-62l-196 1556h110l168 -1392l711 1392h67l205 -1392l697 1392h63l-782 -1556h-62l-202 1403z" />
    <glyph glyph-name="wcircumflex" unicode="&#x175;" horiz-adv-x="1314" 
d="M563 1085h-16q43 57 88 117t69.5 94t50.5 68.5t40 51t29 31t25 19t21 4.5t19.5 -4.5t17 -18.5t16 -31t19.5 -51t23.5 -68.5t32.5 -94t42 -117.5h-16q-10 15 -40.5 62t-41.5 64.5t-32 51.5t-34.5 59.5t-25.5 51.5q-28 -34 -68.5 -76t-63.5 -65t-83 -79.5t-72 -68.5zM301 0
h-61l-115 1024h90l88 -911l442 911h72l82 -911l279 577q69 145 69 217q0 76 -71 76q-77 0 -181 -94v41q106 106 209 106q56 0 82.5 -29t26.5 -79q0 -79 -66 -215l-352 -713h-61l-86 924z" />
    <glyph glyph-name="Ycircumflex" unicode="&#x176;" horiz-adv-x="1138" 
d="M559 1618h-16q43 57 88 117t69.5 94t50.5 68.5t40 51t29 31t25 19t21 4.5t19.5 -4.5t17 -18.5t16 -31t19.5 -51t23.5 -68.5t32.5 -94t42 -117.5h-16q-10 15 -40.5 62t-41.5 64.5t-32 51.5t-34.5 59.5t-25.5 51.5q-28 -34 -68.5 -76t-63.5 -65t-83 -79.5t-72 -68.5zM520 0
h-92l113 575l-348 981h114l324 -894l643 894h61l-700 -968z" />
    <glyph glyph-name="ycircumflex" unicode="&#x177;" horiz-adv-x="827" 
d="M256 1085h-16q43 57 88 117t69.5 94t50.5 68.5t40 51t29 31t25 19t21 4.5t19.5 -4.5t17 -18.5t16 -31t19.5 -51t23.5 -68.5t32.5 -94t42 -117.5h-16q-10 15 -40.5 62t-41.5 64.5t-32 51.5t-34.5 59.5t-25.5 51.5q-28 -34 -68.5 -76t-63.5 -65t-83 -79.5t-72 -68.5z
M-49 -422q-63 0 -105 41t-73 115h30q55 -119 136 -119q77 0 172 97.5t180 258.5l-170 1053h88l151 -952l318 583q92 177 92 252q0 76 -78 76q-70 0 -174 -94v41q101 106 201 106q110 0 110 -106t-98 -283l-377 -676q-219 -393 -403 -393z" />
    <glyph glyph-name="Ydieresis" unicode="&#x178;" horiz-adv-x="1138" 
d="M621 1739q-29 0 -46.5 16.5t-17.5 42.5q0 40 28 69t66 29q32 0 50 -17t18 -44q0 -40 -28.5 -68t-69.5 -28zM887 1739q-29 0 -46.5 16.5t-17.5 42.5q0 40 28.5 69t66.5 29q31 0 49 -17t18 -44q0 -40 -28.5 -68t-69.5 -28zM520 0h-92l113 575l-348 981h114l324 -894
l643 894h61l-700 -968z" />
    <glyph glyph-name="Zacute" unicode="&#x179;" horiz-adv-x="970" 
d="M690 1659h-16q263 385 346 385q27 0 27 -23q0 -78 -357 -362zM846 0h-932l-6 20l1089 1475h-710l12 61h819l6 -20l-1081 -1475h815z" />
    <glyph glyph-name="zacute" unicode="&#x17a;" horiz-adv-x="745" 
d="M838 1489q0 -79 -357 -363h-16q263 385 346 385q27 0 27 -22zM209 1024h584l6 -20l-744 -943h570l-13 -61h-686l-6 20l750 943h-473z" />
    <glyph glyph-name="Zdotaccent" unicode="&#x17b;" horiz-adv-x="970" 
d="M737 1731q-32 0 -50.5 18.5t-18.5 48.5q0 42 30.5 73.5t71.5 31.5q32 0 51 -19t19 -49q0 -41 -31 -72.5t-72 -31.5zM846 0h-932l-6 20l1089 1475h-710l12 61h819l6 -20l-1081 -1475h815z" />
    <glyph glyph-name="zdotaccent" unicode="&#x17c;" horiz-adv-x="745" 
d="M528 1198q-32 0 -50.5 19t-18.5 49q0 41 30.5 72.5t71.5 31.5q32 0 51 -18.5t19 -48.5q0 -41 -31 -73t-72 -32zM793 1024l6 -20l-744 -943h570l-13 -61h-686l-6 20l750 943h-473l12 61h584z" />
    <glyph glyph-name="Zcaron" unicode="&#x17d;" horiz-adv-x="970" 
d="M707 1653q-29 0 -50.5 41.5t-77.5 195.5q-11 29 -17 46t-17 46.5t-21 55.5h27q141 -211 176 -289q28 34 66.5 74t67.5 68.5t78.5 76.5t72.5 70h26q-36 -47 -94 -126q-143 -191 -179 -227q-33 -32 -58 -32zM846 0h-932l-6 20l1089 1475h-710l12 61h819l6 -20l-1081 -1475
h815z" />
    <glyph glyph-name="zcaron" unicode="&#x17e;" horiz-adv-x="745" 
d="M498 1120q-29 0 -50.5 41.5t-77.5 195.5q-11 29 -17 46t-17 46.5t-21 55.5h27q7 -10 27 -40l27 -40.5t23.5 -36t24 -37.5t20.5 -33.5t21 -35.5t17 -31.5t16 -33.5q28 34 66 74t68 68.5t78.5 75t72.5 70.5h26q-211 -281 -227 -300q-61 -76 -92 -84q-6 -1 -12 -1zM209 1024
h584l6 -20l-744 -943h570l-13 -61h-686l-6 20l750 943h-473z" />
    <glyph glyph-name="uni018F" unicode="&#x18f;" horiz-adv-x="1619" 
d="M1004 1573q173 0 308.5 -82.5t210 -229t74.5 -331.5q0 -132 -40 -258.5t-108 -229.5t-160.5 -191t-196.5 -147.5t-216 -93t-219 -33.5q-187 0 -328.5 101.5t-203 271t-25.5 363.5q2 15 10 42t9 33h1360q6 55 6 113q0 134 -29.5 241t-79.5 177t-119 116.5t-143.5 66.5
t-157.5 20q-269 0 -503 -148l-27 33q252 166 578 166zM717 53q79 0 167 24t182.5 77.5t174.5 129.5t142.5 191t86.5 252h-1273q-18 -120 0.5 -227.5t66.5 -187.5t118 -139.5t156 -89.5t179 -30z" />
    <glyph glyph-name="florin" unicode="&#x192;" horiz-adv-x="989" 
d="M135 -25q-111 0 -172 91l25 20q21 -31 60.5 -55.5t86.5 -24.5q41 0 77.5 21.5t65.5 57t56.5 94.5t48.5 120t43.5 149.5t39.5 167.5t38 187h-260l12 65h260l16 86q12 67 21.5 111t28.5 115t38 119.5t49.5 104.5t64.5 89.5t81.5 56.5t102.5 23q83 0 130 -45.5t62 -104.5
l-25 -12q-6 16 -16.5 33.5t-30.5 41t-52 38t-71 14.5q-113 0 -182.5 -142t-134.5 -483l-8 -45h307l-12 -65h-307q-4 -21 -19 -96q-20 -104 -39 -184t-46.5 -169.5t-59.5 -153t-72.5 -117t-93 -81t-113.5 -27.5z" />
    <glyph glyph-name="uni0218" unicode="&#x218;" horiz-adv-x="1114" 
d="M410 -23q-88 0 -163.5 22.5t-128.5 60.5t-89 80.5t-58 90.5l45 27q57 -112 164.5 -170.5t239.5 -58.5q148 0 272.5 62t196.5 168.5t72 232.5q0 99 -65.5 155t-199.5 90q-108 28 -155.5 43t-96.5 39q-204 101 -204 279q0 92 37 177.5t102 151.5t163 106t212 40
q239 0 393 -166l-41 -33q-50 65 -159.5 106.5t-207.5 41.5q-114 0 -213.5 -48t-159 -130.5t-59.5 -178.5q0 -74 48.5 -126t148.5 -93q49 -20 213 -65q317 -84 317 -338q0 -115 -49 -220t-132.5 -180.5t-199.5 -120.5t-243 -45zM391 -102q36 0 55 -27.5t19 -69.5
q0 -132 -189 -301h-22q131 134 131 197q0 24 -14.5 41t-31 25t-28 25.5t-6.5 43.5q7 31 31 48.5t55 17.5z" />
    <glyph glyph-name="uni0219" unicode="&#x219;" horiz-adv-x="804" 
d="M291 -23q-210 0 -314 166l29 19q94 -131 287 -131q146 0 248 79t102 193q0 18 -4 34t-15 30t-20.5 24.5t-30.5 22.5t-34.5 19.5t-43.5 19t-46 17.5t-53 19t-54 19q-95 34 -148 86.5t-53 134.5q0 138 103.5 232t255.5 94q187 0 284 -146l-28 -18q-35 42 -110 76t-159 34
q-119 0 -203.5 -68.5t-84.5 -164.5q0 -56 47.5 -93.5t161.5 -74.5q15 -5 48 -15t49 -15t44 -15.5t42.5 -19t35.5 -21.5t32 -27t22.5 -32.5t16 -41t4.5 -48.5q0 -164 -118 -276t-293 -112zM250 -102q36 0 55 -27.5t19 -69.5q0 -132 -189 -301h-22q131 134 131 197
q0 24 -14.5 41t-31 25t-28 25.5t-6.5 43.5q7 31 31 48.5t55 17.5z" />
    <glyph glyph-name="uni021A" unicode="&#x21a;" horiz-adv-x="1226" 
d="M555 0h-92l291 1495h-543l12 61h1178l-12 -61h-543zM465 -102q36 0 55 -27.5t19 -69.5q0 -132 -189 -301h-22q131 134 131 197q0 24 -14.5 41t-31 25t-28 25.5t-6.5 43.5q7 31 31 48.5t55 17.5z" />
    <glyph glyph-name="uni021B" unicode="&#x21b;" horiz-adv-x="589" 
d="M258 -23q-101 0 -129.5 77t2.5 222l135 697h-155l10 51h155l68 348h82l-68 -348h271l-11 -51h-270l-133 -686q-27 -141 -6.5 -198.5t96.5 -57.5q121 0 213 157l21 -4q-50 -102 -123.5 -154.5t-157.5 -52.5zM170 -102q36 0 55 -27.5t19 -69.5q0 -132 -189 -301h-22
q131 134 131 197q0 24 -14.5 41t-31 25t-28 25.5t-6.5 43.5q7 31 31 48.5t55 17.5z" />
    <glyph glyph-name="uni0259" unicode="&#x259;" horiz-adv-x="1005" 
d="M594 1055q74 0 134 -25t99 -65.5t65 -96t37 -114t11 -121.5q0 -171 -80.5 -322t-219 -242.5t-296.5 -91.5q-150 0 -227.5 85t-48.5 233q16 83 62 161t86.5 119t76.5 66l538 -238q27 93 27 183q0 185 -88.5 295t-222.5 110q-145 0 -260 -77.5t-215 -241.5h-11
q82 164 225 273.5t308 109.5zM371 41q152 0 278 95t178 255q-172 64 -273 92.5t-177 28.5q-113 0 -179 -58t-81 -143q-14 -70 1.5 -123.5t54 -84.5t89 -46.5t109.5 -15.5z" />
    <glyph glyph-name="uni02BC" unicode="&#x2bc;" horiz-adv-x="348" 
d="M211 1065h-21q120 123 136 211q4 16 4 59q0 104 -35 156q7 41 34.5 60.5t61.5 19.5q33 0 53.5 -20.5t20.5 -57.5q0 -7 -4 -31q-14 -75 -83.5 -193t-166.5 -204z" />
    <glyph glyph-name="circumflex" unicode="&#x2c6;" horiz-adv-x="1208" 
d="M322 1085h-17q43 57 88 117.5t69.5 94t51 68t40.5 51t29 31t25 19t21 4.5t19.5 -4.5t17 -18.5t16 -31t19.5 -51t23.5 -68.5t32.5 -94t42 -117.5h-17q-10 15 -40.5 62t-41.5 64.5t-32 51.5t-34.5 59.5t-25.5 51.5q-23 -27 -49 -55.5t-59.5 -62t-54.5 -54t-64.5 -62
t-58.5 -55.5z" />
    <glyph glyph-name="caron" unicode="&#x2c7;" horiz-adv-x="1228" 
d="M494 1120q-29 0 -50.5 41.5t-77.5 195.5q-11 29 -17 46t-17 46.5t-21 55.5h27q7 -10 27 -40l27 -40.5t23.5 -36t24 -37.5t20.5 -33.5t21 -35.5t17 -31.5t16 -33.5q28 34 66 74t68 68.5t78 75t73 70.5h26q-211 -281 -227 -300q-61 -76 -92 -84q-6 -1 -12 -1z" />
    <glyph glyph-name="breve" unicode="&#x2d8;" horiz-adv-x="1228" 
d="M569 1126q-52 0 -94.5 20t-75.5 65t-40.5 118.5t10.5 181.5h16q-13 -53 -6 -106.5t27 -96t67.5 -69.5t114.5 -27t123.5 26.5t95 70.5t63 95.5t35.5 106.5h17q-20 -103 -59 -180.5t-88.5 -120.5t-101 -63.5t-104.5 -20.5z" />
    <glyph glyph-name="dotaccent" unicode="&#x2d9;" horiz-adv-x="1183" 
d="M403 1198q-32 0 -50.5 19t-18.5 49q0 41 30.5 72.5t71.5 31.5q32 0 51 -18.5t19 -48.5q0 -41 -31 -73t-72 -32z" />
    <glyph glyph-name="ring" unicode="&#x2da;" horiz-adv-x="1226" 
d="M489 1171q-61 0 -99 39t-38 97q0 75 62 134.5t139 59.5q58 0 96.5 -38.5t38.5 -94.5q0 -74 -62 -135.5t-137 -61.5zM498 1219q53 0 98 43.5t45 95.5q0 40 -28 68t-68 28q-56 0 -101 -42.5t-45 -96.5q0 -39 28.5 -67.5t70.5 -28.5z" />
    <glyph glyph-name="ogonek" unicode="&#x2db;" horiz-adv-x="1228" 
d="M135 -424q-48 0 -78 32.5t-30 84.5q0 24 6.5 48.5t19 47.5t26.5 44t33.5 42t35 37t35 32.5t30.5 25.5t25.5 20.5t15.5 11.5h22q-20 -15 -46 -40t-59.5 -63t-56 -85t-22.5 -88q0 -44 24 -70.5t64 -26.5q62 0 129 58h10q-94 -111 -184 -111z" />
    <glyph glyph-name="tilde" unicode="&#x2dc;" horiz-adv-x="1224" 
d="M299 1167h-16q27 92 80 143.5t116 51.5q31 0 56.5 -11t42.5 -27t33.5 -32.5t37 -27.5t45.5 -11q88 0 150 129h16q-26 -92 -79.5 -143t-118.5 -51q-38 0 -68.5 17t-47.5 37t-42.5 37t-54.5 17q-42 0 -81 -33t-69 -96z" />
    <glyph glyph-name="hungarumlaut" unicode="&#x2dd;" horiz-adv-x="1230" 
d="M352 1126h-26q98 143 174 233t116.5 121t65.5 31q27 0 27 -22q0 -72 -357 -363zM623 1126h-27q97 142 174 232.5t117.5 121.5t64.5 31q27 0 27 -22q0 -36 -91.5 -130t-264.5 -233z" />
    <glyph glyph-name="gravecomb" unicode="&#x300;" horiz-adv-x="0" 
d="M176 1126h-16q-357 291 -357 363q0 22 27 22q83 0 346 -385z" />
    <glyph glyph-name="acutecomb" unicode="&#x301;" horiz-adv-x="0" 
d="M-123 1126h-16q263 385 346 385q26 0 26 -22q0 -79 -356 -363z" />
    <glyph glyph-name="uni0302" unicode="&#x302;" horiz-adv-x="0" 
d="M-362 1085h-17q43 57 88 117.5t69.5 94t51 68t40.5 51t29 31t25 19t21 4.5t19.5 -4.5t17 -18.5t16 -31t19.5 -51t23.5 -68.5t32.5 -94t42 -117.5h-17q-10 15 -40.5 62t-41.5 64.5t-32 51.5t-34.5 59.5t-25.5 51.5q-23 -27 -49 -55.5t-59.5 -62t-54.5 -54t-64.5 -62
t-58.5 -55.5z" />
    <glyph glyph-name="tildecomb" unicode="&#x303;" horiz-adv-x="0" 
d="M-348 1167h-17q27 92 80.5 143.5t116.5 51.5q31 0 56.5 -11t42.5 -27t33.5 -32.5t37 -27.5t45.5 -11q89 0 150 129h16q-26 -92 -80 -143t-119 -51q-38 0 -68.5 17t-47.5 37t-42.5 37t-54.5 17q-87 0 -149 -129z" />
    <glyph glyph-name="uni0304" unicode="&#x304;" horiz-adv-x="0" 
d="M190 1233h-538l14 78h539z" />
    <glyph glyph-name="uni0306" unicode="&#x306;" horiz-adv-x="0" 
d="M-135 1126q-52 0 -94.5 20t-76 65t-41 118.5t10.5 181.5h17q-13 -53 -6 -106.5t26.5 -96t67 -69.5t114.5 -27t124 26.5t95.5 70.5t63 95.5t35.5 106.5h16q-20 -103 -59 -180.5t-88.5 -120.5t-100.5 -63.5t-104 -20.5z" />
    <glyph glyph-name="uni0307" unicode="&#x307;" horiz-adv-x="0" 
d="M61 1198q-32 0 -50.5 19t-18.5 49q0 41 30.5 72.5t71.5 31.5q32 0 51 -18.5t19 -48.5q0 -41 -31 -73t-72 -32z" />
    <glyph glyph-name="uni0308" unicode="&#x308;" horiz-adv-x="0" 
d="M-350 1309q-29 0 -46.5 16.5t-17.5 42.5q0 40 28.5 69t66.5 29q31 0 49 -17t18 -44q0 -40 -28.5 -68t-69.5 -28zM-84 1309q-29 0 -46 16t-17 43q0 40 28 69t66 29q31 0 49 -17t18 -44q0 -40 -28.5 -68t-69.5 -28z" />
    <glyph glyph-name="uni030A" unicode="&#x30a;" horiz-adv-x="0" 
d="M-6 1171q-61 0 -99 39t-38 97q0 75 61.5 134.5t138.5 59.5q58 0 97 -38.5t39 -94.5q0 -74 -62 -135.5t-137 -61.5zM2 1219q53 0 98 43.5t45 95.5q0 40 -28 68t-68 28q-56 0 -100.5 -42.5t-44.5 -96.5q0 -39 28 -67.5t70 -28.5z" />
    <glyph glyph-name="uni030B" unicode="&#x30b;" horiz-adv-x="0" 
d="M-414 1126h-26q98 143 174 233t116.5 121t65.5 31q27 0 27 -22q0 -72 -357 -363zM-143 1126h-27q97 142 174 232.5t117.5 121.5t64.5 31q27 0 27 -22q0 -36 -91.5 -130t-264.5 -233z" />
    <glyph glyph-name="uni030C" unicode="&#x30c;" horiz-adv-x="0" 
d="M-211 1120q-29 0 -50.5 41.5t-74.5 188.5q-34 95 -57 155h26q9 -13 35.5 -52.5t36 -54t29.5 -45.5t30.5 -49t23.5 -42t22 -45q28 34 66.5 74t67 68t78 76t72.5 70h27q-32 -43 -87 -116q-129 -173 -171.5 -221t-73.5 -48z" />
    <glyph glyph-name="uni0312" unicode="&#x312;" horiz-adv-x="0" 
d="M78 1200q-36 0 -55 27t-19 69q0 132 189 301h22q-69 -71 -100 -116.5t-31 -79.5q0 -20 9.5 -34t22 -23l25 -18t19 -24t2.5 -36q-6 -31 -29.5 -48.5t-54.5 -17.5z" />
    <glyph glyph-name="uni0326" unicode="&#x326;" horiz-adv-x="0" 
d="M-152 -102q36 0 55 -27.5t19 -69.5q0 -132 -188 -301h-23q131 134 131 197q0 24 -14.5 41t-31 25t-28 25.5t-6.5 43.5q7 31 31 48.5t55 17.5z" />
    <glyph glyph-name="uni0327" unicode="&#x327;" horiz-adv-x="0" 
d="M-328 -418q-56 0 -110 35l2 16q44 -20 94 -20q64 0 109 32.5t45 84.5q0 39 -33 65.5t-98 26.5l8 39l127 166h34l-110 -144q67 0 100 -30t33 -78q0 -67 -59 -130t-142 -63z" />
    <glyph glyph-name="uni0328" unicode="&#x328;" horiz-adv-x="0" 
d="M-322 -424q-48 0 -78 32.5t-30 84.5q0 24 6.5 48.5t19 47.5t26.5 44t33.5 42t35 37t35 32.5t30.5 25.5t25.5 20.5t15.5 11.5h23q-20 -15 -46.5 -40t-60 -63t-56 -85t-22.5 -88q0 -44 24.5 -70.5t64.5 -26.5q62 0 129 58h10q-94 -111 -185 -111z" />
    <glyph glyph-name="uni0335" unicode="&#x335;" horiz-adv-x="0" 
d="M4 549h-498l11 51h497z" />
    <glyph glyph-name="uni0336" unicode="&#x336;" horiz-adv-x="0" 
d="M2 537h-1235l14 77h1235z" />
    <glyph glyph-name="uni0337" unicode="&#x337;" horiz-adv-x="0" 
d="M61 739l-421 -200l14 77l424 203z" />
    <glyph glyph-name="uni0338" unicode="&#x338;" horiz-adv-x="0" 
d="M-1114 -168h-74l1360 1624h76z" />
    <glyph glyph-name="uni0394" unicode="&#x394;" horiz-adv-x="1069" 
d="M977 0h-1065l743 1317h62zM668 1212l-648 -1140h881z" />
    <glyph glyph-name="uni03A9" unicode="&#x3a9;" horiz-adv-x="1460" 
d="M334 0h-287l4 20l344 84q-127 63 -200.5 198.5t-73.5 293.5q0 157 66.5 297t174.5 236t247 152t282 56q226 0 374 -147t148 -383q0 -222 -144 -416.5t-362 -286.5l312 -84l-5 -20h-286l-86 119q136 43 247 145t175.5 245.5t64.5 297.5q0 213 -124 349t-322 136
q-131 0 -255 -55t-218 -148.5t-150.5 -227.5t-56.5 -283q0 -164 70 -290t192 -169z" />
    <glyph glyph-name="uni03BC" unicode="&#x3bc;" horiz-adv-x="929" 
d="M45 -389h-82l275 1413h79l-131 -680q-59 -303 136 -303q102 0 191.5 73.5t152.5 182.5l141 727h82l-199 -1024h-82l41 215q-23 -34 -44 -61.5t-56 -62.5t-70 -58t-83.5 -39.5t-100.5 -16.5q-117 0 -162 91z" />
    <glyph glyph-name="pi" unicode="&#x3c0;" horiz-adv-x="995" 
d="M295 0h-348l4 20l143 54l185 950h636l-186 -950l123 -54l-4 -20h-348l4 20l143 54l172 878h-471l-172 -878l123 -54z" />
    <glyph glyph-name="uni0400" unicode="&#x400;" horiz-adv-x="1026" 
d="M809 1659h-16q-357 291 -357 362q0 23 27 23q83 0 346 -385zM899 0h-809l303 1556h789l-13 -61h-696l-123 -627h451l-10 -61h-451l-145 -746h716z" />
    <glyph glyph-name="uni0401" unicode="&#x401;" horiz-adv-x="1026" 
d="M635 1739q-29 0 -46.5 16.5t-17.5 42.5q0 40 28.5 69t66.5 29q31 0 49 -17t18 -44q0 -40 -28.5 -68t-69.5 -28zM901 1739q-29 0 -46 16t-17 43q0 40 28 69t66 29q31 0 49 -17t18 -44q0 -40 -28.5 -68t-69.5 -28zM899 0h-809l303 1556h789l-13 -61h-696l-123 -627h451
l-10 -61h-451l-145 -746h716z" />
    <glyph glyph-name="uni0402" unicode="&#x402;" horiz-adv-x="1517" 
d="M1085 932q421 0 332 -498l-4 -22q-45 -254 -182 -381t-359 -160l7 31q175 30 288 157.5t154 352.5l4 22q37 208 -32.5 322t-239.5 114q-96 0 -196 -25.5t-149.5 -47.5t-86.5 -43l-148 -754h-92l291 1495h-461l12 61h1096l-12 -61h-543l-135 -700q27 17 63.5 35.5t98 44
t139.5 41.5t155 16z" />
    <glyph glyph-name="uni0403" unicode="&#x403;" horiz-adv-x="1011" 
d="M797 1659h-17q263 385 346 385q27 0 27 -23q0 -78 -356 -362zM473 1495l-291 -1495h-92l303 1556h789l-13 -61h-696z" />
    <glyph glyph-name="uni0404" unicode="&#x404;" horiz-adv-x="1564" 
d="M1544 616h31q-66 -139 -156.5 -255t-200 -202t-241 -134t-270.5 -48q-268 0 -429 166.5t-161 434.5q0 127 36 253.5t99 235t152.5 203t192.5 161t221.5 104.5t238.5 38q111 0 219 -34t168 -70t92 -68l-39 -31q-88 64 -209.5 108t-238.5 44q-85 0 -177 -23t-191 -75.5
t-183 -128t-152.5 -191t-99.5 -254.5h760l-13 -62h-760q-17 -137 -7 -244.5t49 -189t92.5 -139t123.5 -93.5t142 -52.5t149 -16.5q229 0 425.5 145.5t336.5 417.5z" />
    <glyph glyph-name="uni0405" unicode="&#x405;" horiz-adv-x="1114" 
d="M410 -23q-88 0 -163.5 22.5t-128.5 60.5t-89 80.5t-58 90.5l45 27q57 -112 164.5 -170.5t239.5 -58.5q148 0 272.5 62t196.5 168.5t72 232.5q0 99 -65.5 155t-199.5 90q-108 28 -155.5 43t-96.5 39q-204 101 -204 279q0 92 37 177.5t102 151.5t163 106t212 40
q239 0 393 -166l-41 -33q-50 65 -159.5 106.5t-207.5 41.5q-114 0 -213.5 -48t-159 -130.5t-59.5 -178.5q0 -74 48.5 -126t148.5 -93q49 -20 213 -65q317 -84 317 -338q0 -115 -49 -220t-132.5 -180.5t-199.5 -120.5t-243 -45z" />
    <glyph glyph-name="uni0406" unicode="&#x406;" horiz-adv-x="473" 
d="M182 0h-92l303 1556h92z" />
    <glyph glyph-name="uni0407" unicode="&#x407;" horiz-adv-x="473" 
d="M291 1739q-29 0 -46.5 16.5t-17.5 42.5q0 40 28.5 69t66.5 29q31 0 49 -17t18 -44q0 -40 -28.5 -68t-69.5 -28zM557 1739q-29 0 -46 16t-17 43q0 40 28 69t66 29q31 0 49 -17t18 -44q0 -40 -28.5 -68t-69.5 -28zM182 0h-92l303 1556h92z" />
    <glyph glyph-name="uni0408" unicode="&#x408;" horiz-adv-x="854" 
d="M281 -23q-194 0 -320 197l27 10q66 -70 121.5 -100.5t136.5 -30.5q41 0 76.5 8.5t62.5 21t50.5 35.5t39.5 42.5t31 53t23.5 55.5t18 61.5t13.5 59t12 59.5l215 1107h93l-222 -1142q-17 -90 -45.5 -164t-72.5 -138t-110.5 -99.5t-149.5 -35.5z" />
    <glyph glyph-name="uni0409" unicode="&#x409;" horiz-adv-x="1892" 
d="M-72 82l-20 -102q57 0 109.5 31t101 89.5t97.5 158t95 218.5t98.5 291t103.5 356.5t114 431.5h-70q-102 -402 -184 -675.5t-158.5 -455t-145.5 -262.5t-141 -81zM797 0h458q156 0 285.5 61.5t208 178.5t78.5 266q0 94 -37 167.5t-101.5 118t-146 67t-176.5 22.5h-305
l131 675h-92zM1053 840h295q181 0 278.5 -83t97.5 -243q0 -99 -30 -184t-87.5 -150t-148.5 -102t-205 -37h-356z" />
    <glyph glyph-name="uni040A" unicode="&#x40a;" horiz-adv-x="2013" 
d="M1182 881h305q95 0 176.5 -22.5t146 -67t101.5 -118t37 -167.5q0 -149 -78.5 -266t-208 -178.5t-285.5 -61.5h-458l159 819h-735l-160 -819h-92l303 1556h92l-131 -675h736l131 675h92zM1018 41h356q114 0 205 37t148.5 102t87.5 150t30 184q0 149 -99 227t-282 78h-295z
" />
    <glyph glyph-name="uni040B" unicode="&#x40b;" horiz-adv-x="1503" 
d="M1122 932q195 0 257 -85t24 -280l-111 -567h-92l111 567q31 159 -21.5 231t-199.5 72q-97 0 -205.5 -25.5t-167 -49t-96.5 -43.5l-148 -754h-92l291 1497h-461l12 61h1096l-12 -61h-543l-137 -700q33 17 72 34.5t108.5 44t153 42.5t161.5 16z" />
    <glyph glyph-name="uni040C" unicode="&#x40c;" horiz-adv-x="946" 
d="M772 1659h-16q263 385 346 385q26 0 26 -23q0 -78 -356 -362zM182 0h-92l303 1556h92l-141 -725l717 725h59l-735 -749l492 -807h-111l-442 725z" />
    <glyph glyph-name="uni040D" unicode="&#x40d;" horiz-adv-x="1384" 
d="M942 1659h-16q-357 291 -357 362q0 23 27 23q83 0 346 -385zM209 133l1096 1423h92l-303 -1556h-93l277 1423l-1096 -1423h-92l303 1556h92z" />
    <glyph glyph-name="uni040E" unicode="&#x40e;" horiz-adv-x="1136" 
d="M819 1659q-158 0 -229.5 109t-28.5 274h96q-23 -71 -25.5 -132t15 -108.5t62 -74.5t112.5 -27q127 0 192 79.5t103 262.5h92q-73 -383 -389 -383zM600 453l672 1103h71l-733 -1194q-133 -216 -229 -299t-234 -83l21 102q101 0 184 56.5t178 201.5l-301 1216h103z" />
    <glyph glyph-name="uni040F" unicode="&#x40f;" horiz-adv-x="1384" 
d="M1014 61l291 1495h92l-303 -1556h-465l-58 -297h-71l57 297h-467l303 1556h92l-290 -1495h819z" />
    <glyph glyph-name="uni0410" unicode="&#x410;" horiz-adv-x="1368" 
d="M-31 0h-71l950 1573h61l381 -1573h-112l-164 702h-627zM836 1458l-412 -694h575z" />
    <glyph glyph-name="uni0411" unicode="&#x411;" horiz-adv-x="1189" 
d="M1182 1516h-705l-125 -648h269q151 0 260.5 -38.5t173 -124t63.5 -213.5q0 -223 -151.5 -357.5t-399.5 -134.5h-477l303 1556h797zM344 827l-154 -786h375q115 0 203.5 35t141.5 97.5t79.5 143t26.5 175.5q0 171 -99 253t-311 82h-262z" />
    <glyph glyph-name="uni0412" unicode="&#x412;" horiz-adv-x="1277" 
d="M614 0h-524l303 1556h408q218 0 336 -87.5t118 -243.5q0 -83 -34 -158t-90.5 -129t-125 -92.5t-143.5 -59.5q148 -27 235 -106.5t87 -216.5q0 -67 -21.5 -132t-67 -125.5t-111 -106t-161.5 -72.5t-209 -27zM477 1516l-139 -717h324q129 0 240.5 51.5t183 155t71.5 237.5
q0 145 -90 209t-283 64h-307zM330 758l-142 -725h422q85 0 155.5 18.5t117.5 48.5t83.5 71t56.5 81t33 84.5t17 76.5t4 60q0 136 -98 210.5t-264 74.5h-385z" />
    <glyph glyph-name="uni0413" unicode="&#x413;" horiz-adv-x="1011" 
d="M473 1495l-291 -1495h-92l303 1556h789l-13 -61h-696z" />
    <glyph glyph-name="uni0414" unicode="&#x414;" horiz-adv-x="1415" 
d="M1253 1556h93l-291 -1495h190l-61 -317h-72l49 256h-1147l-49 -256h-71l61 317h119q171 280 284 622t234 873h74q-126 -543 -239.5 -887t-270.5 -608h807z" />
    <glyph glyph-name="uni0415" unicode="&#x415;" horiz-adv-x="1026" 
d="M899 0h-809l303 1556h789l-13 -61h-696l-123 -627h451l-10 -61h-451l-145 -746h716z" />
    <glyph glyph-name="uni0416" unicode="&#x416;" horiz-adv-x="1439" 
d="M1556 1556h68l-733 -753l471 -803h-105l-440 750l-145 -750h-92l145 750l-731 -750h-117l791 809l-435 747h68l436 -749l146 749h92l-146 -749z" />
    <glyph glyph-name="uni0417" unicode="&#x417;" horiz-adv-x="1148" 
d="M733 1522q-237 0 -436 -148l-27 33q215 166 484 166q186 0 280 -79.5t94 -219.5q0 -75 -22.5 -142t-60 -117t-89 -90.5t-106.5 -66.5t-115 -43q144 -26 232 -112t88 -226q0 -99 -38.5 -187.5t-113 -159t-196 -112t-275.5 -41.5q-97 0 -180 22t-141.5 60t-98.5 80.5
t-67 91.5l45 27q65 -111 183 -170t269 -59q106 0 191.5 24t143.5 66t97 100.5t56.5 125.5t17.5 144q0 148 -96.5 219.5t-265.5 71.5h-180l8 41h118q95 0 183.5 31t158.5 88t112 145.5t42 194.5q0 242 -295 242z" />
    <glyph glyph-name="uni0418" unicode="&#x418;" horiz-adv-x="1384" 
d="M209 133l1096 1423h92l-303 -1556h-93l277 1423l-1096 -1423h-92l303 1556h92z" />
    <glyph glyph-name="uni0419" unicode="&#x419;" horiz-adv-x="1384" 
d="M883 1659q-158 0 -229.5 109t-28.5 274h96q-23 -71 -25.5 -132t15 -108.5t62 -74.5t112.5 -27q127 0 192 79.5t103 262.5h92q-73 -383 -389 -383zM209 133l1096 1423h92l-303 -1556h-93l277 1423l-1096 -1423h-92l303 1556h92z" />
    <glyph glyph-name="uni041A" unicode="&#x41a;" horiz-adv-x="946" 
d="M182 0h-92l303 1556h92l-141 -725l717 725h59l-735 -749l492 -807h-111l-442 725z" />
    <glyph glyph-name="uni041B" unicode="&#x41b;" horiz-adv-x="1216" 
d="M1229 1556l-303 -1556h-92l290 1495h-514q-60 -236 -109.5 -414.5t-100.5 -342.5t-96 -279.5t-93 -211t-95.5 -151.5t-99 -86t-108.5 -30l20 102q72 0 141 81t145.5 262.5t158.5 455t184 675.5h672z" />
    <glyph glyph-name="uni041C" unicode="&#x41c;" horiz-adv-x="1669" 
d="M184 0h-94l303 1556h94l293 -1441l832 1441h69l-303 -1556h-92l256 1315l-774 -1315h-61l-273 1286z" />
    <glyph glyph-name="uni041D" unicode="&#x41d;" horiz-adv-x="1404" 
d="M1188 850l137 706h92l-303 -1556h-92l154 788h-840l-154 -788h-92l303 1556h92l-137 -706h840z" />
    <glyph glyph-name="uni041E" unicode="&#x41e;" horiz-adv-x="1662" 
d="M700 -23q-170 0 -301 82.5t-201.5 230t-70.5 335.5q0 136 38.5 264t105 230.5t156.5 188.5t192 143.5t212 89.5t216 32q173 0 308.5 -82.5t210 -229t74.5 -331.5q0 -132 -40 -258.5t-108 -229.5t-160.5 -191t-196.5 -147.5t-216 -93t-219 -33.5zM760 53q62 0 131 15
t144 48.5t145.5 81t134 118t110.5 154.5t75 195.5t28 235.5q0 128 -30 231t-80 170t-119.5 112t-145 64t-158.5 19q-162 0 -305.5 -70t-243 -186.5t-157.5 -271.5t-58 -322q0 -123 31 -224t83 -168.5t121 -114t143 -67t151 -20.5z" />
    <glyph glyph-name="uni041F" unicode="&#x41f;" horiz-adv-x="1384" 
d="M1397 1556l-303 -1556h-93l291 1495h-819l-291 -1495h-92l303 1556h1004z" />
    <glyph glyph-name="uni0420" unicode="&#x420;" horiz-adv-x="1173" 
d="M182 0h-92l303 1556h438q117 0 211 -32t154.5 -104t60.5 -175q0 -133 -77.5 -245t-211.5 -177t-292 -65h-346zM477 1516l-139 -717h336q207 0 344 129t137 325q0 129 -90 196t-252 67h-336z" />
    <glyph glyph-name="uni0421" unicode="&#x421;" horiz-adv-x="1564" 
d="M707 -23q-268 0 -429 166.5t-161 434.5q0 127 36 253.5t99 235t152.5 203t192.5 161t221.5 104.5t238.5 38q111 0 219 -34t168 -70t92 -68l-39 -31q-88 64 -209.5 108t-238.5 44q-86 0 -180 -23.5t-195 -78t-186 -133t-152.5 -199t-95.5 -265.5q-22 -143 -15 -256
t45 -198.5t91.5 -145.5t124.5 -98t144.5 -55t151.5 -17q229 0 425.5 145.5t336.5 417.5h31q-66 -139 -156.5 -255t-200 -202t-241 -134t-270.5 -48z" />
    <glyph glyph-name="uni0422" unicode="&#x422;" horiz-adv-x="1226" 
d="M555 0h-92l291 1495h-543l12 61h1178l-12 -61h-543z" />
    <glyph glyph-name="uni0423" unicode="&#x423;" horiz-adv-x="1136" 
d="M600 453l672 1103h71l-733 -1194q-133 -216 -229 -299t-234 -83l21 102q101 0 184 56.5t178 201.5l-301 1216h103z" />
    <glyph glyph-name="uni0424" unicode="&#x424;" horiz-adv-x="1699" 
d="M1681 930q0 -174 -64 -313t-179 -230.5t-269 -143.5t-340 -61l-38 -202h-93l39 202q-131 1 -240 30.5t-192.5 87.5t-130.5 152t-47 216q0 173 66.5 311.5t184 228.5t269.5 140.5t330 60.5l33 168h92l-33 -168q131 -1 240.5 -30t193.5 -86t131 -150t47 -213zM754 260
l209 1073q-122 -1 -224.5 -18.5t-198 -62t-162 -113t-107 -177t-42.5 -249.5q-1 -95 30 -171t81.5 -125t121.5 -83.5t142 -51t150 -22.5zM1055 1331l-209 -1073q82 0 155.5 8.5t148.5 29t137 52t117 80.5t92.5 111.5t59 148.5t21.5 189q0 95 -31 171t-81 125t-120 83.5
t-140 51.5t-150 23z" />
    <glyph glyph-name="uni0425" unicode="&#x425;" horiz-adv-x="1085" 
d="M-25 0h-59l633 778l-342 778h110l306 -700l559 700h59l-594 -749l354 -807h-110l-322 729z" />
    <glyph glyph-name="uni0426" unicode="&#x426;" horiz-adv-x="1466" 
d="M1305 1556h92l-291 -1495h190l-69 -358h-72l57 297h-1122l303 1556h92l-290 -1495h819z" />
    <glyph glyph-name="uni0427" unicode="&#x427;" horiz-adv-x="1236" 
d="M1012 807l145 749h92l-303 -1556h-92l150 766q-235 -100 -449 -100q-221 0 -304 86.5t-46 277.5l102 526h92l-102 -526q-31 -159 33.5 -231t236.5 -72q210 0 445 80z" />
    <glyph glyph-name="uni0428" unicode="&#x428;" horiz-adv-x="2050" 
d="M1679 61l291 1495h92l-303 -1556h-1669l303 1556h92l-290 -1495h696l291 1495h92l-291 -1495h696z" />
    <glyph glyph-name="uni0429" unicode="&#x429;" horiz-adv-x="2131" 
d="M1970 1556h92l-290 -1495h190l-61 -317h-72l49 256h-1788l303 1556h92l-290 -1495h696l291 1495h92l-291 -1495h696z" />
    <glyph glyph-name="uni042A" unicode="&#x42a;" horiz-adv-x="1437" 
d="M606 881h305q95 0 176.5 -22.5t146 -67t101.5 -118t37 -167.5q0 -149 -78 -266t-207.5 -178.5t-285.5 -61.5h-459l291 1495h-418l12 61h510zM442 41h357q114 0 205 37t148.5 102t87.5 150t30 184q0 160 -97.5 243t-279.5 83h-295z" />
    <glyph glyph-name="uni042B" unicode="&#x42b;" horiz-adv-x="1579" 
d="M90 0h459q156 0 285.5 61.5t207.5 178.5t78 266q0 94 -37 167.5t-101.5 118t-146 67t-176.5 22.5h-305l131 675h-92zM1288 0h-92l303 1556h92zM346 840h295q182 0 279.5 -83t97.5 -243q0 -99 -30 -184t-87.5 -150t-148.5 -102t-205 -37h-357z" />
    <glyph glyph-name="uni042C" unicode="&#x42c;" horiz-adv-x="1185" 
d="M90 0h459q156 0 285.5 61.5t207.5 178.5t78 266q0 94 -37 167.5t-101.5 118t-146 67t-176.5 22.5h-305l131 675h-92zM346 840h295q182 0 279.5 -83t97.5 -243q0 -99 -30 -184t-87.5 -150t-148.5 -102t-205 -37h-357z" />
    <glyph glyph-name="uni042D" unicode="&#x42d;" horiz-adv-x="1509" 
d="M893 1573q173 0 309 -82.5t210.5 -229t74.5 -331.5q0 -132 -40 -258.5t-108 -229.5t-160.5 -191t-196.5 -147.5t-216 -93t-219 -33.5q-521 0 -533 572h31q13 -266 142 -397.5t360 -131.5q73 0 155 20t169.5 58.5t169.5 103t150 146.5t115.5 196t61.5 244h-817l12 62h809
q2 16 2 51q0 134 -30 241t-80 177t-119.5 116.5t-144 66.5t-158.5 20q-129 0 -237 -33t-222 -115l-27 33q120 88 246.5 127t290.5 39z" />
    <glyph glyph-name="uni042E" unicode="&#x42e;" horiz-adv-x="2140" 
d="M1544 1573q167 0 298.5 -82.5t203.5 -229t72 -331.5q0 -132 -39 -258.5t-106 -229.5t-157.5 -191t-192 -147.5t-211.5 -93t-214 -33.5q-164 0 -290.5 82.5t-194.5 230t-68 335.5q0 89 14 163h-323l-154 -788h-92l303 1556h92l-137 -706h324q32 128 98 242.5t153.5 201
t190.5 150t213.5 96.5t216.5 33zM1257 53q86 0 182.5 29.5t198 97t182.5 163t133 241t52 317.5q0 128 -28.5 231t-77 170t-115 112t-139 64t-152.5 19q-157 0 -296.5 -70t-236.5 -186.5t-153.5 -271.5t-56.5 -322q0 -123 30 -224t79.5 -168.5t115.5 -114t137 -67t145 -20.5z
" />
    <glyph glyph-name="uni042F" unicode="&#x42f;" horiz-adv-x="1212" 
d="M799 1556h426l-303 -1556h-93l148 758h-266l-639 -758h-105l641 758q-110 4 -199.5 44.5t-145.5 121.5t-56 190q0 89 34.5 163.5t92.5 125t134.5 86t160 51.5t170.5 16zM649 799h336l139 717h-323q-219 0 -355.5 -107t-136.5 -295q0 -148 89.5 -231.5t250.5 -83.5z" />
    <glyph glyph-name="uni0430" unicode="&#x430;" horiz-adv-x="923" 
d="M272 -25q-100 0 -162.5 82t-62.5 238q0 147 57.5 281t157 232.5t240 157t299.5 58.5l-6 -31q-140 0 -265 -52.5t-213.5 -141t-140 -209.5t-51.5 -254q0 -139 51.5 -218t136.5 -79q89 0 183.5 89.5t185.5 242.5l119 653h82l-197 -1024h-82l66 301q-204 -326 -398 -326z
" />
    <glyph glyph-name="uni0431" unicode="&#x431;" horiz-adv-x="1099" 
d="M967 1473q-201 -37 -307.5 -86t-182.5 -130q-167 -170 -237 -456q76 117 195 185.5t245 68.5q177 0 266.5 -108t89.5 -283q0 -172 -72.5 -330t-200 -257.5t-274.5 -99.5q-195 0 -292 114.5t-97 322.5q0 165 37.5 319t114 291.5t186 246.5t261 187t331.5 111q92 17 121 33
l-16 -86q-30 -19 -168 -43zM645 993q-129 0 -245 -74t-179 -196q-26 -149 -26 -301q0 -82 16 -148.5t50 -120t94.5 -83t142.5 -29.5q211 0 334.5 166t123.5 444q0 154 -82.5 248t-228.5 94z" />
    <glyph glyph-name="uni0432" unicode="&#x432;" horiz-adv-x="911" 
d="M588 537q209 -42 209 -218q0 -138 -110.5 -228.5t-307.5 -90.5h-340l201 1024h288q86 0 146.5 -16.5t91.5 -47t44 -64.5t13 -77q0 -88 -60 -167t-175 -115zM514 973h-205l-80 -416h252q123 0 191.5 69.5t68.5 172.5q0 92 -54.5 133t-172.5 41zM131 51h254q162 0 244 71.5
t82 194.5q0 88 -53 138.5t-162 50.5h-277z" />
    <glyph glyph-name="uni0433" unicode="&#x433;" horiz-adv-x="733" 
d="M801 1024l-10 -51h-480l-190 -973h-82l201 1024h561z" />
    <glyph glyph-name="uni0434" unicode="&#x434;" horiz-adv-x="1013" 
d="M924 1024l-189 -973h162l-59 -307h-62l51 256h-850l-51 -256h-61l59 307h113q92 142 173.5 384t168.5 589h545zM104 51h549l178 922h-403q-98 -362 -171 -576.5t-153 -345.5z" />
    <glyph glyph-name="uni0435" unicode="&#x435;" horiz-adv-x="1003" 
d="M461 41q145 0 260 77.5t215 241.5h10q-82 -164 -224.5 -273.5t-307.5 -109.5q-74 0 -134 25t-99 65.5t-65 96t-37 114t-11 121.5q0 171 80.5 322t219 242.5t296.5 91.5q150 0 227.5 -85t48.5 -233q-16 -83 -62 -161t-86.5 -119t-76.5 -66l-539 238q-26 -89 -26 -183
q0 -185 88.5 -295t222.5 -110zM637 991q-152 0 -278.5 -95t-178.5 -255q172 -64 273.5 -92.5t177.5 -28.5q113 0 179 58t81 143q14 70 -1.5 123.5t-54 84.5t-89 46.5t-109.5 15.5z" />
    <glyph glyph-name="uni0436" unicode="&#x436;" horiz-adv-x="1314" 
d="M127 1024h72l362 -500l-559 -524h-115l588 547zM514 0l201 1024h82l-201 -1024h-82zM1313 1024h73l-542 -477l373 -547h-109l-354 524z" />
    <glyph glyph-name="uni0437" unicode="&#x437;" horiz-adv-x="835" 
d="M291 31q161 0 249.5 74.5t88.5 209.5q0 191 -254 191h-66l10 51h66q144 0 221.5 76.5t77.5 193.5q0 90 -49.5 134.5t-155.5 44.5q-90 0 -160.5 -27.5t-146.5 -87.5l-22 18q155 146 339 146q136 0 206.5 -55t70.5 -154q0 -112 -69 -193.5t-195 -113.5q103 -15 158 -72
t55 -152q0 -158 -112 -248t-312 -90q-136 0 -217.5 49t-110.5 117l27 19q28 -56 102.5 -93.5t198.5 -37.5z" />
    <glyph glyph-name="uni0438" unicode="&#x438;" horiz-adv-x="962" 
d="M842 1024h82l-201 -1024h-82l178 913l-698 -913h-82l201 1024h82l-179 -913z" />
    <glyph glyph-name="uni0439" unicode="&#x439;" horiz-adv-x="962" 
d="M571 1182q-146 0 -198.5 90.5t-24.5 249.5h86q-15 -87 -15.5 -153.5t39 -106t122.5 -39.5q62 0 108.5 22t76 64.5t47 93.5t28.5 119h86q-29 -157 -118.5 -248.5t-236.5 -91.5zM143 111l699 913h82l-201 -1024h-82l178 913l-698 -913h-82l201 1024h82z" />
    <glyph glyph-name="uni043A" unicode="&#x43a;" horiz-adv-x="849" 
d="M39 0l201 1024h82l-201 -1024h-82zM846 1024h69l-563 -477l422 -547h-110l-406 524z" />
    <glyph glyph-name="uni043B" unicode="&#x43b;" horiz-adv-x="897" 
d="M858 1024l-201 -1024h-82l191 973h-375q-135 -525 -242.5 -759t-236.5 -234l18 92q91 0 189.5 224t228.5 728h510z" />
    <glyph glyph-name="uni043C" unicode="&#x43c;" horiz-adv-x="1214" 
d="M537 119l573 905h66l-201 -1024h-82l166 848l-537 -848h-49l-205 840l-164 -840h-65l201 1024h67z" />
    <glyph glyph-name="uni043D" unicode="&#x43d;" horiz-adv-x="962" 
d="M750 549l92 475h82l-201 -1024h-82l98 498h-520l-98 -498h-82l201 1024h82l-93 -475h521z" />
    <glyph glyph-name="uni043E" unicode="&#x43e;" horiz-adv-x="1079" 
d="M440 -23q-72 0 -131 21t-98.5 58t-68.5 81.5t-44.5 96.5t-22.5 98t-7 90q0 112 46 225t123 203.5t188 147.5t232 57q74 0 133 -21.5t96.5 -59t64 -81t39.5 -94.5t18.5 -92.5t5.5 -81.5q0 -92 -28 -186.5t-80.5 -176.5t-122 -146t-159 -101.5t-184.5 -37.5zM479 41
q86 0 167.5 43.5t143 117t99 178t37.5 220.5q0 59 -9.5 113.5t-32.5 106t-56.5 89t-85.5 60t-117 22.5q-92 0 -179 -43t-152 -114.5t-104.5 -171.5t-39.5 -207q0 -108 36.5 -200.5t113 -153t179.5 -60.5z" />
    <glyph glyph-name="uni043F" unicode="&#x43f;" horiz-adv-x="942" 
d="M903 1024l-201 -1024h-81l190 973h-500l-190 -973h-82l201 1024h663z" />
    <glyph glyph-name="uni0440" unicode="&#x440;" horiz-adv-x="976" 
d="M41 -410h-82l277 1422q166 43 266 43q94 0 167 -24t117 -62.5t72 -93t38.5 -109t10.5 -117.5q0 -183 -68 -337.5t-185 -244.5t-255 -90q-54 0 -96 13t-71.5 40t-46.5 49.5t-38 59.5zM397 41q107 0 206 84t159.5 223t60.5 289q0 80 -21.5 146t-64 117t-114 79.5
t-164.5 28.5q-62 0 -146 -19l-157 -807q40 -60 102 -100.5t139 -40.5z" />
    <glyph glyph-name="uni0441" unicode="&#x441;" horiz-adv-x="989" 
d="M426 -23q-117 0 -200.5 55.5t-123 145.5t-39.5 203q0 129 49 253t128.5 216t187 148.5t219.5 56.5q117 0 201.5 -53t114.5 -107l-29 -25q-53 53 -134 94.5t-165 41.5q-103 0 -194 -46t-156 -124.5t-102.5 -186.5t-37.5 -229q0 -171 88 -275t224 -104q140 0 245 75
t209 244h31q-82 -168 -215 -275.5t-301 -107.5z" />
    <glyph glyph-name="uni0442" unicode="&#x442;" horiz-adv-x="845" 
d="M920 1024l-11 -51h-358l-191 -973h-81l190 973h-358l10 51h799z" />
    <glyph glyph-name="uni0443" unicode="&#x443;" horiz-adv-x="827" 
d="M-49 -422q-63 0 -105 41t-73 115h30q55 -119 136 -119q77 0 172 97.5t180 258.5l-170 1053h88l151 -952l318 583q92 177 92 252q0 76 -78 76q-70 0 -174 -94v41q101 106 201 106q110 0 110 -106t-98 -283l-377 -676q-219 -393 -403 -393z" />
    <glyph glyph-name="uni0444" unicode="&#x444;" horiz-adv-x="1286" 
d="M1223 645q0 -88 -23 -176t-74 -174t-124 -153.5t-182.5 -112.5t-239.5 -52l-76 -387h-82l76 387q-210 7 -323.5 119.5t-113.5 290.5q0 80 23 165t74 172t124 157t183.5 118t241.5 56l112 583h82l-113 -583q210 -7 322.5 -119.5t112.5 -290.5zM143 422q0 -160 97 -264.5
t270 -116.5l184 950q-253 -12 -402 -172t-149 -397zM776 991l-184 -950q256 12 403.5 162t147.5 397q0 165 -96.5 271.5t-270.5 119.5z" />
    <glyph glyph-name="uni0445" unicode="&#x445;" horiz-adv-x="872" 
d="M707 0h-89l-180 471q-61 -99 -112 -172.5t-112.5 -148t-119 -114.5t-106.5 -40q-68 0 -68 67q0 92 78 173h31q-31 -38 -50.5 -81.5t-19.5 -72.5q0 -39 33 -39q65 0 178 134.5t246 350.5l-185 496h88l156 -410q17 27 53.5 88t59 97.5t59.5 87t66.5 79t67 49.5t73.5 21
q72 0 72 -69q0 -74 -84 -183h-29q32 44 52 92t20 80q0 39 -41 39q-47 0 -102.5 -69.5t-178.5 -260.5q-43 -67 -67 -104z" />
    <glyph glyph-name="uni0446" unicode="&#x446;" horiz-adv-x="991" 
d="M819 1024h82l-188 -973h161l-59 -307h-61l51 256h-766l199 1024h81l-188 -973h500z" />
    <glyph glyph-name="uni0447" unicode="&#x447;" horiz-adv-x="872" 
d="M657 539l95 485h82l-201 -1024h-82l96 494q-155 -66 -305 -66q-112 0 -168 30t-65 90t8 150l63 326h82l-63 -326q-24 -117 9 -168t144 -51q162 0 305 60z" />
    <glyph glyph-name="uni0448" unicode="&#x448;" horiz-adv-x="1466" 
d="M1155 51l191 973h81l-200 -1024h-1188l201 1024h82l-191 -973h471l191 973h81l-190 -973h471z" />
    <glyph glyph-name="uni0449" unicode="&#x449;" horiz-adv-x="1517" 
d="M1346 1024h81l-190 -973h166l-62 -307h-61l51 256h-1292l201 1024h82l-191 -973h471l191 973h81l-190 -973h471z" />
    <glyph glyph-name="uni044A" unicode="&#x44a;" horiz-adv-x="948" 
d="M367 604h178q141 0 228 -63.5t87 -186.5q0 -109 -55.5 -191.5t-144 -122.5t-193.5 -40h-301l190 973h-247l10 51h330zM258 51h213q145 0 223 80t78 221q0 201 -244 201h-172z" />
    <glyph glyph-name="uni044B" unicode="&#x44b;" horiz-adv-x="1134" 
d="M240 604h178q141 0 228 -63.5t87 -186.5q0 -109 -55.5 -191.5t-144 -122.5t-193.5 -40h-301l201 1024h82zM813 0l201 1024h82l-201 -1024h-82zM131 51h213q145 0 223 80t78 221q0 201 -244 201h-172z" />
    <glyph glyph-name="uni044C" unicode="&#x44c;" horiz-adv-x="821" 
d="M240 604h178q141 0 228 -63.5t87 -186.5q0 -109 -55.5 -191.5t-144 -122.5t-193.5 -40h-301l201 1024h82zM131 51h213q145 0 223 80t78 221q0 201 -244 201h-172z" />
    <glyph glyph-name="uni044D" unicode="&#x44d;" horiz-adv-x="915" 
d="M492 1055q87 0 154 -32t104 -78t60.5 -108t30.5 -112t7 -100q0 -117 -42 -232.5t-114.5 -208t-182 -150t-233.5 -57.5q-132 0 -209.5 49t-107.5 117l27 19q28 -56 102.5 -93.5t198.5 -37.5q178 0 308 131t159 336h-473l10 51h467q2 16 2 51q0 62 -9.5 118.5t-31.5 109.5
t-55 92t-83.5 62.5t-113.5 23.5q-85 0 -151 -27.5t-142 -87.5l-22 18q155 146 340 146z" />
    <glyph glyph-name="uni044E" unicode="&#x44e;" horiz-adv-x="1400" 
d="M997 1055q69 0 125 -21.5t91 -59t60 -81t37.5 -94.5t17.5 -92.5t5 -81.5q0 -116 -43 -232.5t-115.5 -208.5t-176.5 -149.5t-218 -57.5q-81 0 -145 31t-101.5 78t-62.5 109t-34 117.5t-9 109.5q0 39 6 76h-217l-96 -498h-82l199 1024h81l-92 -475h215q29 132 106.5 246
t196.5 187t252 73zM819 41q110 0 207.5 72.5t158 202.5t60.5 284q0 59 -9 113.5t-30 106t-52 89t-79.5 60t-109.5 22.5q-117 0 -222 -72t-169 -196.5t-64 -267.5q0 -107 34.5 -200t106.5 -153.5t168 -60.5z" />
    <glyph glyph-name="uni044F" unicode="&#x44f;" horiz-adv-x="890" 
d="M537 1024h315l-201 -1024h-82l90 461h-229l-401 -461h-99l418 475q-94 23 -150.5 84.5t-56.5 161.5q0 133 115 218t281 85zM463 512h207l90 461h-228q-301 0 -301 -252q0 -100 61 -154.5t171 -54.5z" />
    <glyph glyph-name="uni0450" unicode="&#x450;" horiz-adv-x="1003" 
d="M676 1126h-17q-356 290 -356 363q0 22 27 22q83 0 346 -385zM461 41q145 0 260 77.5t215 241.5h10q-82 -164 -224.5 -273.5t-307.5 -109.5q-74 0 -134 25t-99 65.5t-65 96t-37 114t-11 121.5q0 171 80.5 322t219 242.5t296.5 91.5q150 0 227.5 -85t48.5 -233
q-16 -83 -62 -161t-86.5 -119t-76.5 -66l-539 238q-26 -89 -26 -183q0 -185 88.5 -295t222.5 -110zM637 991q-152 0 -278.5 -95t-178.5 -255q172 -64 273.5 -92.5t177.5 -28.5q113 0 179 58t81 143q14 70 -1.5 123.5t-54 84.5t-89 46.5t-109.5 15.5z" />
    <glyph glyph-name="uni0451" unicode="&#x451;" horiz-adv-x="1003" 
d="M551 1309q-29 0 -46.5 16.5t-17.5 42.5q0 40 28.5 69t66.5 29q31 0 49 -17t18 -44q0 -40 -28.5 -68t-69.5 -28zM817 1309q-29 0 -46 16t-17 43q0 40 28 69t66 29q31 0 49 -17t18 -44q0 -40 -28.5 -68t-69.5 -28zM461 41q145 0 260 77.5t215 241.5h10
q-82 -164 -224.5 -273.5t-307.5 -109.5q-74 0 -134 25t-99 65.5t-65 96t-37 114t-11 121.5q0 171 80.5 322t219 242.5t296.5 91.5q150 0 227.5 -85t48.5 -233q-16 -83 -62 -161t-86.5 -119t-76.5 -66l-539 238q-26 -89 -26 -183q0 -185 88.5 -295t222.5 -110zM637 991
q-152 0 -278.5 -95t-178.5 -255q172 -64 273.5 -92.5t177.5 -28.5q113 0 179 58t81 143q14 70 -1.5 123.5t-54 84.5t-89 46.5t-109.5 15.5z" />
    <glyph glyph-name="uni0452" unicode="&#x452;" horiz-adv-x="964" 
d="M688 1055q250 0 191 -307l-177 -906q-25 -128 -99 -196t-159 -68q-68 0 -117.5 41t-64.5 96l19 4q23 -47 63.5 -73.5t85.5 -26.5q69 0 120 59.5t71 163.5l163 844q31 165 -9.5 235t-153.5 70q-102 0 -211 -96.5t-156 -212.5l-133 -682h-82l254 1307h-146l11 51h145
l55 280h82l-55 -280h270l-10 -51h-270l-103 -527q16 30 38 61t61.5 71t83.5 70.5t105.5 51.5t127.5 21z" />
    <glyph glyph-name="uni0453" unicode="&#x453;" horiz-adv-x="733" 
d="M895 1489q0 -79 -356 -363h-17q263 385 346 385q27 0 27 -22zM240 1024h561l-10 -51h-480l-190 -973h-82z" />
    <glyph glyph-name="uni0454" unicode="&#x454;" horiz-adv-x="989" 
d="M457 41q140 0 245 75t209 244h31q-82 -168 -215 -275.5t-301 -107.5q-117 0 -200.5 55.5t-123 145.5t-39.5 203q0 129 49 253t128.5 216t187 148.5t219.5 56.5q117 0 201.5 -53t114.5 -107l-29 -25q-53 53 -134 94.5t-165 41.5q-181 0 -313.5 -132.5t-165.5 -336.5h452
l-8 -52h-453q-2 -20 -2 -65q0 -171 88 -275t224 -104z" />
    <glyph glyph-name="uni0455" unicode="&#x455;" horiz-adv-x="804" 
d="M291 -23q-210 0 -314 166l29 19q94 -131 287 -131q146 0 248 79t102 193q0 18 -4 34t-15 30t-20.5 24.5t-30.5 22.5t-34.5 19.5t-43.5 19t-46 17.5t-53 19t-54 19q-95 34 -148 86.5t-53 134.5q0 138 103.5 232t255.5 94q187 0 284 -146l-28 -18q-35 42 -110 76t-159 34
q-119 0 -203.5 -68.5t-84.5 -164.5q0 -56 47.5 -93.5t161.5 -74.5q15 -5 48 -15t49 -15t44 -15.5t42.5 -19t35.5 -21.5t32 -27t22.5 -32.5t16 -41t4.5 -48.5q0 -164 -118 -276t-293 -112z" />
    <glyph glyph-name="uni0456" unicode="&#x456;" 
d="M336 1313q-32 0 -51 18.5t-19 48.5q0 41 31 73t72 32q32 0 50.5 -19t18.5 -49q0 -41 -30.5 -72.5t-71.5 -31.5zM121 0h-82l199 1024h81z" />
    <glyph glyph-name="uni0457" unicode="&#x457;" 
d="M248 1313q-49 0 -49 57q0 47 23 81t59 34q51 0 51 -55q0 -47 -24 -82t-60 -35zM420 1313q-49 0 -49 57q0 47 23 81t59 34q51 0 51 -55q0 -47 -24 -82t-60 -35zM319 1024l-198 -1024h-82l199 1024h81z" />
    <glyph glyph-name="uni0458" unicode="&#x458;" horiz-adv-x="358" 
d="M315 1313q-33 0 -51 19.5t-18 51.5q0 40 30 70.5t72 30.5q33 0 50.5 -19.5t17.5 -50.5q0 -43 -30 -72.5t-71 -29.5zM-170 -422q-69 0 -120 43t-64 103h30q22 -50 58.5 -77.5t81.5 -27.5q68 0 119 59.5t71 163.5l232 1182h79l-231 -1188q-25 -124 -98 -191t-158 -67z" />
    <glyph glyph-name="uni0459" unicode="&#x459;" horiz-adv-x="1316" 
d="M735 604h178q142 0 229 -63.5t87 -186.5q0 -109 -55.5 -191.5t-144 -122.5t-193.5 -40h-301l190 973h-334q-135 -525 -242.5 -759t-236.5 -234l18 92q91 0 189.5 224t228.5 728h469zM627 51h213q145 0 223 80t78 221q0 201 -244 201h-172z" />
    <glyph glyph-name="uni045A" unicode="&#x45a;" horiz-adv-x="1316" 
d="M733 594h176q144 0 232 -66t88 -194q0 -78 -32 -142.5t-87 -105.5t-125.5 -63.5t-148.5 -22.5h-301l106 543h-414l-106 -543h-82l201 1024h82l-84 -430h413l84 430h82zM627 51h213q145 0 223 74.5t78 206.5q0 211 -248 211h-170z" />
    <glyph glyph-name="uni045B" unicode="&#x45b;" horiz-adv-x="964" 
d="M688 1055q250 0 191 -307l-146 -748h-82l133 686q31 165 -9.5 235t-153.5 70q-102 0 -211 -96.5t-156 -212.5l-133 -682h-82l254 1307h-146l11 51h145l55 280h82l-55 -280h270l-10 -51h-270l-103 -527q16 30 38 61t61.5 71t83.5 70.5t105.5 51.5t127.5 21z" />
    <glyph glyph-name="uni045C" unicode="&#x45c;" horiz-adv-x="849" 
d="M913 1489q0 -79 -356 -363h-16q263 385 346 385q26 0 26 -22zM39 0l201 1024h82l-201 -1024h-82zM846 1024h69l-563 -477l422 -547h-110l-406 524z" />
    <glyph glyph-name="uni045D" unicode="&#x45d;" horiz-adv-x="962" 
d="M623 1126h-17q-356 290 -356 363q0 22 26 22q84 0 347 -385zM842 1024h82l-201 -1024h-82l178 913l-698 -913h-82l201 1024h82l-179 -913z" />
    <glyph glyph-name="uni045E" unicode="&#x45e;" horiz-adv-x="827" 
d="M512 1223q62 0 108.5 22t76 64.5t47 93.5t28.5 119h86q-29 -158 -118 -249t-236 -91q-146 0 -198.5 90.5t-24.5 249.5h86q-11 -56 -14.5 -97t1.5 -81t22 -65t51 -40.5t85 -15.5zM-49 -422q-63 0 -105 41t-73 115h30q55 -119 136 -119q77 0 172 97.5t180 258.5l-170 1053
h88l151 -952l318 583q92 177 92 252q0 76 -78 76q-70 0 -174 -94v41q101 106 201 106q110 0 110 -106t-98 -283l-377 -676q-219 -393 -403 -393z" />
    <glyph glyph-name="uni045F" unicode="&#x45f;" horiz-adv-x="942" 
d="M631 51l190 973h82l-201 -1024h-299l-57 -297h-61l57 297h-303l201 1024h82l-191 -973h500z" />
    <glyph glyph-name="uni0490" unicode="&#x490;" horiz-adv-x="1013" 
d="M1161 1812h72l-62 -317h-696l-291 -1495h-94l303 1556h719z" />
    <glyph glyph-name="uni0491" unicode="&#x491;" horiz-adv-x="733" 
d="M788 1280h62l-59 -307h-482l-188 -973h-82l199 1024h499z" />
    <glyph glyph-name="uni0492" unicode="&#x492;" horiz-adv-x="1036" 
d="M1200 1556l-12 -61h-696l-136 -692h408l-8 -51h-410l-145 -752h-92l145 752h-184l8 51h186l148 753h788z" />
    <glyph glyph-name="uni0493" unicode="&#x493;" horiz-adv-x="759" 
d="M825 1024l-10 -51h-479l-82 -424h240l-9 -51h-241l-99 -498h-82l99 498h-133l8 51h135l92 475h561z" />
    <glyph glyph-name="uni0496" unicode="&#x496;" horiz-adv-x="1544" 
d="M1624 1556l-733 -753l434 -742h168l-61 -317h-72l49 256h-152l-440 750l-145 -750h-92l145 750l-731 -750h-117l791 809l-435 747h68l436 -749l146 749h92l-146 -749l727 749h68z" />
    <glyph glyph-name="uni0497" unicode="&#x497;" horiz-adv-x="1419" 
d="M127 1024h72l362 -500l-559 -524h-115l588 547zM514 0l201 1024h82l-201 -1024h-82zM1386 1024l-542 -477l338 -496h157l-61 -307h-61l51 256h-160l-354 524l559 500h73z" />
    <glyph glyph-name="uni049A" unicode="&#x49a;" horiz-adv-x="1056" 
d="M946 -256h-72l50 256h-158l-442 725l-142 -725h-92l303 1556h92l-141 -725l717 725h59l-735 -749l455 -746h168z" />
    <glyph glyph-name="uni049B" unicode="&#x49b;" horiz-adv-x="964" 
d="M39 0l201 1024h82l-201 -1024h-82zM915 1024l-563 -477l383 -496h162l-61 -307h-62l51 256h-161l-406 524l588 500h69z" />
    <glyph glyph-name="uni04A2" unicode="&#x4a2;" horiz-adv-x="1486" 
d="M1325 1556h92l-291 -1495h191l-62 -317h-71l49 256h-211l154 788h-840l-154 -788h-92l303 1556h92l-137 -706h840z" />
    <glyph glyph-name="uni04A3" unicode="&#x4a3;" horiz-adv-x="1013" 
d="M842 1024h82l-191 -973h164l-61 -307h-62l51 256h-184l98 498h-520l-98 -498h-82l201 1024h82l-93 -475h521z" />
    <glyph glyph-name="uni04AE" unicode="&#x4ae;" horiz-adv-x="1138" 
d="M520 0h-92l113 575l-348 981h114l324 -894l643 894h61l-700 -968z" />
    <glyph glyph-name="uni04AF" unicode="&#x4af;" horiz-adv-x="868" 
d="M371 84l495 940h74l-555 -1024l-80 -410h-82l80 410l-180 1024h84z" />
    <glyph glyph-name="uni04B0" unicode="&#x4b0;" horiz-adv-x="1148" 
d="M1278 1556h61l-700 -968h254l-8 -51h-256l-105 -537h-92l105 537h-256l8 51h252l-344 968h114l324 -894z" />
    <glyph glyph-name="uni04B1" unicode="&#x4b1;" horiz-adv-x="868" 
d="M866 1024h74l-555 -1024h246l-10 -51h-246l-70 -359h-82l70 359h-246l10 51h246l-180 1024h84l164 -940z" />
    <glyph glyph-name="uni04B2" unicode="&#x4b2;" horiz-adv-x="1187" 
d="M1241 1556l-594 -749l328 -746h158l-62 -317h-72l50 256h-158l-322 729l-594 -729h-59l633 778l-342 778h110l306 -700l559 700h59z" />
    <glyph glyph-name="uni04B3" unicode="&#x4b3;" horiz-adv-x="929" 
d="M842 784h-29q32 44 52 92t20 80q0 39 -41 39q-47 0 -102.5 -69.5t-178.5 -260.5q-43 -67 -67 -104l192 -510h141l-61 -307h-61l51 256h-140l-180 471q-61 -99 -112 -172.5t-112.5 -148t-119 -114.5t-106.5 -40q-68 0 -68 67q0 92 78 173h31q-31 -38 -50.5 -81.5
t-19.5 -72.5q0 -39 33 -39q65 0 178 134.5t246 350.5l-185 496h88l156 -410q17 27 53.5 88t59 97.5t59.5 87t66.5 79t67 49.5t73.5 21q72 0 72 -69q0 -74 -84 -183z" />
    <glyph glyph-name="uni04B6" unicode="&#x4b6;" horiz-adv-x="1318" 
d="M1157 1556h92l-291 -1495h191l-62 -317h-71l49 256h-211l150 766q-235 -100 -449 -100q-221 0 -304 86.5t-46 277.5l102 526h92l-102 -526q-31 -159 33.5 -231t236.5 -72q210 0 445 80z" />
    <glyph glyph-name="uni04B7" unicode="&#x4b7;" horiz-adv-x="923" 
d="M752 1024h82l-191 -973h164l-62 -307h-61l51 256h-184l96 494q-155 -66 -305 -66q-112 0 -168 30t-65 90t8 150l63 326h82l-63 -326q-24 -117 9 -168t144 -51q162 0 305 60z" />
    <glyph glyph-name="uni04BA" unicode="&#x4ba;" horiz-adv-x="1236" 
d="M784 891q221 0 304.5 -87t46.5 -278l-103 -526h-92l102 526q31 159 -33.5 231t-236.5 72q-212 0 -444 -79l-146 -750h-92l303 1556h92l-149 -765q235 100 448 100z" />
    <glyph glyph-name="uni04BB" unicode="&#x4bb;" horiz-adv-x="964" 
d="M121 0h-82l319 1638h82l-168 -858q16 30 38 61t61.5 71t83.5 70.5t105.5 51.5t127.5 21q250 0 191 -307l-146 -748h-82l133 686q31 165 -9.5 235t-153.5 70q-102 0 -211 -96.5t-156 -212.5z" />
    <glyph glyph-name="uni04C0" unicode="&#x4c0;" horiz-adv-x="473" 
d="M182 0h-92l303 1556h92z" />
    <glyph glyph-name="uni04CF" unicode="&#x4cf;" 
d="M121 0h-82l319 1638h82z" />
    <glyph glyph-name="uni04D8" unicode="&#x4d8;" horiz-adv-x="1619" 
d="M1004 1573q173 0 308.5 -82.5t210 -229t74.5 -331.5q0 -132 -40 -258.5t-108 -229.5t-160.5 -191t-196.5 -147.5t-216 -93t-219 -33.5q-187 0 -328.5 101.5t-203 271t-25.5 363.5q2 15 10 42t9 33h1360q6 55 6 113q0 134 -29.5 241t-79.5 177t-119 116.5t-143.5 66.5
t-157.5 20q-269 0 -503 -148l-27 33q252 166 578 166zM717 53q79 0 167 24t182.5 77.5t174.5 129.5t142.5 191t86.5 252h-1273q-18 -120 0.5 -227.5t66.5 -187.5t118 -139.5t156 -89.5t179 -30z" />
    <glyph glyph-name="uni04D9" unicode="&#x4d9;" horiz-adv-x="1005" 
d="M594 1055q74 0 134 -25t99 -65.5t65 -96t37 -114t11 -121.5q0 -171 -80.5 -322t-219 -242.5t-296.5 -91.5q-150 0 -227.5 85t-48.5 233q16 83 62 161t86.5 119t76.5 66l538 -238q27 93 27 183q0 185 -88.5 295t-222.5 110q-145 0 -260 -77.5t-215 -241.5h-11
q82 164 225 273.5t308 109.5zM371 41q152 0 278 95t178 255q-172 64 -273 92.5t-177 28.5q-113 0 -179 -58t-81 -143q-14 -70 1.5 -123.5t54 -84.5t89 -46.5t109.5 -15.5z" />
    <glyph glyph-name="uni04E2" unicode="&#x4e2;" horiz-adv-x="1384" 
d="M678 1843h539l-15 -78h-538zM209 133l1096 1423h92l-303 -1556h-93l277 1423l-1096 -1423h-92l303 1556h92z" />
    <glyph glyph-name="uni04E3" unicode="&#x4e3;" horiz-adv-x="962" 
d="M360 1311h539l-14 -78h-539zM842 1024h82l-201 -1024h-82l178 913l-698 -913h-82l201 1024h82l-179 -913z" />
    <glyph glyph-name="uni04E8" unicode="&#x4e8;" horiz-adv-x="1662" 
d="M1047 1573q173 0 308.5 -82.5t210 -229t74.5 -331.5q0 -132 -40 -258.5t-108 -229.5t-160.5 -191t-196.5 -147.5t-216 -93t-219 -33.5q-170 0 -301 82.5t-201.5 230t-70.5 335.5q0 136 38.5 264t105 230.5t156.5 188.5t192 143.5t212 89.5t216 32zM995 1497
q-137 0 -262 -50.5t-219.5 -138t-162 -205.5t-97.5 -253h1272q2 16 2 51q0 128 -30 231t-80 170t-119.5 112t-145 64t-158.5 19zM760 53q82 0 174.5 26t190.5 84.5t179.5 141.5t141.5 208.5t76 274.5h-1280q-11 -86 -11 -141q0 -123 31 -224t83 -168.5t121 -114t143 -67
t151 -20.5z" />
    <glyph glyph-name="uni04E9" unicode="&#x4e9;" horiz-adv-x="1079" 
d="M657 1055q74 0 133 -21.5t96.5 -59t64 -81t39.5 -94.5t18.5 -92.5t5.5 -81.5q0 -92 -28 -186.5t-80.5 -176.5t-122 -146t-159 -101.5t-184.5 -37.5q-72 0 -131 21t-98.5 58t-68.5 81.5t-44.5 96.5t-22.5 98t-7 90q0 112 46 225t123 203.5t188 147.5t232 57zM625 991
q-168 0 -304 -130t-165 -320h768q2 20 2 59q0 59 -9.5 113.5t-32.5 106t-56.5 89t-85.5 60t-117 22.5zM479 41q153 0 277.5 125t158.5 317h-765v-28q0 -108 36.5 -200.5t113 -153t179.5 -60.5z" />
    <glyph glyph-name="uni04EE" unicode="&#x4ee;" horiz-adv-x="1136" 
d="M614 1843h539l-14 -78h-539zM600 453l672 1103h71l-733 -1194q-133 -216 -229 -299t-234 -83l21 102q101 0 184 56.5t178 201.5l-301 1216h103z" />
    <glyph glyph-name="uni04EF" unicode="&#x4ef;" horiz-adv-x="827" 
d="M805 1233h-539l15 78h538zM-49 -422q-63 0 -105 41t-73 115h30q55 -119 136 -119q77 0 172 97.5t180 258.5l-170 1053h88l151 -952l318 583q92 177 92 252q0 76 -78 76q-70 0 -174 -94v41q101 106 201 106q110 0 110 -106t-98 -283l-377 -676q-219 -393 -403 -393z" />
    <glyph glyph-name="Wgrave" unicode="&#x1e80;" horiz-adv-x="2027" 
d="M1239 1659h-16q-357 291 -357 362q0 23 27 23q83 0 346 -385zM459 0h-62l-196 1556h110l168 -1392l711 1392h67l205 -1392l697 1392h63l-782 -1556h-62l-202 1403z" />
    <glyph glyph-name="wgrave" unicode="&#x1e81;" horiz-adv-x="1314" 
d="M799 1126h-17q-356 290 -356 363q0 22 27 22q83 0 346 -385zM301 0h-61l-115 1024h90l88 -911l442 911h72l82 -911l279 577q69 145 69 217q0 76 -71 76q-77 0 -181 -94v41q106 106 209 106q56 0 82.5 -29t26.5 -79q0 -79 -66 -215l-352 -713h-61l-86 924z" />
    <glyph glyph-name="Wacute" unicode="&#x1e82;" horiz-adv-x="2027" 
d="M1217 1659h-17q263 385 346 385q27 0 27 -23q0 -78 -356 -362zM459 0h-62l-196 1556h110l168 -1392l711 1392h67l205 -1392l697 1392h63l-782 -1556h-62l-202 1403z" />
    <glyph glyph-name="wacute" unicode="&#x1e83;" horiz-adv-x="1314" 
d="M776 1126h-16q263 385 346 385q27 0 27 -22q0 -79 -357 -363zM301 0h-61l-115 1024h90l88 -911l442 911h72l82 -911l279 577q69 145 69 217q0 76 -71 76q-77 0 -181 -94v41q106 106 209 106q56 0 82.5 -29t26.5 -79q0 -79 -66 -215l-352 -713h-61l-86 924z" />
    <glyph glyph-name="Wdieresis" unicode="&#x1e84;" horiz-adv-x="2027" 
d="M1065 1739q-29 0 -46.5 16.5t-17.5 42.5q0 40 28.5 69t66.5 29q31 0 49 -17t18 -44q0 -40 -28.5 -68t-69.5 -28zM1331 1739q-29 0 -46 16t-17 43q0 40 28 69t66 29q32 0 50 -17t18 -44q0 -40 -29 -68t-70 -28zM459 0h-62l-196 1556h110l168 -1392l711 1392h67l205 -1392
l697 1392h63l-782 -1556h-62l-202 1403z" />
    <glyph glyph-name="wdieresis" unicode="&#x1e85;" horiz-adv-x="1314" 
d="M674 1309q-29 0 -46.5 16.5t-17.5 42.5q0 40 28.5 69t66.5 29q31 0 49 -17t18 -44q0 -40 -28.5 -68t-69.5 -28zM940 1309q-29 0 -46 16t-17 43q0 40 28 69t66 29q31 0 49 -17t18 -44q0 -40 -28.5 -68t-69.5 -28zM301 0h-61l-115 1024h90l88 -911l442 911h72l82 -911
l279 577q69 145 69 217q0 76 -71 76q-77 0 -181 -94v41q106 106 209 106q56 0 82.5 -29t26.5 -79q0 -79 -66 -215l-352 -713h-61l-86 924z" />
    <glyph glyph-name="uni1E9E" unicode="&#x1e9e;" horiz-adv-x="1241" 
d="M786 -23q-106 0 -185 54t-112 112l152 275h31q-66 -121 -66 -211q0 -78 49 -125t146 -47q126 0 207.5 76t81.5 190q0 48 -15 85.5t-45 64t-49 38.5t-53 29q-104 51 -140 81q-69 58 -69 144q0 44 16.5 79t43 60t58 48t63.5 49.5t58.5 57.5t43 79.5t16.5 108.5
q0 129 -73 213t-218 84q-260 0 -317 -293l-240 -1229h-92l237 1219q5 27 9 44t13 48.5t19 53t28 51.5t38.5 50t51.5 42.5t67 35.5t84 22t104 9q184 0 273.5 -85.5t89.5 -236.5q0 -66 -17 -119.5t-44.5 -88.5t-61 -63.5t-67 -50t-61 -42t-44.5 -46t-17 -55.5q0 -25 10 -45
t35 -38.5t43.5 -29t61.5 -31.5t63 -32q87 -45 127.5 -94.5t40.5 -140.5q0 -161 -110 -280.5t-265 -119.5z" />
    <glyph glyph-name="Ygrave" unicode="&#x1ef2;" horiz-adv-x="1138" 
d="M795 1659h-17q-356 290 -356 362q0 23 27 23q83 0 346 -385zM520 0h-92l113 575l-348 981h114l324 -894l643 894h61l-700 -968z" />
    <glyph glyph-name="ygrave" unicode="&#x1ef3;" horiz-adv-x="827" 
d="M492 1126h-17q-356 290 -356 363q0 22 26 22q84 0 347 -385zM-49 -422q-63 0 -105 41t-73 115h30q55 -119 136 -119q77 0 172 97.5t180 258.5l-170 1053h88l151 -952l318 583q92 177 92 252q0 76 -78 76q-70 0 -174 -94v41q101 106 201 106q110 0 110 -106t-98 -283
l-377 -676q-219 -393 -403 -393z" />
    <glyph glyph-name="uni2009" unicode="&#x2009;" horiz-adv-x="454" 
 />
    <glyph glyph-name="endash" unicode="&#x2013;" horiz-adv-x="862" 
d="M797 537h-723l14 77h723z" />
    <glyph glyph-name="emdash" unicode="&#x2014;" horiz-adv-x="1271" 
d="M1206 537h-1132l14 77h1133z" />
    <glyph glyph-name="quoteleft" unicode="&#x2018;" horiz-adv-x="342" 
d="M455 1571h20q-119 -122 -135 -211q-4 -16 -4 -60q0 -103 35 -155q-7 -41 -35 -60.5t-62 -19.5q-33 0 -53 20.5t-20 57.5q0 7 4 31q14 75 83.5 193t166.5 204z" />
    <glyph glyph-name="quoteright" unicode="&#x2019;" horiz-adv-x="348" 
d="M211 1065h-21q120 123 136 211q4 16 4 59q0 104 -35 156q7 41 34.5 60.5t61.5 19.5q33 0 53.5 -20.5t20.5 -57.5q0 -7 -4 -31q-14 -75 -83.5 -193t-166.5 -204z" />
    <glyph glyph-name="quotesinglbase" unicode="&#x201a;" horiz-adv-x="337" 
d="M-74 -295h-20q78 82 108.5 135t30.5 103q0 52 -47 127q7 43 40.5 71.5t72.5 28.5q38 0 60 -22.5t22 -59.5q0 -67 -72 -170.5t-195 -212.5z" />
    <glyph glyph-name="quotedblleft" unicode="&#x201c;" horiz-adv-x="567" 
d="M274 1065q-32 0 -51.5 20.5t-19.5 57.5q0 77 78.5 210t173.5 218h20q-75 -78 -107 -138.5t-32 -129.5q0 -103 37 -158q-8 -41 -36.5 -60.5t-62.5 -19.5zM500 1065q-32 0 -52 20.5t-20 57.5q0 75 78.5 209.5t173.5 218.5h20q-79 -82 -109 -141.5t-30 -126.5
q0 -103 37 -158q-8 -41 -36.5 -60.5t-61.5 -19.5z" />
    <glyph glyph-name="quotedblright" unicode="&#x201d;" horiz-adv-x="598" 
d="M211 1065h-21q120 123 136 211q4 16 4 59q0 104 -35 156q7 41 34.5 60.5t61.5 19.5q33 0 53.5 -20.5t20.5 -57.5q0 -7 -4 -31q-14 -75 -83.5 -193t-166.5 -204zM461 1065h-21q119 122 135 211q5 20 5 59q0 104 -35 156q7 41 34.5 60.5t61.5 19.5q33 0 53.5 -20.5
t20.5 -57.5q0 -7 -4 -31q-14 -75 -83.5 -193t-166.5 -204z" />
    <glyph glyph-name="quotedblbase" unicode="&#x201e;" horiz-adv-x="585" 
d="M-84 -336h-20q119 122 135 211q10 46 1.5 112t-32.5 103q7 41 34.5 60.5t61.5 19.5q40 0 60 -28.5t10 -80.5q-14 -75 -83.5 -193t-166.5 -204zM186 -336h-20q119 122 135 211q10 46 1.5 112t-32.5 103q7 41 35 60.5t62 19.5q40 0 59.5 -28.5t9.5 -80.5
q-14 -75 -83.5 -193t-166.5 -204z" />
    <glyph glyph-name="dagger" unicode="&#x2020;" horiz-adv-x="919" 
d="M631 1155h364l-12 -61h-365l-212 -1094h-93l213 1094h-364l12 61h365l94 483h92z" />
    <glyph glyph-name="daggerdbl" unicode="&#x2021;" horiz-adv-x="811" 
d="M543 983h-92l57 297h-272l12 61h272l58 297h92l-58 -297h273l-13 -61h-272zM352 0h-92l57 297h-272l12 61h273l57 297h92l-57 -297h272l-12 -61h-272z" />
    <glyph glyph-name="bullet" unicode="&#x2022;" horiz-adv-x="622" 
d="M283 375q-57 0 -90 33.5t-33 87.5q0 71 53 124.5t127 53.5q57 0 91 -35.5t34 -89.5q0 -73 -52.5 -123.5t-129.5 -50.5z" />
    <glyph glyph-name="ellipsis" unicode="&#x2026;" horiz-adv-x="976" 
d="M90 -23q-37 0 -58.5 21.5t-21.5 56.5q0 46 34 80.5t83 34.5q36 0 58 -23t22 -57q0 -47 -34 -80t-83 -33zM397 -23q-37 0 -58.5 21.5t-21.5 56.5q0 46 34 80.5t83 34.5q36 0 58 -23t22 -57q0 -47 -34 -80t-83 -33zM705 -23q-37 0 -58.5 21.5t-21.5 56.5q0 47 33.5 81
t82.5 34q36 0 58 -23t22 -57q0 -47 -33.5 -80t-82.5 -33z" />
    <glyph glyph-name="perthousand" unicode="&#x2030;" horiz-adv-x="2332" 
d="M416 815q-59 0 -104.5 25.5t-72 69t-40 96t-13.5 112.5q0 126 52 246.5t148.5 200.5t211.5 80q80 0 135 -48.5t78 -118.5t23 -153q0 -124 -54 -241t-151.5 -193t-212.5 -76zM446 850q53 0 106.5 30t99.5 84t75 141t29 191q0 136 -53.5 226t-133.5 90q-51 0 -105.5 -33
t-101 -90.5t-76.5 -146t-30 -189.5q0 -132 53.5 -217.5t136.5 -85.5zM285 0h-62l1082 1556h65zM1120 -12q-59 0 -104.5 25.5t-72 69t-39.5 96t-13 112.5q0 126 52 246.5t148.5 200t211.5 79.5q80 0 135 -48.5t77.5 -118t22.5 -152.5q0 -124 -54 -241t-151.5 -193t-212.5 -76
zM1843 -12q-59 0 -104.5 25.5t-72 69t-39.5 96t-13 112.5q0 94 31 188t84 169t131 122t165 47q80 0 135 -48.5t78 -118t23 -152.5q0 -124 -54 -241t-151.5 -193t-212.5 -76zM1151 23q53 0 106.5 30t99 84t74.5 141t29 191q0 136 -53 225.5t-133 89.5q-51 0 -105.5 -33
t-101 -90t-76.5 -145.5t-30 -189.5q0 -132 53.5 -217.5t136.5 -85.5zM1874 23q53 0 106.5 30t99 84t74.5 141t29 191q0 136 -53 225.5t-133 89.5q-51 0 -105.5 -33t-101.5 -90t-77 -145.5t-30 -189.5q0 -132 54 -217.5t137 -85.5z" />
    <glyph glyph-name="guilsinglleft" unicode="&#x2039;" horiz-adv-x="598" 
d="M549 918h31q-298 -285 -418 -388q93 -122 268 -385h-31l-317 379l2 13z" />
    <glyph glyph-name="guilsinglright" unicode="&#x203a;" horiz-adv-x="595" 
d="M53 145h-30q297 284 417 387q-87 115 -268 386h31l317 -379l-2 -13z" />
    <glyph glyph-name="fraction" unicode="&#x2044;" horiz-adv-x="368" 
d="M-276 0h-62l1081 1556h66z" />
    <glyph glyph-name="Euro" unicode="&#x20ac;" horiz-adv-x="1247" 
d="M1024 1573q63 0 118 -16t87.5 -37.5t59 -49.5t36.5 -44t16 -29l-28 -23q-16 19 -40 40.5t-62 46.5t-91 41t-110 16q-177 0 -326 -176.5t-219 -456.5h409l-14 -66h-409q-18 -81 -23 -139h406l-13 -66h-399q-6 -65 -6 -133q0 -219 85 -333.5t247 -114.5q55 0 105 12.5
t92.5 36t68 42t59.5 46.5l27 -16q-9 -12 -25 -29t-51 -44.5t-75.5 -49.5t-101 -38t-124.5 -16q-89 0 -158.5 31t-113 81.5t-71.5 121.5t-39 145t-11 158q0 34 4 100h-236l13 66h227q7 54 22 139h-223l15 66h225q78 301 256 494.5t391 193.5z" />
    <glyph glyph-name="uni20B4" unicode="&#x20b4;" horiz-adv-x="1206" 
d="M1026 948h184l-12 -65h-1046l12 65h751q68 63 110 157.5t42 184.5q0 109 -66.5 167.5t-197.5 58.5q-93 0 -206.5 -36.5t-201.5 -105.5l-26 33q212 166 456 166q160 0 247 -71.5t87 -205.5q0 -95 -35 -185.5t-98 -162.5zM279 678h-166l12 65h1046l-12 -65h-756
q-112 -71 -161 -168.5t-49 -200.5q0 -134 84 -205t215 -71q287 0 491 225l33 -27q-213 -254 -537 -254q-173 0 -275 80t-102 240q0 238 177 381z" />
    <glyph glyph-name="uni20B8" unicode="&#x20b8;" horiz-adv-x="1286" 
d="M244 1491l12 65h1178l-13 -65h-1177zM840 1290l-252 -1290h-92l252 1290h-543l10 62h1178l-11 -62h-542z" />
    <glyph glyph-name="uni20BD" unicode="&#x20bd;" horiz-adv-x="1308" 
d="M817 758h-387l-29 -152h607l-15 -65h-606l-104 -541h-93l105 541h-205l14 65h205l29 152h-205l12 65h205l144 733h417q92 0 171 -20.5t141.5 -61t98.5 -107.5t36 -153q0 -96 -32 -174.5t-84.5 -130t-123.5 -86.5t-146 -50t-155 -15zM893 1516h-315l-140 -717h377
q196 0 318 109.5t122 305.5q0 145 -95.5 223.5t-266.5 78.5z" />
    <glyph glyph-name="uni2116" unicode="&#x2116;" horiz-adv-x="2093" 
d="M1683 741q-70 0 -123 28t-82.5 74.5t-44 100.5t-14.5 113q0 74 20 148t59.5 139.5t93 116.5t124.5 80.5t150 29.5q72 0 127.5 -27t86.5 -72.5t46.5 -99t15.5 -112.5q0 -82 -33 -172t-90.5 -168t-146 -128.5t-189.5 -50.5zM186 0h-94l303 1556h94l494 -1288l252 1288h92
l-303 -1556h-51l-520 1370zM1716 784q58 0 117 34t107 92.5t78 145t30 183.5q0 84 -19.5 146.5t-68 103.5t-123.5 41q-56 0 -113.5 -35t-103.5 -94t-75 -145t-29 -179q0 -59 10.5 -109.5t33 -93t62.5 -66.5t94 -24zM1982 492h-661l10 51h662z" />
    <glyph glyph-name="trademark" unicode="&#x2122;" horiz-adv-x="1331" 
d="M387 948h-49l111 574h-203l6 34h455l-7 -34h-202zM797 948h-49l116 608h49l115 -526l311 526h41l-116 -608h-50l99 508l-295 -508h-25l-104 479z" />
    <glyph glyph-name="oneeighth" unicode="&#x215b;" horiz-adv-x="1406" 
d="M377 827h-64l142 732l-230 -213l4 24l234 266h72zM78 0h-62l1082 1556h65zM952 -12q-106 0 -170.5 51t-64.5 135q0 96 64.5 167t170.5 93q-57 13 -91 54.5t-34 97.5q0 104 80.5 167.5t212.5 63.5q94 0 151.5 -47t57.5 -123q0 -66 -55 -124t-144 -87h-2q75 -9 120.5 -59.5
t45.5 -124.5q0 -119 -94 -191.5t-248 -72.5zM1049 451q91 0 146.5 50t55.5 132q0 68 -42.5 109.5t-112.5 41.5q-91 0 -146 -52t-55 -138q0 -64 42.5 -103.5t111.5 -39.5zM977 23q109 0 176.5 61.5t67.5 161.5q0 75 -51.5 121.5t-135.5 46.5q-113 0 -181.5 -59.5
t-68.5 -157.5q0 -78 53.5 -126t139.5 -48z" />
    <glyph glyph-name="threeeighths" unicode="&#x215c;" horiz-adv-x="1650" 
d="M743 1112q0 -76 -51 -145t-134.5 -110.5t-174.5 -41.5q-84 0 -151.5 34.5t-96.5 94.5l23 10q34 -59 99 -84.5t136 -25.5q116 0 195.5 79.5t79.5 194.5q0 56 -32 86.5t-93 30.5q-86 0 -166 -45l10 45q299 105 299 262q0 50 -37 80.5t-108 30.5q-67 0 -132.5 -29
t-115.5 -90l-19 10q44 53 120 99.5t169 46.5q79 0 140 -35.5t61 -102.5q0 -73 -66.5 -138t-179.5 -109q88 13 156.5 -26.5t68.5 -121.5zM274 0l1082 1556h65l-1085 -1556h-62zM1368 436h-2q75 -9 120.5 -59.5t45.5 -124.5q0 -119 -94 -191.5t-248 -72.5q-106 0 -171 51
t-65 135q0 96 65 167t171 93q-57 13 -91 54.5t-34 97.5q0 104 80.5 167.5t212.5 63.5q94 0 151.5 -47t57.5 -123q0 -66 -55 -124t-144 -87zM1133 594q0 -64 42 -103.5t111 -39.5q91 0 147 50t56 132q0 68 -43 109.5t-113 41.5q-91 0 -145.5 -52t-54.5 -138zM1214 23
q109 0 176.5 61.5t67.5 161.5q0 75 -51 121.5t-135 46.5q-113 0 -181.5 -59.5t-68.5 -157.5q0 -78 53 -126t139 -48z" />
    <glyph glyph-name="fiveeighths" unicode="&#x215d;" horiz-adv-x="1769" 
d="M455 817q-69 0 -122.5 22.5t-87 63t-53.5 86t-34 103.5l22 10q19 -57 38.5 -97t50 -77t74 -55.5t99.5 -18.5q139 0 239.5 94t100.5 223q0 77 -48 124.5t-130 47.5q-76 0 -146 -45t-116 -143h-74l187 481h395l-6 -30h-330l-139 -349q43 53 115.5 86t144.5 33
q97 0 162 -57.5t65 -151.5q0 -90 -57 -171.5t-151.5 -130t-198.5 -48.5zM444 0h-61l1081 1556h66zM1298 -12q-106 0 -170.5 51t-64.5 135q0 96 64.5 167t170.5 93q-57 13 -90.5 54.5t-33.5 97.5q0 104 80 167.5t212 63.5q94 0 151.5 -47t57.5 -123q0 -66 -54.5 -124
t-143.5 -87h-2q75 -9 120 -59.5t45 -124.5q0 -119 -94 -191.5t-248 -72.5zM1395 451q91 0 146.5 50t55.5 132q0 68 -42.5 109.5t-112.5 41.5q-91 0 -146 -52t-55 -138q0 -64 42.5 -103.5t111.5 -39.5zM1323 23q109 0 176.5 61.5t67.5 161.5q0 75 -51.5 121.5t-135.5 46.5
q-113 0 -181.5 -59.5t-68.5 -157.5q0 -78 53.5 -126t139.5 -48z" />
    <glyph glyph-name="seveneighths" unicode="&#x215e;" horiz-adv-x="1347" 
d="M260 827h-59l440 779h-362l6 30h434zM37 0h-62l1082 1556h65zM891 -12q-106 0 -171 51t-65 135q0 96 65 167t171 93q-57 13 -91 54.5t-34 97.5q0 104 80.5 167.5t212.5 63.5q94 0 151.5 -47t57.5 -123q0 -66 -55 -124t-144 -87h-2q75 -9 120.5 -59.5t45.5 -124.5
q0 -119 -94 -191.5t-248 -72.5zM987 451q91 0 147 50t56 132q0 68 -43 109.5t-113 41.5q-91 0 -145.5 -52t-54.5 -138q0 -64 42 -103.5t111 -39.5zM915 23q109 0 176.5 61.5t67.5 161.5q0 75 -51 121.5t-135 46.5q-113 0 -181.5 -59.5t-68.5 -157.5q0 -78 53 -126t139 -48z
" />
    <glyph glyph-name="arrowleft" unicode="&#x2190;" horiz-adv-x="2410" 
d="M688 1081h31l-395 -352h2041l-12 -70h-2042l256 -350h-30l-422 379l2 12z" />
    <glyph glyph-name="arrowup" unicode="&#x2191;" horiz-adv-x="856" 
d="M283 -410h-70l358 1848l-411 -326l4 31l477 495h12l283 -495l-4 -31l-291 326z" />
    <glyph glyph-name="arrowright" unicode="&#x2192;" horiz-adv-x="2408" 
d="M1790 309h-31l395 353h-2041l12 69h2042l-256 350h31l421 -379l-2 -12z" />
    <glyph glyph-name="arrowdown" unicode="&#x2193;" horiz-adv-x="856" 
d="M612 1638h70l-358 -1847l411 326l-4 -31l-477 -496h-12l-283 496l4 31l291 -326z" />
    <glyph glyph-name="arrowboth" unicode="&#x2194;" horiz-adv-x="2402" 
d="M565 309h-30l-420 381l2 12l569 379h31l-395 -350h1841l-256 350h30l422 -379l-2 -12l-571 -381h-31l395 353h-1841z" />
    <glyph glyph-name="arrowupdn" unicode="&#x2195;" horiz-adv-x="886" 
d="M268 -410h-12l-283 496l7 31l286 -326l320 1647l-412 -326l4 31l477 495h13l282 -495l-4 -31l-291 326l-319 -1647l416 326l-7 -31z" />
    <glyph glyph-name="uni2196" unicode="&#x2196;" horiz-adv-x="2058" 
d="M1853 -375l-55 -35l-1425 1854l-54 -457l-20 25l-37 620l8 6l623 -239l20 -27l-485 107z" />
    <glyph glyph-name="uni2197" unicode="&#x2197;" horiz-adv-x="1388" 
d="M1348 1444l-1426 -1854l-55 35l1425 1854l-485 -107l20 27l623 239l8 -6l-37 -620l-20 -25z" />
    <glyph glyph-name="uni2198" unicode="&#x2198;" horiz-adv-x="2060" 
d="M244 1604l55 34l1425 -1853l54 457l20 -25l37 -620l-8 -7l-623 240l-20 27l485 -107z" />
    <glyph glyph-name="uni2199" unicode="&#x2199;" horiz-adv-x="1388" 
d="M78 -215l1425 1853l56 -34l-1426 -1854l485 107l-20 -27l-623 -240l-8 7l37 620l21 25z" />
    <glyph glyph-name="partialdiff" unicode="&#x2202;" horiz-adv-x="1081" 
d="M358 -23q-160 0 -249 102.5t-89 258.5q0 38 11 106q18 92 65 183.5t116 168.5t166 125t204 48q225 0 370 -207l11 -2q16 91 16 164q0 114 -33 218t-89 181t-127.5 131.5t-151.5 81.5l12 37q60 -22 115 -51.5t120.5 -84t112.5 -122t79 -169.5t32 -222q0 -95 -21 -209
q-63 -324 -252.5 -531t-417.5 -207zM373 47q88 0 173.5 39t162.5 115.5t138 202.5t93 286q-62 89 -158.5 153t-212.5 64q-161 0 -290.5 -125.5t-167.5 -322.5q-13 -67 -13 -115q0 -135 72 -216t203 -81z" />
    <glyph glyph-name="emptyset" unicode="&#x2205;" horiz-adv-x="1546" 
d="M1470 1329l39 -37l-143 -137q109 -156 109 -364q0 -169 -71.5 -322t-187.5 -259.5t-267 -169.5t-306 -63q-225 0 -367 142l-149 -144l-39 37l154 148q-115 146 -115 362q0 172 70.5 330.5t184.5 270.5t263 178.5t303 66.5q235 0 385 -170zM238 571q0 -193 92 -329
l923 880q-65 88 -156 134.5t-190 46.5q-82 0 -169 -24t-177.5 -80.5t-161.5 -138t-116 -209t-45 -280.5zM1366 750q0 189 -82 327l-922 -876q66 -77 157 -117.5t188 -40.5q58 0 118 10t125.5 34.5t124.5 61t113 93.5t93 127.5t62 168.5t23 212z" />
    <glyph glyph-name="product" unicode="&#x220f;" horiz-adv-x="1175" 
d="M324 -205h-400l4 21l162 49l318 1630l-146 41l4 20h1049l-4 -20l-162 -41l-318 -1630l146 -49l-4 -21h-400l5 21l161 49l318 1630h-557l-318 -1630l146 -49z" />
    <glyph glyph-name="summation" unicode="&#x2211;" horiz-adv-x="1083" 
d="M793 -205h-889l4 21l115 39l610 800l-230 820l-106 61l4 20h793l-4 -20q-5 -57 3 -155t9 -142h-21l-84 256h-505l233 -840l-619 -798h592l205 256h21q-21 -52 -65.5 -146.5t-61.5 -150.5z" />
    <glyph glyph-name="minus" unicode="&#x2212;" horiz-adv-x="862" 
d="M797 543h-723l12 65h723z" />
    <glyph glyph-name="radical" unicode="&#x221a;" horiz-adv-x="1204" 
d="M225 -205h-61l-139 881h92l114 -758l756 1638h471l-4 -16l-442 -65z" />
    <glyph glyph-name="infinity" unicode="&#x221e;" horiz-adv-x="1564" 
d="M354 268q-104 0 -174.5 69t-70.5 183q0 102 52.5 185.5t134 128.5t171.5 45q103 0 192.5 -64t147.5 -176q101 112 214 176t216 64q106 0 174 -68.5t68 -181.5q0 -106 -56 -190.5t-139 -127.5t-172 -43q-102 0 -188 63.5t-144 176.5q-102 -113 -213 -176.5t-213 -63.5z
M375 332q97 0 195.5 66.5t177.5 174.5q-45 113 -118.5 179.5t-168.5 66.5q-111 0 -192 -81t-81 -208q0 -91 51.5 -144.5t135.5 -53.5zM1116 332q115 0 200 82.5t85 210.5q0 89 -51 141.5t-131 52.5q-89 0 -188 -64t-193 -182q40 -111 111.5 -176t166.5 -65z" />
    <glyph glyph-name="integral" unicode="&#x222b;" horiz-adv-x="851" 
d="M49 -272q-121 0 -149 151l71 316h29q-37 -185 -37 -283q0 -75 20 -108t60 -33q32 0 62 19.5t56.5 60t50 88.5t47.5 120.5t44 140.5t44 163.5t42.5 173.5t45 187t46.5 189q38 151 67 248t63 182.5t68.5 132t78 72t98.5 25.5q44 0 74.5 -14.5t45 -40.5t20 -46.5t8.5 -48.5
l-74 -317h-31q33 174 33 272q0 80 -21 114t-63 34q-52 0 -94 -51t-88 -175.5t-103 -345.5q-22 -86 -49.5 -200t-47.5 -198.5t-45.5 -186t-47.5 -175.5t-49.5 -152t-56 -131t-62 -96.5t-73 -65t-83.5 -21.5z" />
    <glyph glyph-name="approxequal" unicode="&#x2248;" horiz-adv-x="989" 
d="M655 639q-52 0 -96 18t-70 39.5t-64 39.5t-79 18q-51 0 -97.5 -25.5t-62.5 -83.5h-30q18 79 75 126.5t142 47.5q49 0 92.5 -18t70.5 -39t67.5 -39t84.5 -18q53 0 99.5 25t62.5 83h31q-21 -80 -80 -127t-146 -47zM629 322q-52 0 -96 18t-70.5 39t-64.5 39t-79 18
q-51 0 -97 -25t-62 -83h-31q18 79 75 126.5t142 47.5q49 0 92.5 -18t70.5 -39.5t68 -39.5t85 -18q52 0 98.5 25.5t62.5 83.5h31q-21 -80 -79.5 -127t-145.5 -47z" />
    <glyph glyph-name="notequal" unicode="&#x2260;" horiz-adv-x="907" 
d="M850 793l-12 -66h-250l-172 -303h399l-12 -66h-426l-170 -297h-62l170 297h-235l12 66h260l174 303h-411l12 66h436l170 297h64l-170 -297h223z" />
    <glyph glyph-name="lessequal" unicode="&#x2264;" horiz-adv-x="1005" 
d="M848 145l-14 -59l-730 479l5 21l915 477l-14 -72l-815 -420zM827 0h-825l12 66h826z" />
    <glyph glyph-name="greaterequal" unicode="&#x2265;" horiz-adv-x="993" 
d="M918 563l-916 -477l14 72l815 420l-653 426l15 59l729 -479zM807 0h-825l12 66h825z" />
    <glyph glyph-name="lozenge" unicode="&#x25ca;" horiz-adv-x="1001" 
d="M612 1257h62l254 -643l-504 -643h-62l-249 643zM213 614l215 -563l438 563l-219 564z" />
    <glyph glyph-name="B.ss01" horiz-adv-x="1275" 
d="M614 0h-524l303 1556h410q209 0 329.5 -85t120.5 -238q0 -125 -74 -244.5t-198 -191.5q-59 -33 -109 -45q142 -27 226 -97.5t84 -189.5q0 -131 -73.5 -237.5t-203.5 -167t-291 -60.5zM477 1516l-289 -1483h422q110 0 200 38t147.5 102t88.5 145t31 169q0 117 -90.5 176
t-286.5 68q-36 2 -59.5 7t-61 21t-79.5 54t-92 98l540 404h31l-512 -397l45 -52q90 -102 213 -102q113 0 213 67t159.5 180t59.5 242q0 54 -16.5 97t-40 70t-61.5 46.5t-68.5 28.5t-73.5 14.5t-65 6t-54 0.5h-301z" />
    <glyph glyph-name="C.ss01" horiz-adv-x="1568" 
d="M707 -23q-267 0 -428.5 167t-161.5 434q0 188 79.5 371.5t208 319.5t301.5 220t351 84q136 0 269.5 -48.5t209.5 -123.5l-561 -983h-31l535 966q-100 67 -213.5 102.5t-218.5 35.5q-170 0 -323.5 -71t-264 -191.5t-175.5 -288t-65 -353.5q0 -121 34 -219t89.5 -161
t130 -106t151.5 -61t158 -18q229 0 425.5 145.5t336.5 417.5h31q-66 -139 -156.5 -255t-200.5 -202t-241.5 -134t-269.5 -48z" />
    <glyph glyph-name="Cacute.ss01" horiz-adv-x="1568" 
d="M1059 1647h-17q263 385 347 385q26 0 26 -23q0 -78 -356 -362zM707 -23q-267 0 -428.5 167t-161.5 434q0 188 79.5 371.5t208 319.5t301.5 220t351 84q136 0 269.5 -48.5t209.5 -123.5l-561 -983h-31l535 966q-100 67 -213.5 102.5t-218.5 35.5q-170 0 -323.5 -71
t-264 -191.5t-175.5 -288t-65 -353.5q0 -121 34 -219t89.5 -161t130 -106t151.5 -61t158 -18q229 0 425.5 145.5t336.5 417.5h31q-66 -139 -156.5 -255t-200.5 -202t-241.5 -134t-269.5 -48z" />
    <glyph glyph-name="Ccaron.ss01" horiz-adv-x="1568" 
d="M1075 1640q-29 0 -50.5 41.5t-74.5 188.5q-34 95 -57 155h27q7 -10 27 -40l27 -40.5t23.5 -36t24 -37.5t20.5 -33.5t21 -35.5t17 -31.5t16 -33.5q28 34 66.5 74t67 68t78 76t72.5 70h27q-32 -43 -87 -116q-129 -173 -171.5 -221t-73.5 -48zM707 -23q-267 0 -428.5 167
t-161.5 434q0 188 79.5 371.5t208 319.5t301.5 220t351 84q136 0 269.5 -48.5t209.5 -123.5l-561 -983h-31l535 966q-100 67 -213.5 102.5t-218.5 35.5q-170 0 -323.5 -71t-264 -191.5t-175.5 -288t-65 -353.5q0 -121 34 -219t89.5 -161t130 -106t151.5 -61t158 -18
q229 0 425.5 145.5t336.5 417.5h31q-66 -139 -156.5 -255t-200.5 -202t-241.5 -134t-269.5 -48z" />
    <glyph glyph-name="Ccedilla.ss01" horiz-adv-x="1568" 
d="M1544 616h31q-129 -272 -345 -445.5t-474 -190.5l-74 -97q67 0 100 -30t33 -78q0 -67 -59 -130t-142 -63q-56 0 -110 35l2 16q44 -20 94 -20q64 0 109 32.5t45 84.5q0 39 -33 65.5t-98 26.5l8 39l90 116h-14q-267 0 -428.5 167t-161.5 434q0 188 79.5 371.5t208 319.5
t301.5 220t351 84q136 0 269.5 -48.5t209.5 -123.5l-561 -983h-31l535 966q-100 67 -213.5 102.5t-218.5 35.5q-170 0 -323.5 -71t-264 -191.5t-175.5 -288t-65 -353.5q0 -121 34 -219t89.5 -161t130 -106t151.5 -61t158 -18q229 0 425.5 145.5t336.5 417.5z" />
    <glyph glyph-name="D.ss01" horiz-adv-x="1542" 
d="M733 -23q-73 0 -134 14.5t-98.5 34t-71.5 52t-49.5 54t-35.5 54.5l565 967h31l-534 -954q40 -78 130 -128.5t193 -50.5q126 0 252 84t220.5 218.5t154 312.5t59.5 356q0 254 -145.5 389.5t-409.5 135.5h-383l-295 -1516h-92l303 1556h533q285 0 442.5 -145.5
t157.5 -406.5q0 -187 -69 -375t-179 -330.5t-255 -232t-290 -89.5z" />
    <glyph glyph-name="Dcaron.ss01" horiz-adv-x="1542" 
d="M879 1653q-29 0 -50.5 41.5t-77.5 195.5q-11 29 -17 46t-17 46.5t-21 55.5h27q141 -211 176 -289q28 34 66.5 74t67.5 68.5t78.5 76.5t72.5 70h26q-36 -47 -94 -126q-143 -191 -179 -227q-33 -32 -58 -32zM733 -23q-73 0 -134 14.5t-98.5 34t-71.5 52t-49.5 54
t-35.5 54.5l565 967h31l-534 -954q40 -78 130 -128.5t193 -50.5q126 0 252 84t220.5 218.5t154 312.5t59.5 356q0 254 -145.5 389.5t-409.5 135.5h-383l-295 -1516h-92l303 1556h533q285 0 442.5 -145.5t157.5 -406.5q0 -187 -69 -375t-179 -330.5t-255 -232t-290 -89.5z
" />
    <glyph glyph-name="Dcroat.ss01" horiz-adv-x="1554" 
d="M406 1556h532q285 0 442.5 -145.5t157.5 -406.5q0 -187 -69 -375t-179 -330.5t-255 -232t-290 -89.5q-73 0 -134 14.5t-98.5 34t-71.5 52t-49.5 54t-35.5 54.5l566 967h30l-534 -954q40 -78 130 -128.5t193 -50.5q126 0 252 84t220.5 218.5t154 312.5t59.5 356
q0 254 -145.5 389.5t-409.5 135.5h-383l-139 -713h277l-11 -51h-276l-145 -752h-93l146 752h-129l10 51h129z" />
    <glyph glyph-name="G.ss01" horiz-adv-x="1521" 
d="M836 713l6 30h651l-29 -149q-24 -127 -82 -232.5t-134 -175.5t-169 -118t-186 -69.5t-186 -21.5q-264 0 -428 168t-164 433q0 185 81.5 367.5t212.5 319.5t305.5 222.5t350.5 85.5q151 0 286.5 -60.5t182.5 -111.5l-39 -31q-85 64 -207 108t-229 44q-55 0 -123.5 -14
t-149.5 -46t-159.5 -79t-152.5 -119.5t-130 -160.5t-89.5 -208.5t-33.5 -257.5q0 -271 157 -427.5t417 -156.5q240 0 404.5 141t217.5 414l17 88z" />
    <glyph glyph-name="Gbreve.ss01" horiz-adv-x="1521" 
d="M1004 1659q-52 0 -94.5 20t-76 65t-41 118.5t10.5 181.5h16q-13 -53 -6 -106.5t27 -96t67.5 -69.5t114.5 -27t123.5 26.5t95 70.5t63 95.5t35.5 106.5h17q-20 -103 -59 -180.5t-88.5 -120.5t-100.5 -63.5t-104 -20.5zM836 713l6 30h651l-29 -149q-24 -127 -82 -232.5
t-134 -175.5t-169 -118t-186 -69.5t-186 -21.5q-264 0 -428 168t-164 433q0 185 81.5 367.5t212.5 319.5t305.5 222.5t350.5 85.5q151 0 286.5 -60.5t182.5 -111.5l-39 -31q-85 64 -207 108t-229 44q-55 0 -123.5 -14t-149.5 -46t-159.5 -79t-152.5 -119.5t-130 -160.5
t-89.5 -208.5t-33.5 -257.5q0 -271 157 -427.5t417 -156.5q240 0 404.5 141t217.5 414l17 88z" />
    <glyph glyph-name="uni0122.ss01" horiz-adv-x="1521" 
d="M836 713l6 30h651l-29 -149q-24 -127 -82 -232.5t-134 -175.5t-169 -118t-186 -69.5t-186 -21.5q-264 0 -428 168t-164 433q0 185 81.5 367.5t212.5 319.5t305.5 222.5t350.5 85.5q151 0 286.5 -60.5t182.5 -111.5l-39 -31q-85 64 -207 108t-229 44q-55 0 -123.5 -14
t-149.5 -46t-159.5 -79t-152.5 -119.5t-130 -160.5t-89.5 -208.5t-33.5 -257.5q0 -271 157 -427.5t417 -156.5q240 0 404.5 141t217.5 414l17 88zM637 -102q36 0 55 -27.5t19 -69.5q0 -132 -189 -301h-22q131 134 131 197q0 24 -14.5 41t-31 25t-28 25.5t-6.5 43.5
q7 31 31 48.5t55 17.5z" />
    <glyph glyph-name="Gdotaccent.ss01" horiz-adv-x="1546" 
d="M1034 1731q-32 0 -50.5 18.5t-18.5 48.5q0 42 30.5 73.5t71.5 31.5q32 0 51 -19t19 -49q0 -41 -31 -72.5t-72 -31.5zM836 713l6 30h651l-29 -149q-24 -127 -82 -232.5t-134 -175.5t-169 -118t-186 -69.5t-186 -21.5q-264 0 -428 168t-164 433q0 185 81.5 367.5
t212.5 319.5t305.5 222.5t350.5 85.5q151 0 286.5 -60.5t182.5 -111.5l-39 -31q-85 64 -207 108t-229 44q-55 0 -123.5 -14t-149.5 -46t-159.5 -79t-152.5 -119.5t-130 -160.5t-89.5 -208.5t-33.5 -257.5q0 -271 157 -427.5t417 -156.5q240 0 404.5 141t217.5 414l17 88z
" />
    <glyph glyph-name="J.ss01" horiz-adv-x="858" 
d="M291 -23q-56 0 -105.5 16t-90 47.5t-69 61.5t-61.5 72l578 959h30l-559 -945q51 -79 108 -107t130 -28q40 0 75.5 9.5t62.5 23t50.5 38t40 45.5t31.5 54.5t23.5 56.5t18 60t13.5 56t11 53l215 1107h92l-221 -1142q-6 -30 -9.5 -46t-13.5 -55t-19.5 -64t-27 -64
t-36.5 -64.5t-47 -55t-59 -47t-72.5 -29.5t-88.5 -12z" />
    <glyph glyph-name="K.ss01" horiz-adv-x="946" 
d="M182 0h-92l303 1556h92l-141 -725l717 725h59l-735 -749l492 -807h-111l-442 725z" />
    <glyph glyph-name="uni0136.ss01" horiz-adv-x="946" 
d="M182 0h-92l303 1556h92l-141 -725l717 725h59l-735 -749l492 -807h-111l-442 725zM391 -102q36 0 55 -27.5t19 -69.5q0 -132 -189 -301h-22q131 134 131 197q0 24 -14.5 41t-31 25t-28 25.5t-6.5 43.5q7 31 31 48.5t55 17.5z" />
    <glyph glyph-name="P.ss01" horiz-adv-x="1202" 
d="M182 0h-92l303 1556h424q213 0 331 -94t118 -264q0 -151 -73 -285t-195 -214.5t-259 -80.5q-116 0 -201.5 51t-125.5 122l338 569h30l-319 -555q36 -72 117.5 -113t166.5 -41q107 0 202.5 77.5t152.5 207t57 274.5q0 147 -84 226.5t-246 79.5h-350z" />
    <glyph glyph-name="Q.ss01" horiz-adv-x="1662" 
d="M1014 -422q-45 0 -88.5 8t-91 30.5t-83.5 57t-60.5 93t-26.5 133.5q0 19 4 77q-244 12 -392.5 191.5t-148.5 456.5q0 136 38.5 264t105 230.5t156.5 188.5t192 143.5t212 89.5t216 32q173 0 308.5 -82.5t210 -229t74.5 -331.5q0 -181 -74.5 -349.5t-194 -290.5
t-269 -203.5t-301.5 -102.5q-20 -180 55.5 -270.5t200.5 -90.5q104 0 192.5 58t155.5 147h33q-18 -28 -41.5 -57t-63.5 -65t-84.5 -63t-106.5 -46t-128 -19zM760 53q62 0 131 15t144 48.5t145.5 81t134 118t110.5 154.5t75 195.5t28 235.5q0 128 -30 231t-80 170t-119.5 112
t-145 64t-158.5 19q-162 0 -305.5 -70t-243 -186.5t-157.5 -271.5t-58 -322q0 -123 31 -224t83 -168.5t121 -114t143 -67t151 -20.5z" />
    <glyph glyph-name="R.ss01" horiz-adv-x="1206" 
d="M182 0h-92l303 1556h428q204 0 326.5 -95t122.5 -255q0 -102 -44 -199.5t-116 -168.5t-169 -114.5t-200 -43.5q-81 0 -123 35l336 -715h-114l-387 887l505 377h31l-442 -355l31 -69q56 -127 151 -127q97 0 181 47t138.5 122.5t85.5 167t31 183.5q0 132 -87 207.5
t-271 75.5h-330z" />
    <glyph glyph-name="Racute.ss01" horiz-adv-x="1206" 
d="M836 1659h-17q263 385 346 385q27 0 27 -23q0 -78 -356 -362zM182 0h-92l303 1556h428q204 0 326.5 -95t122.5 -255q0 -102 -44 -199.5t-116 -168.5t-169 -114.5t-200 -43.5q-81 0 -123 35l336 -715h-114l-387 887l505 377h31l-442 -355l31 -69q56 -127 151 -127
q97 0 181 47t138.5 122.5t85.5 167t31 183.5q0 132 -87 207.5t-271 75.5h-330z" />
    <glyph glyph-name="Rcaron.ss01" horiz-adv-x="1206" 
d="M852 1653q-29 0 -50.5 41.5t-74.5 188.5q-34 95 -57 155h26q141 -211 176 -289q28 34 66.5 74t67.5 68.5t78.5 76.5t72.5 70h27q-32 -43 -87 -116q-129 -173 -171.5 -221t-73.5 -48zM182 0h-92l303 1556h428q204 0 326.5 -95t122.5 -255q0 -102 -44 -199.5t-116 -168.5
t-169 -114.5t-200 -43.5q-81 0 -123 35l336 -715h-114l-387 887l505 377h31l-442 -355l31 -69q56 -127 151 -127q97 0 181 47t138.5 122.5t85.5 167t31 183.5q0 132 -87 207.5t-271 75.5h-330z" />
    <glyph glyph-name="uni0156.ss01" horiz-adv-x="1206" 
d="M182 0h-92l303 1556h428q204 0 326.5 -95t122.5 -255q0 -102 -44 -199.5t-116 -168.5t-169 -114.5t-200 -43.5q-81 0 -123 35l336 -715h-114l-387 887l505 377h31l-442 -355l31 -69q56 -127 151 -127q97 0 181 47t138.5 122.5t85.5 167t31 183.5q0 132 -87 207.5
t-271 75.5h-330zM485 -102q36 0 55 -27.5t19 -69.5q0 -132 -188 -301h-23q131 134 131 197q0 24 -14.5 41t-31 25t-28 25.5t-6.5 43.5q7 31 31 48.5t55 17.5z" />
    <glyph glyph-name="S.ss01" horiz-adv-x="1114" 
d="M1147 1407l-387 -549q131 -43 202.5 -119t71.5 -198q0 -152 -82.5 -282t-224.5 -206t-309 -76q-93 0 -173 24.5t-133.5 64t-88 81t-52.5 84.5l449 609q-89 46 -133.5 107t-44.5 149q0 92 36 178t100.5 152.5t161.5 106.5t210 40q243 0 397 -166zM299 1165
q0 -75 48.5 -130t148.5 -95l186 252h31l-191 -264q77 -28 189 -56l16 -4l356 521q-41 55 -146.5 94t-201.5 39q-116 0 -216.5 -48.5t-160 -131t-59.5 -177.5zM426 29q147 0 271.5 61.5t197 167t72.5 229.5q0 103 -69.5 163t-203.5 95q-6 3 -12 3l-240 -340h-30l239 350
q-10 3 -32 8.5t-29.5 7.5t-24 6.5t-23 6.5l-19.5 6t-20 6.5t-17 6.5t-19 8t-18 9l-414 -575q38 -99 145 -159t246 -60z" />
    <glyph glyph-name="Sacute.ss01" horiz-adv-x="1114" 
d="M1102 2021q0 -78 -357 -362h-16q263 385 346 385q27 0 27 -23zM1147 1407l-387 -549q131 -43 202.5 -119t71.5 -198q0 -152 -82.5 -282t-224.5 -206t-309 -76q-93 0 -173 24.5t-133.5 64t-88 81t-52.5 84.5l449 609q-89 46 -133.5 107t-44.5 149q0 92 36 178t100.5 152.5
t161.5 106.5t210 40q243 0 397 -166zM299 1165q0 -75 48.5 -130t148.5 -95l186 252h31l-191 -264q77 -28 189 -56l16 -4l356 521q-41 55 -146.5 94t-201.5 39q-116 0 -216.5 -48.5t-160 -131t-59.5 -177.5zM426 29q147 0 271.5 61.5t197 167t72.5 229.5q0 103 -69.5 163
t-203.5 95q-6 3 -12 3l-240 -340h-30l239 350q-10 3 -32 8.5t-29.5 7.5t-24 6.5t-23 6.5l-19.5 6t-20 6.5t-17 6.5t-19 8t-18 9l-414 -575q38 -99 145 -159t246 -60z" />
    <glyph glyph-name="Scaron.ss01" horiz-adv-x="1114" 
d="M762 1653q-29 0 -50.5 41.5t-74.5 188.5q-34 95 -57 155h26q141 -211 176 -289q28 34 66.5 74t67.5 68.5t78.5 76.5t72.5 70h27q-32 -43 -87 -116q-129 -173 -171.5 -221t-73.5 -48zM1147 1407l-387 -549q131 -43 202.5 -119t71.5 -198q0 -152 -82.5 -282t-224.5 -206
t-309 -76q-93 0 -173 24.5t-133.5 64t-88 81t-52.5 84.5l449 609q-89 46 -133.5 107t-44.5 149q0 92 36 178t100.5 152.5t161.5 106.5t210 40q243 0 397 -166zM299 1165q0 -75 48.5 -130t148.5 -95l186 252h31l-191 -264q77 -28 189 -56l16 -4l356 521q-41 55 -146.5 94
t-201.5 39q-116 0 -216.5 -48.5t-160 -131t-59.5 -177.5zM426 29q147 0 271.5 61.5t197 167t72.5 229.5q0 103 -69.5 163t-203.5 95q-6 3 -12 3l-240 -340h-30l239 350q-10 3 -32 8.5t-29.5 7.5t-24 6.5t-23 6.5l-19.5 6t-20 6.5t-17 6.5t-19 8t-18 9l-414 -575
q38 -99 145 -159t246 -60z" />
    <glyph glyph-name="Scedilla.ss01" horiz-adv-x="1114" 
d="M1147 1407l-387 -549q131 -43 202.5 -119t71.5 -198q0 -217 -160.5 -378t-394.5 -183l-76 -97q67 0 100.5 -30.5t33.5 -77.5q0 -67 -59 -130t-142 -63q-57 0 -111 35l2 16q44 -20 95 -20q64 0 108.5 32.5t44.5 84.5q0 39 -33 65.5t-98 26.5l8 39l90 116h-24
q-93 0 -173 24.5t-133.5 64t-88 81t-52.5 84.5l449 609q-89 46 -133.5 107t-44.5 149q0 92 36 178t100.5 152.5t161.5 106.5t210 40q243 0 397 -166zM299 1165q0 -75 48.5 -130t148.5 -95l186 252h31l-191 -264q77 -28 189 -56l16 -4l356 521q-41 55 -146.5 94t-201.5 39
q-116 0 -216.5 -48.5t-160 -131t-59.5 -177.5zM426 29q147 0 271.5 61.5t197 167t72.5 229.5q0 103 -69.5 163t-203.5 95q-6 3 -12 3l-240 -340h-30l239 350q-10 3 -32 8.5t-29.5 7.5t-24 6.5t-23 6.5l-19.5 6t-20 6.5t-17 6.5t-19 8t-18 9l-414 -575q38 -99 145 -159
t246 -60z" />
    <glyph glyph-name="uni0218.ss01" horiz-adv-x="1114" 
d="M1147 1407l-387 -549q131 -43 202.5 -119t71.5 -198q0 -152 -82.5 -282t-224.5 -206t-309 -76q-93 0 -173 24.5t-133.5 64t-88 81t-52.5 84.5l449 609q-89 46 -133.5 107t-44.5 149q0 92 36 178t100.5 152.5t161.5 106.5t210 40q243 0 397 -166zM299 1165
q0 -75 48.5 -130t148.5 -95l186 252h31l-191 -264q77 -28 189 -56l16 -4l356 521q-41 55 -146.5 94t-201.5 39q-116 0 -216.5 -48.5t-160 -131t-59.5 -177.5zM426 29q147 0 271.5 61.5t197 167t72.5 229.5q0 103 -69.5 163t-203.5 95q-6 3 -12 3l-240 -340h-30l239 350
q-10 3 -32 8.5t-29.5 7.5t-24 6.5t-23 6.5l-19.5 6t-20 6.5t-17 6.5t-19 8t-18 9l-414 -575q38 -99 145 -159t246 -60zM391 -102q36 0 55 -27.5t19 -69.5q0 -132 -189 -301h-22q131 134 131 197q0 24 -14.5 41t-31 25t-28 25.5t-6.5 43.5q7 31 31 48.5t55 17.5z" />
    <glyph glyph-name="Y.ss01" horiz-adv-x="1286" 
d="M518 0h-88l369 592q-136 -107 -273 -107q-49 0 -85.5 11.5t-59 39.5t-37.5 57t-18 81t-3.5 92.5t9 112t17 119t22.5 132.5q68 406 -119 406h-51l4 20h84q105 0 152.5 -52.5t45.5 -154t-30 -249.5q-14 -69 -22.5 -123t-13.5 -114.5t-2 -106t14.5 -88.5t33.5 -70.5
t58.5 -44t86.5 -16.5q26 0 50 7t64.5 30.5t94 82.5t115.5 150l471 749h88z" />
    <glyph glyph-name="Yacute.ss01" horiz-adv-x="1286" 
d="M850 1659h-16q263 385 346 385q26 0 26 -23q0 -78 -356 -362zM518 0h-88l369 592q-136 -107 -273 -107q-49 0 -85.5 11.5t-59 39.5t-37.5 57t-18 81t-3.5 92.5t9 112t17 119t22.5 132.5q68 406 -119 406h-51l4 20h84q105 0 152.5 -52.5t45.5 -154t-30 -249.5
q-14 -69 -22.5 -123t-13.5 -114.5t-2 -106t14.5 -88.5t33.5 -70.5t58.5 -44t86.5 -16.5q26 0 50 7t64.5 30.5t94 82.5t115.5 150l471 749h88z" />
    <glyph glyph-name="Ycircumflex.ss01" horiz-adv-x="1286" 
d="M637 1618h-16q43 57 88 117t69.5 94t50.5 68.5t40 51t29 31t25 19t21 4.5t19.5 -4.5t17 -18.5t16 -31t19.5 -51t23.5 -68.5t32.5 -94t42 -117.5h-16q-10 15 -40.5 62t-41.5 64.5t-32 51.5t-34.5 59.5t-25.5 51.5q-28 -34 -68.5 -76t-63.5 -65t-83 -79.5t-72 -68.5zM518 0
h-88l369 592q-136 -107 -273 -107q-49 0 -85.5 11.5t-59 39.5t-37.5 57t-18 81t-3.5 92.5t9 112t17 119t22.5 132.5q68 406 -119 406h-51l4 20h84q105 0 152.5 -52.5t45.5 -154t-30 -249.5q-14 -69 -22.5 -123t-13.5 -114.5t-2 -106t14.5 -88.5t33.5 -70.5t58.5 -44
t86.5 -16.5q26 0 50 7t64.5 30.5t94 82.5t115.5 150l471 749h88z" />
    <glyph glyph-name="Ydieresis.ss01" horiz-adv-x="1286" 
d="M698 1739q-29 0 -46 16t-17 43q0 40 28 69t66 29q32 0 50 -17t18 -44q0 -40 -29 -68t-70 -28zM965 1739q-29 0 -46.5 16.5t-17.5 42.5q0 40 28 69t66 29q32 0 50 -17t18 -44q0 -40 -28.5 -68t-69.5 -28zM518 0h-88l369 592q-136 -107 -273 -107q-49 0 -85.5 11.5
t-59 39.5t-37.5 57t-18 81t-3.5 92.5t9 112t17 119t22.5 132.5q68 406 -119 406h-51l4 20h84q105 0 152.5 -52.5t45.5 -154t-30 -249.5q-14 -69 -22.5 -123t-13.5 -114.5t-2 -106t14.5 -88.5t33.5 -70.5t58.5 -44t86.5 -16.5q26 0 50 7t64.5 30.5t94 82.5t115.5 150l471 749
h88z" />
    <glyph glyph-name="Ygrave.ss01" horiz-adv-x="1286" 
d="M872 1659h-16q-356 290 -356 362q0 23 26 23q83 0 346 -385zM518 0h-88l369 592q-136 -107 -273 -107q-49 0 -85.5 11.5t-59 39.5t-37.5 57t-18 81t-3.5 92.5t9 112t17 119t22.5 132.5q68 406 -119 406h-51l4 20h84q105 0 152.5 -52.5t45.5 -154t-30 -249.5
q-14 -69 -22.5 -123t-13.5 -114.5t-2 -106t14.5 -88.5t33.5 -70.5t58.5 -44t86.5 -16.5q26 0 50 7t64.5 30.5t94 82.5t115.5 150l471 749h88z" />
    <glyph glyph-name="Z.ss01" horiz-adv-x="1089" 
d="M1176 1556l6 -20l-355 -485l101 -1028l-4 -23h-953l-6 20l426 576l-94 938l4 22h875zM348 1495l76 -854l631 854h-707zM100 61h766l-67 955l-363 -496l27 -309h-33l-27 264z" />
    <glyph glyph-name="Zacute.ss01" horiz-adv-x="1089" 
d="M1108 2021q0 -78 -356 -362h-17q263 385 346 385q27 0 27 -23zM1176 1556l6 -20l-355 -485l101 -1028l-4 -23h-953l-6 20l426 576l-94 938l4 22h875zM348 1495l76 -854l631 854h-707zM100 61h766l-67 955l-363 -496l27 -309h-33l-27 264z" />
    <glyph glyph-name="Zcaron.ss01" horiz-adv-x="1089" 
d="M768 1653q-29 0 -50.5 41.5t-74.5 188.5q-34 95 -57 155h26q141 -211 176 -289q28 34 66.5 74t67.5 68.5t78.5 76.5t72.5 70h27q-32 -43 -87 -116q-129 -173 -171.5 -221t-73.5 -48zM1176 1556l6 -20l-355 -485l101 -1028l-4 -23h-953l-6 20l426 576l-94 938l4 22h875z
M348 1495l76 -854l631 854h-707zM100 61h766l-67 955l-363 -496l27 -309h-33l-27 264z" />
    <glyph glyph-name="Zdotaccent.ss01" horiz-adv-x="1089" 
d="M799 1731q-32 0 -51 18.5t-19 48.5q0 42 30.5 73.5t71.5 31.5q32 0 51 -19t19 -49q0 -41 -30.5 -72.5t-71.5 -31.5zM1176 1556l6 -20l-355 -485l101 -1028l-4 -23h-953l-6 20l426 576l-94 938l4 22h875zM348 1495l76 -854l631 854h-707zM100 61h766l-67 955l-363 -496
l27 -309h-33l-27 264z" />
    <glyph glyph-name="B.ss02" horiz-adv-x="1277" 
d="M614 0h-524l303 1556h410q216 0 334 -88.5t118 -234.5q0 -152 -107.5 -282t-268.5 -173q143 -26 224 -100.5t81 -198.5q0 -209 -160.5 -344t-409.5 -135zM715 795q184 0 312 134t128 328q0 259 -377 259h-301l-94 -488q98 -233 332 -233zM381 1018l-193 -985h422
q90 0 166.5 26t131 69.5t92.5 101.5t56.5 123t18.5 132q0 135 -96.5 206t-263.5 71q-257 0 -334 256z" />
    <glyph glyph-name="P.ss02" horiz-adv-x="1202" 
d="M393 1556h344q244 0 387.5 -93t143.5 -263q0 -153 -79 -288t-211 -214.5t-282 -79.5q-86 0 -150 19.5t-117 68t-85 128.5l-162 -834h-92zM702 651q88 0 172 45t146 119t99.5 174t37.5 205q0 154 -109.5 238t-297.5 84h-273l-131 -672q101 -193 356 -193z" />
    <glyph glyph-name="R.ss02" horiz-adv-x="1220" 
d="M1268 1200q0 -114 -45 -218t-121 -179t-181.5 -119.5t-220.5 -44.5q-40 0 -77 6l401 -645h-111l-473 760q-46 58 -80 155l2 11q61 -135 143 -194.5t202 -59.5t224 70.5t165 191t61 260.5q0 154 -109.5 238t-297.5 84h-273l-295 -1516h-92l303 1556h344q244 0 387.5 -93
t143.5 -263z" />
    <glyph glyph-name="Racute.ss02" horiz-adv-x="1220" 
d="M1192 2021q0 -78 -356 -362h-17q263 385 346 385q27 0 27 -23zM1268 1200q0 -114 -45 -218t-121 -179t-181.5 -119.5t-220.5 -44.5q-40 0 -77 6l401 -645h-111l-473 760q-46 58 -80 155l2 11q61 -135 143 -194.5t202 -59.5t224 70.5t165 191t61 260.5q0 154 -109.5 238
t-297.5 84h-273l-295 -1516h-92l303 1556h344q244 0 387.5 -93t143.5 -263z" />
    <glyph glyph-name="Rcaron.ss02" horiz-adv-x="1220" 
d="M852 1653q-29 0 -50.5 41.5t-74.5 188.5q-34 95 -57 155h26q141 -211 176 -289q28 34 66.5 74t67.5 68.5t78.5 76.5t72.5 70h27q-32 -43 -87 -116q-129 -173 -171.5 -221t-73.5 -48zM1268 1200q0 -114 -45 -218t-121 -179t-181.5 -119.5t-220.5 -44.5q-40 0 -77 6
l401 -645h-111l-473 760q-46 58 -80 155l2 11q61 -135 143 -194.5t202 -59.5t224 70.5t165 191t61 260.5q0 154 -109.5 238t-297.5 84h-273l-295 -1516h-92l303 1556h344q244 0 387.5 -93t143.5 -263z" />
    <glyph glyph-name="uni0156.ss02" horiz-adv-x="1220" 
d="M1268 1200q0 -114 -45 -218t-121 -179t-181.5 -119.5t-220.5 -44.5q-40 0 -77 6l401 -645h-111l-473 760q-46 58 -80 155l2 11q61 -135 143 -194.5t202 -59.5t224 70.5t165 191t61 260.5q0 154 -109.5 238t-297.5 84h-273l-295 -1516h-92l303 1556h344q244 0 387.5 -93
t143.5 -263zM485 -102q36 0 55 -27.5t19 -69.5q0 -132 -188 -301h-23q131 134 131 197q0 24 -14.5 41t-31 25t-28 25.5t-6.5 43.5q7 31 31 48.5t55 17.5z" />
    <glyph glyph-name="i.loclTRK" 
d="M326 1198q-32 0 -51 19t-19 49q0 41 30.5 72.5t71.5 31.5q32 0 51 -18.5t19 -48.5q0 -42 -30.5 -73.5t-71.5 -31.5zM121 0h-82l199 1024h81z" />
    <glyph glyph-name="a.ss01" horiz-adv-x="874" 
d="M211 -23q-101 0 -160 55.5t-59 149.5q0 366 672 468q16 2 22 3l12 62q13 82 5 138t-39 90.5t-68.5 49.5t-81.5 15q-76 0 -166 -40.5t-149 -99.5l-21 19q164 168 381 168q287 0 229 -303l-145 -752h-84l49 254q-17 -33 -48 -74t-81 -89.5t-121 -81t-147 -32.5zM244 37
q105 0 205.5 77.5t166.5 178.5l64 330q-160 -29 -255 -62q-302 -106 -335 -311q-4 -24 -4 -49q0 -71 40 -117.5t118 -46.5z" />
    <glyph glyph-name="aacute.ss01" horiz-adv-x="874" 
d="M535 1126h-17q263 385 346 385q27 0 27 -22q0 -79 -356 -363zM211 -23q-101 0 -160 55.5t-59 149.5q0 366 672 468q16 2 22 3l12 62q13 82 5 138t-39 90.5t-68.5 49.5t-81.5 15q-76 0 -166 -40.5t-149 -99.5l-21 19q164 168 381 168q287 0 229 -303l-145 -752h-84l49 254
q-17 -33 -48 -74t-81 -89.5t-121 -81t-147 -32.5zM244 37q105 0 205.5 77.5t166.5 178.5l64 330q-160 -29 -255 -62q-302 -106 -335 -311q-4 -24 -4 -49q0 -71 40 -117.5t118 -46.5z" />
    <glyph glyph-name="abreve.ss01" horiz-adv-x="874" 
d="M551 1126q-52 0 -94.5 20t-76 65t-41 118.5t10.5 181.5h17q-13 -53 -6 -106.5t26.5 -96t67 -69.5t114.5 -27t124 26.5t95.5 70.5t63 95.5t35.5 106.5h16q-20 -103 -59 -180.5t-88.5 -120.5t-100.5 -63.5t-104 -20.5zM211 -23q-101 0 -160 55.5t-59 149.5q0 366 672 468
q16 2 22 3l12 62q13 82 5 138t-39 90.5t-68.5 49.5t-81.5 15q-76 0 -166 -40.5t-149 -99.5l-21 19q164 168 381 168q287 0 229 -303l-145 -752h-84l49 254q-17 -33 -48 -74t-81 -89.5t-121 -81t-147 -32.5zM244 37q105 0 205.5 77.5t166.5 178.5l64 330q-160 -29 -255 -62
q-302 -106 -335 -311q-4 -24 -4 -49q0 -71 40 -117.5t118 -46.5z" />
    </font>
</defs>
</svg>
