<?xml version="1.0" standalone="no"?>
<!DOCTYPE svg PUBLIC "-//W3C//DTD SVG 1.1//EN" "http://www.w3.org/Graphics/SVG/1.1/DTD/svg11.dtd" >
<svg xmlns="http://www.w3.org/2000/svg" xmlns:xlink="http://www.w3.org/1999/xlink" version="1.1">
<metadata>
Created by FontForge 20170731 at Tue Feb  2 19:49:28 2021
 By Aleksey,,,
Copyright (C)2015 Commercial Type.
</metadata>
<defs>
<font id="GraphikLC-Black" horiz-adv-x="1228" >
  <font-face 
    font-family="Graphik LC Black"
    font-weight="900"
    font-stretch="normal"
    units-per-em="2048"
    panose-1="2 11 10 3 3 2 2 6 2 3"
    ascent="1675"
    descent="-373"
    x-height="1071"
    cap-height="1464"
    bbox="-504 -477 2492 2339"
    underline-thickness="135"
    underline-position="-323"
    unicode-range="U+0020-FB02"
  />
<missing-glyph horiz-adv-x="1024" 
 />
    <glyph glyph-name="f_f" unicode="ff" horiz-adv-x="1497" 
d="M154 0v801h-131v270h131v68q0 200 116.5 300.5t319.5 100.5q84 0 170 -22v-291q-44 14 -90 14q-57 0 -85 -28.5t-28 -75.5v-66h289v80q0 200 118.5 300.5t321.5 100.5q94 0 174 -22v-289q-50 12 -96 12q-57 0 -86 -28.5t-29 -75.5v-78h209v-270h-209v-801h-403v801h-289
v-801h-403z" />
    <glyph glyph-name=".notdef" horiz-adv-x="1024" 
 />
    <glyph glyph-name=".null" horiz-adv-x="0" 
 />
    <glyph glyph-name="nonmarkingreturn" horiz-adv-x="682" 
 />
    <glyph glyph-name="space" unicode=" " horiz-adv-x="378" 
 />
    <glyph glyph-name="exclam" unicode="!" horiz-adv-x="700" 
d="M182 494l-57 970h453l-60 -970h-336zM350 -25q-97 0 -165 63t-68 152q0 91 68 154.5t165 63.5t166.5 -64t69.5 -154q0 -89 -69.5 -152t-166.5 -63z" />
    <glyph glyph-name="quotedbl" unicode="&#x22;" horiz-adv-x="978" 
d="M573 889l-45 575h375l-45 -575h-285zM121 889l-45 575h375l-45 -575h-285z" />
    <glyph glyph-name="numbersign" unicode="#" horiz-adv-x="1206" 
d="M551 928l-19 -133h115l21 133h-117zM561 203l41 276h-117l-41 -276h-266l41 276h-135v316h182l19 133h-154v299h199l37 237h266l-37 -237h115l37 237h268l-37 -237h143v-299h-188l-19 -133h160v-316h-207l-41 -276h-266z" />
    <glyph glyph-name="dollar" unicode="$" horiz-adv-x="1333" 
d="M465 1059q0 -50 28.5 -77t98.5 -42v236q-62 -10 -94.5 -41t-32.5 -76zM881 416q0 45 -27.5 70t-95.5 42v-241q61 13 92 46.5t31 82.5zM592 -276v256q-262 18 -402 146t-149 339h408q13 -143 143 -174v266q-282 38 -402 145t-120 322q0 193 139.5 317.5t382.5 141.5v182
h166v-184q477 -39 510 -451h-400q-6 56 -31 90.5t-79 48.5v-251q126 -17 217.5 -46.5t165 -80.5t110.5 -131t37 -189q0 -98 -31.5 -181.5t-94 -150t-166 -108.5t-238.5 -51v-256h-166z" />
    <glyph glyph-name="percent" unicode="%" horiz-adv-x="1710" 
d="M444 737q-185 0 -291 106t-106 271q0 157 114 262t285 105q170 0 283 -101.5t113 -259.5q0 -166 -108 -274.5t-290 -108.5zM236 0l1038 1464h209l-1041 -1464h-206zM446 967q52 0 79.5 39t27.5 108t-27.5 107.5t-79.5 38.5t-80 -38.5t-28 -105.5q0 -71 28 -110t80 -39z
M1264 -27q-185 0 -290.5 106t-105.5 271q0 157 113.5 262t284.5 105q172 0 284.5 -101t112.5 -260q0 -165 -108.5 -274t-290.5 -109zM1266 203q52 0 79 39t27 108t-27 107.5t-79 38.5t-80.5 -38.5t-28.5 -105.5q0 -71 28.5 -110t80.5 -39z" />
    <glyph glyph-name="ampersand" unicode="&#x26;" horiz-adv-x="1591" 
d="M686 1087q0 -62 80 -149q131 66 131 160q0 48 -27.5 77t-72.5 29q-48 0 -79.5 -32t-31.5 -85zM657 297q69 0 117 45l-215 260q-74 -55 -74 -135q0 -76 44 -123t128 -47zM1565 764l-236 -465l244 -299h-522l-76 94q-79 -58 -169 -89.5t-224 -31.5q-242 0 -383.5 119
t-141.5 332q0 272 320 422q-82 122 -82 248q0 123 67 213t177.5 134t248.5 44q93 0 175.5 -22.5t146.5 -64.5t101.5 -109.5t37.5 -151.5q0 -120 -70.5 -208.5t-220.5 -152.5l162 -198l94 186h351z" />
    <glyph glyph-name="quotesingle" unicode="'" horiz-adv-x="540" 
d="M121 889l-45 575h389l-45 -575h-299z" />
    <glyph glyph-name="parenleft" unicode="(" horiz-adv-x="741" 
d="M414 -303q-342 409 -342 946q0 535 342 944h307q-266 -429 -266 -944q0 -517 266 -946h-307z" />
    <glyph glyph-name="parenright" unicode=")" horiz-adv-x="741" 
d="M20 -301q267 431 267 944q0 515 -267 946h308q342 -409 342 -946q0 -535 -342 -944h-308z" />
    <glyph glyph-name="asterisk" unicode="*" horiz-adv-x="909" 
d="M346 743l-240 170l185 177l-238 20l76 274l221 -110l-53 248h315l-53 -248l221 110l74 -274l-238 -20l185 -177l-240 -170l-108 234z" />
    <glyph glyph-name="plus" unicode="+" horiz-adv-x="1185" 
d="M432 162v389h-354v291h354v387h322v-387h356v-291h-356v-389h-322z" />
    <glyph glyph-name="comma" unicode="," horiz-adv-x="636" 
d="M262 -250l-235 88l166 557l372 -129z" />
    <glyph glyph-name="hyphen" unicode="-" horiz-adv-x="798" 
d="M100 438v299h598v-299h-598z" />
    <glyph glyph-name="period" unicode="." horiz-adv-x="618" 
d="M307 -25q-96 0 -160.5 64t-64.5 158q0 92 64.5 155.5t160.5 63.5q98 0 164 -64t66 -155q0 -94 -66 -158t-164 -64z" />
    <glyph glyph-name="slash" unicode="/" horiz-adv-x="901" 
d="M-61 -303l659 1892h317l-659 -1892h-317z" />
    <glyph glyph-name="zero" unicode="0" horiz-adv-x="1517" 
d="M750 -27q-319 0 -501.5 191t-182.5 538v58q0 172 53 311t146.5 229t219.5 138.5t273 48.5q148 0 273 -44.5t219.5 -131t148 -225.5t53.5 -316v-55q0 -350 -189 -546t-513 -196zM764 332q121 0 174 90.5t53 284.5v53q0 194 -54.5 284.5t-176.5 90.5q-123 0 -178.5 -90
t-55.5 -283v-57q0 -194 56 -283.5t182 -89.5z" />
    <glyph glyph-name="one" unicode="1" horiz-adv-x="940" 
d="M334 0v1008l-271 -162v385l336 233h400v-1464h-465z" />
    <glyph glyph-name="two" unicode="2" horiz-adv-x="1282" 
d="M14 0v63l498 529q126 136 186 226.5t60 174.5q0 66 -33.5 106t-99.5 40q-73 0 -115 -51.5t-55 -169.5h-418q9 281 169 425t441 144q272 0 419.5 -130.5t147.5 -342.5q0 -144 -68 -260.5t-204 -247.5l-168 -162h453v-344h-1213z" />
    <glyph glyph-name="three" unicode="3" horiz-adv-x="1353" 
d="M682 -27q-607 0 -629 519h412q8 -90 52 -138.5t136 -48.5q166 0 166 148q0 149 -172 149h-117v281h111q178 0 178 147q0 59 -37.5 93t-109.5 34q-147 0 -172 -172h-410q16 233 166 367.5t428 134.5q266 0 417.5 -109t151.5 -297q0 -121 -65.5 -201t-186.5 -114
q130 -24 208.5 -111t78.5 -215q0 -216 -156.5 -341.5t-449.5 -125.5z" />
    <glyph glyph-name="four" unicode="4" horiz-adv-x="1411" 
d="M737 0v274h-708v177l602 1013h553v-872h184v-318h-184v-274h-447zM455 592h295v522z" />
    <glyph glyph-name="five" unicode="5" horiz-adv-x="1308" 
d="M637 -27q-146 0 -259.5 38t-184 106t-107.5 157.5t-39 196.5h420q10 -74 46.5 -111.5t121.5 -37.5q75 0 111 50t36 130q0 88 -45 136t-131 48q-147 0 -223 -98h-285l37 876h1018v-336h-686l-10 -299q110 164 350 164q204 0 322 -130.5t118 -368.5t-161.5 -379.5
t-448.5 -141.5z" />
    <glyph glyph-name="six" unicode="6" horiz-adv-x="1402" 
d="M733 -27q-141 0 -253 35t-189 97.5t-128 154t-74 200.5t-23 240v39q0 172 51.5 314t142 236.5t213 146t264.5 51.5q262 0 409.5 -113.5t170.5 -335.5h-426q-8 51 -37.5 79t-95.5 28q-222 0 -234 -350q55 82 131 124t205 42q100 0 187 -29.5t155 -85.5t107 -147.5
t39 -206.5q0 -234 -166 -376.5t-449 -142.5zM725 299q78 0 125 53.5t47 136.5q0 81 -46 134t-124 53t-126 -53.5t-48 -133.5q0 -83 47 -136.5t125 -53.5z" />
    <glyph glyph-name="seven" unicode="7" horiz-adv-x="1200" 
d="M215 0l393 1087h-561v377h1141v-47l-500 -1417h-473z" />
    <glyph glyph-name="eight" unicode="8" horiz-adv-x="1363" 
d="M682 -27q-297 0 -464 114t-167 325q0 125 67.5 218.5t198.5 139.5q-204 88 -204 299q0 98 45 178t123.5 132t182 80t222.5 28q165 0 293 -47.5t203 -142t75 -224.5q0 -211 -204 -301q130 -45 195 -134.5t65 -213.5q0 -211 -168 -331t-463 -120zM686 883q68 0 113 40.5
t45 106.5t-46 107t-112 41q-65 0 -110.5 -41t-45.5 -107q0 -64 45.5 -105.5t110.5 -41.5zM684 297q79 0 127.5 45t48.5 121q0 75 -48.5 121.5t-127.5 46.5q-80 0 -129 -45t-49 -123q0 -76 49.5 -121t128.5 -45z" />
    <glyph glyph-name="nine" unicode="9" horiz-adv-x="1402" 
d="M668 788q78 0 127 53t49 132q0 83 -48 136.5t-128 53.5q-77 0 -124.5 -53.5t-47.5 -136.5q0 -80 47 -132.5t125 -52.5zM670 -25q-267 0 -420.5 116t-173.5 333h424q18 -107 145 -107q119 0 173 86t59 261q-35 -54 -71.5 -87.5t-101 -57t-151.5 -23.5q-107 0 -196.5 29.5
t-157.5 86.5t-106 148t-38 207q0 234 167.5 378t451.5 144q167 0 295 -54t207.5 -152.5t120 -230t40.5 -292.5v-41q0 -356 -173 -550t-494 -194z" />
    <glyph glyph-name="colon" unicode=":" horiz-adv-x="630" 
d="M311 557q-96 0 -159.5 63t-63.5 156t63.5 157t159.5 64q99 0 165.5 -64t66.5 -157t-66.5 -156t-165.5 -63zM311 -25q-96 0 -159.5 64t-63.5 158q0 92 63.5 155.5t159.5 63.5q99 0 165.5 -63.5t66.5 -155.5q0 -94 -66.5 -158t-165.5 -64z" />
    <glyph glyph-name="semicolon" unicode=";" horiz-adv-x="667" 
d="M365 557q-96 0 -161 63t-65 156t65 157t161 64q98 0 163.5 -64t65.5 -157t-65.5 -156t-163.5 -63zM252 -250l-236 88l166 557l373 -129z" />
    <glyph glyph-name="less" unicode="&#x3c;" horiz-adv-x="1052" 
d="M958 109l-876 514v75l876 514v-364l-362 -184l362 -203v-352z" />
    <glyph glyph-name="equal" unicode="=" horiz-adv-x="1167" 
d="M78 739v269h1009v-269h-1009zM78 332v268h1009v-268h-1009z" />
    <glyph glyph-name="greater" unicode="&#x3e;" horiz-adv-x="1052" 
d="M94 111v362l363 186l-363 203v352l877 -516v-73z" />
    <glyph glyph-name="question" unicode="?" horiz-adv-x="1165" 
d="M342 494v26q0 55 16 104t51.5 95t59.5 71t72 70q35 33 51.5 49.5t39 43.5t31.5 51t9 49q0 106 -109 106q-57 0 -93.5 -43.5t-47.5 -120.5h-393q7 237 161.5 364.5t405.5 127.5q245 0 379.5 -102t134.5 -293q0 -91 -36.5 -162t-102.5 -139q-26 -26 -77 -71.5t-78.5 -72
t-55 -64t-35.5 -71.5v-18h-383zM535 -25q-100 0 -169 63t-69 152q0 91 69 154.5t169 63.5q97 0 165 -63.5t68 -154.5q0 -89 -68 -152t-165 -63z" />
    <glyph glyph-name="at" unicode="@" horiz-adv-x="1888" 
d="M944 -328q-204 0 -373 65t-281.5 178.5t-174.5 267t-62 329.5q0 160 50 303.5t138 251.5t205 187t254.5 120t282.5 41q242 0 435 -90.5t305 -261t112 -393.5q0 -119 -25.5 -216t-68 -161.5t-101 -108t-123 -63t-135.5 -19.5q-263 0 -313 164q-81 -168 -268 -168
q-153 0 -244.5 104.5t-91.5 280.5q0 215 116 348.5t289 133.5q165 0 220 -117l14 100h326l-70 -565q-9 -62 12 -96.5t74 -34.5q93 0 157 105.5t64 318.5q0 268 -186 432t-494 164q-158 0 -296.5 -54t-241 -151.5t-161.5 -242t-59 -316.5q0 -149 46.5 -274.5t134.5 -219
t226.5 -146t313.5 -52.5q172 0 314 52.5t221 131.5h192q-105 -150 -301.5 -239t-431.5 -89zM909 358q63 0 105.5 64t42.5 160q0 60 -30 94.5t-89 34.5q-62 0 -100.5 -59.5t-38.5 -151.5q0 -62 28 -102t82 -40z" />
    <glyph glyph-name="A" unicode="A" horiz-adv-x="1556" 
d="M750 1090l-146 -531h289zM18 0l461 1464h600l459 -1464h-491l-68 244h-463l-65 -244h-433z" />
    <glyph glyph-name="B" unicode="B" horiz-adv-x="1413" 
d="M133 0v1464h692q131 0 229 -29t156.5 -81.5t86.5 -120.5t28 -152v-8q0 -126 -65 -206t-189 -109q136 -24 214.5 -109t78.5 -233v-8q0 -408 -543 -408h-688zM586 893h141q86 0 123 30.5t37 98.5v8q0 67 -38.5 99t-123.5 32h-139v-268zM586 305h147q174 0 174 154v8
q0 74 -44 111.5t-140 37.5h-137v-311z" />
    <glyph glyph-name="C" unicode="C" horiz-adv-x="1564" 
d="M836 -27q-194 0 -343.5 54t-244.5 153t-143 236t-48 307v16q0 222 99.5 393.5t271.5 263t387 91.5q305 0 487.5 -144t208.5 -434h-479q-11 102 -65 156.5t-150 54.5q-128 0 -199 -97.5t-71 -281.5v-16q0 -183 71.5 -281t206.5 -98q102 0 166 54t76 161h463
q-12 -188 -104.5 -322t-243.5 -200t-346 -66z" />
    <glyph glyph-name="D" unicode="D" horiz-adv-x="1538" 
d="M133 0v1464h559q391 0 591 -182t200 -532v-15q0 -353 -203 -544t-588 -191h-559zM598 356h78q170 0 246.5 88t76.5 281v16q0 198 -77 282.5t-248 84.5h-76v-752z" />
    <glyph glyph-name="E" unicode="E" horiz-adv-x="1269" 
d="M133 0v1464h1041v-356h-578v-207h459v-326h-459v-219h610v-356h-1073z" />
    <glyph glyph-name="F" unicode="F" horiz-adv-x="1198" 
d="M133 0v1464h1014v-358h-549v-272h442v-342h-442v-492h-465z" />
    <glyph glyph-name="G" unicode="G" horiz-adv-x="1619" 
d="M834 -27q-248 0 -425.5 96.5t-265.5 264t-88 389.5v16q0 220 102 391.5t279 264t398 92.5q109 0 207 -19.5t184.5 -63t151 -107t105.5 -156.5t48 -207h-459q-25 188 -235 188q-139 0 -218 -103t-79 -288v-16q0 -389 309 -389q128 0 192 52.5t72 133.5h-250v305h703v-188
q0 -139 -46 -257t-134.5 -207.5t-229.5 -140.5t-321 -51z" />
    <glyph glyph-name="H" unicode="H" horiz-adv-x="1626" 
d="M133 0v1464h465v-540h430v540h465v-1464h-465v563h-430v-563h-465z" />
    <glyph glyph-name="I" unicode="I" horiz-adv-x="749" 
d="M139 0v1464h469v-1464h-469z" />
    <glyph glyph-name="J" unicode="J" horiz-adv-x="1001" 
d="M344 -18q-178 0 -278 51v342q91 -27 174 -27q184 0 184 191v925h465v-927q0 -274 -136 -414.5t-409 -140.5z" />
    <glyph glyph-name="K" unicode="K" horiz-adv-x="1525" 
d="M133 0v1464h465v-555l406 555h481l-514 -676l542 -788h-534l-381 586v-586h-465z" />
    <glyph glyph-name="L" unicode="L" horiz-adv-x="1191" 
d="M133 0v1464h465v-1106h532v-358h-997z" />
    <glyph glyph-name="M" unicode="M" horiz-adv-x="1961" 
d="M133 0v1464h602l248 -710l252 710h590v-1464h-461v864l-334 -864h-156l-327 864v-864h-414z" />
    <glyph glyph-name="N" unicode="N" horiz-adv-x="1611" 
d="M133 0v1464h520l416 -774v774h408v-1464h-445l-489 877v-877h-410z" />
    <glyph glyph-name="O" unicode="O" horiz-adv-x="1679" 
d="M829 -27q-236 0 -412 95t-269 264.5t-93 390.5v16q0 221 104.5 393t282 263.5t396.5 91.5q227 0 403.5 -86t279.5 -254.5t103 -394.5v-17q0 -343 -217.5 -552.5t-577.5 -209.5zM842 338q138 0 218.5 103t80.5 284v16q0 183 -81.5 283t-221.5 100q-138 0 -217.5 -99.5
t-79.5 -283.5v-16q0 -185 80.5 -286t220.5 -101z" />
    <glyph glyph-name="P" unicode="P" horiz-adv-x="1359" 
d="M133 0v1464h584q602 0 602 -501v-9q0 -230 -149.5 -353.5t-432.5 -123.5h-141v-477h-463zM596 788h96q187 0 187 164v9q0 83 -46 120t-139 37h-98v-330z" />
    <glyph glyph-name="Q" unicode="Q" horiz-adv-x="1679" 
d="M1239 -258l-242 246q-99 -15 -168 -15q-236 0 -412 95t-269 264.5t-93 390.5v16q0 221 104.5 392.5t282 262.5t396.5 91q227 0 404 -85.5t280.5 -253.5t103.5 -394v-17q0 -191 -70 -344t-200 -254l137 -137zM539 725q0 -148 48 -243.5t136 -131.5l225 201l113 -117
q80 107 80 293v16q0 183 -81.5 282t-221.5 99q-139 0 -219 -98.5t-80 -284.5v-16z" />
    <glyph glyph-name="R" unicode="R" horiz-adv-x="1454" 
d="M596 801h109q190 0 190 160v8q0 78 -46 112.5t-142 34.5h-111v-315zM133 0v1464h598q302 0 457 -120t155 -355v-8q0 -271 -247 -383l334 -598h-488l-272 502h-74v-502h-463z" />
    <glyph glyph-name="S" unicode="S" horiz-adv-x="1337" 
d="M684 -27q-311 0 -474.5 124.5t-170.5 371.5h440q7 -78 53 -123t152 -45q80 0 121 32.5t41 88.5q0 57 -43.5 82t-165.5 43q-315 35 -440 139.5t-125 331.5q0 206 158 336.5t427 130.5q553 0 590 -467h-430q-16 141 -160 141q-70 0 -107.5 -28.5t-37.5 -77.5q0 -54 43 -81
t162 -42q97 -10 171 -25t141 -39t113.5 -58t80.5 -81.5t50.5 -111t16.5 -144.5q0 -103 -40 -193t-115 -158t-191.5 -107.5t-259.5 -39.5z" />
    <glyph glyph-name="T" unicode="T" horiz-adv-x="1288" 
d="M410 0v1108h-369v356h1206v-356h-370v-1108h-467z" />
    <glyph glyph-name="U" unicode="U" horiz-adv-x="1589" 
d="M795 -27q-324 0 -497 160t-173 471v860h463v-841q0 -151 44 -218t163 -67q118 0 161 67t43 220v839h467v-856q0 -162 -47 -284t-135.5 -198.5t-210.5 -114.5t-278 -38z" />
    <glyph glyph-name="V" unicode="V" horiz-adv-x="1517" 
d="M502 0l-484 1464h502l273 -981l272 981h434l-473 -1464h-524z" />
    <glyph glyph-name="W" unicode="W" horiz-adv-x="2066" 
d="M360 0l-340 1464h469l168 -874l177 874h403l199 -884l178 884h430l-340 -1464h-469l-205 874l-207 -874h-463z" />
    <glyph glyph-name="X" unicode="X" horiz-adv-x="1581" 
d="M37 0l446 754l-413 710h530l205 -411l201 411h475l-383 -694l448 -770h-528l-252 481l-252 -481h-477z" />
    <glyph glyph-name="Y" unicode="Y" horiz-adv-x="1417" 
d="M485 0v625l-475 839h504l223 -458l226 458h444l-455 -837v-627h-467z" />
    <glyph glyph-name="Z" unicode="Z" horiz-adv-x="1284" 
d="M20 0v49l586 1067h-504v348h1153v-49l-579 -1065h545v-350h-1201z" />
    <glyph glyph-name="bracketleft" unicode="[" horiz-adv-x="858" 
d="M125 -303v1892h657v-291h-250v-1310h250v-291h-657z" />
    <glyph glyph-name="backslash" unicode="\" horiz-adv-x="901" 
d="M645 -303l-659 1892h315l662 -1892h-318z" />
    <glyph glyph-name="bracketright" unicode="]" horiz-adv-x="858" 
d="M78 -303v291h246v1310h-246v291h653v-1892h-653z" />
    <glyph glyph-name="asciicircum" unicode="^" horiz-adv-x="1095" 
d="M39 801l336 663h346l336 -663h-340l-172 338l-174 -338h-332z" />
    <glyph glyph-name="underscore" unicode="_" horiz-adv-x="903" 
d="M-2 -330v183h907v-183h-907z" />
    <glyph glyph-name="grave" unicode="`" horiz-adv-x="819" 
d="M279 1184l-213 346h395l106 -346h-288z" />
    <glyph glyph-name="a" unicode="a" horiz-adv-x="1198" 
d="M551 244q70 0 114 36t44 95v55h-86q-102 0 -143.5 -22.5t-41.5 -79.5q0 -39 29 -61.5t84 -22.5zM406 -27q-75 0 -139 19t-115.5 57t-81 101.5t-29.5 146.5q0 184 144 267t431 83h93v19q0 78 -25 116.5t-100 38.5q-63 0 -92.5 -32.5t-34.5 -81.5h-377q12 193 152.5 294
t375.5 101q240 0 370 -101.5t130 -308.5v-692h-389v123q-39 -64 -116 -107t-197 -43z" />
    <glyph glyph-name="b" unicode="b" horiz-adv-x="1323" 
d="M825 -27q-116 0 -200 51t-125 140v-164h-404v1536h404v-621q49 82 131 133.5t196 51.5q93 0 173.5 -35t142.5 -102t97.5 -175t35.5 -245v-17q0 -137 -36 -244t-98.5 -173.5t-143 -101t-173.5 -34.5zM678 281q91 0 139.5 63.5t48.5 185.5v17q0 127 -49 190.5t-141 63.5
q-90 0 -138.5 -65.5t-48.5 -188.5v-17q0 -249 189 -249z" />
    <glyph glyph-name="c" unicode="c" horiz-adv-x="1200" 
d="M614 -27q-122 0 -225 34.5t-180 101.5t-120.5 172t-43.5 239v17q0 177 78.5 306.5t208.5 193t293 63.5q105 0 194.5 -24t165.5 -75t122.5 -140.5t53.5 -211.5h-379q-10 69 -43.5 105.5t-103.5 36.5q-180 0 -180 -246v-17q0 -132 45 -197t141 -65q70 0 113.5 42.5
t50.5 119.5h362q-8 -213 -148.5 -334t-404.5 -121z" />
    <glyph glyph-name="d" unicode="d" horiz-adv-x="1320" 
d="M643 281q91 0 139.5 63.5t48.5 187.5v17q0 122 -48 187t-138 65q-188 0 -188 -254v-17q0 -123 48 -186t138 -63zM494 -27q-93 0 -172.5 34t-141.5 99.5t-97.5 173t-35.5 244.5v17q0 136 35.5 244t97 176t141.5 103.5t173 35.5q232 0 327 -176v612h404v-1536h-404v172
q-42 -89 -126.5 -144t-200.5 -55z" />
    <glyph glyph-name="e" unicode="e" horiz-adv-x="1236" 
d="M637 -27q-173 0 -306 62.5t-210.5 188t-77.5 298.5v17q0 169 80.5 299t214.5 197t299 67q115 0 214 -33.5t176.5 -100t122 -175t44.5 -248.5v-99h-743q7 -96 60 -147t140 -51q146 0 168 114h377q-25 -187 -166.5 -288t-392.5 -101zM453 657h352q-3 88 -45.5 136.5
t-122.5 48.5q-75 0 -123.5 -48t-60.5 -137z" />
    <glyph glyph-name="f" unicode="f" horiz-adv-x="804" 
d="M154 0v801h-131v270h131v80q0 200 118.5 300.5t321.5 100.5q94 0 174 -22v-289q-50 12 -96 12q-57 0 -86 -28.5t-29 -75.5v-78h209v-270h-209v-801h-403z" />
    <glyph glyph-name="g" unicode="g" horiz-adv-x="1318" 
d="M643 350q89 0 138.5 59.5t49.5 161.5v15q0 100 -49.5 158.5t-138.5 58.5q-91 0 -139.5 -58t-48.5 -161v-17q0 -100 48.5 -158.5t139.5 -58.5zM612 -397q-527 0 -573 405h399q12 -58 51 -92.5t125 -34.5q205 0 205 205v166q-43 -83 -127 -136t-198 -53
q-192 0 -320.5 134.5t-128.5 373.5v17q0 234 128.5 374t318.5 140q231 0 327 -178v147h404v-979q0 -239 -156 -364t-455 -125z" />
    <glyph glyph-name="h" unicode="h" horiz-adv-x="1288" 
d="M96 0v1536h404v-637q48 91 137 146t217 55q158 0 251 -100.5t93 -294.5v-705h-403v614q0 83 -32.5 123.5t-103.5 40.5q-77 0 -118 -46.5t-41 -139.5v-592h-404z" />
    <glyph glyph-name="i" unicode="i" horiz-adv-x="620" 
d="M309 1151q-94 0 -156.5 57.5t-62.5 145.5q0 89 62.5 147t156.5 58q93 0 155 -58t62 -147q0 -87 -62 -145t-155 -58zM109 0v1071h401v-1071h-401z" />
    <glyph glyph-name="j" unicode="j" horiz-adv-x="620" 
d="M309 1151q-94 0 -156.5 57.5t-62.5 145.5q0 89 62.5 147t156.5 58q93 0 155 -58t62 -147q0 -87 -62 -145t-155 -58zM-18 -375v289q65 3 94.5 30.5t29.5 88.5v1038h404v-1048q0 -94 -24.5 -163.5t-82.5 -124t-163.5 -82.5t-257.5 -28z" />
    <glyph glyph-name="k" unicode="k" horiz-adv-x="1206" 
d="M96 0v1536h404v-870l260 405h414l-330 -479l356 -592h-446l-254 446v-446h-404z" />
    <glyph glyph-name="l" unicode="l" horiz-adv-x="614" 
d="M106 0v1536h402v-1536h-402z" />
    <glyph glyph-name="m" unicode="m" horiz-adv-x="1914" 
d="M96 0v1071h404v-164q49 84 135 138.5t203 54.5q211 0 286 -172q134 172 353 172q158 0 253 -101.5t95 -291.5v-707h-402v633q0 69 -32 106t-88 37q-67 0 -104.5 -42.5t-37.5 -119.5v-614h-399v633q0 69 -32.5 106t-86.5 37q-69 0 -106 -42.5t-37 -119.5v-614h-404z" />
    <glyph glyph-name="n" unicode="n" horiz-adv-x="1288" 
d="M96 0v1071h404v-172q48 91 137 146t217 55q158 0 251 -100.5t93 -294.5v-705h-403v614q0 83 -32.5 123.5t-103.5 40.5q-77 0 -118 -46.5t-41 -139.5v-592h-404z" />
    <glyph glyph-name="o" unicode="o" horiz-adv-x="1282" 
d="M641 -27q-126 0 -234 37t-189 105t-127 173t-46 234v17q0 128 46 234t126 177.5t190 110.5t236 39q168 0 302 -65t213 -191.5t79 -294.5v-17q0 -171 -79.5 -299.5t-214 -194t-302.5 -65.5zM643 270q184 0 184 260v15q0 258 -184 258q-93 0 -141.5 -63.5t-48.5 -188.5v-16
q0 -265 190 -265z" />
    <glyph glyph-name="p" unicode="p" horiz-adv-x="1323" 
d="M678 281q91 0 139.5 63.5t48.5 185.5v17q0 127 -49 190.5t-141 63.5q-90 0 -138.5 -65.5t-48.5 -188.5v-17q0 -249 189 -249zM96 -356v1427h404v-156q49 82 131 133.5t196 51.5q93 0 173.5 -35t142.5 -102t97.5 -175t35.5 -245v-17q0 -137 -36 -244t-98.5 -173.5
t-143 -101t-173.5 -34.5q-114 0 -198.5 49.5t-126.5 131.5v-510h-404z" />
    <glyph glyph-name="q" unicode="q" horiz-adv-x="1320" 
d="M821 -356v518q-43 -82 -128 -135.5t-199 -53.5q-93 0 -172.5 34t-141.5 99.5t-97.5 173t-35.5 244.5v17q0 136 35.5 244t97 176t141.5 103.5t173 35.5q232 0 327 -176v147h404v-1427h-404zM643 281q91 0 139.5 63.5t48.5 187.5v17q0 122 -48 187t-138 65
q-188 0 -188 -254v-17q0 -123 48 -186t138 -63z" />
    <glyph glyph-name="r" unicode="r" horiz-adv-x="897" 
d="M96 0v1071h404v-217q96 234 344 231v-376q-168 9 -256 -45.5t-88 -169.5v-494h-404z" />
    <glyph glyph-name="s" unicode="s" horiz-adv-x="1071" 
d="M535 -27q-237 0 -368.5 95.5t-135.5 275.5h368q10 -57 39 -84t94 -27q57 0 85 20.5t28 55.5q0 36 -41.5 56.5t-146.5 33.5q-112 13 -187.5 35t-128.5 61.5t-76.5 98.5t-23.5 145q0 119 65.5 202.5t171 122t240.5 38.5q221 0 346.5 -83t143.5 -271h-363q-19 100 -121 100
q-53 0 -79.5 -20.5t-26.5 -53.5q0 -36 38.5 -54.5t129.5 -27.5q243 -29 347.5 -102t104.5 -240q0 -191 -133 -284t-370 -93z" />
    <glyph glyph-name="t" unicode="t" horiz-adv-x="811" 
d="M543 -25q-396 0 -396 383v443h-124v270h124v219h404v-219h205v-270h-205v-404q0 -104 104 -104q54 0 101 16v-303q-108 -31 -213 -31z" />
    <glyph glyph-name="u" unicode="u" horiz-adv-x="1286" 
d="M446 -27q-160 0 -259 101.5t-99 294.5v702h404v-633q0 -83 32.5 -123.5t102.5 -40.5q77 0 118 46.5t41 140.5v610h404v-1071h-404v166q-99 -193 -340 -193z" />
    <glyph glyph-name="v" unicode="v" horiz-adv-x="1236" 
d="M403 0l-393 1071h430l203 -651l205 651h379l-391 -1071h-433z" />
    <glyph glyph-name="w" unicode="w" horiz-adv-x="1748" 
d="M332 0l-322 1071h420l139 -600l164 600h324l143 -600l162 600h377l-340 -1071h-379l-150 559l-147 -559h-391z" />
    <glyph glyph-name="x" unicode="x" horiz-adv-x="1255" 
d="M16 0l353 543l-330 528h463l145 -262l146 262h411l-334 -498l369 -573h-463l-172 299l-180 -299h-408z" />
    <glyph glyph-name="y" unicode="y" 
d="M264 -356l174 462l-428 965h436l203 -534l189 534h381l-572 -1427h-383z" />
    <glyph glyph-name="z" unicode="z" horiz-adv-x="1050" 
d="M16 0v39l439 731h-392v301h965v-41l-459 -731h430v-299h-983z" />
    <glyph glyph-name="braceleft" unicode="{" horiz-adv-x="870" 
d="M795 -303q-328 0 -470.5 117.5t-101.5 365.5l27 166q13 72 -35 116t-156 44v280q108 0 156 43t35 115l-27 164q-42 256 99.5 369.5t472.5 113.5v-293q-112 -6 -149 -43.5t-25 -132.5l24 -202q12 -102 -44 -173.5t-169 -97.5q114 -25 169.5 -96.5t43.5 -175.5l-24 -201
q-12 -99 25 -139.5t149 -46.5v-293z" />
    <glyph glyph-name="bar" unicode="|" horiz-adv-x="552" 
d="M137 -303v1892h279v-1892h-279z" />
    <glyph glyph-name="braceright" unicode="}" horiz-adv-x="870" 
d="M76 -303v293q112 6 149 46.5t25 139.5l-25 201q-12 104 43.5 175.5t169.5 96.5q-113 26 -169 97.5t-44 173.5l25 202q12 95 -25 132.5t-149 43.5v293q331 0 472 -113.5t99 -369.5l-26 -164q-13 -73 33.5 -115.5t156.5 -42.5v-280q-109 0 -156 -43.5t-34 -116.5l26 -166
q41 -248 -101.5 -365.5t-469.5 -117.5z" />
    <glyph glyph-name="asciitilde" unicode="~" horiz-adv-x="1089" 
d="M51 436q6 113 34 198t72 135t97.5 74.5t114.5 24.5q65 0 129 -22.5t113 -45t77 -22.5q76 0 92 92h256q-6 -206 -97 -319t-218 -113q-66 0 -130 22t-112.5 44t-77.5 22q-78 0 -92 -90h-258z" />
    <glyph glyph-name="uni00A0" unicode="&#xa0;" horiz-adv-x="378" 
 />
    <glyph glyph-name="exclamdown" unicode="&#xa1;" horiz-adv-x="702" 
d="M350 817q-97 0 -165 63t-68 154q0 89 68 152t165 63t165.5 -63t68.5 -152q0 -91 -68.5 -154t-165.5 -63zM123 -240l59 971h336l60 -971h-455z" />
    <glyph glyph-name="cent" unicode="&#xa2;" 
d="M440 526q0 -221 131 -268v541q-131 -46 -131 -256v-17zM571 -276v253q-237 18 -382.5 158.5t-145.5 386.5v17q0 239 147.5 386t380.5 173v190h154v-190q198 -16 326 -129.5t141 -319.5h-363q-15 120 -104 150v-545q113 32 125 174h348q-6 -194 -129 -313t-344 -138v-253
h-154z" />
    <glyph glyph-name="sterling" unicode="&#xa3;" horiz-adv-x="1368" 
d="M66 584v254h98q-23 84 -23 170q0 150 78 259.5t208.5 163.5t297.5 54q289 0 431 -135t153 -377h-422q-10 87 -45.5 126.5t-100.5 39.5q-66 0 -103.5 -42t-37.5 -116q0 -61 10 -143h348v-254h-313q4 -62 4 -95q0 -56 -16 -112q7 -2 34 -10.5t37 -11t29.5 -7.5t33.5 -6.5
t28 -1.5q109 0 118 111h418q-8 -209 -123.5 -339t-320.5 -130q-72 0 -142 16t-114.5 35t-91.5 35t-78 16q-41 0 -64 -22.5t-28 -61.5h-340q8 128 61.5 228t149.5 149q14 54 14 112q0 43 -10 95h-178z" />
    <glyph glyph-name="yen" unicode="&#xa5;" horiz-adv-x="1349" 
d="M125 608v150h274l-383 706h502l187 -442l186 442h442l-364 -706h278v-150h-327v-96h327v-152h-327v-360h-467v360h-328v152h328v96h-328z" />
    <glyph glyph-name="brokenbar" unicode="&#xa6;" horiz-adv-x="557" 
d="M137 764v825h279v-825h-279zM137 -303v921h279v-921h-279z" />
    <glyph glyph-name="section" unicode="&#xa7;" horiz-adv-x="1265" 
d="M770 473q74 14 74 80q0 41 -38 61.5t-157 59.5l-149 49q-74 -12 -74 -80q0 -38 40.5 -60t154.5 -59zM608 -281q-218 0 -338.5 101.5t-128.5 281.5h363q6 -116 114 -116q103 0 103 77q0 41 -43 63.5t-164 49.5q-77 19 -136 37.5t-115.5 44t-96 56.5t-69.5 70t-45 89.5
t-15 112.5q0 197 219 282q-84 90 -84 232q0 179 133.5 282t353.5 103q217 0 336 -102t127 -283h-360q-6 57 -32.5 84.5t-82.5 27.5q-50 0 -75 -20t-25 -55q0 -44 39 -65t164 -52q94 -22 160 -43t130.5 -54t103.5 -73.5t63 -100t24 -135.5q0 -192 -219 -284q84 -90 84 -230
q0 -173 -134.5 -277t-353.5 -104z" />
    <glyph glyph-name="dieresis" unicode="&#xa8;" horiz-adv-x="819" 
d="M631 1167q-77 0 -131 53.5t-54 129.5q0 75 53.5 128.5t131.5 53.5q79 0 133.5 -53.5t54.5 -128.5q0 -76 -54.5 -129.5t-133.5 -53.5zM186 1167q-78 0 -132 54t-54 129t54 128.5t132 53.5t133.5 -53.5t55.5 -128.5t-55.5 -129t-133.5 -54z" />
    <glyph glyph-name="copyright" unicode="&#xa9;" horiz-adv-x="1724" 
d="M860 -43q-216 0 -397.5 101t-287 279t-105.5 394q0 160 62 304t168 247.5t253 164t311 60.5q222 0 404 -102.5t285.5 -279.5t103.5 -390q0 -163 -62.5 -307.5t-169 -247.5t-254 -163t-311.5 -60zM860 63q182 0 332.5 83.5t240 238t89.5 350.5q0 145 -51 270t-139.5 211.5
t-209.5 135.5t-258 49q-185 0 -335.5 -84t-238 -237.5t-87.5 -348.5q0 -147 52.5 -273t141.5 -212t209 -134.5t254 -48.5zM879 307q-218 0 -329.5 111.5t-111.5 306.5v16q0 188 121.5 302t308.5 114q173 0 277 -81.5t117 -246.5h-281q-13 111 -113 111q-67 0 -105 -50.5
t-38 -148.5v-14q0 -98 37.5 -149.5t109.5 -51.5q55 0 89 28.5t40 86.5h271q-7 -159 -115 -246.5t-278 -87.5z" />
    <glyph glyph-name="ordfeminine" unicode="&#xaa;" horiz-adv-x="1013" 
d="M477 821q46 0 75.5 24t29.5 62v37h-64q-64 0 -90.5 -15.5t-26.5 -49.5q0 -58 76 -58zM344 588q-124 0 -206.5 64t-82.5 192q0 147 109 209.5t342 62.5h76v27q0 48 -17.5 73t-64.5 25q-75 0 -88 -82h-328q9 154 123.5 238t310.5 84q201 0 306.5 -82t105.5 -246v-543h-340
v97q-28 -49 -89 -84t-157 -35z" />
    <glyph glyph-name="guillemotleft" unicode="&#xab;" horiz-adv-x="976" 
d="M676 137l-254 398l254 397h248l-244 -397l244 -398h-248zM305 137l-254 398l254 397h248l-244 -397l244 -398h-248z" />
    <glyph glyph-name="uni00AD" unicode="&#xad;" horiz-adv-x="798" 
d="M100 438v299h598v-299h-598z" />
    <glyph glyph-name="registered" unicode="&#xae;" horiz-adv-x="1058" 
d="M530 573q-198 0 -335.5 131.5t-137.5 323.5q0 125 62.5 230.5t171.5 167t239 61.5q199 0 335 -133t136 -324q0 -193 -137 -325t-334 -132zM530 655q163 0 271 105.5t108 269.5q0 165 -106.5 270t-272.5 105q-167 0 -273.5 -105.5t-106.5 -271.5q0 -165 108.5 -269
t271.5 -104zM502 1057h28q54 0 54 45v2q0 41 -54 41h-28v-88zM352 811v449h187q190 0 190 -148v-2q0 -80 -72 -119l99 -180h-156l-78 150h-20v-150h-150z" />
    <glyph glyph-name="macron" unicode="&#xaf;" horiz-adv-x="819" 
d="M86 1239v219h647v-219h-647z" />
    <glyph glyph-name="degree" unicode="&#xb0;" horiz-adv-x="935" 
d="M471 770q-153 0 -261 104.5t-108 249.5q0 148 108 253.5t261 105.5q149 0 256 -105.5t107 -253.5q0 -145 -107 -249.5t-256 -104.5zM471 918q81 0 132.5 58.5t51.5 147.5q0 91 -51.5 151t-132.5 60q-84 0 -137 -59.5t-53 -151.5q0 -89 53 -147.5t137 -58.5z" />
    <glyph glyph-name="plusminus" unicode="&#xb1;" horiz-adv-x="1185" 
d="M432 373v329h-354v291h354v332h322v-332h356v-291h-356v-329h-322zM78 0v258h1038v-258h-1038z" />
    <glyph glyph-name="twosuperior" unicode="&#xb2;" horiz-adv-x="749" 
d="M8 682v37l264 270q77 78 110.5 124t33.5 87q0 62 -58 62q-61 0 -73 -105h-269q4 156 99.5 238t259.5 82q163 0 246.5 -71t83.5 -183q0 -75 -40 -138t-120 -139l-58 -53h222v-211h-701z" />
    <glyph glyph-name="threesuperior" unicode="&#xb3;" horiz-adv-x="788" 
d="M395 668q-346 0 -360 280h260q3 -35 23.5 -56.5t58.5 -21.5q33 0 51 17t18 47q0 59 -84 59h-63v162h63q89 0 89 64q0 55 -64 55q-31 0 -51.5 -18.5t-26.5 -53.5h-258q9 124 96.5 199.5t247.5 75.5q157 0 244.5 -58t87.5 -162q0 -131 -141 -167q70 -11 113.5 -56
t43.5 -112q0 -117 -88 -185.5t-260 -68.5z" />
    <glyph glyph-name="acute" unicode="&#xb4;" horiz-adv-x="819" 
d="M252 1184l106 346h396l-213 -346h-289z" />
    <glyph glyph-name="paragraph" unicode="&#xb6;" horiz-adv-x="1114" 
d="M518 -205v873h-14q-211 0 -332 99.5t-121 291.5q0 199 123 302t330 103h475v-1669h-156v1536h-151v-1536h-154z" />
    <glyph glyph-name="periodcentered" unicode="&#xb7;" horiz-adv-x="618" 
d="M307 449q-96 0 -160.5 63t-64.5 156t64.5 157t160.5 64q98 0 164 -64t66 -157t-66 -156t-164 -63z" />
    <glyph glyph-name="cedilla" unicode="&#xb8;" horiz-adv-x="819" 
d="M416 -467q-116 0 -186 49.5t-85 143.5h185q12 -54 71 -54q29 0 45.5 16.5t16.5 43.5t-17.5 44t-50.5 17q-44 0 -65 -24l-82 84l98 147h156l-64 -90q99 10 166.5 -36t67.5 -142q0 -93 -69 -146t-187 -53z" />
    <glyph glyph-name="onesuperior" unicode="&#xb9;" horiz-adv-x="608" 
d="M209 682v498l-170 -93v238l213 139h254v-782h-297z" />
    <glyph glyph-name="ordmasculine" unicode="&#xba;" horiz-adv-x="1079" 
d="M539 588q-136 0 -243.5 48t-173 147.5t-65.5 236.5v12q0 138 65 241t174 155.5t245 52.5t244 -51t172.5 -151.5t64.5 -234.5v-12q0 -137 -65.5 -239.5t-174 -153.5t-243.5 -51zM541 846q65 0 94 45t29 139v12q0 183 -123 183q-125 0 -125 -178v-13q0 -96 30.5 -142
t94.5 -46z" />
    <glyph glyph-name="guillemotright" unicode="&#xbb;" horiz-adv-x="976" 
d="M422 137l244 398l-244 397h248l254 -397l-254 -398h-248zM53 137l244 398l-244 397h248l254 -397l-254 -398h-248z" />
    <glyph glyph-name="onequarter" unicode="&#xbc;" horiz-adv-x="1673" 
d="M215 682v498l-170 -93v238l213 139h254v-782h-297zM139 0l1168 1464h202l-1165 -1464h-205zM1241 0v143h-389v109l322 530h352v-446h98v-193h-98v-143h-285zM1102 336h147v254z" />
    <glyph glyph-name="onehalf" unicode="&#xbd;" horiz-adv-x="1701" 
d="M215 682v498l-170 -93v238l213 139h254v-782h-297zM113 0l1167 1464h203l-1166 -1464h-204zM952 0v37l265 270q76 77 109.5 123.5t33.5 87.5q0 60 -57 60q-62 0 -74 -103h-268q4 156 99 237t259 81q163 0 246.5 -70t83.5 -182q0 -75 -40.5 -139t-119.5 -138l-57 -55h221
v-209h-701z" />
    <glyph glyph-name="threequarters" unicode="&#xbe;" horiz-adv-x="1744" 
d="M401 668q-346 0 -360 280h260q3 -35 23.5 -56.5t58.5 -21.5q33 0 51.5 17t18.5 47q0 59 -84 59h-64v162h64q88 0 88 64q0 55 -64 55q-31 0 -51.5 -18.5t-26.5 -53.5h-258q9 124 96.5 199.5t247.5 75.5q157 0 244.5 -58t87.5 -162q0 -131 -141 -167q70 -11 114 -56.5
t44 -111.5q0 -117 -88.5 -185.5t-260.5 -68.5zM242 0l1167 1464h203l-1166 -1464h-204zM1311 0v143h-389v109l321 530h352v-446h99v-193h-99v-143h-284zM1171 336h148v254z" />
    <glyph glyph-name="questiondown" unicode="&#xbf;" horiz-adv-x="1165" 
d="M631 1251q98 0 166.5 -63t68.5 -154q0 -90 -68.5 -153.5t-166.5 -63.5q-97 0 -165.5 64t-68.5 153q0 91 68.5 154t165.5 63zM821 733v-28q0 -55 -15.5 -103t-50 -94t-58.5 -71.5t-72 -71.5q-65 -58 -98 -101.5t-33 -89.5q0 -54 25.5 -80t80.5 -26q58 0 94 43t47 120h394
q-6 -237 -160.5 -364t-407.5 -127q-244 0 -378 101.5t-134 293.5q0 163 140 299q27 27 76.5 71.5t77.5 71.5t55.5 64.5t35.5 71.5v20h381z" />
    <glyph glyph-name="Agrave" unicode="&#xc0;" horiz-adv-x="1556" 
d="M750 1090l-146 -531h289zM18 0l461 1464h600l459 -1464h-491l-68 244h-463l-65 -244h-433zM639 1550l-205 305h414l96 -305h-305z" />
    <glyph glyph-name="Aacute" unicode="&#xc1;" horiz-adv-x="1556" 
d="M750 1090l-146 -531h289zM18 0l461 1464h600l459 -1464h-491l-68 244h-463l-65 -244h-433zM604 1550l105 305h411l-211 -305h-305z" />
    <glyph glyph-name="Acircumflex" unicode="&#xc2;" horiz-adv-x="1556" 
d="M750 1090l-146 -531h289zM18 0l461 1464h600l459 -1464h-491l-68 244h-463l-65 -244h-433zM375 1550l235 305h336l225 -305h-290l-111 97l-111 -97h-284z" />
    <glyph glyph-name="Atilde" unicode="&#xc3;" horiz-adv-x="1556" 
d="M750 1090l-146 -531h289zM18 0l461 1464h600l459 -1464h-491l-68 244h-463l-65 -244h-433zM909 1546q-51 0 -99.5 16.5t-85.5 33t-62 16.5q-24 0 -40.5 -17t-21.5 -45h-223q10 162 81.5 245t176.5 83q62 0 143 -33t111 -33q49 0 59 62h226q-11 -161 -86.5 -244.5
t-178.5 -83.5z" />
    <glyph glyph-name="Adieresis" unicode="&#xc4;" horiz-adv-x="1556" 
d="M750 1090l-146 -531h289zM18 0l461 1464h600l459 -1464h-491l-68 244h-463l-65 -244h-433zM1006 1540q-78 0 -132.5 53.5t-54.5 128.5q0 76 54.5 129.5t132.5 53.5t133 -53.5t55 -129.5q0 -75 -55 -128.5t-133 -53.5zM541 1540q-78 0 -132.5 53.5t-54.5 128.5
q0 76 54.5 129.5t132.5 53.5t133 -53.5t55 -129.5q0 -75 -55 -128.5t-133 -53.5z" />
    <glyph glyph-name="Aring" unicode="&#xc5;" horiz-adv-x="1556" 
d="M750 1090l-146 -531h289zM18 0l461 1464h600l459 -1464h-491l-68 244h-463l-65 -244h-433zM774 1520q-103 0 -176.5 70.5t-73.5 170.5t73.5 171t176.5 71t176.5 -71t73.5 -171t-73.5 -170.5t-176.5 -70.5zM774 1659q40 0 66 29t26 73t-26 72.5t-66 28.5
q-41 0 -66.5 -28.5t-25.5 -72.5q0 -45 25.5 -73.5t66.5 -28.5z" />
    <glyph glyph-name="AE" unicode="&#xc6;" horiz-adv-x="2072" 
d="M915 1108l-219 -524h256v524h-37zM14 0l641 1464h1321v-356h-563v-207h445v-326h-445v-219h596v-356h-1057v276h-383l-114 -276h-441z" />
    <glyph glyph-name="Ccedilla" unicode="&#xc7;" horiz-adv-x="1564" 
d="M776 -467q-116 0 -185.5 49.5t-84.5 143.5h184q12 -54 72 -54q29 0 45 16.5t16 43.5t-17 44t-50 17q-45 0 -66 -24l-82 84l86 129q-316 36 -476.5 231t-160.5 510v16q0 222 99.5 393.5t271.5 263t387 91.5q305 0 487.5 -144t208.5 -434h-479q-11 102 -65 156.5t-150 54.5
q-128 0 -199 -97.5t-71 -281.5v-16q0 -183 71.5 -281t206.5 -98q102 0 166 54t76 161h463q-12 -187 -103.5 -320.5t-240 -199.5t-342.5 -68l-45 -63q99 10 166 -36t67 -142q0 -93 -69 -146t-187 -53z" />
    <glyph glyph-name="Egrave" unicode="&#xc8;" horiz-adv-x="1269" 
d="M133 0v1464h1041v-356h-578v-207h459v-326h-459v-219h610v-356h-1073zM535 1550l-205 305h413l97 -305h-305z" />
    <glyph glyph-name="Eacute" unicode="&#xc9;" horiz-adv-x="1269" 
d="M133 0v1464h1041v-356h-578v-207h459v-326h-459v-219h610v-356h-1073zM500 1550l104 305h412l-211 -305h-305z" />
    <glyph glyph-name="Ecircumflex" unicode="&#xca;" horiz-adv-x="1269" 
d="M133 0v1464h1041v-356h-578v-207h459v-326h-459v-219h610v-356h-1073zM270 1550l236 305h336l225 -305h-291l-110 97l-111 -97h-285z" />
    <glyph glyph-name="Edieresis" unicode="&#xcb;" horiz-adv-x="1269" 
d="M133 0v1464h1041v-356h-578v-207h459v-326h-459v-219h610v-356h-1073zM901 1540q-78 0 -132 53.5t-54 128.5q0 77 54 130t132 53t133.5 -53.5t55.5 -129.5q0 -75 -55.5 -128.5t-133.5 -53.5zM436 1540q-78 0 -132 53.5t-54 128.5q0 77 54 130t132 53t133.5 -53.5
t55.5 -129.5q0 -75 -55.5 -128.5t-133.5 -53.5z" />
    <glyph glyph-name="Igrave" unicode="&#xcc;" horiz-adv-x="749" 
d="M139 0v1464h469v-1464h-469zM240 1550l-205 305h414l96 -305h-305z" />
    <glyph glyph-name="Iacute" unicode="&#xcd;" horiz-adv-x="749" 
d="M139 0v1464h469v-1464h-469zM205 1550l104 305h412l-211 -305h-305z" />
    <glyph glyph-name="Icircumflex" unicode="&#xce;" horiz-adv-x="749" 
d="M139 0v1464h469v-1464h-469zM-25 1550l236 305h336l225 -305h-291l-110 97l-111 -97h-285z" />
    <glyph glyph-name="Idieresis" unicode="&#xcf;" horiz-adv-x="749" 
d="M139 0v1464h469v-1464h-469zM606 1540q-78 0 -132 53.5t-54 128.5q0 77 54 130t132 53t133.5 -53.5t55.5 -129.5q0 -75 -55.5 -128.5t-133.5 -53.5zM141 1540q-78 0 -132 53.5t-54 128.5q0 77 54 130t132 53t133.5 -53.5t55.5 -129.5q0 -75 -55.5 -128.5t-133.5 -53.5z
" />
    <glyph glyph-name="Eth" unicode="&#xd0;" horiz-adv-x="1607" 
d="M59 582v309h111v573h559q392 0 592.5 -182t200.5 -532v-15q0 -353 -203.5 -544t-589.5 -191h-559v582h-111zM627 356h88q169 0 245 88t76 281v16q0 198 -77 282.5t-248 84.5h-84v-217h213v-309h-213v-226z" />
    <glyph glyph-name="Ntilde" unicode="&#xd1;" horiz-adv-x="1611" 
d="M133 0v1464h520l416 -774v774h408v-1464h-445l-489 877v-877h-410zM981 1546q-51 0 -99.5 16.5t-86 33t-62.5 16.5q-24 0 -40 -17t-21 -45h-223q10 162 81.5 245t176.5 83q62 0 143 -33t111 -33q49 0 59 62h225q-11 -161 -86 -244.5t-178 -83.5z" />
    <glyph glyph-name="Ograve" unicode="&#xd2;" horiz-adv-x="1679" 
d="M829 -27q-236 0 -412 95t-269 264.5t-93 390.5v16q0 221 104.5 393t282 263.5t396.5 91.5q227 0 403.5 -86t279.5 -254.5t103 -394.5v-17q0 -343 -217.5 -552.5t-577.5 -209.5zM842 338q138 0 218.5 103t80.5 284v16q0 183 -81.5 283t-221.5 100q-138 0 -217.5 -99.5
t-79.5 -283.5v-16q0 -185 80.5 -286t220.5 -101zM702 1550l-204 305h413l97 -305h-306z" />
    <glyph glyph-name="Oacute" unicode="&#xd3;" horiz-adv-x="1679" 
d="M829 -27q-236 0 -412 95t-269 264.5t-93 390.5v16q0 221 104.5 393t282 263.5t396.5 91.5q227 0 403.5 -86t279.5 -254.5t103 -394.5v-17q0 -343 -217.5 -552.5t-577.5 -209.5zM842 338q138 0 218.5 103t80.5 284v16q0 183 -81.5 283t-221.5 100q-138 0 -217.5 -99.5
t-79.5 -283.5v-16q0 -185 80.5 -286t220.5 -101zM668 1550l104 305h412l-211 -305h-305z" />
    <glyph glyph-name="Ocircumflex" unicode="&#xd4;" horiz-adv-x="1679" 
d="M829 -27q-236 0 -412 95t-269 264.5t-93 390.5v16q0 221 104.5 393t282 263.5t396.5 91.5q227 0 403.5 -86t279.5 -254.5t103 -394.5v-17q0 -343 -217.5 -552.5t-577.5 -209.5zM842 338q138 0 218.5 103t80.5 284v16q0 183 -81.5 283t-221.5 100q-138 0 -217.5 -99.5
t-79.5 -283.5v-16q0 -185 80.5 -286t220.5 -101zM438 1550l236 305h336l225 -305h-291l-110 97l-111 -97h-285z" />
    <glyph glyph-name="Otilde" unicode="&#xd5;" horiz-adv-x="1679" 
d="M829 -27q-236 0 -412 95t-269 264.5t-93 390.5v16q0 221 104.5 393t282 263.5t396.5 91.5q227 0 403.5 -86t279.5 -254.5t103 -394.5v-17q0 -343 -217.5 -552.5t-577.5 -209.5zM842 338q138 0 218.5 103t80.5 284v16q0 183 -81.5 283t-221.5 100q-138 0 -217.5 -99.5
t-79.5 -283.5v-16q0 -185 80.5 -286t220.5 -101zM973 1546q-67 0 -145 33t-103 33q-24 0 -40 -17t-21 -45h-224q10 162 81.5 245t176.5 83q62 0 143 -33t111 -33q50 0 60 62h225q-11 -161 -86 -244.5t-178 -83.5z" />
    <glyph glyph-name="Odieresis" unicode="&#xd6;" horiz-adv-x="1679" 
d="M829 -27q-236 0 -412 95t-269 264.5t-93 390.5v16q0 221 104.5 393t282 263.5t396.5 91.5q227 0 403.5 -86t279.5 -254.5t103 -394.5v-17q0 -343 -217.5 -552.5t-577.5 -209.5zM842 338q138 0 218.5 103t80.5 284v16q0 183 -81.5 283t-221.5 100q-138 0 -217.5 -99.5
t-79.5 -283.5v-16q0 -185 80.5 -286t220.5 -101zM1069 1540q-78 0 -132 53.5t-54 128.5q0 77 54 130t132 53t133 -53.5t55 -129.5q0 -75 -55 -128.5t-133 -53.5zM604 1540q-78 0 -132 53.5t-54 128.5q0 77 54 130t132 53t133.5 -53.5t55.5 -129.5q0 -75 -55.5 -128.5
t-133.5 -53.5z" />
    <glyph glyph-name="multiply" unicode="&#xd7;" horiz-adv-x="1206" 
d="M291 170l-209 209l311 311l-317 316l211 213l315 -320l313 311l209 -209l-311 -311l317 -315l-212 -213l-316 319z" />
    <glyph glyph-name="Oslash" unicode="&#xd8;" horiz-adv-x="1679" 
d="M535 725q0 -99 20 -166l473 502q-78 63 -190 63q-141 0 -222 -98.5t-81 -284.5v-16zM840 338q142 0 223.5 103t81.5 286v16q0 97 -25 177l-481 -508q77 -74 201 -74zM186 -68l-116 115l159 168q-174 199 -174 508v16q0 221 104.5 392.5t282 262.5t396.5 91
q270 0 473 -127l149 160l117 -115l-139 -148q188 -194 188 -503v-17q0 -344 -218 -553t-579 -209q-284 0 -477 133z" />
    <glyph glyph-name="Ugrave" unicode="&#xd9;" horiz-adv-x="1589" 
d="M795 -27q-324 0 -497 160t-173 471v860h463v-841q0 -151 44 -218t163 -67q118 0 161 67t43 220v839h467v-856q0 -162 -47 -284t-135.5 -198.5t-210.5 -114.5t-278 -38zM655 1550l-204 305h413l97 -305h-306z" />
    <glyph glyph-name="Uacute" unicode="&#xda;" horiz-adv-x="1589" 
d="M795 -27q-324 0 -497 160t-173 471v860h463v-841q0 -151 44 -218t163 -67q118 0 161 67t43 220v839h467v-856q0 -162 -47 -284t-135.5 -198.5t-210.5 -114.5t-278 -38zM621 1550l104 305h412l-211 -305h-305z" />
    <glyph glyph-name="Ucircumflex" unicode="&#xdb;" horiz-adv-x="1589" 
d="M795 -27q-324 0 -497 160t-173 471v860h463v-841q0 -151 44 -218t163 -67q118 0 161 67t43 220v839h467v-856q0 -162 -47 -284t-135.5 -198.5t-210.5 -114.5t-278 -38zM391 1550l236 305h336l225 -305h-291l-111 97l-110 -97h-285z" />
    <glyph glyph-name="Udieresis" unicode="&#xdc;" horiz-adv-x="1589" 
d="M795 -27q-324 0 -497 160t-173 471v860h463v-841q0 -151 44 -218t163 -67q118 0 161 67t43 220v839h467v-856q0 -162 -47 -284t-135.5 -198.5t-210.5 -114.5t-278 -38zM1022 1540q-78 0 -132 53.5t-54 128.5q0 77 54 130t132 53t133 -53.5t55 -129.5q0 -75 -55 -128.5
t-133 -53.5zM557 1540q-78 0 -132 53.5t-54 128.5q0 77 54 130t132 53t133 -53.5t55 -129.5q0 -75 -55 -128.5t-133 -53.5z" />
    <glyph glyph-name="Yacute" unicode="&#xdd;" horiz-adv-x="1417" 
d="M485 0v625l-475 839h504l223 -458l226 458h444l-455 -837v-627h-467zM553 1550l104 305h412l-211 -305h-305z" />
    <glyph glyph-name="Thorn" unicode="&#xde;" horiz-adv-x="1359" 
d="M133 0v1464h463v-233h121q312 0 457 -119t145 -360v-9q0 -230 -149.5 -353.5t-432.5 -123.5h-141v-266h-463zM596 578h96q187 0 187 163v9q0 81 -46 118t-139 37h-98v-327z" />
    <glyph glyph-name="germandbls" unicode="&#xdf;" horiz-adv-x="1318" 
d="M797 -20q-117 0 -199 20v301q46 -16 88 -16q182 0 182 225v12q0 69 -19 116t-56 71.5t-81.5 34.5t-105.5 10v280q84 1 129 43.5t45 102.5v4q0 62 -35 97.5t-100 35.5q-68 0 -106.5 -46t-38.5 -130v-1141h-404v1106q0 100 30 180t82 134t125.5 89.5t157 51.5t179.5 16
q232 0 361.5 -95t129.5 -280v-4q0 -103 -67 -178t-174 -107q155 -34 256.5 -139.5t101.5 -279.5v-15q0 -241 -131 -370t-350 -129z" />
    <glyph glyph-name="agrave" unicode="&#xe0;" horiz-adv-x="1198" 
d="M551 244q70 0 114 36t44 95v55h-86q-102 0 -143.5 -22.5t-41.5 -79.5q0 -39 29 -61.5t84 -22.5zM406 -27q-75 0 -139 19t-115.5 57t-81 101.5t-29.5 146.5q0 184 144 267t431 83h93v19q0 78 -25 116.5t-100 38.5q-63 0 -92.5 -32.5t-34.5 -81.5h-377q12 193 152.5 294
t375.5 101q240 0 370 -101.5t130 -308.5v-692h-389v123q-39 -64 -116 -107t-197 -43zM469 1184l-213 346h395l107 -346h-289z" />
    <glyph glyph-name="aacute" unicode="&#xe1;" horiz-adv-x="1198" 
d="M551 244q70 0 114 36t44 95v55h-86q-102 0 -143.5 -22.5t-41.5 -79.5q0 -39 29 -61.5t84 -22.5zM406 -27q-75 0 -139 19t-115.5 57t-81 101.5t-29.5 146.5q0 184 144 267t431 83h93v19q0 78 -25 116.5t-100 38.5q-63 0 -92.5 -32.5t-34.5 -81.5h-377q12 193 152.5 294
t375.5 101q240 0 370 -101.5t130 -308.5v-692h-389v123q-39 -64 -116 -107t-197 -43zM451 1184l106 346h395l-213 -346h-288z" />
    <glyph glyph-name="acircumflex" unicode="&#xe2;" horiz-adv-x="1198" 
d="M551 244q70 0 114 36t44 95v55h-86q-102 0 -143.5 -22.5t-41.5 -79.5q0 -39 29 -61.5t84 -22.5zM406 -27q-75 0 -139 19t-115.5 57t-81 101.5t-29.5 146.5q0 184 144 267t431 83h93v19q0 78 -25 116.5t-100 38.5q-63 0 -92.5 -32.5t-34.5 -81.5h-377q12 193 152.5 294
t375.5 101q240 0 370 -101.5t130 -308.5v-692h-389v123q-39 -64 -116 -107t-197 -43zM205 1188l256 340h282l246 -340h-280l-115 108l-115 -108h-274z" />
    <glyph glyph-name="atilde" unicode="&#xe3;" horiz-adv-x="1198" 
d="M551 244q70 0 114 36t44 95v55h-86q-102 0 -143.5 -22.5t-41.5 -79.5q0 -39 29 -61.5t84 -22.5zM406 -27q-75 0 -139 19t-115.5 57t-81 101.5t-29.5 146.5q0 184 144 267t431 83h93v19q0 78 -25 116.5t-100 38.5q-63 0 -92.5 -32.5t-34.5 -81.5h-377q12 193 152.5 294
t375.5 101q240 0 370 -101.5t130 -308.5v-692h-389v123q-39 -64 -116 -107t-197 -43zM739 1190q-52 0 -99 16.5t-82.5 32.5t-59.5 16t-41.5 -17t-20.5 -44h-213q9 163 74.5 247.5t167.5 84.5q62 0 141 -33t107 -33q51 0 61 64h213q-10 -163 -79 -248.5t-169 -85.5z" />
    <glyph glyph-name="adieresis" unicode="&#xe4;" horiz-adv-x="1198" 
d="M551 244q70 0 114 36t44 95v55h-86q-102 0 -143.5 -22.5t-41.5 -79.5q0 -39 29 -61.5t84 -22.5zM406 -27q-75 0 -139 19t-115.5 57t-81 101.5t-29.5 146.5q0 184 144 267t431 83h93v19q0 78 -25 116.5t-100 38.5q-63 0 -92.5 -32.5t-34.5 -81.5h-377q12 193 152.5 294
t375.5 101q240 0 370 -101.5t130 -308.5v-692h-389v123q-39 -64 -116 -107t-197 -43zM825 1167q-77 0 -130.5 53.5t-53.5 129.5t53.5 129t130.5 53q79 0 134 -53.5t55 -128.5t-55 -129t-134 -54zM381 1167q-78 0 -132 54t-54 129t54 128.5t132 53.5t133 -53.5t55 -128.5
t-55 -129t-133 -54z" />
    <glyph glyph-name="aring" unicode="&#xe5;" horiz-adv-x="1198" 
d="M551 244q70 0 114 36t44 95v55h-86q-102 0 -143.5 -22.5t-41.5 -79.5q0 -39 29 -61.5t84 -22.5zM406 -27q-75 0 -139 19t-115.5 57t-81 101.5t-29.5 146.5q0 184 144 267t431 83h93v19q0 78 -25 116.5t-100 38.5q-63 0 -92.5 -32.5t-34.5 -81.5h-377q12 193 152.5 294
t375.5 101q240 0 370 -101.5t130 -308.5v-692h-389v123q-39 -64 -116 -107t-197 -43zM604 1176q-101 0 -173.5 69.5t-72.5 167.5t72.5 169t173.5 71t173.5 -71t72.5 -169t-72.5 -167.5t-173.5 -69.5zM604 1315q40 0 65 27.5t25 70.5q0 44 -25 72t-65 28t-65 -28t-25 -72
q0 -43 25 -70.5t65 -27.5z" />
    <glyph glyph-name="ae" unicode="&#xe6;" horiz-adv-x="1869" 
d="M1282 -27q-288 0 -422 181q-67 -88 -166.5 -134.5t-249.5 -46.5q-85 0 -157 19t-128 57t-88 101.5t-32 146.5q0 185 144 270.5t429 85.5h101v13q0 77 -27.5 116t-101.5 39q-65 0 -93.5 -29.5t-35.5 -84.5h-377q12 192 151.5 293.5t368.5 101.5q241 0 340 -117
q132 117 338 117q115 0 213 -33.5t174.5 -99.5t120 -174.5t43.5 -249.5v-96h-731q7 -98 56.5 -149.5t135.5 -51.5q144 0 166 114h373q-24 -187 -162 -288t-383 -101zM1098 653h342q-10 189 -164 189q-75 0 -122 -49t-56 -140zM551 244q75 0 118.5 35.5t43.5 95.5v67h-95
q-96 0 -139 -23.5t-43 -80.5q0 -46 29.5 -70t85.5 -24z" />
    <glyph glyph-name="ccedilla" unicode="&#xe7;" horiz-adv-x="1200" 
d="M573 -467q-116 0 -185.5 49.5t-84.5 143.5h184q12 -54 72 -54q29 0 45.5 16.5t16.5 43.5t-17.5 44t-50.5 17q-45 0 -66 -24l-81 84l86 131q-203 30 -325 168t-122 368v17q0 177 78.5 306.5t208.5 193t293 63.5q105 0 194.5 -24t165.5 -75t122.5 -140.5t53.5 -211.5h-379
q-10 69 -43.5 105.5t-103.5 36.5q-180 0 -180 -246v-17q0 -132 45 -197t141 -65q70 0 113.5 42.5t50.5 119.5h362q-8 -208 -141.5 -328.5t-384.5 -126.5l-45 -63q99 10 166 -36t67 -142q0 -93 -69 -146t-187 -53z" />
    <glyph glyph-name="egrave" unicode="&#xe8;" horiz-adv-x="1236" 
d="M637 -27q-173 0 -306 62.5t-210.5 188t-77.5 298.5v17q0 169 80.5 299t214.5 197t299 67q115 0 214 -33.5t176.5 -100t122 -175t44.5 -248.5v-99h-743q7 -96 60 -147t140 -51q146 0 168 114h377q-25 -187 -166.5 -288t-392.5 -101zM453 657h352q-3 88 -45.5 136.5
t-122.5 48.5q-75 0 -123.5 -48t-60.5 -137zM492 1184l-213 346h395l106 -346h-288z" />
    <glyph glyph-name="eacute" unicode="&#xe9;" horiz-adv-x="1236" 
d="M637 -27q-173 0 -306 62.5t-210.5 188t-77.5 298.5v17q0 169 80.5 299t214.5 197t299 67q115 0 214 -33.5t176.5 -100t122 -175t44.5 -248.5v-99h-743q7 -96 60 -147t140 -51q146 0 168 114h377q-25 -187 -166.5 -288t-392.5 -101zM453 657h352q-3 88 -45.5 136.5
t-122.5 48.5q-75 0 -123.5 -48t-60.5 -137zM473 1184l107 346h395l-213 -346h-289z" />
    <glyph glyph-name="ecircumflex" unicode="&#xea;" horiz-adv-x="1236" 
d="M637 -27q-173 0 -306 62.5t-210.5 188t-77.5 298.5v17q0 169 80.5 299t214.5 197t299 67q115 0 214 -33.5t176.5 -100t122 -175t44.5 -248.5v-99h-743q7 -96 60 -147t140 -51q146 0 168 114h377q-25 -187 -166.5 -288t-392.5 -101zM453 657h352q-3 88 -45.5 136.5
t-122.5 48.5q-75 0 -123.5 -48t-60.5 -137zM233 1188l256 340h283l246 -340h-281l-114 108l-115 -108h-275z" />
    <glyph glyph-name="edieresis" unicode="&#xeb;" horiz-adv-x="1236" 
d="M848 1167q-77 0 -130.5 53.5t-53.5 129.5t53 129t131 53q79 0 133.5 -53.5t54.5 -128.5q0 -76 -54.5 -129.5t-133.5 -53.5zM403 1167q-78 0 -132 54t-54 129t54 128.5t132 53.5t133.5 -53.5t55.5 -128.5t-55.5 -129t-133.5 -54zM637 -27q-173 0 -306 62.5t-210.5 188
t-77.5 298.5v17q0 169 80.5 299t214.5 197t299 67q115 0 214 -33.5t176.5 -100t122 -175t44.5 -248.5v-99h-743q7 -96 60 -147t140 -51q146 0 168 114h377q-25 -187 -166.5 -288t-392.5 -101zM453 657h352q-3 88 -45.5 136.5t-122.5 48.5q-75 0 -123.5 -48t-60.5 -137z" />
    <glyph glyph-name="igrave" unicode="&#xec;" horiz-adv-x="620" 
d="M109 0v1071h401v-1071h-401zM176 1184l-213 346h395l107 -346h-289z" />
    <glyph glyph-name="iacute" unicode="&#xed;" horiz-adv-x="620" 
d="M109 0v1071h401v-1071h-401zM158 1184l106 346h395l-213 -346h-288z" />
    <glyph glyph-name="icircumflex" unicode="&#xee;" horiz-adv-x="620" 
d="M109 0v1071h401v-1071h-401zM-82 1188l256 340h283l245 -340h-280l-115 108l-114 -108h-275z" />
    <glyph glyph-name="idieresis" unicode="&#xef;" horiz-adv-x="620" 
d="M528 1167q-76 0 -130 54t-54 129t54 128.5t130 53.5q79 0 134 -53.5t55 -128.5t-55 -129t-134 -54zM88 1167q-78 0 -132 54t-54 129t54 128.5t132 53.5t133 -53.5t55 -128.5t-55 -129t-133 -54zM109 0v1071h401v-1071h-401z" />
    <glyph glyph-name="eth" unicode="&#xf0;" horiz-adv-x="1284" 
d="M254 1139l-47 127l227 75q-114 98 -250 193h455q51 -30 123 -82l227 78l47 -127l-149 -51q350 -315 350 -727v-45q0 -281 -164 -444t-440 -163q-169 0 -301 65t-210.5 195t-78.5 308v24q0 98 27.5 182.5t74 145t107 104.5t128 65t136.5 21q74 0 121 -20.5t94 -67.5
q-61 119 -184 242zM643 270q91 0 137.5 66t46.5 192v17q0 258 -184 258q-188 0 -188 -252v-16q0 -265 188 -265z" />
    <glyph glyph-name="ntilde" unicode="&#xf1;" horiz-adv-x="1288" 
d="M96 0v1071h404v-172q48 91 137 146t217 55q158 0 251 -100.5t93 -294.5v-705h-403v614q0 83 -32.5 123.5t-103.5 40.5q-77 0 -118 -46.5t-41 -139.5v-592h-404zM780 1190q-52 0 -99 16.5t-82.5 32.5t-59.5 16q-25 0 -42 -17t-20 -44h-213q9 163 74.5 247.5t167.5 84.5
q62 0 141 -33t107 -33q51 0 61 64h213q-10 -163 -79 -248.5t-169 -85.5z" />
    <glyph glyph-name="ograve" unicode="&#xf2;" horiz-adv-x="1282" 
d="M641 -27q-126 0 -234 37t-189 105t-127 173t-46 234v17q0 128 46 234t126 177.5t190 110.5t236 39q168 0 302 -65t213 -191.5t79 -294.5v-17q0 -171 -79.5 -299.5t-214 -194t-302.5 -65.5zM643 270q184 0 184 260v15q0 258 -184 258q-93 0 -141.5 -63.5t-48.5 -188.5v-16
q0 -265 190 -265zM504 1184l-213 346h395l107 -346h-289z" />
    <glyph glyph-name="oacute" unicode="&#xf3;" horiz-adv-x="1282" 
d="M641 -27q-126 0 -234 37t-189 105t-127 173t-46 234v17q0 128 46 234t126 177.5t190 110.5t236 39q168 0 302 -65t213 -191.5t79 -294.5v-17q0 -171 -79.5 -299.5t-214 -194t-302.5 -65.5zM643 270q184 0 184 260v15q0 258 -184 258q-93 0 -141.5 -63.5t-48.5 -188.5v-16
q0 -265 190 -265zM485 1184l107 346h395l-213 -346h-289z" />
    <glyph glyph-name="ocircumflex" unicode="&#xf4;" horiz-adv-x="1282" 
d="M641 -27q-126 0 -234 37t-189 105t-127 173t-46 234v17q0 128 46 234t126 177.5t190 110.5t236 39q168 0 302 -65t213 -191.5t79 -294.5v-17q0 -171 -79.5 -299.5t-214 -194t-302.5 -65.5zM643 270q184 0 184 260v15q0 258 -184 258q-93 0 -141.5 -63.5t-48.5 -188.5v-16
q0 -265 190 -265zM246 1188l256 340h282l246 -340h-280l-115 108l-115 -108h-274z" />
    <glyph glyph-name="otilde" unicode="&#xf5;" horiz-adv-x="1282" 
d="M641 -27q-126 0 -234 37t-189 105t-127 173t-46 234v17q0 128 46 234t126 177.5t190 110.5t236 39q168 0 302 -65t213 -191.5t79 -294.5v-17q0 -171 -79.5 -299.5t-214 -194t-302.5 -65.5zM643 270q184 0 184 260v15q0 258 -184 258q-93 0 -141.5 -63.5t-48.5 -188.5v-16
q0 -265 190 -265zM774 1190q-52 0 -99.5 16.5t-83 32.5t-59.5 16t-41 -17t-20 -44h-213q9 163 74.5 247.5t167.5 84.5q62 0 141 -33t107 -33q51 0 61 64h213q-10 -163 -79 -248.5t-169 -85.5z" />
    <glyph glyph-name="odieresis" unicode="&#xf6;" horiz-adv-x="1282" 
d="M641 -27q-126 0 -234 37t-189 105t-127 173t-46 234v17q0 128 46 234t126 177.5t190 110.5t236 39q168 0 302 -65t213 -191.5t79 -294.5v-17q0 -171 -79.5 -299.5t-214 -194t-302.5 -65.5zM643 270q184 0 184 260v15q0 258 -184 258q-93 0 -141.5 -63.5t-48.5 -188.5v-16
q0 -265 190 -265zM860 1167q-77 0 -130.5 53.5t-53.5 129.5t53 129t131 53q79 0 134 -53.5t55 -128.5t-55 -129t-134 -54zM416 1167q-78 0 -132.5 54t-54.5 129t54.5 128.5t132.5 53.5t133 -53.5t55 -128.5t-55 -129t-133 -54z" />
    <glyph glyph-name="divide" unicode="&#xf7;" horiz-adv-x="1191" 
d="M596 922q-85 0 -145 57.5t-60 140.5q0 84 60 142.5t145 58.5t145 -58.5t60 -142.5q0 -83 -60 -140.5t-145 -57.5zM78 559v275h1038v-275h-1038zM596 70q-85 0 -145 58t-60 142q0 83 60 141t145 58t145 -58t60 -141q0 -84 -60 -142t-145 -58z" />
    <glyph glyph-name="oslash" unicode="&#xf8;" horiz-adv-x="1282" 
d="M449 535q0 -45 6 -86l301 321q-47 35 -113 35q-194 0 -194 -254v-16zM643 268q95 0 143 66.5t48 193.5v17q0 29 -9 94l-307 -328q46 -43 125 -43zM150 -80l-105 94l131 140q-133 146 -133 368v17q0 128 46.5 234.5t127 178t190.5 111t236 39.5q194 0 342 -88l133 141
l103 -94l-127 -135q143 -146 143 -377v-17q0 -171 -79.5 -299.5t-214 -194t-302.5 -65.5q-205 0 -354 93z" />
    <glyph glyph-name="ugrave" unicode="&#xf9;" horiz-adv-x="1286" 
d="M446 -27q-160 0 -259 101.5t-99 294.5v702h404v-633q0 -83 32.5 -123.5t102.5 -40.5q77 0 118 46.5t41 140.5v610h404v-1071h-404v166q-99 -193 -340 -193zM504 1184l-213 346h395l107 -346h-289z" />
    <glyph glyph-name="uacute" unicode="&#xfa;" horiz-adv-x="1286" 
d="M446 -27q-160 0 -259 101.5t-99 294.5v702h404v-633q0 -83 32.5 -123.5t102.5 -40.5q77 0 118 46.5t41 140.5v610h404v-1071h-404v166q-99 -193 -340 -193zM485 1184l107 346h395l-213 -346h-289z" />
    <glyph glyph-name="ucircumflex" unicode="&#xfb;" horiz-adv-x="1286" 
d="M446 -27q-160 0 -259 101.5t-99 294.5v702h404v-633q0 -83 32.5 -123.5t102.5 -40.5q77 0 118 46.5t41 140.5v610h404v-1071h-404v166q-99 -193 -340 -193zM246 1188l256 340h282l246 -340h-280l-115 108l-115 -108h-274z" />
    <glyph glyph-name="udieresis" unicode="&#xfc;" horiz-adv-x="1286" 
d="M446 -27q-160 0 -259 101.5t-99 294.5v702h404v-633q0 -83 32.5 -123.5t102.5 -40.5q77 0 118 46.5t41 140.5v610h404v-1071h-404v166q-99 -193 -340 -193zM860 1167q-77 0 -130.5 53.5t-53.5 129.5t53 129t131 53q79 0 134 -53.5t55 -128.5t-55 -129t-134 -54zM416 1167
q-78 0 -132.5 54t-54.5 129t54.5 128.5t132.5 53.5t133 -53.5t55 -128.5t-55 -129t-133 -54z" />
    <glyph glyph-name="yacute" unicode="&#xfd;" 
d="M264 -356l174 462l-428 965h436l203 -534l189 534h381l-572 -1427h-383zM483 1184l107 346h395l-213 -346h-289z" />
    <glyph glyph-name="thorn" unicode="&#xfe;" horiz-adv-x="1323" 
d="M678 281q91 0 139.5 63.5t48.5 185.5v17q0 127 -49 190.5t-141 63.5q-90 0 -138.5 -65.5t-48.5 -188.5v-17q0 -249 189 -249zM96 -356v1892h404v-621q49 82 131 133.5t196 51.5q93 0 173.5 -35t142.5 -102t97.5 -175t35.5 -245v-17q0 -137 -36 -244t-98.5 -173.5
t-143 -101t-173.5 -34.5q-114 0 -198.5 49.5t-126.5 131.5v-510h-404z" />
    <glyph glyph-name="ydieresis" unicode="&#xff;" 
d="M264 -356l174 462l-428 965h436l203 -534l189 534h381l-572 -1427h-383zM858 1167q-77 0 -130.5 53.5t-53.5 129.5t53 129t131 53q79 0 134 -53.5t55 -128.5t-55 -129t-134 -54zM414 1167q-78 0 -132.5 54t-54.5 129t54.5 128.5t132.5 53.5t133 -53.5t55 -128.5t-55 -129
t-133 -54z" />
    <glyph glyph-name="Amacron" unicode="&#x100;" horiz-adv-x="1556" 
d="M750 1090l-146 -531h289zM18 0l461 1464h600l459 -1464h-491l-68 244h-463l-65 -244h-433zM432 1575v235h682v-235h-682z" />
    <glyph glyph-name="amacron" unicode="&#x101;" horiz-adv-x="1198" 
d="M551 244q70 0 114 36t44 95v55h-86q-102 0 -143.5 -22.5t-41.5 -79.5q0 -39 29 -61.5t84 -22.5zM406 -27q-75 0 -139 19t-115.5 57t-81 101.5t-29.5 146.5q0 184 144 267t431 83h93v19q0 78 -25 116.5t-100 38.5q-63 0 -92.5 -32.5t-34.5 -81.5h-377q12 193 152.5 294
t375.5 101q240 0 370 -101.5t130 -308.5v-692h-389v123q-39 -64 -116 -107t-197 -43zM281 1239v219h647v-219h-647z" />
    <glyph glyph-name="Abreve" unicode="&#x102;" horiz-adv-x="1556" 
d="M750 1090l-146 -531h289zM18 0l461 1464h600l459 -1464h-491l-68 244h-463l-65 -244h-433zM774 1534q-159 0 -250 84t-100 237h254q3 -40 28.5 -63t67.5 -23q39 0 65 23.5t31 62.5h254q-10 -151 -103.5 -236t-246.5 -85z" />
    <glyph glyph-name="abreve" unicode="&#x103;" horiz-adv-x="1198" 
d="M551 244q70 0 114 36t44 95v55h-86q-102 0 -143.5 -22.5t-41.5 -79.5q0 -39 29 -61.5t84 -22.5zM406 -27q-75 0 -139 19t-115.5 57t-81 101.5t-29.5 146.5q0 184 144 267t431 83h93v19q0 78 -25 116.5t-100 38.5q-63 0 -92.5 -32.5t-34.5 -81.5h-377q12 193 152.5 294
t375.5 101q240 0 370 -101.5t130 -308.5v-692h-389v123q-39 -64 -116 -107t-197 -43zM604 1190q-157 0 -248 86.5t-98 247.5h244q3 -43 29 -67.5t73 -24.5q44 0 72.5 24.5t32.5 67.5h241q-9 -160 -102 -247t-244 -87z" />
    <glyph glyph-name="Aogonek" unicode="&#x104;" horiz-adv-x="1556" 
d="M1323 -373q-122 0 -192 45.5t-70 122.5q0 67 49.5 116t128.5 89h-192l-68 244h-463l-65 -244h-433l461 1464h600l449 -1433q-56 -31 -88.5 -72t-32.5 -72q0 -49 57 -49q33 0 52 8v-184q-68 -35 -193 -35zM750 1090l-146 -531h289z" />
    <glyph glyph-name="aogonek" unicode="&#x105;" horiz-adv-x="1198" 
d="M922 -373q-113 0 -178.5 44t-65.5 122q0 72 49.5 120.5t130.5 86.5h-139v123q-39 -64 -116 -107t-197 -43q-75 0 -139 19t-115.5 57t-81 101.5t-29.5 146.5q0 184 144 267t431 83h93v19q0 78 -25 116.5t-100 38.5q-63 0 -92.5 -32.5t-34.5 -81.5h-377q12 193 152.5 294
t375.5 101q240 0 370 -101.5t130 -308.5v-667q-107 -81 -107 -146q0 -53 60 -53q32 0 53 8v-172q-72 -35 -192 -35zM551 244q70 0 114 36t44 95v55h-86q-102 0 -143.5 -22.5t-41.5 -79.5q0 -39 29 -61.5t84 -22.5z" />
    <glyph glyph-name="Cacute" unicode="&#x106;" horiz-adv-x="1564" 
d="M836 -27q-194 0 -343.5 54t-244.5 153t-143 236t-48 307v16q0 222 99.5 393.5t271.5 263t387 91.5q305 0 487.5 -144t208.5 -434h-479q-11 102 -65 156.5t-150 54.5q-128 0 -199 -97.5t-71 -281.5v-16q0 -183 71.5 -281t206.5 -98q102 0 166 54t76 161h463
q-12 -188 -104.5 -322t-243.5 -200t-346 -66zM641 1550l104 305h412l-211 -305h-305z" />
    <glyph glyph-name="cacute" unicode="&#x107;" horiz-adv-x="1200" 
d="M614 -27q-122 0 -225 34.5t-180 101.5t-120.5 172t-43.5 239v17q0 177 78.5 306.5t208.5 193t293 63.5q105 0 194.5 -24t165.5 -75t122.5 -140.5t53.5 -211.5h-379q-10 69 -43.5 105.5t-103.5 36.5q-180 0 -180 -246v-17q0 -132 45 -197t141 -65q70 0 113.5 42.5
t50.5 119.5h362q-8 -213 -148.5 -334t-404.5 -121zM459 1184l106 346h396l-213 -346h-289z" />
    <glyph glyph-name="Ccircumflex" unicode="&#x108;" horiz-adv-x="1564" 
d="M836 -27q-194 0 -343.5 54t-244.5 153t-143 236t-48 307v16q0 222 99.5 393.5t271.5 263t387 91.5q305 0 487.5 -144t208.5 -434h-479q-11 102 -65 156.5t-150 54.5q-128 0 -199 -97.5t-71 -281.5v-16q0 -183 71.5 -281t206.5 -98q102 0 166 54t76 161h463
q-12 -188 -104.5 -322t-243.5 -200t-346 -66zM412 1550l235 305h336l225 -305h-290l-111 97l-111 -97h-284z" />
    <glyph glyph-name="ccircumflex" unicode="&#x109;" horiz-adv-x="1200" 
d="M614 -27q-122 0 -225 34.5t-180 101.5t-120.5 172t-43.5 239v17q0 177 78.5 306.5t208.5 193t293 63.5q105 0 194.5 -24t165.5 -75t122.5 -140.5t53.5 -211.5h-379q-10 69 -43.5 105.5t-103.5 36.5q-180 0 -180 -246v-17q0 -132 45 -197t141 -65q70 0 113.5 42.5
t50.5 119.5h362q-8 -213 -148.5 -334t-404.5 -121zM221 1188l256 340h283l246 -340h-281l-115 108l-114 -108h-275z" />
    <glyph glyph-name="Cdotaccent" unicode="&#x10a;" horiz-adv-x="1564" 
d="M836 -27q-194 0 -343.5 54t-244.5 153t-143 236t-48 307v16q0 222 99.5 393.5t271.5 263t387 91.5q305 0 487.5 -144t208.5 -434h-479q-11 102 -65 156.5t-150 54.5q-128 0 -199 -97.5t-71 -281.5v-16q0 -183 71.5 -281t206.5 -98q102 0 166 54t76 161h463
q-12 -188 -104.5 -322t-243.5 -200t-346 -66zM811 1540q-91 0 -151 56t-60 139q0 85 60 140.5t151 55.5q90 0 149.5 -55.5t59.5 -140.5q0 -83 -60 -139t-149 -56z" />
    <glyph glyph-name="cdotaccent" unicode="&#x10b;" horiz-adv-x="1200" 
d="M614 -27q-122 0 -225 34.5t-180 101.5t-120.5 172t-43.5 239v17q0 177 78.5 306.5t208.5 193t293 63.5q105 0 194.5 -24t165.5 -75t122.5 -140.5t53.5 -211.5h-379q-10 69 -43.5 105.5t-103.5 36.5q-180 0 -180 -246v-17q0 -132 45 -197t141 -65q70 0 113.5 42.5
t50.5 119.5h362q-8 -213 -148.5 -334t-404.5 -121zM621 1167q-92 0 -151.5 55t-59.5 140t59.5 141t151.5 56q90 0 150 -56t60 -141q0 -84 -60 -139.5t-150 -55.5z" />
    <glyph glyph-name="Ccaron" unicode="&#x10c;" horiz-adv-x="1564" 
d="M836 -27q-194 0 -343.5 54t-244.5 153t-143 236t-48 307v16q0 222 99.5 393.5t271.5 263t387 91.5q305 0 487.5 -144t208.5 -434h-479q-11 102 -65 156.5t-150 54.5q-128 0 -199 -97.5t-71 -281.5v-16q0 -183 71.5 -281t206.5 -98q102 0 166 54t76 161h463
q-12 -188 -104.5 -322t-243.5 -200t-346 -66zM635 1550l-225 305h290l111 -96l111 96h284l-235 -305h-336z" />
    <glyph glyph-name="ccaron" unicode="&#x10d;" horiz-adv-x="1200" 
d="M614 -27q-122 0 -225 34.5t-180 101.5t-120.5 172t-43.5 239v17q0 177 78.5 306.5t208.5 193t293 63.5q105 0 194.5 -24t165.5 -75t122.5 -140.5t53.5 -211.5h-379q-10 69 -43.5 105.5t-103.5 36.5q-180 0 -180 -246v-17q0 -132 45 -197t141 -65q70 0 113.5 42.5
t50.5 119.5h362q-8 -213 -148.5 -334t-404.5 -121zM467 1188l-246 340h281l114 -107l115 107h275l-256 -340h-283z" />
    <glyph glyph-name="Dcaron" unicode="&#x10e;" horiz-adv-x="1538" 
d="M133 0v1464h559q391 0 591 -182t200 -532v-15q0 -353 -203 -544t-588 -191h-559zM598 356h78q170 0 246.5 88t76.5 281v16q0 198 -77 282.5t-248 84.5h-76v-752zM520 1550l-225 305h291l110 -96l111 96h285l-236 -305h-336z" />
    <glyph glyph-name="dcaron" unicode="&#x10f;" horiz-adv-x="1320" 
d="M643 281q91 0 139.5 63.5t48.5 187.5v17q0 122 -48 187t-138 65q-188 0 -188 -254v-17q0 -123 48 -186t138 -63zM494 -27q-93 0 -172.5 34t-141.5 99.5t-97.5 173t-35.5 244.5v17q0 136 35.5 244t97 176t141.5 103.5t173 35.5q232 0 327 -176v612h404v-1536h-404v172
q-42 -89 -126.5 -144t-200.5 -55zM1294 1178l17 358h286l-102 -358h-201z" />
    <glyph glyph-name="Dcroat" unicode="&#x110;" horiz-adv-x="1607" 
d="M59 582v309h111v573h559q392 0 592.5 -182t200.5 -532v-15q0 -353 -203.5 -544t-589.5 -191h-559v582h-111zM627 356h88q169 0 245 88t76 281v16q0 198 -77 282.5t-248 84.5h-84v-217h213v-309h-213v-226z" />
    <glyph glyph-name="dcroat" unicode="&#x111;" horiz-adv-x="1320" 
d="M643 281q91 0 139.5 63.5t48.5 187.5v17q0 122 -48 187t-138 65q-188 0 -188 -254v-17q0 -123 48 -186t138 -63zM512 1190v211h309v135h404v-135h108v-211h-108v-1190h-404v172q-42 -89 -126.5 -144t-200.5 -55q-93 0 -172.5 34t-141.5 99.5t-97.5 173t-35.5 244.5v17
q0 136 35.5 244t97 176t141.5 103.5t173 35.5q232 0 327 -176v266h-309z" />
    <glyph glyph-name="Emacron" unicode="&#x112;" horiz-adv-x="1269" 
d="M133 0v1464h1041v-356h-578v-207h459v-326h-459v-219h610v-356h-1073zM328 1575v235h682v-235h-682z" />
    <glyph glyph-name="emacron" unicode="&#x113;" horiz-adv-x="1236" 
d="M637 -27q-173 0 -306 62.5t-210.5 188t-77.5 298.5v17q0 169 80.5 299t214.5 197t299 67q115 0 214 -33.5t176.5 -100t122 -175t44.5 -248.5v-99h-743q7 -96 60 -147t140 -51q146 0 168 114h377q-25 -187 -166.5 -288t-392.5 -101zM453 657h352q-3 88 -45.5 136.5
t-122.5 48.5q-75 0 -123.5 -48t-60.5 -137zM303 1239v219h647v-219h-647z" />
    <glyph glyph-name="Ebreve" unicode="&#x114;" horiz-adv-x="1269" 
d="M133 0v1464h1041v-356h-578v-207h459v-326h-459v-219h610v-356h-1073zM666 1534q-159 0 -250.5 84t-100.5 237h254q3 -40 28.5 -63t68.5 -23q39 0 65 23.5t31 62.5h254q-10 -151 -103.5 -236t-246.5 -85z" />
    <glyph glyph-name="ebreve" unicode="&#x115;" horiz-adv-x="1236" 
d="M637 -27q-173 0 -306 62.5t-210.5 188t-77.5 298.5v17q0 169 80.5 299t214.5 197t299 67q115 0 214 -33.5t176.5 -100t122 -175t44.5 -248.5v-99h-743q7 -96 60 -147t140 -51q146 0 168 114h377q-25 -187 -166.5 -288t-392.5 -101zM453 657h352q-3 88 -45.5 136.5
t-122.5 48.5q-75 0 -123.5 -48t-60.5 -137zM616 1190q-157 0 -248 86.5t-98 247.5h244q3 -43 29 -67.5t73 -24.5q44 0 72.5 24.5t32.5 67.5h242q-9 -160 -102.5 -247t-244.5 -87z" />
    <glyph glyph-name="Edotaccent" unicode="&#x116;" horiz-adv-x="1269" 
d="M133 0v1464h1041v-356h-578v-207h459v-326h-459v-219h610v-356h-1073zM670 1540q-91 0 -151 56t-60 139q0 85 60 140.5t151 55.5q90 0 149.5 -55.5t59.5 -140.5q0 -83 -60 -139t-149 -56z" />
    <glyph glyph-name="edotaccent" unicode="&#x117;" horiz-adv-x="1236" 
d="M637 -27q-173 0 -306 62.5t-210.5 188t-77.5 298.5v17q0 169 80.5 299t214.5 197t299 67q115 0 214 -33.5t176.5 -100t122 -175t44.5 -248.5v-99h-743q7 -96 60 -147t140 -51q146 0 168 114h377q-25 -187 -166.5 -288t-392.5 -101zM453 657h352q-3 88 -45.5 136.5
t-122.5 48.5q-75 0 -123.5 -48t-60.5 -137zM629 1167q-92 0 -151.5 55t-59.5 140t59.5 141t151.5 56q90 0 150.5 -56.5t60.5 -140.5t-60.5 -139.5t-150.5 -55.5z" />
    <glyph glyph-name="Eogonek" unicode="&#x118;" horiz-adv-x="1269" 
d="M963 -373q-119 0 -187.5 45.5t-68.5 122.5q0 68 49 116.5t127 88.5h-750v1464h1041v-356h-578v-207h459v-326h-459v-219h610v-356h-82q-39 -34 -56 -59.5t-17 -53.5q0 -49 57 -49q32 0 53 8v-184q-72 -35 -198 -35z" />
    <glyph glyph-name="eogonek" unicode="&#x119;" horiz-adv-x="1236" 
d="M836 -373q-114 0 -181 43t-67 119q0 31 14.5 59t42 53t53.5 43t64 40q-64 -11 -125 -11q-173 0 -306 62.5t-210.5 188t-77.5 298.5v17q0 169 80.5 299t214.5 197t299 67q115 0 214 -33.5t176.5 -100t122 -175t44.5 -248.5v-99h-743q7 -96 60 -147t140 -51q146 0 168 114
h377q-18 -149 -139 -274q-57 -58 -80 -83.5t-44.5 -61t-21.5 -64.5q0 -53 60 -53q32 0 53 8v-172q-72 -35 -188 -35zM453 657h352q-3 88 -45.5 136.5t-122.5 48.5q-75 0 -123.5 -48t-60.5 -137z" />
    <glyph glyph-name="Ecaron" unicode="&#x11a;" horiz-adv-x="1269" 
d="M133 0v1464h1041v-356h-578v-207h459v-326h-459v-219h610v-356h-1073zM494 1550l-226 305h291l111 -96l110 96h285l-236 -305h-335z" />
    <glyph glyph-name="ecaron" unicode="&#x11b;" horiz-adv-x="1236" 
d="M637 -27q-173 0 -306 62.5t-210.5 188t-77.5 298.5v17q0 169 80.5 299t214.5 197t299 67q115 0 214 -33.5t176.5 -100t122 -175t44.5 -248.5v-99h-743q7 -96 60 -147t140 -51q146 0 168 114h377q-25 -187 -166.5 -288t-392.5 -101zM453 657h352q-3 88 -45.5 136.5
t-122.5 48.5q-75 0 -123.5 -48t-60.5 -137zM479 1188l-246 340h281l115 -107l114 107h275l-256 -340h-283z" />
    <glyph glyph-name="Gcircumflex" unicode="&#x11c;" horiz-adv-x="1619" 
d="M834 -27q-248 0 -425.5 96.5t-265.5 264t-88 389.5v16q0 220 102 391.5t279 264t398 92.5q109 0 207 -19.5t184.5 -63t151 -107t105.5 -156.5t48 -207h-459q-25 188 -235 188q-139 0 -218 -103t-79 -288v-16q0 -389 309 -389q128 0 192 52.5t72 133.5h-250v305h703v-188
q0 -139 -46 -257t-134.5 -207.5t-229.5 -140.5t-321 -51zM430 1550l236 305h335l226 -305h-291l-111 97l-110 -97h-285z" />
    <glyph glyph-name="gcircumflex" unicode="&#x11d;" horiz-adv-x="1318" 
d="M643 350q89 0 138.5 59.5t49.5 161.5v15q0 100 -49.5 158.5t-138.5 58.5q-91 0 -139.5 -58t-48.5 -161v-17q0 -100 48.5 -158.5t139.5 -58.5zM612 -397q-527 0 -573 405h399q12 -58 51 -92.5t125 -34.5q205 0 205 205v166q-43 -83 -127 -136t-198 -53
q-192 0 -320.5 134.5t-128.5 373.5v17q0 234 128.5 374t318.5 140q231 0 327 -178v147h404v-979q0 -239 -156 -364t-455 -125zM236 1188l256 340h282l246 -340h-281l-114 108l-115 -108h-274z" />
    <glyph glyph-name="Gbreve" unicode="&#x11e;" horiz-adv-x="1619" 
d="M834 -27q-248 0 -425.5 96.5t-265.5 264t-88 389.5v16q0 220 102 391.5t279 264t398 92.5q109 0 207 -19.5t184.5 -63t151 -107t105.5 -156.5t48 -207h-459q-25 188 -235 188q-139 0 -218 -103t-79 -288v-16q0 -389 309 -389q128 0 192 52.5t72 133.5h-250v305h703v-188
q0 -139 -46 -257t-134.5 -207.5t-229.5 -140.5t-321 -51zM829 1534q-159 0 -250 84t-100 237h254q3 -40 28.5 -63t67.5 -23q39 0 65.5 23.5t31.5 62.5h254q-10 -151 -104 -236t-247 -85z" />
    <glyph glyph-name="gbreve" unicode="&#x11f;" horiz-adv-x="1318" 
d="M643 350q89 0 138.5 59.5t49.5 161.5v15q0 100 -49.5 158.5t-138.5 58.5q-91 0 -139.5 -58t-48.5 -161v-17q0 -100 48.5 -158.5t139.5 -58.5zM612 -397q-527 0 -573 405h399q12 -58 51 -92.5t125 -34.5q205 0 205 205v166q-43 -83 -127 -136t-198 -53
q-192 0 -320.5 134.5t-128.5 373.5v17q0 234 128.5 374t318.5 140q231 0 327 -178v147h404v-979q0 -239 -156 -364t-455 -125zM629 1190q-157 0 -248 86.5t-98 247.5h243q3 -43 29.5 -67.5t73.5 -24.5q44 0 71.5 24.5t32.5 67.5h242q-9 -160 -102 -247t-244 -87z" />
    <glyph glyph-name="Gdotaccent" unicode="&#x120;" horiz-adv-x="1619" 
d="M834 -27q-248 0 -425.5 96.5t-265.5 264t-88 389.5v16q0 220 102 391.5t279 264t398 92.5q109 0 207 -19.5t184.5 -63t151 -107t105.5 -156.5t48 -207h-459q-25 188 -235 188q-139 0 -218 -103t-79 -288v-16q0 -389 309 -389q128 0 192 52.5t72 133.5h-250v305h703v-188
q0 -139 -46 -257t-134.5 -207.5t-229.5 -140.5t-321 -51zM829 1540q-91 0 -151 56t-60 139q0 85 60 140.5t151 55.5q90 0 149.5 -55.5t59.5 -140.5q0 -83 -60 -139t-149 -56z" />
    <glyph glyph-name="gdotaccent" unicode="&#x121;" horiz-adv-x="1318" 
d="M643 350q89 0 138.5 59.5t49.5 161.5v15q0 100 -49.5 158.5t-138.5 58.5q-91 0 -139.5 -58t-48.5 -161v-17q0 -100 48.5 -158.5t139.5 -58.5zM612 -397q-527 0 -573 405h399q12 -58 51 -92.5t125 -34.5q205 0 205 205v166q-43 -83 -127 -136t-198 -53
q-192 0 -320.5 134.5t-128.5 373.5v17q0 234 128.5 374t318.5 140q231 0 327 -178v147h404v-979q0 -239 -156 -364t-455 -125zM631 1167q-92 0 -151.5 55t-59.5 140t59.5 141t151.5 56q90 0 150.5 -56.5t60.5 -140.5t-60.5 -139.5t-150.5 -55.5z" />
    <glyph glyph-name="uni0122" unicode="&#x122;" horiz-adv-x="1617" 
d="M834 -27q-248 0 -425.5 96.5t-265.5 264t-88 389.5v16q0 220 102 391.5t279 264t398 92.5q109 0 207 -19.5t184.5 -63t151 -107t105.5 -156.5t48 -207h-459q-25 188 -235 188q-139 0 -218 -103t-79 -288v-16q0 -389 309 -389q128 0 192 52.5t72 133.5h-250v305h703v-188
q0 -139 -46 -257t-134.5 -207.5t-229.5 -140.5t-321 -51zM805 -477l-225 55l79 359l353 -25z" />
    <glyph glyph-name="uni0123" unicode="&#x123;" horiz-adv-x="1318" 
d="M643 350q89 0 138.5 59.5t49.5 161.5v15q0 100 -49.5 158.5t-138.5 58.5q-91 0 -139.5 -58t-48.5 -161v-17q0 -100 48.5 -158.5t139.5 -58.5zM612 -397q-527 0 -573 405h399q12 -58 51 -92.5t125 -34.5q205 0 205 205v166q-43 -83 -127 -136t-198 -53
q-192 0 -320.5 134.5t-128.5 373.5v17q0 234 128.5 374t318.5 140q231 0 327 -178v147h404v-979q0 -239 -156 -364t-455 -125zM817 1157l-352 25l207 389l225 -55z" />
    <glyph glyph-name="Hcircumflex" unicode="&#x124;" horiz-adv-x="1626" 
d="M133 0v1464h465v-540h430v540h465v-1464h-465v563h-430v-563h-465zM412 1550l235 305h336l225 -305h-290l-111 97l-111 -97h-284z" />
    <glyph glyph-name="hcircumflex" unicode="&#x125;" horiz-adv-x="1288" 
d="M96 0v1536h404v-637q48 91 137 146t217 55q158 0 251 -100.5t93 -294.5v-705h-403v614q0 83 -32.5 123.5t-103.5 40.5q-77 0 -118 -46.5t-41 -139.5v-592h-404zM252 1595l235 306h336l226 -306h-291l-111 97l-110 -97h-285z" />
    <glyph glyph-name="Hbar" unicode="&#x126;" horiz-adv-x="1626" 
d="M598 924h430v153h-430v-153zM14 1077v207h119v180h465v-180h430v180h465v-180h119v-207h-119v-1077h-465v563h-430v-563h-465v1077h-119z" />
    <glyph glyph-name="hbar" unicode="&#x127;" horiz-adv-x="1288" 
d="M-12 1190v211h108v135h404v-135h309v-211h-309v-291q48 91 137 146t217 55q158 0 251 -100.5t93 -294.5v-705h-403v614q0 83 -32.5 123.5t-103.5 40.5q-77 0 -118 -46.5t-41 -139.5v-592h-404v1190h-108z" />
    <glyph glyph-name="Itilde" unicode="&#x128;" horiz-adv-x="749" 
d="M139 0v1464h469v-1464h-469zM510 1546q-51 0 -99.5 16.5t-86 33t-62.5 16.5q-24 0 -40 -17t-21 -45h-224q10 162 82 245t177 83q62 0 142.5 -33t110.5 -33q50 0 60 62h225q-11 -161 -86 -244.5t-178 -83.5z" />
    <glyph glyph-name="itilde" unicode="&#x129;" horiz-adv-x="620" 
d="M109 0v1071h401v-1071h-401zM446 1190q-52 0 -99 16.5t-82.5 32.5t-59.5 16q-25 0 -42 -17t-20 -44h-213q9 163 74.5 247.5t167.5 84.5q62 0 141 -33t107 -33q51 0 61 64h213q-10 -163 -79 -248.5t-169 -85.5z" />
    <glyph glyph-name="Imacron" unicode="&#x12a;" horiz-adv-x="749" 
d="M139 0v1464h469v-1464h-469zM33 1575v235h682v-235h-682z" />
    <glyph glyph-name="imacron" unicode="&#x12b;" horiz-adv-x="620" 
d="M49 1239v219h522v-219h-522zM109 0v1071h401v-1071h-401z" />
    <glyph glyph-name="Ibreve" unicode="&#x12c;" horiz-adv-x="749" 
d="M139 0v1464h469v-1464h-469zM375 1534q-159 0 -250 84t-100 237h254q3 -40 28.5 -63t67.5 -23q39 0 65 23.5t31 62.5h254q-10 -151 -103.5 -236t-246.5 -85z" />
    <glyph glyph-name="ibreve" unicode="&#x12d;" horiz-adv-x="620" 
d="M109 0v1071h401v-1071h-401zM311 1190q-157 0 -248 86.5t-98 247.5h244q3 -43 29 -67.5t73 -24.5q44 0 72.5 24.5t32.5 67.5h241q-9 -160 -102 -247t-244 -87z" />
    <glyph glyph-name="Iogonek" unicode="&#x12e;" horiz-adv-x="749" 
d="M420 -373q-121 0 -190.5 45.5t-69.5 122.5q0 116 178 205h-199v1464h469v-1437q-102 -76 -102 -140q0 -49 57 -49q32 0 51 8v-184q-68 -35 -194 -35z" />
    <glyph glyph-name="iogonek" unicode="&#x12f;" horiz-adv-x="620" 
d="M309 1151q-94 0 -156.5 57.5t-62.5 145.5q0 89 62.5 147t156.5 58q93 0 155 -58t62 -147q0 -87 -62 -145t-155 -58zM330 -373q-113 0 -178.5 45t-65.5 123q0 71 49 119.5t129 85.5h-155v1071h401v-1051q-100 -78 -100 -141q0 -53 59 -53q32 0 51 8v-172q-68 -35 -190 -35
z" />
    <glyph glyph-name="Idotaccent" unicode="&#x130;" horiz-adv-x="749" 
d="M139 0v1464h469v-1464h-469zM377 1540q-91 0 -151 56t-60 139q0 85 60 140.5t151 55.5q90 0 149.5 -55.5t59.5 -140.5q0 -83 -60 -139t-149 -56z" />
    <glyph glyph-name="dotlessi" unicode="&#x131;" horiz-adv-x="620" 
d="M109 0v1071h401v-1071h-401z" />
    <glyph glyph-name="IJ" unicode="&#x132;" horiz-adv-x="1699" 
d="M139 0v1464h469v-1464h-469zM1042 -18q-178 0 -278 51v342q91 -27 174 -27q184 0 184 191v925h465v-927q0 -274 -136 -414.5t-409 -140.5z" />
    <glyph glyph-name="ij" unicode="&#x133;" horiz-adv-x="1239" 
d="M309 1151q-94 0 -156.5 57.5t-62.5 145.5q0 89 62.5 147t156.5 58q93 0 155 -58t62 -147q0 -87 -62 -145t-155 -58zM109 0v1071h401v-1071h-401zM928 1151q-94 0 -156.5 57.5t-62.5 145.5q0 89 62.5 147t156.5 58q93 0 155 -58t62 -147q0 -87 -62 -145t-155 -58z
M600 -375v289q65 3 95 30.5t30 88.5v1038h403v-1048q0 -94 -24.5 -163.5t-82.5 -124t-163.5 -82.5t-257.5 -28z" />
    <glyph glyph-name="Jcircumflex" unicode="&#x134;" horiz-adv-x="1001" 
d="M344 -18q-178 0 -278 51v342q91 -27 174 -27q184 0 184 191v925h465v-927q0 -274 -136 -414.5t-409 -140.5zM254 1550l235 305h336l226 -305h-291l-111 97l-110 -97h-285z" />
    <glyph glyph-name="jcircumflex" unicode="&#x135;" horiz-adv-x="620" 
d="M-18 -375v289q65 3 94.5 30.5t29.5 88.5v1038h404v-1048q0 -94 -24.5 -163.5t-82.5 -124t-163.5 -82.5t-257.5 -28zM-84 1188l256 340h283l245 -340h-280l-115 108l-115 -108h-274z" />
    <glyph glyph-name="uni0136" unicode="&#x136;" horiz-adv-x="1525" 
d="M133 0v1464h465v-555l406 555h481l-514 -676l542 -788h-534l-381 586v-586h-465zM758 -477l-226 55l80 359l353 -25z" />
    <glyph glyph-name="uni0137" unicode="&#x137;" horiz-adv-x="1206" 
d="M96 0v1536h404v-870l260 405h414l-330 -479l356 -592h-446l-254 446v-446h-404zM604 -477l-225 55l80 359l352 -25z" />
    <glyph glyph-name="Lacute" unicode="&#x139;" horiz-adv-x="1191" 
d="M133 0v1464h465v-1106h532v-358h-997zM203 1550l104 305h412l-211 -305h-305z" />
    <glyph glyph-name="lacute" unicode="&#x13a;" horiz-adv-x="614" 
d="M106 0v1536h402v-1536h-402zM145 1595l105 306h412l-211 -306h-306z" />
    <glyph glyph-name="uni013B" unicode="&#x13b;" horiz-adv-x="1191" 
d="M133 0v1464h465v-1106h532v-358h-997zM600 -477l-225 55l80 359l352 -25z" />
    <glyph glyph-name="uni013C" unicode="&#x13c;" horiz-adv-x="614" 
d="M106 0v1536h402v-1536h-402zM285 -477l-226 55l80 359l353 -25z" />
    <glyph glyph-name="Lcaron" unicode="&#x13d;" horiz-adv-x="1191" 
d="M133 0v1464h465v-1106h532v-358h-997zM723 1096l31 368h323l-125 -368h-229z" />
    <glyph glyph-name="lcaron" unicode="&#x13e;" horiz-adv-x="614" 
d="M106 0v1536h402v-1536h-402zM580 1178l16 358h287l-103 -358h-200z" />
    <glyph glyph-name="Ldot" unicode="&#x13f;" horiz-adv-x="1255" 
d="M133 0v1464h465v-1106h532v-358h-997zM999 608q-96 0 -160.5 63t-64.5 156t64.5 157.5t160.5 64.5q98 0 164 -64.5t66 -157.5t-66 -156t-164 -63z" />
    <glyph glyph-name="ldot" unicode="&#x140;" horiz-adv-x="980" 
d="M106 0v1536h402v-1536h-402zM793 514q-96 0 -161 63t-65 156t65 157t161 64q98 0 163.5 -64t65.5 -157t-65.5 -156t-163.5 -63z" />
    <glyph glyph-name="Lslash" unicode="&#x141;" 
d="M45 459v237l125 43v725h467v-565l360 125v-238l-360 -124v-304h532v-358h-999v502z" />
    <glyph glyph-name="lslash" unicode="&#x142;" horiz-adv-x="704" 
d="M33 516v254l119 55v711h401v-524l125 59v-252l-125 -59v-760h-401v571z" />
    <glyph glyph-name="Nacute" unicode="&#x143;" horiz-adv-x="1611" 
d="M133 0v1464h520l416 -774v774h408v-1464h-445l-489 877v-877h-410zM676 1550l104 305h412l-211 -305h-305z" />
    <glyph glyph-name="nacute" unicode="&#x144;" horiz-adv-x="1288" 
d="M96 0v1071h404v-172q48 91 137 146t217 55q158 0 251 -100.5t93 -294.5v-705h-403v614q0 83 -32.5 123.5t-103.5 40.5q-77 0 -118 -46.5t-41 -139.5v-592h-404zM492 1184l106 346h395l-213 -346h-288z" />
    <glyph glyph-name="uni0145" unicode="&#x145;" horiz-adv-x="1611" 
d="M133 0v1464h520l416 -774v774h408v-1464h-445l-489 877v-877h-410zM776 -477l-225 55l80 359l352 -25z" />
    <glyph glyph-name="uni0146" unicode="&#x146;" horiz-adv-x="1288" 
d="M96 0v1071h404v-172q48 91 137 146t217 55q158 0 251 -100.5t93 -294.5v-705h-403v614q0 83 -32.5 123.5t-103.5 40.5q-77 0 -118 -46.5t-41 -139.5v-592h-404zM621 -477l-226 55l80 359l352 -25z" />
    <glyph glyph-name="Ncaron" unicode="&#x147;" horiz-adv-x="1611" 
d="M133 0v1464h520l416 -774v774h408v-1464h-445l-489 877v-877h-410zM670 1550l-226 305h291l111 -96l110 96h285l-235 -305h-336z" />
    <glyph glyph-name="ncaron" unicode="&#x148;" horiz-adv-x="1288" 
d="M96 0v1071h404v-172q48 91 137 146t217 55q158 0 251 -100.5t93 -294.5v-705h-403v614q0 83 -32.5 123.5t-103.5 40.5q-77 0 -118 -46.5t-41 -139.5v-592h-404zM498 1188l-246 340h280l115 -107l115 107h274l-256 -340h-282z" />
    <glyph glyph-name="napostrophe" unicode="&#x149;" horiz-adv-x="1574" 
d="M381 0v1071h403v-172q47 91 137 146t218 55q158 0 251 -100.5t93 -294.5v-705h-404v614q0 83 -32 123.5t-103 40.5q-77 0 -118.5 -46.5t-41.5 -139.5v-592h-403zM166 854l-223 86l159 551l351 -113z" />
    <glyph glyph-name="Eng" unicode="&#x14a;" horiz-adv-x="1611" 
d="M969 -393q-152 0 -262 47v326q3 -1 18.5 -5.5t20 -6t18 -5t21.5 -4.5t21 -3t26 -2.5t28 -0.5q128 0 154 86l-465 860v-899h-416v1464h526l404 -786v786h414v-1411q0 -204 -129 -325t-379 -121z" />
    <glyph glyph-name="eng" unicode="&#x14b;" horiz-adv-x="1288" 
d="M672 -375v289q65 3 94 30.5t29 88.5v581q0 83 -32.5 123.5t-103.5 40.5q-77 0 -118 -46.5t-41 -139.5v-592h-404v1071h404v-172q48 91 137 146t217 55q158 0 251 -100.5t93 -294.5v-682q0 -94 -24.5 -163.5t-82.5 -124t-163 -82.5t-256 -28z" />
    <glyph glyph-name="Omacron" unicode="&#x14c;" horiz-adv-x="1679" 
d="M829 -27q-236 0 -412 95t-269 264.5t-93 390.5v16q0 221 104.5 393t282 263.5t396.5 91.5q227 0 403.5 -86t279.5 -254.5t103 -394.5v-17q0 -343 -217.5 -552.5t-577.5 -209.5zM842 338q138 0 218.5 103t80.5 284v16q0 183 -81.5 283t-221.5 100q-138 0 -217.5 -99.5
t-79.5 -283.5v-16q0 -185 80.5 -286t220.5 -101zM496 1575v235h682v-235h-682z" />
    <glyph glyph-name="omacron" unicode="&#x14d;" horiz-adv-x="1282" 
d="M641 -27q-126 0 -234 37t-189 105t-127 173t-46 234v17q0 128 46 234t126 177.5t190 110.5t236 39q168 0 302 -65t213 -191.5t79 -294.5v-17q0 -171 -79.5 -299.5t-214 -194t-302.5 -65.5zM643 270q184 0 184 260v15q0 258 -184 258q-93 0 -141.5 -63.5t-48.5 -188.5v-16
q0 -265 190 -265zM315 1239v219h648v-219h-648z" />
    <glyph glyph-name="Obreve" unicode="&#x14e;" horiz-adv-x="1679" 
d="M829 -27q-236 0 -412 95t-269 264.5t-93 390.5v16q0 221 104.5 393t282 263.5t396.5 91.5q227 0 403.5 -86t279.5 -254.5t103 -394.5v-17q0 -343 -217.5 -552.5t-577.5 -209.5zM842 338q138 0 218.5 103t80.5 284v16q0 183 -81.5 283t-221.5 100q-138 0 -217.5 -99.5
t-79.5 -283.5v-16q0 -185 80.5 -286t220.5 -101zM838 1534q-159 0 -250.5 84t-100.5 237h254q3 -40 28.5 -63t68.5 -23q39 0 65 23.5t31 62.5h254q-10 -151 -103.5 -236t-246.5 -85z" />
    <glyph glyph-name="obreve" unicode="&#x14f;" horiz-adv-x="1282" 
d="M641 -27q-126 0 -234 37t-189 105t-127 173t-46 234v17q0 128 46 234t126 177.5t190 110.5t236 39q168 0 302 -65t213 -191.5t79 -294.5v-17q0 -171 -79.5 -299.5t-214 -194t-302.5 -65.5zM643 270q184 0 184 260v15q0 258 -184 258q-93 0 -141.5 -63.5t-48.5 -188.5v-16
q0 -265 190 -265zM639 1190q-157 0 -248 86.5t-98 247.5h244q3 -43 29 -67.5t73 -24.5q44 0 71.5 24.5t32.5 67.5h242q-9 -160 -102 -247t-244 -87z" />
    <glyph glyph-name="Ohungarumlaut" unicode="&#x150;" horiz-adv-x="1679" 
d="M829 -27q-236 0 -412 95t-269 264.5t-93 390.5v16q0 221 104.5 393t282 263.5t396.5 91.5q227 0 403.5 -86t279.5 -254.5t103 -394.5v-17q0 -343 -217.5 -552.5t-577.5 -209.5zM842 338q138 0 218.5 103t80.5 284v16q0 183 -81.5 283t-221.5 100q-138 0 -217.5 -99.5
t-79.5 -283.5v-16q0 -185 80.5 -286t220.5 -101zM885 1550l84 305h336l-154 -305h-266zM471 1550l86 305h334l-154 -305h-266z" />
    <glyph glyph-name="ohungarumlaut" unicode="&#x151;" horiz-adv-x="1282" 
d="M641 -27q-126 0 -234 37t-189 105t-127 173t-46 234v17q0 128 46 234t126 177.5t190 110.5t236 39q168 0 302 -65t213 -191.5t79 -294.5v-17q0 -171 -79.5 -299.5t-214 -194t-302.5 -65.5zM643 270q184 0 184 260v15q0 258 -184 258q-93 0 -141.5 -63.5t-48.5 -188.5v-16
q0 -265 190 -265zM680 1184l90 346h303l-158 -346h-235zM309 1184l90 346h303l-159 -346h-234z" />
    <glyph glyph-name="OE" unicode="&#x152;" horiz-adv-x="2013" 
d="M55 729q0 352 204 543.5t585 191.5h1075v-356h-549v-207h428v-326h-428v-219h580v-356h-1106q-388 0 -588.5 182.5t-200.5 532.5v14zM909 1108h-51q-168 0 -242.5 -88t-74.5 -281v-16q0 -199 75 -283t246 -84h47v752z" />
    <glyph glyph-name="oe" unicode="&#x153;" horiz-adv-x="2015" 
d="M641 -27q-126 0 -234.5 37t-189.5 105t-127.5 173t-46.5 234v17q0 128 46.5 234.5t127 178t190.5 111t236 39.5q240 0 387 -150q150 150 385 150q115 0 214 -33.5t176.5 -100t122 -175t44.5 -248.5v-99h-743q7 -96 60.5 -147t140.5 -51q145 0 167 114h375
q-24 -187 -165.5 -288t-391.5 -101q-248 0 -393 142q-145 -142 -381 -142zM1231 657h352q-3 88 -45.5 136.5t-122.5 48.5q-75 0 -123.5 -48t-60.5 -137zM643 270q91 0 137.5 66t46.5 192v17q0 258 -184 258q-188 0 -188 -252v-16q0 -265 188 -265z" />
    <glyph glyph-name="Racute" unicode="&#x154;" horiz-adv-x="1454" 
d="M596 801h109q190 0 190 160v8q0 78 -46 112.5t-142 34.5h-111v-315zM133 0v1464h598q302 0 457 -120t155 -355v-8q0 -271 -247 -383l334 -598h-488l-272 502h-74v-502h-463zM530 1550l105 305h412l-211 -305h-306z" />
    <glyph glyph-name="racute" unicode="&#x155;" horiz-adv-x="897" 
d="M96 0v1071h404v-217q96 234 344 231v-376q-168 9 -256 -45.5t-88 -169.5v-494h-404zM338 1184l106 346h396l-213 -346h-289z" />
    <glyph glyph-name="uni0156" unicode="&#x156;" horiz-adv-x="1454" 
d="M596 801h109q190 0 190 160v8q0 78 -46 112.5t-142 34.5h-111v-315zM133 0v1464h598q302 0 457 -120t155 -355v-8q0 -271 -247 -383l334 -598h-488l-272 502h-74v-502h-463zM748 -477l-226 55l80 359l352 -25z" />
    <glyph glyph-name="uni0157" unicode="&#x157;" horiz-adv-x="897" 
d="M96 0v1071h404v-217q96 234 344 231v-376q-168 9 -256 -45.5t-88 -169.5v-494h-404zM283 -477l-226 55l80 359l352 -25z" />
    <glyph glyph-name="Rcaron" unicode="&#x158;" horiz-adv-x="1454" 
d="M596 801h109q190 0 190 160v8q0 78 -46 112.5t-142 34.5h-111v-315zM133 0v1464h598q302 0 457 -120t155 -355v-8q0 -271 -247 -383l334 -598h-488l-272 502h-74v-502h-463zM524 1550l-225 305h291l110 -96l111 96h285l-236 -305h-336z" />
    <glyph glyph-name="rcaron" unicode="&#x159;" horiz-adv-x="897" 
d="M96 0v1071h404v-217q96 234 344 231v-376q-168 9 -256 -45.5t-88 -169.5v-494h-404zM344 1188l-246 340h281l115 -107l114 107h275l-256 -340h-283z" />
    <glyph glyph-name="Sacute" unicode="&#x15a;" horiz-adv-x="1337" 
d="M684 -27q-311 0 -474.5 124.5t-170.5 371.5h440q7 -78 53 -123t152 -45q80 0 121 32.5t41 88.5q0 57 -43.5 82t-165.5 43q-315 35 -440 139.5t-125 331.5q0 206 158 336.5t427 130.5q553 0 590 -467h-430q-16 141 -160 141q-70 0 -107.5 -28.5t-37.5 -77.5q0 -54 43 -81
t162 -42q97 -10 171 -25t141 -39t113.5 -58t80.5 -81.5t50.5 -111t16.5 -144.5q0 -103 -40 -193t-115 -158t-191.5 -107.5t-259.5 -39.5zM494 1550l104 305h412l-211 -305h-305z" />
    <glyph glyph-name="sacute" unicode="&#x15b;" horiz-adv-x="1071" 
d="M535 -27q-237 0 -368.5 95.5t-135.5 275.5h368q10 -57 39 -84t94 -27q57 0 85 20.5t28 55.5q0 36 -41.5 56.5t-146.5 33.5q-112 13 -187.5 35t-128.5 61.5t-76.5 98.5t-23.5 145q0 119 65.5 202.5t171 122t240.5 38.5q221 0 346.5 -83t143.5 -271h-363q-19 100 -121 100
q-53 0 -79.5 -20.5t-26.5 -53.5q0 -36 38.5 -54.5t129.5 -27.5q243 -29 347.5 -102t104.5 -240q0 -191 -133 -284t-370 -93zM377 1184l106 346h396l-213 -346h-289z" />
    <glyph glyph-name="Scircumflex" unicode="&#x15c;" horiz-adv-x="1337" 
d="M684 -27q-311 0 -474.5 124.5t-170.5 371.5h440q7 -78 53 -123t152 -45q80 0 121 32.5t41 88.5q0 57 -43.5 82t-165.5 43q-315 35 -440 139.5t-125 331.5q0 206 158 336.5t427 130.5q553 0 590 -467h-430q-16 141 -160 141q-70 0 -107.5 -28.5t-37.5 -77.5q0 -54 43 -81
t162 -42q97 -10 171 -25t141 -39t113.5 -58t80.5 -81.5t50.5 -111t16.5 -144.5q0 -103 -40 -193t-115 -158t-191.5 -107.5t-259.5 -39.5zM264 1550l236 305h336l225 -305h-291l-111 97l-110 -97h-285z" />
    <glyph glyph-name="scircumflex" unicode="&#x15d;" horiz-adv-x="1071" 
d="M535 -27q-237 0 -368.5 95.5t-135.5 275.5h368q10 -57 39 -84t94 -27q57 0 85 20.5t28 55.5q0 36 -41.5 56.5t-146.5 33.5q-112 13 -187.5 35t-128.5 61.5t-76.5 98.5t-23.5 145q0 119 65.5 202.5t171 122t240.5 38.5q221 0 346.5 -83t143.5 -271h-363q-19 100 -121 100
q-53 0 -79.5 -20.5t-26.5 -53.5q0 -36 38.5 -54.5t129.5 -27.5q243 -29 347.5 -102t104.5 -240q0 -191 -133 -284t-370 -93zM133 1188l256 340h283l246 -340h-281l-115 108l-114 -108h-275z" />
    <glyph glyph-name="uni015E" unicode="&#x15e;" horiz-adv-x="1337" 
d="M629 -467q-116 0 -186 49.5t-85 143.5h185q12 -54 71 -54q29 0 45.5 16.5t16.5 43.5t-17.5 44t-50.5 17q-44 0 -65 -24l-82 84l84 129q-244 25 -372 147.5t-134 339.5h440q7 -78 53 -123t152 -45q80 0 121 32.5t41 88.5q0 57 -43.5 82t-165.5 43q-315 35 -440 139.5
t-125 331.5q0 206 158 336.5t427 130.5q553 0 590 -467h-430q-16 141 -160 141q-70 0 -107.5 -28.5t-37.5 -77.5q0 -54 43 -81t162 -42q97 -10 171 -25t141 -39t113.5 -58t80.5 -81.5t50.5 -111t16.5 -144.5q0 -102 -39.5 -191t-112.5 -157t-187 -108t-255 -42l-45 -63
q99 10 166.5 -36t67.5 -142q0 -93 -69 -146t-187 -53z" />
    <glyph glyph-name="uni015F" unicode="&#x15f;" horiz-adv-x="1071" 
d="M498 -467q-116 0 -186 49.5t-85 143.5h185q12 -54 71 -54q29 0 45.5 16.5t16.5 43.5t-17.5 44t-50.5 17q-44 0 -65 -24l-82 84l84 129q-182 22 -281 114.5t-102 247.5h368q10 -57 39 -84t94 -27q57 0 85 20.5t28 55.5q0 36 -41.5 56.5t-146.5 33.5q-112 13 -187.5 35
t-128.5 61.5t-76.5 98.5t-23.5 145q0 119 65.5 202.5t171 122t240.5 38.5q221 0 346.5 -83t143.5 -271h-363q-19 100 -121 100q-53 0 -79.5 -20.5t-26.5 -53.5q0 -36 38.5 -54.5t129.5 -27.5q243 -29 347.5 -102t104.5 -240q0 -185 -125 -278t-348 -99l-45 -63
q99 10 166.5 -36t67.5 -142q0 -93 -69 -146t-187 -53z" />
    <glyph glyph-name="Scaron" unicode="&#x160;" horiz-adv-x="1337" 
d="M684 -27q-311 0 -474.5 124.5t-170.5 371.5h440q7 -78 53 -123t152 -45q80 0 121 32.5t41 88.5q0 57 -43.5 82t-165.5 43q-315 35 -440 139.5t-125 331.5q0 206 158 336.5t427 130.5q553 0 590 -467h-430q-16 141 -160 141q-70 0 -107.5 -28.5t-37.5 -77.5q0 -54 43 -81
t162 -42q97 -10 171 -25t141 -39t113.5 -58t80.5 -81.5t50.5 -111t16.5 -144.5q0 -103 -40 -193t-115 -158t-191.5 -107.5t-259.5 -39.5zM487 1550l-225 305h291l111 -96l110 96h285l-236 -305h-336z" />
    <glyph glyph-name="scaron" unicode="&#x161;" horiz-adv-x="1071" 
d="M535 -27q-237 0 -368.5 95.5t-135.5 275.5h368q10 -57 39 -84t94 -27q57 0 85 20.5t28 55.5q0 36 -41.5 56.5t-146.5 33.5q-112 13 -187.5 35t-128.5 61.5t-76.5 98.5t-23.5 145q0 119 65.5 202.5t171 122t240.5 38.5q221 0 346.5 -83t143.5 -271h-363q-19 100 -121 100
q-53 0 -79.5 -20.5t-26.5 -53.5q0 -36 38.5 -54.5t129.5 -27.5q243 -29 347.5 -102t104.5 -240q0 -191 -133 -284t-370 -93zM373 1188l-246 340h281l114 -107l115 107h274l-256 -340h-282z" />
    <glyph glyph-name="Tcommaaccent" unicode="&#x162;" horiz-adv-x="1288" 
d="M410 0v1108h-369v356h1206v-356h-370v-1108h-467zM616 -477l-225 55l80 359l352 -25z" />
    <glyph glyph-name="tcommaaccent" unicode="&#x163;" horiz-adv-x="811" 
d="M543 -25q-396 0 -396 383v443h-124v270h124v219h404v-219h205v-270h-205v-404q0 -104 104 -104q54 0 101 16v-303q-108 -31 -213 -31zM410 -477l-226 55l80 359l352 -25z" />
    <glyph glyph-name="Tcaron" unicode="&#x164;" horiz-adv-x="1288" 
d="M410 0v1108h-369v356h1206v-356h-370v-1108h-467zM465 1550l-225 305h290l111 -96l111 96h284l-235 -305h-336z" />
    <glyph glyph-name="tcaron" unicode="&#x165;" horiz-adv-x="811" 
d="M543 -25q-396 0 -396 383v443h-124v270h124v219h404v-219h205v-270h-205v-404q0 -104 104 -104q54 0 101 16v-303q-108 -31 -213 -31zM635 1178l16 358h287l-102 -358h-201z" />
    <glyph glyph-name="Tbar" unicode="&#x166;" horiz-adv-x="1288" 
d="M160 549v287h250v272h-369v356h1206v-356h-370v-272h251v-287h-251v-549h-467v549h-250z" />
    <glyph glyph-name="tbar" unicode="&#x167;" horiz-adv-x="811" 
d="M25 481v197h122v123h-122v270h122v219h404v-219h205v-270h-205v-123h205v-197h-205v-86q0 -104 104 -104q49 0 99 18v-303q-135 -33 -211 -33q-396 0 -396 385v123h-122z" />
    <glyph glyph-name="Utilde" unicode="&#x168;" horiz-adv-x="1589" 
d="M795 -27q-324 0 -497 160t-173 471v860h463v-841q0 -151 44 -218t163 -67q118 0 161 67t43 220v839h467v-856q0 -162 -47 -284t-135.5 -198.5t-210.5 -114.5t-278 -38zM926 1546q-51 0 -99.5 16.5t-86 33t-62.5 16.5q-24 0 -40.5 -17t-21.5 -45h-223q10 162 81.5 245
t176.5 83q62 0 143 -33t111 -33q50 0 60 62h225q-11 -161 -86 -244.5t-178 -83.5z" />
    <glyph glyph-name="utilde" unicode="&#x169;" horiz-adv-x="1286" 
d="M446 -27q-160 0 -259 101.5t-99 294.5v702h404v-633q0 -83 32.5 -123.5t102.5 -40.5q77 0 118 46.5t41 140.5v610h404v-1071h-404v166q-99 -193 -340 -193zM774 1190q-52 0 -99.5 16.5t-83 32.5t-59.5 16t-41 -17t-20 -44h-213q9 163 74.5 247.5t167.5 84.5q62 0 141 -33
t107 -33q51 0 61 64h213q-10 -163 -79 -248.5t-169 -85.5z" />
    <glyph glyph-name="Umacron" unicode="&#x16a;" horiz-adv-x="1589" 
d="M795 -27q-324 0 -497 160t-173 471v860h463v-841q0 -151 44 -218t163 -67q118 0 161 67t43 220v839h467v-856q0 -162 -47 -284t-135.5 -198.5t-210.5 -114.5t-278 -38zM449 1575v235h681v-235h-681z" />
    <glyph glyph-name="umacron" unicode="&#x16b;" horiz-adv-x="1286" 
d="M446 -27q-160 0 -259 101.5t-99 294.5v702h404v-633q0 -83 32.5 -123.5t102.5 -40.5q77 0 118 46.5t41 140.5v610h404v-1071h-404v166q-99 -193 -340 -193zM315 1239v219h648v-219h-648z" />
    <glyph glyph-name="Ubreve" unicode="&#x16c;" horiz-adv-x="1589" 
d="M795 -27q-324 0 -497 160t-173 471v860h463v-841q0 -151 44 -218t163 -67q118 0 161 67t43 220v839h467v-856q0 -162 -47 -284t-135.5 -198.5t-210.5 -114.5t-278 -38zM791 1534q-159 0 -250.5 84t-100.5 237h254q3 -40 28.5 -63t68.5 -23q39 0 65 23.5t31 62.5h254
q-10 -151 -103.5 -236t-246.5 -85z" />
    <glyph glyph-name="ubreve" unicode="&#x16d;" horiz-adv-x="1286" 
d="M446 -27q-160 0 -259 101.5t-99 294.5v702h404v-633q0 -83 32.5 -123.5t102.5 -40.5q77 0 118 46.5t41 140.5v610h404v-1071h-404v166q-99 -193 -340 -193zM639 1190q-157 0 -248 86.5t-98 247.5h244q3 -43 29 -67.5t73 -24.5q44 0 71.5 24.5t32.5 67.5h242
q-9 -160 -102 -247t-244 -87z" />
    <glyph glyph-name="Uring" unicode="&#x16e;" horiz-adv-x="1589" 
d="M795 -27q-324 0 -497 160t-173 471v860h463v-841q0 -151 44 -218t163 -67q118 0 161 67t43 220v839h467v-856q0 -162 -47 -284t-135.5 -198.5t-210.5 -114.5t-278 -38zM791 1479q-103 0 -176.5 70.5t-73.5 170.5t73.5 171t176.5 71t176 -71t73 -171t-73 -170.5
t-176 -70.5zM791 1618q40 0 66 29t26 73t-26 72.5t-66 28.5q-41 0 -67 -28.5t-26 -72.5t26 -73t67 -29z" />
    <glyph glyph-name="uring" unicode="&#x16f;" horiz-adv-x="1286" 
d="M446 -27q-160 0 -259 101.5t-99 294.5v702h404v-633q0 -83 32.5 -123.5t102.5 -40.5q77 0 118 46.5t41 140.5v610h404v-1071h-404v166q-99 -193 -340 -193zM637 1130q-101 0 -173.5 70t-72.5 168t72.5 169t173.5 71t173.5 -71t72.5 -169t-72.5 -168t-173.5 -70zM637 1270
q40 0 65 27.5t25 70.5q0 44 -25 72t-65 28t-65 -28t-25 -72q0 -43 25 -70.5t65 -27.5z" />
    <glyph glyph-name="Uhungarumlaut" unicode="&#x170;" horiz-adv-x="1589" 
d="M795 -27q-324 0 -497 160t-173 471v860h463v-841q0 -151 44 -218t163 -67q118 0 161 67t43 220v839h467v-856q0 -162 -47 -284t-135.5 -198.5t-210.5 -114.5t-278 -38zM838 1550l84 305h335l-153 -305h-266zM424 1550l86 305h334l-154 -305h-266z" />
    <glyph glyph-name="uhungarumlaut" unicode="&#x171;" horiz-adv-x="1286" 
d="M446 -27q-160 0 -259 101.5t-99 294.5v702h404v-633q0 -83 32.5 -123.5t102.5 -40.5q77 0 118 46.5t41 140.5v610h404v-1071h-404v166q-99 -193 -340 -193zM680 1184l90 346h303l-158 -346h-235zM309 1184l90 346h303l-159 -346h-234z" />
    <glyph glyph-name="Uogonek" unicode="&#x172;" horiz-adv-x="1589" 
d="M872 -373q-115 0 -183 44.5t-68 119.5q0 101 131 184q-304 11 -465.5 169.5t-161.5 459.5v860h463v-841q0 -151 44 -218t163 -67q118 0 161 67t43 220v839h467v-856q0 -425 -323 -573q-6 -3 -18 -8q-42 -18 -62.5 -28.5t-47.5 -28.5t-38.5 -37.5t-11.5 -43.5
q0 -51 59 -51q32 0 51 8v-184q-68 -35 -203 -35z" />
    <glyph glyph-name="uogonek" unicode="&#x173;" horiz-adv-x="1286" 
d="M1004 -373q-113 0 -178.5 45t-65.5 123q0 71 49.5 119t130.5 86h-154v166q-99 -193 -340 -193q-160 0 -259 101.5t-99 294.5v702h404v-633q0 -83 32.5 -123.5t102.5 -40.5q77 0 118 46.5t41 140.5v610h404v-1044q-107 -84 -107 -148q0 -26 17 -39.5t45 -13.5q32 0 51 8
v-172q-72 -35 -192 -35z" />
    <glyph glyph-name="Wcircumflex" unicode="&#x174;" horiz-adv-x="2066" 
d="M360 0l-340 1464h469l168 -874l177 874h403l199 -884l178 884h430l-340 -1464h-469l-205 874l-207 -874h-463zM635 1550l235 305h336l226 -305h-291l-111 97l-110 -97h-285z" />
    <glyph glyph-name="wcircumflex" unicode="&#x175;" horiz-adv-x="1748" 
d="M332 0l-322 1071h420l139 -600l164 600h324l143 -600l162 600h377l-340 -1071h-379l-150 559l-147 -559h-391zM479 1188l256 340h283l246 -340h-281l-115 108l-114 -108h-275z" />
    <glyph glyph-name="Ycircumflex" unicode="&#x176;" horiz-adv-x="1417" 
d="M485 0v625l-475 839h504l223 -458l226 458h444l-455 -837v-627h-467zM324 1550l235 305h336l225 -305h-291l-110 97l-111 -97h-284z" />
    <glyph glyph-name="ycircumflex" unicode="&#x177;" 
d="M264 -356l174 462l-428 965h436l203 -534l189 534h381l-572 -1427h-383zM240 1188l256 340h282l246 -340h-281l-114 108l-115 -108h-274z" />
    <glyph glyph-name="Ydieresis" unicode="&#x178;" horiz-adv-x="1417" 
d="M485 0v625l-475 839h504l223 -458l226 458h444l-455 -837v-627h-467zM954 1540q-78 0 -132 53.5t-54 128.5q0 77 54 130t132 53t133.5 -53.5t55.5 -129.5q0 -75 -55.5 -128.5t-133.5 -53.5zM489 1540q-78 0 -132 53.5t-54 128.5q0 77 54 130t132 53t133.5 -53.5
t55.5 -129.5q0 -75 -55.5 -128.5t-133.5 -53.5z" />
    <glyph glyph-name="Zacute" unicode="&#x179;" horiz-adv-x="1284" 
d="M20 0v49l586 1067h-504v348h1153v-49l-579 -1065h545v-350h-1201zM485 1550l105 305h411l-210 -305h-306z" />
    <glyph glyph-name="zacute" unicode="&#x17a;" horiz-adv-x="1050" 
d="M16 0v39l439 731h-392v301h965v-41l-459 -731h430v-299h-983zM383 1184l106 346h396l-213 -346h-289z" />
    <glyph glyph-name="Zdotaccent" unicode="&#x17b;" horiz-adv-x="1284" 
d="M20 0v49l586 1067h-504v348h1153v-49l-579 -1065h545v-350h-1201zM657 1540q-91 0 -151 56t-60 139q0 85 60 140.5t151 55.5q90 0 149.5 -55.5t59.5 -140.5q0 -83 -60 -139t-149 -56z" />
    <glyph glyph-name="zdotaccent" unicode="&#x17c;" horiz-adv-x="1050" 
d="M16 0v39l439 731h-392v301h965v-41l-459 -731h430v-299h-983zM539 1167q-92 0 -151.5 55t-59.5 140t59.5 141t151.5 56q90 0 150.5 -56.5t60.5 -140.5t-60.5 -139.5t-150.5 -55.5z" />
    <glyph glyph-name="Zcaron" unicode="&#x17d;" horiz-adv-x="1284" 
d="M20 0v49l586 1067h-504v348h1153v-49l-579 -1065h545v-350h-1201zM479 1550l-225 305h291l110 -96l111 96h285l-236 -305h-336z" />
    <glyph glyph-name="zcaron" unicode="&#x17e;" horiz-adv-x="1050" 
d="M16 0v39l439 731h-392v301h965v-41l-459 -731h430v-299h-983zM389 1188l-246 340h281l115 -107l114 107h275l-256 -340h-283z" />
    <glyph glyph-name="uni0192" unicode="&#x192;" horiz-adv-x="933" 
d="M45 580v270h182l35 244q14 105 53.5 181t101 121.5t139.5 67t177 21.5q88 0 164 -23v-299q-43 15 -100 15q-122 0 -140 -119l-30 -209h227v-270h-264l-133 -953h-400l133 953h-145z" />
    <glyph glyph-name="Aringacute" unicode="&#x1fa;" horiz-adv-x="1556" 
d="M750 1090l-146 -531h289zM18 0l461 1464h600l459 -1464h-491l-68 244h-463l-65 -244h-433zM780 1516q-103 0 -176.5 70.5t-73.5 170.5t73.5 171t176.5 71t176.5 -71t73.5 -171t-73.5 -170.5t-176.5 -70.5zM780 1655q40 0 66 29t26 73t-26 72.5t-66 28.5
q-41 0 -66.5 -28.5t-25.5 -72.5q0 -45 25.5 -73.5t66.5 -28.5zM627 2034l104 305h412l-211 -305h-305z" />
    <glyph glyph-name="aringacute" unicode="&#x1fb;" horiz-adv-x="1198" 
d="M551 244q70 0 114 36t44 95v55h-86q-102 0 -143.5 -22.5t-41.5 -79.5q0 -39 29 -61.5t84 -22.5zM406 -27q-75 0 -139 19t-115.5 57t-81 101.5t-29.5 146.5q0 184 144 267t431 83h93v19q0 78 -25 116.5t-100 38.5q-63 0 -92.5 -32.5t-34.5 -81.5h-377q12 193 152.5 294
t375.5 101q240 0 370 -101.5t130 -308.5v-692h-389v123q-39 -64 -116 -107t-197 -43zM604 1167q-101 0 -173.5 70t-72.5 168t72.5 169t173.5 71t173.5 -71t72.5 -169t-72.5 -168t-173.5 -70zM604 1307q40 0 65 27.5t25 70.5q0 44 -25 72t-65 28t-65 -28t-25 -72
q0 -43 25 -70.5t65 -27.5zM461 1698l104 305h412l-211 -305h-305z" />
    <glyph glyph-name="AEacute" unicode="&#x1fc;" horiz-adv-x="2072" 
d="M915 1108l-219 -524h256v524h-37zM14 0l641 1464h1321v-356h-563v-207h445v-326h-445v-219h596v-356h-1057v276h-383l-114 -276h-441zM1087 1550l105 305h412l-211 -305h-306z" />
    <glyph glyph-name="aeacute" unicode="&#x1fd;" horiz-adv-x="1869" 
d="M1282 -27q-288 0 -422 181q-67 -88 -166.5 -134.5t-249.5 -46.5q-85 0 -157 19t-128 57t-88 101.5t-32 146.5q0 185 144 270.5t429 85.5h101v13q0 77 -27.5 116t-101.5 39q-65 0 -93.5 -29.5t-35.5 -84.5h-377q12 192 151.5 293.5t368.5 101.5q241 0 340 -117
q132 117 338 117q115 0 213 -33.5t174.5 -99.5t120 -174.5t43.5 -249.5v-96h-731q7 -98 56.5 -149.5t135.5 -51.5q144 0 166 114h373q-24 -187 -162 -288t-383 -101zM1098 653h342q-10 189 -164 189q-75 0 -122 -49t-56 -140zM551 244q75 0 118.5 35.5t43.5 95.5v67h-95
q-96 0 -139 -23.5t-43 -80.5q0 -46 29.5 -70t85.5 -24zM817 1184l107 346h395l-213 -346h-289z" />
    <glyph glyph-name="Oslashacute" unicode="&#x1fe;" horiz-adv-x="1679" 
d="M535 725q0 -99 20 -166l473 502q-78 63 -190 63q-141 0 -222 -98.5t-81 -284.5v-16zM840 338q142 0 223.5 103t81.5 286v16q0 97 -25 177l-481 -508q77 -74 201 -74zM186 -68l-116 115l159 168q-174 199 -174 508v16q0 221 104.5 392.5t282 262.5t396.5 91
q270 0 473 -127l149 160l117 -115l-139 -148q188 -194 188 -503v-17q0 -344 -218 -553t-579 -209q-284 0 -477 133zM668 1550l104 305h412l-211 -305h-305z" />
    <glyph glyph-name="oslashacute" unicode="&#x1ff;" horiz-adv-x="1282" 
d="M449 535q0 -45 6 -86l301 321q-47 35 -113 35q-194 0 -194 -254v-16zM643 268q95 0 143 66.5t48 193.5v17q0 29 -9 94l-307 -328q46 -43 125 -43zM150 -80l-105 94l131 140q-133 146 -133 368v17q0 128 46.5 234.5t127 178t190.5 111t236 39.5q194 0 342 -88l133 141
l103 -94l-127 -135q143 -146 143 -377v-17q0 -171 -79.5 -299.5t-214 -194t-302.5 -65.5q-205 0 -354 93zM485 1184l107 346h395l-213 -346h-289z" />
    <glyph glyph-name="uni0218" unicode="&#x218;" horiz-adv-x="1341" 
d="M684 -27q-311 0 -474.5 124.5t-170.5 371.5h440q7 -78 53 -123t152 -45q80 0 121 32.5t41 88.5q0 57 -43.5 82t-165.5 43q-315 35 -440 139.5t-125 331.5q0 206 158 336.5t427 130.5q553 0 590 -467h-430q-16 141 -160 141q-70 0 -107.5 -28.5t-37.5 -77.5q0 -54 43 -81
t162 -42q97 -10 171 -25t141 -39t113.5 -58t80.5 -81.5t50.5 -111t16.5 -144.5q0 -103 -40 -193t-115 -158t-191.5 -107.5t-259.5 -39.5zM639 -477l-225 55l80 359l352 -25z" />
    <glyph glyph-name="uni0219" unicode="&#x219;" horiz-adv-x="1067" 
d="M530 -27q-236 0 -367.5 95.5t-135.5 275.5h368q10 -57 39 -84t94 -27q57 0 85 20.5t28 55.5q0 36 -41.5 56.5t-146.5 33.5q-112 13 -187.5 35t-128.5 61.5t-76.5 98.5t-23.5 145q0 119 65.5 202.5t171 122t240.5 38.5q221 0 346.5 -83t143.5 -271h-363q-19 100 -121 100
q-53 0 -79.5 -20.5t-26.5 -53.5q0 -36 38.5 -54.5t129.5 -27.5q243 -29 347.5 -102t104.5 -240q0 -191 -133.5 -284t-370.5 -93zM502 -477l-226 55l80 359l353 -25z" />
    <glyph glyph-name="uni021A" unicode="&#x21a;" horiz-adv-x="1288" 
d="M410 0v1108h-369v356h1206v-356h-370v-1108h-467zM616 -477l-225 55l80 359l352 -25z" />
    <glyph glyph-name="uni021B" unicode="&#x21b;" horiz-adv-x="811" 
d="M543 -25q-396 0 -396 383v443h-124v270h124v219h404v-219h205v-270h-205v-404q0 -104 104 -104q54 0 101 16v-303q-108 -31 -213 -31zM410 -477l-226 55l80 359l352 -25z" />
    <glyph glyph-name="uni0237" unicode="&#x237;" horiz-adv-x="620" 
d="M-18 -375v289q65 3 94.5 30.5t29.5 88.5v1038h404v-1048q0 -94 -24.5 -163.5t-82.5 -124t-163.5 -82.5t-257.5 -28z" />
    <glyph glyph-name="uni02BC" unicode="&#x2bc;" horiz-adv-x="657" 
d="M309 854l-223 86l160 551l350 -113z" />
    <glyph glyph-name="circumflex" unicode="&#x2c6;" horiz-adv-x="819" 
d="M16 1188l256 340h283l246 -340h-281l-114 108l-115 -108h-275z" />
    <glyph glyph-name="caron" unicode="&#x2c7;" horiz-adv-x="819" 
d="M262 1188l-246 340h281l115 -107l114 107h275l-256 -340h-283z" />
    <glyph glyph-name="breve" unicode="&#x2d8;" horiz-adv-x="819" 
d="M410 1190q-157 0 -248.5 86.5t-98.5 247.5h244q3 -43 29.5 -67.5t73.5 -24.5q44 0 71.5 24.5t32.5 67.5h242q-9 -160 -102 -247t-244 -87z" />
    <glyph glyph-name="dotaccent" unicode="&#x2d9;" horiz-adv-x="819" 
d="M410 1167q-92 0 -151.5 55t-59.5 140t59.5 141t151.5 56q90 0 150.5 -56.5t60.5 -140.5t-60.5 -139.5t-150.5 -55.5z" />
    <glyph glyph-name="ring" unicode="&#x2da;" horiz-adv-x="819" 
d="M410 1176q-101 0 -173.5 69.5t-72.5 167.5t72.5 169t173.5 71t173 -71t72 -169t-72 -167.5t-173 -69.5zM410 1315q40 0 65 27.5t25 70.5q0 44 -25 72t-65 28t-65.5 -28t-25.5 -72q0 -43 25.5 -70.5t65.5 -27.5z" />
    <glyph glyph-name="ogonek" unicode="&#x2db;" horiz-adv-x="819" 
d="M397 -373q-104 0 -173.5 43t-69.5 117q0 129 180 213h221q-78 -66 -78 -121q0 -26 17 -39.5t45 -13.5q32 0 51 8v-172q-72 -35 -193 -35z" />
    <glyph glyph-name="tilde" unicode="&#x2dc;" horiz-adv-x="819" 
d="M545 1190q-52 0 -99.5 16.5t-83 32.5t-59.5 16t-41 -17t-20 -44h-213q9 163 74 247.5t167 84.5q62 0 141 -33t107 -33q52 0 62 64h213q-10 -163 -79 -248.5t-169 -85.5z" />
    <glyph glyph-name="hungarumlaut" unicode="&#x2dd;" horiz-adv-x="819" 
d="M467 1184l90 346h303l-158 -346h-235zM96 1184l90 346h303l-159 -346h-234z" />
    <glyph glyph-name="uni037E" unicode="&#x37e;" horiz-adv-x="667" 
d="M365 557q-96 0 -161 63t-65 156t65 157t161 64q98 0 163.5 -64t65.5 -157t-65.5 -156t-163.5 -63zM252 -250l-236 88l166 557l373 -129z" />
    <glyph glyph-name="uni0401" unicode="&#x401;" horiz-adv-x="1269" 
d="M133 0v1464h1041v-356h-578v-207h459v-326h-459v-219h610v-356h-1073zM901 1540q-78 0 -132 53.5t-54 128.5q0 77 54 130t132 53t133.5 -53.5t55.5 -129.5q0 -75 -55.5 -128.5t-133.5 -53.5zM436 1540q-78 0 -132 53.5t-54 128.5q0 77 54 130t132 53t133.5 -53.5
t55.5 -129.5q0 -75 -55.5 -128.5t-133.5 -53.5z" />
    <glyph glyph-name="uni0402" unicode="&#x402;" horiz-adv-x="1751" 
d="M877 840q5 4 14 9.5t40.5 21t67 27t92.5 21t117 9.5q231 0 358.5 -132t127.5 -352q0 -233 -120.5 -363t-361.5 -130q-134 0 -235 49v319q65 -26 125 -26q64 0 96.5 39t32.5 106q0 140 -166 140q-54 0 -101 -15t-67 -30l-20 -15v-518h-467v1108h-369v356h1206v-356h-370
v-268z" />
    <glyph glyph-name="uni0403" unicode="&#x403;" horiz-adv-x="1175" 
d="M133 0v1464h993v-358h-526v-1106h-467zM467 1550l104 305h412l-211 -305h-305z" />
    <glyph glyph-name="uni0404" unicode="&#x404;" horiz-adv-x="1564" 
d="M1528 528q-36 -271 -219.5 -413t-477.5 -142q-193 0 -341.5 54t-242.5 153t-142 236t-48 307v16q0 222 99.5 393.5t271.5 263t387 91.5q613 0 692 -541h-479q-30 178 -211 178q-96 0 -162 -56.5t-92 -164.5h449v-325h-453q22 -115 91 -175.5t175 -60.5q202 0 240 186h463
z" />
    <glyph glyph-name="uni0405" unicode="&#x405;" horiz-adv-x="1337" 
d="M684 -27q-311 0 -474.5 124.5t-170.5 371.5h440q7 -78 53 -123t152 -45q80 0 121 32.5t41 88.5q0 57 -43.5 82t-165.5 43q-315 35 -440 139.5t-125 331.5q0 206 158 336.5t427 130.5q553 0 590 -467h-430q-16 141 -160 141q-70 0 -107.5 -28.5t-37.5 -77.5q0 -54 43 -81
t162 -42q97 -10 171 -25t141 -39t113.5 -58t80.5 -81.5t50.5 -111t16.5 -144.5q0 -103 -40 -193t-115 -158t-191.5 -107.5t-259.5 -39.5z" />
    <glyph glyph-name="uni0406" unicode="&#x406;" horiz-adv-x="749" 
d="M139 0v1464h469v-1464h-469z" />
    <glyph glyph-name="uni0407" unicode="&#x407;" horiz-adv-x="749" 
d="M139 0v1464h469v-1464h-469zM606 1540q-78 0 -132 53.5t-54 128.5q0 77 54 130t132 53t133.5 -53.5t55.5 -129.5q0 -75 -55.5 -128.5t-133.5 -53.5zM141 1540q-78 0 -132 53.5t-54 128.5q0 77 54 130t132 53t133.5 -53.5t55.5 -129.5q0 -75 -55.5 -128.5t-133.5 -53.5z
" />
    <glyph glyph-name="uni0408" unicode="&#x408;" horiz-adv-x="1001" 
d="M344 -18q-178 0 -278 51v342q91 -27 174 -27q184 0 184 191v925h465v-927q0 -274 -136 -414.5t-409 -140.5z" />
    <glyph glyph-name="uni0409" unicode="&#x409;" horiz-adv-x="2162" 
d="M950 0v1106h-270q-7 -289 -23 -479q-11 -125 -30.5 -221t-54.5 -180t-85 -138t-123.5 -84.5t-168.5 -30.5q-27 0 -53 3t-44 6.5t-32 7.5t-22 7l-7 3v352q16 -10 53 -10q74 0 113 87.5t57 266.5q19 209 19 768h1136v-489h123q284 0 433 -121.5t149 -351.5v-8
q0 -494 -602 -494h-568zM1415 342h80q93 0 138.5 34.5t45.5 115.5v8q0 159 -186 159h-78v-317z" />
    <glyph glyph-name="uni040A" unicode="&#x40a;" horiz-adv-x="2191" 
d="M1444 342h80q94 0 139 34.5t45 115.5v8q0 159 -186 159h-78v-317zM981 0v563h-381v-563h-467v1464h467v-540h381v540h463v-489h123q284 0 432.5 -121t148.5 -352v-8q0 -494 -602 -494h-565z" />
    <glyph glyph-name="uni040B" unicode="&#x40b;" horiz-adv-x="1771" 
d="M877 840q5 4 14 9.5t40.5 21t67 27t92.5 21t117 9.5q246 0 366 -138t120 -393v-397h-463v381q0 102 -39 149.5t-137 47.5q-51 0 -95.5 -15t-63.5 -30l-19 -15v-518h-467v1108h-369v356h1206v-356h-370v-268z" />
    <glyph glyph-name="uni040C" unicode="&#x40c;" horiz-adv-x="1527" 
d="M616 1550l105 305h412l-211 -305h-306zM133 0v1464h465v-555l406 555h481l-514 -676l542 -788h-534l-381 586v-586h-465z" />
    <glyph glyph-name="uni040D" unicode="&#x40d;" horiz-adv-x="1656" 
d="M594 0h-461v1464h467v-843l465 843h459v-1464h-465v852zM694 1550l-205 305h414l96 -305h-305z" />
    <glyph glyph-name="uni040E" unicode="&#x40e;" horiz-adv-x="1390" 
d="M731 1534q-162 0 -252.5 84t-101.5 237h266q11 -100 88 -100q74 0 90 100h264q-12 -151 -105 -236t-249 -85zM418 -23q-46 0 -92 7t-69 13.5t-32 10.5v354q63 -18 129 -18q89 0 152 84l-494 1036h482l241 -559l219 559h437l-449 -1046q-40 -92 -75 -156.5t-80.5 -122
t-97 -91t-119.5 -52.5t-152 -19z" />
    <glyph glyph-name="uni040F" unicode="&#x40f;" horiz-adv-x="1605" 
d="M600 0h-467v1464h467v-1106h408v1106h465v-1464h-474l-10 -266h-379z" />
    <glyph glyph-name="uni0410" unicode="&#x410;" horiz-adv-x="1556" 
d="M750 1090l-146 -531h289zM18 0l461 1464h600l459 -1464h-491l-68 244h-463l-65 -244h-433z" />
    <glyph glyph-name="uni0411" unicode="&#x411;" horiz-adv-x="1372" 
d="M1333 475q0 -475 -577 -475h-623v1464h1055v-356h-596v-178h174q278 0 422.5 -118t144.5 -329v-8zM592 328h113q180 0 180 147v8q0 72 -46 111t-137 39h-110v-305z" />
    <glyph glyph-name="uni0412" unicode="&#x412;" horiz-adv-x="1413" 
d="M133 0v1464h692q131 0 229 -29t156.5 -81.5t86.5 -120.5t28 -152v-8q0 -126 -65 -206t-189 -109q136 -24 214.5 -109t78.5 -233v-8q0 -408 -543 -408h-688zM586 893h141q86 0 123 30.5t37 98.5v8q0 67 -38.5 99t-123.5 32h-139v-268zM586 305h147q174 0 174 154v8
q0 74 -44 111.5t-140 37.5h-137v-311z" />
    <glyph glyph-name="uni0413" unicode="&#x413;" horiz-adv-x="1175" 
d="M133 0v1464h993v-358h-526v-1106h-467z" />
    <glyph glyph-name="uni0414" unicode="&#x414;" horiz-adv-x="1589" 
d="M623 659q-19 -190 -70 -301h397v750h-305q-8 -320 -22 -449zM401 0l-14 -266h-401v624h96q60 27 95 112.5t50 234.5q19 183 19 759h1165v-1106h178v-624h-401l-14 266h-773z" />
    <glyph glyph-name="uni0415" unicode="&#x415;" horiz-adv-x="1269" 
d="M133 0v1464h1041v-356h-578v-207h459v-326h-459v-219h610v-356h-1073z" />
    <glyph glyph-name="uni0416" unicode="&#x416;" horiz-adv-x="2140" 
d="M842 0v614l-340 -614h-486l461 772l-440 692h465l340 -583v583h452v-579l342 579h459l-442 -669l471 -795h-506l-324 612v-612h-452z" />
    <glyph glyph-name="uni0417" unicode="&#x417;" horiz-adv-x="1368" 
d="M676 -25q-177 0 -313 58t-223.5 179t-108.5 296h438q33 -182 207 -182q82 0 125 37t43 106q0 135 -154 135h-139v295h135q72 0 104.5 29t32.5 94q0 57 -40 87t-103 30q-163 0 -191 -178h-428q31 253 196 389.5t439 136.5q263 0 423.5 -116.5t160.5 -293.5
q0 -257 -252 -321q134 -21 213.5 -106t79.5 -226q0 -135 -82 -237.5t-228 -157t-335 -54.5z" />
    <glyph glyph-name="uni0418" unicode="&#x418;" horiz-adv-x="1656" 
d="M594 0h-461v1464h467v-843l465 843h459v-1464h-465v852z" />
    <glyph glyph-name="uni0419" unicode="&#x419;" horiz-adv-x="1656" 
d="M817 1534q-161 0 -252 84.5t-100 236.5h266q8 -100 86 -100t90 100h264q-12 -151 -105 -236t-249 -85zM594 0h-461v1464h467v-843l465 843h459v-1464h-465v852z" />
    <glyph glyph-name="uni041A" unicode="&#x41a;" horiz-adv-x="1527" 
d="M133 0v1464h465v-555l406 555h481l-514 -676l542 -788h-534l-381 586v-586h-465z" />
    <glyph glyph-name="uni041B" unicode="&#x41b;" horiz-adv-x="1556" 
d="M649 549q-13 -109 -34 -194.5t-57 -159t-85 -121t-119 -74.5t-159 -27q-27 0 -53 3t-44 6.5t-32 7.5t-22 7l-7 3v352q16 -10 53 -10q71 0 109.5 80.5t56.5 245.5q23 227 23 796h1144v-1464h-465v1106h-278q-11 -380 -31 -557z" />
    <glyph glyph-name="uni041C" unicode="&#x41c;" horiz-adv-x="1961" 
d="M133 0v1464h602l248 -710l252 710h590v-1464h-461v864l-334 -864h-156l-327 864v-864h-414z" />
    <glyph glyph-name="uni041D" unicode="&#x41d;" horiz-adv-x="1626" 
d="M133 0v1464h465v-540h430v540h465v-1464h-465v563h-430v-563h-465z" />
    <glyph glyph-name="uni041E" unicode="&#x41e;" horiz-adv-x="1679" 
d="M829 -27q-236 0 -412 95t-269 264.5t-93 390.5v16q0 221 104.5 393t282 263.5t396.5 91.5q227 0 403.5 -86t279.5 -254.5t103 -394.5v-17q0 -343 -217.5 -552.5t-577.5 -209.5zM842 338q138 0 218.5 103t80.5 284v16q0 183 -81.5 283t-221.5 100q-138 0 -217.5 -99.5
t-79.5 -283.5v-16q0 -185 80.5 -286t220.5 -101z" />
    <glyph glyph-name="uni041F" unicode="&#x41f;" horiz-adv-x="1605" 
d="M1008 0v1104h-408v-1104h-467v1464h1340v-1464h-465z" />
    <glyph glyph-name="uni0420" unicode="&#x420;" horiz-adv-x="1361" 
d="M133 0v1464h584q602 0 602 -501v-9q0 -230 -149.5 -353.5t-432.5 -123.5h-141v-477h-463zM596 788h96q187 0 187 164v9q0 83 -46 120t-139 37h-98v-330z" />
    <glyph glyph-name="uni0421" unicode="&#x421;" horiz-adv-x="1564" 
d="M836 -27q-194 0 -343.5 54t-244.5 153t-143 236t-48 307v16q0 222 99.5 393.5t271.5 263t387 91.5q305 0 487.5 -144t208.5 -434h-479q-11 102 -65 156.5t-150 54.5q-128 0 -199 -97.5t-71 -281.5v-16q0 -183 71.5 -281t206.5 -98q102 0 166 54t76 161h463
q-12 -188 -104.5 -322t-243.5 -200t-346 -66z" />
    <glyph glyph-name="uni0422" unicode="&#x422;" horiz-adv-x="1288" 
d="M410 0v1108h-369v356h1206v-356h-370v-1108h-467z" />
    <glyph glyph-name="uni0423" unicode="&#x423;" horiz-adv-x="1390" 
d="M418 -23q-46 0 -92 7t-69 13.5t-32 10.5v354q63 -18 129 -18q89 0 152 84l-494 1036h482l241 -559l219 559h437l-449 -1046q-40 -92 -75 -156.5t-80.5 -122t-97 -91t-119.5 -52.5t-152 -19z" />
    <glyph glyph-name="uni0424" unicode="&#x424;" horiz-adv-x="1925" 
d="M1194 1329q314 -9 498 -162t184 -419v-17q0 -133 -53 -241.5t-146 -179.5t-216.5 -110.5t-266.5 -43.5v-176h-463v176q-314 8 -498 160.5t-184 418.5v17q0 134 53.5 242.5t146.5 179.5t216 110.5t266 44.5v176h463v-176zM731 475v537q-103 -5 -169 -69.5t-66 -188.5v-17
q0 -129 65.5 -194t169.5 -68zM1194 1008v-537q103 5 169.5 69t66.5 189v16q0 130 -65.5 195t-170.5 68z" />
    <glyph glyph-name="uni0425" unicode="&#x425;" horiz-adv-x="1583" 
d="M37 0l446 754l-413 710h530l205 -411l201 411h475l-383 -694l448 -770h-528l-252 481l-252 -481h-477z" />
    <glyph glyph-name="uni0426" unicode="&#x426;" horiz-adv-x="1648" 
d="M1649 -266h-402l-14 266h-1100v1464h467v-1106h408v1106h465v-1106h176v-624z" />
    <glyph glyph-name="uni0427" unicode="&#x427;" horiz-adv-x="1542" 
d="M1409 0h-463v545q-1 -1 -12.5 -6.5t-20.5 -10t-26.5 -11.5t-34 -12.5t-41 -12t-48.5 -10.5t-54.5 -6.5t-61.5 -2.5q-285 0 -423 151t-138 459v381h463v-393q0 -131 49.5 -190.5t157.5 -59.5q18 0 35.5 1.5t33 5t29 7t25 8t21 8.5t18 9t13.5 7.5t10 6.5l5 3v587h463v-1464
z" />
    <glyph glyph-name="uni0428" unicode="&#x428;" horiz-adv-x="2226" 
d="M133 0v1464h459v-1106h293v1106h458v-1106h293v1106h457v-1464h-1960z" />
    <glyph glyph-name="uni0429" unicode="&#x429;" horiz-adv-x="2277" 
d="M2277 -266h-401l-14 266h-1729v1464h459v-1106h293v1106h458v-1106h293v1106h457v-1106h184v-624z" />
    <glyph glyph-name="uni042A" unicode="&#x42a;" horiz-adv-x="1589" 
d="M362 0v1108h-325v356h788v-475h142q282 0 430.5 -124.5t148.5 -354.5v-8q0 -502 -600 -502h-584zM825 342h99q184 0 184 158v8q0 164 -186 164h-97v-330z" />
    <glyph glyph-name="uni042B" unicode="&#x42b;" horiz-adv-x="1976" 
d="M1841 1464v-1464h-459v1464h459zM133 0v1464h461v-475h125q282 0 429.5 -124t147.5 -355v-8q0 -502 -598 -502h-565zM594 342h82q91 0 136.5 38t45.5 120v8q0 164 -184 164h-80v-330z" />
    <glyph glyph-name="uni042C" unicode="&#x42c;" horiz-adv-x="1361" 
d="M133 0v1464h463v-475h141q283 0 432.5 -124.5t149.5 -354.5v-8q0 -242 -147 -372t-455 -130h-584zM596 342h98q185 0 185 158v8q0 164 -187 164h-96v-330z" />
    <glyph glyph-name="uni042D" unicode="&#x42d;" horiz-adv-x="1562" 
d="M733 -27q-289 0 -475.5 142.5t-222.5 412.5h463q38 -186 241 -186q214 0 265 233h-453v326h455q-45 223 -248 223q-189 0 -223 -178h-476q38 273 218.5 407t484.5 134q209 0 378 -89t267 -255t98 -379v-16q0 -178 -47.5 -319.5t-141.5 -243.5t-242 -157t-341 -55z" />
    <glyph glyph-name="uni042E" unicode="&#x42e;" horiz-adv-x="2260" 
d="M1438 -27q-301 0 -493.5 160.5t-235.5 433.5h-111v-567h-465v1464h465v-549h117q55 261 254.5 415.5t476.5 154.5q216 0 387 -85.5t272 -253.5t101 -394v-17q0 -227 -94.5 -399.5t-269 -267.5t-404.5 -95zM1446 338q127 0 201.5 103t74.5 286v16q0 182 -75.5 281.5
t-202.5 99.5q-126 0 -199.5 -99t-73.5 -284v-16q0 -185 74 -286t201 -101z" />
    <glyph glyph-name="uni042F" unicode="&#x42f;" horiz-adv-x="1462" 
d="M870 1122h-114q-187 0 -187 -153v-8q0 -166 189 -166h112v327zM788 504l-278 -504h-481l360 600q-119 33 -191.5 133t-72.5 244v8q0 234 154 356.5t454 122.5h596v-1464h-459v504h-82z" />
    <glyph glyph-name="uni0430" unicode="&#x430;" horiz-adv-x="1198" 
d="M551 244q70 0 114 36t44 95v55h-86q-102 0 -143.5 -22.5t-41.5 -79.5q0 -39 29 -61.5t84 -22.5zM406 -27q-75 0 -139 19t-115.5 57t-81 101.5t-29.5 146.5q0 184 144 267t431 83h93v19q0 78 -25 116.5t-100 38.5q-63 0 -92.5 -32.5t-34.5 -81.5h-377q12 193 152.5 294
t375.5 101q240 0 370 -101.5t130 -308.5v-692h-389v123q-39 -64 -116 -107t-197 -43z" />
    <glyph glyph-name="uni0431" unicode="&#x431;" horiz-adv-x="1282" 
d="M641 -27q-594 0 -594 689v43q0 206 45.5 359.5t133 251t208 148t277.5 58.5l100 4q226 11 315 41v-299q-106 -50 -327 -60l-82 -4q-169 -9 -258 -93.5t-115 -242.5h12q116 187 379 187q223 0 362.5 -147t139.5 -382v-16q0 -123 -46 -225t-126.5 -170t-189.5 -105
t-234 -37zM643 264q91 0 137.5 62.5t46.5 179.5v16q0 240 -184 240q-92 0 -140 -60t-48 -176v-14q0 -248 188 -248z" />
    <glyph glyph-name="uni0432" unicode="&#x432;" horiz-adv-x="1173" 
d="M98 0v1071h607q197 0 293 -70.5t96 -197.5v-4q0 -195 -211 -240q116 -18 180.5 -79t64.5 -167v-4q0 -147 -100 -228t-311 -81h-619zM575 846h-79v-195h90q116 0 116 101v2q0 49 -31 70.5t-96 21.5zM610 446h-114v-223h102q133 0 133 111v2q0 110 -121 110z" />
    <glyph glyph-name="uni0433" unicode="&#x433;" horiz-adv-x="933" 
d="M901 791h-401v-791h-402v1071h803v-280z" />
    <glyph glyph-name="uni0434" unicode="&#x434;" horiz-adv-x="1292" 
d="M522 528q-12 -152 -51 -247h260v514h-199q-2 -124 -10 -267zM373 0l-4 -260h-349v541h56q86 44 108 280q15 170 15 510h929v-790h144v-541h-348l-4 260h-547z" />
    <glyph glyph-name="uni0435" unicode="&#x435;" horiz-adv-x="1236" 
d="M637 -27q-173 0 -306 62.5t-210.5 188t-77.5 298.5v17q0 169 80.5 299t214.5 197t299 67q115 0 214 -33.5t176.5 -100t122 -175t44.5 -248.5v-99h-743q7 -96 60 -147t140 -51q146 0 168 114h377q-25 -187 -166.5 -288t-392.5 -101zM453 657h352q-3 88 -45.5 136.5
t-122.5 48.5q-75 0 -123.5 -48t-60.5 -137z" />
    <glyph glyph-name="uni0436" unicode="&#x436;" horiz-adv-x="1675" 
d="M641 0v459l-211 -459h-418l299 573l-282 498h401l211 -430v430h389v-430l209 430h397l-280 -483l307 -588h-430l-203 457v-457h-389z" />
    <glyph glyph-name="uni0437" unicode="&#x437;" horiz-adv-x="1120" 
d="M1044 809v-6q0 -200 -215 -242q116 -18 179 -78.5t63 -163.5v-6q0 -148 -134 -244t-372 -96q-240 0 -371.5 107.5t-160.5 304.5h354q38 -141 168 -141q54 0 82.5 26t28.5 74v6q0 88 -117 88h-115v219h107q50 0 76 21t26 59v6q0 74 -100 74q-55 0 -91.5 -30.5t-50.5 -86.5
h-350q23 195 162 298.5t348 103.5q227 0 355 -82t128 -211z" />
    <glyph glyph-name="uni0438" unicode="&#x438;" horiz-adv-x="1292" 
d="M492 0h-394v1071h400v-598l303 598h393v-1071h-399v596z" />
    <glyph glyph-name="uni0439" unicode="&#x439;" horiz-adv-x="1292" 
d="M641 1192q-160 0 -249.5 86.5t-100.5 241.5h264q8 -111 86 -111t90 111h264q-14 -154 -106 -241t-248 -87zM492 0h-394v1071h400v-598l303 598h393v-1071h-399v596z" />
    <glyph glyph-name="uni043A" unicode="&#x43a;" horiz-adv-x="1204" 
d="M754 0l-254 440v-440h-404v1071h404v-412l260 412h414l-330 -483l356 -588h-446z" />
    <glyph glyph-name="uni043B" unicode="&#x43b;" horiz-adv-x="1239" 
d="M543 473q-21 -256 -102.5 -377t-264.5 -121q-39 0 -72 5.5t-46 11.5l-13 6v285q14 -7 43 -7q53 0 80.5 61t36.5 195q4 56 7.5 191t5.5 241l1 107h922v-1071h-402v791h-180q-3 -203 -16 -318z" />
    <glyph glyph-name="uni043C" unicode="&#x43c;" horiz-adv-x="1556" 
d="M664 0l-242 655v-655h-324v1071h514l172 -493l187 493h487v-1071h-389v655l-256 -655h-149z" />
    <glyph glyph-name="uni043D" unicode="&#x43d;" horiz-adv-x="1280" 
d="M780 0v401h-280v-401h-402v1071h402v-389h280v389h402v-1071h-402z" />
    <glyph glyph-name="uni043E" unicode="&#x43e;" horiz-adv-x="1282" 
d="M641 -27q-126 0 -234 37t-189 105t-127 173t-46 234v17q0 128 46 234t126 177.5t190 110.5t236 39q168 0 302 -65t213 -191.5t79 -294.5v-17q0 -171 -79.5 -299.5t-214 -194t-302.5 -65.5zM643 270q184 0 184 260v15q0 258 -184 258q-93 0 -141.5 -63.5t-48.5 -188.5v-16
q0 -265 190 -265z" />
    <glyph glyph-name="uni043F" unicode="&#x43f;" horiz-adv-x="1259" 
d="M760 0v791h-260v-791h-402v1071h1063v-1071h-401z" />
    <glyph glyph-name="uni0440" unicode="&#x440;" horiz-adv-x="1323" 
d="M678 281q91 0 139.5 63.5t48.5 185.5v17q0 127 -49 190.5t-141 63.5q-90 0 -138.5 -65.5t-48.5 -188.5v-17q0 -249 189 -249zM96 -356v1427h404v-156q49 82 131 133.5t196 51.5q93 0 173.5 -35t142.5 -102t97.5 -175t35.5 -245v-17q0 -137 -36 -244t-98.5 -173.5
t-143 -101t-173.5 -34.5q-114 0 -198.5 49.5t-126.5 131.5v-510h-404z" />
    <glyph glyph-name="uni0441" unicode="&#x441;" horiz-adv-x="1198" 
d="M614 -27q-122 0 -225 34.5t-180 101.5t-120.5 172t-43.5 239v17q0 177 78.5 306.5t208.5 193t293 63.5q105 0 194.5 -24t165.5 -75t122.5 -140.5t53.5 -211.5h-379q-10 69 -43.5 105.5t-103.5 36.5q-180 0 -180 -246v-17q0 -132 45 -197t141 -65q70 0 113.5 42.5
t50.5 119.5h362q-8 -213 -148.5 -334t-404.5 -121z" />
    <glyph glyph-name="uni0442" unicode="&#x442;" horiz-adv-x="1042" 
d="M1014 1071v-280h-293v-791h-399v791h-293v280h985z" />
    <glyph glyph-name="uni0443" unicode="&#x443;" 
d="M264 -356l174 462l-428 965h436l203 -534l189 534h381l-572 -1427h-383z" />
    <glyph glyph-name="uni0444" unicode="&#x444;" horiz-adv-x="1699" 
d="M1047 1100q128 -5 235.5 -42.5t188.5 -104t126 -169t45 -231.5v-16q0 -170 -79 -296.5t-212 -193t-304 -72.5v-331h-394v331q-128 5 -236 42.5t-188.5 104t-126 169t-45.5 231.5v17q0 128 45.5 232.5t126 174.5t189 109.5t235.5 44.5v434h394v-434zM1047 821v-565
q93 9 145.5 79.5t52.5 188.5v17q0 124 -50.5 197t-147.5 83zM653 254v565q-94 -9 -146 -79.5t-52 -188.5v-16q0 -124 50.5 -197.5t147.5 -83.5z" />
    <glyph glyph-name="uni0445" unicode="&#x445;" horiz-adv-x="1255" 
d="M16 0l353 543l-330 528h463l145 -262l146 262h411l-334 -498l369 -573h-463l-172 299l-180 -299h-408z" />
    <glyph glyph-name="uni0446" unicode="&#x446;" horiz-adv-x="1325" 
d="M1305 -260h-342l-13 260h-852v1071h402v-790h260v790h401v-790h144v-541z" />
    <glyph glyph-name="uni0447" unicode="&#x447;" horiz-adv-x="1232" 
d="M1135 0h-404v438q-43 -43 -81 -66q-100 -59 -238 -59q-159 0 -248.5 100.5t-89.5 295.5v362h403v-297q0 -82 25.5 -121t91.5 -39q16 0 31 2t26.5 5.5t22 7.5t18.5 9t14 10t10.5 9.5t7.5 8t5 6.5l2 2v397h404v-1071z" />
    <glyph glyph-name="uni0448" unicode="&#x448;" horiz-adv-x="1761" 
d="M98 0v1071h398v-790h186v790h397v-790h189v790h395v-1071h-1565z" />
    <glyph glyph-name="uni0449" unicode="&#x449;" horiz-adv-x="1830" 
d="M1810 -260h-340l-12 260h-1360v1071h398v-790h186v790h397v-790h189v790h395v-790h147v-541z" />
    <glyph glyph-name="uni044A" unicode="&#x44a;" horiz-adv-x="1323" 
d="M274 0v795h-245v276h643v-315h170q209 0 323.5 -101.5t114.5 -273.5v-6q0 -175 -113 -275t-333 -100h-560zM672 256h78q137 0 137 117v6q0 121 -137 121h-78v-244z" />
    <glyph glyph-name="uni044B" unicode="&#x44b;" horiz-adv-x="1644" 
d="M1151 0v1071h395v-1071h-395zM98 0v1071h400v-315h153q208 0 322 -101.5t114 -273.5v-6q0 -175 -113 -275t-333 -100h-543zM498 256h63q137 0 137 117v6q0 121 -137 121h-63v-244z" />
    <glyph glyph-name="uni044C" unicode="&#x44c;" horiz-adv-x="1148" 
d="M98 0v1071h400v-315h170q209 0 323.5 -101.5t114.5 -273.5v-6q0 -175 -114 -275t-335 -100h-559zM498 256h75q138 0 138 117v6q0 121 -138 121h-75v-244z" />
    <glyph glyph-name="uni044D" unicode="&#x44d;" horiz-adv-x="1198" 
d="M584 -27q-498 0 -551 424h362q20 -71 60.5 -105t105.5 -34q71 0 115 43t59 121h-299v229h299q-25 148 -164 148q-66 0 -101 -31.5t-50 -87.5h-379q11 111 59 194t122.5 132t163.5 72.5t192 23.5q164 0 292.5 -61.5t206.5 -188.5t78 -303v-17q0 -134 -43.5 -241.5
t-120.5 -176t-181 -105t-226 -36.5z" />
    <glyph glyph-name="uni044E" unicode="&#x44e;" horiz-adv-x="1765" 
d="M1141 -25q-211 0 -358 103.5t-191 292.5q-3 8 -8 32h-86v-403h-400v1071h400v-391h90q42 196 192.5 309t362.5 113q124 0 230 -38t183.5 -108t121.5 -174.5t44 -230.5v-16q0 -129 -44.5 -235.5t-123 -177t-184.5 -109t-229 -38.5zM1143 272q83 0 126.5 66t43.5 192v17
q0 258 -170 258q-82 0 -126 -64.5t-44 -189.5v-16q0 -263 170 -263z" />
    <glyph glyph-name="uni044F" unicode="&#x44f;" horiz-adv-x="1171" 
d="M676 813h-80q-68 0 -104.5 -28.5t-36.5 -79.5v-7q0 -59 35 -86.5t106 -27.5h80v229zM592 342l-174 -342h-416l242 426q-86 37 -134.5 110t-48.5 173v6q0 164 114.5 260t324.5 96h573v-1071h-397v342h-84z" />
    <glyph glyph-name="uni0451" unicode="&#x451;" horiz-adv-x="1236" 
d="M848 1167q-77 0 -130.5 53.5t-53.5 129.5t53 129t131 53q79 0 133.5 -53.5t54.5 -128.5q0 -76 -54.5 -129.5t-133.5 -53.5zM403 1167q-78 0 -132 54t-54 129t54 128.5t132 53.5t133.5 -53.5t55.5 -128.5t-55.5 -129t-133.5 -54zM637 -27q-173 0 -306 62.5t-210.5 188
t-77.5 298.5v17q0 169 80.5 299t214.5 197t299 67q115 0 214 -33.5t176.5 -100t122 -175t44.5 -248.5v-99h-743q7 -96 60 -147t140 -51q146 0 168 114h377q-25 -187 -166.5 -288t-392.5 -101zM453 657h352q-3 88 -45.5 136.5t-122.5 48.5q-75 0 -123.5 -48t-60.5 -137z" />
    <glyph glyph-name="uni0452" unicode="&#x452;" horiz-adv-x="1288" 
d="M797 59v555q0 83 -33.5 123.5t-104.5 40.5q-76 0 -117.5 -46.5t-41.5 -139.5v-592h-404v1192h-108v209h108v133h404v-133h309v-209h-309v-293q48 91 137 147t217 56q157 0 250.5 -101.5t93.5 -295.5v-619q0 -95 -15 -166t-51 -129.5t-96 -95.5t-150.5 -56.5t-213.5 -19.5
v289q67 5 96 37t29 114z" />
    <glyph glyph-name="uni0453" unicode="&#x453;" horiz-adv-x="933" 
d="M901 791h-401v-791h-402v1071h803v-280zM360 1184l107 346h395l-213 -346h-289z" />
    <glyph glyph-name="uni0454" unicode="&#x454;" horiz-adv-x="1198" 
d="M1165 397q-53 -424 -551 -424q-165 0 -292 59.5t-203 185.5t-76 304v17q0 175 79 304.5t209.5 194t293.5 64.5q103 0 191 -23.5t161.5 -72.5t121 -132t58.5 -194h-379q-28 119 -147 119q-66 0 -108.5 -38.5t-57.5 -109.5h299v-229h-301q32 -164 174 -164q129 0 166 139
h362z" />
    <glyph glyph-name="uni0455" unicode="&#x455;" horiz-adv-x="1071" 
d="M535 -27q-237 0 -368.5 95.5t-135.5 275.5h368q10 -57 39 -84t94 -27q57 0 85 20.5t28 55.5q0 36 -41.5 56.5t-146.5 33.5q-112 13 -187.5 35t-128.5 61.5t-76.5 98.5t-23.5 145q0 119 65.5 202.5t171 122t240.5 38.5q221 0 346.5 -83t143.5 -271h-363q-19 100 -121 100
q-53 0 -79.5 -20.5t-26.5 -53.5q0 -36 38.5 -54.5t129.5 -27.5q243 -29 347.5 -102t104.5 -240q0 -191 -133 -284t-370 -93z" />
    <glyph glyph-name="uni0456" unicode="&#x456;" horiz-adv-x="618" 
d="M309 1151q-94 0 -156.5 57.5t-62.5 145.5q0 89 62.5 147t156.5 58q93 0 155 -58t62 -147q0 -87 -62 -145t-155 -58zM109 0v1071h401v-1071h-401z" />
    <glyph glyph-name="uni0457" unicode="&#x457;" horiz-adv-x="618" 
d="M528 1167q-76 0 -130 54t-54 129t54 128.5t130 53.5q79 0 134 -53.5t55 -128.5t-55 -129t-134 -54zM88 1167q-78 0 -132 54t-54 129t54 128.5t132 53.5t133 -53.5t55 -128.5t-55 -129t-133 -54zM109 0v1071h401v-1071h-401z" />
    <glyph glyph-name="uni0458" unicode="&#x458;" horiz-adv-x="618" 
d="M309 1151q-94 0 -156.5 57.5t-62.5 145.5q0 89 62.5 147t156.5 58q93 0 155 -58t62 -147q0 -87 -62 -145t-155 -58zM-18 -375v289q65 3 94.5 30.5t29.5 88.5v1038h404v-1048q0 -94 -24.5 -163.5t-82.5 -124t-163.5 -82.5t-257.5 -28z" />
    <glyph glyph-name="uni0459" unicode="&#x459;" horiz-adv-x="1746" 
d="M717 0v791h-158q-3 -167 -12 -291q-21 -270 -103.5 -397.5t-267.5 -127.5q-39 0 -72 5.5t-46 11.5l-13 6v285q14 -7 43 -7q55 0 82.5 66t36.5 211q10 156 10 518h899v-315h150q209 0 323.5 -101.5t114.5 -273.5v-6q0 -175 -113.5 -275t-335.5 -100h-538zM1116 256h58
q135 0 135 117v6q0 121 -135 121h-58v-244z" />
    <glyph glyph-name="uni045A" unicode="&#x45a;" horiz-adv-x="1787" 
d="M1157 256h57q138 0 138 117v6q0 121 -138 121h-57v-244zM760 0v401h-260v-401h-402v1071h402v-389h260v389h397v-315h150q209 0 323.5 -101.5t114.5 -273.5v-6q0 -175 -113.5 -275t-333.5 -100h-538z" />
    <glyph glyph-name="uni045B" unicode="&#x45b;" horiz-adv-x="1288" 
d="M-12 1190v211h108v135h404v-135h309v-211h-309v-291q48 91 137 146t217 55q158 0 251 -100.5t93 -294.5v-705h-403v614q0 83 -32.5 123.5t-103.5 40.5q-77 0 -118 -46.5t-41 -139.5v-592h-404v1190h-108z" />
    <glyph glyph-name="uni045C" unicode="&#x45c;" horiz-adv-x="1204" 
d="M473 1184l107 346h395l-213 -346h-289zM754 0l-254 440v-440h-404v1071h404v-412l260 412h414l-330 -483l356 -588h-446z" />
    <glyph glyph-name="uni045D" unicode="&#x45d;" horiz-adv-x="1292" 
d="M492 0h-394v1071h400v-598l303 598h393v-1071h-399v596zM520 1184l-213 346h395l107 -346h-289z" />
    <glyph glyph-name="uni045E" unicode="&#x45e;" 
d="M643 1192q-161 0 -251 86.5t-99 241.5h264q8 -111 86 -111t90 111h262q-12 -154 -104.5 -241t-247.5 -87zM264 -356l174 462l-428 965h436l203 -534l189 534h381l-572 -1427h-383z" />
    <glyph glyph-name="uni045F" unicode="&#x45f;" horiz-adv-x="1259" 
d="M459 0h-361v1071h402v-790h260v790h401v-1071h-358l-4 -260h-334z" />
    <glyph glyph-name="uni0490" unicode="&#x490;" horiz-adv-x="1187" 
d="M1130 1104h-530v-1104h-467v1464h582l14 275h401v-635z" />
    <glyph glyph-name="uni0491" unicode="&#x491;" horiz-adv-x="933" 
d="M887 791h-387v-791h-402v1071h437l10 275h342v-555z" />
    <glyph glyph-name="Wgrave" unicode="&#x1e80;" horiz-adv-x="2066" 
d="M360 0l-340 1464h469l168 -874l177 874h403l199 -884l178 884h430l-340 -1464h-469l-205 874l-207 -874h-463zM901 1550l-205 305h414l96 -305h-305z" />
    <glyph glyph-name="wgrave" unicode="&#x1e81;" horiz-adv-x="1748" 
d="M332 0l-322 1071h420l139 -600l164 600h324l143 -600l162 600h377l-340 -1071h-379l-150 559l-147 -559h-391zM756 1184l-213 346h395l106 -346h-288z" />
    <glyph glyph-name="Wacute" unicode="&#x1e82;" horiz-adv-x="2066" 
d="M360 0l-340 1464h469l168 -874l177 874h403l199 -884l178 884h430l-340 -1464h-469l-205 874l-207 -874h-463zM874 1550l105 305h412l-211 -305h-306z" />
    <glyph glyph-name="wacute" unicode="&#x1e83;" horiz-adv-x="1748" 
d="M332 0l-322 1071h420l139 -600l164 600h324l143 -600l162 600h377l-340 -1071h-379l-150 559l-147 -559h-391zM752 1184l106 346h395l-213 -346h-288z" />
    <glyph glyph-name="Wdieresis" unicode="&#x1e84;" horiz-adv-x="2066" 
d="M360 0l-340 1464h469l168 -874l177 874h403l199 -884l178 884h430l-340 -1464h-469l-205 874l-207 -874h-463zM1270 1540q-78 0 -132.5 53.5t-54.5 128.5q0 76 54.5 129.5t132.5 53.5t133 -53.5t55 -129.5q0 -75 -55 -128.5t-133 -53.5zM805 1540q-78 0 -132.5 53.5
t-54.5 128.5q0 76 54.5 129.5t132.5 53.5t133 -53.5t55 -129.5q0 -75 -55 -128.5t-133 -53.5z" />
    <glyph glyph-name="wdieresis" unicode="&#x1e85;" horiz-adv-x="1748" 
d="M332 0l-322 1071h420l139 -600l164 600h324l143 -600l162 600h377l-340 -1071h-379l-150 559l-147 -559h-391zM1114 1167q-77 0 -130.5 53.5t-53.5 129.5t53 129t131 53q79 0 134 -53.5t55 -128.5t-55 -129t-134 -54zM670 1167q-78 0 -132.5 54t-54.5 129t54.5 128.5
t132.5 53.5t133 -53.5t55 -128.5t-55 -129t-133 -54z" />
    <glyph glyph-name="Ygrave" unicode="&#x1ef2;" horiz-adv-x="1417" 
d="M485 0v625l-475 839h504l223 -458l226 458h444l-455 -837v-627h-467zM590 1550l-205 305h414l96 -305h-305z" />
    <glyph glyph-name="ygrave" unicode="&#x1ef3;" 
d="M264 -356l174 462l-428 965h436l203 -534l189 534h381l-572 -1427h-383zM502 1184l-213 346h395l107 -346h-289z" />
    <glyph glyph-name="uni2009" unicode="&#x2009;" horiz-adv-x="169" 
 />
    <glyph glyph-name="endash" unicode="&#x2013;" horiz-adv-x="1112" 
d="M94 489v230h924v-230h-924z" />
    <glyph glyph-name="emdash" unicode="&#x2014;" horiz-adv-x="1961" 
d="M94 489v230h1774v-230h-1774z" />
    <glyph glyph-name="quoteleft" unicode="&#x2018;" horiz-adv-x="657" 
d="M412 854l-355 115l289 522l225 -82z" />
    <glyph glyph-name="quoteright" unicode="&#x2019;" horiz-adv-x="657" 
d="M309 854l-223 86l160 551l350 -113z" />
    <glyph glyph-name="quotesinglbase" unicode="&#x201a;" horiz-adv-x="653" 
d="M301 -215l-223 86l160 553l352 -115z" />
    <glyph glyph-name="quotedblleft" unicode="&#x201c;" horiz-adv-x="1136" 
d="M893 854l-350 115l286 522l224 -82zM412 854l-355 115l289 522l225 -82z" />
    <glyph glyph-name="quotedblright" unicode="&#x201d;" horiz-adv-x="1136" 
d="M793 854l-226 86l160 551l354 -113zM309 854l-223 86l160 551l350 -113z" />
    <glyph glyph-name="quotedblbase" unicode="&#x201e;" horiz-adv-x="1136" 
d="M784 -215l-225 86l160 553l354 -115zM301 -215l-223 86l160 553l352 -115z" />
    <glyph glyph-name="dagger" unicode="&#x2020;" horiz-adv-x="841" 
d="M260 436v514h-215v279h215v235h322v-235h215v-279h-215v-514h-322z" />
    <glyph glyph-name="daggerdbl" unicode="&#x2021;" horiz-adv-x="841" 
d="M260 883v135h-215v252h215v194h322v-194h215v-252h-215v-135h215v-252h-215v-195h-322v195h-215v252h215z" />
    <glyph glyph-name="bullet" unicode="&#x2022;" horiz-adv-x="776" 
d="M387 307q-131 0 -220 90.5t-89 220.5t89 221t220 91q134 0 222.5 -90.5t88.5 -221.5q0 -130 -88.5 -220.5t-222.5 -90.5z" />
    <glyph glyph-name="ellipsis" unicode="&#x2026;" horiz-adv-x="1861" 
d="M1548 -25q-96 0 -159.5 64t-63.5 158q0 92 63.5 155.5t159.5 63.5q99 0 165.5 -63.5t66.5 -155.5q0 -94 -66.5 -158t-165.5 -64zM928 -25q-96 0 -159.5 64t-63.5 158q0 92 63.5 155.5t159.5 63.5q99 0 164 -63.5t65 -155.5q0 -94 -65 -158t-164 -64zM307 -25
q-96 0 -160.5 64t-64.5 158q0 92 64.5 155.5t160.5 63.5q98 0 164 -64t66 -155q0 -94 -66 -158t-164 -64z" />
    <glyph glyph-name="perthousand" unicode="&#x2030;" horiz-adv-x="2539" 
d="M442 743q-185 0 -290 104.5t-105 268.5q0 157 112.5 261t282.5 104q171 0 283.5 -100.5t112.5 -256.5q0 -165 -107.5 -273t-288.5 -108zM231 0l1039 1464h209l-1041 -1464h-207zM442 973q52 0 79.5 38.5t27.5 106.5q0 66 -27.5 104t-79.5 38q-49 0 -77.5 -38.5
t-28.5 -103.5q0 -69 28 -107t78 -38zM2095 -27q-184 0 -288.5 105t-104.5 268q0 157 112.5 262t282.5 105t282.5 -101t112.5 -258q0 -164 -108 -272.5t-289 -108.5zM1255 -27q-185 0 -290 104.5t-105 268.5q0 157 112.5 262t282.5 105q171 0 283.5 -101t112.5 -258
q0 -164 -108 -272.5t-288 -108.5zM2097 203q52 0 79.5 39t27.5 106t-27.5 104t-79.5 37q-51 0 -78.5 -37.5t-27.5 -103.5q0 -69 27.5 -107t78.5 -38zM1255 203q52 0 79.5 39t27.5 106t-27.5 104t-79.5 37q-50 0 -78 -37.5t-28 -103.5q0 -69 28 -107t78 -38z" />
    <glyph glyph-name="uni2032" unicode="&#x2032;" horiz-adv-x="524" 
d="M68 889l38 575h375l-129 -575h-284z" />
    <glyph glyph-name="uni2033" unicode="&#x2033;" horiz-adv-x="978" 
d="M520 889l41 575h375l-131 -575h-285zM68 889l38 575h375l-129 -575h-284z" />
    <glyph glyph-name="guilsinglleft" unicode="&#x2039;" horiz-adv-x="622" 
d="M305 137l-254 398l254 397h264l-243 -397l243 -398h-264z" />
    <glyph glyph-name="guilsinglright" unicode="&#x203a;" horiz-adv-x="622" 
d="M53 137l244 398l-244 397h264l254 -397l-254 -398h-264z" />
    <glyph glyph-name="fraction" unicode="&#x2044;" horiz-adv-x="364" 
d="M-504 0l1168 1464h202l-1165 -1464h-205z" />
    <glyph glyph-name="Euro" unicode="&#x20ac;" horiz-adv-x="1490" 
d="M43 774v152h125q42 252 217 406.5t436 154.5q276 0 432 -137.5t181 -405.5h-428q-21 193 -189 193q-166 0 -199 -211h285l-26 -152h-269v-94h252l-24 -152h-220q18 -98 66.5 -148t136.5 -50q94 0 140.5 53.5t58.5 165.5h426q-33 -279 -190.5 -427.5t-446.5 -148.5
q-277 0 -440.5 150.5t-198.5 404.5h-125v152h115v94h-115z" />
    <glyph glyph-name="uni20B4" unicode="&#x20b4;" horiz-adv-x="1372" 
d="M684 -27q-281 0 -434.5 117t-153.5 318q0 76 23 135h-78v149h192q66 51 177 99h-369v149h752q45 40 45 111q0 108 -129 108q-134 0 -150 -141h-430q43 467 578 467q262 0 412.5 -108t150.5 -292q0 -77 -21 -145h84v-149h-178q-56 -56 -143 -99h321v-149h-723
q-75 -46 -75 -127q0 -115 145 -115q97 0 137 44.5t47 123.5h439q-25 -496 -619 -496z" />
    <glyph glyph-name="uni20B8" unicode="&#x20b8;" horiz-adv-x="1247" 
d="M1206 1315h-1165v149h1165v-149zM389 0v850h-348v356h1165v-356h-350v-850h-467z" />
    <glyph glyph-name="uni20BD" unicode="&#x20bd;" horiz-adv-x="1439" 
d="M674 788h96q186 0 186 164v9q0 82 -45.5 119.5t-138.5 37.5h-98v-330zM1094 229h-420v-229h-463v229h-184v150h184v96h-184v152h184v837h584q602 0 602 -501v-9q0 -230 -149.5 -354.5t-432.5 -124.5h-141v-96h420v-150z" />
    <glyph glyph-name="uni2116" unicode="&#x2116;" horiz-adv-x="2449" 
d="M1962 672q-124 0 -221.5 43.5t-156 133.5t-58.5 214v12q0 186 124 296t314 110q122 0 219.5 -45.5t156 -136.5t58.5 -214v-10q0 -125 -59 -218t-157 -139t-220 -46zM1964 911q55 0 81 39.5t26 122.5v10q0 158 -107 158q-111 0 -111 -154v-10q0 -86 27 -126t84 -40zM133 0
v1464h520l351 -745v745h405v-1464h-446l-422 850v-850h-408zM1556 348v205h814v-205h-814z" />
    <glyph glyph-name="trademark" unicode="&#x2122;" horiz-adv-x="1572" 
d="M223 807v469h-166v188h568v-188h-164v-469h-238zM698 807v657h281l111 -299l112 299h285v-657h-240v348l-135 -348h-76l-133 348v-348h-205z" />
    <glyph glyph-name="onethird" unicode="&#x2153;" horiz-adv-x="1697" 
d="M215 682v498l-170 -93v238l213 139h254v-782h-297zM123 0l1167 1464h203l-1165 -1464h-205zM1296 -14q-346 0 -360 280h260q7 -78 82 -78q34 0 52 16.5t18 45.5q0 61 -84 61h-64v162h64q88 0 88 64q0 25 -16.5 40t-47.5 15q-66 0 -78 -74h-258q9 125 96.5 200t247.5 75
q157 0 244.5 -57t87.5 -161q0 -131 -141 -167q70 -11 114 -56.5t44 -111.5q0 -118 -88.5 -186t-260.5 -68z" />
    <glyph glyph-name="twothirds" unicode="&#x2154;" horiz-adv-x="1800" 
d="M14 682v37l265 270q76 77 109.5 123.5t33.5 87.5q0 62 -57 62q-62 0 -74 -105h-268q4 156 99 238t259 82q163 0 246.5 -71t83.5 -183q0 -75 -40 -138t-120 -139l-57 -53h221v-211h-701zM256 0l1167 1464h203l-1165 -1464h-205zM1399 -14q-347 0 -361 280h260
q7 -78 82 -78q34 0 52 16.5t18 45.5q0 61 -84 61h-63v162h63q88 0 88 64q0 55 -63 55q-66 0 -78 -74h-258q9 125 96.5 200t247.5 75q157 0 244.5 -57t87.5 -161q0 -131 -142 -167q70 -11 114 -56.5t44 -111.5q0 -118 -88 -186t-260 -68z" />
    <glyph glyph-name="oneeighth" unicode="&#x215b;" horiz-adv-x="1687" 
d="M215 682v498l-170 -93v238l213 139h254v-782h-297zM102 0l1168 1464h203l-1166 -1464h-205zM1280 -14q-181 0 -274 59.5t-93 173.5q0 65 36 115t108 74q-109 43 -109 159q0 106 94 166t240 60q150 0 241 -59t91 -167q0 -114 -109 -157q71 -22 105.5 -70.5t34.5 -112.5
q0 -115 -94 -178t-271 -63zM1282 473q29 0 49.5 18.5t20.5 47.5q0 30 -20.5 48.5t-49.5 18.5t-50.5 -19.5t-21.5 -47.5t21.5 -47t50.5 -19zM1280 180q34 0 56 20t22 52t-22 52t-56 20t-56 -20t-22 -52t22 -52t56 -20z" />
    <glyph glyph-name="threeeighths" unicode="&#x215c;" horiz-adv-x="1773" 
d="M401 668q-346 0 -360 280h260q3 -35 23.5 -56.5t58.5 -21.5q33 0 51.5 17t18.5 47q0 59 -84 59h-64v162h64q88 0 88 64q0 55 -64 55q-31 0 -51.5 -18.5t-26.5 -53.5h-258q9 124 96.5 199.5t247.5 75.5q157 0 244.5 -58t87.5 -162q0 -131 -141 -167q70 -11 114 -56.5
t44 -111.5q0 -117 -88.5 -185.5t-260.5 -68.5zM209 0l1167 1464h203l-1165 -1464h-205zM1364 -14q-181 0 -274 59.5t-93 173.5q0 65 36 115t108 74q-109 43 -109 159q0 106 94 166t240 60q150 0 241 -59t91 -167q0 -114 -109 -157q71 -22 105.5 -70.5t34.5 -112.5
q0 -115 -94 -178t-271 -63zM1366 473q29 0 49.5 18.5t20.5 47.5q0 30 -20.5 48.5t-49.5 18.5t-50.5 -19.5t-21.5 -47.5t21.5 -47t50.5 -19zM1364 180q34 0 56 20t22 52t-22 52t-56 20t-56 -20t-22 -52t22 -52t56 -20z" />
    <glyph glyph-name="fiveeighths" unicode="&#x215d;" horiz-adv-x="1740" 
d="M387 668q-171 0 -255.5 72.5t-86.5 193.5h268q7 -53 66 -53q30 0 47.5 20.5t17.5 54.5q0 72 -71 72q-57 0 -72 -47h-233l24 483h600v-204h-397l-8 -160q67 104 211 104q110 0 175.5 -62.5t65.5 -178.5q0 -138 -92.5 -216.5t-259.5 -78.5zM178 0l1168 1464h202
l-1165 -1464h-205zM1333 -14q-181 0 -273.5 59.5t-92.5 173.5q0 65 35.5 115t107.5 74q-109 43 -109 159q0 106 94 166t240 60q150 0 241 -59t91 -167q0 -114 -108 -157q139 -44 139 -183q0 -115 -94 -178t-271 -63zM1335 473q29 0 49.5 18.5t20.5 47.5q0 30 -20.5 48.5
t-49.5 18.5t-50 -19t-21 -48q0 -28 21 -47t50 -19zM1333 180q34 0 56 20t22 52t-22 52t-56 20t-56 -20t-22 -52t22 -52t56 -20z" />
    <glyph glyph-name="seveneighths" unicode="&#x215e;" horiz-adv-x="1677" 
d="M137 682l209 551h-301v231h672v-28l-285 -754h-295zM74 0l1167 1464h203l-1165 -1464h-205zM1270 -14q-181 0 -274 59.5t-93 173.5q0 65 36 115t108 74q-109 43 -109 159q0 106 94 166t240 60q150 0 241 -59t91 -167q0 -114 -109 -157q139 -44 139 -183
q0 -115 -93.5 -178t-270.5 -63zM1272 473q28 0 48.5 18.5t20.5 47.5q0 30 -20 48.5t-49 18.5t-50.5 -19.5t-21.5 -47.5t21.5 -47t50.5 -19zM1270 180q34 0 56 20t22 52t-22 52t-56 20t-56 -20t-22 -52t22 -52t56 -20z" />
    <glyph glyph-name="minus" unicode="&#x2212;" horiz-adv-x="1191" 
d="M78 543v305h1038v-305h-1038z" />
    <glyph glyph-name="approxequal" unicode="&#x2248;" horiz-adv-x="1214" 
d="M74 698q11 195 94 290t205 95q93 0 250.5 -38.5t197.5 -38.5t63.5 22.5t28.5 63.5h228q-6 -184 -90.5 -283.5t-204.5 -99.5q-94 0 -253 39.5t-200 39.5q-39 0 -62.5 -24t-29.5 -66h-227zM74 231q11 195 94 290t205 95q93 0 250.5 -39.5t197.5 -39.5t63.5 23.5t28.5 66.5
h228q-6 -186 -90.5 -286.5t-204.5 -100.5q-94 0 -253 41t-200 41q-39 0 -62.5 -24.5t-29.5 -66.5h-227z" />
    <glyph glyph-name="notequal" unicode="&#x2260;" horiz-adv-x="1167" 
d="M78 739v269h512l76 196h249l-75 -196h247v-269h-352l-53 -139h405v-268h-507l-76 -197h-252l76 197h-250v268h352l55 139h-407z" />
    <glyph glyph-name="lessequal" unicode="&#x2264;" horiz-adv-x="1052" 
d="M958 301l-876 469v76l876 469v-357l-305 -147l305 -149v-361zM82 0v258h876v-258h-876z" />
    <glyph glyph-name="greaterequal" unicode="&#x2265;" horiz-adv-x="1052" 
d="M94 301v361l305 149l-305 147v357l877 -469v-76zM94 0v258h877v-258h-877z" />
    <glyph glyph-name="uni24C5" unicode="&#x24c5;" horiz-adv-x="1724" 
d="M860 -43q-216 0 -397.5 101t-287 279t-105.5 394q0 160 62 304t168 247.5t253 164t311 60.5q222 0 404 -102.5t285.5 -279.5t103.5 -390q0 -163 -62.5 -307.5t-169 -247.5t-254 -163t-311.5 -60zM860 63q182 0 332.5 83.5t240 238t89.5 350.5q0 145 -51 270t-139.5 211.5
t-209.5 135.5t-258 49q-185 0 -335.5 -84t-238 -237.5t-87.5 -348.5q0 -147 52.5 -273t141.5 -212t209 -134.5t254 -48.5zM561 322v829h338q346 0 346 -287v-4q0 -133 -83.5 -203.5t-246.5 -70.5h-77v-264h-277zM838 770h45q102 0 102 90v4q0 80 -100 80h-47v-174z" />
    <glyph glyph-name="zero.tab" unicode="&#xe44f;" 
d="M606 -27q-260 0 -403.5 155t-143.5 443v320q0 144 41.5 257.5t115.5 186.5t175 111.5t223 38.5q121 0 221 -35t175 -105t117 -183.5t42 -260.5v-319q0 -291 -150 -450t-413 -159zM621 322q75 0 102 55.5t27 193.5v322q0 137 -30 194.5t-104 57.5q-77 0 -107 -57.5
t-30 -194.5v-322q0 -137 32 -193t110 -56z" />
    <glyph glyph-name="one.tab" unicode="&#xe450;" 
d="M496 0v1010l-340 -222v386l401 290h404v-1464h-465z" />
    <glyph glyph-name="two.tab" unicode="&#xe451;" 
d="M41 0v63l434 529q130 163 183 250.5t53 173.5q0 133 -107 133q-62 0 -90.5 -51t-34.5 -178h-416q16 565 562 565q264 0 400 -118.5t136 -322.5q0 -74 -21.5 -144t-68 -141.5t-88.5 -123.5t-115 -133l-143 -154h432v-348h-1116z" />
    <glyph glyph-name="three.tab" unicode="&#xe452;" 
d="M627 -27q-293 0 -438 130.5t-154 388.5h399q5 -95 42.5 -141t123.5 -46q74 0 111 39t37 109q0 75 -37 112t-117 37h-119v281h115q160 0 160 145q0 60 -33 93.5t-99 33.5q-143 0 -155 -172h-393q11 237 154.5 369.5t402.5 132.5q248 0 387 -107t139 -297q0 -121 -61 -201
t-172 -114q119 -25 191.5 -111t72.5 -213q0 -217 -143 -343t-414 -126z" />
    <glyph glyph-name="four.tab" unicode="&#xe453;" 
d="M633 0v276h-602v158l501 1030h506v-889h144v-299h-144v-276h-405zM387 575h254v537z" />
    <glyph glyph-name="five.tab" unicode="&#xe454;" 
d="M602 -27q-274 0 -405.5 125.5t-139.5 376.5h389q5 -79 39 -114t115 -35q135 0 135 186q0 83 -44 128.5t-124 45.5q-129 0 -200 -100h-269l33 878h944v-334h-629l-12 -311q106 166 320 166q197 0 304 -125.5t107 -347.5q0 -251 -146 -395t-417 -144z" />
    <glyph glyph-name="six.tab" unicode="&#xe455;" 
d="M643 -27q-295 0 -440.5 174t-145.5 490v149q0 330 166.5 514.5t442.5 184.5q233 0 362.5 -109t136.5 -336h-379q-7 60 -33.5 92.5t-84.5 32.5q-101 0 -151.5 -92t-51.5 -287q46 75 115 119.5t180 44.5q88 0 163 -27.5t133.5 -81.5t92 -143.5t33.5 -205.5
q0 -236 -143.5 -377.5t-395.5 -141.5zM633 307q70 0 115 49.5t45 126.5q0 84 -44.5 131.5t-117.5 47.5q-72 0 -119 -46.5t-47 -126.5q0 -83 47 -132.5t121 -49.5z" />
    <glyph glyph-name="seven.tab" unicode="&#xe456;" 
d="M207 0l403 1098h-542v366h1110v-47l-508 -1417h-463z" />
    <glyph glyph-name="eight.tab" unicode="&#xe457;" 
d="M614 -27q-268 0 -418.5 114.5t-150.5 326.5q0 123 62 215t182 139q-189 94 -189 301q0 98 40.5 177.5t111.5 131.5t164.5 79.5t201.5 27.5q150 0 266 -47.5t183.5 -142t67.5 -224.5q0 -210 -187 -301q117 -44 176.5 -133t59.5 -213q0 -211 -151.5 -331t-418.5 -120z
M621 883q60 0 101.5 40.5t41.5 104.5q0 66 -42 106t-104 40q-59 0 -101 -40.5t-42 -103.5q0 -64 43 -105.5t103 -41.5zM616 303q73 0 117.5 43.5t44.5 116.5q0 75 -43.5 119.5t-116.5 44.5t-118 -43.5t-45 -118.5q0 -74 45 -118t116 -44z" />
    <glyph glyph-name="nine.tab" unicode="&#xe458;" 
d="M598 805q72 0 119 46t47 124q0 83 -47.5 133.5t-120.5 50.5q-71 0 -115.5 -49t-44.5 -127q0 -83 44.5 -130.5t117.5 -47.5zM582 -25q-505 0 -525 451h381q14 -129 133 -129q107 0 150 88t45 289q-29 -48 -64.5 -81t-95.5 -57t-137 -24q-87 0 -162 27t-134 80t-92.5 142
t-33.5 204q0 236 145 379t396 143q288 0 435.5 -170.5t147.5 -489.5v-159q0 -331 -154.5 -512t-434.5 -181z" />
    <glyph glyph-name="cent.tab" unicode="&#xe459;" 
d="M442 526q0 -218 129 -266v539q-129 -46 -129 -256v-17zM571 -276v253q-234 20 -376 159.5t-142 385.5v17q0 239 144.5 386t373.5 173v190h152v-190q196 -16 322 -129.5t139 -319.5h-357q-15 119 -104 150v-545q53 16 86 59.5t39 114.5h342q-6 -194 -128.5 -314
t-338.5 -137v-253h-152z" />
    <glyph glyph-name="dollar.tab" unicode="&#xe45a;" 
d="M424 1059q0 -49 25.5 -75.5t91.5 -41.5v232q-57 -10 -87 -40.5t-30 -74.5zM809 418q0 44 -24.5 68.5t-86.5 39.5v-237q55 13 83 47t28 82zM541 -276v256q-244 17 -374 143.5t-138 341.5h381q10 -143 131 -174v262q-260 39 -374 147.5t-114 323.5q0 193 130.5 317.5
t357.5 141.5v182h157v-184q447 -40 473 -451h-372q-6 54 -29 87t-72 50v-249q91 -14 163 -35t135.5 -56.5t105.5 -84t66 -118t24 -157.5q0 -97 -29 -179.5t-87 -149t-154.5 -108t-223.5 -50.5v-256h-157z" />
    <glyph glyph-name="Euro.tab" unicode="&#xe45b;" 
d="M23 778v152h94q10 262 161 409.5t384 147.5q235 0 366.5 -122t138.5 -382h-370q-4 92 -34.5 130t-98.5 38q-73 0 -109 -52.5t-39 -168.5h268l-26 -152h-242v-96h225l-24 -150h-201q3 -119 37.5 -170t112.5 -51q72 0 106 42t37 143h365q-4 -269 -137 -396t-390 -127
q-240 0 -380.5 145.5t-149.5 413.5h-94v150h94v96h-94z" />
    <glyph glyph-name="a.alt" unicode="&#xe4c0;" horiz-adv-x="1306" 
d="M635 281q86 0 134 64t48 187v17q0 125 -46 188.5t-132 63.5q-182 0 -182 -254v-17q0 -123 46 -186t132 -63zM489 -27q-89 0 -167.5 34t-140.5 99.5t-98 173t-36 244.5v17q0 136 36 244t98 176t140.5 103.5t167.5 35.5q221 0 316 -176v147h403v-1071h-403v170
q-43 -88 -123.5 -142.5t-192.5 -54.5z" />
    <glyph glyph-name="t.alt" unicode="&#xe4d3;" horiz-adv-x="790" 
d="M168 0v801h-145v270h145v219h403v-219h189v-270h-189v-801h-403z" />
    <glyph glyph-name="f_i" unicode="&#xfb01;" horiz-adv-x="1411" 
d="M154 0v801h-131v270h131v80q0 200 118 300.5t322 100.5q88 0 170 -20v-291q-40 12 -92 12q-57 0 -86 -28.5t-29 -75.5v-78h207v-270h-207v-801h-403zM1100 1151q-94 0 -156.5 57.5t-62.5 145.5q0 89 62.5 147t156.5 58q93 0 155 -58t62 -147q0 -87 -62 -145t-155 -58z
M899 0v1071h401v-1071h-401z" />
    <glyph glyph-name="f_l" unicode="&#xfb02;" horiz-adv-x="1406" 
d="M154 0v801h-131v270h131v80q0 200 118 300.5t322 100.5q88 0 170 -20v-291q-40 12 -92 12q-57 0 -86 -28.5t-29 -75.5v-78h207v-270h-207v-801h-403zM897 0v1536h401v-1536h-401z" />
    <glyph glyph-name="Euro.old" horiz-adv-x="1445" 
d="M41 752v145h123q39 245 209.5 395t423.5 150q268 0 419 -133.5t173 -393.5h-412q-25 189 -184 189q-158 0 -195 -207h281l-29 -145h-260v-93h246l-25 -145h-213q15 -97 62.5 -146t134.5 -49q92 0 136.5 51.5t55.5 161.5h412q-30 -271 -182.5 -415t-434.5 -144
q-269 0 -427 146.5t-193 394.5h-121v145h113v93h-113z" />
    <glyph glyph-name="uni0430.alt" horiz-adv-x="1306" 
d="M635 281q86 0 134 64t48 187v17q0 125 -46 188.5t-132 63.5q-182 0 -182 -254v-17q0 -123 46 -186t132 -63zM489 -27q-89 0 -167.5 34t-140.5 99.5t-98 173t-36 244.5v17q0 136 36 244t98 176t140.5 103.5t167.5 35.5q221 0 316 -176v147h403v-1071h-403v170
q-43 -88 -123.5 -142.5t-192.5 -54.5z" />
    <glyph glyph-name="tilde.uc" horiz-adv-x="819" 
d="M545 1546q-67 0 -145 33t-103 33q-24 0 -40 -17t-21 -45h-224q10 162 81.5 245t176.5 83q62 0 143 -33t111 -33q50 0 60 62h225q-11 -161 -86 -244.5t-178 -83.5z" />
    <glyph glyph-name="ring.uc" horiz-adv-x="819" 
d="M410 1520q-103 0 -176.5 70.5t-73.5 170.5t73.5 171t176.5 71t176 -71t73 -171t-73 -170.5t-176 -70.5zM410 1659q40 0 66 29t26 73t-26 72.5t-66 28.5q-41 0 -67 -28.5t-26 -72.5t26 -73t67 -29z" />
    <glyph glyph-name="dotaccent.uc" horiz-adv-x="819" 
d="M410 1540q-91 0 -151 56t-60 139q0 85 60 140.5t151 55.5q89 0 148.5 -55.5t59.5 -140.5q0 -83 -59.5 -139t-148.5 -56z" />
    <glyph glyph-name="breve.uc" horiz-adv-x="819" 
d="M410 1534q-159 0 -250.5 84t-100.5 237h254q3 -40 28.5 -63t68.5 -23q39 0 65 23.5t31 62.5h254q-10 -151 -103.5 -236t-246.5 -85z" />
    <glyph glyph-name="caron.uc" horiz-adv-x="819" 
d="M233 1550l-225 305h291l111 -96l110 96h285l-236 -305h-336z" />
    <glyph glyph-name="circumflex.uc" horiz-adv-x="819" 
d="M10 1550l236 305h336l225 -305h-291l-110 97l-111 -97h-285z" />
    <glyph glyph-name="acute.uc" horiz-adv-x="819" 
d="M236 1550l104 305h412l-211 -305h-305z" />
    <glyph glyph-name="macron.uc" horiz-adv-x="819" 
d="M68 1575v235h682v-235h-682z" />
    <glyph glyph-name="dieresis.uc" horiz-adv-x="819" 
d="M641 1540q-78 0 -132 53.5t-54 128.5q0 77 54 130t132 53t133 -53.5t55 -129.5q0 -75 -55 -128.5t-133 -53.5zM176 1540q-78 0 -132 53.5t-54 128.5q0 77 54 130t132 53t133.5 -53.5t55.5 -129.5q0 -75 -55.5 -128.5t-133.5 -53.5z" />
    <glyph glyph-name="grave.uc" horiz-adv-x="819" 
d="M279 1550l-205 305h413l97 -305h-305z" />
    <glyph glyph-name="at.uc" horiz-adv-x="1888" 
d="M944 -174q-203 0 -371 65t-280.5 178t-174 265.5t-61.5 327.5q0 199 77 369.5t205 284.5t295 178.5t347 64.5q241 0 433 -90t303.5 -259.5t111.5 -390.5q0 -119 -25 -215t-67.5 -160.5t-101 -108t-122.5 -62.5t-135 -19q-261 0 -311 164q-80 -166 -266 -166
q-152 0 -242 102.5t-90 278.5q0 214 115 346.5t286 132.5q166 0 217 -117l15 101h325l-69 -561q-16 -132 86 -132q92 0 155.5 105t63.5 317q0 265 -185.5 427.5t-490.5 162.5q-211 0 -380.5 -91t-270 -265t-100.5 -402q0 -148 45.5 -272.5t132.5 -217t224.5 -144.5
t311.5 -52q170 0 310.5 52.5t220.5 130.5h192q-105 -151 -300 -239.5t-429 -88.5zM909 510q63 0 104.5 62.5t41.5 158.5q0 59 -30 93t-87 34q-61 0 -99 -59t-38 -150q0 -61 27 -100t81 -39z" />
    <glyph glyph-name="bar.uc" horiz-adv-x="552" 
d="M137 -172v1761h279v-1761h-279z" />
    <glyph glyph-name="backslash.uc" horiz-adv-x="901" 
d="M600 -172l-614 1761h315l617 -1761h-318z" />
    <glyph glyph-name="f.short" horiz-adv-x="786" 
d="M154 0v801h-131v270h131v80q0 200 118 300.5t322 100.5q88 0 170 -20v-291q-40 12 -92 12q-57 0 -86 -28.5t-29 -75.5v-78h207v-270h-207v-801h-403z" />
    <glyph glyph-name="f_f.short" horiz-adv-x="1478" 
d="M154 0v801h-131v270h131v68q0 200 116.5 300.5t319.5 100.5q84 0 170 -22v-291q-44 14 -90 14q-57 0 -85 -28.5t-28 -75.5v-66h289v80q0 200 117.5 300.5t320.5 100.5q90 0 172 -20v-291q-40 12 -92 12q-57 0 -86 -28.5t-29 -75.5v-78h207v-270h-207v-801h-403v801h-289
v-801h-403z" />
    <glyph glyph-name="slash.uc" horiz-adv-x="901" 
d="M-18 -172l616 1761h317l-616 -1761h-317z" />
    <glyph glyph-name="braceright.uc" horiz-adv-x="870" 
d="M76 -197v293q111 6 145 43.5t23 134.5l-17 166q-11 104 44 175.5t169 95.5q-113 26 -168.5 96t-44.5 172l17 166q11 95 -22.5 129.5t-145.5 40.5v291q331 0 469 -110t98 -363l-20 -129q-13 -73 32.5 -114.5t155.5 -41.5v-281q-109 0 -155 -42t-33 -115l20 -131
q38 -246 -101.5 -361t-465.5 -115z" />
    <glyph glyph-name="braceleft.uc" horiz-adv-x="870" 
d="M795 -197q-327 0 -467 115.5t-101 360.5l21 131q11 73 -35 115t-154 42v281q108 0 154 42t35 114l-21 129q-40 253 98.5 363t469.5 110v-291q-112 -6 -146.5 -41t-23.5 -129l18 -166q11 -102 -44.5 -172t-168.5 -96q113 -25 168.5 -96t44.5 -175l-18 -166
q-11 -97 24 -134.5t146 -43.5v-293z" />
    <glyph glyph-name="bracketright.uc" horiz-adv-x="858" 
d="M78 -195v293h246v1217h-246v291h653v-1801h-653z" />
    <glyph glyph-name="bracketleft.uc" horiz-adv-x="858" 
d="M125 -195v1801h657v-291h-250v-1217h250v-293h-657z" />
    <glyph glyph-name="parenright.uc" horiz-adv-x="741" 
d="M20 -201q265 437 265 906q0 466 -265 903h308q66 -79 118 -159t106.5 -193t85 -254.5t30.5 -296.5q0 -154 -30.5 -295.5t-85 -255.5t-106.5 -194.5t-118 -160.5h-308z" />
    <glyph glyph-name="parenleft.uc" horiz-adv-x="741" 
d="M414 -201q-66 80 -118 160.5t-106.5 194.5t-85 255.5t-30.5 295.5q0 495 340 903h307q-264 -429 -264 -903q0 -477 264 -906h-307z" />
    <glyph glyph-name="guillemotright.uc" horiz-adv-x="976" 
d="M422 215l244 401l-244 402h248l254 -402l-254 -401h-248zM53 215l244 401l-244 402h248l254 -402l-254 -401h-248z" />
    <glyph glyph-name="guillemotleft.uc" horiz-adv-x="976" 
d="M676 215l-254 401l254 402h248l-244 -402l244 -401h-248zM305 215l-254 401l254 402h248l-244 -402l244 -401h-248z" />
    <glyph glyph-name="guilsinglright.uc" horiz-adv-x="622" 
d="M53 215l244 401l-244 402h264l254 -402l-254 -401h-264z" />
    <glyph glyph-name="guilsinglleft.uc" horiz-adv-x="622" 
d="M305 215l-254 401l254 402h264l-243 -402l243 -401h-264z" />
    <glyph glyph-name="emdash.uc" horiz-adv-x="1961" 
d="M94 561v227h1774v-227h-1774z" />
    <glyph glyph-name="endash.uc" horiz-adv-x="1112" 
d="M94 561v227h924v-227h-924z" />
    <glyph glyph-name="hyphen.uc" horiz-adv-x="843" 
d="M100 510v315h643v-315h-643z" />
    <glyph glyph-name="exclamdown.uc" horiz-adv-x="702" 
d="M350 1057q-97 0 -165 63t-68 154q0 89 68 152t165 63t165.5 -63t68.5 -152q0 -91 -68.5 -154t-165.5 -63zM123 0l59 971h336l60 -971h-455z" />
    <glyph glyph-name="questiondown.uc" horiz-adv-x="1165" 
d="M631 1489q98 0 166.5 -63t68.5 -152q0 -91 -68.5 -154t-166.5 -63q-97 0 -165.5 63t-68.5 154q0 89 68.5 152t165.5 63zM821 971v-27q0 -45 -12.5 -88t-29 -73.5t-47 -67.5t-50.5 -57t-57 -54q-47 -44 -68 -66t-42 -57.5t-21 -68.5q0 -107 106 -107q58 0 94 43t47 121
h394q-6 -237 -160.5 -364.5t-407.5 -127.5q-243 0 -377.5 102.5t-134.5 293.5q0 91 36.5 162.5t103.5 138.5q27 27 76 71.5t77.5 71.5t56 64t35.5 71v19h381z" />
    <glyph glyph-name="caron.alt" horiz-adv-x="819" 
d="M297 1178l16 358h287l-102 -358h-201z" />
    <glyph glyph-name="registered.alt" horiz-adv-x="1724" 
d="M860 -43q-216 0 -397.5 101t-287 279t-105.5 394q0 160 62 304t168 247.5t253 164t311 60.5q222 0 404 -102.5t285.5 -279.5t103.5 -390q0 -163 -62.5 -307.5t-169 -247.5t-254 -163t-311.5 -60zM860 63q182 0 332.5 83.5t240 238t89.5 350.5q0 145 -51 270t-139.5 211.5
t-209.5 135.5t-258 49q-185 0 -335.5 -84t-238 -237.5t-87.5 -348.5q0 -147 52.5 -273t141.5 -212t209 -134.5t254 -48.5zM797 778h55q100 0 100 84v6q0 78 -98 78h-57v-168zM524 324v829h344q353 0 353 -272v-4q0 -150 -136 -218l183 -335h-283l-147 278h-41v-278h-273z
" />
    <glyph glyph-name="space_uni0326.alt" horiz-adv-x="819" 
d="M580 1157l-353 25l207 389l225 -55z" />
    <glyph glyph-name="tcommaaccent.alt" horiz-adv-x="790" 
d="M348 -477l-225 55l80 359l352 -25zM168 0v801h-145v270h145v219h403v-219h189v-270h-189v-801h-403z" />
    <glyph glyph-name="tcaron.alt" horiz-adv-x="790" 
d="M168 0v801h-145v270h145v219h403v-219h189v-270h-189v-801h-403zM649 1178l17 358h286l-102 -358h-201z" />
    <glyph glyph-name="tbar.alt" horiz-adv-x="790" 
d="M23 461v217h145v123h-145v270h145v219h403v-219h189v-270h-189v-123h189v-217h-189v-461h-403v461h-145z" />
    <glyph glyph-name="germandbls.alt" horiz-adv-x="1445" 
d="M981 -18q-214 0 -322.5 92.5t-113.5 261.5h334q6 -103 82 -103q67 0 67 74q0 15 -3.5 27t-13 22.5t-17.5 17.5t-27 16.5t-31 15t-40 17.5t-44 19q-53 24 -89.5 46t-78 57t-63 81.5t-21.5 102.5q0 53 23 105t55 92.5t64.5 77t55.5 72.5t23 67q0 119 -143 119
q-82 0 -130 -45t-48 -132v-1085h-404v1079q0 227 162.5 354.5t427.5 127.5q240 0 386.5 -93t146.5 -262q0 -67 -24.5 -124.5t-59.5 -95.5t-70 -69t-59.5 -57t-24.5 -47q0 -6 1.5 -11.5t6 -11t9.5 -10t15 -11t19 -12t25.5 -14t30.5 -15.5t37.5 -19.5t43.5 -22.5
q108 -53 173 -132.5t65 -201.5q0 -180 -117 -275t-309 -95z" />
    <glyph glyph-name="atilde.alt" horiz-adv-x="1306" 
d="M635 281q86 0 134 64t48 187v17q0 125 -46 188.5t-132 63.5q-182 0 -182 -254v-17q0 -123 46 -186t132 -63zM489 -27q-89 0 -167.5 34t-140.5 99.5t-98 173t-36 244.5v17q0 136 36 244t98 176t140.5 103.5t167.5 35.5q221 0 316 -176v147h403v-1071h-403v170
q-43 -88 -123.5 -142.5t-192.5 -54.5zM803 1190q-52 0 -99.5 16.5t-83 32.5t-59.5 16t-41 -17t-20 -44h-213q9 163 74 247.5t167 84.5q62 0 141 -33t107 -33q52 0 62 64h213q-10 -163 -79 -248.5t-169 -85.5z" />
    <glyph glyph-name="aringacute.alt" horiz-adv-x="1306" 
d="M635 281q86 0 134 64t48 187v17q0 125 -46 188.5t-132 63.5q-182 0 -182 -254v-17q0 -123 46 -186t132 -63zM489 -27q-89 0 -167.5 34t-140.5 99.5t-98 173t-36 244.5v17q0 136 36 244t98 176t140.5 103.5t167.5 35.5q221 0 316 -176v147h403v-1071h-403v170
q-43 -88 -123.5 -142.5t-192.5 -54.5zM666 1167q-101 0 -173.5 70t-72.5 168t72.5 169t173.5 71t173 -71t72 -169t-72 -168t-173 -70zM666 1307q40 0 65 27.5t25 70.5q0 44 -25 72t-65 28t-65.5 -28t-25.5 -72q0 -43 25.5 -70.5t65.5 -27.5zM522 1698l105 305h411l-211 -305
h-305z" />
    <glyph glyph-name="aring.alt" horiz-adv-x="1306" 
d="M635 281q86 0 134 64t48 187v17q0 125 -46 188.5t-132 63.5q-182 0 -182 -254v-17q0 -123 46 -186t132 -63zM489 -27q-89 0 -167.5 34t-140.5 99.5t-98 173t-36 244.5v17q0 136 36 244t98 176t140.5 103.5t167.5 35.5q221 0 316 -176v147h403v-1071h-403v170
q-43 -88 -123.5 -142.5t-192.5 -54.5zM666 1176q-101 0 -173.5 69.5t-72.5 167.5t72.5 169t173.5 71t173 -71t72 -169t-72 -167.5t-173 -69.5zM666 1315q40 0 65 27.5t25 70.5q0 44 -25 72t-65 28t-65.5 -28t-25.5 -72q0 -43 25.5 -70.5t65.5 -27.5z" />
    <glyph glyph-name="aogonek.alt" horiz-adv-x="1306" 
d="M1022 -373q-113 0 -178.5 45t-65.5 123q0 71 49 119.5t129 85.5h-151v170q-43 -88 -123.5 -142.5t-192.5 -54.5q-89 0 -167.5 34t-140.5 99.5t-98 173t-36 244.5v17q0 136 36 244t98 176t140.5 103.5t167.5 35.5q221 0 316 -176v147h403v-1044q-108 -82 -108 -148
q0 -26 16.5 -39.5t44.5 -13.5q32 0 51 8v-172q-68 -35 -190 -35zM635 281q86 0 134 64t48 187v17q0 125 -46 188.5t-132 63.5q-182 0 -182 -254v-17q0 -123 46 -186t132 -63z" />
    <glyph glyph-name="amacron.alt" horiz-adv-x="1306" 
d="M635 281q86 0 134 64t48 187v17q0 125 -46 188.5t-132 63.5q-182 0 -182 -254v-17q0 -123 46 -186t132 -63zM489 -27q-89 0 -167.5 34t-140.5 99.5t-98 173t-36 244.5v17q0 136 36 244t98 176t140.5 103.5t167.5 35.5q221 0 316 -176v147h403v-1071h-403v170
q-43 -88 -123.5 -142.5t-192.5 -54.5zM344 1239v219h647v-219h-647z" />
    <glyph glyph-name="agrave.alt" horiz-adv-x="1306" 
d="M635 281q86 0 134 64t48 187v17q0 125 -46 188.5t-132 63.5q-182 0 -182 -254v-17q0 -123 46 -186t132 -63zM489 -27q-89 0 -167.5 34t-140.5 99.5t-98 173t-36 244.5v17q0 136 36 244t98 176t140.5 103.5t167.5 35.5q221 0 316 -176v147h403v-1071h-403v170
q-43 -88 -123.5 -142.5t-192.5 -54.5zM532 1184l-213 346h396l106 -346h-289z" />
    <glyph glyph-name="adieresis.alt" horiz-adv-x="1306" 
d="M635 281q86 0 134 64t48 187v17q0 125 -46 188.5t-132 63.5q-182 0 -182 -254v-17q0 -123 46 -186t132 -63zM489 -27q-89 0 -167.5 34t-140.5 99.5t-98 173t-36 244.5v17q0 136 36 244t98 176t140.5 103.5t167.5 35.5q221 0 316 -176v147h403v-1071h-403v170
q-43 -88 -123.5 -142.5t-192.5 -54.5zM889 1167q-77 0 -130.5 53.5t-53.5 129.5t53.5 129t130.5 53q79 0 133.5 -53.5t54.5 -128.5q0 -76 -54.5 -129.5t-133.5 -53.5zM444 1167q-78 0 -132 54t-54 129t54 128.5t132 53.5t133.5 -53.5t55.5 -128.5t-55.5 -129t-133.5 -54z
" />
    <glyph glyph-name="acircumflex.alt" horiz-adv-x="1306" 
d="M635 281q86 0 134 64t48 187v17q0 125 -46 188.5t-132 63.5q-182 0 -182 -254v-17q0 -123 46 -186t132 -63zM489 -27q-89 0 -167.5 34t-140.5 99.5t-98 173t-36 244.5v17q0 136 36 244t98 176t140.5 103.5t167.5 35.5q221 0 316 -176v147h403v-1071h-403v170
q-43 -88 -123.5 -142.5t-192.5 -54.5zM274 1188l256 340h283l246 -340h-281l-114 108l-115 -108h-275z" />
    <glyph glyph-name="abreve.alt" horiz-adv-x="1306" 
d="M635 281q86 0 134 64t48 187v17q0 125 -46 188.5t-132 63.5q-182 0 -182 -254v-17q0 -123 46 -186t132 -63zM489 -27q-89 0 -167.5 34t-140.5 99.5t-98 173t-36 244.5v17q0 136 36 244t98 176t140.5 103.5t167.5 35.5q221 0 316 -176v147h403v-1071h-403v170
q-43 -88 -123.5 -142.5t-192.5 -54.5zM668 1190q-157 0 -248 86.5t-98 247.5h243q3 -43 29.5 -67.5t73.5 -24.5q44 0 71.5 24.5t32.5 67.5h242q-9 -160 -102 -247t-244 -87z" />
    <glyph glyph-name="aacute.alt" horiz-adv-x="1306" 
d="M635 281q86 0 134 64t48 187v17q0 125 -46 188.5t-132 63.5q-182 0 -182 -254v-17q0 -123 46 -186t132 -63zM489 -27q-89 0 -167.5 34t-140.5 99.5t-98 173t-36 244.5v17q0 136 36 244t98 176t140.5 103.5t167.5 35.5q221 0 316 -176v147h403v-1071h-403v170
q-43 -88 -123.5 -142.5t-192.5 -54.5zM514 1184l107 346h395l-213 -346h-289z" />
    <glyph glyph-name="minus.sup" horiz-adv-x="739" 
d="M70 1104v205h600v-205h-600z" />
    <glyph glyph-name="plus.sup" horiz-adv-x="739" 
d="M266 905v199h-196v205h196v200h207v-200h197v-205h-197v-199h-207z" />
    <glyph glyph-name="nine.sup" horiz-adv-x="827" 
d="M393 1239q35 0 55.5 22t20.5 56q0 37 -20 60.5t-56 23.5q-33 0 -53.5 -23.5t-20.5 -60.5q0 -35 20 -56.5t54 -21.5zM393 786q-154 0 -242.5 66t-97.5 186h271q7 -45 63 -45q52 0 74 41t24 119q-29 -40 -64.5 -59t-105.5 -19q-126 0 -201 57t-75 183q0 127 95.5 203.5
t258.5 76.5q193 0 291 -108t98 -287v-16q0 -191 -99.5 -294.5t-289.5 -103.5z" />
    <glyph glyph-name="eight.sup" horiz-adv-x="804" 
d="M403 786q-181 0 -273.5 59.5t-92.5 174.5q0 65 35.5 114.5t107.5 73.5q-108 46 -108 160q0 106 94 166.5t240 60.5q151 0 241 -58.5t90 -168.5q0 -115 -108 -158q70 -21 104.5 -69t34.5 -113q0 -115 -94 -178.5t-271 -63.5zM406 1274q28 0 48.5 19t20.5 48t-20.5 47.5
t-48.5 18.5q-29 0 -50.5 -19t-21.5 -49q0 -28 21.5 -46.5t50.5 -18.5zM403 981q34 0 56 21t22 53q0 31 -22 51t-56 20t-55.5 -20t-21.5 -53q0 -32 21.5 -52t55.5 -20z" />
    <glyph glyph-name="seven.sup" horiz-adv-x="731" 
d="M131 801l209 551h-301v231h672v-29l-285 -753h-295z" />
    <glyph glyph-name="six.sup" horiz-adv-x="827" 
d="M434 786q-199 0 -294 104.5t-95 291.5v22q0 179 109.5 285t281.5 106q155 0 240 -64.5t96 -187.5h-268q-9 46 -60 46q-97 0 -104 -164q30 40 71.5 61t112.5 21q116 0 190 -58t74 -182q0 -128 -94.5 -204.5t-259.5 -76.5zM430 981q33 0 54.5 23t21.5 59q0 35 -21 57.5
t-55 22.5t-54 -23.5t-20 -58.5q0 -34 20.5 -57t53.5 -23z" />
    <glyph glyph-name="five.sup" horiz-adv-x="776" 
d="M381 786q-171 0 -255.5 73t-86.5 194h268q7 -54 66 -54q30 0 47.5 21t17.5 55q0 72 -71 72q-57 0 -72 -47h-234l25 483h600v-205h-397l-8 -159q67 104 211 104q110 0 175.5 -63t65.5 -179q0 -138 -92.5 -216.5t-259.5 -78.5z" />
    <glyph glyph-name="four.sup" horiz-adv-x="835" 
d="M412 801v143h-389v111l321 528h352v-446h99v-193h-99v-143h-284zM272 1137h148v254z" />
    <glyph glyph-name="three.sup" horiz-adv-x="788" 
d="M395 786q-346 0 -360 281h260q3 -35 23.5 -56.5t58.5 -21.5q33 0 51 17t18 47q0 59 -84 59h-63v162h63q89 0 89 63q0 56 -64 56q-31 0 -51.5 -18.5t-26.5 -53.5h-258q9 124 96.5 199t247.5 75q157 0 244.5 -57.5t87.5 -161.5q0 -132 -141 -168q70 -11 113.5 -56
t43.5 -112q0 -117 -88 -185.5t-260 -68.5z" />
    <glyph glyph-name="two.sup" horiz-adv-x="749" 
d="M8 801v37l264 270q77 78 110.5 124t33.5 87q0 61 -58 61q-61 0 -73 -104h-269q4 156 99.5 237.5t259.5 81.5q163 0 246.5 -71t83.5 -183q0 -75 -40 -137t-120 -139l-58 -53h222v-211h-701z" />
    <glyph glyph-name="one.sup" horiz-adv-x="608" 
d="M209 801v497l-170 -92v238l213 139h254v-782h-297z" />
    <glyph glyph-name="zero.sup" horiz-adv-x="890" 
d="M438 786q-189 0 -291 103.5t-102 296.5v12q0 187 111.5 292t287.5 105q178 0 290 -98.5t112 -292.5v-10q0 -192 -109 -300t-299 -108zM444 1010q56 0 80.5 43t24.5 135v12q0 95 -25 134.5t-82 39.5q-55 0 -77.5 -40t-22.5 -134v-14q0 -93 23 -134.5t79 -41.5z" />
    <glyph glyph-name="minus.sub" horiz-adv-x="739" 
d="M70 45v203h600v-203h-600z" />
    <glyph glyph-name="uni0414.bgr" horiz-adv-x="1581" 
d="M758 1028l-189 -670h377zM430 0l-14 -266h-402v624h129l365 1106h557l371 -1106h131v-624h-402l-14 266h-721z" />
    <glyph glyph-name="plus.sub" horiz-adv-x="739" 
d="M266 -156v201h-196v203h196v203h207v-203h197v-203h-197v-201h-207z" />
    <glyph glyph-name="nine.sub" horiz-adv-x="827" 
d="M393 180q35 0 55.5 22t20.5 56q0 37 -20 60.5t-56 23.5q-33 0 -53.5 -23.5t-20.5 -60.5q0 -35 20 -56.5t54 -21.5zM393 -272q-154 0 -242.5 66t-97.5 186h271q7 -46 63 -46q52 0 74 41t24 119q-29 -40 -64.5 -59t-105.5 -19q-126 0 -201 57t-75 183q0 127 95.5 204
t258.5 77q193 0 291 -108.5t98 -287.5v-16q0 -191 -99.5 -294t-289.5 -103z" />
    <glyph glyph-name="uni0416.bgr" horiz-adv-x="2140" 
d="M842 0v614l-340 -614h-486l461 772l-440 692h465l340 -583v583h452v-579l342 579h459l-442 -669l471 -795h-506l-324 612v-612h-452z" />
    <glyph glyph-name="eight.sub" horiz-adv-x="804" 
d="M403 -272q-181 0 -273.5 59.5t-92.5 173.5q0 65 35.5 115t107.5 74q-108 46 -108 159q0 106 94.5 167t239.5 61q150 0 240.5 -59t90.5 -169q0 -114 -108 -157q70 -21 104.5 -69.5t34.5 -113.5q0 -115 -94 -178t-271 -63zM406 215q28 0 48.5 19.5t20.5 48.5t-20 47t-49 18
t-50.5 -18.5t-21.5 -48.5q0 -28 21.5 -47t50.5 -19zM403 -78q34 0 56 20.5t22 51.5q0 32 -22 53t-56 21t-55.5 -20.5t-21.5 -53.5q0 -32 21.5 -52t55.5 -20z" />
    <glyph glyph-name="seven.sub" horiz-adv-x="731" 
d="M131 -258l209 551h-301v231h672v-28l-285 -754h-295z" />
    <glyph glyph-name="six.sub" horiz-adv-x="827" 
d="M434 -272q-200 0 -294.5 104t-94.5 291v22q0 179 109.5 285.5t281.5 106.5q155 0 240 -64.5t96 -187.5h-268q-9 45 -60 45q-97 0 -104 -164q30 40 71.5 61t112.5 21q116 0 190 -58t74 -182q0 -128 -94.5 -204t-259.5 -76zM430 -78q33 0 54.5 23t21.5 59q0 35 -21 57.5
t-55 22.5t-54 -23.5t-20 -58.5q0 -34 20.5 -57t53.5 -23z" />
    <glyph glyph-name="five.sub" horiz-adv-x="776" 
d="M381 -272q-171 0 -255.5 72.5t-86.5 193.5h268q7 -53 66 -53q30 0 47.5 20.5t17.5 54.5q0 72 -71 72q-57 0 -72 -47h-234l25 483h600v-205h-397l-8 -159q67 104 211 104q110 0 175.5 -62.5t65.5 -178.5q0 -138 -92.5 -216.5t-259.5 -78.5z" />
    <glyph glyph-name="uni041A.bgr" horiz-adv-x="1527" 
d="M979 0l-379 584v-584h-467v1464h467v-553l404 553h483l-516 -676l542 -788h-534z" />
    <glyph glyph-name="four.sub" horiz-adv-x="835" 
d="M412 -258v143h-389v111l321 528h352v-446h99v-193h-99v-143h-284zM272 78h148v254z" />
    <glyph glyph-name="uni041B.bgr" horiz-adv-x="1515" 
d="M997 0l-272 981l-274 -981h-435l476 1464h524l483 -1464h-502z" />
    <glyph glyph-name="three.sub" horiz-adv-x="788" 
d="M395 -272q-346 0 -360 280h260q3 -35 23.5 -56.5t58.5 -21.5q33 0 51 17t18 47q0 59 -84 59h-63v162h63q89 0 89 64q0 55 -64 55q-31 0 -51.5 -18.5t-26.5 -53.5h-258q9 124 96.5 199.5t247.5 75.5q157 0 244.5 -58t87.5 -162q0 -131 -141 -167q70 -11 113.5 -56
t43.5 -112q0 -117 -88 -185.5t-260 -68.5z" />
    <glyph glyph-name="two.sub" horiz-adv-x="749" 
d="M8 -258v37l264 270q77 78 110.5 124t33.5 87q0 62 -58 62q-61 0 -73 -105h-269q4 156 99.5 238t259.5 82q163 0 246.5 -71t83.5 -183q0 -75 -40 -138t-120 -139l-58 -53h222v-211h-701z" />
    <glyph glyph-name="one.sub" horiz-adv-x="608" 
d="M209 -258v496l-170 -91v238l213 139h254v-782h-297z" />
    <glyph glyph-name="zero.sub" horiz-adv-x="890" 
d="M438 -272q-189 0 -291 103t-102 296v12q0 187 111.5 292.5t287.5 105.5q85 0 157 -23.5t127.5 -70t86.5 -123t31 -175.5v-10q0 -192 -109 -299.5t-299 -107.5zM444 -49q56 0 80.5 43t24.5 135v12q0 95 -25 134.5t-82 39.5q-55 0 -77.5 -40t-22.5 -134v-14
q0 -93 23 -134.5t79 -41.5z" />
    <glyph glyph-name="nine.den" horiz-adv-x="827" 
d="M393 436q35 0 55.5 22.5t20.5 57.5q0 37 -20 60.5t-56 23.5q-33 0 -53.5 -23.5t-20.5 -60.5q0 -35 20 -57.5t54 -22.5zM393 -14q-154 0 -242.5 66t-97.5 186h271q7 -45 63 -45q52 0 74 40.5t24 118.5q-29 -40 -64.5 -59t-105.5 -19q-126 0 -201 57t-75 183
q0 127 95.5 204t258.5 77q193 0 291 -108.5t98 -287.5v-18q0 -189 -99.5 -292t-289.5 -103z" />
    <glyph glyph-name="eight.den" horiz-adv-x="804" 
d="M403 -14q-181 0 -273.5 59.5t-92.5 173.5q0 65 35.5 115t107.5 74q-108 43 -108 159q0 106 94 166t240 60q150 0 240.5 -59t90.5 -167q0 -114 -108 -157q139 -44 139 -183q0 -115 -94 -178t-271 -63zM406 473q28 0 48.5 18.5t20.5 47.5q0 30 -20 48.5t-49 18.5
t-50.5 -19.5t-21.5 -47.5t21.5 -47t50.5 -19zM403 180q34 0 56 20t22 52t-22 52t-56 20t-55.5 -20t-21.5 -52t21.5 -52t55.5 -20z" />
    <glyph glyph-name="seven.den" horiz-adv-x="731" 
d="M131 0l209 551h-301v231h672v-28l-285 -754h-295z" />
    <glyph glyph-name="six.den" horiz-adv-x="827" 
d="M434 -14q-200 0 -294.5 104t-94.5 291v22q0 178 109.5 284t281.5 106q155 0 240 -64.5t96 -187.5h-268q-8 45 -60 45q-97 0 -104 -164q29 40 70.5 61t113.5 21q55 0 101 -13t83.5 -40t58.5 -74t21 -111q0 -129 -94 -204.5t-260 -75.5zM430 180q33 0 54.5 23t21.5 59
q0 35 -21 57.5t-55 22.5t-54 -23.5t-20 -58.5q0 -36 20.5 -58t53.5 -22z" />
    <glyph glyph-name="five.den" horiz-adv-x="776" 
d="M381 -14q-171 0 -255.5 72.5t-86.5 191.5h268q7 -51 66 -51q30 0 47.5 20.5t17.5 54.5q0 72 -71 72q-57 0 -72 -47h-234l25 483h600v-207h-397l-8 -159q30 48 78 77t133 29q110 0 175.5 -63t65.5 -180q0 -136 -92.5 -214.5t-259.5 -78.5z" />
    <glyph glyph-name="uni0424.bgr" horiz-adv-x="1947" 
d="M1206 1389q318 -11 504 -178t186 -459v-17q0 -146 -53.5 -264.5t-148 -196t-219 -121.5t-269.5 -49v-124h-461v124q-318 11 -504 177.5t-186 457.5v17q0 147 53.5 265.5t148 196.5t219 122t269.5 49v116h461v-116zM745 430v637q-106 -3 -174.5 -81t-68.5 -228v-17
q0 -154 67 -230t176 -81zM1206 1063v-637q107 5 175.5 81.5t68.5 225.5v17q0 156 -67 233t-177 80z" />
    <glyph glyph-name="four.den" horiz-adv-x="835" 
d="M412 0v143h-389v109l321 530h352v-446h99v-193h-99v-143h-284zM272 336h148v254z" />
    <glyph glyph-name="three.den" horiz-adv-x="788" 
d="M395 -14q-346 0 -360 280h260q7 -78 82 -78q69 0 69 62q0 61 -84 61h-63v162h63q89 0 89 64q0 25 -16.5 40t-47.5 15q-66 0 -78 -74h-258q9 125 96.5 200t247.5 75q157 0 244.5 -57t87.5 -161q0 -131 -141 -167q70 -11 113.5 -56t43.5 -112q0 -118 -88 -186t-260 -68z
" />
    <glyph glyph-name="two.den" horiz-adv-x="749" 
d="M8 0v37l264 270q77 78 110.5 124t33.5 87q0 60 -58 60q-61 0 -73 -103h-269q4 155 99.5 236.5t259.5 81.5q163 0 246.5 -70t83.5 -182q0 -75 -40.5 -139t-119.5 -138l-58 -55h222v-209h-701z" />
    <glyph glyph-name="one.den" horiz-adv-x="608" 
d="M209 0v496l-170 -90v237l213 139h254v-782h-297z" />
    <glyph glyph-name="zero.den" horiz-adv-x="890" 
d="M438 -14q-189 0 -291 103t-102 296v12q0 187 111.5 291.5t287.5 104.5q178 0 290 -98.5t112 -291.5v-10q0 -192 -109 -299.5t-299 -107.5zM444 209q56 0 80.5 42.5t24.5 133.5v14q0 93 -25 133.5t-82 40.5q-55 0 -77.5 -40.5t-22.5 -135.5v-12q0 -93 23 -134.5t79 -41.5z
" />
    <glyph glyph-name="nine.num" horiz-adv-x="827" 
d="M393 1120q35 0 55.5 22t20.5 56q0 37 -20 60.5t-56 23.5q-33 0 -53.5 -23.5t-20.5 -60.5q0 -35 20 -56.5t54 -21.5zM393 668q-154 0 -242.5 66t-97.5 186h271q7 -46 63 -46q52 0 74 41t24 119q-29 -40 -64.5 -59t-105.5 -19q-126 0 -201 57t-75 183q0 127 95.5 204
t258.5 77q193 0 291 -108.5t98 -287.5v-16q0 -191 -99.5 -294t-289.5 -103z" />
    <glyph glyph-name="eight.num" horiz-adv-x="804" 
d="M403 668q-181 0 -273.5 59.5t-92.5 173.5q0 65 35.5 115t107.5 74q-108 46 -108 159q0 106 94.5 167t239.5 61q150 0 240.5 -59t90.5 -169q0 -114 -108 -157q70 -21 104.5 -69.5t34.5 -113.5q0 -115 -94 -178t-271 -63zM406 1155q28 0 48.5 19.5t20.5 48.5t-20 47t-49 18
t-50.5 -18.5t-21.5 -48.5q0 -28 21.5 -47t50.5 -19zM403 862q34 0 56 21t22 53q0 31 -22 51.5t-56 20.5t-55.5 -20.5t-21.5 -53.5q0 -32 21.5 -52t55.5 -20z" />
    <glyph glyph-name="seven.num" horiz-adv-x="731" 
d="M131 682l209 551h-301v231h672v-28l-285 -754h-295z" />
    <glyph glyph-name="six.num" horiz-adv-x="827" 
d="M434 668q-200 0 -294.5 104t-94.5 291v22q0 179 109.5 285.5t281.5 106.5q155 0 240 -64.5t96 -187.5h-268q-9 45 -60 45q-97 0 -104 -164q30 40 71.5 61t112.5 21q116 0 190 -58t74 -182q0 -128 -94.5 -204t-259.5 -76zM430 862q33 0 54.5 23t21.5 59q0 35 -21 57.5
t-55 22.5t-54 -23.5t-20 -58.5q0 -34 20.5 -57t53.5 -23z" />
    <glyph glyph-name="five.num" horiz-adv-x="774" 
d="M381 668q-171 0 -255.5 72.5t-86.5 193.5h268q7 -53 66 -53q30 0 47.5 20.5t17.5 54.5q0 72 -71 72q-57 0 -72 -47h-234l25 483h600v-204h-397l-8 -160q67 104 211 104q110 0 175.5 -62.5t65.5 -178.5q0 -138 -92.5 -216.5t-259.5 -78.5z" />
    <glyph glyph-name="four.num" horiz-adv-x="835" 
d="M412 682v143h-389v111l321 528h352v-446h99v-193h-99v-143h-284zM272 1018h148v254z" />
    <glyph glyph-name="three.num" horiz-adv-x="788" 
d="M395 668q-346 0 -360 280h260q3 -35 23.5 -56.5t58.5 -21.5q33 0 51 17t18 47q0 59 -84 59h-63v162h63q89 0 89 64q0 55 -64 55q-31 0 -51.5 -18.5t-26.5 -53.5h-258q9 124 96.5 199.5t247.5 75.5q157 0 244.5 -58t87.5 -162q0 -131 -141 -167q70 -11 113.5 -56
t43.5 -112q0 -117 -88 -185.5t-260 -68.5z" />
    <glyph glyph-name="hungarumlaut.uc" horiz-adv-x="819" 
d="M473 1550l84 305h336l-154 -305h-266zM59 1550l86 305h334l-153 -305h-267z" />
    <glyph glyph-name="two.num" horiz-adv-x="749" 
d="M8 682v37l264 270q77 78 110.5 124t33.5 87q0 62 -58 62q-61 0 -73 -105h-269q4 156 99.5 238t259.5 82q163 0 246.5 -71t83.5 -183q0 -75 -40 -138t-120 -139l-58 -53h222v-211h-701z" />
    <glyph glyph-name="uni0431.locl" horiz-adv-x="1282" 
d="M641 -27q-169 0 -303 60t-214.5 181t-80.5 284v14q0 162 92.5 283.5t259.5 158.5l90 13q-86 22 -147 45.5t-112 58.5t-76 84t-25 113q0 125 87 195.5t253 70.5h334q242 0 346 31v-283q-77 -45 -361 -45h-292q-56 0 -56 -39q0 -43 152 -86q123 -33 215 -67t177 -83.5
t139 -108.5t86 -141t32 -182v-18q0 -165 -79.5 -288.5t-214 -187t-302.5 -63.5zM643 270q184 0 184 238v14q0 240 -184 240q-188 0 -188 -238v-14q0 -240 188 -240z" />
    <glyph glyph-name="one.num" horiz-adv-x="608" 
d="M209 682v498l-170 -93v238l213 139h254v-782h-297z" />
    <glyph glyph-name="uni0432.bgr" horiz-adv-x="1142" 
d="M61 977q0 291 139 435t388 144q229 0 354 -103.5t125 -295.5v-18q0 -126 -70 -219.5t-180 -118.5q138 -23 212.5 -111.5t74.5 -228.5v-10q0 -99 -36 -186t-102 -152.5t-166.5 -103.5t-221.5 -38q-248 0 -382.5 130.5t-134.5 379.5v496zM459 1036v-121h53q89 0 127.5 49
t38.5 144v18q0 81 -23.5 116.5t-76.5 35.5q-119 0 -119 -242zM578 248q131 0 131 207v20q0 96 -42 140t-137 44h-71v-200q0 -106 26 -158.5t93 -52.5z" />
    <glyph glyph-name="zero.num" horiz-adv-x="890" 
d="M438 668q-189 0 -291 103t-102 296v12q0 187 111.5 292.5t287.5 105.5q85 0 157 -23.5t127.5 -70t86.5 -123t31 -175.5v-10q0 -192 -109 -299.5t-299 -107.5zM444 891q56 0 80.5 43t24.5 135v12q0 95 -25 134.5t-82 39.5q-55 0 -77.5 -40t-22.5 -134v-14q0 -93 23 -134.5
t79 -41.5z" />
    <glyph glyph-name="uni0433.bgr" horiz-adv-x="1075" 
d="M524 -27q-226 0 -358.5 88.5t-132.5 257.5q0 78 28 135t85.5 95t128.5 62t174 44q115 21 156.5 43.5t41.5 59.5q0 73 -96 73q-106 0 -125 -96h-363q60 367 510 367q204 0 329.5 -86.5t125.5 -247.5q0 -151 -92.5 -226.5t-300.5 -113.5q-122 -21 -162.5 -44.5t-40.5 -64.5
q0 -71 107 -71q66 0 94.5 27t36.5 83h370q-11 -186 -142 -285.5t-374 -99.5z" />
    <glyph glyph-name="uni0433.locl" horiz-adv-x="925" 
d="M901 791h-401v-791h-402v1071h803v-280z" />
    <glyph glyph-name="nine.oldtab" 
d="M592 610q74 0 123 50.5t49 134.5q0 86 -49 138t-125 52q-73 0 -120.5 -52t-47.5 -134q0 -87 47.5 -138t122.5 -51zM580 -219q-242 0 -377 115.5t-144 341.5h367q18 -138 149 -138q103 0 145 89.5t42 295.5q-90 -149 -293 -149q-89 0 -163.5 25t-134 75.5t-93 137
t-33.5 200.5q0 234 147.5 377t395.5 143q286 0 430.5 -171.5t144.5 -483.5v-164q0 -332 -152 -513t-431 -181z" />
    <glyph glyph-name="uni0434.bgr" horiz-adv-x="1318" 
d="M643 350q89 0 138.5 59.5t49.5 161.5v15q0 100 -49.5 158.5t-138.5 58.5q-91 0 -139.5 -58t-48.5 -161v-17q0 -100 48.5 -158.5t139.5 -58.5zM612 -397q-527 0 -573 405h399q12 -58 51 -92.5t125 -34.5q205 0 205 205v166q-43 -83 -127 -136t-198 -53
q-192 0 -320.5 134.5t-128.5 373.5v17q0 234 128.5 374t318.5 140q231 0 327 -178v147h404v-979q0 -239 -156 -364t-455 -125z" />
    <glyph glyph-name="uni0434.locl" horiz-adv-x="1277" 
d="M522 528q-12 -152 -51 -247h260v514h-199q-2 -124 -10 -267zM373 0l-4 -260h-349v541h56q86 44 108 280q15 170 15 510h929v-790h144v-541h-348l-4 260h-547z" />
    <glyph glyph-name="eight.oldtab" 
d="M614 -27q-263 0 -413 115t-150 324q0 122 66 215t186 139q-197 93 -197 303q0 130 70 226.5t185.5 144t259.5 47.5q225 0 366 -110t141 -306q0 -212 -196 -303q119 -44 182.5 -133.5t63.5 -210.5q0 -211 -150 -331t-414 -120zM618 885q63 0 105.5 42t42.5 111
q0 68 -42 110t-103 42q-62 0 -105 -42.5t-43 -109.5t42.5 -110t102.5 -43zM616 285q74 0 120 46t46 122q0 78 -44.5 125t-121.5 47q-73 0 -119 -46t-46 -124t45 -124t120 -46z" />
    <glyph glyph-name="seven.oldtab" 
d="M199 -188l405 1099h-536v357h1103v-47l-512 -1409h-460z" />
    <glyph glyph-name="uni0436.bgr" horiz-adv-x="1675" 
d="M641 0v459l-211 -459h-418l299 573l-282 498h401l211 -430v893h389v-893l209 430h397l-280 -483l307 -588h-430l-203 457v-457h-389z" />
    <glyph glyph-name="six.oldtab" 
d="M645 -27q-289 0 -434 172.5t-145 485.5v160q0 328 164 512t438 184q229 0 358 -109t139 -334h-374q-14 127 -123 127q-101 0 -150.5 -98t-50.5 -307q107 166 301 166q89 0 163 -25.5t131.5 -77.5t89.5 -138.5t32 -201.5q0 -234 -144.5 -375t-394.5 -141zM645 289
q73 0 120.5 51t47.5 133q0 87 -47.5 138t-122.5 51q-74 0 -123 -49.5t-49 -133.5q0 -86 49 -138t125 -52z" />
    <glyph glyph-name="uni0437.bgr" horiz-adv-x="1110" 
d="M1073 70v-15q0 -206 -137 -329t-397 -123q-243 0 -376.5 115t-156.5 311h393q7 -67 38.5 -107.5t92.5 -40.5q74 0 109 47t35 127v11q0 87 -37.5 129.5t-124.5 42.5h-102v270h84q78 0 113.5 37.5t35.5 113.5v19q0 76 -28.5 109.5t-84.5 33.5q-60 0 -90.5 -41.5
t-33.5 -132.5h-375q11 124 54.5 214t115 141.5t158 75.5t192.5 24q113 0 205.5 -31.5t152.5 -85.5t92.5 -125t32.5 -151v-15q0 -112 -63 -193.5t-160 -107.5q123 -29 192.5 -110t69.5 -213z" />
    <glyph glyph-name="five.oldtab" 
d="M602 -213q-269 0 -403.5 125.5t-137.5 355.5h381q6 -79 42 -119t116 -40q75 0 112.5 51t37.5 143q0 90 -46.5 138t-130.5 48q-130 0 -198 -104h-264l32 883h930v-328h-620l-13 -322q109 166 316 166q189 0 296 -123t107 -337q0 -252 -144.5 -394.5t-412.5 -142.5z" />
    <glyph glyph-name="uni0438.bgr" horiz-adv-x="1286" 
d="M446 -27q-160 0 -259 101.5t-99 294.5v702h404v-633q0 -83 32.5 -123.5t102.5 -40.5q159 0 159 187v610h404v-1071h-404v166q-97 -193 -340 -193z" />
    <glyph glyph-name="four.oldtab" 
d="M629 -188v266h-602v141l501 1049h506v-910h148v-280h-148v-266h-405zM375 358h264v566z" />
    <glyph glyph-name="uni0439.bgr" horiz-adv-x="1286" 
d="M631 1192q-162 0 -251.5 86.5t-98.5 241.5h262q11 -111 88 -111q74 0 90 111h262q-12 -154 -104.5 -241t-247.5 -87zM446 -27q-160 0 -259 101.5t-99 294.5v702h404v-633q0 -83 32.5 -123.5t102.5 -40.5q159 0 159 187v610h404v-1071h-404v166q-97 -193 -340 -193z" />
    <glyph glyph-name="three.oldtab" 
d="M610 -215q-286 0 -427.5 135t-149.5 375h391q10 -193 174 -193q77 0 116.5 43t39.5 117q0 76 -41 117t-123 41h-115v266h111q81 0 123.5 42.5t42.5 115.5q0 62 -35.5 99.5t-102.5 37.5q-71 0 -112 -45t-47 -133h-387q11 219 159 355t402 136q245 0 379.5 -106.5
t134.5 -296.5q0 -122 -60 -202.5t-170 -113.5q121 -25 193 -111t72 -214q0 -214 -148.5 -339.5t-419.5 -125.5z" />
    <glyph glyph-name="uni043A.bgr" horiz-adv-x="1204" 
d="M754 0l-254 440v-440h-404v1534h404v-875l260 412h414l-330 -483l356 -588h-446z" />
    <glyph glyph-name="two.oldtab" 
d="M41 0v59l455 439q115 110 167 190.5t52 155.5q0 125 -117 125q-123 0 -147 -195h-388q15 246 162.5 383t403.5 137q245 0 380.5 -111.5t135.5 -297.5q0 -123 -64.5 -226.5t-195.5 -224.5l-137 -125h407v-309h-1114z" />
    <glyph glyph-name="uni043B.bgr" horiz-adv-x="1222" 
d="M827 1071l387 -1071h-430l-198 649l-195 -649h-381l385 1071h432z" />
    <glyph glyph-name="one.oldtab" 
d="M516 0v844l-350 -223v358l409 289h371v-1268h-430z" />
    <glyph glyph-name="zero.oldtab" 
d="M606 -27q-257 0 -401 154t-144 430v160q0 270 153.5 423.5t397.5 153.5q120 0 220.5 -35.5t175.5 -104.5t117 -179t42 -250v-160q0 -278 -149.5 -435t-411.5 -157zM618 315q76 0 107 57.5t31 184.5v160q0 128 -32.5 186t-109.5 58q-76 0 -108.5 -58.5t-32.5 -185.5v-160
q0 -127 33.5 -184.5t111.5 -57.5z" />
    <glyph glyph-name="uni043D.bgr" horiz-adv-x="1280" 
d="M780 0v401h-280v-401h-402v1071h402v-389h280v389h402v-1071h-402z" />
    <glyph glyph-name="yen.oldtab" 
d="M115 621v147h268l-338 653h444l154 -377l152 377h389l-330 -653h283v-147h-299v-93h299v-147h-299v-381h-437v381h-286v147h286v93h-286z" />
    <glyph glyph-name="sterling.oldtab" 
d="M53 567v246h82q-18 88 -18 162q0 113 42 203t115.5 146.5t168.5 86t204 29.5q502 0 514 -492h-381q-9 90 -34 123t-82 33q-62 0 -92.5 -36.5t-30.5 -117.5q0 -74 8 -137h293v-246h-264q4 -62 4 -92q0 -54 -17 -110q95 -31 131 -31q104 0 109 104h381
q-8 -213 -115.5 -334.5t-290.5 -121.5q-62 0 -120 15.5t-93.5 34.5t-73 34.5t-63.5 15.5q-75 0 -82 -82h-323q6 110 51.5 202t122.5 144q18 59 18 129q0 40 -10 92h-154z" />
    <glyph glyph-name="uni043F.bgr" horiz-adv-x="1288" 
d="M96 0v1071h404v-172q48 91 137 147t217 56q157 0 250.5 -101.5t93.5 -295.5v-705h-401v614q0 83 -33.5 123.5t-104.5 40.5q-76 0 -117.5 -46.5t-41.5 -139.5v-592h-404z" />
    <glyph glyph-name="uni043F.locl" horiz-adv-x="1259" 
d="M760 0v791h-260v-791h-402v1071h1063v-1071h-401z" />
    <glyph glyph-name="Euro.oldtab" 
d="M47 756v145h88q10 255 156 398t373 143q476 0 493 -488h-360q-6 90 -35 127t-96 37q-70 0 -104.5 -51.5t-37.5 -165.5h260l-24 -145h-236v-94h219l-24 -146h-195q3 -115 36 -165t108 -50q70 0 103.5 41t37.5 139h352q-4 -261 -132 -384.5t-376 -123.5q-235 0 -372 141.5
t-146 401.5h-88v146h88v94h-88z" />
    <glyph glyph-name="dollar.oldtab" 
d="M430 1026q0 -46 24.5 -72t88.5 -41v224q-56 -10 -84.5 -39.5t-28.5 -71.5zM811 406q0 43 -25 67t-88 39v-231q113 24 113 125zM543 -268v248q-240 18 -367 141t-133 330h373q10 -137 127 -168v254q-255 40 -366 144t-111 312q0 186 127.5 307t349.5 138v178h155v-180
q440 -39 469 -437h-368q-13 104 -101 131v-239q90 -14 160.5 -34t133.5 -54.5t104 -81t64.5 -114.5t23.5 -154q0 -94 -28.5 -174t-85.5 -145t-152 -105.5t-220 -48.5v-248h-155z" />
    <glyph glyph-name="braceright.tab" horiz-adv-x="614" 
d="M27 -303v260q91 6 118.5 47t8.5 139l-35 195q-22 121 25 196t180 115q-132 42 -179.5 115.5t-25.5 193.5l35 197q17 95 -9.5 132.5t-117.5 43.5v260q306 0 416 -115.5t53 -375.5l-39 -172q-14 -74 14 -113t117 -45v-248q-89 -7 -117 -46.5t-14 -113.5l39 -174
q55 -253 -55.5 -372t-413.5 -119z" />
    <glyph glyph-name="uni0442.bgr" horiz-adv-x="1914" 
d="M96 0v1071h404v-164q49 85 134.5 140t203.5 55q211 0 286 -174q138 174 353 174q158 0 253 -102.5t95 -292.5v-707h-402v633q0 69 -32.5 106t-87.5 37q-67 0 -104.5 -42.5t-37.5 -119.5v-614h-399v633q0 69 -33 106t-88 37q-67 0 -104 -42.5t-37 -119.5v-614h-404z" />
    <glyph glyph-name="uni0442.locl" horiz-adv-x="1034" 
d="M1010 1071v-280h-293v-791h-400v791h-292v280h985z" />
    <glyph glyph-name="braceleft.tab" horiz-adv-x="614" 
d="M588 -303q-303 0 -413.5 119t-55.5 372l39 174q14 74 -14 113.5t-117 46.5v248q89 6 117 45t14 113l-39 172q-57 260 53 375.5t416 115.5v-260q-91 -6 -117.5 -43.5t-9.5 -132.5l35 -197q22 -120 -25.5 -193.5t-179.5 -115.5q133 -40 180 -115t25 -196l-35 -195
q-19 -98 8.5 -139t118.5 -47v-260z" />
    <glyph glyph-name="bracketright.tab" horiz-adv-x="614" 
d="M27 -303v260h145v1372h-145v260h503v-1892h-503z" />
    <glyph glyph-name="bracketleft.tab" horiz-adv-x="614" 
d="M84 -303v1892h504v-260h-146v-1372h146v-260h-504z" />
    <glyph glyph-name="parenright.tab" horiz-adv-x="614" 
d="M-23 -303q226 437 226 946q0 507 -226 944h277q45 -65 80.5 -124.5t79 -152.5t72 -187t48 -220.5t19.5 -259.5q0 -134 -19.5 -260.5t-48 -220.5t-72 -187.5t-79 -153t-80.5 -124.5h-277z" />
    <glyph glyph-name="uni0446.bgr" horiz-adv-x="1351" 
d="M1331 -260h-342l-12 260h-191v166q-97 -193 -340 -193q-160 0 -259 101.5t-99 294.5v702h404v-633q0 -83 32.5 -123.5t102.5 -40.5q159 0 159 187v610h404v-790h141v-541z" />
    <glyph glyph-name="parenleft.tab" horiz-adv-x="614" 
d="M360 -303q-45 65 -80.5 124.5t-79 153t-72 187.5t-48 220.5t-19.5 260.5q0 133 19.5 259.5t48 220.5t72 187t79 152.5t80.5 124.5h277q-225 -435 -225 -944q0 -511 225 -946h-277z" />
    <glyph glyph-name="uni0447.bgr" horiz-adv-x="1232" 
d="M1135 0h-404v438q-43 -43 -81 -66q-100 -59 -238 -59q-159 0 -248.5 100.5t-89.5 295.5v362h403v-297q0 -82 25.5 -121t91.5 -39q16 0 31 2t26.5 5.5t22 7.5t18.5 9t14 10t10.5 9.5t7.5 8t5 6.5l2 2v397h404v-1071z" />
    <glyph glyph-name="semicolon.tab" horiz-adv-x="614" 
d="M307 557q-96 0 -159.5 63t-63.5 156t63.5 157t159.5 64q99 0 165.5 -64t66.5 -157t-66.5 -156t-165.5 -63zM211 -250l-236 88l166 557l371 -129z" />
    <glyph glyph-name="uni0448.bgr" horiz-adv-x="1914" 
d="M1821 1071v-1071h-404v164q-49 -85 -134.5 -140t-203.5 -55q-211 0 -286 174q-138 -174 -353 -174q-158 0 -253 103t-95 293v706h402v-633q0 -69 32.5 -106t87.5 -37q67 0 104.5 42.5t37.5 119.5v614h399v-633q0 -69 33 -106t88 -37q67 0 104 42.5t37 119.5v614h404z" />
    <glyph glyph-name="colon.tab" horiz-adv-x="614" 
d="M303 557q-96 0 -159.5 63t-63.5 156t63.5 157t159.5 64q99 0 165.5 -64t66.5 -157t-66.5 -156t-165.5 -63zM303 -25q-96 0 -159.5 64t-63.5 158q0 92 63.5 155.5t159.5 63.5q99 0 165.5 -63.5t66.5 -155.5q0 -94 -66.5 -158t-165.5 -64z" />
    <glyph glyph-name="uni0449.bgr" horiz-adv-x="1980" 
d="M1960 -260h-340l-12 260h-191v164q-49 -85 -134.5 -140t-203.5 -55q-211 0 -286 174q-138 -174 -353 -174q-158 0 -253 103t-95 293v706h402v-633q0 -69 32.5 -106t87.5 -37q67 0 104.5 42.5t37.5 119.5v614h399v-633q0 -69 33 -106t88 -37q67 0 104 42.5t37 119.5v614
h404v-790h139v-541z" />
    <glyph glyph-name="comma.tab" horiz-adv-x="614" 
d="M244 -250l-236 88l166 557l373 -129z" />
    <glyph glyph-name="uni044A.bgr" horiz-adv-x="1304" 
d="M254 795h-225v276h622v-319q79 6 133 4q237 -1 357.5 -97t120.5 -268v-12q0 -180 -136 -292.5t-376 -111.5q-267 1 -381.5 118t-114.5 347v355zM756 221q110 0 110 144v8q0 64 -33 99.5t-98 35.5q-44 0 -84 -4v-137q0 -146 105 -146z" />
    <glyph glyph-name="period.tab" horiz-adv-x="614" 
d="M303 -25q-96 0 -159.5 64t-63.5 158q0 92 63.5 155.5t159.5 63.5q99 0 165.5 -63.5t66.5 -155.5q0 -94 -66.5 -158t-165.5 -64z" />
    <glyph glyph-name="greaterequal.tab" 
d="M180 301v361l307 149l-307 147v357l879 -469v-76zM180 0v258h879v-258h-879z" />
    <glyph glyph-name="uni044C.bgr" horiz-adv-x="1142" 
d="M588 -25q-267 1 -381.5 118t-114.5 347v631h397v-319q79 6 134 4q237 -1 357 -97t120 -268v-12q0 -180 -136 -292.5t-376 -111.5zM594 221q56 0 83.5 38t27.5 106v8q0 64 -33.5 99.5t-98.5 35.5q-44 0 -84 -4v-137q0 -146 105 -146z" />
    <glyph glyph-name="lessequal.tab" 
d="M1049 301l-879 469v76l879 469v-357l-308 -147l308 -149v-361zM170 0v258h879v-258h-879z" />
    <glyph glyph-name="greater.tab" 
d="M152 111v362l393 186l-393 203v352l925 -516v-73z" />
    <glyph glyph-name="uni044E.bgr" horiz-adv-x="1765" 
d="M1141 -25q-216 0 -365 109t-188 307q-4 8 -4 12h-86v-403h-400v1534h400v-854h90q42 196 192.5 309t362.5 113q124 0 230 -38t183.5 -108t121.5 -174.5t44 -230.5v-16q0 -129 -44.5 -235.5t-123 -177t-184.5 -109t-229 -38.5zM1143 272q83 0 126.5 66t43.5 192v17
q0 258 -170 258q-82 0 -126 -64.5t-44 -189.5v-16q0 -263 170 -263z" />
    <glyph glyph-name="less.tab" 
d="M1079 109l-925 514v75l925 514v-364l-395 -184l395 -203v-352z" />
    <glyph glyph-name="approxequal.tab" 
d="M88 698q11 195 94 290t205 95q91 0 242.5 -38.5t193.5 -38.5q79 0 92 86h226q-6 -184 -90.5 -283.5t-204.5 -99.5q-94 0 -246 39.5t-192 39.5q-39 0 -63 -24t-32 -66h-225zM88 231q11 195 94 290t205 95q91 0 242.5 -39.5t193.5 -39.5q38 0 62 23.5t30 66.5h226
q-6 -186 -90.5 -286.5t-204.5 -100.5q-94 0 -246 41t-192 41q-78 0 -95 -91h-225z" />
    <glyph glyph-name="notequal.tab" 
d="M111 739v269h510l75 196h252l-76 -196h246v-269h-350l-55 -139h405v-268h-508l-75 -197h-250l75 197h-249v268h352l53 139h-405z" />
    <glyph glyph-name="equal.tab" 
d="M125 739v269h979v-269h-979zM125 332v268h979v-268h-979z" />
    <glyph glyph-name="divide.tab" 
d="M614 922q-85 0 -144.5 57.5t-59.5 140.5q0 84 59.5 142.5t144.5 58.5t145 -58.5t60 -142.5q0 -83 -60 -140.5t-145 -57.5zM96 559v275h1039v-275h-1039zM614 70q-85 0 -144.5 58t-59.5 142q0 83 59.5 141t144.5 58t145 -58t60 -141q0 -84 -60 -142t-145 -58z" />
    <glyph glyph-name="multiply.tab" 
d="M303 170l-209 209l312 311l-318 316l211 213l315 -320l312 311l211 -209l-312 -311l318 -315l-213 -213l-316 319z" />
    <glyph glyph-name="plusminus.tab" 
d="M455 373v329h-357v291h357v332h319v-332h356v-291h-356v-329h-319zM98 0v258h1039v-258h-1039z" />
    <glyph glyph-name="minus.tab" 
d="M111 543v305h1007v-305h-1007z" />
    <glyph glyph-name="plus.tab" 
d="M455 178v373h-340v291h340v370h319v-370h340v-291h-340v-373h-319z" />
    <glyph glyph-name="perthousand.tab" horiz-adv-x="2048" 
d="M358 791q-150 0 -235.5 94.5t-85.5 253.5q0 153 91.5 247.5t231.5 94.5t232 -90.5t92 -243.5q0 -161 -88 -258.5t-238 -97.5zM80 0l1005 1464h203l-1007 -1464h-201zM360 987q39 0 55.5 34t16.5 118t-16.5 117.5t-55.5 33.5q-38 0 -55.5 -33.5t-17.5 -115.5
q0 -85 17.5 -119.5t55.5 -34.5zM1688 -27q-152 0 -238 96t-86 255q0 153 92 247.5t234 94.5q140 0 230.5 -90.5t90.5 -245.5q0 -161 -87.5 -259t-235.5 -98zM993 -27q-150 0 -235.5 96t-85.5 255q0 153 91.5 247.5t231.5 94.5q142 0 233 -90.5t91 -245.5q0 -161 -88 -259
t-238 -98zM1690 172q39 0 55 34t16 118t-16 116.5t-55 32.5q-38 0 -56 -33t-18 -114q0 -85 18 -119.5t56 -34.5zM995 172q39 0 56.5 34.5t17.5 117.5t-17.5 116t-56.5 33q-38 0 -55.5 -33t-17.5 -114q0 -85 17.5 -119.5t55.5 -34.5z" />
    <glyph glyph-name="percent.tab" horiz-adv-x="1638" 
d="M434 784q-172 0 -271.5 99.5t-99.5 253.5q0 148 106 246t267 98t266 -95t105 -243q0 -156 -101 -257.5t-272 -101.5zM217 0l1006 1464h209l-1008 -1464h-207zM436 999q46 0 71 37t25 101t-24.5 100.5t-71.5 36.5q-45 0 -70.5 -36.5t-25.5 -98.5q0 -66 25 -103t71 -37z
M1202 -27q-172 0 -271.5 99.5t-99.5 253.5q0 148 106 247t267 99t266 -95t105 -243q0 -156 -101.5 -258.5t-271.5 -102.5zM1204 188q45 0 69.5 37t24.5 101t-24.5 100.5t-69.5 36.5q-46 0 -72 -36t-26 -99q0 -66 26 -103t72 -37z" />
    <glyph glyph-name="florin.tab" 
d="M168 580v270h207l35 244q54 391 471 391q90 0 166 -23v-299q-47 15 -101 15q-121 0 -139 -119l-31 -209h248v-270h-285l-133 -953h-401l133 953h-170z" />
    <glyph glyph-name="yen.tab" 
d="M98 608v150h277l-344 706h458l154 -395l154 395h401l-342 -706h295v-150h-309v-96h309v-152h-309v-360h-449v360h-295v152h295v96h-295z" />
    <glyph glyph-name="sterling.tab" 
d="M55 594v235h86q-20 88 -20 179q0 155 71 264.5t187.5 161t267.5 51.5q263 0 387.5 -125.5t130.5 -378.5h-368q-9 89 -39.5 123.5t-91.5 34.5q-134 0 -134 -158q0 -59 11 -152h313v-235h-281q7 -61 7 -105q0 -45 -19 -112q7 -2 37.5 -11t41 -12t30.5 -6.5t35 -3.5
q106 0 114 107h373q-6 -220 -110.5 -344.5t-290.5 -124.5q-64 0 -124.5 16t-98 35t-78 35t-68.5 16q-77 0 -84 -84h-315q8 126 52 223t126 146q16 53 16 120q0 53 -12 105h-152z" />
    <glyph glyph-name="uni045D.bgr" horiz-adv-x="1286" 
d="M446 -27q-160 0 -259 101.5t-99 294.5v702h404v-633q0 -83 32.5 -123.5t102.5 -40.5q77 0 118 46.5t41 140.5v610h404v-1071h-404v166q-99 -193 -340 -193zM504 1184l-213 346h395l107 -346h-289z" />
    <glyph glyph-name="space.tab" horiz-adv-x="614" 
 />
    <glyph glyph-name="nine.old" horiz-adv-x="1347" 
d="M651 608q81 0 130.5 53.5t49.5 133.5q0 82 -48.5 135t-131.5 53q-80 0 -128 -53.5t-48 -134.5q0 -82 47.5 -134.5t128.5 -52.5zM633 -217q-253 0 -400 119t-167 336h407q10 -55 50 -92t110 -37q115 0 164 88t55 311q-112 -172 -328 -172q-78 0 -147.5 17.5t-129.5 53.5
t-103.5 88.5t-68 125.5t-24.5 161q0 234 160.5 373t439.5 139q635 0 635 -721v-63q0 -339 -169.5 -533t-483.5 -194z" />
    <glyph glyph-name="eight.old" horiz-adv-x="1323" 
d="M662 -27q-287 0 -450 115t-163 324q0 121 73 214.5t204 139.5q-215 98 -215 303q0 98 43.5 178t119.5 132t176.5 80t215.5 28q159 0 283 -47.5t197 -142.5t73 -226q0 -207 -215 -303q128 -44 199 -134t71 -210q0 -211 -163 -331t-449 -120zM666 885q67 0 112 41.5
t45 109.5t-45 110t-112 42q-66 0 -112 -42.5t-46 -109.5t46 -109t112 -42zM664 285q82 0 131 46.5t49 123.5t-49 124.5t-131 47.5q-81 0 -132 -46t-51 -124q0 -79 50.5 -125.5t132.5 -46.5z" />
    <glyph glyph-name="seven.old" horiz-adv-x="1187" 
d="M190 -188l418 1099h-567v357h1133v-47l-523 -1409h-461z" />
    <glyph glyph-name="six.old" horiz-adv-x="1347" 
d="M696 -25q-168 0 -292 51t-198.5 146t-110.5 221.5t-36 286.5v72q0 171 49 310.5t136.5 232t208 142.5t262.5 50q249 0 390 -113t163 -330h-408q-10 56 -42.5 86.5t-100.5 30.5q-106 0 -160.5 -98.5t-60.5 -300.5q108 172 327 172q98 0 182.5 -28.5t150 -83.5t103 -144
t37.5 -201q0 -228 -160.5 -365t-439.5 -137zM696 287q80 0 128 53.5t48 134.5q0 82 -47.5 134.5t-128.5 52.5q-82 0 -131 -54t-49 -135q0 -80 48.5 -133t131.5 -53z" />
    <glyph glyph-name="five.old" horiz-adv-x="1269" 
d="M623 -213q-279 0 -428 133.5t-154 347.5h401q8 -74 48 -116.5t128 -42.5q80 0 126.5 56t46.5 136q0 86 -53.5 136t-143.5 50q-143 0 -223 -102h-273l35 883h997v-332h-681l-13 -318q115 160 350 160q197 0 315 -124t118 -349q0 -239 -157 -378.5t-439 -139.5z" />
    <glyph glyph-name="uni20B4.old" horiz-adv-x="1341" 
d="M666 -27q-271 0 -419.5 112.5t-148.5 301.5q0 80 23 139h-78v146h188q63 49 172 94h-360v145h731q43 38 43 109q0 54 -32 78t-97 24q-128 0 -143 -135h-414q40 453 559 453q254 0 400.5 -106t146.5 -285q0 -73 -18 -138h77v-145h-170q-49 -49 -137 -94h307v-146h-696
q-78 -46 -78 -123q0 -53 38 -82.5t110 -29.5q95 0 133 43t45 121h418q-22 -482 -600 -482z" />
    <glyph glyph-name="uni20B4.oldtab" 
d="M614 -27q-257 0 -394.5 115.5t-137.5 317.5q0 64 18 120h-69v146h174q56 45 160 94h-334v145h678q41 38 41 109q0 102 -125 102q-121 0 -136 -135h-376q17 224 148 338.5t370 114.5q236 0 372 -108t136 -294q0 -61 -17 -127h72v-145h-158q-46 -48 -129 -94h287v-146h-647
q-72 -46 -72 -123q0 -112 137 -112q87 0 124 43.5t44 120.5h387q-12 -482 -553 -482z" />
    <glyph glyph-name="uni20B4.tab" 
d="M616 -27q-257 0 -394.5 118.5t-137.5 326.5q0 66 16 125h-65v149h168q63 54 159 99h-327v149h672q41 38 41 111q0 56 -29 82t-88 26q-117 0 -133 -141h-383q40 467 518 467q237 0 371.5 -110.5t134.5 -303.5q0 -73 -17 -131h72v-149h-156q-44 -49 -129 -99h285v-149h-645
q-70 -46 -70 -127q0 -55 33.5 -85t99.5 -30q87 0 121 43.5t41 124.5h391q-8 -244 -146 -370t-403 -126z" />
    <glyph glyph-name="four.old" horiz-adv-x="1390" 
d="M737 -188v266h-714v143l606 1047h536v-908h187v-282h-187v-266h-428zM432 360h316v582z" />
    <glyph glyph-name="uni20B8.old" horiz-adv-x="1210" 
d="M1171 1276h-1130v145h1130v-145zM379 0v823h-338v346h1130v-346h-337v-823h-455z" />
    <glyph glyph-name="uni20B8.oldtab" 
d="M1147 1276h-1075v145h1075v-145zM385 0v823h-313v346h1075v-346h-309v-823h-453z" />
    <glyph glyph-name="uni20B8.tab" 
d="M1149 1315h-1069v149h1069v-149zM381 0v850h-301v356h1069v-356h-301v-850h-467z" />
    <glyph glyph-name="three.old" horiz-adv-x="1280" 
d="M651 -213q-301 0 -450.5 132.5t-161.5 375.5h393q16 -191 195 -191q84 0 128 43t44 117q0 156 -189 156h-121v266h113q97 0 143 41.5t46 112.5q0 67 -38 104t-106 37q-76 0 -124 -46.5t-60 -131.5h-389q7 107 46.5 195.5t110.5 155t181 103.5t250 37q250 0 392 -108
t142 -293q0 -236 -244 -320q277 -71 277 -337q0 -98 -36.5 -179.5t-107 -142t-181.5 -94t-253 -33.5z" />
    <glyph glyph-name="uni20BD.old" horiz-adv-x="1413" 
d="M670 766h92q180 0 180 158v8q0 80 -44 115.5t-134 35.5h-94v-317zM1077 221h-407v-221h-449v221h-180v146h180v96h-180v145h180v813h565q582 0 582 -487v-8q0 -224 -143.5 -343.5t-417.5 -119.5h-137v-96h407v-146z" />
    <glyph glyph-name="uni20BD.oldtab" 
d="M582 766h84q78 0 119.5 40t41.5 118v8q0 80 -40 115.5t-119 35.5h-86v-317zM946 221h-364v-221h-400v221h-162v146h162v96h-162v145h162v813h504q520 0 520 -487v-8q0 -224 -128 -343.5t-373 -119.5h-123v-96h364v-146z" />
    <glyph glyph-name="uni20BD.tab" 
d="M956 229h-372v-229h-408v229h-156v150h156v96h-156v152h156v837h502q526 0 526 -501v-9q0 -230 -128.5 -354.5t-370.5 -124.5h-121v-96h372v-150zM584 788h73q158 0 158 164v9q0 82 -39 119.5t-117 37.5h-75v-330z" />
    <glyph glyph-name="two.old" horiz-adv-x="1216" 
d="M18 0v59l455 439q129 123 186.5 200t57.5 150q0 56 -32 88.5t-95 32.5q-67 0 -109.5 -50t-52.5 -145h-387q9 245 162 382.5t415 137.5q250 0 389.5 -112t139.5 -297q0 -121 -66.5 -224t-201.5 -227l-136 -125h416v-309h-1141z" />
    <glyph glyph-name="one.old" horiz-adv-x="909" 
d="M326 0v844l-260 -156v359l321 221h369v-1268h-430z" />
    <glyph glyph-name="zero.old" horiz-adv-x="1392" 
d="M690 -27q-289 0 -464 168t-175 469v43q0 150 49.5 272t136.5 202t204.5 123.5t254.5 43.5q184 0 327.5 -70t229.5 -214.5t86 -345.5v-41q0 -202 -83 -350.5t-229 -224t-337 -75.5zM698 301q207 0 207 315v39q0 158 -50.5 236t-158.5 78q-107 0 -158 -77t-51 -233v-43
q0 -159 51 -237t160 -78z" />
    <glyph glyph-name="yen.old" horiz-adv-x="1308" 
d="M119 590v145h266l-369 686h486l180 -430l182 430h430l-354 -686h270v-145h-319v-94h319v-146h-319v-350h-453v350h-319v146h319v94h-319z" />
    <glyph glyph-name="sterling.old" horiz-adv-x="1345" 
d="M63 567v246h95q-21 86 -21 164q0 146 75.5 252.5t202.5 158.5t290 52q142 0 249 -35.5t174.5 -102t102 -156t39.5 -204.5h-410q-10 86 -44 124t-97 38t-100 -41t-37 -113q0 -59 10 -137h338v-246h-303q4 -62 4 -92q0 -51 -17 -110q13 -4 41.5 -12t43 -12t35 -7.5
t36.5 -3.5q109 0 115 108h407q-8 -204 -120.5 -330t-311.5 -126q-69 0 -137.5 15.5t-111.5 34.5t-89 34.5t-76 15.5q-40 0 -62.5 -22.5t-27.5 -59.5h-329q9 125 61 222.5t143 142.5q17 53 17 110q0 45 -12 92h-173z" />
    <glyph glyph-name="dollar.old" horiz-adv-x="1308" 
d="M453 1026q0 -46 26.5 -72t91.5 -41v226q-118 -21 -118 -113zM854 403q0 44 -25.5 68t-91.5 41v-233q117 26 117 124zM571 -268v248q-251 18 -386 142.5t-144 328.5h397q10 -137 133 -168v258q-270 37 -386.5 141t-116.5 311q0 186 135 307t368 138v178h166v-180
q227 -19 352.5 -125.5t143.5 -311.5h-389q-13 108 -107 134v-242q122 -17 210 -45.5t159 -78t107 -127t36 -183.5q0 -95 -30.5 -176t-91 -146t-160 -105.5t-230.5 -49.5v-248h-166z" />
    <glyph glyph-name="space_uni0326" horiz-adv-x="819" 
d="M410 -477l-226 55l80 359l352 -25z" />
    <glyph glyph-name="idotaccent" horiz-adv-x="620" 
d="M309 1151q-94 0 -156.5 57.5t-62.5 145.5q0 89 62.5 147t156.5 58q93 0 155 -58t62 -147q0 -87 -62 -145t-155 -58zM109 0v1071h401v-1071h-401z" />
    </font>
</defs>
</svg>
