<svg width="45" height="19" viewBox="0 0 45 19" fill="none" xmlns="http://www.w3.org/2000/svg">
<path d="M4.984 14H7.564C10.576 14 12.028 12.224 12.028 9.728V9.62C12.028 7.124 10.576 5.42 7.588 5.42H4.984V14ZM6.58 12.74V6.68H7.504C9.52 6.68 10.36 7.796 10.36 9.644V9.74C10.36 11.636 9.436 12.74 7.516 12.74H6.58ZM18.0624 14.12C20.6664 14.12 22.3824 12.236 22.3824 9.728V9.632C22.3824 7.112 20.6184 5.3 18.0624 5.3C15.5184 5.3 13.7184 7.16 13.7184 9.668V9.764C13.7184 12.236 15.4344 14.12 18.0624 14.12ZM18.0864 12.836C16.5264 12.836 15.3864 11.624 15.3864 9.752V9.656C15.3864 7.808 16.3824 6.572 18.0624 6.572C19.7424 6.572 20.7264 7.88 20.7264 9.644V9.74C20.7264 11.6 19.7064 12.836 18.0864 12.836ZM28.2798 14.12C30.3198 14.12 31.7838 13.076 32.0358 11.012H30.4758C30.3078 12.224 29.4678 12.824 28.2798 12.824C26.6958 12.824 25.7718 11.684 25.7718 9.752V9.656C25.7718 7.736 26.7558 6.56 28.2678 6.56C29.5038 6.56 30.1398 7.148 30.3198 8.288H31.9398C31.7478 6.272 30.2238 5.288 28.2558 5.288C25.8678 5.288 24.0918 7.088 24.0918 9.668V9.764C24.0918 12.404 25.5918 14.12 28.2798 14.12ZM33.0445 14H34.6765L36.6925 10.652L38.7085 14H40.5325L37.7845 9.56L40.3165 5.42H38.6725L36.8605 8.468L35.0365 5.42H33.2365L35.8045 9.596L33.0445 14Z" fill="#B11632"/>
<rect x="0.5" y="0.5" width="44" height="18" rx="3.5" stroke="#B11632"/>
</svg>
