<svg width="142" height="59" viewBox="0 0 142 59" xmlns="http://www.w3.org/2000/svg">
<path d="M44.5645 39.9809C44.5645 39.776 44.3607 38.4439 44.2588 36.907C44.1569 35.2676 44.1569 34.7553 44.1569 34.4479C44.1569 34.243 43.5456 34.038 43.3419 34.1405C42.8325 34.2429 41.9155 34.3454 40.4892 34.4479C39.5723 34.5503 37.7384 34.5503 36.8215 34.5503C35.7008 34.5503 32.8481 34.4479 32.1349 34.4479C31.5236 34.4479 30.6067 34.2429 30.1992 34.1405C29.8935 34.038 29.3841 34.243 29.3841 34.4479C29.3841 34.7553 29.3841 35.2676 29.2822 36.907C29.1803 38.4439 29.0784 39.776 28.9766 40.0834C28.9766 40.2883 29.9954 40.2883 30.0973 40.0834C30.1991 39.2636 30.301 37.9316 30.8105 37.1119C31.4217 35.9848 32.5424 35.575 34.5801 35.575C34.6819 37.7267 34.7838 39.0587 34.7838 40.8006C34.7838 42.5424 34.7838 40.903 34.7838 43.3622C34.7838 46.2311 34.7838 46.641 34.5801 49.2026H32.4406C32.2368 49.2026 32.2368 50.2272 32.4406 50.2272C32.6443 50.2272 34.8857 50.0223 36.8215 50.0223C38.7572 50.0223 40.8967 50.2272 41.2024 50.2272C41.4061 50.2272 41.4061 49.2026 41.2024 49.2026H39.0629C38.961 46.5385 38.8591 45.6163 38.8591 43.3622C38.8591 41.108 38.8591 42.9523 38.8591 40.8006C38.8591 38.6488 38.961 37.9316 39.0629 35.575C40.9986 35.575 42.3231 35.9848 42.8325 37.1119C43.24 38.0341 43.3419 39.1612 43.4438 39.9809C43.4438 40.2883 44.5645 40.1858 44.5645 39.9809Z" />
<path d="M60.3529 45.9238C59.6398 47.9731 57.5002 50.5347 53.9344 50.5347C49.4516 50.5347 46.1914 47.6657 46.1914 42.4401C46.1914 37.3169 49.961 34.3455 53.5269 34.3455C57.704 34.3455 60.1492 36.8046 60.3529 41.4155C60.3529 41.4155 53.425 41.4155 50.6742 41.4155C50.4704 46.5386 51.9987 49.4076 54.8513 49.4076C57.1946 49.4076 58.9266 47.5633 59.6398 45.514C59.6398 45.2066 60.4548 45.6164 60.3529 45.9238ZM55.2589 40.2884C55.6664 40.2884 55.972 40.1859 56.0739 39.981C56.2777 39.6736 56.1758 39.4687 56.1758 38.7514C56.0739 37.9317 55.6664 36.9071 55.3608 36.2923C54.9532 35.5751 54.3419 35.1652 53.5269 35.1652C52.508 35.1652 51.7949 36.0874 51.3873 37.0096C50.9798 37.9317 50.7761 39.1613 50.6742 40.1859C51.4892 40.2884 54.3419 40.2884 55.2589 40.2884Z" />
<path d="M106.5 34.2429C103.851 34.2429 102.425 35.7799 101.915 38.1365C102.017 34.1404 102.017 34.5503 102.017 34.1404C102.017 33.9355 101.304 33.7306 101.1 33.833C100.591 34.1404 100.285 34.3454 99.3681 34.4478C97.8398 34.6528 95.9041 34.4478 95.4966 34.4478C95.2928 34.4478 95.2928 35.4725 95.4966 35.4725C96.1079 35.4725 96.821 35.4725 97.6361 35.4725C97.738 37.4193 97.8398 38.7513 97.8398 40.903C97.8398 44.2843 97.8398 48.4853 97.8398 51.8665C97.8398 54.6331 97.738 55.5552 97.6361 57.7069C97.0248 57.7069 96.006 57.7069 95.4966 57.7069C95.2928 57.7069 95.2928 58.7316 95.4966 58.7316C95.7003 58.7316 98.1455 58.5266 100.081 58.5266C102.017 58.5266 104.36 58.7316 104.564 58.7316C104.768 58.7316 104.768 57.7069 104.564 57.7069C104.157 57.7069 103.036 57.7069 102.323 57.7069C102.221 54.838 102.119 54.6331 102.119 51.8665C102.119 50.3296 102.119 47.4606 102.119 47.4606C103.138 49.6123 104.768 50.5345 106.5 50.5345C109.76 50.5345 113.122 47.3582 113.122 41.9276C112.918 37.2143 110.473 34.2429 106.5 34.2429ZM105.277 49.1C103.647 49.1 101.915 47.1532 101.915 43.567V42.0301C101.915 38.4439 103.341 35.37 105.379 35.37C107.417 35.37 108.436 37.4193 108.436 42.235C108.537 47.0508 107.111 49.1 105.277 49.1Z" />
<path d="M78.2832 48.6904C77.6719 48.6904 76.8569 48.6904 76.1437 48.6904C75.9399 46.6411 76.0418 44.7967 76.0418 43.4647C76.0418 42.2352 76.1437 42.5426 76.0418 41.2106C76.0418 39.2638 75.9399 37.7268 75.023 36.4973C73.9023 35.0628 72.0684 34.3455 69.4195 34.3455C65.9555 34.3455 63.816 36.3948 63.816 38.2391C63.816 39.6736 64.733 40.4933 65.9555 40.4933C67.0762 40.4933 67.9932 39.6736 67.9932 38.444C67.9932 37.4194 67.28 36.5997 66.0574 36.4973C66.6687 35.78 67.7894 35.3702 68.9101 35.3702C70.744 35.3702 72.0684 36.1899 72.0684 39.0588C72.0684 41.0056 71.9665 41.4155 71.9665 41.4155C66.3631 41.4155 62.6953 43.6697 62.6953 47.0509C62.6953 49.2027 64.2235 50.5347 66.3631 50.5347C68.9101 50.5347 70.744 48.9977 71.8647 47.0509C71.8647 47.0509 71.8647 47.0509 71.8647 47.1534C71.8647 48.6904 71.7628 49.9199 71.7628 50.1248C71.7628 50.3298 72.3741 50.5347 72.476 50.4322C72.9854 50.1248 73.5967 49.9199 74.7174 49.8175C76.3475 49.6125 77.7738 49.8175 78.2832 49.8175C78.487 49.8175 78.487 48.6904 78.2832 48.6904ZM71.8647 44.5918C71.8647 45.514 71.2534 46.7436 70.6421 47.3583C70.0308 48.0756 69.4195 48.383 68.8082 48.383C67.8913 48.383 67.0762 47.7682 67.0762 46.2312C67.0762 45.1042 67.4837 44.182 68.1969 43.4647C69.012 42.7475 70.6421 42.2352 71.9665 42.2352C71.9665 42.2352 71.9665 43.7721 71.8647 44.5918Z" />
<path d="M15.9321 7.29524C15.7283 6.37307 15.4227 4.42628 14.7095 3.29918C13.8945 1.8647 12.4681 1.35236 9.8192 1.35236H7.98535C7.98535 1.35236 7.78157 4.93857 7.78157 8.52478C7.78157 9.75433 7.78157 10.1642 7.78157 10.6765C8.49474 10.3691 10.023 10.1642 11.3474 10.1642C17.1547 10.1642 18.9885 13.2381 18.9885 16.6194C18.9885 23.0746 12.6719 24.3041 10.023 24.3041C8.08723 24.3041 6.66087 24.0992 5.13265 24.0992C2.58561 24.0992 0.649873 24.3041 0.344229 24.3041C0.140465 24.3041 0.140465 23.177 0.344229 23.177C0.853637 23.177 2.48374 23.177 2.89127 23.177C2.99315 21.0253 3.09501 19.3859 3.09501 15.4923C3.09501 12.3159 3.09501 11.9061 3.09501 8.52478C3.09501 5.65581 3.09503 4.73364 2.89127 1.35236C2.89127 1.35236 0.751755 1.35236 0.344229 1.35236C0.140465 1.35236 0.140465 0.225291 0.344229 0.225291C0.547992 0.225291 2.58562 0.532668 5.33642 0.532668C8.08722 0.532668 12.0606 0.532662 13.4869 0.430199C14.8114 0.327736 15.3208 0.225279 15.9321 0.0203525C16.1359 -0.0821105 16.849 0.225272 16.849 0.430199C16.849 0.635125 16.849 1.76221 16.9509 3.91394C17.0528 5.34842 17.1547 6.68045 17.1547 7.19277C17.0528 7.50016 16.034 7.50016 15.9321 7.29524ZM8.90228 23.177C12.1625 23.177 14.0982 21.3327 14.0982 16.9268C14.0982 13.0332 12.6719 11.3938 10.3286 11.3938C9.3098 11.3938 8.39286 11.5987 7.78157 11.8036C7.78157 12.8282 7.78157 12.5208 7.78157 15.7997C7.78157 18.976 7.78159 19.2834 7.98535 23.177C8.39287 23.177 8.90228 23.177 8.90228 23.177Z" />
<path d="M29.6844 8.31982C33.5559 8.31982 37.5293 10.9839 37.5293 16.4144C37.5293 21.8449 33.454 24.509 29.6844 24.509C25.9148 24.509 21.9414 21.9474 21.9414 16.4144C21.9414 10.8814 25.8129 8.31982 29.6844 8.31982ZM26.4242 16.7218C26.4242 21.5375 27.7487 23.5868 29.6844 23.5868C31.5183 23.5868 33.0465 21.8449 33.0465 16.7218C33.0465 11.5986 31.8239 9.34446 29.6844 9.34446C27.443 9.34446 26.4242 11.5986 26.4242 16.7218Z" />
<path d="M113.636 8.31982C117.507 8.31982 121.48 10.9839 121.48 16.4144C121.48 21.8449 117.405 24.509 113.636 24.509C109.866 24.509 105.893 21.9474 105.893 16.4144C105.791 10.8814 109.764 8.31982 113.636 8.31982ZM110.273 16.7218C110.273 21.5375 111.598 23.5868 113.534 23.5868C115.368 23.5868 116.896 21.8449 116.896 16.7218C116.896 11.5986 115.673 9.34446 113.534 9.34446C111.292 9.34446 110.273 11.5986 110.273 16.7218Z" />
<path d="M104.056 23.2794C103.75 23.2794 103.241 23.2794 101.916 23.2794C101.814 21.0252 101.712 20.5129 101.712 17.8489C101.712 16.3119 101.712 16.5169 101.712 14.8774C101.712 12.4183 101.814 11.2912 101.916 9.54935C102.833 9.54935 103.648 9.54935 104.056 9.54935C104.259 9.54935 104.259 8.52472 104.056 8.52472C103.852 8.52472 101.611 8.72966 99.6748 8.72966C97.7391 8.72966 96.0071 8.52472 95.5996 8.52472C95.3958 8.52472 95.3958 9.54935 95.5996 9.54935C95.5996 9.54935 96.3127 9.54935 97.3315 9.54935C97.4334 11.3937 97.5353 12.0085 97.5353 14.8774C97.5353 16.2095 97.5353 16.107 97.5353 17.8489C97.5353 20.6154 97.4334 21.0252 97.4334 23.2794C96.1089 23.2794 93.9694 23.2794 92.4412 23.2794C92.3393 20.8203 92.2374 20.5129 92.2374 17.9513C92.2374 16.0045 92.2374 16.8242 92.2374 14.9799C92.2374 12.0085 92.3393 11.8035 92.4412 9.65182C93.1544 9.65182 93.7657 9.65182 94.1732 9.65182C94.3769 9.65182 94.3769 8.62719 94.1732 8.62719C93.9694 8.62719 92.0337 8.83213 90.1998 8.83213C88.2641 8.83213 86.4302 8.62719 86.1245 8.62719C85.9208 8.62719 85.9208 9.65182 86.1245 9.65182C86.1245 9.65182 86.8377 9.65182 87.8565 9.65182C87.9584 11.906 88.0603 12.4183 88.0603 14.9799C88.0603 16.6193 88.0603 16.4144 88.0603 17.9513C88.0603 20.308 88.0603 20.6154 87.8565 23.3819C86.4302 23.3819 84.2907 23.3819 82.9662 23.3819C82.8643 21.1277 82.7625 20.8203 82.7625 18.0538C82.7625 16.7218 82.7625 16.4144 82.7625 14.9799C82.7625 12.2134 82.8643 11.7011 82.9662 9.65182C83.7813 9.65182 84.2907 9.65182 84.6982 9.65182C84.902 9.65182 84.902 8.62719 84.6982 8.62719C84.4944 8.62719 82.5587 8.83213 80.7248 8.83213C78.7891 8.83213 76.7514 8.62719 76.4458 8.62719C76.242 8.62719 76.242 9.65182 76.4458 9.65182C76.4458 9.65182 77.6684 9.65182 78.3815 9.65182C78.5853 11.8035 78.5853 12.6233 78.5853 14.9799C78.5853 16.0045 78.5853 16.6193 78.5853 17.9513C78.5853 21.2302 78.4834 21.3326 78.3815 23.3819C77.4646 23.3819 76.8533 23.3819 76.4458 23.3819C76.242 23.3819 76.242 24.4065 76.4458 24.4065C76.6496 24.4065 89.181 24.2016 90.3017 24.2016C91.5243 24.2016 103.954 24.4065 104.259 24.4065C104.259 24.304 104.259 23.2794 104.056 23.2794Z" />
<path d="M74.314 18.976C74.314 16.107 72.0726 14.3651 68.9143 14.3651C67.386 14.3651 66.3672 14.5701 65.4503 14.8774C65.4503 13.238 65.4503 12.1109 65.654 9.54935C66.3672 9.54935 67.386 9.54935 67.7936 9.54935C67.9973 9.54935 67.9973 8.52472 67.7936 8.52472C67.5898 8.52472 65.2465 8.72966 63.4127 8.72966C61.4769 8.72966 59.3374 8.52472 59.0317 8.52472C58.828 8.52472 58.828 9.54935 59.0317 9.54935C59.0317 9.54935 60.6618 9.54935 61.1712 9.54935C61.375 11.4961 61.375 11.906 61.375 14.8774C61.375 16.3119 61.375 16.107 61.375 17.8489C61.375 20.4104 61.375 21.1277 61.1712 23.177C60.4581 23.177 59.5411 23.177 59.0317 23.177C58.828 23.177 58.828 24.2016 59.0317 24.2016C59.2355 24.2016 61.4769 24.0991 63.4127 24.0991C64.6352 24.0991 65.8578 24.2016 67.6917 24.2016C70.5444 24.3041 74.314 23.177 74.314 18.976ZM66.1634 23.2794C66.1634 23.2794 65.7559 23.2794 65.5522 23.177C65.4503 20.8203 65.3484 20.1031 65.3484 17.8489C65.3484 16.8242 65.3484 16.3119 65.3484 15.6971C65.8578 15.4922 66.4691 15.3898 67.1823 15.3898C68.8124 15.3898 69.9331 16.4144 69.9331 19.0784C69.9331 22.4597 68.4048 23.2794 66.1634 23.2794Z" />
<path d="M137.576 3.50403C137.576 2.27447 136.862 1.45476 135.742 1.45476C134.723 1.45476 133.908 2.06956 133.908 3.19665C133.908 4.22128 134.723 4.9385 135.742 4.9385C135.13 5.45082 134.01 5.8607 132.38 5.8607C130.851 5.8607 129.629 5.24592 129.119 4.83607C130.036 4.83607 130.851 4.22127 130.851 3.09418C130.851 1.96709 130.138 1.35229 129.119 1.35229C127.999 1.35229 127.184 2.27446 127.184 3.40156C127.184 5.34836 129.527 6.57792 132.38 6.57792C135.232 6.68038 137.576 5.45082 137.576 3.50403Z" />
<path d="M56.7847 9.54935C56.9884 9.54935 56.9884 8.52472 56.7847 8.52472C56.5809 8.52472 52.3018 8.72966 48.8379 8.72966C46.9021 8.72966 43.4381 8.52472 43.3363 8.52472C43.1325 8.52472 43.1325 9.54935 43.3363 9.54935C43.7438 9.54935 44.8645 9.54935 45.4758 9.54935C45.4758 12.2134 45.3739 15.0824 45.0683 17.5415C44.5589 22.0499 43.1325 23.3819 41.6043 23.3819C41.4005 23.3819 41.2986 23.2794 41.2986 23.2794C42.0118 22.972 42.6231 22.2548 42.6231 21.2302C42.6231 19.7957 41.7062 19.1809 40.4836 19.1809C39.261 19.1809 38.2422 20.2055 38.2422 21.7425C38.2422 23.2794 39.261 24.4065 41.0949 24.4065C44.0495 24.4065 45.5777 21.64 45.9852 17.7464C46.2908 15.2873 46.3927 12.7257 46.4946 9.34444C48.0228 9.34444 49.4492 9.34444 50.1623 9.34444C50.2642 11.0863 50.3661 12.3159 50.3661 14.6725C50.3661 16.3119 50.3661 16.6193 50.3661 17.644C50.3661 20.2055 50.2642 20.8203 50.1623 22.972C49.4492 22.972 48.4304 22.972 48.0228 22.972C47.8191 22.972 47.8191 23.9967 48.0228 23.9967C48.2266 23.9967 50.3661 23.7917 52.3019 23.7917C54.2376 23.7917 56.3771 23.9967 56.7847 23.9967C56.8865 23.9967 56.8865 22.972 56.7847 22.972C56.479 22.972 55.6639 22.972 54.6451 22.972C54.5433 20.7178 54.4414 19.7957 54.4414 17.644C54.4414 16.4144 54.4414 16.107 54.4414 14.6725C54.4414 12.1109 54.5433 11.4962 54.6451 9.34444C55.4602 9.54937 56.3771 9.54935 56.7847 9.54935Z" />
<path d="M141.66 23.2794H139.52C139.418 21.2302 139.317 19.8981 139.317 17.9513C139.317 16.0045 139.317 17.1316 139.317 14.9799C139.317 12.8282 139.418 11.7011 139.52 9.65183H141.66C141.864 9.65183 141.864 8.6272 141.66 8.6272C141.456 8.6272 139.113 8.83214 137.279 8.83214C135.445 8.83214 133.713 8.6272 133.306 8.6272C133.102 8.6272 133.102 9.65183 133.306 9.65183C133.306 9.65183 133.713 9.65183 135.038 9.65183C135.038 9.75429 135.038 9.95921 135.038 10.0617C134.324 11.7011 132.694 14.8774 131.981 16.2095C131.472 17.2341 130.453 19.0784 129.536 20.8203C129.536 19.7957 129.536 19.5908 129.536 18.0538C129.536 16.107 129.536 17.0292 129.536 15.0824C129.536 12.4184 129.536 11.5986 129.74 9.7543H131.472C131.675 9.7543 131.675 8.72967 131.472 8.72967C131.268 8.72967 129.434 8.93461 127.6 8.93461C125.664 8.93461 123.525 8.72967 123.219 8.72967C123.015 8.72967 123.015 9.7543 123.219 9.7543C123.219 9.7543 124.849 9.7543 125.359 9.7543C125.563 11.4962 125.563 11.906 125.563 14.8775C125.563 16.8243 125.563 15.6972 125.563 18.1563C125.563 21.0252 125.563 21.5375 125.359 23.4843H123.219C123.015 23.4843 123.015 24.509 123.219 24.509C123.423 24.509 125.563 24.3041 127.498 24.3041C129.434 24.3041 131.166 24.509 131.574 24.509C131.777 24.509 131.777 23.4843 131.574 23.4843H129.842C129.842 23.2794 129.842 23.177 129.842 22.972C130.453 21.64 131.777 19.2834 132.694 17.3366C133.509 15.5947 134.63 13.7503 135.343 12.1109C135.445 13.7503 135.445 13.8528 135.445 15.0824C135.445 16.6193 135.445 15.9021 135.445 18.0538C135.445 20.308 135.445 21.0252 135.241 23.4843C134.426 23.4843 133.917 23.4843 133.509 23.4843C133.306 23.4843 133.306 24.509 133.509 24.509C133.713 24.509 135.241 24.3041 137.381 24.3041C139.622 24.3041 141.456 24.509 141.762 24.509C141.762 24.3041 141.762 23.2794 141.66 23.2794Z" />
<path d="M93.9746 39.9809C93.9746 39.776 93.7708 38.4439 93.669 36.907C93.5671 35.2676 93.5671 34.7553 93.5671 34.4479C93.5671 34.243 92.9558 34.038 92.752 34.1405C92.2426 34.2429 91.3257 34.3454 89.8994 34.4479C88.9824 34.5503 87.1486 34.5503 86.2316 34.5503C85.1109 34.5503 82.3601 34.4479 81.5451 34.4479C80.9338 34.4479 80.0168 34.2429 79.6093 34.1405C79.3037 34.038 78.7943 34.243 78.7943 34.4479C78.7943 34.7553 78.7943 35.2676 78.6924 36.907C78.5905 38.4439 78.4886 39.776 78.3867 40.0834C78.3867 40.2883 79.4055 40.2883 79.5074 40.0834C79.6093 39.2636 79.7112 37.9316 80.2206 37.1119C80.8319 35.9848 81.9526 35.575 83.9902 35.575C84.0921 37.7267 84.194 39.0587 84.194 40.8006C84.194 42.5424 84.194 40.903 84.194 43.3622C84.194 46.2311 84.194 46.641 83.9902 49.2026H81.8507C81.647 49.2026 81.647 50.2272 81.8507 50.2272C82.0545 50.2272 84.2959 50.0223 86.2316 50.0223C88.1674 50.0223 90.3069 50.2272 90.6125 50.2272C90.8163 50.2272 90.8163 49.2026 90.6125 49.2026H88.473C88.3711 46.5385 88.2692 45.6163 88.2692 43.3622C88.2692 41.108 88.2692 42.9523 88.2692 40.8006C88.2692 38.6488 88.3711 37.9316 88.473 35.575C90.4088 35.575 91.7332 35.9848 92.2426 37.1119C92.6502 38.0341 92.752 39.1612 92.8539 39.9809C92.8539 40.2883 93.9746 40.1858 93.9746 39.9809Z" />
</svg>
