<svg width="45" height="19" viewBox="0 0 45 19" fill="none" xmlns="http://www.w3.org/2000/svg">
<path d="M11.484 14H13.08V10.736H14.28C16.116 10.736 17.424 9.932 17.424 8.12V8.072C17.424 6.272 16.164 5.42 14.244 5.42H11.484V14ZM13.08 9.584V6.656H14.244C15.264 6.656 15.864 7.052 15.864 8.072V8.12C15.864 9.068 15.3 9.584 14.244 9.584H13.08ZM19.3965 14H21.9765C24.9885 14 26.4405 12.224 26.4405 9.728V9.62C26.4405 7.124 24.9885 5.42 22.0005 5.42H19.3965V14ZM20.9925 12.74V6.68H21.9165C23.9325 6.68 24.7725 7.796 24.7725 9.644V9.74C24.7725 11.636 23.8485 12.74 21.9285 12.74H20.9925ZM28.5629 14H30.1589V10.484H33.0869V9.248H30.1589V6.692H33.8789V5.42H28.5629V14Z" fill="#B11632"/>
<rect x="0.5" y="0.5" width="44" height="18" rx="3.5" stroke="#B11632"/>
</svg>
