<svg width="20" height="20" viewBox="0 0 20 20" fill="none" xmlns="http://www.w3.org/2000/svg">
<path d="M20 10.0078C19.9759 15.5631 15.5091 20.0074 9.99598 19.9993C4.45876 19.9993 -0.00803743 15.5148 1.0859e-05 9.99166C0.00805914 4.46852 4.50705 -0.0240567 10.0201 9.69397e-05C15.5573 0.0242506 19.9839 4.49268 20 10.0078ZM6.99397 9.32341C7.09055 9.2912 7.14689 9.2751 7.20323 9.259C7.52516 9.14628 7.84709 9.08992 8.18512 9.12212C8.59558 9.15433 8.78069 9.32341 8.80484 9.73402C8.81288 9.90309 8.82093 10.0802 8.78069 10.2412C8.57143 11.0786 8.35413 11.9078 8.12878 12.7371C7.97586 13.2927 7.83099 13.8482 7.8149 14.4279C7.7988 15.0317 8.02415 15.5148 8.54729 15.8288C9.12677 16.183 9.77063 16.2072 10.3984 16.0703C10.9457 15.9496 11.4769 15.7161 12.0081 15.5309C12.0322 15.5228 12.0724 15.5067 12.0724 15.4826C12.1288 15.2652 12.1771 15.0478 12.2415 14.8063C12.0966 14.8546 11.992 14.9029 11.8793 14.919C11.6298 14.9593 11.3803 15.0237 11.1388 15.0237C10.5916 15.0076 10.334 14.7902 10.3903 14.1139C10.3903 14.1058 10.3903 14.1058 10.3903 14.0978C10.5433 13.4617 10.6801 12.8257 10.8411 12.1896C11.0423 11.3765 11.3561 10.5955 11.3803 9.74207C11.3883 9.19459 11.2435 8.72761 10.7928 8.38946C10.3099 8.02716 9.74648 7.9708 9.17506 8.01911C8.49095 8.08352 7.86319 8.34921 7.23542 8.5988C7.19518 8.6149 7.15494 8.65515 7.14689 8.68736C7.09055 8.88864 7.05031 9.08187 6.99397 9.32341ZM10.9376 6.69871C11.2757 6.71481 11.6056 6.57794 11.9115 6.3364C12.4346 5.92579 12.5714 5.12872 12.2173 4.56514C11.8793 4.03376 11.2354 3.75196 10.6077 3.85663C9.95574 3.96935 9.42455 4.50878 9.36822 5.11262C9.28773 5.99825 9.96379 6.70676 10.9376 6.69871Z" fill="#B39038"/>
</svg>
