<svg width="100%" height="100%" viewBox="0 0 114 242" fill="none" preserveAspectRatio="none" xmlns="http://www.w3.org/2000/svg">
<path d="M113 57C113 26.0721 87.9279 1 57 1V1C26.0721 1 1 26.0721 1 57V241H113V57Z" />
<path d="M13 197C13 221.301 32.6995 241 57 241V241C81.3005 241 101 221.301 101 197V24H13V197Z" />
<path d="M25 57C25 39.3269 39.3269 25 57 25V25C74.6731 25 89 39.3269 89 57V226H25V57Z" />
<path d="M37 206C37 217.046 45.9543 226 57 226V226C68.0457 226 77 217.046 77 206V33H37V206Z" />
<path d="M65 41C65 36.5817 61.4183 33 57 33V33C52.5817 33 49 36.5817 49 41V218C49 222.418 52.5817 226 57 226V226C61.4183 226 65 222.418 65 218V41Z" />
</svg>
