<svg width="24" height="24" viewBox="0 0 24 24" stroke="none" xmlns="http://www.w3.org/2000/svg">
<path d="M9 17.15H8.9V17.25V18.75V18.85H9H21H21.1V18.75V17.25V17.15H21H9ZM3 17.15H2.9V17.25V18.75V18.85H3H7H7.1V18.75V17.25V17.15H7H3ZM9 11.15H8.9V11.25V12.75V12.85H9H21H21.1V12.75V11.25V11.15H21H9ZM3 11.15H2.9V11.25V12.75V12.85H3H7H7.1V12.75V11.25V11.15H7H3ZM9 5.15H8.9V5.25V6.75V6.85H9H21H21.1V6.75V5.25V5.15H21H9ZM3 5.15H2.9V5.25V6.75V6.85H3H7H7.1V6.75V5.25V5.15H7H3Z" stroke="none" stroke-width="0.2" />
</svg>
