<svg width="16" height="16" viewBox="0 0 16 16" xmlns="http://www.w3.org/2000/svg">
<path fill-rule="evenodd" clip-rule="evenodd" d="M14.7154 0.428202L16 0L15.5718 1.28461L15.571 1.28704L15.5676 1.29748L15.5532 1.3422C15.5404 1.38233 15.5215 1.44262 15.4979 1.52073C15.4506 1.67704 15.3846 1.9042 15.3111 2.18346C15.1638 2.74354 14.9882 3.50555 14.8716 4.32142C14.7544 5.14214 14.701 5.98951 14.7833 6.72943C14.8668 7.48134 15.0798 8.02959 15.4081 8.3579L14.4505 9.31556C13.808 8.67311 13.5357 7.76523 13.4372 6.879C13.3374 5.98078 13.4054 5.00798 13.5309 4.12988C13.5724 3.83921 13.6207 3.55586 13.6723 3.28536L1.156 15.8017C0.891553 16.0661 0.462791 16.0661 0.198339 15.8017C-0.066113 15.5372 -0.066113 15.1084 0.198339 14.844L12.7146 2.32769C12.4441 2.37933 12.1608 2.42761 11.8701 2.46913C10.992 2.59458 10.0192 2.66261 9.121 2.56281C8.23477 2.46434 7.32689 2.19198 6.68444 1.54954L7.6421 0.59187C7.97041 0.920174 8.51866 1.1332 9.27057 1.21675C10.0105 1.29896 10.8579 1.24565 11.6786 1.1284C12.4945 1.01185 13.2565 0.836242 13.8165 0.688851C14.0958 0.615364 14.323 0.549393 14.4793 0.502138C14.5574 0.478523 14.6177 0.459619 14.6578 0.446831L14.7025 0.432428L14.713 0.429005L14.7154 0.428202Z" stroke="none" />
</svg>
