<svg width="154" height="64" viewBox="0 0 154 64" xmlns="http://www.w3.org/2000/svg">
<path d="M48.2497 43.5672C48.2497 43.3439 48.0281 41.8924 47.9173 40.2176C47.8065 38.4311 47.8065 37.8729 47.8065 37.5379C47.8065 37.3146 47.1418 37.0913 46.9202 37.2029C46.3662 37.3146 45.3691 37.4262 43.818 37.5379C42.8209 37.6495 40.8267 37.6496 39.8295 37.6496C38.6108 37.6496 35.5087 37.5379 34.7331 37.5379C34.0684 37.5379 33.0713 37.3146 32.6281 37.2029C32.2957 37.0913 31.7418 37.3146 31.7418 37.5379C31.7418 37.8729 31.7418 38.4311 31.631 40.2176C31.5202 41.8924 31.4094 43.3439 31.2986 43.6789C31.2986 43.9022 32.4065 43.9022 32.5173 43.6789C32.6281 42.7856 32.7389 41.3341 33.2929 40.4409C33.9576 39.2127 35.1763 38.7661 37.3921 38.7661C37.5029 41.1108 37.6137 42.5623 37.6137 44.4604C37.6137 46.3586 37.6137 44.5721 37.6137 47.2518C37.6137 50.3781 37.6137 50.8247 37.3921 53.6161H35.0655C34.844 53.6161 34.844 54.7326 35.0655 54.7326C35.2871 54.7326 37.7245 54.5093 39.8295 54.5093C41.9346 54.5093 44.2612 54.7326 44.5936 54.7326C44.8151 54.7326 44.8151 53.6161 44.5936 53.6161H42.267C42.1562 50.7131 42.0454 49.7082 42.0454 47.2518C42.0454 44.7954 42.0454 46.8052 42.0454 44.4604C42.0454 42.1157 42.1562 41.3341 42.267 38.7661C44.372 38.7661 45.8123 39.2127 46.3662 40.4409C46.8094 41.4458 46.9202 42.674 47.031 43.5672C47.031 43.9022 48.2497 43.7905 48.2497 43.5672Z"/>
<path d="M65.4222 50.0432C64.6467 52.2763 62.3201 55.0677 58.4424 55.0677C53.5675 55.0677 50.0222 51.9414 50.0222 46.247C50.0222 40.6643 54.1215 37.4263 57.9992 37.4263C62.5416 37.4263 65.2006 40.106 65.4222 45.1305C65.4222 45.1305 57.8884 45.1305 54.8971 45.1305C54.6755 50.7132 56.3374 53.8395 59.4395 53.8395C61.9877 53.8395 63.8711 51.8297 64.6467 49.5966C64.6467 49.2617 65.533 49.7083 65.4222 50.0432ZM59.8827 43.9023C60.3258 43.9023 60.6582 43.7906 60.769 43.5673C60.9906 43.2323 60.8798 43.009 60.8798 42.2274C60.769 41.3342 60.3258 40.2177 59.9935 39.5477C59.5503 38.7662 58.8855 38.3195 57.9992 38.3195C56.8913 38.3195 56.1157 39.3244 55.6726 40.3293C55.2294 41.3342 55.0079 42.6741 54.8971 43.7906C55.7834 43.9023 58.8855 43.9023 59.8827 43.9023Z" />
<path d="M115.611 37.3146C112.73 37.3146 111.179 38.9895 110.625 41.5575C110.736 37.203 110.736 37.6496 110.736 37.203C110.736 36.9797 109.96 36.7564 109.739 36.868C109.185 37.203 108.852 37.4263 107.855 37.5379C106.193 37.7612 104.088 37.5379 103.645 37.5379C103.423 37.5379 103.423 38.6545 103.645 38.6545C104.31 38.6545 105.085 38.6545 105.972 38.6545C106.082 40.7759 106.193 42.2274 106.193 44.5722C106.193 48.2567 106.193 52.8346 106.193 56.5192C106.193 59.5339 106.082 60.5387 105.972 62.8835C105.307 62.8835 104.199 62.8835 103.645 62.8835C103.423 62.8835 103.423 64 103.645 64C103.867 64 106.526 63.7767 108.631 63.7767C110.736 63.7767 113.284 64 113.505 64C113.727 64 113.727 62.8835 113.505 62.8835C113.062 62.8835 111.844 62.8835 111.068 62.8835C110.957 59.7571 110.847 59.5339 110.847 56.5192C110.847 54.8444 110.847 51.718 110.847 51.718C111.954 54.0628 113.727 55.0677 115.611 55.0677C119.156 55.0677 122.812 51.6064 122.812 45.6887C122.59 40.5526 119.931 37.3146 115.611 37.3146ZM114.281 53.5045C112.508 53.5045 110.625 51.3831 110.625 47.4752V45.8004C110.625 41.8925 112.176 38.5428 114.392 38.5428C116.608 38.5428 117.716 40.7759 117.716 46.0237C117.826 51.2714 116.275 53.5045 114.281 53.5045Z" />
<path d="M84.9213 53.0579C84.2566 53.0579 83.3702 53.0579 82.5947 53.0579C82.3731 50.8248 82.4839 48.8151 82.4839 47.3635C82.4839 46.0237 82.5947 46.3587 82.4839 44.9072C82.4839 42.7857 82.3731 41.1109 81.376 39.7711C80.1573 38.2079 78.163 37.4263 75.2825 37.4263C71.5156 37.4263 69.189 39.6594 69.189 41.6692C69.189 43.2323 70.1861 44.1256 71.5156 44.1256C72.7343 44.1256 73.7314 43.2323 73.7314 41.8925C73.7314 40.7759 72.9559 39.8827 71.6264 39.7711C72.2911 38.9895 73.5098 38.5429 74.7285 38.5429C76.7228 38.5429 78.1631 39.4361 78.1631 42.5624C78.1631 44.6839 78.0523 45.1305 78.0523 45.1305C71.9587 45.1305 67.9702 47.5869 67.9702 51.2715C67.9702 53.6162 69.6321 55.0677 71.9587 55.0677C74.7285 55.0677 76.7228 53.3929 77.9415 51.2715C77.9415 51.2715 77.9415 51.2715 77.9415 51.3831C77.9415 53.0579 77.8307 54.3978 77.8307 54.6211C77.8307 54.8444 78.4954 55.0677 78.6062 54.9561C79.1602 54.6211 79.8249 54.3978 81.0436 54.2861C82.8163 54.0628 84.3674 54.2861 84.9213 54.2861C85.1429 54.2861 85.1429 53.0579 84.9213 53.0579ZM77.9415 48.5918C77.9415 49.5966 77.2767 50.9365 76.612 51.6064C75.9472 52.388 75.2825 52.723 74.6177 52.723C73.6206 52.723 72.7343 52.053 72.7343 50.3782C72.7343 49.15 73.1774 48.1451 73.953 47.3635C74.8393 46.582 76.612 46.0237 78.0523 46.0237C78.0523 46.0237 78.0523 47.6985 77.9415 48.5918Z" />
<path d="M17.1172 7.94964C16.8957 6.94475 16.5633 4.82333 15.7877 3.59513C14.9014 2.03197 13.3503 1.47367 10.4698 1.47367H8.47553C8.47553 1.47367 8.25394 5.38157 8.25394 9.28947C8.25394 10.6293 8.25394 11.0759 8.25394 11.6342C9.02948 11.2993 10.6913 11.0759 12.1316 11.0759C18.4467 11.0759 20.441 14.4256 20.441 18.1102C20.441 25.1444 13.5719 26.4843 10.6914 26.4843C8.58632 26.4843 7.03523 26.2609 5.37336 26.2609C2.60357 26.2609 0.498561 26.4843 0.166187 26.4843C-0.0553956 26.4843 -0.0553956 25.2561 0.166187 25.2561C0.720143 25.2561 2.4928 25.2561 2.93597 25.2561C3.04676 22.9113 3.15753 21.1249 3.15753 16.882C3.15753 13.4207 3.15753 12.9741 3.15753 9.28947C3.15753 6.16315 3.15755 5.15826 2.93597 1.47367C2.93597 1.47367 0.609352 1.47367 0.166187 1.47367C-0.0553956 1.47367 -0.0553956 0.2455 0.166187 0.2455C0.387769 0.2455 2.60359 0.58045 5.59495 0.58045C8.58632 0.58045 12.9072 0.580443 14.4583 0.468789C15.8985 0.357134 16.4525 0.245487 17.1172 0.0221782C17.3388 -0.0894761 18.1144 0.24548 18.1144 0.468789C18.1144 0.692097 18.1144 1.92029 18.2252 4.26503C18.3359 5.82819 18.4467 7.27971 18.4467 7.83798C18.336 8.17294 17.228 8.17295 17.1172 7.94964ZM9.47265 25.2561C13.018 25.2561 15.123 23.2463 15.123 18.4451C15.123 14.2023 13.5719 12.4158 11.0237 12.4158C9.91581 12.4158 8.91868 12.6391 8.25394 12.8624C8.25394 13.979 8.25394 13.644 8.25394 17.2169C8.25394 20.6782 8.25395 21.0132 8.47553 25.2561C8.9187 25.2561 9.47265 25.2561 9.47265 25.2561Z" />
<path d="M32.074 9.0661C36.2841 9.0661 40.605 11.9691 40.605 17.8868C40.605 23.8045 36.1733 26.7075 32.074 26.7075C27.9747 26.7075 23.6539 23.9161 23.6539 17.8868C23.6539 11.8574 27.8639 9.0661 32.074 9.0661ZM28.5287 18.2217C28.5287 23.4695 29.969 25.7026 32.074 25.7026C34.0683 25.7026 35.7301 23.8045 35.7301 18.2217C35.7301 12.639 34.4006 10.1826 32.074 10.1826C29.6366 10.1826 28.5287 12.639 28.5287 18.2217Z" />
<path d="M123.366 9.0661C127.576 9.0661 131.897 11.9691 131.897 17.8868C131.897 23.8045 127.465 26.7075 123.366 26.7075C119.267 26.7075 114.946 23.9161 114.946 17.8868C114.835 11.8574 119.156 9.0661 123.366 9.0661ZM119.71 18.2217C119.71 23.4695 121.15 25.7026 123.255 25.7026C125.25 25.7026 126.911 23.8045 126.911 18.2217C126.911 12.639 125.582 10.1826 123.255 10.1826C120.818 10.1826 119.71 12.639 119.71 18.2217Z" />
<path d="M112.952 25.3676C112.619 25.3676 112.065 25.3676 110.625 25.3676C110.514 22.9112 110.404 22.3529 110.404 19.4499C110.404 17.7751 110.404 17.9984 110.404 16.2119C110.404 13.5322 110.514 12.304 110.625 10.4059C111.622 10.4059 112.509 10.4059 112.952 10.4059C113.173 10.4059 113.173 9.28932 112.952 9.28932C112.73 9.28932 110.293 9.51264 108.188 9.51264C106.083 9.51264 104.199 9.28932 103.756 9.28932C103.535 9.28932 103.535 10.4059 103.756 10.4059C103.756 10.4059 104.532 10.4059 105.64 10.4059C105.75 12.4156 105.861 13.0856 105.861 16.2119C105.861 17.6634 105.861 17.5517 105.861 19.4499C105.861 22.4645 105.75 22.9112 105.75 25.3676C104.31 25.3676 101.983 25.3676 100.322 25.3676C100.211 22.6879 100.1 22.3529 100.1 19.5615C100.1 17.4401 100.1 18.3333 100.1 16.3236C100.1 13.0856 100.211 12.8623 100.322 10.5175C101.097 10.5175 101.762 10.5175 102.205 10.5175C102.427 10.5175 102.427 9.40098 102.205 9.40098C101.983 9.40098 99.8784 9.6243 97.8842 9.6243C95.7791 9.6243 93.7849 9.40098 93.4525 9.40098C93.2309 9.40098 93.2309 10.5175 93.4525 10.5175C93.4525 10.5175 94.2281 10.5175 95.336 10.5175C95.4468 12.9739 95.5575 13.5322 95.5575 16.3236C95.5575 18.11 95.5575 17.8867 95.5575 19.5615C95.5575 22.1296 95.5575 22.4645 95.336 25.4792C93.7849 25.4792 91.4583 25.4792 90.018 25.4792C89.9072 23.0228 89.7964 22.6879 89.7964 19.6732C89.7964 18.2217 89.7964 17.8867 89.7964 16.3236C89.7964 13.3089 89.9072 12.7506 90.018 10.5175C90.9043 10.5175 91.4583 10.5175 91.9014 10.5175C92.123 10.5175 92.123 9.40098 91.9014 9.40098C91.6798 9.40098 89.5748 9.6243 87.5806 9.6243C85.4755 9.6243 83.2597 9.40098 82.9273 9.40098C82.7057 9.40098 82.7057 10.5175 82.9273 10.5175C82.9273 10.5175 84.2568 10.5175 85.0324 10.5175C85.2539 12.8623 85.254 13.7555 85.254 16.3236C85.254 17.4401 85.254 18.11 85.254 19.5615C85.254 23.1345 85.1432 23.2461 85.0324 25.4792C84.0352 25.4792 83.3705 25.4792 82.9273 25.4792C82.7057 25.4792 82.7057 26.5957 82.9273 26.5957C83.1489 26.5957 96.7762 26.3724 97.9949 26.3724C99.3244 26.3724 112.841 26.5957 113.173 26.5957C113.173 26.4841 113.173 25.3676 112.952 25.3676Z" />
<path d="M80.6008 20.6781C80.6008 17.5518 78.1634 15.6536 74.7288 15.6536C73.067 15.6536 71.9591 15.8769 70.9619 16.2119C70.9619 14.4254 70.9619 13.1972 71.1835 10.4059C71.959 10.4059 73.067 10.4059 73.5101 10.4059C73.7317 10.4059 73.7317 9.28932 73.5101 9.28932C73.2885 9.28932 70.7404 9.51264 68.7461 9.51264C66.6411 9.51264 64.3144 9.28932 63.9821 9.28932C63.7605 9.28932 63.7605 10.4059 63.9821 10.4059C63.9821 10.4059 65.7547 10.4059 66.3087 10.4059C66.5303 12.5273 66.5303 12.9739 66.5303 16.2119C66.5303 17.7751 66.5303 17.5518 66.5303 19.4499C66.5303 22.2412 66.5303 23.0228 66.3087 25.2559C65.5332 25.2559 64.536 25.2559 63.9821 25.2559C63.7605 25.2559 63.7605 26.3725 63.9821 26.3725C64.2037 26.3725 66.6411 26.2608 68.7461 26.2608C70.0756 26.2608 71.4051 26.3725 73.3993 26.3725C76.5015 26.4841 80.6008 25.2559 80.6008 20.6781ZM71.7375 25.3676C71.7375 25.3676 71.2943 25.3676 71.0727 25.2559C70.9619 22.6879 70.8511 21.9063 70.8511 19.4499C70.8511 18.3333 70.8511 17.7751 70.8511 17.1051C71.4051 16.8818 72.0698 16.7702 72.8454 16.7702C74.618 16.7702 75.8367 17.8867 75.8367 20.7897C75.8367 24.4743 74.1749 25.3676 71.7375 25.3676Z" />
<path d="M149.402 3.81811C149.402 2.47826 148.626 1.58503 147.408 1.58503C146.3 1.58503 145.413 2.25497 145.413 3.48316C145.413 4.59971 146.3 5.38127 147.408 5.38127C146.743 5.93954 145.524 6.38619 143.752 6.38619C142.09 6.38619 140.76 5.71626 140.206 5.26964C141.203 5.26964 142.09 4.5997 142.09 3.3715C142.09 2.1433 141.314 1.47336 140.206 1.47336C138.988 1.47336 138.101 2.47825 138.101 3.70645C138.101 5.82789 140.649 7.16775 143.752 7.16775C146.854 7.2794 149.402 5.93955 149.402 3.81811Z" />
<path d="M61.5444 10.4059C61.766 10.4059 61.766 9.28932 61.5444 9.28932C61.3228 9.28932 56.6696 9.51264 52.9027 9.51264C50.7976 9.51264 47.0307 9.28932 46.9199 9.28932C46.6984 9.28932 46.6984 10.4059 46.9199 10.4059C47.3631 10.4059 48.5818 10.4059 49.2466 10.4059C49.2466 13.3089 49.1358 16.4352 48.8034 19.1149C48.2494 24.0277 46.6984 25.4792 45.0365 25.4792C44.8149 25.4792 44.7041 25.3676 44.7041 25.3676C45.4797 25.0326 46.1444 24.251 46.1444 23.1345C46.1444 21.5713 45.1473 20.9014 43.8178 20.9014C42.4883 20.9014 41.3804 22.0179 41.3804 23.6928C41.3804 25.3676 42.4883 26.5957 44.4826 26.5957C47.6955 26.5957 49.3573 23.5811 49.8005 19.3382C50.1329 16.6585 50.2437 13.8672 50.3545 10.1826C52.0163 10.1826 53.5674 10.1826 54.343 10.1826C54.4538 12.0807 54.5645 13.4205 54.5645 15.9886C54.5645 17.775 54.5645 18.11 54.5645 19.2266C54.5645 22.0179 54.4538 22.6878 54.343 25.0326C53.5674 25.0326 52.4595 25.0326 52.0163 25.0326C51.7948 25.0326 51.7948 26.1491 52.0163 26.1491C52.2379 26.1491 54.5646 25.9258 56.6696 25.9258C58.7746 25.9258 61.1012 26.1491 61.5444 26.1491C61.6552 26.1491 61.6552 25.0326 61.5444 25.0326C61.212 25.0326 60.3257 25.0326 59.2178 25.0326C59.107 22.5762 58.9962 21.5713 58.9962 19.2266C58.9962 17.8867 58.9962 17.5517 58.9962 15.9886C58.9962 13.1972 59.107 12.5273 59.2178 10.1826C60.1041 10.4059 61.1012 10.4059 61.5444 10.4059Z" />
<path d="M153.834 25.3678H151.507C151.396 23.1348 151.286 21.6832 151.286 19.5618C151.286 17.4404 151.286 18.6686 151.286 16.3238C151.286 13.9791 151.396 12.7509 151.507 10.5178H153.834C154.055 10.5178 154.055 9.40127 153.834 9.40127C153.612 9.40127 151.064 9.62459 149.07 9.62459C147.075 9.62459 145.192 9.40127 144.749 9.40127C144.527 9.40127 144.527 10.5178 144.749 10.5178C144.749 10.5178 145.192 10.5178 146.632 10.5178C146.632 10.6295 146.632 10.8528 146.632 10.9644C145.857 12.7509 144.084 16.2122 143.309 17.6637C142.755 18.7802 141.647 20.79 140.65 22.6881C140.65 21.5716 140.65 21.3483 140.65 19.6735C140.65 17.552 140.65 18.5569 140.65 16.4355C140.65 13.5325 140.65 12.6392 140.871 10.6295H142.755C142.976 10.6295 142.976 9.51293 142.755 9.51293C142.533 9.51293 140.539 9.73625 138.545 9.73625C136.44 9.73625 134.113 9.51293 133.781 9.51293C133.559 9.51293 133.559 10.6295 133.781 10.6295C133.781 10.6295 135.553 10.6295 136.107 10.6295C136.329 12.5276 136.329 12.9742 136.329 16.2122C136.329 18.3336 136.329 17.1054 136.329 19.7851C136.329 22.9115 136.329 23.4697 136.107 25.5911H133.781C133.559 25.5911 133.559 26.7077 133.781 26.7077C134.002 26.7077 136.329 26.4844 138.434 26.4844C140.539 26.4844 142.422 26.7077 142.865 26.7077C143.087 26.7077 143.087 25.5911 142.865 25.5911H140.982C140.982 25.3678 140.982 25.2562 140.982 25.0329C141.647 23.5814 143.087 21.0133 144.084 18.8919C144.97 16.9938 146.189 14.984 146.965 13.1975C147.075 14.984 147.075 15.0957 147.075 16.4355C147.075 18.1103 147.075 17.3287 147.075 19.6735C147.075 22.1299 147.075 22.9114 146.854 25.5911C145.968 25.5911 145.414 25.5911 144.97 25.5911C144.749 25.5911 144.749 26.7077 144.97 26.7077C145.192 26.7077 146.854 26.4844 149.181 26.4844C151.618 26.4844 153.612 26.7077 153.945 26.7077C153.945 26.4844 153.945 25.3678 153.834 25.3678Z" />
<path d="M101.983 43.5672C101.983 43.3439 101.762 41.8924 101.651 40.2176C101.54 38.4311 101.54 37.8729 101.54 37.5379C101.54 37.3146 100.875 37.0913 100.654 37.2029C100.1 37.3146 99.1029 37.4262 97.5518 37.5379C96.5547 37.6495 94.5604 37.6496 93.5633 37.6496C92.3446 37.6496 89.3532 37.5379 88.4669 37.5379C87.8021 37.5379 86.805 37.3146 86.3619 37.2029C86.0295 37.0913 85.4755 37.3146 85.4755 37.5379C85.4755 37.8729 85.4755 38.4311 85.3647 40.2176C85.254 41.8924 85.1431 43.3439 85.0323 43.6789C85.0323 43.9022 86.1403 43.9022 86.2511 43.6789C86.3619 42.7856 86.4727 41.3341 87.0266 40.4409C87.6914 39.2127 88.91 38.7661 91.1259 38.7661C91.2367 41.1108 91.3475 42.5623 91.3475 44.4604C91.3475 46.3586 91.3475 44.5721 91.3475 47.2518C91.3475 50.3781 91.3475 50.8247 91.1259 53.6161H88.7993C88.5777 53.6161 88.5777 54.7326 88.7993 54.7326C89.0209 54.7326 91.4583 54.5093 93.5633 54.5093C95.6683 54.5093 97.9949 54.7326 98.3273 54.7326C98.5489 54.7326 98.5489 53.6161 98.3273 53.6161H96.0007C95.8899 50.7131 95.7791 49.7082 95.7791 47.2518C95.7791 44.7954 95.7791 46.8052 95.7791 44.4604C95.7791 42.1157 95.8899 41.3341 96.0007 38.7661C98.1057 38.7661 99.546 39.2127 100.1 40.4409C100.543 41.4458 100.654 42.674 100.765 43.5672C100.765 43.9022 101.983 43.7905 101.983 43.5672Z" />
</svg>
