<svg width="90" height="90" viewBox="0 0 90 90" fill="none" xmlns="http://www.w3.org/2000/svg">
<path d="M76 21C62.7452 21 52 31.7452 52 45V45C52 58.2548 62.7452 69 76 69V69L76 21V21Z" />
<path d="M14 21C27.2548 21 38 31.7452 38 45V45C38 58.2548 27.2548 69 14 69V69L14 21V21Z" />
<path d="M76.02 13.98C58.8881 13.98 45 27.8682 45 45V45C45 62.1319 58.8881 76.02 76.02 76.02V76.02L76.02 13.98V13.98Z" />
<path d="M13.98 13.98C31.1119 13.98 45 27.8682 45 45V45C45 62.1319 31.1119 76.02 13.98 76.02V76.02L13.98 13.98V13.98Z" />
<rect x="1" y="1" width="88" height="88" rx="44" />
<circle cx="45" cy="45" r="31.02" />
<rect x="13.98" y="13.98" width="62.04" height="62.04" />
</svg>
