<svg width="100%" height="100%" viewBox="0 0 114 242" fill="none" preserveAspectRatio="none" xmlns="http://www.w3.org/2000/svg">
<path d="M1 57C1 26.0721 26.0721 1 57 1V1C87.9279 1 113 26.0721 113 57V241H1V57Z" />
<path d="M17 57C17 34.9086 34.9086 17 57 17V17C79.0914 17 97 34.9086 97 57V225H17V57Z" />
<path d="M33 97C33 74.9086 50.9086 57 73 57V57C95.0914 57 113 74.9086 113 97V149V241H33V97Z" />
<path d="M1 97C1 74.9086 18.9086 57 41 57V57C63.0914 57 81 74.9086 81 97V241H1V97Z" />
<path d="M33 57C33 43.7452 43.7452 33 57 33V33C70.2548 33 81 43.7452 81 57V225H33V57Z" />
<path d="M50 94.5C50 81.5213 60.5213 71 73.5 71V71C86.4787 71 97 81.5213 97 94.5V225H50V94.5Z" />
<path d="M17 95C17 81.7452 27.7452 71 41 71V71C54.2548 71 65 81.7452 65 95V225H17V95Z" />
</svg>
