<svg width="100%" height="100%" viewBox="0 0 114 242" fill="none" preserveAspectRatio="none" xmlns="http://www.w3.org/2000/svg">
<path d="M113 57C113 26.0721 87.9279 1 57 1V1C26.0721 1 1 26.0721 1 57V241H113V57Z" stroke-width="0.875"/>
<path d="M13 57C13 32.6995 32.6995 13 57 13V13C81.3005 13 101 32.6995 101 57V229H13V57Z" stroke-width="0.875"/>
<path d="M25 57C25 39.3269 39.3269 25 57 25V25C74.6731 25 89 39.3269 89 57V217H25V57Z" stroke-width="0.875"/>
<path d="M37.4375 57C37.4375 46.1959 46.1959 37.4375 57 37.4375C67.8041 37.4375 76.5625 46.1959 76.5625 57V185C76.5625 195.804 67.8041 204.562 57 204.562C46.1959 204.562 37.4375 195.804 37.4375 185V57Z" stroke-width="0.875"/>
<path d="M64.5625 86C64.5625 68.5685 50.4315 54.4375 33 54.4375C15.5685 54.4375 1.4375 68.5685 1.4375 86V146C1.4375 163.431 15.5685 177.562 33 177.562C50.4315 177.562 64.5625 163.431 64.5625 146V86Z" stroke-width="0.875"/>
<path d="M112.562 86C112.562 68.5685 98.4315 54.4375 81 54.4375C63.5685 54.4375 49.4375 68.5685 49.4375 86V146C49.4375 163.431 63.5685 177.562 81 177.562C98.4315 177.562 112.562 163.431 112.562 146V86Z" stroke-width="0.875"/>
</svg>
