<svg width="45" height="19" viewBox="0 0 45 19" fill="none" xmlns="http://www.w3.org/2000/svg">
<path d="M13.58 9.392V6.656H14.864C15.884 6.656 16.496 6.992 16.496 7.976V8.024C16.496 8.936 15.932 9.392 14.864 9.392H13.58ZM11.984 14H13.58V10.532H14.6L16.844 14H18.572L16.16 10.292C17.228 10.016 18.068 9.332 18.068 7.988V7.94C18.068 6.188 16.748 5.42 14.864 5.42H11.984V14ZM21.9875 14H23.5955V6.68H25.9835V5.42H19.5995V6.68H21.9875V14ZM27.8676 14H29.4636V10.484H32.3916V9.248H29.4636V6.692H33.1836V5.42H27.8676V14Z" fill="#B11632"/>
<rect x="0.5" y="0.5" width="44" height="18" rx="3.5" stroke="#B11632"/>
</svg>
