<svg width="18" height="18" viewBox="0 0 18 18" stroke="none" xmlns="http://www.w3.org/2000/svg">
<path fill-rule="evenodd" clip-rule="evenodd" d="M1.5 1.5V6.5H6.5V1.5H1.5ZM11.5 1.5V6.5H16.5V1.5H11.5ZM11.5 11.5V16.5H16.5V11.5H11.5ZM1.5 11.5V16.5H6.5V11.5H1.5ZM1 0C0.447715 0 0 0.447715 0 1V7C0 7.55228 0.447715 8 1 8H7C7.55228 8 8 7.55228 8 7V1C8 0.447715 7.55228 0 7 0H1ZM11 0C10.4477 0 10 0.447715 10 1V7C10 7.55228 10.4477 8 11 8H17C17.5523 8 18 7.55228 18 7V1C18 0.447715 17.5523 0 17 0H11ZM10 11C10 10.4477 10.4477 10 11 10H17C17.5523 10 18 10.4477 18 11V17C18 17.5523 17.5523 18 17 18H11C10.4477 18 10 17.5523 10 17V11ZM1 10C0.447715 10 0 10.4477 0 11V17C0 17.5523 0.447715 18 1 18H7C7.55228 18 8 17.5523 8 17V11C8 10.4477 7.55228 10 7 10H1Z" stroke="none" />
</svg>
