<svg width="174" height="164" viewBox="0 0 174 164" fill="none" xmlns="http://www.w3.org/2000/svg">
<g style="mix-blend-mode:multiply" opacity="0.5">
<path d="M140.694 164C138.807 163.006 137.036 162.089 135.303 161.133C119.555 152.646 103.769 144.198 88.0204 135.711C87.2888 135.329 86.7497 135.214 85.9411 135.634C68.6913 144.962 51.403 154.252 34.1146 163.541C33.8451 163.694 33.5756 163.771 33.1905 163.962C33.9221 159.948 34.6537 156.048 35.3853 152.187C36.5019 146.109 37.6185 140.069 38.7736 133.991C40.1213 126.727 41.4689 119.464 42.8166 112.2C43.2401 109.869 43.6251 107.537 44.1257 105.243C44.2412 104.593 44.0487 104.172 43.5866 103.752C37.9265 98.4382 32.3049 93.0862 26.6448 87.7343C19.4446 80.9296 12.2058 74.1249 4.96703 67.2821C3.38836 65.7911 1.77119 64.262 0 62.58C1.9252 62.3124 3.61938 62.0448 5.35207 61.8154C9.24098 61.2802 13.1299 60.7832 17.0188 60.2862C21.3698 59.7128 25.7207 59.1776 30.0717 58.6042C33.8451 58.1072 37.6185 57.6103 41.3919 57.1133C45.1268 56.6163 48.8617 56.1193 52.5966 55.6224C55.0609 55.3165 57.5636 55.049 60.0279 54.6667C60.4129 54.5902 60.8365 54.1315 61.029 53.7492C65.842 43.7716 70.655 33.7939 75.468 23.8163C79.1644 16.1324 82.8608 8.48671 86.5572 0.802797C86.6727 0.573426 86.8267 0.382284 87.0192 0C87.2888 0.535198 87.5198 0.955711 87.7123 1.338C96.1062 18.7319 104.5 36.1641 112.894 53.558C113.279 54.3608 113.703 54.6667 114.588 54.7814C118.362 55.2019 122.135 55.8135 125.908 56.3105C130.298 56.8839 134.687 57.4191 139.038 57.9925C143.389 58.566 147.702 59.1776 152.053 59.751C155.788 60.248 159.522 60.7068 163.257 61.2037C166.761 61.6625 170.227 62.1212 174 62.6182C173.307 63.2681 172.806 63.765 172.267 64.262C162.988 73.0163 153.67 81.8089 144.39 90.5632C139.77 94.9212 135.188 99.2793 130.529 103.599C129.913 104.172 129.72 104.708 129.874 105.472C130.837 110.633 131.8 115.794 132.762 120.993C133.956 127.415 135.149 133.8 136.343 140.222C137.537 146.721 138.769 153.258 139.962 159.757C140.193 161.095 140.424 162.471 140.694 164ZM91.5627 56.0429C91.8323 56.234 92.0633 56.4634 92.3328 56.6545C96.3372 59.5981 100.149 62.8093 103.46 66.5175C109.891 73.628 113.934 81.6559 112.663 91.5571C112.201 95.1888 111.431 98.744 109.506 101.917C108.813 103.026 107.965 104.058 107.118 105.205C97.0688 95.8005 87.2503 86.5492 77.1622 77.1068C80.0885 74.2014 82.8993 71.4107 85.7486 68.5818C83.0148 68.0848 80.281 67.6643 77.5857 67.0909C76.7387 66.8998 76.2381 67.0909 75.6605 67.6643C71.2711 72.0606 66.8046 76.4569 62.4151 80.8531C62.2226 81.0443 62.0301 81.3119 61.8376 81.503C61.9531 81.4266 62.0686 81.3883 62.1456 81.3119C63.9168 83.1851 65.7265 85.0583 67.8827 87.3138C70.1545 84.8671 72.4262 82.4205 74.7364 79.8974C84.0544 89.4163 93.2184 98.8205 102.421 108.263C100.496 109.41 97.0303 110.289 94.7201 110.404C89.5605 110.671 84.555 109.945 79.742 108.148C75.7761 106.657 71.9256 104.937 67.9212 103.255C67.1511 104.172 66.227 105.319 65.2644 106.428C64.9949 106.313 64.8024 106.122 64.5714 106.122C63.9938 106.084 63.2622 105.855 62.8772 106.122C62.4921 106.39 62.2996 107.193 62.3766 107.689C62.6462 109.907 62.4536 110.365 60.6054 111.551C58.9113 112.621 57.1786 113.653 55.5999 114.838C53.8672 116.176 52.5581 117.896 52.019 120.076C51.5185 122.063 52.5581 123.172 54.5603 122.713C55.2534 122.56 55.9464 122.216 56.524 121.834C58.4492 120.611 59.8354 118.852 60.875 116.864C61.5295 115.603 62.0686 114.303 62.6462 113.003C63.4547 111.245 64.1863 110.862 66.15 110.901C66.6121 110.901 67.2281 110.48 67.4207 110.098C67.6132 109.677 67.4977 108.989 67.2666 108.569C66.8816 107.881 66.9971 107.46 67.5362 106.963C67.8827 106.619 68.2293 106.275 68.5758 105.855C69.1148 106.275 69.5769 106.657 70.0004 107.001C74.6979 110.862 79.7805 114.112 85.5561 116.1C93.2569 118.776 100.919 119.196 108.466 115.526C109.159 115.182 109.467 115.603 109.814 115.985C111.893 118.088 113.972 120.228 115.974 122.369C116.475 122.904 116.937 123.019 117.591 122.713C119.055 122.025 120.133 120.993 120.826 119.579C121.134 118.929 121.134 118.355 120.518 117.82C119.632 117.055 118.747 116.214 117.9 115.373C116.59 114.15 115.281 112.889 113.934 111.627C114.242 111.283 114.473 111.015 114.665 110.748C115.859 109.027 117.283 107.384 118.208 105.549C122.058 97.6736 122.096 89.531 119.44 81.3119C116.975 73.7044 111.931 67.9319 105.54 63.2681C101.381 60.1333 96.6838 57.7632 91.5627 56.0429Z" fill="#CCCCCC"/>
</g>
</svg>
