<svg width="16" height="16" viewBox="0 0 16 16" xmlns="http://www.w3.org/2000/svg">
<path d="M16 8.00621C15.9807 12.4505 12.4072 16.0059 7.99679 15.9995C3.56701 15.9995 -0.00642994 12.4118 8.68718e-06 7.99333C0.00644732 3.57482 3.60564 -0.0192454 8.0161 7.75517e-05C12.4459 0.0194005 15.9871 3.59414 16 8.00621ZM5.59518 7.45872C5.67244 7.43296 5.71751 7.42008 5.76258 7.4072C6.02013 7.31702 6.27767 7.27194 6.54809 7.2977C6.87646 7.32346 7.02455 7.45872 7.04387 7.78721C7.05031 7.92247 7.05675 8.06418 7.02455 8.193C6.85715 8.86286 6.68331 9.52628 6.50302 10.1897C6.38069 10.6341 6.26479 11.0786 6.25192 11.5423C6.23904 12.0254 6.41932 12.4118 6.83783 12.663C7.30141 12.9464 7.8165 12.9658 8.31872 12.8563C8.75654 12.7596 9.18149 12.5729 9.60644 12.4247C9.62576 12.4183 9.65795 12.4054 9.65795 12.3861C9.70302 12.2122 9.74165 12.0383 9.79316 11.845C9.67727 11.8837 9.59357 11.9223 9.50342 11.9352C9.30383 11.9674 9.10423 12.0189 8.91107 12.0189C8.47324 12.0061 8.26721 11.8321 8.31228 11.2911C8.31228 11.2847 8.31228 11.2847 8.31228 11.2782C8.43461 10.7694 8.54407 10.2605 8.67284 9.75171C8.83381 9.10117 9.08491 8.4764 9.10423 7.79366C9.11067 7.35567 8.99477 6.98209 8.63421 6.71157C8.24789 6.42173 7.79719 6.37664 7.34005 6.41529C6.79276 6.46681 6.29055 6.67937 5.78834 6.87904C5.75614 6.89192 5.72395 6.92412 5.71751 6.94989C5.67244 7.11091 5.64025 7.2655 5.59518 7.45872ZM8.7501 5.35897C9.02053 5.37185 9.28451 5.26235 9.52918 5.06912C9.94769 4.74063 10.0571 4.10298 9.77385 3.65211C9.50342 3.22701 8.98833 3.00157 8.48612 3.0853C7.96459 3.17548 7.53964 3.60702 7.49457 4.0901C7.43019 4.7986 7.97103 5.36541 8.7501 5.35897Z" />
</svg>
