<svg width="21" height="20" viewBox="0 0 21 20" fill="none" xmlns="http://www.w3.org/2000/svg">
<path fill-rule="evenodd" clip-rule="evenodd" d="M15.6763 4.3645C15.9537 4.64317 15.9537 5.09499 15.6763 5.37366L4.31387 16.791C4.03654 17.0697 3.58689 17.0697 3.30956 16.791C3.03223 16.5123 3.03223 16.0605 3.30956 15.7818L14.672 4.3645C14.9494 4.08583 15.399 4.08583 15.6763 4.3645Z" fill="#B11632"/>
<path fill-rule="evenodd" clip-rule="evenodd" d="M16.6525 4.35382L17.1016 3L15.7542 3.45127L15.7512 3.45229L15.7397 3.4561L15.6921 3.47168C15.6498 3.48545 15.5866 3.50575 15.5054 3.53127C15.3427 3.58234 15.1077 3.65421 14.8212 3.73649C14.2467 3.90142 13.4712 4.10631 12.6591 4.26951C11.841 4.43393 11.0147 4.55 10.3295 4.55C9.98713 4.55 9.70437 4.5208 9.48694 4.46618C9.26521 4.41048 9.15985 4.34059 9.11593 4.29647L8.11163 5.30563C8.40248 5.59789 8.77835 5.75927 9.14247 5.85074C9.51088 5.94328 9.91858 5.97716 10.3295 5.97716C11.1507 5.97716 12.0819 5.84094 12.9377 5.66897C13.6672 5.52237 14.3629 5.34537 14.9216 5.19049C14.7675 5.75185 14.5913 6.451 14.4454 7.184C14.2743 8.04388 14.1387 8.97959 14.1387 9.8048C14.1387 10.2177 14.1724 10.6273 14.2645 10.9975C14.3556 11.3634 14.5162 11.7411 14.807 12.0334L15.8113 11.0242C15.7674 10.9801 15.6979 10.8742 15.6424 10.6514C15.5881 10.4329 15.559 10.1488 15.559 9.8048C15.559 9.11627 15.6745 8.28595 15.8381 7.46389C16.0006 6.64787 16.2045 5.8687 16.3686 5.29142C16.4505 5.00347 16.522 4.76734 16.5728 4.60392C16.5982 4.52224 16.6185 4.45882 16.6322 4.41626L16.6477 4.36843L16.6514 4.35689L16.6525 4.35382Z" fill="#B11632"/>
</svg>
