<svg width="206" height="206" viewBox="0 0 206 206" fill="none" xmlns="http://www.w3.org/2000/svg">
<g style="mix-blend-mode:multiply" opacity="0.5">
<path d="M0 155.319C0.603057 152.503 1.0855 149.688 1.84938 146.912C3.98018 139.35 7.92015 132.794 13.4683 127.243C37.9524 102.747 62.4365 78.2514 86.9206 53.7153C91.3029 49.331 96.8912 47.6416 102.801 46.7165C105.374 46.3142 107.947 46.0327 110.802 45.6304C109.797 43.0964 108.993 40.5623 107.867 38.1489C106.58 35.454 107.023 33.5233 109.194 31.3914C119.124 21.6172 128.934 11.7223 138.784 1.86767C140.07 0.540311 141.397 -0.50549 143.367 0.258749C145.297 1.02299 145.498 2.75258 145.578 4.56262C146.101 14.6586 146.704 24.7546 147.226 34.8506C147.307 36.902 148.794 37.8674 150.041 38.9936C150.322 39.235 151.287 38.9132 151.85 38.6718C157.921 36.0975 164.032 33.483 170.102 30.8283C171.791 30.1043 173.319 29.8227 174.726 31.1903C176.133 32.5981 175.811 34.1266 175.088 35.816C172.515 41.6081 170.062 47.4807 167.529 53.313C166.363 55.9678 167.851 58.4214 170.866 58.6225C176.093 58.9443 181.279 59.2258 186.505 59.5074C191.772 59.789 197.079 59.9499 202.346 60.4325C203.512 60.5532 204.919 61.5588 205.602 62.5644C206.447 63.8113 205.844 65.2593 204.758 66.3856C194.345 76.8034 183.932 87.2614 173.52 97.6792C172.314 98.8858 170.947 99.2076 169.298 98.5641C166.323 97.3976 163.348 96.2713 160.534 95.1853C159.69 99.811 159.046 104.236 158.041 108.58C157.036 112.924 154.744 116.544 151.568 119.681C127.607 143.534 103.766 167.386 80.0056 191.278C72.0854 199.243 62.8386 204.351 51.5815 205.678C51.2599 205.718 50.9784 205.92 50.6568 206C47.5611 206 44.5056 206 41.4099 206C41.0481 205.879 40.6863 205.678 40.2842 205.638C21.3482 203.144 6.43261 190.031 1.48754 171.569C0.884484 169.276 0.482446 166.903 0 164.57C0 161.473 0 158.376 0 155.319Z" fill="#CCCCCC"/>
</g>
</svg>
