<svg width="30" height="30" viewBox="0 0 30 30" xmlns="http://www.w3.org/2000/svg">
<path d="M0.5 0.5H29.5V29.5H0.5V0.5Z" fill="none"/>
<path d="M29.7737 13.409C27.6199 12.8705 25.6199 10.8705 25.0045 8.71665C24.6968 7.71665 24.9276 6.25511 23.6199 6.25511C22.6199 6.25511 22.3122 7.71665 22.3122 8.5628C22.3122 10.409 22.6199 11.0243 22.6968 11.7936C22.7737 12.6397 22.6199 12.6397 21.7737 12.6397C20.466 12.6397 17.9276 12.4859 17.0045 13.2551C16.0045 14.1013 17.3122 15.1013 16.3122 16.1013C15.6199 16.7936 15.7737 17.6397 16.6199 18.409C17.2353 19.0243 15.7737 20.2551 16.8507 21.0243C18.0814 21.9474 17.543 22.332 18.1584 23.0243C18.7737 23.7166 19.6199 23.8705 21.0045 23.8705C28.543 23.8705 26.6968 22.7936 29.8507 22.7936L29.7737 13.409ZM0.619892 15.7936C2.77374 16.332 4.77374 18.332 5.38912 20.4859C5.69682 21.4859 5.46605 22.9474 6.77374 22.9474C7.77374 22.9474 8.08143 21.4859 8.08143 20.6397C8.08143 18.7936 7.77374 18.1782 7.69682 17.409C7.61989 16.5628 7.77374 16.5628 8.61989 16.5628C9.92758 16.5628 12.466 16.7166 13.3891 15.9474C14.3891 15.1013 13.0814 14.1013 14.0814 13.1013C14.7737 12.409 14.6199 11.5628 13.7737 10.7936C13.1584 10.1782 14.6199 8.94742 13.543 8.17818C12.3122 7.25511 12.8507 6.87049 12.2353 6.17819C11.6199 5.48588 10.7737 5.33203 9.38912 5.33203C1.85066 5.33203 3.69681 6.40895 0.542969 6.40895" stroke="none"/>
</svg>
