<svg width="20" height="20" viewBox="0 0 20 20" xmlns="http://www.w3.org/2000/svg">
<path fill-rule="evenodd" clip-rule="evenodd" d="M7.08861 12.6582C10.1646 12.6582 12.6582 10.1646 12.6582 7.08861C12.6582 4.01259 10.1646 1.51899 7.08861 1.51899C4.01259 1.51899 1.51899 4.01259 1.51899 7.08861C1.51899 10.1646 4.01259 12.6582 7.08861 12.6582ZM7.08861 14.1772C11.0035 14.1772 14.1772 11.0035 14.1772 7.08861C14.1772 3.17368 11.0035 0 7.08861 0C3.17368 0 0 3.17368 0 7.08861C0 11.0035 3.17368 14.1772 7.08861 14.1772Z" />
<path fill-rule="evenodd" clip-rule="evenodd" d="M11.1085 11.1085C11.4051 10.8119 11.886 10.8119 12.1826 11.1085L19.7775 18.7035C20.0742 19.0001 20.0742 19.4809 19.7775 19.7775C19.4809 20.0742 19.0001 20.0742 18.7035 19.7775L11.1085 12.1826C10.8119 11.886 10.8119 11.4051 11.1085 11.1085Z" />
</svg>
