<svg width="58" height="122" viewBox="0 0 58 122" fill="none" preserveAspectRatio="none" xmlns="http://www.w3.org/2000/svg">
<path d="M1 29C1 13.536 13.536 1 29 1V1C44.464 1 57 13.536 57 29V121H1V29Z" stroke="black"/>
<path d="M8 29.0032C7.99926 24.1989 9.64586 19.5397 12.6651 15.8026C15.6843 12.0656 19.8937 9.47681 24.5909 8.46811C29.2881 7.45941 34.1891 8.09179 38.4764 10.2598C42.7637 12.4277 46.1781 16.0002 48.1498 20.3812C50.1216 24.7623 50.5316 29.6869 49.3114 34.3336C48.0912 38.9804 45.3145 43.0683 41.4447 45.9153C37.5749 48.7624 32.8459 50.1965 28.0466 49.9783C23.2472 49.7602 18.6678 47.9031 15.0722 44.7167" stroke="black"/>
<path d="M29 43C36.732 43 43 36.732 43 29C43 21.268 36.732 15 29 15C21.268 15 15 21.268 15 29C15 36.732 21.268 43 29 43Z" stroke="black"/>
<path d="M29 36C32.866 36 36 32.866 36 29C36 25.134 32.866 22 29 22C25.134 22 22 25.134 22 29C22 32.866 25.134 36 29 36Z" stroke="black"/>
<path d="M8 29V114H50V47.8889" stroke="black"/>
<path d="M15 28V107H43V52.9076" stroke="black"/>
<path d="M22 56V100H36V56" stroke="black"/>
<path d="M1 28.9862C1.00303 22.8288 3.03563 16.8441 6.78318 11.9585C10.5307 7.07286 15.7842 3.55876 21.7305 1.96014C27.6767 0.36153 33.9841 0.76755 39.6764 3.11536C45.3686 5.46317 50.1282 9.62183 53.2184 14.9476C56.3086 20.2734 57.5571 26.4693 56.7706 32.5763C55.9842 38.6832 53.2066 44.3607 48.8679 48.7298C44.5292 53.0989 38.8713 55.916 32.7699 56.745C26.6686 57.574 20.4641 56.3688 15.1169 53.3158" stroke="black"/>
</svg>
