<svg width="28" height="28" viewBox="0 0 28 28" xmlns="http://www.w3.org/2000/svg">
<path d="M24.5247 3.47487L17.8072 10.1924M24.5247 3.47487C24.5247 3.47487 21.6963 4.18198 19.5749 3.47487M24.5247 3.47487C24.5247 3.47487 23.8176 6.3033 24.5247 8.42462" />
<path d="M3.47487 3.47435L10.1924 10.1919M3.47487 3.47435C3.47487 3.47435 4.18198 6.30277 3.47487 8.42409M3.47487 3.47435C3.47487 3.47435 6.3033 4.18145 8.42462 3.47435" />
<path d="M24.5251 24.5257L17.8076 17.8081M24.5251 24.5257C24.5251 24.5257 23.818 21.6972 24.5251 19.5759M24.5251 24.5257C24.5251 24.5257 21.6967 23.8185 19.5754 24.5257" />
<path d="M3.47532 24.5251L10.1928 17.8076M3.47532 24.5251C3.47532 24.5251 6.30375 23.818 8.42507 24.5251M3.47532 24.5251C3.47532 24.5251 4.18243 21.6967 3.47532 19.5754" />
</svg>
