<svg width="18" height="18" viewBox="0 0 18 18" xmlns="http://www.w3.org/2000/svg">
<path fill-rule="evenodd" clip-rule="evenodd" d="M16.5 9C16.5 13.1421 13.1421 16.5 9 16.5C4.85786 16.5 1.5 13.1421 1.5 9C1.5 4.85786 4.85786 1.5 9 1.5C13.1421 1.5 16.5 4.85786 16.5 9ZM18 9C18 13.9706 13.9706 18 9 18C4.02944 18 0 13.9706 0 9C0 4.02944 4.02944 0 9 0C13.9706 0 18 4.02944 18 9ZM5 10.5C5.82843 10.5 6.5 9.82843 6.5 9C6.5 8.17157 5.82843 7.5 5 7.5C4.17157 7.5 3.5 8.17157 3.5 9C3.5 9.82843 4.17157 10.5 5 10.5ZM9 10.5C9.82843 10.5 10.5 9.82843 10.5 9C10.5 8.17157 9.82843 7.5 9 7.5C8.17157 7.5 7.5 8.17157 7.5 9C7.5 9.82843 8.17157 10.5 9 10.5ZM14.5 9C14.5 9.82843 13.8284 10.5 13 10.5C12.1716 10.5 11.5 9.82843 11.5 9C11.5 8.17157 12.1716 7.5 13 7.5C13.8284 7.5 14.5 8.17157 14.5 9Z" />
</svg>
