<svg width="100%" height="100%" viewBox="0 0 112 240" fill="none" preserveAspectRatio="none" xmlns="http://www.w3.org/2000/svg">
<path d="M0.5 56C0.5 25.3482 25.3482 0.5 56 0.5C86.6518 0.5 111.5 25.3482 111.5 56V239.5H0.5V56Z" />
<path d="M32.5 56C32.5 34.1847 50.1848 16.5 72 16.5C93.8152 16.5 111.5 34.1848 111.5 56V239.5H32.5V56Z" />
<path d="M0.5 56C0.5 34.1847 18.1848 16.5 40 16.5C61.8152 16.5 79.5 34.1848 79.5 56V239.5H0.5V56Z" />
<path d="M16.5 72C16.5 50.1848 34.1848 32.5 56 32.5C77.8152 32.5 95.5 50.1848 95.5 72V239.5H16.5V72Z" />
<path d="M40.5 72C40.5 63.4396 47.4396 56.5 56 56.5C64.5604 56.5 71.5 63.4396 71.5 72V215.5H40.5V72Z" />
<path d="M48.5 72C48.5 67.8579 51.8579 64.5 56 64.5C60.1421 64.5 63.5 67.8579 63.5 72V207.5H48.5V72Z" />
</svg>
