<svg width="192" height="224" viewBox="0 0 192 224" fill="none" xmlns="http://www.w3.org/2000/svg">
<path opacity="0.1" d="M79.56 0C84.8523 3.09415 90.385 5.78117 95.2763 9.28244C108.507 18.7277 118.37 31.2672 126.228 45.598C132.562 57.0789 137.213 69.2926 141.142 82.5649C141.784 81.6692 142.425 80.7735 143.147 79.8779C147.076 74.7481 148.519 68.8041 148.68 62.5344C148.76 59.1145 148.599 55.6947 148.038 52.2748C147.557 49.0178 146.434 45.8422 145.392 41.9338C148.439 44.9466 151.326 47.4707 153.811 50.3206C166.4 64.4071 176.744 80.0407 183.881 97.7913C189.414 111.634 192.621 126.046 191.899 141.028C191.178 157.232 185.885 171.807 176.664 184.916C164.957 201.608 149.241 213.659 132.001 223.837C131.921 223.919 131.761 223.919 131.279 224C142.265 200.875 143.628 176.936 137.373 152.509C131.119 128.244 118.37 108.051 98.0026 92.743C99.6865 107.562 97.2008 121.323 92.0689 134.677C89.2624 141.924 85.4937 148.6 79.961 154.87C81.9656 143.064 80.2817 132.397 74.1876 122.056C73.3858 124.987 72.7443 127.43 72.0226 129.791C68.5747 141.354 62.9617 151.776 56.3866 161.791C51.816 168.712 48.2077 176.122 46.6842 184.509C45.0003 193.873 46.2031 202.992 49.0897 211.868C50.3727 215.858 51.9764 219.766 53.5801 223.919C53.099 223.674 52.698 223.593 52.2971 223.349C41.0712 216.835 30.4066 209.669 21.0249 200.55C11.082 190.86 3.46442 179.705 1.05887 165.618C-1.34668 151.695 0.417388 138.015 5.62942 125.069C9.87922 114.483 15.0913 104.305 19.742 93.8829C23.7512 85.0891 27.1992 76.0509 27.8407 65.6285C34.6564 77.2723 36.2601 89.5674 36.8214 102.514C37.4629 101.863 37.7836 101.537 38.1044 101.13C49.3303 86.8804 59.6741 72.1425 67.6125 55.6947C73.1452 44.2952 77.395 32.4885 78.9186 19.8677C79.56 14.4936 79.1591 8.95674 79.2393 3.50127C79.2393 2.36132 79.1591 1.13995 79.1591 0C79.2393 0 79.3997 0 79.56 0Z" fill="#1A1A1A"/>
</svg>
