<svg viewBox="0 0 102 57" xmlns="http://www.w3.org/2000/svg">
<path d="M100.459 55.784V49.248C102.462 49.4 102.462 47.272 100.459 47.12L92.139 45.448V32.224C93.9879 31.768 93.3716 30.096 92.139 29.944V23.864C94.142 24.016 94.2961 22.04 92.6012 21.888L77.3474 18.544V13.072C77.3474 10.336 80.1208 11.4 79.5045 9.424L51 0L22.4955 9.424C21.8792 11.248 24.4985 10.184 24.4985 13.072V18.544L9.3988 21.888C7.70394 22.04 7.858 24.016 9.86102 23.864V29.944C8.62839 30.096 8.01207 31.92 9.86102 32.376V45.448L1.3867 47.12C-0.462245 47.272 -0.462235 49.4 1.54079 49.248V55.784L0 55.936V57H102V55.936L100.459 55.784ZM9.70697 55.024L2.92748 55.784L2.77344 49.704H9.86102L9.70697 55.024ZM76.7311 31.464H25.423V29.64H76.7311V31.464ZM76.8852 47.424V52.136C76.8852 52.288 76.8852 52.896 76.7311 52.896H74.574C74.4199 52.896 74.42 52.288 74.42 52.136V47.424L74.574 33.288C74.574 32.528 76.577 32.528 76.7311 33.288L76.8852 47.424ZM70.1057 47.424V52.136C70.1057 52.288 70.1057 52.896 69.9516 52.896H67.6405C67.4864 52.896 67.4864 52.288 67.4864 52.136V47.424L67.6405 33.288C67.6405 32.528 69.7976 32.528 69.9516 33.288L70.1057 47.424ZM63.1722 47.424V52.136C63.1722 52.288 63.1722 52.896 63.0181 52.896H60.7069C60.5528 52.896 60.5529 52.288 60.5529 52.136V47.424L60.7069 33.288C60.7069 32.528 62.864 32.528 63.0181 33.288L63.1722 47.424ZM55.9305 47.424V52.136C55.9305 52.288 55.9305 52.896 55.7764 52.896H53.4653C53.3112 52.896 53.3112 52.288 53.3112 52.136V47.424L53.4653 33.288C53.4653 32.528 55.6224 32.528 55.7764 33.288L55.9305 47.424ZM48.8429 47.424V52.136C48.8429 52.288 48.8429 52.896 48.6888 52.896H46.3776C46.2236 52.896 46.2236 52.288 46.2236 52.136V47.424L46.3776 33.288C46.3776 32.528 48.5347 32.528 48.6888 33.288L48.8429 47.424ZM41.6012 47.424V52.136C41.6012 52.288 41.6012 52.896 41.4471 52.896H39.1359C38.9819 52.896 38.9819 52.288 38.9819 52.136V47.424L39.1359 33.288C39.1359 32.528 41.293 32.528 41.4471 33.288L41.6012 47.424ZM34.3595 47.424V52.136C34.3595 52.288 34.3595 52.896 34.2055 52.896H31.8943C31.7402 52.896 31.7402 52.288 31.7402 52.136V47.424L31.8943 33.288C31.8943 32.528 34.0514 32.528 34.2055 33.288L34.3595 47.424ZM27.8882 47.424V52.136C27.8882 52.288 27.8882 52.896 27.7341 52.896H25.577C25.423 52.896 25.423 52.288 25.423 52.136V47.424L25.577 33.288C25.577 32.528 27.5801 32.528 27.7341 33.288L27.8882 47.424ZM26.0393 28.424L51 21.432L75.9607 28.424H26.0393ZM51 19.912L40.8308 22.648H25.7311V19H46.3776C46.3776 19.456 46.2236 19.912 45.9154 20.52L51 19.304H51.1541L56.0846 20.52C55.7764 19.912 55.6224 19.456 55.6224 19H76.423V22.648H61.1692L51 19.912ZM29.8912 17.936V10.336H33.8973V17.936H29.8912ZM34.8218 17.936V10.336H40.9849V17.936H34.8218ZM57.0091 12.16C54.0816 12.16 55.6224 18.088 52.6949 18.392C53.1571 18.088 53.3112 17.176 53.3112 16.112C53.3112 14.44 52.8489 12.312 51 10.792C49.1511 12.312 48.5347 14.44 48.5347 16.112C48.5347 17.176 48.8429 18.088 49.3051 18.392C46.5317 18.088 48.0725 12.16 44.9909 12.16C44.6828 12.768 44.5287 13.224 44.5287 13.832C44.5287 15.352 45.9154 16.264 46.3776 17.936H41.7553V10.336H50.8459H59.7825V17.936H55.4683C55.7764 16.568 57.1631 15.656 57.1631 13.832C57.4713 13.224 57.3172 12.768 57.0091 12.16ZM61.0151 17.936V10.336H67.1782V17.936H61.0151ZM68.1027 17.936V10.336H72.1088V17.936H68.1027ZM73.1873 17.936V10.336H76.577L76.2689 11.552V17.936H73.1873ZM51 1.52L74.1118 8.96799H27.8882L51 1.52ZM28.8127 10.336V17.936H25.7311V11.552L25.423 10.336H28.8127ZM11.0937 23.864H36.9788L23.1118 27.968C22.4955 28.272 22.6495 28.88 23.1118 29.336H11.0937V23.864ZM11.0937 30.096H24.0363V32.224H11.0937V30.096ZM11.0937 33.744H24.0363V45.448H11.0937V33.744ZM11.0937 46.816H24.0363V53.048L11.0937 54.872V46.816ZM77.9637 55.024H24.0363V53.504H77.9637V55.024ZM90.9063 54.872L77.9637 53.048V46.816H90.9063V54.872ZM90.9063 45.448H77.9637V33.744H90.9063V45.448ZM90.9063 32.376H77.9637V30.248H90.9063V32.376ZM90.9063 29.184H78.8882C79.3505 28.728 79.5045 28.12 78.8882 27.816L64.8671 23.864H90.9063V29.184ZM98.9184 55.784L92.293 55.024L92.139 49.704H99.2266L98.9184 55.784Z" />
</svg>
