<svg width="45" height="19" viewBox="0 0 45 19" fill="none" xmlns="http://www.w3.org/2000/svg">
<path d="M8.984 14H11.564C14.576 14 16.028 12.224 16.028 9.728V9.62C16.028 7.124 14.576 5.42 11.588 5.42H8.984V14ZM10.58 12.74V6.68H11.504C13.52 6.68 14.36 7.796 14.36 9.644V9.74C14.36 11.636 13.436 12.74 11.516 12.74H10.58ZM22.0624 14.12C24.6664 14.12 26.3824 12.236 26.3824 9.728V9.632C26.3824 7.112 24.6184 5.3 22.0624 5.3C19.5184 5.3 17.7184 7.16 17.7184 9.668V9.764C17.7184 12.236 19.4344 14.12 22.0624 14.12ZM22.0864 12.836C20.5264 12.836 19.3864 11.624 19.3864 9.752V9.656C19.3864 7.808 20.3824 6.572 22.0624 6.572C23.7424 6.572 24.7264 7.88 24.7264 9.644V9.74C24.7264 11.6 23.7064 12.836 22.0864 12.836ZM32.2798 14.12C34.3198 14.12 35.7838 13.076 36.0358 11.012H34.4758C34.3078 12.224 33.4678 12.824 32.2798 12.824C30.6958 12.824 29.7718 11.684 29.7718 9.752V9.656C29.7718 7.736 30.7558 6.56 32.2678 6.56C33.5038 6.56 34.1398 7.148 34.3198 8.288H35.9398C35.7478 6.272 34.2238 5.288 32.2558 5.288C29.8678 5.288 28.0918 7.088 28.0918 9.668V9.764C28.0918 12.404 29.5918 14.12 32.2798 14.12Z" fill="#B11632"/>
<rect x="0.5" y="0.5" width="44" height="18" rx="3.5" stroke="#B11632"/>
</svg>
