<svg width="402" height="402" viewBox="0 0 402 402" fill="none" xmlns="http://www.w3.org/2000/svg">
<path d="M342 92C281.801 92 233 140.801 233 201V201C233 261.199 281.801 310 342 310L368 310L368 92L342 92Z" />
<path d="M60 92C120.199 92 169 140.801 169 201V201C169 261.199 120.199 310 60 310L34 310L34 92L60 92Z" />
<path d="M342 60C264.128 60 201 123.128 201 201V201C201 278.872 264.128 342 342 342V342L342 60V60Z" />
<path d="M60 60C137.872 60 201 123.128 201 201V201C201 278.872 137.872 342 60 342V342L60 60V60Z" />
<rect x="1" y="1" width="400" height="400" rx="200" />
<circle cx="201" cy="201" r="141" />
<circle cx="201" cy="201" r="115" />
<rect x="60" y="60" width="282" height="282" />
</svg>
