<svg width="118" height="118" viewBox="0 0 118 118" fill="none" xmlns="http://www.w3.org/2000/svg">
<path d="M99.89 27.39C82.4323 27.39 68.28 41.5423 68.28 59V59C68.28 76.4578 82.4323 90.61 99.89 90.61L107.43 90.61L107.43 27.39L99.89 27.39Z" />
<path d="M18.1101 27.39C35.5678 27.39 49.7201 41.5423 49.7201 59V59C49.7201 76.4578 35.5678 90.61 18.1101 90.61L10.5701 90.61L10.5701 27.39L18.1101 27.39Z" />
<path d="M99.89 18.11C77.3071 18.11 59 36.4171 59 59V59C59 81.5829 77.3071 99.89 99.89 99.89V99.89L99.89 18.11V18.11Z" />
<path d="M18.11 18.11C40.6929 18.11 59 36.4171 59 59V59C59 81.5829 40.6929 99.89 18.11 99.89V99.89L18.11 18.11V18.11Z" />
<rect x="1" y="1" width="116" height="116" rx="58" />
<circle cx="59" cy="59" r="40.89" />
<rect x="18.11" y="18.11" width="81.78" height="81.78" />
</svg>
